<?xml version="1.0" encoding="UTF-8"?>
<svg id="Capa_1" data-name="Capa 1" xmlns="http://www.w3.org/2000/svg" xmlns:xlink="http://www.w3.org/1999/xlink" viewBox="0 0 610.79 1013.54">
  <defs>
    <style>
      .cls-1 {
        fill: #34846d;
      }

      .cls-2 {
        fill: #0f2b0f;
      }

      .cls-3 {
        clip-path: url(#clippath-2);
      }

      .cls-4 {
        fill: #dd9c19;
      }

      .cls-5 {
        fill: #1f4f41;
      }

      .cls-6 {
        fill: #3d2c2a;
      }

      .cls-7 {
        clip-path: url(#clippath-1);
      }

      .cls-8 {
        fill: #f8e895;
      }

      .cls-9 {
        fill: #6d4845;
      }

      .cls-10 {
        fill: #231303;
      }

      .cls-11 {
        fill: #323847;
      }

      .cls-12 {
        clip-path: url(#clippath);
      }

      .cls-13, .cls-14 {
        fill: none;
      }

      .cls-15 {
        fill: #2b1a00;
      }

      .cls-16 {
        fill: #04071d;
      }

      .cls-14 {
        stroke: #143a14;
        stroke-miterlimit: 10;
        stroke-width: 19.13px;
      }

      .cls-17 {
        fill: #190a00;
      }

      .cls-18 {
        fill: #276757;
      }

      .cls-19 {
        fill: #444e75;
      }

      .cls-20 {
        fill: #40291d;
      }
    </style>
    <clipPath id="clippath">
      <rect class="cls-13" y="-2.43" width="615.77" height="1015.97"/>
    </clipPath>
    <clipPath id="clippath-1">
      <rect class="cls-13" x="42.95" y="142.89" width="536.88" height="394.68"/>
    </clipPath>
    <clipPath id="clippath-2">
      <rect class="cls-13" x="80.76" y="258.4" width="463.68" height="257.67"/>
    </clipPath>
  </defs>
  <g class="cls-12">
    <rect class="cls-15" x="-6.18" y="-2.43" width="621.95" height="684.92"/>
    <path class="cls-17" d="M-6.18,656.25c0,3.46,106.55-3.54,114.57-4.57,64.1-8.2,128,15.52,192.29,11.04,21.88-1.53,43.86-6.12,65.57-2.99,9.06,1.31,17.91,3.95,27.01,4.95,9.78,1.08,19.67,.25,29.48-.59,60.97-5.18,157.87-7.84,218.82-7.84v268.93H-6.18v-268.93h0Z"/>
    <path class="cls-6" d="M-1.34,922.11c30.61,6.43,48.65-7.69,76.57-15.09,42.39-11.24,87.64,1.69,129.83,7.71,33.35,4.76,67.44,5.79,100.53-.73,12.89-2.54,25.62-6.21,38.69-7.36,35.79-3.13,70.53,12.85,106.3,16.32,43.77,4.24,86.48-10.56,130.1-9.89,42.8,.65,84.85,8.49,128.71,8.49h149.63l-5.03,112.87L-1.34,1015.09v-92.98h0Z"/>
    <path class="cls-10" d="M357.65,65.56c-45.66,.61-91.33,1.21-136.99,1.82-7.25,.1-17.39,3.95-14.99,10.79,1.11,3.17,4.67,4.71,7.94,5.48,17.01,4.03,40.22-.2,47.47,15.7-6.82,11.28-21.27,15.91-34.44,15.17-13.16-.74-25.62-5.83-38.17-9.89-19.48-6.3-39.73-10.23-60.16-11.65-14.1-.98-33.63,4.89-31.5,18.87,.5,3.3,2.25,6.98,.33,9.71-1.42,2.02-4.21,2.42-6.67,2.65-12.58,1.16-25.17,2.32-37.75,3.48,2.39,21.56-1.52,43.78-11.12,63.23-8.34-6.95-6.83-19.93-4.57-30.55,6.69-31.4,13.38-62.8,20.07-94.19,.83-3.91,1.81-8.08,4.76-10.78,3.43-3.15,8.53-3.41,13.19-3.51,54.18-1.1,108.36-1.92,162.55-2.45,39.99-.4,117.84-15.23,152.24,3.16-6.9,10.62-19.67,12.79-32.18,12.96h-.01Z"/>
    <polygon class="cls-11" points="657.9 963.58 550.06 1023.82 494.75 1022.84 615.77 963.58 615.77 2.33 657.9 2.33 657.9 963.58"/>
    <path class="cls-9" d="M683.06,953.26c7.6-4.63,35.72,0,44.4,0h121.81c46.08,.01,51.77-1.64,97.98-5.16,51.03-3.88,102.88-8.94,153.63,.07,16.22,2.88,32.2,7.18,48.66,8.5,41.47,3.32,81.84-12.44,123.31-15.74,55.69-4.43,110.38,20.44,164.9,15.54,51.7-4.65,104.42-3.21,156.74-3.21h254.58c56.94,0,63.81,6.13,63.81,6.13l.71,64.44-1312.94,9.8-106.56-1.57s195.14-82.56,188.96-78.8h0Z"/>
    <g id="Capa_1-2" data-name="Capa 1-2">
      <path class="cls-19" d="M376.97,946.27c-21.01-4.73-41.26-19.15-46.46-40.05-5.99-24.04,8.98-48.23,25.96-66.28,5.46-5.81,11.47-11.52,19-14.14,11.27-3.93,24.36-.41,35.16-5.48,14.46-6.78,18.32-25.18,20.39-41.02,.56,2.88,1.12,5.75,1.69,8.63,10.85-7.09,22.77-12.54,35.23-16.11-5.42,15.91-14.86,30.43-27.2,41.85,4.32,10.32,17.95,11.66,28.72,14.7,30.6,8.64,49.22,45.54,39.44,75.8-16.21,50.16-89.52,51.65-131.93,42.1h0Z"/>
      <path d="M384.09,956.09c-21.01-4.73-41.26-19.15-46.46-40.05-5.99-24.04,8.98-48.23,25.96-66.28,5.46-5.81,11.47-11.52,19-14.14,11.27-3.93,24.36-.41,35.16-5.48,14.46-6.78,18.32-25.18,20.39-41.02,.56,2.88,1.12,5.75,1.69,8.63,10.85-7.09,22.77-12.54,35.23-16.11-5.42,15.91-14.86,30.43-27.2,41.85,4.32,10.32,17.95,11.66,28.72,14.7,30.6,8.64,49.22,45.54,39.44,75.8-16.21,50.16-89.52,51.65-131.93,42.1h0Z"/>
      <path class="cls-19" d="M463.15,878.48c1.83,17.85-15.12,31.35-30.17,41.13,16.29,2.96,33.4,1.32,48.83-4.69,1.6-.62,3.26-1.35,4.3-2.73,2.8-3.73-.67-8.83-3.95-12.13-6.05-6.09-12.1-12.19-18.15-18.28"/>
      <path class="cls-18" d="M306.3,898.49l-27.14,23.69c-2.92,2.54-7.34,2.24-9.89-.67l-11.33-12.97c-1.8-2.07-2.18-4.89-1.2-7.27,.11-.27,.24-.53,.38-.79,.38-.67,.88-1.29,1.49-1.83l27.14-23.69c.29-.25,.59-.47,.9-.67,1.24-.78,2.66-1.13,4.06-1.05,1.3,.07,2.6-.06,3.85-.39,.01,0,.02,0,.03-.01,1.03-.27,1.35-.13,1.76-.29,.17-.07,.36-.18,.63-.4,.1-.08,.2-.17,.32-.28l4.44-4.02c.24-.21,.48-.42,.73-.62,.76-.61,1.58-1.14,2.45-1.59l14.23-7.36h0l.92-.59c.22-.14,.39-.35,.49-.59,.08-.18,.12-.38,.12-.59,0-.43,.17-.87,.52-1.17,.57-.5,1.4-.5,1.96-.04l1.75-.92c.36-.19,.6-.55,.61-.95,.01-.35,.17-.7,.45-.95,.27-.24,.62-.35,.96-.32,.34,.02,.66,.17,.9,.45l6.22,7.13c.5,.57,.46,1.47-.13,1.94-.27,.21-.6,.31-.91,.29h0c-.42-.03-.82,.14-1.07,.48l-1.14,1.61c.17,.27,.24,.58,.22,.89-.03,.39-.2,.77-.52,1.05-.35,.31-.8,.42-1.23,.36-.47-.07-.94,.08-1.24,.44l-.7,.83-9.21,13.11c-.56,.8-1.2,1.54-1.9,2.21-.23,.22-.47,.43-.71,.64l-4.58,3.86c-.44,.37-.67,.62-.81,.84-.26,.43-.15,.78-.57,1.83-.47,1.17-.75,2.4-.86,3.67-.15,1.74-.95,3.44-2.37,4.68h0l-.02,.02h0Z"/>
      <path class="cls-5" d="M306.3,898.49l-27.14,23.69c-2.91,2.54-7.34,2.24-9.89-.67l-11.33-12.97c-.65-.74-1.07-1.5-1.34-2.23-.82-2.26,2.15-3.95,3.73-2.14l8.91,10.21c1.67,1.91,4.57,2.11,6.49,.44l23.97-20.92c.82-.71,.9-1.95,.19-2.77h0c-1.75-2-2.63-4.62-2.45-7.28l.22-3.29c.05-.67,.88-.95,1.33-.45h0c.44,.51,1.28,.23,1.33-.45l.1-1.51c.05-.67,.88-.95,1.33-.45l2.03,2.32c1.12,1.28,3.07,1.42,4.35,.3l3.67-3.2,12.37-10.61c.69-.59,1.72-.51,2.31,.17l.85,.97-9.21,13.11c-.74,1.06-1.62,2.02-2.61,2.85l-4.58,3.86c-1.32,1.11-.74,1.08-1.38,2.67-.47,1.17-.75,2.4-.86,3.67-.15,1.74-.95,3.44-2.37,4.68h-.02Z"/>
      <path class="cls-18" d="M335.05,861.85l-.25,.22c-.35,.3-.68,.23-.92,.11-.16-.09-.2-.31-.07-.45,.37-.42,.52-.88,.32-1.11-.2-.23-.7-.14-1.17,.19-.13,.09-.3,.07-.41-.05l-.09-.1c-.1-.11-.1-.28,0-.39,.37-.46,.43-1.07,.09-1.45-.34-.39-.95-.41-1.45-.11-.13,.08-.29,.06-.39-.05l-.09-.1c-.1-.11-.09-.27,0-.39,.36-.47,.36-1.14-.03-1.6-.41-.45-1.07-.54-1.58-.25-.13,.07-.29,.05-.39-.06l-.09-.1c-.1-.11-.1-.28,0-.39,.38-.46,.43-1.07,.09-1.45s-.95-.41-1.45-.1c-.13,.08-.29,.06-.39-.05l-.09-.1c-.1-.12-.1-.29,.01-.41,.39-.43,.55-.91,.35-1.14-.2-.23-.68-.14-1.14,.17-.16,.1-.37,.04-.44-.14-.09-.25-.12-.59,.23-.89l.25-.22c.41-.35,.89-.56,1.39-.63,.85-.11,1.73,.19,2.34,.88l5.64,6.46c.6,.69,.78,1.61,.56,2.43-.13,.48-.4,.94-.81,1.29h0l-.02-.02h0Z"/>
      <path class="cls-18" d="M328.9,864.27h0c-.65,.57-1.65,.5-2.22-.15l-5.58-6.39c-.29-.33-.42-.75-.42-1.19h0c0-.43,.17-.87,.52-1.17,.57-.5,1.4-.5,1.96-.04l5.88,6.73c.57,.65,.5,1.65-.15,2.22h.01Z"/>
      <path class="cls-18" d="M323.78,859.18l-2.08-2.38c-.22-.26-.2-.65,.06-.87h0c.26-.22,.65-.2,.87,.06l2.08,2.38c.22,.26,.2,.65-.06,.87h0c-.26,.22-.65,.2-.87-.06Z"/>
      <path class="cls-1" d="M285.45,884.25l-18.28,15.96c-2.21,1.93-5.56,1.7-7.48-.51l-.98-1.13,25.43-22.2c.29-.25,.59-.47,.9-.67l.92,1.06c1.93,2.21,1.7,5.56-.51,7.48h0Z"/>
      <path class="cls-18" d="M334.8,859.34l-6.41-7.34c-.41-.47,.16-1.17,.69-.84,.21,.13,.41,.3,.58,.5l5.64,6.46c.16,.19,.3,.39,.4,.61,.28,.58-.48,1.09-.91,.61h.01Z"/>
      <path class="cls-1" d="M319.42,863.43l-6.97,6.08c-2.03,1.77-4.37,3.14-6.91,4.05l-2.17,.77c-2.07,.74-4.37,.13-5.82-1.52l-.58-.66c.1-.08,.2-.17,.32-.28l4.44-4.02c.96-.87,2.03-1.61,3.18-2.2l14.23-7.36h0l.57,.65c1.16,1.32,1.02,3.33-.3,4.49h0Z"/>
      <path class="cls-18" d="M295.65,902.18l-13.21,11.53c-3.57,3.12-8.99,2.75-12.1-.82l-3.7-4.24c-1.8-2.06-2.43-4.73-1.97-7.22,.34-1.83,1.28-3.56,2.79-4.88l13.21-11.53c1.69-1.48,3.81-2.17,5.89-2.11,2.3,.07,4.58,1.06,6.21,2.93l3.7,4.24c3.12,3.57,2.75,8.99-.82,12.1h0Z"/>
      <path class="cls-18" d="M285.45,884.25l-18.29,15.96c-.74,.64-1.6,1.05-2.5,1.22,.34-1.83,1.28-3.56,2.79-4.88l13.21-11.53c1.69-1.48,3.81-2.17,5.89-2.11-.28,.5-.65,.95-1.11,1.35h0Z"/>
      <rect class="cls-18" x="265.78" y="889.45" width="31.53" height="19.85" rx="7.38" ry="7.38" transform="translate(-522.02 407) rotate(-41.12)"/>
      <rect class="cls-18" x="272" y="895.65" width="19.09" height="7.44" rx="3.64" ry="3.64" transform="translate(-522.01 407) rotate(-41.12)"/>
      <path class="cls-18" d="M310.92,887.47c-.44,.37-.67,.62-.81,.84l-13.75-15.75c.17-.07,.36-.18,.63-.4,.1-.08,.2-.17,.32-.28l4.44-4.02c.24-.21,.48-.42,.73-.62l13.74,15.73c-.23,.22-.47,.43-.71,.64l-4.58,3.86h-.01Z"/>
      <circle class="cls-18" cx="281.81" cy="899.32" r="7.39"/>
      <circle class="cls-18" cx="309.14" cy="875.4" r="6.07"/>
      <circle class="cls-18" cx="309.14" cy="875.4" r="5.03"/>
      <path class="cls-18" d="M282.77,910.32c-.23-.26-.39-.57-.46-.91-.1-.44-.16-.95-.23-1.65-.05-.43-.1-.95-.18-1.57-.25-2-1.64-3.78-2.23-4.44-.17-.2-.3-.33-.34-.37l-.07-.08v-.02s-.16-.19-.33-.39c-.58-.67-2.16-2.28-4.1-2.81-.61-.16-1.11-.29-1.54-.39-.68-.17-1.18-.29-1.6-.45-.32-.12-.62-.32-.84-.58-.53-.61-.67-1.48-.35-2.23l1.64-3.79c.27-.62,.8-1.06,1.45-1.22,.64-.16,1.31,0,1.81,.41,.92,.75,1.9,1.2,2.91,1.32,2.97,.35,6.89,4.71,7.05,4.9,.17,.2,3.93,4.64,3.88,7.63-.02,1.02,.29,2.05,.91,3.06,.35,.56,.41,1.24,.16,1.85-.25,.63-.76,1.09-1.4,1.27l-3.98,1.11c-.78,.22-1.63-.04-2.16-.65h0Z"/>
      <path class="cls-18" d="M284.89,896.45s3.77,4.42,3.72,7.21c-.02,1.36,.47,2.53,1.01,3.4,.52,.84,.07,1.94-.88,2.2l-3.98,1.11c-.57,.16-1.16-.04-1.53-.46-.15-.18-.27-.39-.33-.64-.15-.67-.2-1.54-.4-3.17-.27-2.13-1.67-3.97-2.37-4.77-.18-.21-.32-.35-.37-.4l-.03-.03c-.05-.06-.17-.21-.35-.42-.7-.8-2.34-2.44-4.41-3-1.58-.43-2.44-.59-3.08-.83-.24-.09-.44-.23-.59-.41-.37-.42-.48-1.03-.25-1.57l1.64-3.79c.39-.9,1.54-1.2,2.3-.57,.79,.65,1.88,1.29,3.23,1.45,2.77,.33,6.66,4.69,6.66,4.69m.94-.82h0c-.43-.49-4.3-4.73-7.44-5.11-.9-.11-1.77-.5-2.59-1.18-.66-.54-1.52-.74-2.36-.54-.85,.2-1.53,.78-1.88,1.58l-1.64,3.79c-.42,.96-.24,2.1,.45,2.88,.29,.34,.67,.6,1.09,.76,.46,.17,.97,.3,1.67,.47,.43,.11,.92,.23,1.52,.39,1.78,.48,3.25,1.99,3.8,2.61,.17,.19,.27,.32,.3,.36l.03,.03,.03,.03,.03,.03,.03,.03,.03,.03s.15,.15,.32,.34c.55,.63,1.84,2.28,2.08,4.11,.08,.62,.13,1.12,.18,1.56,.08,.72,.13,1.24,.24,1.72,.1,.44,.31,.85,.6,1.18,.69,.79,1.79,1.12,2.8,.84l3.98-1.11c.84-.24,1.5-.84,1.82-1.65,.31-.8,.23-1.68-.21-2.41-.56-.91-.84-1.82-.82-2.73,.05-3.16-3.6-7.54-4.02-8.03h0l-.04,.02h0Z"/>
      <path class="cls-18" d="M309.75,883.08c-.16-.18-.27-.4-.32-.63-.07-.31-.11-.66-.16-1.15-.03-.3-.07-.66-.13-1.09-.18-1.39-1.14-2.62-1.54-3.08-.12-.14-.21-.23-.24-.26l-.05-.05h0s-.1-.14-.22-.28c-.41-.46-1.49-1.58-2.85-1.95-.42-.11-.77-.2-1.07-.27-.47-.12-.82-.2-1.11-.31-.23-.08-.43-.22-.58-.4-.37-.42-.46-1.03-.24-1.55l1.14-2.63c.19-.43,.55-.74,1.01-.85,.45-.11,.91,0,1.26,.29,.64,.52,1.31,.83,2.02,.91,2.06,.25,4.78,3.27,4.89,3.4,.12,.14,2.73,3.22,2.69,5.29-.01,.71,.2,1.42,.63,2.12,.24,.39,.28,.86,.11,1.29-.17,.44-.53,.76-.97,.88l-2.76,.77c-.54,.15-1.13-.03-1.5-.45h-.01Z"/>
      <path class="cls-18" d="M311.22,873.46s2.61,3.07,2.58,5c-.02,.94,.33,1.76,.7,2.36,.36,.58,.05,1.34-.61,1.53l-2.76,.77c-.4,.11-.81-.03-1.06-.32-.11-.12-.19-.27-.23-.44-.11-.46-.14-1.07-.28-2.2-.19-1.48-1.16-2.75-1.65-3.31-.13-.14-.22-.24-.26-.28l-.02-.02s-.12-.15-.24-.29c-.49-.56-1.62-1.69-3.06-2.08-1.1-.3-1.69-.41-2.14-.57-.16-.06-.3-.16-.41-.28-.25-.29-.33-.71-.17-1.09l1.14-2.63c.27-.62,1.07-.83,1.6-.4,.55,.45,1.31,.9,2.24,1.01,1.92,.23,4.62,3.25,4.62,3.25m.65-.57h0c-.3-.34-2.98-3.28-5.16-3.54-.62-.07-1.23-.35-1.8-.82-.46-.38-1.05-.51-1.63-.37-.59,.14-1.06,.54-1.3,1.09l-1.14,2.63c-.29,.67-.17,1.45,.31,2,.2,.23,.47,.41,.76,.52,.32,.12,.67,.21,1.16,.33,.3,.07,.64,.16,1.06,.27,1.24,.33,2.25,1.38,2.63,1.81,.12,.13,.19,.22,.21,.25l.02,.02,.02,.02,.02,.02,.02,.02,.02,.02s.1,.11,.22,.24c.38,.43,1.28,1.58,1.44,2.85,.06,.43,.09,.78,.13,1.08,.05,.5,.09,.86,.17,1.19,.07,.3,.21,.59,.42,.82,.48,.55,1.24,.77,1.94,.58l2.76-.77c.58-.16,1.04-.58,1.26-1.14s.16-1.16-.15-1.67c-.39-.63-.58-1.26-.57-1.89,.04-2.19-2.5-5.23-2.79-5.57h-.03Z"/>
      <path class="cls-18" d="M279.65,901l-.02-.02h0l.02,.02Z"/>
      <path class="cls-18" d="M274.52,893.67h.37c.08,.04,.16,.08,.24,.12,.14-.31,.28-.62,.42-.93,.06-.13,.08-.23,.07-.31-.01-.07-.07-.14-.18-.19,.02-.06,.05-.11,.07-.17,.52,.06,1.04,.15,1.56,.25,0,.08,.01,.15,.02,.23-.1-.05-.21-.06-.34-.02-.12,.04-.22,.15-.31,.33-.19,.4-.39,.79-.59,1.19,.1,.05,.2,.11,.3,.16-.02,.04-.04,.08-.07,.13l-.36-.03c-.19,.37-.37,.73-.56,1.09-.11,.21-.1,.37,.04,.48-.02,.04-.04,.07-.06,.11h-.7c-.06-.07-.11-.16-.15-.27-.03-.11-.04-.19,0-.25,.24-.51,.49-1.02,.72-1.53-.18-.09-.36-.18-.54-.26-.16,.37-.31,.73-.48,1.1-.06,.13-.08,.23-.08,.3s.05,.13,.15,.17c-.02,.05-.05,.11-.07,.16-.45-.03-.89-.04-1.33-.04,0-.07-.01-.14-.02-.21,.08,.03,.18,.02,.29-.04,.1-.06,.19-.18,.27-.37,.37-.93,.73-1.88,1.07-2.83,.08-.22,.03-.39-.14-.49,.01-.04,.03-.08,.04-.12,.27-.01,.53-.02,.8-.02,.09,.08,.16,.17,.22,.28,.06,.11,.07,.2,.05,.27-.23,.58-.47,1.15-.71,1.72h-.01Z"/>
      <path class="cls-18" d="M278.37,894.63s.05,.07,.1,.18c.05,.1,.08,.23,.09,.37,.02,.14,0,.26-.06,.34-.19,.27-.37,.53-.56,.8-.04,.06-.18,.06-.43,0-.12-.03-.26-.06-.41-.1s-.29-.08-.4-.11c-.12-.03-.19-.06-.21-.07-.15,.25-.13,.48,.06,.7,.09,.1,.22,.2,.38,.32-.03,.05-.06,.09-.09,.14-.68-.21-1.03-.3-1.07-.33-.07-.04-.12-.12-.15-.23-.04-.11-.05-.24-.04-.37,.01-.14,.05-.27,.12-.4,.32-.57,.63-1.13,.94-1.71,0-.01,.06,0,.17,.01,.11,.02,.25,.05,.41,.09,.16,.04,.33,.08,.49,.13,.17,.05,.31,.1,.43,.14,.12,.04,.2,.08,.22,.1h0Zm-.7,.63c.06-.09,.08-.18,.08-.28-.01-.1-.06-.17-.13-.23-.08-.05-.18-.08-.3-.09-.23,.38-.46,.77-.69,1.15,.38,.13,.65,.07,.83-.2,.07-.12,.15-.23,.22-.35h0Z"/>
      <path class="cls-18" d="M278.42,897.2c-.08-.07-.11-.18-.09-.35,.03-.17,.1-.33,.23-.51,.12-.17,.25-.33,.37-.5,.02-.02,.08-.03,.19-.01,.11,.02,.24,.05,.39,.09,.15,.05,.31,.1,.46,.16s.29,.11,.4,.17c.11,.05,.18,.09,.2,.11,.03,.03,.05,.07,.05,.12v.13s0,.1-.02,.16c0,.06-.02,.12-.02,.18-.02,.11,0,.19,.08,.26-.03,.03-.05,.06-.08,.09-.04-.02-.08-.03-.13-.05-.05-.02-.11-.04-.17-.06-.31-.1-.47-.15-.49-.16-.05-.05-.05-.17,.01-.37s.06-.32,.01-.36c-.07-.05-.13-.04-.21,.06-.15,.19-.3,.37-.45,.56-.1,.12-.12,.21-.05,.26,.01,.01,.15,.06,.41,.15,.26,.1,.41,.17,.45,.2,.08,.07,.1,.2,.06,.36-.04,.17-.14,.34-.3,.5-.15,.16-.3,.32-.45,.48-.02,.02-.08,.02-.19,0-.1-.03-.23-.07-.37-.12-.15-.05-.29-.1-.44-.16-.15-.05-.27-.1-.38-.15-.11-.04-.17-.07-.19-.09s-.03-.05-.02-.11c.01-.07,.03-.15,.05-.25s.04-.19,.05-.28c.01-.11-.01-.19-.08-.24,.02-.03,.05-.06,.07-.09,.04,0,.08,.02,.13,.03,.05,.01,.1,.02,.16,.04,.29,.06,.45,.1,.46,.11,.05,.04,.04,.18-.03,.42s-.09,.37-.05,.41c.03,.03,.07,.04,.12,.04s.09-.02,.13-.06c.16-.18,.32-.36,.47-.55,.11-.13,.13-.23,.05-.31-.03-.03-.16-.08-.4-.16-.24-.08-.37-.13-.4-.15h0Z"/>
      <path class="cls-18" d="M280.37,898.97c-.08-.08-.09-.2-.04-.36s.14-.32,.29-.47c.15-.15,.29-.3,.44-.45,.02-.02,.08-.02,.19,.01,.11,.03,.23,.08,.38,.14s.29,.14,.44,.21c.15,.08,.27,.15,.38,.22,.11,.07,.17,.11,.19,.13,.03,.03,.04,.07,.03,.13,0,.05-.02,.09-.02,.12,0,.04-.02,.09-.04,.15-.02,.06-.03,.12-.04,.17-.03,.1-.02,.19,.04,.27-.03,.02-.06,.05-.09,.07-.03-.02-.07-.04-.12-.07-.05-.02-.1-.05-.16-.08-.29-.14-.45-.21-.47-.22-.05-.05-.02-.17,.06-.36s.1-.31,.06-.35c-.06-.06-.13-.05-.21,.03-.17,.16-.35,.33-.52,.49-.11,.11-.14,.19-.09,.25,.01,.01,.14,.08,.39,.2,.25,.13,.39,.22,.42,.26,.07,.08,.08,.21,.01,.36-.06,.16-.19,.31-.36,.46-.17,.14-.34,.28-.51,.41-.02,.02-.09,0-.19-.03-.1-.04-.22-.09-.36-.16-.14-.07-.28-.14-.41-.21-.14-.07-.26-.14-.36-.19-.1-.06-.16-.09-.18-.11-.02-.02-.02-.06,0-.11,.02-.06,.05-.14,.08-.24,.04-.1,.06-.19,.08-.27,.03-.1,.01-.19-.05-.25,.03-.03,.05-.06,.08-.08,.04,.01,.08,.03,.12,.05,.05,.02,.1,.04,.16,.06,.28,.1,.43,.16,.45,.17,.04,.05,.02,.19-.09,.41-.1,.22-.14,.36-.1,.4,.03,.03,.06,.05,.11,.06,.05,0,.09,0,.13-.04,.18-.16,.36-.32,.54-.48,.13-.12,.16-.21,.09-.3-.03-.03-.15-.1-.38-.21-.23-.11-.36-.17-.38-.2h0Z"/>
      <path class="cls-18" d="M283.71,900.42c-.56,.39-1.12,.79-1.68,1.18-.19,.14-.25,.28-.18,.44-.03,.02-.07,.05-.1,.07-.21-.11-.42-.21-.63-.31-.03-.09-.03-.19-.02-.3,.02-.11,.05-.19,.11-.23,.54-.42,1.08-.83,1.63-1.25,.19-.14,.24-.3,.14-.47,.03-.03,.07-.05,.1-.08,.23,.12,.47,.24,.7,.37,.04,.1,.05,.22,.04,.34-.01,.12-.05,.2-.1,.24h-.01Zm.31-1.45c.09-.07,.19-.14,.28-.22,0,0,.03,.01,.09,.05s.12,.08,.19,.14c.07,.05,.14,.1,.19,.15,.06,.05,.09,.08,.1,.09,.02,.03,.02,.09,0,.17-.02,.09-.05,.15-.11,.19-.11,.08-.23,.16-.34,.24,0,0-.03-.01-.08-.05s-.11-.08-.18-.13-.13-.1-.18-.14c-.06-.04-.09-.08-.1-.09-.03-.05-.04-.11,0-.2,.03-.09,.08-.16,.15-.22h0v.02h-.01Z"/>
      <path class="cls-18" d="M284.91,903.04c-.49,.25-.97,.5-1.46,.76-.13,.07-.2,.13-.23,.2s-.03,.16,0,.26c-.04,.02-.08,.04-.11,.06-.21-.15-.42-.29-.63-.42-.01-.09,0-.19,.02-.3,.03-.11,.07-.18,.13-.21-.24-.16-.49-.31-.74-.45v-.22c0-.07,.02-.14,.03-.21,.04-.17,.12-.3,.26-.4,.26-.18,.53-.35,.79-.53,.03-.02,.11,0,.22,.05,.11,.06,.23,.14,.37,.25,.14,.11,.27,.21,.38,.32,.09,.09,.18,.17,.27,.26,.13-.07,.21-.15,.26-.25,.04-.09,.05-.21,0-.36-.04-.14-.14-.33-.29-.56,.05-.03,.1-.06,.15-.09,.58,.5,.87,.81,.92,.9,.05,.09,.07,.2,.05,.33-.02,.13-.07,.24-.14,.36-.07,.11-.16,.19-.27,.25h.02Zm-2.13-.4c-.08,.05-.13,.12-.15,.21s0,.17,.03,.23c.04,.07,.11,.12,.2,.17,.38-.22,.76-.44,1.14-.65-.09-.08-.15-.14-.2-.17-.05-.04-.11-.07-.19-.1-.14-.05-.31-.01-.5,.1-.11,.07-.22,.13-.32,.2h-.01Z"/>
      <path class="cls-18" d="M283.3,904.58c.59-.29,1.18-.57,1.77-.85,.11-.05,.2-.13,.25-.23s.06-.19,.01-.28c.04-.02,.08-.04,.11-.06,.02,.03,.25,.2,.67,.54,0,.02,0,.04,.01,.06,0,.02,0,.04,.01,.07,0,.05,0,.12-.03,.21-.02,.09-.08,.16-.15,.19,.03,.03,.1,.08,.2,.18,.29,.26,.45,.43,.47,.49,.04,.09,.04,.2,0,.32-.04,.11-.1,.22-.18,.31s-.16,.15-.25,.18c-.56,.19-1.11,.38-1.66,.58-.2,.07-.28,.21-.25,.42-.04,.01-.08,.03-.12,.04-.19-.17-.38-.34-.57-.5,0-.09,.02-.19,.06-.29s.1-.17,.16-.19c.52-.21,1.04-.42,1.56-.63,.2-.08,.35-.17,.43-.26s.1-.21,.04-.34c-.04-.07-.09-.13-.13-.2-.57,.24-1.13,.48-1.7,.73-.21,.09-.3,.23-.26,.39-.04,.02-.08,.03-.12,.05-.19-.15-.37-.29-.56-.43,0-.09,0-.19,.04-.3,.04-.1,.09-.17,.15-.2h.04Z"/>
      <path class="cls-18" d="M285.26,907.04c-.03-.1,0-.21,.12-.33,.11-.12,.27-.21,.48-.28,.2-.06,.4-.13,.6-.19,.03,0,.08,.02,.17,.1,.08,.08,.17,.18,.28,.3,.1,.12,.2,.25,.3,.39,.1,.13,.18,.25,.24,.36,.07,.1,.1,.17,.11,.2,.01,.04,0,.08-.03,.12s-.06,.07-.08,.1c-.03,.03-.06,.07-.11,.11-.04,.04-.08,.09-.12,.13-.08,.07-.1,.16-.08,.25-.04,0-.08,.02-.11,.02-.02-.03-.05-.07-.08-.11s-.07-.09-.11-.14c-.21-.25-.31-.38-.32-.41-.02-.07,.05-.16,.22-.28,.16-.12,.23-.22,.21-.28-.02-.08-.09-.11-.21-.08-.23,.06-.46,.12-.69,.19-.15,.04-.21,.1-.19,.18,0,.02,.09,.13,.26,.35,.17,.23,.25,.37,.27,.41,.03,.11-.02,.21-.15,.32s-.31,.19-.53,.24c-.21,.05-.43,.09-.64,.14-.03,0-.08-.03-.15-.11-.07-.08-.16-.18-.25-.3-.1-.12-.19-.24-.28-.37-.09-.12-.17-.23-.24-.33-.07-.09-.1-.15-.11-.18,0-.03,0-.06,.05-.1l.18-.18c.07-.07,.14-.14,.19-.2,.07-.08,.09-.16,.06-.24,.04-.01,.07-.02,.11-.04,.03,.03,.06,.06,.09,.1s.07,.08,.12,.12c.21,.21,.32,.33,.33,.35,.02,.06-.07,.17-.26,.32s-.28,.25-.27,.31c.01,.04,.04,.07,.08,.1,.04,.03,.09,.03,.14,.02,.23-.06,.47-.12,.7-.18,.17-.04,.24-.12,.21-.22-.01-.04-.09-.16-.25-.36s-.24-.31-.26-.34h0v.02h0Z"/>
      <path class="cls-18" d="M304.4,871.55h.25c.06,.03,.11,.05,.16,.08,.1-.21,.19-.42,.28-.63,.04-.09,.06-.16,.05-.21,0-.05-.05-.09-.12-.13,.02-.04,.03-.08,.05-.11,.35,.04,.7,.1,1.05,.17,0,.05,0,.1,.01,.15-.06-.04-.14-.04-.23-.01-.08,.03-.15,.1-.21,.22-.13,.27-.26,.53-.4,.8,.07,.04,.13,.07,.2,.11-.01,.03-.03,.06-.04,.08-.08,0-.16-.02-.24-.02-.13,.25-.25,.49-.38,.74-.07,.14-.06,.25,.02,.32-.01,.03-.03,.05-.04,.08h-.47s-.08-.11-.1-.18c-.02-.07-.02-.13,0-.17,.17-.34,.33-.69,.49-1.03-.12-.06-.24-.12-.37-.18-.11,.25-.21,.49-.32,.74-.04,.09-.06,.15-.05,.2,0,.05,.04,.09,.1,.12-.02,.04-.03,.07-.05,.11-.3-.02-.6-.03-.9-.03,0-.05,0-.09-.01-.14,.05,.02,.12,.01,.2-.03,.07-.04,.13-.12,.18-.25,.25-.63,.49-1.27,.72-1.91,.05-.15,.02-.26-.1-.33,0-.03,.02-.05,.03-.08,.18,0,.36-.01,.54-.02,.06,.05,.11,.12,.15,.19,.04,.08,.05,.14,.03,.18-.16,.39-.31,.78-.48,1.16h0Z"/>
      <path class="cls-18" d="M306.99,872.19s.04,.05,.07,.12,.05,.15,.06,.25,0,.17-.04,.23c-.13,.18-.25,.36-.38,.54-.03,.04-.12,.04-.29,0-.08-.02-.18-.04-.28-.07s-.19-.05-.27-.07-.13-.04-.14-.05c-.1,.17-.09,.33,.04,.47,.06,.07,.15,.14,.26,.21-.02,.03-.04,.06-.06,.09-.46-.14-.7-.2-.72-.22-.05-.03-.08-.08-.1-.15-.02-.08-.03-.16-.03-.25s.03-.18,.08-.27c.22-.38,.43-.77,.64-1.15h.12c.07,.01,.17,.03,.27,.06,.11,.03,.22,.06,.33,.09s.21,.06,.29,.09c.08,.03,.13,.05,.15,.06v.02h0Zm-.47,.43c.04-.06,.06-.12,.05-.19,0-.07-.04-.12-.09-.15-.05-.04-.12-.06-.2-.06-.15,.26-.31,.52-.47,.77,.25,.09,.44,.04,.56-.14,.05-.08,.1-.16,.15-.23h0Z"/>
      <path class="cls-18" d="M307.03,873.93c-.06-.05-.08-.12-.06-.23s.07-.23,.15-.34c.08-.11,.17-.23,.25-.34,.01-.02,.05-.02,.13,0,.07,.01,.16,.03,.26,.06,.1,.03,.21,.07,.31,.1,.1,.04,.19,.08,.27,.11,.08,.03,.12,.06,.14,.07,.02,.02,.03,.05,.03,.08v.08s0,.06-.01,.11c0,.04-.01,.08-.01,.12-.01,.07,0,.13,.05,.17-.02,.02-.04,.04-.05,.06-.02-.01-.05-.02-.09-.03-.03-.01-.07-.03-.11-.04-.21-.06-.32-.1-.33-.11-.04-.03-.03-.11,0-.25,.04-.13,.04-.22,0-.24-.04-.04-.09-.02-.14,.04-.1,.12-.2,.25-.3,.37-.07,.08-.08,.14-.04,.17,0,0,.1,.04,.28,.1,.18,.07,.28,.11,.3,.14,.05,.05,.07,.13,.04,.24s-.1,.23-.2,.34c-.1,.11-.2,.21-.3,.32-.01,.01-.06,.01-.13,0-.07-.02-.15-.04-.25-.08-.1-.03-.2-.07-.29-.11-.1-.04-.18-.07-.25-.1-.07-.03-.11-.05-.13-.06-.01-.01-.02-.04-.01-.07,0-.04,.02-.1,.03-.17s.03-.13,.03-.19c0-.07,0-.13-.05-.16,.02-.02,.03-.04,.05-.06,.02,0,.05,.01,.08,.02,.03,0,.07,.02,.11,.03,.2,.04,.3,.07,.31,.08,.03,.03,.03,.12-.02,.28-.05,.16-.06,.25-.03,.28,.02,.02,.05,.03,.08,.03s.06-.01,.09-.04c.11-.12,.21-.25,.32-.37,.08-.09,.09-.16,.03-.21-.02-.02-.11-.06-.27-.11s-.25-.09-.27-.1h0Z"/>
      <path class="cls-18" d="M308.34,875.13s-.06-.13-.03-.24,.1-.21,.2-.32c.1-.1,.2-.2,.29-.3,.01-.01,.06-.01,.13,.01s.16,.05,.25,.1c.1,.04,.2,.09,.29,.14,.1,.05,.18,.1,.25,.15,.07,.04,.11,.07,.13,.09,.02,.02,.03,.05,.02,.09,0,.04-.01,.06-.01,.08,0,.03-.02,.06-.03,.1s-.02,.08-.03,.12c-.02,.07-.01,.13,.03,.18-.02,.02-.04,.03-.06,.05-.02-.01-.05-.03-.08-.05-.03-.02-.07-.03-.11-.05-.2-.09-.3-.14-.31-.15-.03-.03-.02-.12,.04-.24,.06-.13,.07-.21,.04-.24-.04-.04-.09-.04-.14,.02-.12,.11-.23,.22-.35,.33-.08,.07-.1,.13-.06,.17,0,0,.1,.05,.26,.14,.17,.09,.26,.15,.29,.17,.05,.06,.05,.14,0,.24-.04,.11-.13,.21-.25,.31-.11,.09-.23,.19-.34,.28-.02,.01-.06,0-.13-.02-.07-.03-.15-.06-.24-.11s-.19-.09-.28-.14-.17-.09-.24-.13c-.07-.04-.11-.06-.12-.08-.01-.01-.01-.04,0-.07,.01-.04,.03-.1,.06-.16,.02-.06,.04-.13,.05-.18,.02-.07,0-.13-.03-.17,.02-.02,.04-.04,.05-.06,.02,0,.05,.02,.08,.03s.07,.03,.11,.04c.19,.07,.29,.11,.3,.12,.03,.03,.01,.13-.06,.28s-.09,.24-.07,.27c.02,.02,.04,.03,.08,.04,.03,0,.06,0,.09-.03,.12-.11,.24-.22,.37-.32,.09-.08,.11-.14,.06-.2-.02-.02-.1-.07-.26-.14-.15-.07-.24-.12-.26-.13l.02-.02h0Z"/>
      <path class="cls-18" d="M310.6,876.1c-.38,.26-.75,.53-1.13,.8-.13,.09-.17,.19-.12,.3-.02,.02-.05,.03-.07,.05-.14-.07-.28-.14-.43-.21-.02-.06-.02-.13-.01-.2,.01-.07,.03-.13,.07-.15,.36-.28,.73-.56,1.1-.84,.13-.1,.16-.2,.09-.32,.02-.02,.04-.04,.07-.05,.16,.08,.32,.16,.47,.25,.02,.07,.03,.15,.02,.23,0,.08-.03,.13-.07,.16h0v-.02h.01Zm.22-.98c.06-.05,.13-.1,.19-.15,0,0,.02,0,.06,.03s.08,.06,.13,.09c.05,.04,.09,.07,.13,.1,.04,.03,.06,.05,.07,.06,.01,.02,.02,.06,0,.12-.01,.06-.04,.1-.08,.13-.08,.05-.15,.11-.23,.16,0,0-.02,0-.06-.03-.03-.02-.07-.05-.12-.09-.04-.03-.09-.06-.12-.09-.04-.03-.06-.05-.07-.06-.02-.03-.02-.08,0-.13,.02-.06,.06-.11,.1-.15h0Z"/>
      <path class="cls-18" d="M311.41,877.87c-.33,.17-.66,.34-.98,.51-.08,.04-.14,.09-.15,.14-.02,.05-.02,.11,0,.17-.03,.01-.05,.03-.08,.04-.14-.1-.28-.19-.43-.28,0-.06,0-.13,.02-.2s.05-.12,.09-.14c-.16-.11-.33-.21-.5-.31v-.14s.01-.1,.02-.14c.03-.12,.08-.21,.17-.27,.18-.12,.35-.24,.53-.36,.02-.02,.07,0,.15,.04,.07,.04,.16,.09,.25,.17,.09,.07,.18,.14,.26,.22l.18,.18c.09-.05,.14-.1,.17-.17,.03-.06,.03-.14,0-.24s-.09-.22-.19-.38c.03-.02,.07-.04,.1-.06,.39,.34,.59,.55,.62,.6,.04,.06,.05,.14,.03,.22-.01,.08-.04,.16-.09,.24s-.11,.13-.18,.17h0Zm-1.44-.29c-.06,.03-.09,.08-.1,.14s0,.11,.02,.16c.03,.05,.07,.08,.13,.12,.25-.15,.51-.29,.77-.44-.06-.05-.1-.09-.14-.12-.03-.02-.08-.05-.13-.06-.1-.03-.21,0-.34,.07-.07,.04-.15,.09-.22,.13h.01Z"/>
      <path class="cls-18" d="M310.32,878.91c.4-.19,.8-.39,1.2-.58,.08-.04,.13-.09,.17-.15,.04-.07,.04-.13,0-.19,.03-.01,.05-.03,.08-.04,.01,.02,.17,.13,.45,.37v.09s0,.08-.02,.14-.05,.11-.1,.13c.02,.02,.07,.06,.14,.12,.2,.18,.3,.29,.32,.33,.03,.06,.03,.14,0,.21-.03,.08-.07,.15-.12,.21s-.11,.1-.17,.12c-.37,.13-.75,.26-1.12,.39-.14,.05-.19,.14-.17,.28-.03,0-.05,.02-.08,.03-.13-.12-.26-.23-.39-.34,0-.06,.01-.13,.04-.2s.07-.11,.11-.13c.35-.14,.7-.28,1.05-.42,.14-.05,.23-.11,.29-.18,.06-.06,.07-.14,.02-.23-.03-.04-.06-.09-.09-.13-.38,.16-.77,.33-1.15,.49-.14,.06-.2,.15-.18,.27-.03,.01-.05,.02-.08,.03-.13-.1-.25-.2-.38-.29,0-.06,0-.13,.03-.2,.02-.07,.06-.12,.1-.14h.05Z"/>
      <path class="cls-18" d="M311.64,880.57c-.02-.07,0-.14,.08-.22,.08-.08,.18-.14,.32-.19,.13-.04,.27-.09,.4-.13,.02,0,.06,.02,.11,.07s.12,.12,.19,.2,.14,.17,.2,.26c.07,.09,.12,.17,.16,.24s.07,.12,.07,.14c0,.03,0,.05-.02,.08s-.04,.05-.05,.06c-.02,.02-.04,.05-.07,.08s-.06,.06-.08,.09c-.05,.05-.07,.1-.06,.17-.03,0-.05,.01-.08,.02-.01-.02-.03-.05-.05-.08s-.05-.06-.07-.09c-.14-.17-.21-.26-.22-.27-.01-.04,.04-.11,.15-.19s.16-.15,.14-.19c-.02-.05-.06-.07-.14-.05-.16,.04-.31,.08-.47,.13-.1,.03-.14,.07-.13,.12,0,.01,.06,.09,.18,.24,.11,.15,.17,.25,.18,.28,.02,.07-.02,.14-.1,.22-.09,.07-.21,.13-.36,.16-.14,.03-.29,.06-.43,.09-.02,0-.05-.02-.1-.07-.05-.05-.11-.12-.17-.2-.06-.08-.13-.16-.19-.25-.06-.08-.12-.16-.16-.22s-.07-.1-.08-.12c0-.02,0-.04,.03-.07s.07-.07,.12-.12,.09-.09,.13-.14c.05-.05,.06-.11,.04-.16,.02,0,.05-.02,.07-.02,.02,.02,.04,.04,.06,.06s.05,.05,.08,.08c.14,.14,.22,.22,.22,.24,.01,.04-.05,.11-.18,.22-.13,.1-.19,.17-.18,.21,0,.03,.02,.05,.05,.07s.06,.02,.09,.01c.16-.04,.32-.08,.47-.12,.11-.03,.16-.08,.14-.15,0-.02-.06-.11-.17-.24-.11-.13-.17-.21-.17-.23h0l.05-.02h0Z"/>
      <path class="cls-18" d="M283.94,889.53l-1.2,.43-.92-2.56,.55-.2,.74,2.06,.65-.23,.18,.5h0Z"/>
      <path class="cls-18" d="M285.99,889.37l-.57,.03-.12-.42-.72,.04-.07,.43-.58,.03,.62-2.76,.6-.03,.84,2.68h0Zm-.8-.82l-.31-1.18h0l-.21,1.21,.53-.03h-.01Z"/>
      <path class="cls-18" d="M288.13,888.91c-.03,.11-.1,.25-.21,.4-.11,.16-.26,.28-.45,.38-.19,.09-.39,.11-.6,.04-.64-.19-.82-.75-.54-1.67,.13-.43,.32-.74,.55-.92,.24-.18,.51-.22,.81-.13,.44,.13,.64,.43,.6,.89l-.56,.06c.06-.24,0-.39-.21-.45-.09-.03-.17-.02-.24,.02-.07,.04-.13,.1-.18,.2-.05,.09-.11,.26-.18,.49-.08,.28-.13,.47-.15,.58-.01,.11,0,.2,.04,.27s.1,.12,.19,.14c.21,.06,.37-.07,.49-.42l-.35-.11,.15-.51,.94,.29-.13,.43h0l.03,.02h0Z"/>
      <path class="cls-18" d="M289.09,890.89l-1.12-.77,1.55-2.24,1.05,.72-.3,.43-.57-.39-.31,.46,.49,.34-.29,.42-.49-.34-.34,.5,.64,.44-.3,.44h-.01Z"/>
      <path class="cls-18" d="M290.43,892.33l-.41-.44,.67-1.26h0l-.99,.91-.4-.43,2.01-1.84,.52,.56c.1,.11,.18,.25,.24,.4s.06,.3,0,.43c-.05,.14-.13,.25-.23,.34-.12,.11-.25,.18-.38,.2s-.28,0-.45-.06l-.58,1.19h0Zm.37-1.81c.13,.14,.24,.2,.33,.19s.18-.06,.26-.14c.19-.18,.22-.34,.07-.5l-.08-.09-.58,.53h0Z"/>
      <path class="cls-18" d="M292.84,893.92c0,.17-.04,.31-.11,.41s-.19,.19-.34,.25c-.18,.08-.35,.08-.53,0-.18-.07-.31-.21-.39-.39l-.39-.89,2.5-1.08,.33,.77c.09,.22,.11,.42,.05,.61s-.18,.32-.37,.4c-.15,.06-.28,.09-.4,.08s-.24-.07-.36-.16h.01Zm-1.12-.25l.07,.16c.04,.09,.1,.15,.18,.18,.08,.03,.17,.02,.27-.03,.22-.1,.28-.26,.18-.48l-.05-.11-.66,.29h.01Zm1.04-.47l.05,.11c.04,.09,.1,.15,.18,.18,.08,.03,.17,.02,.27-.02,.22-.1,.29-.26,.19-.49l-.03-.07-.66,.28h0Z"/>
      <path class="cls-18" d="M291.93,896.44l-.16-1.35,2.71-.31,.15,1.27-.52,.06-.08-.68-.55,.06,.07,.59-.5,.06-.07-.59-.6,.07,.09,.77-.53,.06h-.01Z"/>
      <path class="cls-18" d="M291.67,898l.23-1.34,2.68,.47-.22,1.26-.52-.09,.12-.68-.55-.09-.1,.58-.5-.09,.1-.58-.59-.1-.13,.76-.53-.09h0Z"/>
      <path class="cls-18" d="M290.83,899.71l.27-.53,1.42,.19h0l-1.2-.62,.27-.53,2.43,1.23-.35,.68c-.07,.14-.17,.26-.29,.37s-.26,.16-.4,.16-.28-.03-.4-.1c-.15-.08-.26-.17-.32-.29-.06-.11-.1-.26-.11-.44l-1.32-.13h0Zm1.83-.27c-.09,.17-.11,.3-.06,.37,.04,.08,.12,.14,.22,.2,.23,.12,.4,.08,.49-.11l.05-.11-.7-.36h0Z"/>
      <path class="cls-18" d="M268.41,899.84l.54-1.16,2.47,1.15-.25,.53-1.99-.92-.29,.63-.49-.23h0Z"/>
      <path class="cls-18" d="M267.89,902.58l.08-.57,.43-.03,.09-.71-.41-.15,.08-.57,2.6,1.13-.08,.59-2.79,.32h0Zm.96-.65l1.21-.08h0l-1.15-.44-.07,.52h.01Z"/>
      <path class="cls-18" d="M269.46,905.08c-.11,.03-.27,.03-.46,.02s-.37-.08-.55-.2-.29-.29-.34-.5c-.15-.65,.24-1.08,1.18-1.3,.44-.1,.8-.09,1.07,.02s.45,.33,.52,.64c.1,.45-.06,.77-.47,.97l-.33-.45c.24-.06,.33-.2,.28-.4-.02-.09-.07-.16-.13-.2-.07-.04-.15-.06-.26-.06-.1,0-.28,.04-.52,.09-.28,.06-.48,.12-.58,.16-.1,.04-.17,.1-.21,.17-.04,.07-.05,.15-.03,.24,.05,.21,.25,.29,.61,.22l-.08-.35,.51-.12,.22,.95-.44,.1h0Z"/>
      <path class="cls-18" d="M269.43,907.35l-.65-1.19,2.39-1.3,.61,1.12-.46,.25-.33-.61-.49,.26,.28,.52-.44,.24-.28-.52-.53,.29,.37,.68-.47,.26h0Z"/>
      <path class="cls-18" d="M270.92,909.28l-.38-.47,.75-1.22h0l-1.05,.84-.37-.46,2.12-1.71,.48,.6c.1,.12,.17,.26,.22,.41,.05,.16,.04,.3-.02,.43s-.14,.24-.25,.33c-.13,.11-.26,.16-.39,.18-.13,.01-.28-.02-.45-.09l-.65,1.15h-.01Zm.49-1.76c.12,.15,.22,.22,.32,.21,.09,0,.18-.05,.27-.12,.2-.16,.24-.33,.1-.49l-.07-.09-.61,.49h-.01Z"/>
      <path class="cls-18" d="M274.16,910.17c.09,.15,.13,.28,.13,.41,0,.12-.06,.26-.15,.4-.11,.16-.26,.26-.44,.29-.19,.03-.37,0-.54-.12l-.81-.54,1.51-2.27,.7,.46c.2,.13,.32,.29,.37,.48s.02,.37-.09,.54c-.09,.14-.19,.23-.29,.28-.11,.05-.23,.07-.38,.06h-.01Zm-.45-.52l.1,.07c.08,.06,.17,.07,.25,.05s.16-.07,.21-.16c.14-.2,.1-.37-.11-.51l-.06-.04-.4,.6h0Zm-.63,.92l.14,.09c.08,.05,.17,.07,.25,.05s.15-.08,.21-.17c.13-.2,.1-.37-.11-.5l-.1-.07-.4,.6h0Z"/>
      <path class="cls-18" d="M275.93,912.32l-1.3-.39,.79-2.61,1.22,.37-.15,.5-.66-.2-.16,.53,.57,.17-.15,.48-.57-.17-.17,.58,.74,.22-.16,.51h0Z"/>
      <path class="cls-18" d="M278.24,912.43h-1.36v-2.72h1.26v.52h-.69v.56h.59v.5h-.59v.6h.77v.53h.02Z"/>
      <path class="cls-18" d="M280.8,911.78l-.57,.17-.85-1.15h0l.39,1.29-.56,.17-.79-2.61,.73-.22c.15-.04,.3-.06,.46-.05s.29,.07,.39,.18,.17,.22,.21,.36c.05,.16,.05,.3,.02,.43-.04,.12-.12,.25-.25,.38l.82,1.04h0Zm-1.47-1.1c.18-.06,.29-.13,.31-.21,.03-.09,.02-.18-.01-.29-.08-.25-.22-.34-.42-.28l-.11,.03,.23,.75h0Z"/>
      <path class="cls-18" d="M112.08,906.67l36,1.38c3.87,.15,6.88,3.4,6.73,7.27l-.66,17.21c-.11,2.74-1.77,5.05-4.11,6.11-.27,.12-.54,.23-.82,.31-.74,.23-1.52,.34-2.34,.31l-36-1.38c-.38-.01-.75-.06-1.11-.13-1.44-.28-2.71-1-3.68-2.02-.9-.94-1.94-1.74-3.06-2.36-.01,0-.02-.01-.03-.02-.94-.51-1.07-.83-1.48-1-.17-.07-.39-.11-.73-.14-.12,0-.26-.02-.42-.02l-5.99-.12c-.32,0-.64-.02-.95-.05-.97-.08-1.93-.25-2.87-.52l-15.4-4.41h0l-1.07-.21c-.26-.05-.52-.02-.76,.09-.18,.08-.35,.2-.49,.35-.29,.32-.72,.51-1.18,.49-.75-.03-1.36-.6-1.46-1.32l-1.9-.54c-.39-.11-.81-.01-1.1,.27-.25,.25-.6,.39-.98,.38-.36-.01-.69-.17-.92-.42-.23-.25-.36-.58-.35-.95l.36-9.45c.03-.75,.67-1.38,1.42-1.32,.34,.03,.64,.18,.86,.42h0c.28,.31,.69,.47,1.1,.39l1.94-.39c.06-.31,.23-.59,.45-.8,.29-.27,.68-.42,1.1-.41,.46,.02,.87,.24,1.14,.58,.29,.37,.74,.59,1.21,.53l1.08-.12,15.7-3.22c.96-.2,1.93-.3,2.9-.3,.32,0,.64,0,.95,.02l5.98,.34c.58,.03,.91,.01,1.16-.06,.48-.14,.64-.46,1.67-.94,1.14-.53,2.2-1.23,3.15-2.08,1.31-1.17,3.05-1.85,4.94-1.78h0l.02,.03h0Z"/>
      <path class="cls-5" d="M112.08,906.67l36,1.38c3.87,.15,6.88,3.4,6.73,7.27l-.66,17.21c-.04,.98-.25,1.82-.56,2.54-.95,2.2-4.28,1.4-4.19-1l.52-13.54c.1-2.54-1.88-4.67-4.42-4.77l-31.79-1.22c-1.08-.04-1.99,.8-2.03,1.88h0c-.1,2.66-1.26,5.17-3.21,6.98l-2.42,2.24c-.49,.46-1.3,.09-1.27-.58h0c.03-.67-.78-1.04-1.27-.58l-1.11,1.03c-.49,.46-1.3,.09-1.27-.58l.12-3.08c.07-1.7-1.26-3.14-2.97-3.2l-4.86-.19-16.28-.77c-.9-.04-1.6-.81-1.57-1.71l.05-1.29,15.7-3.22c1.27-.26,2.57-.35,3.86-.28l5.98,.34c1.71,.1,1.27-.28,2.83-1,1.14-.53,2.2-1.23,3.15-2.08,1.31-1.17,3.05-1.85,4.94-1.78h0Z"/>
      <path class="cls-18" d="M66.03,913.6h.33c.46,.03,.66,.31,.74,.56,.06,.18-.07,.37-.26,.38-.56,.05-.98,.29-.99,.59-.01,.31,.41,.58,.98,.67,.16,.02,.27,.15,.26,.31v.13c-.01,.15-.12,.27-.27,.29-.59,.08-1.05,.48-1.07,.99s.41,.95,.99,1.08c.15,.03,.25,.16,.25,.31v.14c-.01,.15-.12,.26-.27,.29-.58,.09-1.04,.58-1.08,1.19-.01,.61,.41,1.13,.98,1.27,.14,.04,.25,.16,.24,.31v.14c-.01,.15-.13,.27-.28,.29-.59,.07-1.05,.48-1.07,.99s.41,.95,.99,1.07c.15,.03,.25,.16,.25,.31v.13c-.01,.15-.14,.28-.29,.29-.58,.04-1.02,.28-1.03,.59-.01,.3,.39,.57,.94,.66,.19,.03,.3,.23,.23,.4-.1,.24-.32,.51-.78,.49h-.33c-.54-.03-1.03-.21-1.44-.51-.69-.5-1.13-1.33-1.1-2.24l.33-8.57c.04-.92,.54-1.71,1.26-2.15,.43-.26,.94-.4,1.47-.38l.02-.02h0Z"/>
      <path class="cls-18" d="M72.16,916.06h0c.87,.03,1.54,.76,1.51,1.63l-.33,8.48c-.02,.44-.21,.83-.51,1.15h0c-.29,.32-.72,.51-1.18,.49-.75-.03-1.36-.6-1.46-1.32l.34-8.93c.03-.87,.76-1.54,1.63-1.51h0Z"/>
      <path class="cls-18" d="M72.39,923.28l-.12,3.16c-.01,.34-.3,.61-.64,.59h0c-.34-.01-.61-.3-.59-.64l.12-3.16c.01-.34,.3-.61,.64-.59h0c.34,.01,.61,.3,.59,.64Z"/>
      <path class="cls-1" d="M117.48,931.34l24.25,.93c2.93,.11,5.21,2.58,5.1,5.5l-.06,1.49-33.74-1.3c-.38-.01-.75-.06-1.11-.13l.05-1.4c.11-2.93,2.58-5.21,5.5-5.1h0Z"/>
      <path class="cls-18" d="M64.49,915.6l-.37,9.73c-.02,.62-.92,.74-1.08,.13-.06-.24-.09-.5-.08-.76l.33-8.57c0-.25,.05-.49,.13-.71,.2-.61,1.1-.46,1.08,.18h0Z"/>
      <path class="cls-1" d="M78.48,923.17l9.24,.35c2.69,.1,5.34,.71,7.8,1.8l2.11,.93c2.01,.88,3.27,2.9,3.19,5.1l-.03,.88c-.12,0-.26-.02-.42-.02l-5.99-.12c-1.29-.02-2.58-.22-3.82-.57l-15.4-4.41h0l.03-.87c.07-1.75,1.54-3.12,3.3-3.06h-.01Z"/>
      <path class="cls-18" d="M122.36,911.29l17.53,.67c4.73,.18,8.42,4.17,8.24,8.9l-.22,5.63c-.1,2.73-1.47,5.11-3.52,6.6-1.5,1.1-3.38,1.72-5.38,1.64l-17.53-.67c-2.25-.09-4.26-1.03-5.73-2.51-1.63-1.63-2.6-3.91-2.51-6.39l.22-5.63c.18-4.73,4.17-8.42,8.9-8.24Z"/>
      <path class="cls-18" d="M117.48,931.34l24.26,.93c.98,.04,1.88,.34,2.65,.83-1.5,1.1-3.38,1.72-5.38,1.64l-17.53-.67c-2.25-.09-4.26-1.03-5.73-2.51,.55-.17,1.13-.25,1.73-.22h0Z"/>
      <rect class="cls-18" x="120.76" y="907.25" width="19.85" height="31.53" rx="7.38" ry="7.38" transform="translate(-796.67 1018.17) rotate(-87.8)"/>
      <rect class="cls-18" x="126.96" y="913.47" width="7.44" height="19.09" rx="3.64" ry="3.64" transform="translate(-796.67 1018.17) rotate(-87.8)"/>
      <path class="cls-18" d="M101.16,911.52c.58,.03,.91,.01,1.16-.06l-.8,20.9c-.17-.07-.39-.11-.73-.14-.12,0-.26-.02-.42-.02l-5.99-.12c-.32,0-.64-.02-.95-.05l.8-20.87c.32,0,.64,0,.95,.02l5.98,.34h0Z"/>
      <circle class="cls-18" cx="130.43" cy="922.91" r="7.39"/>
      <circle class="cls-18" cx="94.17" cy="921.52" r="6.07"/>
      <circle class="cls-18" cx="94.17" cy="921.52" r="5.03"/>
      <path class="cls-18" d="M137.32,914.21c0,.34-.11,.68-.29,.98-.23,.39-.54,.8-.96,1.36-.26,.35-.58,.76-.95,1.27-1.19,1.63-1.4,3.87-1.43,4.76v.63c0,.06-.02,.24-.03,.5-.03,.89,0,3.14,1.06,4.86,.33,.54,.61,.97,.85,1.34,.38,.59,.66,1.02,.86,1.43,.15,.31,.23,.66,.21,1-.03,.81-.53,1.54-1.28,1.86l-3.79,1.63c-.62,.27-1.31,.23-1.89-.11-.58-.33-.95-.89-1.04-1.54-.15-1.18-.56-2.17-1.21-2.96-1.91-2.29-1.78-8.15-1.77-8.4,.01-.26,.33-6.08,2.41-8.21,.71-.73,1.2-1.69,1.44-2.85,.13-.65,.55-1.18,1.15-1.46,.61-.29,1.3-.28,1.9,.04l3.66,1.92c.72,.38,1.16,1.14,1.13,1.95h-.03Z"/>
      <path class="cls-18" d="M126.26,922.85s.29-5.8,2.23-7.8c.95-.97,1.39-2.16,1.6-3.16,.2-.96,1.28-1.45,2.15-1l3.65,1.92c.53,.28,.82,.82,.8,1.38,0,.24-.07,.47-.2,.69-.35,.59-.91,1.26-1.88,2.58-1.27,1.74-1.51,4.04-1.55,5.1v.59c0,.08-.03,.27-.04,.55-.04,1.07,.02,3.38,1.15,5.21,.86,1.4,1.37,2.1,1.68,2.72,.11,.23,.16,.47,.15,.7-.02,.55-.36,1.08-.9,1.31l-3.79,1.63c-.9,.39-1.94-.19-2.07-1.16-.13-1.01-.48-2.23-1.35-3.28-1.79-2.14-1.63-7.99-1.63-7.99m-1.24-.05h0c-.02,.66-.11,6.4,1.92,8.83,.58,.69,.94,1.58,1.07,2.63,.11,.85,.6,1.58,1.35,2.01,.76,.43,1.65,.48,2.45,.14l3.79-1.63c.96-.42,1.61-1.36,1.65-2.41,.02-.45-.08-.9-.28-1.3-.22-.44-.5-.88-.89-1.49-.24-.37-.51-.8-.84-1.33-.97-1.57-1-3.68-.97-4.51,0-.25,.03-.42,.03-.46v-.67c.03-.83,.22-2.93,1.31-4.42,.37-.51,.67-.91,.94-1.26,.44-.58,.75-1,1-1.42,.23-.39,.36-.83,.38-1.27,.04-1.05-.53-2.04-1.46-2.53l-3.66-1.92c-.77-.4-1.66-.42-2.45-.05-.78,.37-1.32,1.06-1.49,1.9-.21,1.04-.64,1.9-1.27,2.55-2.21,2.27-2.55,7.96-2.59,8.6h.01Z"/>
      <path class="cls-18" d="M99,915.52c0,.24-.08,.47-.2,.68-.16,.27-.37,.55-.67,.94-.18,.24-.4,.53-.66,.88-.82,1.13-.97,2.69-.99,3.3v.42h0s-.02,.18-.02,.36c-.02,.62,0,2.18,.74,3.37,.23,.37,.42,.68,.59,.93,.26,.41,.45,.71,.59,.99,.11,.22,.16,.46,.15,.69-.02,.56-.37,1.07-.88,1.29l-2.63,1.13c-.43,.18-.91,.16-1.31-.08-.4-.23-.66-.62-.72-1.07-.1-.82-.39-1.51-.84-2.05-1.33-1.59-1.23-5.65-1.23-5.83s.23-4.21,1.67-5.7c.5-.51,.83-1.17,1-1.98,.09-.45,.38-.82,.8-1.01,.42-.2,.9-.19,1.31,.03l2.54,1.33c.5,.26,.81,.79,.78,1.35h0l-.02,.03h0Z"/>
      <path class="cls-18" d="M91.33,921.51s.2-4.02,1.55-5.41c.66-.67,.97-1.5,1.11-2.19,.14-.67,.89-1.01,1.49-.69l2.53,1.33c.36,.19,.57,.57,.55,.96,0,.16-.05,.33-.14,.48-.24,.41-.63,.87-1.3,1.79-.88,1.2-1.05,2.8-1.07,3.54v.41s-.02,.19-.03,.38c-.03,.74,.02,2.34,.8,3.61,.6,.97,.95,1.46,1.16,1.88,.08,.16,.11,.32,.1,.49-.01,.38-.25,.75-.63,.91l-2.63,1.13c-.63,.27-1.35-.13-1.43-.81-.09-.7-.33-1.55-.94-2.27-1.24-1.48-1.13-5.54-1.13-5.54m-.86-.03h0c-.01,.46-.08,4.44,1.33,6.12,.4,.48,.65,1.09,.74,1.83,.08,.59,.42,1.1,.93,1.39,.52,.3,1.14,.34,1.7,.1l2.63-1.13c.67-.29,1.12-.94,1.15-1.67,.01-.31-.05-.62-.19-.9-.15-.31-.35-.61-.62-1.04-.17-.26-.36-.55-.58-.92-.67-1.09-.69-2.55-.67-3.13,0-.17,.02-.29,.02-.32v-.47c.02-.58,.16-2.03,.91-3.06,.26-.35,.47-.63,.65-.88,.3-.4,.52-.69,.7-.98,.16-.27,.25-.57,.26-.88,.03-.73-.37-1.41-1.01-1.75l-2.54-1.33c-.54-.28-1.15-.29-1.7-.03-.54,.26-.92,.73-1.04,1.32-.15,.72-.45,1.32-.88,1.77-1.53,1.57-1.77,5.52-1.79,5.97h0Z"/>
      <path class="cls-18" d="M131.9,931.98c-.09-.08-.18-.17-.27-.25-.03-.08-.06-.17-.1-.25-.32,.13-.63,.26-.94,.39-.13,.06-.22,.11-.26,.17s-.04,.15,0,.26c-.06,.02-.11,.05-.17,.07-.33-.4-.66-.82-.97-1.25,.05-.06,.09-.12,.14-.18,.03,.1,.11,.19,.24,.25,.12,.05,.27,.04,.45-.03,.41-.16,.83-.31,1.24-.46-.04-.11-.07-.22-.1-.32,.04-.02,.09-.03,.13-.05,.08,.09,.16,.18,.24,.27,.39-.14,.77-.27,1.16-.41,.22-.08,.32-.2,.3-.37,.04-.01,.08-.03,.12-.04,.17,.16,.34,.32,.51,.48,0,.09-.03,.19-.08,.29s-.1,.16-.17,.19c-.53,.2-1.05,.41-1.58,.62,.07,.19,.14,.38,.22,.56,.37-.16,.73-.32,1.1-.47,.13-.06,.22-.11,.26-.16,.05-.05,.05-.13,0-.23,.06-.02,.11-.04,.17-.07,.31,.33,.62,.64,.94,.94-.04,.06-.09,.11-.13,.17-.04-.08-.12-.14-.24-.17-.12-.03-.26,0-.45,.08-.91,.42-1.82,.86-2.72,1.32-.21,.11-.29,.26-.23,.46-.04,.02-.08,.04-.11,.06-.2-.17-.4-.35-.6-.53,0-.12,0-.24,.04-.36s.09-.2,.15-.23c.56-.26,1.13-.52,1.7-.77v.02h.01Z"/>
      <path class="cls-18" d="M129.75,928.65s0-.09,.05-.19c.04-.11,.1-.22,.19-.33,.09-.12,.18-.18,.28-.2,.32-.07,.64-.13,.95-.2,.07-.01,.17,.08,.31,.29,.07,.1,.15,.22,.23,.35s.16,.25,.22,.36,.1,.17,.1,.2c.29-.08,.43-.26,.44-.55,0-.14-.02-.3-.06-.49,.05-.01,.11-.02,.16-.04,.35,.62,.54,.93,.55,.97,.02,.08,0,.17-.05,.27-.05,.11-.13,.2-.23,.3-.1,.09-.22,.16-.36,.21-.62,.19-1.24,.39-1.86,.59,0,0-.05-.04-.12-.13-.07-.09-.14-.2-.23-.34s-.18-.29-.27-.43c-.09-.15-.16-.28-.22-.4s-.09-.19-.1-.22h0l.02-.02h0Zm.95,.02c-.1,.03-.18,.08-.25,.15-.06,.08-.08,.16-.06,.26,.02,.09,.07,.18,.16,.27,.43-.12,.86-.24,1.29-.36-.19-.35-.43-.5-.74-.42-.13,.03-.27,.07-.4,.1h0Z"/>
      <path class="cls-18" d="M131.48,926.74c0,.11-.04,.21-.18,.31-.13,.1-.3,.17-.51,.21-.21,.04-.41,.07-.62,.11-.03,0-.08-.03-.14-.12-.07-.09-.14-.2-.22-.34s-.16-.28-.23-.43c-.07-.15-.13-.28-.18-.39-.05-.11-.07-.19-.07-.22,0-.04,0-.08,.05-.12,.04-.04,.07-.07,.09-.09,.03-.03,.07-.06,.12-.1,.05-.04,.1-.08,.14-.12,.09-.06,.13-.14,.12-.24h.12s.04,.08,.06,.13,.05,.1,.08,.16c.16,.28,.24,.43,.24,.45,0,.07-.08,.15-.26,.26-.18,.1-.26,.19-.26,.25,0,.08,.07,.12,.19,.1,.24-.03,.47-.07,.71-.1,.15-.02,.22-.07,.22-.15,0-.02-.07-.15-.2-.39-.12-.25-.19-.4-.19-.45,0-.11,.06-.21,.2-.3,.15-.09,.34-.15,.56-.16,.22-.01,.43-.03,.65-.04,.03,0,.07,.04,.13,.13s.12,.21,.19,.34c.07,.14,.14,.27,.21,.41,.07,.14,.13,.26,.17,.36,.05,.1,.07,.17,.08,.2,0,.03-.02,.06-.06,.09-.05,.04-.12,.09-.21,.15-.09,.06-.16,.12-.23,.17-.08,.07-.12,.15-.11,.23-.04,0-.08,.01-.11,.02-.02-.03-.04-.07-.07-.11-.03-.04-.06-.09-.09-.14-.17-.24-.26-.38-.26-.4,0-.06,.1-.16,.31-.28,.22-.12,.32-.21,.32-.27,0-.04-.02-.08-.06-.11-.03-.03-.08-.05-.13-.04-.24,.02-.48,.05-.72,.07-.17,.02-.25,.08-.24,.19,0,.04,.06,.17,.18,.4,.12,.22,.18,.35,.19,.38h.02Z"/>
      <path class="cls-18" d="M131.28,924.11c0,.11-.07,.2-.21,.29-.14,.08-.32,.13-.53,.14-.21,0-.42,.02-.62,.03-.03,0-.07-.04-.13-.14-.05-.1-.11-.22-.17-.36-.06-.15-.12-.3-.17-.46-.05-.16-.09-.29-.13-.41-.03-.12-.05-.2-.05-.23,0-.04,.02-.08,.07-.11,.04-.03,.08-.06,.1-.07,.04-.02,.08-.05,.13-.08s.1-.06,.15-.1c.1-.05,.15-.13,.15-.22h.12s.03,.08,.04,.13c.02,.05,.04,.11,.06,.17,.12,.3,.19,.46,.18,.48,0,.07-.1,.14-.29,.22-.19,.08-.29,.15-.29,.22,0,.09,.06,.13,.17,.13h.71c.15,0,.23-.04,.23-.12,0-.02-.05-.16-.14-.42-.09-.27-.13-.43-.13-.48,0-.11,.09-.2,.24-.27,.16-.07,.35-.1,.58-.08,.22,.02,.43,.03,.65,.05,.03,0,.07,.05,.11,.15,.05,.1,.1,.22,.15,.36,.05,.14,.11,.29,.16,.44s.09,.28,.13,.38c.03,.11,.05,.18,.05,.21s-.02,.06-.07,.08c-.06,.03-.13,.07-.22,.12s-.17,.09-.25,.14c-.09,.06-.14,.13-.13,.21h-.12s-.04-.07-.06-.12c-.02-.04-.05-.09-.07-.15-.14-.27-.21-.41-.21-.43,0-.06,.11-.15,.34-.24,.23-.09,.35-.17,.35-.22,0-.04,0-.08-.04-.12s-.07-.06-.13-.06c-.24,0-.48-.02-.72-.02-.17,0-.26,.05-.26,.16,0,.04,.04,.18,.13,.42,.09,.24,.14,.37,.14,.4h0v-.02h0Z"/>
      <path class="cls-18" d="M129.84,920.76c.68,.1,1.35,.19,2.03,.29,.23,.03,.37-.03,.43-.2,.04,0,.08,.01,.13,.02,.08,.22,.16,.44,.25,.66-.04,.08-.11,.16-.2,.23s-.16,.1-.23,.09c-.68-.07-1.36-.14-2.04-.21-.24-.02-.38,.06-.43,.25-.04,0-.08,0-.13-.01-.09-.25-.17-.5-.25-.75,.05-.1,.11-.19,.2-.27s.17-.11,.24-.1h0Zm-1.22,.84c-.12-.01-.23-.02-.35-.03,0,0-.02-.03-.03-.1,0-.06-.03-.14-.05-.23-.02-.09-.03-.17-.04-.24v-.13s.04-.08,.12-.13c.07-.05,.14-.07,.21-.06,.14,.02,.28,.04,.42,.06,0,0,.02,.03,.03,.09s.03,.13,.04,.21c.02,.08,.03,.16,.04,.23s0,.12,0,.14c0,.06-.05,.11-.13,.15-.08,.04-.17,.06-.26,.05h0Z"/>
      <path class="cls-18" d="M130.76,918.03c.53,.15,1.05,.3,1.58,.45,.14,.04,.24,.04,.31,0,.07-.03,.13-.1,.18-.19,.04,.01,.08,.02,.12,.04,.05,.25,.11,.5,.17,.74-.05,.08-.13,.15-.22,.2-.09,.06-.17,.08-.24,.06,.07,.28,.14,.56,.22,.84,0,0,0,.01-.02,.02,0,0,0,.02-.02,.03-.02,.02-.05,.06-.11,.11-.05,.05-.11,.09-.17,.13-.14,.1-.3,.14-.46,.11-.31-.05-.62-.1-.94-.16-.04,0-.08-.07-.12-.19s-.07-.26-.1-.43-.05-.34-.05-.5c0-.13,0-.25-.02-.38-.14-.03-.26-.03-.36,0-.1,.04-.18,.12-.25,.26s-.13,.34-.17,.6c-.06-.01-.11-.02-.17-.03-.08-.76-.08-1.19-.06-1.29s.09-.2,.19-.27c.1-.08,.22-.13,.34-.16,.13-.03,.25-.03,.37,0h0Zm1.27,1.77c.1,.02,.18,0,.26-.05s.12-.12,.14-.19c.02-.08,0-.16-.03-.26-.42-.1-.85-.2-1.27-.31,0,.12,.02,.21,.03,.26,0,.06,.03,.13,.07,.2,.07,.13,.22,.22,.44,.27,.12,.03,.25,.05,.37,.08h0Z"/>
      <path class="cls-18" d="M132.99,918.02c-.63-.19-1.25-.39-1.88-.6-.12-.04-.23-.04-.34,0-.11,.03-.17,.1-.2,.19-.04-.01-.08-.02-.12-.04,0-.03-.04-.31-.11-.85,0-.02,.02-.03,.03-.05,0-.02,.02-.04,.04-.06,.03-.04,.08-.09,.16-.14s.16-.06,.24-.03c0-.04,0-.13-.02-.27-.03-.39-.03-.62,0-.68,.04-.1,.11-.17,.22-.23s.22-.09,.34-.1c.12-.01,.22,0,.3,.04,.53,.24,1.07,.48,1.61,.72,.2,.08,.35,.04,.46-.13,.04,.02,.08,.03,.12,.05,.02,.25,.04,.51,.07,.76-.06,.07-.15,.13-.25,.17s-.18,.05-.25,.03c-.52-.2-1.04-.41-1.57-.62-.2-.08-.37-.12-.49-.11-.13,.01-.21,.09-.26,.23,0,.08-.03,.15-.04,.23,.58,.22,1.16,.43,1.74,.63,.22,.08,.37,.04,.46-.11,.04,.01,.08,.03,.12,.04,.03,.23,.07,.47,.12,.7-.06,.07-.14,.14-.24,.19s-.18,.07-.25,.05h-.01Z"/>
      <path class="cls-18" d="M133.25,914.88c-.05,.1-.15,.15-.31,.16-.16,0-.34-.03-.54-.13-.19-.09-.38-.18-.56-.27-.03-.01-.05-.08-.05-.19v-.41c0-.16,.02-.32,.05-.49,.02-.16,.04-.31,.07-.43,.02-.12,.04-.2,.06-.22,.02-.04,.06-.06,.11-.07,.05,0,.09-.01,.12-.02,.04,0,.09,0,.15-.01,.06,0,.12,0,.17-.01,.11,0,.18-.04,.23-.12,.03,.02,.07,.04,.1,.06,0,.04,0,.08-.02,.14,0,.05,0,.11-.02,.18-.02,.32-.03,.49-.05,.52-.03,.06-.15,.08-.35,.06-.2-.02-.32,0-.35,.05-.04,.07,0,.14,.1,.2,.21,.11,.42,.23,.63,.34,.14,.07,.22,.07,.26,0,0-.02,.02-.16,.05-.44s.07-.44,.09-.48c.05-.1,.16-.14,.33-.13,.17,0,.35,.07,.55,.19,.19,.11,.37,.23,.56,.34,.03,.02,.04,.08,.04,.18,0,.11,0,.24-.02,.39,0,.15-.03,.31-.05,.46s-.04,.29-.05,.4c-.02,.11-.03,.18-.04,.21,0,.02-.05,.04-.1,.04h-.25c-.1,0-.2,0-.28,.02-.11,0-.18,.05-.21,.13-.03-.02-.07-.03-.11-.05v-.78c.03-.06,.17-.08,.41-.06s.38,0,.41-.04c.02-.04,.02-.08,0-.13,0-.05-.04-.08-.09-.11-.21-.12-.42-.23-.64-.35-.15-.08-.25-.08-.3,.02-.02,.03-.04,.18-.06,.43s-.04,.39-.05,.42h.01Z"/>
      <path class="cls-18" d="M94.98,927.58c-.06-.06-.12-.11-.18-.17-.02-.06-.04-.11-.06-.17-.21,.09-.43,.17-.64,.26-.09,.04-.15,.08-.18,.12s-.03,.1,0,.18c-.04,.02-.07,.03-.11,.05-.22-.27-.44-.55-.65-.84,.03-.04,.06-.08,.09-.12,.02,.07,.07,.13,.16,.17,.08,.04,.18,.03,.31-.02,.28-.1,.56-.21,.84-.31-.02-.07-.05-.15-.07-.22l.09-.03c.05,.06,.11,.12,.16,.18,.26-.09,.52-.19,.78-.28,.15-.05,.22-.13,.2-.25,.03,0,.05-.02,.08-.03,.11,.11,.23,.22,.34,.32,0,.06-.02,.13-.05,.2-.03,.07-.07,.11-.11,.13-.36,.14-.71,.28-1.06,.42,.05,.13,.1,.25,.15,.38,.25-.11,.49-.21,.74-.32,.09-.04,.15-.07,.18-.11s.03-.09,0-.15c.04-.01,.07-.03,.11-.04,.21,.22,.42,.43,.63,.64-.03,.04-.06,.07-.09,.11-.02-.05-.08-.09-.16-.11-.08-.02-.18,0-.3,.06-.62,.29-1.23,.58-1.83,.89-.14,.07-.2,.18-.16,.31-.03,.01-.05,.03-.08,.04-.14-.12-.27-.24-.41-.36,0-.08,0-.16,.02-.24s.06-.13,.1-.15c.38-.18,.76-.35,1.15-.52v-.02h.01Z"/>
      <path class="cls-18" d="M93.53,925.33s0-.06,.03-.13,.07-.15,.13-.23c.06-.08,.12-.12,.19-.14,.21-.04,.43-.09,.64-.13,.05,0,.12,.06,.21,.19,.05,.07,.1,.15,.16,.24,.06,.09,.11,.17,.15,.24s.07,.11,.07,.13c.19-.05,.29-.18,.29-.37,0-.09-.01-.2-.04-.33,.04,0,.07-.02,.11-.02,.23,.42,.37,.63,.37,.65,.01,.05,0,.11-.03,.18s-.09,.14-.15,.2c-.07,.06-.15,.11-.25,.14-.42,.13-.84,.26-1.25,.4,0,0-.03-.03-.08-.09-.04-.06-.1-.14-.16-.23-.06-.09-.12-.19-.18-.29s-.11-.19-.15-.27-.06-.13-.07-.15h.01Zm.64,.03c-.07,.02-.12,.05-.17,.1-.04,.05-.05,.11-.04,.17s.05,.12,.11,.18c.29-.08,.58-.16,.87-.24-.13-.24-.29-.34-.5-.28-.09,.02-.18,.04-.27,.07h0Z"/>
      <path class="cls-18" d="M94.7,924.04c.01,.07-.03,.14-.12,.21-.09,.07-.2,.12-.35,.14-.14,.02-.28,.05-.42,.07-.02,0-.05-.02-.1-.08-.04-.06-.09-.13-.15-.23-.05-.09-.1-.19-.15-.29s-.09-.19-.12-.27c-.03-.08-.05-.13-.05-.15,0-.03,0-.06,.03-.08,.03-.03,.05-.05,.06-.06,.02-.02,.05-.04,.08-.07s.06-.05,.09-.08c.06-.04,.09-.1,.08-.16h.08s.02,.05,.04,.08c.02,.03,.03,.07,.06,.11,.11,.19,.16,.29,.16,.31,0,.05-.05,.1-.18,.17-.12,.07-.18,.13-.17,.17,0,.06,.05,.08,.13,.07,.16-.02,.32-.04,.48-.07,.1-.01,.15-.05,.15-.1,0-.01-.05-.1-.13-.27-.08-.17-.12-.27-.13-.31,0-.07,.04-.14,.14-.2s.23-.1,.38-.11c.15,0,.29-.02,.44-.03,.02,0,.05,.03,.09,.09,.04,.06,.08,.14,.13,.23,.05,.09,.1,.19,.14,.28,.05,.09,.09,.18,.12,.25,.03,.07,.05,.11,.05,.13s-.01,.04-.04,.06c-.04,.03-.08,.06-.14,.1s-.11,.08-.15,.12c-.06,.05-.08,.1-.07,.15-.03,0-.05,0-.08,.01-.01-.02-.03-.05-.05-.07-.02-.03-.04-.06-.06-.1-.12-.16-.17-.26-.18-.27,0-.04,.06-.11,.21-.19s.22-.14,.21-.18c0-.03-.02-.05-.04-.08-.02-.02-.05-.03-.09-.03-.16,.02-.32,.03-.49,.05-.12,.01-.17,.05-.16,.13,0,.03,.04,.12,.12,.27s.12,.23,.13,.26h0s.02,.02,.02,.02Z"/>
      <path class="cls-18" d="M94.56,922.27c0,.07-.05,.14-.14,.19-.1,.06-.22,.09-.36,.09s-.28,.01-.42,.02c-.02,0-.05-.03-.09-.09-.04-.06-.08-.15-.12-.25s-.08-.2-.12-.31-.06-.2-.08-.28c-.02-.08-.03-.13-.03-.15,0-.03,.02-.05,.04-.08,.03-.02,.05-.04,.07-.05,.02-.02,.05-.04,.09-.06,.04-.02,.07-.04,.1-.06,.06-.04,.1-.09,.1-.15h.08s.02,.05,.03,.09c.01,.03,.03,.07,.04,.11,.08,.2,.13,.31,.12,.33,0,.05-.07,.1-.2,.15-.13,.05-.19,.1-.19,.15,0,.06,.04,.09,.12,.09h.48c.1,0,.16-.03,.16-.08,0-.01-.03-.11-.1-.28-.06-.18-.09-.29-.09-.32,0-.07,.06-.14,.16-.18,.11-.05,.24-.07,.39-.06s.29,.02,.44,.03c.02,0,.05,.04,.08,.1,.03,.07,.06,.15,.1,.25s.07,.2,.11,.3c.03,.1,.06,.19,.09,.26,.02,.07,.04,.12,.04,.14s-.02,.04-.05,.05c-.04,.02-.09,.05-.15,.08-.06,.03-.12,.06-.17,.1-.06,.04-.09,.09-.09,.14h-.08s-.02-.05-.04-.08c-.01-.03-.03-.06-.05-.1-.09-.18-.14-.28-.14-.29,0-.04,.08-.1,.23-.16s.23-.11,.23-.15c0-.03,0-.05-.03-.08-.02-.03-.05-.04-.09-.04-.16,0-.33-.01-.49-.02-.12,0-.18,.03-.18,.11,0,.03,.03,.12,.09,.28,.06,.16,.09,.25,.09,.27h.02Z"/>
      <path class="cls-18" d="M93.6,920.01c.46,.07,.91,.13,1.37,.19,.16,.02,.25-.02,.29-.13,.03,0,.06,0,.08,.01,.05,.15,.11,.3,.17,.45-.03,.06-.07,.11-.13,.16s-.11,.07-.16,.06c-.46-.05-.92-.09-1.38-.14-.16-.02-.26,.04-.29,.17h-.09c-.06-.17-.12-.34-.17-.51,.03-.07,.08-.13,.14-.18s.11-.08,.16-.07h0Zm-.82,.55c-.08,0-.16-.02-.24-.02,0,0-.01-.02-.02-.07,0-.04-.02-.1-.03-.15-.01-.06-.02-.11-.03-.16v-.09s.03-.05,.08-.09c.05-.04,.1-.05,.14-.04,.09,.01,.19,.03,.28,.04,0,0,.01,.02,.02,.06,0,.04,.02,.09,.03,.14s.02,.11,.03,.15v.09s-.03,.07-.09,.1c-.06,.03-.11,.04-.18,.03h0Z"/>
      <path class="cls-18" d="M94.22,918.17c.35,.1,.71,.2,1.07,.3,.09,.03,.16,.03,.21,0,.05-.02,.08-.06,.12-.13,.03,0,.05,.02,.08,.02,.04,.17,.07,.33,.12,.5-.04,.05-.09,.1-.15,.14-.06,.04-.12,.05-.16,.04,.05,.19,.1,.38,.15,.56h-.01s0,.02-.02,.03c-.01,.02-.04,.04-.07,.07-.04,.03-.07,.06-.11,.09-.1,.07-.2,.09-.31,.07-.21-.04-.42-.07-.63-.11-.03,0-.06-.05-.08-.13-.03-.08-.05-.18-.07-.29-.02-.12-.03-.23-.04-.34,0-.08,0-.17-.01-.25-.1-.02-.18-.02-.24,0s-.12,.08-.17,.17c-.04,.09-.09,.23-.12,.41-.04,0-.08-.02-.12-.02-.05-.51-.05-.8-.04-.87,.02-.07,.06-.13,.13-.18s.15-.09,.23-.11c.09-.02,.17-.02,.25,0h0v.03h-.01Zm.85,1.18c.06,.01,.12,0,.17-.03,.05-.03,.08-.08,.09-.13,.01-.05,0-.11-.02-.18-.29-.07-.57-.14-.86-.21,0,.08,.01,.14,.02,.18,0,.04,.02,.08,.05,.13,.05,.09,.15,.15,.29,.18,.08,.02,.17,.03,.25,.05h.01Z"/>
      <path class="cls-18" d="M95.72,918.16c-.42-.13-.84-.26-1.26-.4-.08-.03-.16-.03-.23,0-.07,.02-.12,.07-.13,.13-.03,0-.05-.02-.08-.03,0-.02-.03-.21-.08-.58,0-.01,.01-.02,.02-.04,0-.01,.02-.03,.03-.04,.02-.03,.05-.06,.11-.09,.06-.04,.11-.04,.16-.02,0-.03,0-.09-.02-.18-.02-.26-.02-.42,0-.46,.02-.06,.07-.12,.15-.16,.07-.04,.15-.06,.23-.07,.08,0,.15,0,.21,.03,.36,.16,.72,.32,1.08,.48,.13,.06,.24,.03,.31-.09,.03,.01,.05,.02,.08,.04,.01,.17,.03,.34,.05,.51-.04,.05-.1,.09-.17,.12-.07,.03-.12,.04-.17,.02-.35-.14-.7-.27-1.06-.42-.14-.05-.25-.08-.33-.07-.08,0-.14,.06-.18,.15,0,.05-.02,.1-.03,.16,.39,.15,.78,.29,1.17,.43,.15,.05,.25,.03,.31-.07,.03,0,.05,.02,.08,.03,.02,.16,.05,.31,.08,.47-.04,.05-.09,.09-.16,.13-.07,.03-.12,.04-.17,.03h0Z"/>
      <path class="cls-18" d="M95.89,916.04c-.03,.07-.1,.1-.21,.11-.11,0-.23-.02-.36-.08s-.25-.12-.38-.18c-.02,0-.03-.05-.03-.13v-.27c0-.11,.02-.22,.03-.33,.01-.11,.03-.21,.05-.29,.02-.08,.03-.13,.04-.15s.04-.04,.07-.05c.03,0,.06,0,.08-.01h.22c.07,0,.12-.03,.15-.08,.02,.01,.04,.03,.07,.04,0,.03,0,.06-.01,.09,0,.04,0,.08-.01,.12-.01,.22-.02,.33-.03,.35-.02,.04-.1,.05-.24,.04s-.21,0-.23,.04c-.03,.05,0,.09,.07,.13,.14,.08,.28,.15,.43,.23,.09,.05,.15,.05,.17,0,0-.01,.02-.11,.04-.3,.02-.19,.04-.3,.06-.33,.04-.06,.11-.09,.22-.09,.12,0,.24,.05,.37,.13,.13,.08,.25,.15,.38,.23,.02,.01,.03,.05,.02,.12,0,.07,0,.16-.02,.26,0,.1-.02,.21-.03,.31s-.02,.19-.03,.27-.02,.12-.03,.14c0,.02-.03,.03-.07,.03h-.17c-.07,0-.13,0-.19,.01-.07,0-.12,.04-.14,.09-.02-.01-.05-.02-.07-.03v-.52s.11-.05,.28-.04c.16,.02,.26,0,.27-.03,.01-.02,.01-.05,0-.08,0-.03-.03-.06-.06-.07-.14-.08-.29-.16-.43-.24-.1-.06-.17-.05-.2,.01-.01,.02-.03,.12-.04,.29s-.02,.27-.03,.29v-.03h-.01Z"/>
      <path class="cls-18" d="M122.2,928.53l1.17,.51-1.09,2.5-.54-.23,.87-2.01-.63-.27,.21-.49h0Z"/>
      <path class="cls-18" d="M120.6,927.24l.44,.37-.2,.38,.55,.46,.35-.26,.44,.37-2.35,1.59-.46-.38,1.23-2.53h0Zm.02,1.15l-.58,1.07h0l.98-.73-.4-.34h0Z"/>
      <path class="cls-18" d="M118.72,926.11c.1-.06,.24-.11,.43-.15,.19-.04,.38-.03,.58,.03,.2,.07,.36,.19,.47,.38,.33,.58,.08,1.11-.75,1.58-.39,.23-.74,.32-1.03,.29-.3-.03-.52-.19-.68-.46-.23-.4-.17-.75,.17-1.06l.45,.34c-.21,.13-.26,.29-.15,.47,.05,.08,.11,.13,.19,.15s.17,.01,.26-.02c.1-.04,.25-.11,.47-.24,.25-.14,.42-.25,.51-.32,.08-.07,.14-.14,.15-.22,.02-.08,0-.16-.04-.24-.11-.19-.32-.2-.64-.03l.18,.31-.46,.26-.49-.85,.39-.22h-.01Z"/>
      <path class="cls-18" d="M119.39,924.01l.29,1.33-2.66,.57-.27-1.25,.51-.11,.14,.67,.54-.12-.12-.58,.49-.11,.12,.58,.59-.13-.16-.76,.52-.11h0v.02h.01Z"/>
      <path class="cls-18" d="M119.39,922.04v.6l-1.36,.46h0l1.35,.03v.59l-2.73-.04v-.77c.01-.15,.05-.3,.11-.46,.06-.15,.16-.26,.29-.32s.27-.09,.4-.09c.17,0,.31,.04,.41,.11,.11,.07,.2,.19,.29,.35l1.24-.47h0Zm-1.52,1.08c0-.19-.03-.31-.11-.36-.07-.05-.17-.08-.28-.08-.26,0-.39,.1-.39,.31v.12h.78Z"/>
      <path class="cls-18" d="M118.74,919.23c.12-.12,.24-.2,.37-.22s.26,0,.42,.05c.18,.07,.31,.19,.39,.36,.08,.18,.08,.36,.01,.55l-.33,.92-2.56-.93,.28-.79c.08-.22,.21-.38,.38-.48s.35-.11,.54-.04c.15,.06,.27,.13,.34,.22,.08,.09,.13,.21,.15,.36h.01Zm.64,.95l.05-.16c.03-.1,.03-.18,0-.25-.04-.07-.11-.13-.22-.17-.23-.08-.38,0-.46,.22l-.04,.11,.67,.24h0Zm-1.06-.36l.04-.11c.03-.09,.03-.18,0-.26-.04-.08-.11-.13-.21-.17-.23-.08-.39,0-.47,.22l-.03,.07,.67,.24h0Z"/>
      <path class="cls-18" d="M121.13,918.02l-.81,1.09-2.18-1.63,.76-1.02,.42,.31-.41,.55,.44,.33,.35-.47,.41,.3-.35,.47,.48,.36,.46-.62,.43,.32h0Z"/>
      <path class="cls-18" d="M122.39,917.07l-1.09,.81-1.63-2.18,1.02-.76,.32,.42-.55,.41,.33,.44,.47-.35,.3,.41-.47,.35,.36,.48,.62-.46,.32,.43h0Z"/>
      <path class="cls-18" d="M124.18,916.4l-.56,.2-.9-1.11h0l.46,1.27-.55,.2-.92-2.56,.72-.26c.14-.05,.3-.07,.46-.07s.3,.06,.4,.16,.18,.22,.23,.35c.06,.16,.07,.3,.04,.43s-.11,.26-.23,.4l.87,1h-.02Zm-1.53-1.07c.18-.06,.28-.14,.3-.23,.02-.09,.01-.19-.02-.29-.09-.24-.23-.33-.43-.26l-.11,.04,.27,.74h-.01Z"/>
      <path class="cls-18" d="M140.57,931.68l-1.18,.47-1.01-2.53,.54-.22,.81,2.03,.64-.26,.2,.5h0Z"/>
      <path class="cls-18" d="M142.83,930.05l-.45,.36-.34-.27-.56,.45,.19,.39-.45,.36-1.11-2.61,.46-.38,2.25,1.68h0v.02h0Zm-1.12-.2l-.94-.77h0l.54,1.11,.41-.33h0Z"/>
      <path class="cls-18" d="M143.4,927.15c.1,.06,.22,.16,.34,.3,.13,.14,.22,.31,.26,.52s0,.41-.1,.59c-.34,.58-.92,.62-1.75,.13-.39-.23-.65-.48-.77-.75s-.1-.55,.06-.82c.23-.4,.57-.52,1.01-.38l-.07,.56c-.22-.12-.38-.08-.48,.1-.05,.08-.06,.16-.04,.24s.07,.15,.15,.22c.08,.07,.22,.16,.44,.29,.25,.15,.43,.24,.53,.28,.1,.04,.19,.05,.27,.02,.08-.02,.14-.07,.19-.15,.11-.19,0-.38-.29-.58l-.18,.31-.46-.27,.5-.84,.39,.23h0Z"/>
      <path class="cls-18" d="M144.98,925.52l-.35,1.31-2.63-.7,.33-1.23,.51,.13-.18,.67,.54,.14,.15-.57,.49,.13-.15,.57,.58,.15,.2-.75,.52,.14h0Z"/>
      <path class="cls-18" d="M145.23,923.1l-.05,.6-1.38,.37h0l1.34,.11-.05,.59-2.72-.21,.06-.76c0-.15,.05-.3,.13-.45,.07-.15,.18-.25,.31-.3s.27-.08,.41-.07c.17,.01,.3,.06,.41,.14,.1,.08,.19,.2,.27,.37l1.27-.39h0Zm-1.58,.96c0-.19,0-.31-.08-.37s-.16-.09-.28-.1c-.26-.02-.4,.08-.41,.29v.12l.78,.06h0Z"/>
      <path class="cls-18" d="M143.48,920.23c.04-.17,.1-.3,.19-.39s.22-.15,.38-.19c.19-.04,.36-.01,.52,.09,.16,.11,.26,.26,.31,.45l.22,.95-2.65,.61-.19-.81c-.05-.23-.03-.43,.06-.61s.24-.29,.43-.33c.16-.04,.29-.04,.41,0,.11,.04,.22,.11,.32,.22h0Zm-.04,.72l-.03-.12c-.02-.1-.07-.17-.15-.21-.07-.04-.16-.05-.27-.03-.24,.05-.33,.2-.27,.44l.02,.07,.7-.16h0Zm1.1-.23l-.04-.17c-.02-.1-.07-.17-.14-.21-.07-.04-.16-.05-.27-.02-.23,.05-.32,.2-.27,.44l.03,.12,.7-.16h0Z"/>
      <path class="cls-18" d="M143.66,917.45l.68,1.18-2.36,1.35-.63-1.11,.46-.26,.34,.6,.48-.28-.29-.51,.44-.25,.29,.51,.52-.3-.38-.67,.47-.27h-.02Z"/>
      <path class="cls-18" d="M142.05,915.78l.99,.93-1.86,1.99-.93-.87,.36-.38,.5,.47,.38-.4-.43-.4,.35-.37,.43,.4,.41-.44-.57-.53,.37-.39h0Z"/>
      <path class="cls-18" d="M139.75,914.5l.54,.27-.17,1.42h0l.6-1.2,.53,.26-1.21,2.44-.69-.34c-.14-.07-.26-.16-.37-.29-.11-.12-.16-.26-.16-.4s.03-.28,.09-.4c.08-.15,.17-.26,.28-.32s.26-.1,.44-.11l.11-1.32h.01Zm.3,1.81c-.17-.08-.3-.1-.37-.06-.08,.04-.14,.12-.19,.22-.12,.23-.08,.4,.11,.49l.11,.05,.35-.71h-.01Z"/>
      <path class="cls-18" d="M260.57,924.24l33.2,20.53c3.57,2.21,4.67,6.88,2.46,10.45l-9.82,15.87c-1.56,2.53-4.37,3.82-7.14,3.57-.32-.03-.63-.07-.94-.14-.82-.18-1.62-.49-2.37-.96l-33.2-20.53c-.35-.22-.68-.46-.98-.72-1.2-1.04-2.02-2.39-2.39-3.86-.35-1.37-.89-2.68-1.63-3.86,0-.01,0-.02-.02-.03-.61-.98-.57-1.35-.86-1.73-.12-.16-.3-.31-.62-.52-.11-.08-.24-.15-.39-.24l-5.58-3.31c-.3-.18-.59-.36-.87-.56-.87-.59-1.68-1.27-2.43-2.03l-12.16-12.39h0l-.9-.77c-.22-.19-.49-.29-.76-.32-.21-.02-.43,0-.64,.07-.45,.14-.95,.1-1.38-.17-.7-.43-.96-1.29-.67-2.02l-1.51-1.52c-.31-.31-.76-.45-1.18-.33-.37,.1-.78,.05-1.13-.16-.33-.21-.56-.53-.64-.89s-.03-.74,.18-1.08l5.39-8.72c.43-.69,1.37-.94,2.05-.49,.31,.21,.51,.52,.59,.86h0c.1,.44,.4,.81,.83,.95l2.03,.67c.23-.26,.53-.43,.85-.51,.41-.1,.86-.04,1.25,.21,.43,.26,.69,.7,.77,1.16,.08,.51,.39,.95,.86,1.15l1.09,.46,16.52,5.35c1.01,.33,1.98,.75,2.9,1.27,.3,.17,.6,.34,.89,.53l5.46,3.51c.53,.34,.86,.5,1.13,.57,.53,.13,.85-.09,2.08,0,1.36,.11,2.73,.01,4.08-.28,1.85-.4,3.86-.11,5.6,.96h0Z"/>
      <path class="cls-5" d="M260.57,924.24l33.2,20.53c3.57,2.21,4.67,6.88,2.46,10.45l-9.82,15.87c-.56,.91-1.21,1.59-1.89,2.1-2.08,1.57-4.78-.97-3.41-3.18l7.72-12.48c1.45-2.34,.72-5.41-1.62-6.86l-29.32-18.13c-1-.62-2.31-.31-2.93,.69h0c-1.52,2.45-3.94,4.2-6.75,4.86l-3.47,.82c-.71,.17-1.27-.61-.89-1.23h0c.38-.62-.17-1.4-.89-1.23l-1.6,.38c-.71,.17-1.27-.61-.89-1.23l1.76-2.84c.97-1.57,.49-3.63-1.09-4.6l-4.49-2.77-14.94-9.42c-.83-.52-1.08-1.62-.57-2.45l.74-1.19,16.52,5.35c1.33,.43,2.61,1.04,3.78,1.8l5.46,3.51c1.56,1.01,1.35,.42,3.2,.57,1.36,.11,2.73,.01,4.08-.28,1.85-.4,3.86-.11,5.6,.96h.05Z"/>
      <path class="cls-18" d="M213.45,906.17l.31,.19c.43,.26,.46,.63,.4,.91-.04,.2-.26,.31-.45,.22-.55-.25-1.08-.25-1.25,.02-.18,.28,.08,.77,.57,1.15,.13,.11,.17,.29,.08,.43l-.08,.12c-.09,.14-.26,.19-.41,.13-.59-.24-1.24-.1-1.54,.37-.29,.47-.13,1.12,.36,1.54,.12,.11,.15,.28,.07,.42l-.08,.13c-.09,.14-.25,.18-.4,.13-.6-.22-1.29,0-1.65,.55-.34,.57-.22,1.28,.25,1.72,.12,.11,.15,.28,.07,.42l-.08,.13c-.09,.14-.26,.19-.41,.13-.59-.24-1.24-.1-1.54,.37-.29,.47-.13,1.12,.36,1.54,.12,.11,.15,.28,.07,.42l-.08,.12c-.09,.14-.27,.19-.42,.12-.57-.27-1.11-.28-1.29,0-.17,.28,.07,.75,.54,1.13,.16,.13,.16,.37,0,.5-.22,.17-.57,.31-1,.05l-.31-.19c-.5-.31-.87-.74-1.09-1.24-.39-.84-.36-1.85,.17-2.7l4.89-7.9c.52-.85,1.42-1.32,2.34-1.35,.54-.02,1.1,.12,1.6,.43h0Z"/>
      <path class="cls-18" d="M217.92,911.77h0c.8,.49,1.05,1.54,.55,2.34l-4.84,7.82c-.25,.4-.65,.67-1.1,.81h0c-.45,.14-.95,.1-1.38-.17-.7-.43-.96-1.29-.67-2.02l5.1-8.24c.49-.8,1.54-1.05,2.34-.55h0Z"/>
      <path class="cls-18" d="M214.28,918.69l-1.8,2.91c-.19,.31-.61,.41-.92,.22h0c-.31-.19-.41-.61-.22-.92l1.8-2.91c.19-.31,.61-.41,.92-.22h0c.31,.19,.41,.61,.22,.92Z"/>
      <path class="cls-1" d="M252.49,950.38l22.37,13.83c2.7,1.67,3.53,5.21,1.86,7.91l-.85,1.38-31.11-19.24c-.35-.22-.68-.46-.98-.72l.8-1.3c1.67-2.7,5.21-3.53,7.91-1.86h0Z"/>
      <path class="cls-18" d="M210.93,907.24l-5.55,8.98c-.35,.57-1.26,.2-1.09-.45,.07-.26,.18-.52,.33-.76l4.89-7.9c.14-.23,.31-.43,.5-.61,.51-.47,1.29,.15,.92,.74h0Z"/>
      <path class="cls-1" d="M220.08,921.85l8.52,5.27c2.48,1.53,4.65,3.52,6.4,5.86l1.49,2c1.42,1.91,1.53,4.49,.28,6.51l-.5,.81c-.11-.08-.24-.15-.39-.24l-5.58-3.31c-1.21-.71-2.31-1.58-3.3-2.58l-12.16-12.39h0l.5-.8c1-1.62,3.12-2.12,4.74-1.12h0Z"/>
      <path class="cls-18" d="M267.8,934.09l16.16,10c4.37,2.7,5.72,8.43,3.02,12.79l-3.21,5.19c-1.56,2.52-4.12,4.03-6.85,4.35-2.01,.23-4.1-.19-5.95-1.33l-16.16-10c-2.07-1.28-3.47-3.25-4.07-5.43-.67-2.41-.37-5.07,1.05-7.37l3.21-5.19c2.7-4.37,8.43-5.72,12.79-3.02h.01Z"/>
      <path class="cls-18" d="M252.49,950.38l22.37,13.84c.9,.56,1.6,1.33,2.06,2.2-2.01,.23-4.1-.19-5.95-1.33l-16.16-10c-2.07-1.28-3.47-3.25-4.07-5.43,.6,.14,1.2,.37,1.75,.72h0Z"/>
      <rect class="cls-18" x="258.61" y="932.58" width="21.51" height="34.17" rx="8" ry="8" transform="translate(-679.98 679.16) rotate(-58.26)"/>
      <rect class="cls-18" x="265.33" y="939.33" width="8.07" height="20.68" rx="3.94" ry="3.94" transform="translate(-679.98 679.16) rotate(-58.26)"/>
      <path class="cls-18" d="M247.68,922.98c.53,.34,.86,.5,1.13,.57l-11.92,19.27c-.12-.16-.3-.31-.62-.52-.11-.08-.24-.15-.39-.24l-5.58-3.31c-.3-.18-.59-.36-.87-.56l11.91-19.25c.3,.17,.6,.34,.89,.53l5.46,3.51h-.01Z"/>
      <circle class="cls-18" cx="269.2" cy="949.36" r="8.01"/>
      <circle class="cls-18" cx="235.75" cy="928.67" r="6.58"/>
      <circle class="cls-18" cx="235.75" cy="928.67" r="5.45"/>
      <path class="cls-18" d="M280.34,944.83c-.2,.32-.47,.58-.8,.77-.43,.25-.93,.46-1.64,.77-.43,.19-.95,.41-1.57,.69-1.99,.9-3.38,2.91-3.89,3.72-.15,.24-.24,.41-.28,.48l-.06,.09v.02c-.05,.06-.16,.21-.31,.46-.51,.82-1.68,2.96-1.59,5.15,.03,.69,.06,1.25,.08,1.72,.04,.76,.07,1.31,.04,1.81-.02,.38-.14,.74-.33,1.06-.46,.75-1.32,1.17-2.2,1.07l-4.45-.48c-.73-.08-1.35-.49-1.73-1.11-.37-.62-.42-1.35-.15-2.01,.49-1.19,.63-2.34,.44-3.43-.58-3.18,2.68-8.64,2.82-8.87,.15-.24,3.55-5.55,6.66-6.46,1.06-.31,2.03-.96,2.88-1.92,.47-.54,1.15-.81,1.87-.76,.73,.05,1.37,.43,1.77,1.05l2.42,3.76c.47,.74,.48,1.7,.02,2.44h0v-.02h0Z"/>
      <path class="cls-18" d="M265.3,947.06s3.37-5.32,6.27-6.16c1.41-.41,2.47-1.3,3.2-2.13,.7-.8,1.99-.69,2.56,.21l2.42,3.76c.35,.54,.33,1.21,.02,1.73-.13,.22-.32,.41-.56,.54-.65,.37-1.53,.7-3.15,1.43-2.12,.96-3.58,3-4.19,3.98-.16,.25-.26,.44-.3,.51l-.02,.04c-.05,.07-.17,.24-.33,.5-.61,.98-1.78,3.2-1.69,5.52,.06,1.77,.17,2.71,.13,3.46-.02,.27-.1,.53-.23,.74-.32,.51-.91,.83-1.55,.76l-4.45-.48c-1.06-.12-1.73-1.21-1.33-2.2,.42-1.02,.74-2.36,.47-3.81-.54-2.97,2.73-8.4,2.73-8.4m-1.15-.71h0c-.36,.61-3.52,5.98-2.9,9.35,.18,.96,.04,1.99-.4,3.06-.35,.86-.28,1.81,.2,2.61,.48,.81,1.3,1.34,2.23,1.44l4.45,.48c1.13,.12,2.25-.42,2.84-1.39,.25-.41,.4-.89,.43-1.37,.03-.53,0-1.1-.04-1.88-.03-.48-.06-1.03-.08-1.7-.08-2,1.02-4,1.49-4.77,.14-.23,.25-.38,.28-.42l.03-.04,.02-.04,.02-.04,.02-.04,.02-.04s.11-.2,.25-.44c.47-.77,1.77-2.64,3.6-3.46,.62-.28,1.12-.5,1.56-.69,.72-.31,1.24-.54,1.7-.8,.42-.24,.78-.59,1.03-1,.6-.96,.59-2.21-.03-3.16l-2.42-3.76c-.51-.79-1.34-1.29-2.29-1.36-.93-.07-1.81,.29-2.42,.99-.76,.87-1.62,1.45-2.56,1.72-3.29,.96-6.66,6.14-7.03,6.73h0v.02h0Z"/>
      <path class="cls-18" d="M243.51,925.6c-.14,.22-.33,.41-.55,.53-.3,.17-.65,.32-1.13,.53-.3,.13-.66,.28-1.09,.48-1.38,.63-2.35,2.01-2.7,2.58-.1,.17-.17,.29-.19,.33l-.04,.07h0s-.1,.16-.21,.33c-.35,.57-1.16,2.05-1.11,3.57,.02,.48,.04,.86,.06,1.19,.03,.53,.05,.91,.03,1.25-.02,.26-.1,.51-.23,.73-.32,.52-.92,.81-1.52,.74l-3.09-.34c-.5-.06-.94-.34-1.2-.77-.25-.43-.29-.94-.11-1.39,.34-.82,.44-1.63,.3-2.38-.4-2.21,1.86-5.99,1.95-6.15,.11-.17,2.46-3.85,4.62-4.48,.74-.21,1.41-.66,2-1.33,.33-.37,.8-.56,1.3-.53,.51,.04,.95,.3,1.23,.73l1.68,2.61c.33,.51,.34,1.18,.02,1.7h-.02Z"/>
      <path class="cls-18" d="M233.08,927.15s2.34-3.69,4.35-4.27c.98-.28,1.71-.9,2.22-1.47,.49-.56,1.38-.48,1.78,.14l1.68,2.61c.24,.38,.23,.84,0,1.2-.09,.15-.22,.28-.39,.38-.45,.26-1.06,.48-2.18,.99-1.47,.67-2.48,2.08-2.9,2.76-.11,.18-.18,.3-.21,.36l-.02,.03s-.12,.17-.23,.34c-.42,.68-1.24,2.22-1.18,3.83,.04,1.23,.12,1.88,.09,2.4,0,.19-.07,.37-.16,.52-.22,.35-.63,.57-1.08,.52l-3.08-.34c-.73-.08-1.2-.84-.92-1.53,.29-.71,.51-1.64,.33-2.64-.38-2.06,1.89-5.83,1.89-5.83m-.79-.49h0c-.25,.43-2.44,4.14-2.01,6.48,.12,.67,.03,1.38-.27,2.12-.24,.6-.19,1.26,.14,1.81,.33,.56,.9,.93,1.55,1l3.09,.34c.78,.08,1.56-.29,1.97-.96,.18-.29,.28-.61,.3-.95,.02-.37,0-.76-.03-1.31-.02-.33-.04-.71-.06-1.18-.05-1.39,.71-2.77,1.04-3.31,.1-.16,.17-.26,.19-.29l.02-.03,.02-.03,.02-.03,.02-.03v-.03s.09-.14,.19-.3c.33-.53,1.23-1.83,2.49-2.4,.43-.19,.78-.34,1.08-.48,.5-.22,.86-.37,1.18-.56,.29-.17,.54-.41,.72-.69,.41-.67,.41-1.53-.02-2.19l-1.68-2.61c-.36-.55-.93-.89-1.59-.94-.64-.05-1.26,.2-1.68,.69-.53,.6-1.12,1-1.78,1.19-2.28,.66-4.62,4.26-4.88,4.67h0l-.02,.02h0Z"/>
      <path class="cls-18" d="M271.69,951.03v.03h-.01l.02-.03h0Z"/>
      <path class="cls-18" d="M265.74,958.69c-.04-.13-.08-.25-.12-.38,.01-.1,.03-.19,.05-.29-.37-.05-.73-.09-1.1-.14-.16-.02-.27-.01-.34,.02s-.12,.12-.14,.25c-.07,0-.13-.01-.2-.02-.1-.56-.18-1.12-.24-1.7,.08-.03,.15-.06,.23-.09-.03,.12,0,.24,.09,.36,.08,.11,.23,.18,.44,.22,.47,.07,.95,.15,1.42,.23,.02-.12,.05-.24,.08-.36,.05,0,.1,.02,.15,.03,.03,.13,.05,.26,.08,.38,.44,.08,.88,.15,1.31,.23,.25,.05,.41-.02,.48-.19,.04,0,.09,.02,.14,.03,.07,.24,.14,.48,.22,.72-.05,.09-.13,.17-.23,.24s-.19,.1-.26,.09c-.6-.09-1.21-.18-1.82-.26-.04,.21-.07,.43-.1,.65,.43,.04,.86,.09,1.29,.14,.15,.02,.26,.01,.34-.01,.07-.03,.12-.1,.13-.21,.06,0,.13,.02,.19,.03,.11,.47,.24,.94,.38,1.39-.07,.03-.14,.06-.21,.09,0-.09-.04-.19-.14-.29-.09-.09-.25-.14-.47-.16-1.09-.09-2.18-.16-3.27-.21-.26-.01-.41,.09-.46,.31h-.14c-.1-.27-.19-.55-.28-.82,.05-.12,.13-.22,.22-.32,.1-.1,.19-.14,.26-.13,.67,.05,1.34,.11,2.01,.18h.01Z"/>
      <path class="cls-18" d="M265.49,954.4s.06-.08,.15-.16c.09-.08,.21-.15,.36-.21,.14-.06,.27-.07,.37-.04,.34,.11,.67,.22,1,.32,.07,.02,.12,.17,.14,.44,.01,.14,.02,.29,.03,.46,0,.17,.01,.32,.02,.45v.24c.31,.08,.54-.02,.7-.29,.07-.13,.14-.29,.21-.5,.06,.02,.11,.04,.17,.05,0,.77,.02,1.17,0,1.21-.02,.08-.09,.16-.19,.23s-.23,.13-.38,.16c-.15,.03-.3,.04-.45,0-.69-.15-1.38-.29-2.07-.43-.01,0-.03-.06-.04-.18s-.03-.27-.04-.45-.02-.36-.02-.55v-.49c0-.14,.02-.23,.03-.26h.01Zm.88,.53c-.11-.03-.22-.03-.31,.01-.1,.04-.16,.11-.19,.21-.03,.1-.03,.21,0,.34,.47,.11,.94,.23,1.41,.35,.01-.43-.14-.7-.48-.79-.14-.04-.29-.08-.43-.12h0Z"/>
      <path class="cls-18" d="M268.14,953.52c-.04,.11-.15,.17-.33,.2s-.38,0-.6-.08c-.21-.08-.43-.15-.64-.23-.03-.01-.05-.07-.07-.19-.02-.12-.02-.26-.03-.43,0-.17,0-.35,.01-.52,.01-.18,.03-.33,.04-.46,.02-.13,.03-.21,.05-.24,.02-.04,.06-.07,.11-.09,.06-.02,.1-.03,.13-.03,.05-.01,.1-.02,.17-.03s.13-.02,.19-.04c.12-.01,.2-.07,.24-.16,.04,.02,.08,.04,.11,.05,0,.04,0,.09-.01,.15v.19c0,.35,0,.53-.01,.56-.03,.07-.16,.1-.38,.1s-.35,.04-.38,.1c-.04,.08,0,.15,.12,.2,.24,.1,.48,.19,.72,.29,.16,.06,.25,.05,.28-.03,0-.02,.01-.18,.03-.48s.04-.48,.06-.53c.05-.11,.17-.17,.35-.18,.19,0,.39,.04,.62,.15,.21,.1,.42,.21,.64,.31,.03,.01,.05,.08,.05,.2v.43c0,.17-.01,.33-.02,.5-.01,.17-.02,.31-.03,.44-.01,.12-.02,.2-.03,.23-.01,.03-.05,.04-.11,.05-.07,0-.16,.02-.27,.03-.11,0-.21,.02-.31,.04-.12,.02-.19,.07-.22,.16-.04-.01-.08-.03-.12-.04v-.14s0-.11-.01-.18c-.03-.32-.04-.5-.03-.52,.03-.07,.18-.1,.44-.1s.42-.03,.44-.08c.02-.04,.02-.09,0-.14-.01-.05-.05-.09-.1-.11-.24-.11-.48-.21-.72-.32-.17-.08-.28-.06-.33,.05-.02,.04-.03,.2-.04,.47,0,.27-.01,.43-.03,.46h.02Z"/>
      <path class="cls-18" d="M269.36,950.93c-.06,.1-.17,.15-.35,.16-.18,0-.37-.05-.58-.15-.2-.1-.4-.21-.6-.31-.03-.02-.04-.08-.04-.2s0-.26,.03-.44c.02-.17,.05-.35,.08-.52,.03-.18,.07-.33,.1-.46s.06-.21,.08-.24c.02-.04,.06-.06,.12-.07,.06,0,.1-.01,.13-.02h.17c.07,0,.13,0,.19-.01,.12,0,.2-.04,.26-.13,.04,.02,.07,.05,.1,.07,0,.04-.02,.09-.03,.15s-.02,.12-.03,.19c-.05,.35-.07,.53-.08,.55-.04,.06-.17,.08-.39,.05s-.35,0-.38,.05c-.05,.08-.01,.15,.1,.21,.22,.13,.45,.25,.67,.38,.15,.08,.24,.09,.28,.01,.01-.02,.04-.17,.09-.47,.06-.3,.1-.47,.13-.52,.06-.1,.19-.14,.37-.13,.19,.02,.38,.09,.59,.23,.2,.13,.39,.26,.59,.39,.03,.02,.04,.09,.03,.2,0,.12-.03,.26-.05,.42-.03,.17-.06,.33-.09,.5s-.06,.31-.09,.43-.05,.2-.06,.22c-.01,.03-.05,.04-.11,.04h-.58c-.12,0-.2,.05-.24,.13-.04-.02-.07-.04-.11-.06,0-.04,0-.09,.01-.14,0-.05,0-.11,.01-.18,0-.33,.02-.5,.04-.52,.03-.06,.19-.08,.45-.04,.27,.04,.41,.03,.45-.03,.02-.04,.03-.08,.02-.14,0-.05-.04-.09-.09-.12-.22-.14-.45-.27-.67-.41-.16-.1-.27-.1-.33,0-.02,.04-.06,.19-.1,.46s-.07,.42-.08,.46h-.01Z"/>
      <path class="cls-18" d="M269.79,947.01c.59,.45,1.17,.91,1.76,1.36,.2,.15,.37,.17,.51,.04,.04,.03,.07,.06,.11,.09-.05,.25-.09,.5-.12,.76-.09,.06-.19,.09-.31,.11-.12,.02-.21,0-.27-.04-.61-.43-1.21-.85-1.81-1.28-.21-.15-.39-.15-.53,0-.04-.03-.08-.05-.11-.08,.05-.28,.1-.56,.16-.85,.1-.07,.21-.12,.34-.15s.22-.02,.28,.03h-.01Zm-1.6,.16c-.1-.07-.21-.15-.31-.22,0,0,0-.04,.02-.11s.05-.15,.08-.24c.03-.09,.06-.17,.09-.25,.03-.07,.05-.12,.06-.13,.02-.03,.08-.05,.18-.06s.18,0,.23,.05c.12,.09,.24,.19,.36,.28,0,0,0,.04-.02,.1s-.05,.14-.07,.22c-.03,.08-.06,.16-.09,.24-.03,.07-.05,.12-.06,.14-.04,.05-.1,.07-.2,.07s-.19-.03-.27-.09h0Z"/>
      <path class="cls-18" d="M272.12,944.93c.41,.42,.83,.85,1.25,1.27,.11,.11,.2,.17,.28,.17s.17-.02,.27-.09c.03,.03,.06,.07,.1,.1-.08,.26-.16,.53-.23,.79-.09,.04-.2,.07-.32,.07s-.21-.02-.26-.07c-.09,.3-.16,.61-.24,.91h-.03s-.02,0-.04,.01c-.03,.01-.08,.03-.16,.04-.08,.02-.15,.03-.23,.03-.19,.02-.35-.03-.49-.14-.27-.22-.53-.43-.8-.65-.03-.03-.04-.11-.01-.24s.07-.29,.14-.46c.07-.18,.14-.34,.21-.5l.18-.36c-.12-.11-.23-.17-.34-.19s-.23,.02-.37,.11c-.14,.09-.3,.25-.49,.47-.05-.04-.1-.08-.14-.12,.33-.76,.56-1.17,.63-1.24,.08-.09,.19-.14,.32-.16,.14-.02,.27,0,.41,.03,.14,.04,.25,.11,.34,.2h0l.02,.02h0Zm.26,2.33c.08,.07,.17,.1,.27,.09,.1,0,.18-.04,.23-.11,.06-.07,.09-.15,.11-.26-.35-.32-.69-.64-1.04-.97-.05,.11-.09,.2-.11,.27-.02,.06-.03,.14-.04,.22,0,.16,.08,.32,.27,.49,.1,.09,.21,.18,.31,.27h0Z"/>
      <path class="cls-18" d="M274.23,946.11c-.49-.52-.97-1.04-1.45-1.56-.09-.1-.2-.16-.32-.19s-.22,0-.29,.07c-.03-.03-.06-.07-.09-.1,.02-.03,.13-.32,.35-.86,.02-.01,.04-.02,.06-.03s.04-.02,.07-.03c.05-.02,.12-.04,.23-.04s.19,.03,.24,.1c.02-.04,.06-.13,.12-.27,.18-.39,.3-.6,.35-.64,.09-.07,.19-.11,.33-.1,.13,0,.26,.03,.38,.08s.21,.12,.27,.2c.37,.51,.75,1.03,1.13,1.53,.14,.18,.31,.22,.51,.12,.03,.04,.05,.07,.08,.11-.12,.25-.23,.5-.34,.75-.1,.03-.21,.04-.32,.03-.12-.01-.2-.05-.25-.11-.39-.47-.77-.94-1.15-1.42-.15-.18-.28-.31-.41-.36-.12-.06-.25-.03-.37,.07-.05,.07-.11,.13-.16,.2,.43,.51,.86,1.02,1.3,1.53,.17,.19,.33,.24,.49,.14,.03,.04,.06,.07,.09,.11-.09,.24-.18,.48-.26,.72-.1,.04-.2,.05-.32,.05s-.21-.03-.26-.09h0Z"/>
      <path class="cls-18" d="M276.15,943.29c-.09,.07-.22,.06-.38-.02s-.31-.21-.44-.4-.26-.37-.39-.56c-.02-.03,0-.09,.05-.2s.13-.24,.22-.38c.09-.15,.2-.29,.3-.43,.11-.14,.21-.27,.29-.37,.09-.1,.15-.16,.17-.18,.04-.02,.08-.03,.14,0,.05,.02,.09,.04,.12,.05,.04,.02,.09,.04,.15,.07s.12,.06,.17,.08c.1,.06,.19,.06,.28,0,.02,.04,.04,.07,.06,.11-.03,.03-.06,.07-.09,.12s-.07,.1-.11,.16c-.19,.29-.3,.45-.32,.46-.06,.04-.18,0-.36-.13s-.3-.17-.36-.13c-.08,.05-.08,.13-.01,.24,.14,.22,.28,.44,.41,.66,.09,.14,.17,.19,.24,.14,.02-.01,.11-.14,.28-.39,.18-.25,.3-.38,.34-.41,.1-.06,.23-.04,.38,.05,.16,.1,.29,.26,.41,.48,.12,.21,.23,.41,.35,.62,.02,.03,0,.09-.06,.19s-.14,.22-.23,.36c-.1,.14-.19,.27-.29,.41-.1,.13-.19,.25-.26,.35-.08,.1-.12,.16-.15,.17-.02,.02-.06,.01-.12-.02s-.14-.08-.24-.13c-.1-.06-.19-.1-.27-.14-.11-.05-.2-.04-.27,0-.02-.03-.05-.07-.07-.1,.02-.04,.04-.08,.07-.12,.03-.05,.06-.1,.09-.16,.15-.29,.24-.44,.26-.45,.06-.04,.2,.02,.42,.17,.22,.15,.35,.21,.41,.18,.04-.02,.06-.06,.08-.11s0-.1-.02-.15c-.14-.22-.28-.45-.41-.67-.1-.16-.2-.21-.29-.15-.03,.02-.13,.15-.29,.37-.15,.23-.24,.35-.27,.37h0Z"/>
      <path class="cls-18" d="M233.29,934.82c-.03-.09-.05-.17-.08-.26,0-.07,.02-.13,.03-.2-.25-.03-.49-.06-.74-.09-.1-.01-.18,0-.23,.02s-.08,.08-.09,.17c-.04,0-.09,0-.13-.01-.07-.37-.12-.76-.16-1.14,.05-.02,.1-.04,.15-.06-.02,.08,0,.16,.06,.24,.06,.07,.15,.12,.3,.15,.32,.05,.64,.1,.96,.16,.02-.08,.03-.16,.05-.24,.03,0,.07,.01,.1,.02,.02,.09,.03,.17,.05,.26,.3,.05,.59,.1,.88,.16,.17,.03,.28-.01,.33-.13,.03,0,.06,.01,.09,.02,.05,.16,.1,.33,.15,.49-.04,.06-.09,.11-.15,.16-.07,.05-.13,.07-.18,.06-.41-.06-.82-.12-1.23-.17-.02,.14-.05,.29-.07,.44,.29,.03,.58,.06,.87,.1,.1,.01,.18,0,.23,0,.05-.02,.08-.06,.09-.14,.04,0,.09,.01,.13,.02,.08,.32,.16,.63,.26,.94-.05,.02-.09,.04-.14,.06,0-.06-.03-.13-.09-.19s-.17-.09-.31-.11c-.73-.06-1.47-.11-2.21-.14-.17,0-.28,.06-.31,.21h-.09c-.07-.18-.13-.37-.19-.56,.03-.08,.08-.15,.15-.21,.07-.06,.13-.09,.18-.09,.45,.04,.91,.08,1.36,.12h0l-.02-.06h0Z"/>
      <path class="cls-18" d="M233.12,931.92s.04-.05,.1-.11c.06-.05,.14-.1,.24-.14,.1-.04,.18-.05,.25-.03,.23,.07,.45,.15,.68,.22,.05,.02,.08,.12,.1,.3,0,.09,.02,.2,.02,.31v.46c.21,.05,.37-.01,.47-.19,.05-.09,.09-.2,.14-.34,.04,.01,.08,.02,.12,.04v.82c0,.06-.06,.11-.13,.16s-.15,.08-.25,.11c-.1,.02-.2,.02-.31,0-.46-.1-.93-.2-1.39-.29,0,0-.02-.04-.03-.12,0-.08-.02-.18-.02-.3v-.7c0-.1,0-.16,.02-.18h0v-.02h-.01Zm.58,.35c-.07-.02-.15-.02-.21,0-.07,.03-.11,.08-.13,.14-.02,.07-.02,.14,0,.23,.32,.08,.63,.16,.95,.24,0-.29-.09-.47-.32-.54-.1-.03-.19-.05-.29-.08h0Z"/>
      <path class="cls-18" d="M234.91,931.33c-.03,.07-.1,.12-.22,.14s-.25,0-.4-.05c-.14-.05-.29-.1-.43-.15-.02,0-.04-.05-.05-.13,0-.08-.02-.18-.02-.29v-.35c0-.12,.02-.22,.03-.31s.02-.14,.03-.16c0-.03,.04-.05,.08-.06,.04-.01,.07-.02,.09-.02,.03,0,.07-.01,.11-.02,.05,0,.09-.02,.13-.02,.08,0,.13-.05,.16-.11,.03,.01,.05,.02,.08,.04v.61s-.11,.07-.26,.07-.24,.03-.25,.07c-.02,.06,0,.1,.08,.13,.16,.06,.32,.13,.48,.19,.1,.04,.17,.04,.19-.02,0-.01,0-.12,.02-.32,0-.2,.03-.32,.04-.36,.03-.07,.11-.11,.24-.12,.13,0,.27,.03,.42,.1,.14,.07,.29,.14,.43,.21,.02,0,.03,.05,.03,.13v.29c0,.11,0,.23-.02,.34,0,.11,0,.21-.02,.29,0,.08,0,.13-.02,.15,0,.02-.03,.03-.07,.03-.05,0-.11,.01-.18,.02-.08,0-.14,.02-.21,.03-.08,.01-.13,.05-.15,.11-.03,0-.05-.02-.08-.03v-.21c-.02-.22-.03-.33-.02-.35,.02-.04,.12-.07,.3-.07s.28-.02,.3-.06v-.09s-.03-.06-.07-.08c-.16-.07-.32-.14-.48-.21-.12-.05-.19-.04-.22,.03,0,.03-.02,.13-.03,.32,0,.18,0,.29-.02,.31h0l-.03-.02h.01Z"/>
      <path class="cls-18" d="M235.73,929.59c-.04,.07-.12,.1-.24,.11-.12,0-.25-.03-.39-.1-.14-.07-.27-.14-.41-.21-.02-.01-.03-.05-.03-.14,0-.08,0-.18,.02-.29,0-.12,.03-.23,.06-.35,.02-.12,.05-.22,.07-.31s.04-.14,.05-.16c.02-.03,.04-.04,.08-.05,.04,0,.07,0,.09-.01h.25c.08,0,.14-.03,.18-.09,.02,.02,.05,.03,.07,.05,0,.03,0,.06-.02,.1,0,.04,0,.08-.02,.13-.03,.23-.05,.36-.06,.37-.03,.04-.11,.05-.26,.03-.15-.02-.24,0-.26,.03-.03,.05,0,.1,.06,.14,.15,.09,.3,.17,.45,.26,.1,.06,.16,.06,.19,0,0-.01,.02-.12,.06-.32s.07-.32,.09-.35c.04-.07,.13-.1,.25-.09,.13,.01,.26,.06,.4,.16,.13,.09,.27,.18,.4,.26,.02,.01,.02,.06,.02,.14s-.02,.17-.04,.29c-.02,.11-.04,.22-.06,.34-.02,.11-.04,.21-.06,.29-.02,.08-.03,.13-.04,.15,0,.02-.04,.03-.08,.03h-.4c-.08,0-.13,.03-.16,.09-.02-.01-.05-.03-.08-.04v-.21c0-.22,.02-.34,.02-.35,.02-.04,.13-.05,.3-.03,.18,.02,.28,.02,.3-.02,.02-.03,.02-.06,.02-.09,0-.04-.02-.06-.06-.08-.15-.09-.3-.18-.45-.28-.11-.07-.18-.06-.22,0,0,.02-.04,.13-.07,.31-.03,.18-.04,.29-.06,.31l.04-.02h0Z"/>
      <path class="cls-18" d="M236.02,926.94c.39,.31,.79,.61,1.19,.91,.14,.1,.25,.11,.35,.03,.02,.02,.05,.04,.07,.06-.03,.17-.06,.34-.08,.51-.06,.04-.13,.06-.21,.08-.08,.01-.14,0-.18-.02-.41-.29-.82-.58-1.22-.87-.14-.1-.26-.1-.36,0-.03-.02-.05-.04-.08-.05,.03-.19,.07-.38,.11-.57,.07-.05,.14-.08,.23-.1,.09-.02,.15-.01,.19,.02h-.01Zm-1.08,.1c-.07-.05-.14-.1-.21-.15,0,0,0-.03,.02-.07,0-.05,.03-.1,.05-.16s.04-.12,.06-.17,.03-.08,.04-.09c.02-.02,.06-.03,.12-.04,.07,0,.12,0,.16,.04,.08,.06,.16,.13,.24,.19,0,0,0,.03-.02,.07,0,.04-.03,.09-.05,.15s-.04,.11-.06,.16-.03,.08-.04,.09c-.02,.03-.07,.05-.14,.05s-.13-.02-.18-.06h0Z"/>
      <path class="cls-18" d="M237.59,925.54c.28,.29,.56,.57,.84,.85,.07,.07,.14,.11,.19,.11s.11-.02,.18-.06c.02,.02,.04,.04,.06,.07-.06,.18-.11,.36-.16,.53-.06,.03-.13,.05-.22,.05-.08,0-.14-.01-.17-.04-.06,.2-.11,.41-.16,.61h-.05s-.06,.02-.11,.03-.1,.02-.15,.02c-.13,.01-.24-.02-.33-.09-.18-.15-.36-.29-.54-.44-.02-.02-.03-.07,0-.16,.02-.09,.05-.19,.09-.31s.09-.23,.14-.34c.04-.08,.08-.16,.12-.25-.08-.07-.15-.12-.23-.13-.07-.01-.16,.01-.25,.08-.09,.06-.2,.17-.33,.32-.03-.03-.06-.06-.1-.08,.22-.51,.38-.79,.43-.84,.05-.06,.13-.09,.22-.11,.09-.01,.18,0,.28,.02,.09,.03,.17,.07,.23,.13h0l.02,.03h0Zm.18,1.57c.05,.05,.11,.07,.18,.06,.07,0,.12-.03,.16-.07,.04-.04,.06-.1,.08-.18-.23-.22-.47-.43-.7-.65-.04,.08-.06,.14-.08,.18,0,.04-.02,.09-.03,.15,0,.11,.06,.22,.18,.33,.07,.06,.14,.12,.21,.18h0Z"/>
      <path class="cls-18" d="M239.01,926.33c-.33-.35-.65-.7-.98-1.05-.06-.07-.13-.11-.21-.13s-.15,0-.2,.05c-.02-.02-.04-.05-.06-.07,0-.02,.09-.21,.24-.58,0,0,.02-.01,.04-.02,0,0,.03-.02,.04-.02,.03-.02,.08-.03,.15-.03s.13,.02,.16,.06c0-.03,.04-.09,.08-.18,.12-.26,.2-.4,.24-.43,.06-.05,.13-.07,.22-.07s.17,.02,.25,.06,.14,.08,.18,.13c.25,.35,.51,.69,.77,1.03,.09,.12,.21,.15,.34,.08,.02,.02,.04,.05,.06,.08-.08,.17-.16,.34-.23,.51-.07,.02-.14,.03-.22,.02-.08,0-.14-.03-.17-.07-.26-.32-.52-.64-.77-.96-.1-.12-.19-.21-.27-.24-.08-.04-.17-.02-.25,.05-.04,.04-.07,.09-.11,.13,.29,.35,.58,.69,.88,1.03,.11,.13,.22,.16,.33,.1,.02,.02,.04,.05,.06,.07-.06,.16-.12,.32-.18,.48-.06,.03-.14,.04-.22,.03-.08,0-.14-.02-.17-.06h0Z"/>
      <path class="cls-18" d="M240.31,924.43c-.06,.05-.15,.04-.26-.01s-.21-.14-.3-.27-.17-.25-.26-.38c0-.02,0-.06,.03-.14,.04-.07,.08-.16,.15-.26,.06-.1,.13-.2,.2-.29,.07-.1,.14-.18,.2-.25s.1-.11,.12-.12c.03-.02,.06-.02,.09,0,.04,.01,.06,.02,.08,.03,.03,.01,.06,.03,.1,.05,.04,.02,.08,.04,.12,.05,.07,.04,.13,.04,.19,0,0,.02,.03,.05,.04,.07-.02,.02-.04,.05-.06,.08s-.05,.07-.07,.11c-.13,.2-.2,.3-.21,.31-.04,.03-.12,0-.24-.09-.12-.09-.2-.12-.24-.09-.05,.03-.05,.09,0,.16,.09,.15,.19,.3,.28,.44,.06,.1,.12,.13,.16,.09,0,0,.07-.1,.19-.26,.12-.17,.2-.26,.23-.28,.07-.04,.15-.03,.26,.04s.2,.18,.28,.32,.16,.28,.23,.42c0,.02,0,.06-.04,.13s-.09,.15-.16,.24c-.06,.09-.13,.18-.2,.27-.07,.09-.13,.17-.18,.24-.05,.07-.08,.1-.1,.12-.02,.01-.04,0-.08-.01-.04-.02-.1-.05-.16-.09-.06-.04-.13-.07-.18-.09-.07-.03-.13-.03-.18,0-.02-.02-.03-.05-.05-.07,0-.02,.03-.05,.05-.08s.04-.07,.06-.11c.1-.19,.16-.3,.17-.3,.04-.03,.13,.01,.28,.11s.24,.14,.27,.12c.02-.02,.04-.04,.05-.08,0-.03,0-.07-.02-.1-.09-.15-.19-.3-.28-.45-.07-.11-.13-.14-.2-.1-.02,.02-.09,.1-.2,.25-.1,.15-.16,.24-.18,.25h0l.02,.02h0Z"/>
      <path class="cls-18" d="M258.44,950.26l.83,1.1-2.36,1.78-.38-.51,1.89-1.43-.45-.6,.46-.35h.01Z"/>
      <path class="cls-18" d="M257.62,948.19l.22,.58-.4,.25,.27,.73,.47-.06,.22,.59-3.06,.24-.23-.61,2.51-1.72h0Zm-.6,1.09l-1.12,.69h0l1.32-.16-.2-.53Z"/>
      <path class="cls-18" d="M256.45,946.12c.13,0,.29,.03,.49,.09s.38,.17,.53,.34c.16,.17,.24,.37,.24,.61,0,.72-.52,1.09-1.56,1.09-.49,0-.87-.09-1.13-.28-.26-.19-.39-.45-.39-.8,0-.5,.24-.8,.73-.91l.25,.56c-.26,.01-.4,.13-.4,.36,0,.1,.03,.18,.09,.24s.15,.1,.26,.12,.3,.03,.57,.03c.32,0,.53-.01,.65-.03s.21-.06,.26-.13c.06-.06,.09-.15,.09-.25,0-.24-.2-.36-.59-.38v.39h-.57v-1.06h.48Z"/>
      <path class="cls-18" d="M258.2,944.49l-.44,1.41-2.82-.88,.41-1.32,.54,.17-.22,.71,.57,.18,.19-.61,.52,.16-.19,.61,.62,.2,.25-.8,.55,.17h.02Z"/>
      <path class="cls-18" d="M259.26,942.64l-.33,.56-1.52-.29h0l1.26,.75-.32,.55-2.55-1.49,.42-.72c.08-.14,.2-.27,.34-.38,.14-.11,.29-.16,.45-.15,.16,.01,.3,.05,.43,.13,.16,.09,.27,.2,.33,.33s.09,.29,.09,.49l1.42,.22h-.02Zm-2,.19c.1-.18,.14-.31,.09-.4-.04-.09-.12-.16-.22-.23-.24-.14-.42-.11-.54,.08l-.07,.11,.74,.43h0Z"/>
      <path class="cls-18" d="M260.14,939.64c.18-.05,.34-.06,.46-.01s.25,.13,.37,.28c.14,.16,.19,.34,.17,.55-.02,.21-.11,.38-.28,.52l-.8,.69-1.92-2.24,.69-.59c.19-.17,.4-.25,.61-.25s.39,.08,.54,.25c.11,.13,.18,.26,.21,.39,.02,.13,0,.27-.05,.42h0Zm.1,1.22l.14-.12c.08-.07,.12-.15,.13-.24,0-.09-.04-.18-.11-.27-.17-.2-.35-.21-.56-.04l-.1,.08,.51,.59h-.01Zm-.8-.93l.1-.08c.08-.07,.12-.15,.13-.25,0-.09-.03-.18-.11-.27-.17-.2-.36-.21-.56-.04l-.06,.05,.5,.59h0Z"/>
      <path class="cls-18" d="M263.05,939.78l-1.35,.59-1.19-2.7,1.26-.56,.23,.52-.68,.3,.24,.55,.59-.26,.22,.5-.59,.26,.26,.6,.77-.34,.23,.53h0Z"/>
      <path class="cls-18" d="M264.74,939.55l-1.46,.19-.37-2.93,1.37-.17,.07,.57-.74,.09,.08,.6,.64-.08,.07,.54-.64,.08,.08,.65,.83-.11,.07,.58h0Z"/>
      <path class="cls-18" d="M266.78,939.87l-.64-.11-.26-1.53h0l-.25,1.44-.63-.11,.5-2.91,.82,.14c.16,.03,.32,.09,.47,.18,.15,.09,.25,.21,.29,.36,.05,.15,.06,.3,.03,.45-.03,.18-.1,.32-.19,.42-.1,.1-.24,.19-.43,.25l.29,1.41h0Zm-.88-1.78c.2,.04,.34,.02,.41-.05s.11-.17,.13-.29c.05-.28-.04-.44-.27-.48l-.13-.02-.14,.84h0Z"/>
      <path class="cls-18" d="M274.08,963.04l-1.37-.19,.4-2.93,.63,.09-.32,2.35,.74,.1-.08,.58h0Z"/>
      <path class="cls-18" d="M277.08,962.71l-.62,.1-.17-.44-.77,.13-.03,.47-.62,.1,.34-3.05,.64-.11,1.22,2.79h0Zm-.96-.77l-.47-1.23h0l-.08,1.33,.56-.09h-.01Z"/>
      <path class="cls-18" d="M279.17,960.28c.06,.11,.12,.26,.17,.47,.05,.2,.04,.41-.03,.63-.07,.22-.21,.39-.41,.51-.63,.36-1.2,.09-1.72-.81-.25-.43-.35-.8-.32-1.12s.2-.57,.5-.74c.43-.25,.82-.19,1.15,.18l-.36,.49c-.14-.22-.31-.28-.51-.16-.09,.05-.14,.12-.16,.2-.02,.09-.01,.18,.02,.28,.04,.11,.13,.27,.26,.51,.16,.27,.27,.46,.35,.55,.08,.09,.16,.15,.24,.17,.08,.02,.17,0,.26-.05,.2-.12,.22-.35,.03-.7l-.34,.2-.29-.5,.92-.53,.24,.42h0Z"/>
      <path class="cls-18" d="M281.53,959.58l-1.03,1.05-2.11-2.06,.96-.99,.41,.4-.52,.53,.43,.42,.45-.46,.39,.38-.45,.46,.47,.46,.59-.6,.42,.41h-.01Z"/>
      <path class="cls-18" d="M283.05,957.43l-.36,.54-1.5-.39h0l1.21,.82-.36,.53-2.45-1.65,.46-.69c.09-.14,.21-.26,.36-.36s.3-.14,.45-.12c.16,.02,.3,.07,.42,.16,.15,.1,.25,.22,.31,.35,.05,.13,.07,.3,.05,.49l1.4,.31h.01Zm-2,.08c.12-.17,.16-.3,.12-.39s-.11-.17-.21-.24c-.23-.16-.42-.14-.54,.05l-.07,.11,.71,.48h0Z"/>
      <path class="cls-18" d="M282.93,953.79c.12-.14,.25-.23,.38-.26s.28-.02,.46,.03c.2,.06,.35,.18,.44,.37s.11,.38,.05,.59l-.3,1.01-2.83-.84,.26-.87c.07-.24,.2-.43,.38-.54,.18-.12,.38-.14,.59-.08,.17,.05,.3,.12,.38,.22,.09,.09,.15,.22,.19,.38h0Zm-.42,.62l.04-.13c.03-.1,.02-.2-.03-.28s-.13-.14-.24-.17c-.25-.08-.42,.02-.49,.27l-.02,.08,.74,.22h0Zm1.17,.37l.05-.18c.03-.11,.02-.2-.03-.27-.05-.08-.13-.13-.24-.17-.25-.07-.41,.02-.49,.27l-.04,.13,.75,.22h0Z"/>
      <path class="cls-18" d="M284.59,951.27v1.47h-2.95v-1.37h.56v.75h.6v-.64h.55v.64h.66v-.84h.58Z"/>
      <path class="cls-18" d="M283.97,948.84l.44,1.41-2.82,.88-.41-1.32,.54-.17,.22,.71,.57-.18-.19-.61,.52-.16,.19,.61,.62-.19-.25-.8,.56-.17h.01Z"/>
      <path class="cls-18" d="M282.48,946.4l.36,.54-.92,1.24h0l1.21-.81,.36,.53-2.45,1.65-.46-.69c-.09-.14-.16-.29-.2-.47-.04-.17-.02-.33,.06-.47,.08-.14,.18-.25,.3-.33,.15-.1,.3-.15,.44-.15s.3,.04,.48,.13l.81-1.18h.01Zm-.69,1.9c-.12-.17-.22-.26-.32-.26s-.2,.03-.3,.1c-.23,.16-.29,.33-.16,.52l.07,.11,.71-.48h0Z"/>
    </g>
    <g id="Capa_1-2-2" data-name="Capa 1-2-2">
      <g class="cls-7">
        <g>
          <rect class="cls-4" x="87.23" y="175.56" width="444.82" height="334.94"/>
          <polygon class="cls-8" points="250.06 175.57 87.23 513.71 522.78 513.71 386.42 174.23 250.06 175.57"/>
          <polygon class="cls-20" points="72.33 519.67 551.9 519.67 534.03 516.69 82.26 513.71 72.33 519.67"/>
          <rect class="cls-14" x="75.78" y="171.8" width="460.38" height="356.34"/>
          <path class="cls-2" d="M46.1,152.66v18.61H575.89l-.34-20.04s-527.36,0-529.45,1.43h0Z"/>
          <line class="cls-14" x1="535.67" y1="230.88" x2="85.69" y2="230.88"/>
        </g>
      </g>
    </g>
    <g id="Capa_1-2-3" data-name="Capa 1-2-3">
      <g class="cls-3">
        <g>
          <polygon class="cls-16" points="126.14 695.24 120.87 695.24 133.33 530.26 138.6 530.26 126.14 695.24"/>
          <polygon class="cls-16" points="222.06 695.24 227.34 695.24 214.87 530.26 209.6 530.26 222.06 695.24"/>
          <rect class="cls-16" x="132.31" y="583.23" width="83.03" height="4.41"/>
          <rect class="cls-16" x="127.56" y="648.58" width="92.54" height="4.41"/>
          <rect class="cls-16" x="125.93" y="519.91" width="95.61" height="10.09" rx="3.84" ry="3.84"/>
          <path class="cls-16" d="M131.83,526.53h83.8c1.57,0,2.84,1.27,2.84,2.84v1.78c0,1.57-1.27,2.84-2.84,2.84h-83.8c-1.57,0-2.84-1.27-2.84-2.84v-1.78c0-1.57,1.27-2.84,2.84-2.84Z"/>
          <rect class="cls-16" x="125.93" y="519.91" width="95.61" height="10.09" rx="3.84" ry="3.84"/>
          <polygon class="cls-16" points="419.1 695.24 413.82 695.24 426.28 530.26 431.56 530.26 419.1 695.24"/>
          <polygon class="cls-16" points="515.02 695.24 520.29 695.24 507.83 530.26 502.56 530.26 515.02 695.24"/>
          <rect class="cls-16" x="425.27" y="583.23" width="83.03" height="4.41"/>
          <rect class="cls-16" x="420.52" y="648.58" width="92.54" height="4.41"/>
          <rect class="cls-16" x="418.88" y="519.91" width="95.61" height="10.09" rx="3.84" ry="3.84"/>
          <path class="cls-16" d="M424.79,526.53h83.8c1.57,0,2.84,1.27,2.84,2.84v1.78c0,1.57-1.27,2.84-2.84,2.84h-83.8c-1.57,0-2.84-1.27-2.84-2.84v-1.78c0-1.57,1.27-2.84,2.84-2.84h0Z"/>
          <rect class="cls-16" x="418.88" y="519.91" width="95.61" height="10.09" rx="3.84" ry="3.84"/>
          <path class="cls-16" d="M334.9,651.63v-193.5h-8.96v193.5c0,16.71-11.24,31.33-27.39,35.61l-18.49,4.91v3.48h100.73v-3.48l-18.49-4.91c-16.15-4.29-27.39-18.91-27.39-35.61h-.01Z"/>
          <rect class="cls-16" x="232.07" y="454.41" width="196.71" height="12.86"/>
          <path class="cls-16" d="M197.12,290.87c-1.86-.2-3.71-.48-5.53-.91-2.06-.49-4.7-1-6.27-.9-3.31,.21-8.74,1.76-11.05,5.73-2.88,4.94-10.35,3.07-4.24,24.26,6.92,23.99,19.86,18.33,20.1,17.84,.24-.48,8.63-18.23,8.63-18.23,0,0,6.09,8.07,6.02,7.74-.07-.32,14.66-33.13-7.66-35.53Z"/>
          <path class="cls-16" d="M284.9,366.07c.14-1.58-7.2-.96-7.95-2.32-.75-1.37,8.49-3.83,8.49-5.2,0-2.52-10.28,2.08-10.35,.92-.07-1.16,10.31-6.43,8.63-8.03-1.67-1.6-10.19,6.59-10.82,5.37-.63-1.21,8.6-6.9,7.71-9.68-.48-1.49-14.55,11.72-16.65,11.38-2.11-.34,.03-8.44-1.75-9.11-1.78-.67-2.18,15.92-3.09,16.7s-19.82,19.01-27.17,23.02c-1.62-2.39-12.04-14.61-13.52-16.89-3.62,4.26-8.56,6.25-12.39,10.27,5.4,7.43,21.92,24.91,24.48,25.36,7.81,1.38,29.18-27.95,33.61-33.16,4.43-5.22,7.85-4.76,11.2-6.9,3.35-2.14,9.44-.14,9.57-1.71v-.02h0Z"/>
          <path class="cls-16" d="M212.79,396.31s-23.56-24.16-27.22-34.04,9.02-14.71,18.27-13.49c9.24,1.22,24.84,31.48,24.84,31.48l-15.9,16.05h0Z"/>
          <path class="cls-16" d="M222.88,682.81s-.8,14.36-.8,14.39c-.29,1.82-1.45,6.33-1.45,7.98,0,6.22,27.2-5.28,21.1-8.04-.55-.25-3.44-2.14-3.62-4.26-.28-3.26-.99-9.87-.99-9.87l-14.24-.2h0Z"/>
          <path class="cls-16" d="M241.67,697.08s-6.39,1.9-9.66,2.38-7.58-3.53-9.9-2.45c-2.55,1.19-2.29,12.93-2.29,12.93,0,0,34.09,2.05,43.72-1.11,3.81-1.25-8.82-7.31-21.88-11.74h0Z"/>
          <path class="cls-16" d="M162.95,684.19s-.8,14.36-.8,14.39c-.29,1.82-1.45,6.33-1.45,7.98,0,6.22,27.2-5.28,21.1-8.04-.55-.25-4.3-3.55-4.48-5.67-.28-3.26-.13-8.46-.13-8.46l-14.24-.2h0Z"/>
          <path class="cls-16" d="M181.74,698.46s-6.39,1.9-9.66,2.38-7.58-3.53-9.9-2.45c-2.55,1.19-2.65,11.92-2.65,11.92,0,0,36.44,2.69,45.01,.16,3.85-1.14-9.76-7.58-22.81-12.01h0Z"/>
          <path class="cls-16" d="M206.06,476.96l11.5,5.05,24.19,117.62-.98,88.18-19.39,.46s-9.02-77.13-9.02-83.11-41.78-104.61-41.78-104.61l35.48-23.59h0Z"/>
          <path class="cls-16" d="M197.18,483.43s-8.47,90.63-8.47,105.9-6.87,100.77-6.87,100.77l-19.44-.11s-1.4-26.06-3.49-64.4c-.33-6,.42-18.12,0-24.34-3.02-44.71-6.48-119.99-4.8-121.77,12.73-13.41,43.07,3.94,43.07,3.94h0Z"/>
          <path class="cls-16" d="M178.18,347.47s-15.23,1.62-18.98,3.94c-4.22,2.62-6.41,13.55-6.41,13.55,0,0,2.41,56.85,1.29,70.14-.86,10.28-1.3,52.34-1.3,52.34,0,0,49.31,7.44,68.74,1.5,0,0-3.35-30.53-2.68-38.41,.68-7.88-.26-80.18-1.45-85.32-1.07-4.67-3.05-13.06-11.94-15.85s-27.29-1.9-27.29-1.9h.02Z"/>
          <path class="cls-16" d="M182.26,332l-4.94,18.75s9.01,11.28,16.39,9.93c6.19-1.13,5.31-9.08,5.31-9.08,0,0-2.37-11.05-.92-16.35,1.45-5.3-15.84-3.24-15.84-3.24h0Z"/>
          <path class="cls-16" d="M198.1,335.24c1.45-5.3-15.84-3.24-15.84-3.24l-.41,1.55c.41,1.1,.94,2.05,1.61,2.81,3.49,3.89,9.24,6.54,14.35,7.14-.26-2.95-.31-6.09,.28-8.26h0Z"/>
          <path class="cls-16" d="M479.25,677.43s4.97,4.85,5.09,6.63c.11,1.78,.44,20.86-1.59,22.64s-8,3.04-6.08,5.05c1.45,1.51,12.6,1.19,19.99,.78,2.16-.12,4.86-17.32,5.72-19.85,1.24-3.67,4.26-11.94,3.13-14.5-.55-1.25-3.18-3.81-6.89-6.2-3.9-2.52-7.63-8.12-7.63-8.12l-11.74,13.58h0Z"/>
          <path class="cls-16" d="M427.72,688.73s4.45,12.57,4.46,12.6c.33,1.99,1.63,6.91,1.63,8.72,0,6.8-30.69-5.77-23.81-8.79,.62-.27,2.58-2.45,2.78-4.77,.32-3.57-2.59-8.04-2.59-8.04l17.52,.27h.01Z"/>
          <path class="cls-16" d="M379.58,454.65s-2.24,22.54-2.24,22.87c0,36.45-7.23,107.66-5.85,114.51,3.35,16.72,39.45,101.99,39.45,101.99l19.51-2.33-25.42-102.1,9.36-41.1,13.24-81.23-48.04-12.62h0Z"/>
          <path class="cls-16" d="M445.06,474.58l3.7,21.36,10.02,87.9,38.14,85.91s-5.37,12.5-13.28,14.26l-60.71-88.21-37.71-112.87,1.32-25.08,58.52,16.72h0Z"/>
          <path class="cls-16" d="M498.38,671.85s-11.46,32.27-15.95,33.83c-1.19,.41-6.91,1.46-7.99,3.99-.33,.76,0,3.3,0,3.3h23.9s3.02-14.22,4.22-20.46c0,0,6.33-15.26,5.62-16.65-.7-1.39-9.8-4.01-9.8-4.01h0Z"/>
          <path class="cls-16" d="M435.56,712.3l-3.51-11.1s-7.38,3.12-11.07,2.6-10.89-2.6-10.89-2.6c-14.73,4.85-26.8,7.2-24.6,11.1h50.07Z"/>
          <path class="cls-16" d="M283.46,395.95l2.01,1.21s1.95,1.63,2.46,1.75,14.26-.18,14.26-.18c0,0,.05,4.57-.04,4.57s-7.23,5.82-7.23,5.82l-1.52,.7-9.37-2.8-8.56-1.07s-6.07-.7-6.07-.85,.18-4.94,.41-5.18c.24-.24,3.67-3.76,3.67-3.76,0,0,2.64-.59,2.72-.59s2.64-.5,2.72-.53c.09-.03,4.08,.59,4.08,.59l.44,.33h.02Z"/>
          <path class="cls-16" d="M263.12,406.34s2.78,.36,4.26,.95c1.48,.59,13.2,9.47,13.2,9.47,0,0,1.57,.86,2.4,.18s.77-1.48,.77-1.48c0,0,1.39,.77,2.34,.24,.95-.53,.92-1.42,.8-1.86,0,0,1.36,.38,2.16-.3,.8-.68,.38-2.43,.38-2.43,0,0,2.52,1.54,3.49,.5,.98-1.04,.56-2.13-.41-2.96-.98-.83-6.78-4.68-7.46-5.12s-2.61-2.49-3.2-2.75c-.59-.27-2.04-1.07-2.04-1.07,0,0-2.43,.27-2.58,.35-.15,.09-.83,1.78-2.04,2.22-1.21,.44-2.64-.18-2.69-.36-.06-.18-.09-.56-.03-.92,.06-.36,.95-1.66,1.15-2.69,.21-1.04,.47-1.33,.86-1.57,.39-.24,2.49-.86,3.52-1.27,1.04-.41,5.39,.8,5.39,.8l2.07,.89s-.38-1.53-1.69-1.77c-1.3-.24-2.93-.59-3.85-.68s-3.05,.56-4.03,.62-2.81,.21-3.91,.62-7.73,0-8.14-.06c0,0-2.87,7.78-.74,10.45h.02Z"/>
          <path class="cls-16" d="M265.38,395.96c-2.79-.06-35-.33-47.1-.44-2.95-.02-5.82-1.03-8.14-2.86l-26.92-21.17-16.34,17.12,32.88,22.72c2.23,1.61,14.78,3.01,17.52,2.74,12.71-1.29,45.02-7.76,48.26-7.32l-.17-10.8h.01Z"/>
          <path class="cls-16" d="M289.72,398.92c2.79-.06,36.72-.56,48.82-.66,2.95-.02,5.82-1.03,8.14-2.86l26.92-21.17,11.79,13.58-33.42,24.13c-2.24,1.61-4.98,2.35-7.72,2.07-12.71-1.29-47.52-4.69-50.76-4.25l-3.77-10.85h0Z"/>
          <path class="cls-16" d="M202.31,382.48s-22.53-23.69-30.68-29.67-18.49-.93-19.01,9.41c-.76,15.06,29.12,42.02,29.12,42.02l20.58-21.76h-.01Z"/>
          <path class="cls-16" d="M360.22,382.48s22.53-23.69,30.68-29.67,24.54-.9,23.24,9.37c-1.33,10.48-38.14,37-38.14,37l-15.79-16.7h.01Z"/>
          <path class="cls-16" d="M386.38,373.91c-.53,3.63-10.17,102.27-10.17,102.27,45.69,22.06,70.9,3.93,70.9,3.93,0,0-1.5-69.27,.3-78.7,1.19-6.24,.08-48.28-3.96-49.44-5.19-1.49-8.56-2.48-15.04-3.15-5.54-.57-27.04-.91-30.89,.38,0,0-8.92,9.45-11.13,24.7h0Z"/>
          <path class="cls-16" d="M422.33,328.56l3.36,20.54s-12.31,26.14-19.66,23.94c-6.17-1.85-2.37-24.3-2.37-24.3,0,0,3.36-12.06,2.35-18.09-1.01-6.03,16.32-2.1,16.32-2.1h0Z"/>
          <path class="cls-16" d="M406.01,330.66c-1.01-6.03,16.32-2.1,16.32-2.1l.28,1.77c-.51,1.18-1.13,2.19-1.88,2.97-3.87,3.99-9.92,6.39-15.15,6.57,.52-3.25,.84-6.74,.43-9.21h0Z"/>
          <path class="cls-16" d="M425.17,298.41c.49-.17,3.92,24.27-2.59,31-6.52,6.73-19.22,8.93-23.78,3.63-5.04-5.86-4.79-32.13,5.35-39.05,10.14-6.92,21.02,4.42,21.02,4.42h0Z"/>
          <path class="cls-16" d="M422.78,289c3.56,.4,8.39,2.29,13.38,10.21,6.14,9.74,1.61,20.54-5.54,25.84s-7.02,11.36-7.02,11.36l-1.16-3.11c-.83-2.4-1.17-4.94-.89-7.45,.17-1.51,.5-3.14,1.16-4.48,1.72-3.54-3.69-5.89-5.21-8.83-1.17-2.27-1.22-7.45-3.07-11.2l-2.2-2.86s-5.07-3.78-10.03-2.72c-4.96,1.07,1.13-22.14,20.58-6.76h0Z"/>
          <path class="cls-16" d="M417.83,316.88c-.05,2.98,1.36,5.42,3.16,5.45,1.8,.03,3.29-2.36,3.35-5.35,.05-2.98-1.36-5.42-3.16-5.45-1.8-.03-3.29,2.36-3.35,5.35h0Z"/>
          <path class="cls-16" d="M398.67,322.5l10.77,1.1s-.66,4.06-5.41,3.72c-5.79-.42-5.36-4.81-5.36-4.81h0Z"/>
          <path class="cls-16" d="M492.04,483.6c.03-.22,.03-.45,.01-.67-.71-7.22-6.71-67.85-7.72-70.42-.91-2.33-27.81-40.78-27.81-40.78l-13.22,18,25.87,34.49c.58,2.19,9.91,43.12,9.91,43.12,0,0,1.91,7.46,2.77,11.93-.39,1.08-.77,2.09-1.11,2.93-.86,1.78-1.87,3.25-2.79,4.48-1.16,1.55-3.07,4.93-3.3,5.84-.27,1.05-.77,3.24-1.05,4.56s-.66,2.86-.73,3.58c-.04,.44-.49,1.31-.84,1.92-.52,.92,.36,2,1.36,1.66,.94-.31,1.67-1.53,2.12-2.29,1.27-2.14,1.95-6.04,2.27-5.84,.32,.21,1.43,6.83,1.61,7.58s1.51,8.44,2.27,9.85c.75,1.41,1.75,1.17,2.02,.29,.23-.76-.83-11.52-.83-11.52,0,0-.13-1.37,.47-.94s1.58,10.2,2,11.63c.42,1.43,1.37,2.19,2.18,1.04,.98-1.4-.71-11.76-.71-11.76,0,0-.19-1.3,.37-1.18s1.25,8.45,1.69,9.17c.43,.72,1.53,.98,2.05-.22,.61-1.41-.98-10.65-.98-10.65,0,0,.08-.74,.43-.49,.35,.24,1.45,7.3,2.17,7.95,.6,.55,1.11,.02,1.11,.02,1.32-.9-.7-7.61-.68-10.95,.02-3.34-1.53-7.09-1.07-11.06,.03-.25,.11-.86,.16-1.25h0v-.02h0Z"/>
          <path class="cls-16" d="M477.54,396.08l-22.98,15.42s-12.95-19.26-19.9-26.12c-8.71-8.59,3.17-34.9,8.78-33.42,12.55,3.33,34.09,44.12,34.09,44.12h.01Z"/>
          <path class="cls-16" d="M187.6,299.83c6.88-2.73,14.55,1.59,15.95,8.77,.61,3.12,1.21,7.05,1.49,11.37,.67,10.38-4.22,20.73-8.93,20.94-4.7,.21-18.02-5.93-19.17-20.65-.71-9.09,3.44-17.57,10.66-20.43h0Z"/>
          <path class="cls-16" d="M180.46,321.27c.11,2.29-1.32,4.22-3.19,4.3s-3.47-1.7-3.58-4c-.11-2.29,1.32-4.22,3.19-4.3s3.47,1.7,3.58,4Z"/>
          <path class="cls-16" d="M176.89,317.27s5.78,.15,7.03-3.82,6.84-13.17,16.77-12.07c9.93,1.11-9.82-5.86-10.56-5.7-.74,.16-9.62,2.06-9.62,2.06,0,0-5.59,7.13-5.7,7.8-.11,.67-.59,7.84-.59,7.84l2.67,3.88h0Z"/>
          <path class="cls-16" d="M190.16,329.75l10.39-.3s-.12,3.96-4.68,4.23c-5.56,.32-5.7-3.93-5.7-3.93h-.01Z"/>
        </g>
      </g>
    </g>
  </g>
</svg>