<?xml version="1.0" encoding="utf-8"?>
<!-- Generator: Adobe Illustrator 26.3.0, SVG Export Plug-In . SVG Version: 6.00 Build 0)  -->
<svg version="1.1" id="Capa_1" xmlns="http://www.w3.org/2000/svg" xmlns:xlink="http://www.w3.org/1999/xlink" x="0px" y="0px"
	 viewBox="0 0 1125 2436" style="enable-background:new 0 0 1125 2436;" xml:space="preserve">
<style type="text/css">
	.st0{fill:#190A00;}
	.st1{fill:#2B1A00;}
	.st2{fill:#3D2C2A;}
	.st3{fill:#231303;}
	.st4{fill:#323847;}
	.st5{fill:#6D4845;}
	.st6{fill:#444E75;}
	.st7{fill:#276757;}
	.st8{fill:#1F4F41;}
	.st9{fill:#34846D;}
	.st10{fill:#40291D;}
	.st11{fill:#DD9C19;}
	.st12{fill:#F8E895;}
	.st13{fill:#0F2B0F;}
	.st14{fill:#04071D;}
</style>
<rect x="-1" y="1332" class="st0" width="1126" height="881"/>
<g>
	<polygon class="st1" points="47,1358.9 47,1359.8 1125,1359.8 1125,1317 1125,209 1125,200 47,200 	"/>
	<path class="st1" d="M711.3,293.4c-0.3-0.2-0.6-0.3-0.9-0.5c-2.2,3.6-4.6,6.8-7.3,9.6C706.2,300,708.9,297,711.3,293.4z"/>
	<path class="st0" d="M281.4,2176L281.4,2176l0.7-18.2c0-0.1,0-0.2,0-0.3l-0.7,18.1L281.4,2176z"/>
	<path class="st0" d="M121.9,2156.1c0-0.1,0.1-0.2,0-0.3c0,0,0,0,0,0c0,0.1-0.1,0.2-0.2,0.3C121.8,2156.1,121.9,2156.1,121.9,2156.1
		z"/>
	<path class="st0" d="M114.4,2174.8c0-0.2,0-0.3,0-0.5c0,0,0-0.1,0-0.1l0,0.2c0,0,0,0,0,0l0,0c0,0.2,0,0.5,0,0.7h0.1c0,0,0,0,0,0
		C114.5,2175,114.4,2174.9,114.4,2174.8z"/>
	<path class="st1" d="M421.3,391.4c-24.7-1.5-48-11.5-71.5-19.5c-36.5-12.4-74.4-20.2-112.7-23c-26.2-1.9-62.5,9.5-59.1,36.7
		c7.7-15.5,34.9-22,55.7-20.6c37.3,2.5,74.3,9.5,109.9,20.6c22.9,7.2,45.7,16.2,69.7,17.5c24,1.3,50.4-6.9,62.9-26.9
		c-0.3-0.6-0.6-1.2-0.9-1.8C461,387.3,440.4,392.5,421.3,391.4z"/>
	<path class="st1" d="M666.7,294.9c-85.5,1.2-171.1,2.4-256.6,3.6c-13.6,0.2-32.6,7.8-28.1,21.3c0.5,1.5,1.2,2.8,2.2,3.9
		c5.5-2.5,12.3-3.9,18.2-4c83.4-1.1,166.8-2.1,250.2-3.2v0c18.6-0.2,37.4-2.8,50.6-13.9c2.6-2.8,5.1-5.9,7.3-9.6
		c-2.6-1.3-5.4-2.6-8.3-3.7C691.2,293.4,678.9,294.7,666.7,294.9L666.7,294.9z"/>
	<path class="st1" d="M166.1,410.5c-23.6,2.3-47.2,4.6-70.7,6.9c0.3,3,0.6,6,0.8,9c22.8-2,45.6-4.1,68.4-6.1
		c4.5-0.4,9.6-1.1,12.2-4.7c2-2.7,1.8-6,1.2-9.3C175.1,409.4,170.3,410.1,166.1,410.5z"/>
	<path class="st1" d="M95.4,466.6c-8.1,0.2-12.6,0.3-12.9,0.5v36.7H83v-32.7c0.3-0.2,4.6-0.3,12.6-0.5c0.7-6,1.1-11.9,1.2-17.9
		c0.1-4,0.1-8-0.1-12c0,2,0,3.9,0,5.9C96.5,453.3,96.1,460,95.4,466.6z"/>
	<path class="st1" d="M84,518.7c1.8-4.8,3.5-9.7,4.9-14.6h-0.4C87.1,509,85.6,513.9,84,518.7z"/>
	<path class="st0" d="M604,2145.3c-2.4-9.3-3-18.6-2.1-27.8c-0.9,9.3-0.4,18.7,2,28.1c0.4,1.4,0.8,2.8,1.2,4.2
		c-0.1,0-0.3,0.1-0.4,0.1c1.2,3,2.5,5.9,4,8.7c-1.4-2.9-2.6-6-3.6-9.1C604.8,2148.1,604.4,2146.7,604,2145.3z"/>
	<path class="st0" d="M819.8,1995.6c-1.6-0.8-3.1-1.7-4.6-2.6c1.7,1.2,3.6,2.3,5.6,3.3c-0.2,0.2-0.4,0.4-0.6,0.6
		c10.8,5.3,24.7,7.4,36.6,10.7c24.1,6.6,44.1,22.5,57.7,42.8c0.8,0.8,1.7,1.7,2.5,2.6c-13.6-21.4-34.2-38.3-59.2-45.1
		c-12.1-3.3-26.1-5.5-37-10.9c21.3-19.9,37.7-44.7,47.2-71.8c-0.5,0.2-1.1,0.3-1.6,0.5C856.8,1951.9,840.7,1976.1,819.8,1995.6z"/>
	<path class="st0" d="M621.4,2175.2c0-0.1-0.1-0.2-0.1-0.3C621.4,2175,621.4,2175.1,621.4,2175.2L621.4,2175.2z"/>
	<path class="st0" d="M614.7,2146.3c0-0.8-0.1-1.5-0.1-2.3C614.6,2144.8,614.6,2145.6,614.7,2146.3
		C614.7,2146.3,614.7,2146.3,614.7,2146.3z"/>
	<path class="st0" d="M559.8,2132c2.6-2.2,4.1-5.2,4.3-8.3c0.2-2.2,0.7-4.4,1.6-6.5c0.8-1.8,0.6-2.4,1-3.2l0,0
		c0.3-0.4,0.7-0.8,1.5-1.5l0,0l8.4-6.8c0,0,0,0,0-0.1c1.8-1.5,3.4-3.2,4.8-5l16.8-23.2l-0.1-0.1l0.1-0.1l1.3-1.5
		c0.5-0.6,1.4-0.9,2.3-0.8c0.8,0.1,1.6-0.1,2.2-0.6c0.6-0.5,0.9-1.2,1-1.9c0-0.6-0.1-1.1-0.4-1.6l2.1-2.9c0.5-0.6,1.2-0.9,2-0.9
		c0.5,0,1-0.1,1.5-0.4c-0.2,0.3-0.1,0.6,0.1,0.8c0.4,0.2,1,0.3,1.7-0.2l0.5-0.4l0,0c0.8-0.6,1.2-1.4,1.5-2.3c0.4-1.4,0.1-3-1-4.2
		c0,0,0,0,0,0c-0.2,0.9-0.7,1.7-1.5,2.3l0,0l-0.5,0.4c-0.6,0.5-1.2,0.4-1.7,0.2c-0.3-0.2-0.4-0.5-0.1-0.8c-0.5,0.3-1,0.4-1.5,0.4
		c-0.8-0.1-1.5,0.2-2,0.8l-2.1,2.8c0.3,0.5,0.4,1,0.4,1.6c0,0.7-0.4,1.4-1,1.9c-0.6,0.6-1.5,0.7-2.2,0.6c-0.9-0.1-1.7,0.1-2.3,0.8
		l-1.3,1.5l-0.1,0.1l0.1,0.1l-16.8,23.2c-1.3,1.9-3,3.6-4.8,5c0,0,0,0,0,0.1l-8.4,6.8l0,0c-0.8,0.7-1.2,1.1-1.5,1.5l0,0
		c-0.4,0.7-0.3,1.4-1,3.2c-0.9,2.1-1.4,4.2-1.6,6.5c-0.3,3.1-1.7,6.1-4.3,8.3l0,0l-38.7,32.8c2.3-0.2,4.6-0.5,6.9-0.8L559.8,2132
		L559.8,2132z"/>
	<path class="st0" d="M486.1,2163l-15.6-17.4c-1-1.1-1.6-2.2-2.1-3.2c0.1,0.8,0.2,1.7,0.4,2.5c0,0.3,0.1,0.6,0.2,1
		c0.5,1.3,1.3,2.6,2.5,4l11.9,13.2c0.6,0,1.2,0,1.8-0.1l5.1,5.6c2.8,3.1,6.7,4.5,10.6,4.2c-3.6,0-7.1-1.4-9.6-4.2L486.1,2163z"/>
	<path class="st0" d="M392.2,2146.6c-0.1-0.3-0.3-0.6-0.7-0.8l-0.6-0.3l0,0c0,0,0,0,0,0C391.1,2146,391.6,2146.4,392.2,2146.6z"/>
	<polygon class="st0" points="391.3,2172.8 393.7,2175.2 394,2175.2 391.4,2172.6 	"/>
	<path class="st0" d="M844.7,1931.1c4-7.6,7.4-15.5,10.3-23.5c0,0-0.1,0-0.1,0c-2.9,8.1-6.3,16-10.3,23.6
		C844.6,1931.2,844.7,1931.2,844.7,1931.1z"/>
	<path class="st0" d="M383.7,2166.7l-2.6-2.6c-0.6-0.5-1.4-0.8-2.1-0.6c-0.3,0.1-0.6,0.1-0.8,0.1c0,0.2,0,0.4-0.2,0.5
		c-0.4,0.3-1,0.5-1.8,0.1l0,0l-0.5-0.3c-0.9-0.6-1.6-1.3-2-2.2c-0.2-0.4-0.3-0.9-0.4-1.3c0,0,0,0-0.1,0c0.1,0.6,0.2,1.1,0.5,1.7
		c0.4,0.9,1.1,1.6,2,2.2l0.5,0.3l0,0c0.8,0.5,1.4,0.2,1.8-0.1c0.2-0.1,0.2-0.3,0.2-0.5c0.3,0,0.6,0,0.8-0.1c0.8-0.2,1.6,0,2.1,0.6
		l2.5,2.5C383.6,2166.9,383.6,2166.8,383.7,2166.7L383.7,2166.7z"/>
	<path class="st0" d="M919.3,2056c2.2,3.7,4.1,7.5,5.8,11.4c17.9,26.7,24.6,61.1,14.4,91.6c-1.2,3.5-2.5,6.8-4,10c0,0-0.1,0-0.1,0
		c-1.3,2.6-2.7,5.1-4.2,7.5H931c-2.4,3.9-5,7.5-7.9,10.9h1.2c3.1-3.7,6-7.6,8.6-11.8c2-3.3,3.9-6.8,5.5-10.4
		c0.8-0.1,1.5-0.2,2.3-0.3c0.7-1.8,1.4-3.7,2.1-5.7C954.5,2124.1,943.8,2083.8,919.3,2056z"/>
	<path class="st0" d="M467.1,2171.3c-1,0-2,0.1-3,0.3c-1.2,0.3-2.4,0.4-3.6,0.5c1.5-0.1,3.1-0.2,4.6-0.5
		C465.7,2171.5,466.4,2171.4,467.1,2171.3z"/>
	<path class="st0" d="M846.3,2096.3l1.6,5.9c11.1,10.8,22.1,21.6,33.2,32.4c3.9,3.8,8,9,8.9,14c-0.8-5.1-4.9-10.4-8.9-14.3
		c-11-10.8-22.1-21.6-33.2-32.4l-1.6-5.8c3.3,31.6-27.6,55.5-55.1,72.8c0.2,0,0.3,0.1,0.5,0.1C819,2151.5,849.6,2127.7,846.3,2096.3
		z"/>
	<path class="st0" d="M391.4,2172.2l-1.3-1.1c-0.4-0.3-0.9-0.5-1.4-0.6c-0.4,0-0.8,0-1.2,0.1c-0.6,0.2-1.3,0.2-2-0.1
		c-0.2-0.1-0.5-0.2-0.7-0.3c-0.9-0.5-1.4-1.4-1.4-2.3c-0.1,1,0.4,2.1,1.4,2.7c0.2,0.1,0.5,0.2,0.7,0.3c0.6,0.2,1.3,0.2,2,0.1
		c0.4-0.1,0.8-0.2,1.2-0.1c0.5,0.1,1,0.2,1.4,0.6l1.2,1l0,0L391.4,2172.2z"/>
	<path class="st0" d="M454.3,2172.2c0.4,0,0.8,0,1.3-0.1C455,2172.1,454.6,2172.1,454.3,2172.2z"/>
	<polygon class="st0" points="500.8,2187.5 481.1,2175.7 479.3,2175.7 498.9,2187.5 	"/>
	<path class="st1" d="M0,1361.2v-1.1c41.3,1.3,185.8-9,198.4-10.7c117.1-16.1,233.9,30.4,351.3,21.6c40-3,80.1-12,119.8-5.9
		c16.5,2.6,32.7,7.7,49.3,9.7c17.9,2.1,35.9,0.5,53.9-1.2c91.1-8.3,226.2-13.3,333.3-14.8V200h19V0H-2v209h1v1155.6c0.3,0,0.7,0,1,0
		v-1V1361.2z M978.8,1120.3h-46.3H771.2H397.4H236.1h-97.4h-7.3l7.3-4.3l8.2-4.8l2.6-1.5l131,0.8c0-0.3,0-0.6,0-0.8H159.2l2.6-5.3
		h-4V658.1v-48.7v-98.3h361.2l185.7-1.8l0.7,1.8h265v98.3v48.7v446.2h-19.3l2.2,5.3h-64c-0.1,0.3-0.2,0.6-0.3,0.8
		c-1.3,1.7-2.7,1-3.6-0.8h-3.3c0,0.2,0,0.4-0.1,0.4c-0.5,1.5-2.3,2-3.6-0.4h-56.5l0.5,4.3l150.4,1l1.6,0l4.2,0.7l28.5,4.6H978.8z
		 M88.9,504.1c-1.4,4.9-3.1,9.8-4.9,14.6c-2.1,6.2-4.5,12.3-7.1,18.2c-0.7,1.7-1.5,3.4-2.3,5.1C59,528.3,61.8,502.7,66,481.8
		c12.5-61.9,25.1-123.8,37.6-185.7c1.6-7.7,3.4-15.9,8.9-21.3c6.4-6.2,16-6.7,24.7-6.9c101.5-2.2,203-3.8,304.5-4.8
		c74.9-0.8,220.8-30,285.2,6.2c-6.2,10-14.9,16.2-24.9,20c2.9,1.1,5.6,2.4,8.3,3.7c0.3,0.2,0.6,0.3,0.9,0.5
		c-2.4,3.5-5.1,6.5-8.2,9.1c-13.2,11-32,13.6-50.6,13.9v0c-83.4,1.1-166.8,2.1-250.2,3.2c-5.8,0.1-12.7,1.4-18.2,4
		c3,3.7,8,5.7,12.7,6.9c31.9,7.9,75.3-0.4,88.9,31c-2.9,5-6.5,9.3-10.6,13c0.3,0.6,0.6,1.1,0.9,1.8c-12.5,20-38.8,28.2-62.9,26.9
		c-24-1.3-46.8-10.3-69.7-17.5c-35.6-11.2-72.6-18.1-109.9-20.6c-20.8-1.4-48,5.1-55.7,20.6c0,0.2,0,0.4,0.1,0.5
		c0.9,6.5,4.2,13.8,0.6,19.1c-0.2,0.4-0.5,0.7-0.8,1c0.7,3.4,0.8,6.6-1.2,9.3c-2.6,3.6-7.7,4.3-12.2,4.7c-22.8,2-45.6,4.1-68.4,6.1
		c0.3,4.8,0.5,9.6,0.5,14.4c0.2,4,0.2,8,0.1,12c-0.1,6-0.5,12-1.2,17.9c113.3-2.1,954.8-2.1,954.8-2.1l0.6,35.5H88.9z"/>
	<path class="st0" d="M137.1,2143.2c77.1-19.8,159.4,2.8,236.2,13.5l0.2-0.3l8.6-13.4c0.3-0.4,0.6-0.8,0.9-1.1
		c0.3-0.3,0.7-0.3,1-0.2c0.9-0.7,2-1,3-1.1c1,0,2,0.2,2.9,0.8l0,0l0.6,0.3c0.8,0.5,0.8,1.1,0.7,1.6c-0.1,0.3-0.5,0.5-0.8,0.4
		c-0.4-0.2-0.8-0.3-1.1-0.3c0.1,0,0.2,0.1,0.3,0.1c0.6,0.4,0.9,0.9,1.1,1.5c0,0.2,0.1,0.4,0.2,0.5c0,0,0,0,0,0l0,0l0.6,0.3
		c0.4,0.2,0.6,0.5,0.7,0.8c0,0,0,0,0,0l3.7,1.2c0.4-0.5,1-0.8,1.5-0.9c0.8-0.2,1.6-0.1,2.3,0.4c0.8,0.5,1.3,1.2,1.4,2.1
		c0.1,0.9,0.7,1.7,1.6,2l2,0.8l30.2,9.5c0.8,0.2,1.5,0.5,2.3,0.8c0.1,0,0.1,0.1,0.2,0.1c15.3,0.7,30.7,0.9,46,0.5l-11.9-13.2
		c-1.2-1.3-2-2.7-2.5-4c-0.1-0.3-0.2-0.7-0.2-1c-0.2-0.8-0.4-1.7-0.4-2.5c-0.1-0.2-0.2-0.5-0.3-0.7c-0.1-0.3-0.2-0.7-0.2-1
		c-0.8-2.7-0.6-5.5,0.5-8.1c0.2-0.5,0.4-0.9,0.7-1.4c0.7-1.2,1.6-2.3,2.7-3.2l49.6-41.9c0.5-0.4,1.1-0.8,1.6-1.2
		c2.3-1.4,4.9-2,7.4-1.9c2.4,0.1,4.8-0.1,7-0.7c0,0,0,0,0,0c1.9-0.5,2.5-0.2,3.2-0.5c0.3-0.1,0.7-0.3,1.2-0.7
		c0.2-0.1,0.4-0.3,0.6-0.5l8.1-7.1c0.4-0.4,0.9-0.7,1.3-1.1c1.4-1.1,2.9-2,4.5-2.8l26-13l1.7-1c0.4-0.2,0.7-0.6,0.9-1
		c0.1-0.1,0.1-0.2,0.1-0.4c0,0,0-0.1,0-0.1c0-0.3,0.1-0.5,0.1-0.8c0.1-0.7,0.4-1.4,0.9-1.8c1-0.9,2.6-0.9,3.6-0.1l3.2-1.6
		c0.7-0.3,1.1-1,1.1-1.7c0-0.4,0.2-0.9,0.4-1.3c-0.2,0-0.4-0.1-0.5-0.3c-0.2-0.4-0.2-1,0.4-1.6l0.5-0.4c0.8-0.6,1.6-1,2.5-1.1
		c1.5-0.2,3.2,0.3,4.3,1.6l10.3,11.4c1.1,1.2,1.4,2.8,1,4.3c1.1,1.2,1.4,2.8,1,4.2c-0.2,0.8-0.7,1.7-1.5,2.3l0,0l-0.5,0.4
		c-0.6,0.5-1.2,0.4-1.7,0.2c-0.3-0.2-0.4-0.5-0.1-0.8c-0.5,0.3-1,0.4-1.5,0.4c-0.8,0-1.5,0.2-2,0.9l-2.1,2.9c0.3,0.5,0.4,1,0.4,1.6
		c0,0.7-0.4,1.4-1,1.9c-0.6,0.5-1.5,0.7-2.2,0.6c-0.9-0.1-1.7,0.1-2.3,0.8l-1.3,1.5l-0.1,0.1l0.1,0.1l-16.8,23.2
		c-1.3,1.9-3,3.6-4.8,5c0,0,0,0,0,0.1l-8.4,6.8l0,0c-0.8,0.7-1.2,1.1-1.5,1.5l0,0c-0.4,0.7-0.3,1.4-1,3.2c-0.9,2.1-1.4,4.2-1.6,6.5
		c-0.3,3.1-1.7,6.1-4.3,8.3l0,0l-32.8,27.8c10-1.2,20-2.7,29.9-4.6c15.5-3,30.9-6.8,46.4-9.6c0.5,1.4,1,2.9,1.5,4.3
		c0.1,0,0.3-0.1,0.4-0.1c-0.4-1.4-0.9-2.8-1.2-4.2c-2.4-9.4-3-18.8-2-28.1c3.2-33,25.2-64.6,49.5-89.6c10-10.3,21-20.4,34.7-25
		c20.6-7,44.5-0.7,64.2-9.7c26.4-12,33.5-44.6,37.2-72.6c1,5.1,2,10.2,3.1,15.3c19.8-12.6,41.6-22.2,64.3-28.5
		c0,0.1-0.1,0.2-0.1,0.3c0,0,0.1,0,0.1,0c-2.8,8.1-6.3,15.9-10.3,23.5c7.3-2.8,14.7-5.3,22.3-7.4c-0.2,0.6-0.4,1.2-0.6,1.7
		c0.5-0.2,1.1-0.3,1.6-0.5c-9.5,27.1-25.9,52-47.2,71.8c10.9,5.4,24.9,7.6,37,10.9c25,6.9,45.7,23.8,59.2,45.1
		c0.4,0.4,0.8,0.8,1.2,1.2c0.4,0.6,0.7,1.2,1.1,1.9c24.6,27.8,35.3,68.1,23.5,103.4c-0.6,1.9-1.3,3.8-2.1,5.7
		c39.9-5.5,79.8-11.9,120.1-11.3c21.4,0.3,42.6,1.6,63.9,3.3v4c0.1,0,0.3,0,0.4,0v-399H0.1v113v295.4
		C54.3,2180.4,87,2156,137.1,2143.2z"/>
	<path class="st0" d="M373,2159.4c-0.3-0.1-0.5-0.4-0.5-0.7c-0.1,0.5,0.2,0.8,0.5,1c0,0.2,0,0.4,0,0.6c0,0,0,0,0.1,0
		C373,2160.1,373,2159.7,373,2159.4z"/>
	<path class="st0" d="M439.9,2163.6c-0.2-0.1-0.5-0.3-0.7-0.4l-0.1,0.2c0.2,0.1,0.5,0.2,0.7,0.4L439.9,2163.6z"/>
	<path class="st0" d="M1125,1363.3v-1v-2.5h-19v-0.9c-107.1,1.5-242.2,6.5-333.3,14.8c-17.9,1.6-36,3.3-53.9,1.2
		c-16.6-2-32.8-7.1-49.3-9.7c-39.7-6.1-79.8,2.9-119.8,5.9c-117.5,8.8-234.2-37.7-351.3-21.6c-12.5,1.7-157.1,12-198.4,10.7v1.1v2.3
		v1v31.4h1125V1363.3z"/>
	<path class="st2" d="M1125.1,2242.9v-67.7h-0.4V2161v-4c-21.3-1.7-42.5-2.9-63.9-3.3c-40.3-0.6-80.2,5.8-120.1,11.3
		c-0.8,0.1-1.5,0.2-2.3,0.3c-1.7,3.6-3.5,7.1-5.5,10.4c-2.6,4.2-5.5,8.1-8.6,11.8h-1.2c-47.6,57.3-156.4,57.3-223.3,42.7
		c-30.9-6.7-60.8-24.6-76.3-50.6h-0.7c-5.7-6.4-10.5-13.4-14.1-21c-1.5-2.8-2.9-5.7-4-8.7c-0.5-1.4-1-2.8-1.5-4.3
		c-15.5,2.9-30.9,6.7-46.4,9.6c-9.9,1.9-19.9,3.4-29.9,4.6c-2.3,0.3-4.6,0.5-6.9,0.8l-0.1,0.1l-10.8,9.1c-2.4,2.1-5.4,3-8.4,3
		c-3.9,0.3-7.8-1.1-10.6-4.2l-5.1-5.6c-0.6,0-1.2,0-1.8,0.1c-15.3,0.5-30.7,0.3-46-0.5c0.6,0.2,1.2,0.5,1.7,0.8l0.1-0.2
		c0.2,0.1,0.5,0.3,0.7,0.4l0.3-0.4c0.5,0.3,1.1,0.6,1.6,0.9l10,6.2l0,0c1,0.6,1.6,0.9,2.1,1l-0.4,0.6c0.1,0.1,0.3,0.1,0.4,0.1
		c0.2,0,0.3,0.1,0.4,0.1c0.3,0,0.8-0.1,1.3-0.1c0.5,0,1.1-0.1,2,0c0.9,0.1,1.9,0.1,2.8,0c1.2-0.1,2.4-0.3,3.6-0.5c1-0.2,2-0.3,3-0.3
		c2.8-0.2,5.7,0.4,8.2,2l4,2.4l0.1,0h1.8l19.6,11.8h-1.8l37,22.2c4.2,2.5,6.6,6.9,6.6,11.4c0.1,2.6-0.5,5.3-2.1,7.7l-17.9,28.1
		c-1,1.6-2.2,2.8-3.5,3.7c-0.8,0.6-1.7,0.9-2.6,0.8c-2.2,1-4.6,1.4-7,1.2c-0.6-0.1-1.2-0.1-1.7-0.2c-1.5-0.3-3-0.9-4.3-1.7
		l-60.6-36.3c-0.6-0.4-1.2-0.8-1.8-1.3c-2.2-1.8-3.7-4.2-4.4-6.8c-0.6-2.4-1.6-4.8-3-6.8c0,0,0,0,0,0c-1.1-1.7-1-2.4-1.6-3.1
		c-0.2-0.3-0.5-0.6-1.1-0.9c-0.1-0.1-0.2-0.1-0.3-0.2l-0.1,0.2c-0.2-0.1-0.4-0.3-0.7-0.4l-10.2-5.9c-2.2-1.3-4.2-2.8-6-4.6l-19-18.8
		l-0.5-0.5h-0.4l-2.4-2.4l0.1-0.2l-0.1-0.1l-1.2-1c-0.4-0.3-0.9-0.5-1.4-0.6c-0.4,0-0.8,0-1.2,0.1c-0.6,0.2-1.3,0.2-2-0.1
		c-0.2-0.1-0.5-0.2-0.7-0.3c-1-0.6-1.5-1.6-1.4-2.7c0-0.4,0-0.7,0.1-1.1l-2.5-2.5c-0.6-0.6-1.4-0.8-2.1-0.6
		c-0.3,0.1-0.6,0.1-0.8,0.1c0,0.2,0,0.4-0.2,0.5c-0.4,0.3-1,0.6-1.8,0.1l0,0l-0.5-0.3c-0.9-0.6-1.6-1.3-2-2.2
		c-0.3-0.5-0.4-1.1-0.5-1.7c0-0.2,0-0.4,0-0.6c-0.4-0.2-0.6-0.6-0.5-1c0-0.1,0-0.3,0-0.4c0.1-0.5,0.3-0.9,0.6-1.4l0.2-0.3
		c-76.8-10.7-159.1-33.3-236.2-13.5c-50.1,12.9-82.8,37.2-137,27.2c-0.3-0.1-0.6-0.1-1-0.2v5.8v260H1125v-105h-85.4h-56.9
		c42.2-17.2,95-38.6,142.3-57.7L1125.1,2242.9L1125.1,2242.9z M282.1,2157.8l-0.7,18.2h0l-0.5,12c0,0.4-0.1,0.7-0.1,1
		c0,0.2-0.1,0.4-0.1,0.7c0,0,0,0.1,0,0.1c-0.1,0.3-0.1,0.6-0.2,1c-0.2,0.6-0.3,1.2-0.6,1.7c-0.1,0.3-0.2,0.5-0.4,0.7
		c-1.3,2.5-3.5,4.5-6.1,5.6c-0.5,0.2-1,0.4-1.5,0.6c-1.3,0.4-2.8,0.6-4.3,0.6l-0.2,0l0,0l-61.6-2.3c0,0-0.1,0-0.1,0l-3.8-0.1
		c-0.7,0-1.4-0.1-2-0.2c-2.6-0.5-5-1.8-6.7-3.6c-1.6-1.7-3.5-3.1-5.6-4.2c0,0,0,0,0,0c-1.7-0.9-1.9-1.5-2.7-1.8l0,0
		c-0.2-0.1-0.4-0.1-0.7-0.2l0,0.6c-0.2,0-0.5,0-0.8,0l-10.9-0.2c-2.4,0-4.7-0.4-7-1l-28.1-7.8l0-0.6l-0.6-0.2l-2-0.4
		c-0.5-0.1-0.9,0-1.4,0.2c-0.3,0.1-0.6,0.3-0.9,0.6c-0.5,0.6-1.3,0.9-2.2,0.9c0,0-0.1,0-0.1,0c-0.2,0-0.3,0-0.5,0
		c-1.4,0-2.5-1.1-2.7-2.3l0-0.2l-2.8-0.8c-0.7-0.2-1.5,0-2,0.5c-0.4,0.4-0.9,0.6-1.4,0.6c0.3,0.1,0.5,0.4,0.4,0.7
		c-0.2,0.4-0.6,0.9-1.4,1H119c-1-0.2-1.9-0.6-2.6-1.1c-0.8-0.6-1.5-1.4-1.8-2.4c0-0.1,0-0.1,0-0.2c0,0,0,0,0-0.1c0-0.1,0-0.1,0-0.2
		h-0.1c0-0.2-0.1-0.5,0-0.7l0,0c0,0,0,0,0,0l0-0.2c0,0,0-0.1,0-0.1l0,0c0,0,0,0,0,0l0.6-15.2c0-0.4,0.1-0.9,0.2-1.3
		c0,0,0-0.1,0.1-0.1c0.4-1,1.1-1.8,2-2.4c0.8-0.5,1.7-0.7,2.7-0.7l0,0l0,0h0.6c0,0,1.2,0.6,1.3,1c0,0.1,0,0.2,0,0.3c0,0,0,0,0,0
		c0,0.1,0,0.2,0,0.3c0.3,0.1,0.7,0.3,0.9,0.6c0.5,0.6,1.3,0.8,2,0.7l3.5-0.7c0.1-0.6,0.4-1,0.8-1.4c0.5-0.5,1.2-0.7,2-0.7
		c0.8,0,1.6,0.4,2.1,1c0.5,0.7,1.4,1,2.2,0.9l2-0.2l28.7-5.7c1.8-0.4,3.5-0.5,5.3-0.5c0.6,0,1.2,0,1.7,0l10.9,0.6
		c1.1,0.1,1.7,0,2.1-0.1c0.9-0.2,1.2-0.8,3.1-1.7c2.1-0.9,4-2.2,5.8-3.7c2.4-2.1,5.6-3.3,9-3.1l0,0.1l65.8,2.4
		c7.1,0.3,12.6,6,12.3,12.9l0,0.1C282.1,2157.7,282.1,2157.7,282.1,2157.8z M1124.7,2273.2c-47.3,19.1-100.1,40.6-142.3,57.8h-42.2
		h-0.4l185-88.1V2273.2z"/>
	<path class="st2" d="M623,2178.5c1.2,1.3,2.5,2.6,3.9,3.8c-1.1-1-2.1-2.1-3.1-3.1c-0.2-0.3-0.4-0.6-0.5-1H623c-0.5-1-1-2-1.5-3h0
		C621.9,2176.3,622.5,2177.4,623,2178.5z"/>
	<path class="st3" d="M83,504.1v-0.3h-0.5v-36.7c0.3-0.2,4.7-0.4,12.9-0.5c0.7-6.6,1.1-13.3,1.2-20c0-2,0-3.9,0-5.9
		c0-4.8-0.2-9.6-0.5-14.4c-0.2-3-0.4-6-0.8-9c23.6-2.3,47.2-4.6,70.7-6.9c4.2-0.4,8.9-1.1,11.7-4.3c0.3-0.3,0.5-0.6,0.8-1
		c3.6-5.4,0.3-12.6-0.6-19.1c0-0.2,0-0.4-0.1-0.5c-3.4-27.2,32.8-38.6,59.1-36.7c38.3,2.8,76.2,10.5,112.7,23
		c23.5,8,46.9,18,71.5,19.5c19.1,1.1,39.7-4.1,54-16.9c4.1-3.7,7.7-8,10.6-13c-13.6-31.3-57.1-23-88.9-31c-4.7-1.2-9.7-3.2-12.7-6.9
		c-0.9-1.1-1.7-2.4-2.2-3.9c-4.5-13.5,14.5-21.1,28.1-21.3c85.5-1.2,171.1-2.4,256.6-3.6v0c12.2-0.2,24.5-1.4,35.4-5.5
		c10-3.8,18.7-10,24.9-20c-64.5-36.3-210.3-7-285.2-6.2c-101.5,1-203,2.7-304.5,4.8c-8.7,0.2-18.3,0.7-24.7,6.9
		c-5.5,5.3-7.4,13.6-8.9,21.3C91.1,358,78.6,419.9,66,481.8c-4.2,20.9-7.1,46.5,8.6,60.2c0.8-1.7,1.5-3.4,2.3-5.1
		c2.6-6,5-12,7.1-18.2c1.6-4.8,3.1-9.7,4.5-14.6H83z"/>
	<path class="st4" d="M940.1,2331h42.2c42.3-17.2,95-38.6,142.3-57.8v-30.3l-185,88.1H940.1z"/>
	<path class="st5" d="M1039.6,2331h85.4h0.1v-46.4v-11.3c0,0-0.1,0-0.1,0c-47.3,19.1-100,40.5-142.3,57.7H1039.6z"/>
	<path class="st6" d="M856.8,2007.5c-11.9-3.3-25.8-5.4-36.6-10.7c-0.6,0.6-1.2,1.2-1.8,1.7c7.9,18.3,32.8,20.7,52.5,26
		c16.8,4.6,31.7,13.8,43.7,25.8C900.9,2030,880.9,2014.1,856.8,2007.5z"/>
	<path class="st6" d="M623,2178.5c-0.6-1.1-1.1-2.2-1.6-3.3c0-0.1-0.1-0.2-0.1-0.3c-2.1-4.3-3.7-8.9-5-13.6c-1.3-4.9-2-9.9-2.3-14.8
		c0.2,0,0.4-0.1,0.6-0.1c0-0.8-0.1-1.5-0.1-2.3c-0.6-36.3,23.3-71.7,49.8-99.1c10-10.3,21-20.4,34.7-25c20.6-7,44.5-0.7,64.2-9.7
		c26.4-12,33.5-44.6,37.2-72.6c1,5.1,2,10.2,3.1,15.3c12.1-7.6,24.9-14.2,38.2-19.6c0.3-0.5,0.5-0.9,0.8-1.4
		c0.6-0.3,1.3-0.5,1.9-0.7c4-7.6,7.5-15.5,10.3-23.6c0-0.1,0.1-0.2,0.1-0.3c-22.8,6.3-44.5,16-64.3,28.5c-1-5.1-2.1-10.2-3.1-15.3
		c-3.8,28-10.8,60.6-37.2,72.6c-19.7,9-43.6,2.7-64.2,9.7c-13.8,4.6-24.7,14.8-34.7,25c-24.2,25-46.2,56.6-49.5,89.6
		c-0.9,9.2-0.3,18.5,2.1,27.8c0.4,1.4,0.8,2.8,1.2,4.2c1,3.1,2.2,6.2,3.6,9.1c3.6,7.6,8.4,14.7,14.1,21h0.7c-0.3-0.5-0.6-1-0.9-1.5
		C622.8,2178.2,622.9,2178.3,623,2178.5z"/>
	<path d="M931.3,2176.5c1.5-2.4,2.9-4.9,4.2-7.5c0,0,0.1,0,0.1,0c1.5-3.2,2.8-6.5,4-10c10.2-30.5,3.5-64.8-14.4-91.6
		c-1.7-3.9-3.7-7.7-5.8-11.4c-0.4-0.6-0.7-1.3-1.1-1.9c-0.4-0.4-0.8-0.8-1.2-1.2c-0.8-0.9-1.6-1.7-2.5-2.6
		c-12-12-26.9-21.2-43.7-25.8c-19.7-5.4-44.6-7.8-52.5-26c0.6-0.6,1.2-1.1,1.8-1.7c0.2-0.2,0.4-0.4,0.6-0.6c-2-1-3.8-2.1-5.6-3.3
		c1.4,0.9,3,1.8,4.6,2.6c20.9-19.4,37-43.6,46.6-70.1c0.2-0.6,0.4-1.2,0.6-1.7c-7.6,2.1-15,4.6-22.3,7.4c0,0-0.1,0-0.1,0.1
		c-0.6,0.2-1.3,0.5-1.9,0.7c-0.3,0.5-0.5,0.9-0.8,1.4c-13.3,5.4-26.1,11.9-38.2,19.6c-1-5.1-2.1-10.2-3.1-15.3
		c-3.8,28-10.8,60.6-37.2,72.6c-19.7,9-43.6,2.7-64.2,9.7c-13.8,4.6-24.7,14.8-34.7,25c-26.6,27.4-50.4,62.7-49.8,99.1
		c0,0.8,0.1,1.5,0.1,2.3c0,0,0,0,0,0c-0.2,0-0.4,0.1-0.6,0.1c0.3,4.9,1,9.9,2.3,14.8c1.2,4.7,2.9,9.3,5,13.6c0,0.1,0.1,0.2,0.1,0.3
		c0.5,1,1,2,1.5,3h0.3c0.2,0.3,0.3,0.6,0.5,1c1,1.1,2,2.1,3.1,3.1c-1.3-1.2-2.6-2.5-3.9-3.8c-0.1-0.1-0.2-0.2-0.3-0.3
		c0.3,0.5,0.6,1,0.9,1.5c15.5,26,45.4,43.8,76.3,50.6c66.8,14.6,175.7,14.6,223.3-42.7c2.9-3.4,5.5-7.1,7.9-10.9H931.3z M888.3,2156
		c-1.9,2.4-4.9,3.7-7.8,4.8c-28.2,10.6-59.4,13.5-89.2,8.3c0.1-0.1,0.3-0.2,0.4-0.3c-0.2,0-0.3-0.1-0.5-0.1
		c27.5-17.3,58.4-41.2,55.1-72.8l1.6,5.8c11.1,10.8,22.1,21.6,33.2,32.4c4,3.9,8.2,9.2,8.9,14.3C890.4,2151.1,890,2153.7,888.3,2156
		z"/>
	<path class="st6" d="M881,2134.5c-11-10.8-22.1-21.6-33.2-32.4l-1.6-5.9c3.3,31.4-27.3,55.3-54.7,72.5c-0.1,0.1-0.3,0.2-0.4,0.3
		c29.8,5.2,61,2.3,89.2-8.3c2.9-1.1,6-2.4,7.8-4.8c1.8-2.3,2.2-4.9,1.7-7.5C889,2143.5,885,2138.3,881,2134.5z"/>
	<path class="st7" d="M474.8,2137.9l16.3,18.1c2.5,2.8,6.6,3.5,10,2c4.8,1.2,10.1,0.1,14.1-3.3l4.5-3.8c0.1,0,0.3,0,0.4-0.1l7.3-2
		c1.5-0.4,2.7-1.5,3.3-2.9c0.5-1.4,0.4-2.8-0.3-4.1l9-7.6c3.9-3.3,5.7-8.1,5.3-12.8l2.1-1.8c1.5-1.3,1.6-3.4,0.3-4.9
		c-3.2-3.5-4.8-8.2-4.5-12.9l0.4-5.8c0.1-1.2,1.6-1.7,2.4-0.8c0.8,0.9,2.3,0.4,2.4-0.8l0.2-2.7c0-0.4,0.3-0.8,0.6-1l17,18.9l0.1,0.1
		l0,0c0.3-0.4,0.7-0.8,1.5-1.5l0,0l8.4-6.8c0,0,0,0,0-0.1c0-0.1,0-0.1,0-0.2c0.1-0.8,0.1-1.3,0.2-2.1l-0.7-0.7
		c0.1-0.1,0.2-0.3,0.2-0.4c0.4-1,0.3-2.1-0.3-3c-0.7-1.1-1.1-2.2-1-3.3c0-0.1,0-0.2,0-0.3c0.7-1.4,1-2.9,1-4.5
		c0-0.6-0.1-1.3-0.2-1.9l16.5-13.7c1.3-1,3.1-0.9,4.2,0.3l1.5,1.6l0.1-0.1l1.3-1.5c0.5-0.6,1.4-0.9,2.3-0.8c0.8,0.1,1.6-0.1,2.2-0.6
		c0.6-0.5,0.9-1.2,1-1.9c0-0.5-0.1-1.1-0.4-1.6l2.1-2.8c0.5-0.6,1.2-0.9,2-0.8c0.5,0,1-0.1,1.5-0.4c-0.2,0.3-0.1,0.6,0.1,0.8
		c0.4,0.2,1,0.3,1.7-0.2l0.5-0.4l0,0c0.8-0.6,1.2-1.4,1.5-2.3c0,0,0,0,0,0c0.4-1.4,0.1-3.1-1-4.3l-10.3-11.4
		c-1.1-1.2-2.7-1.8-4.3-1.6c-0.9,0.1-1.8,0.5-2.5,1.1l-0.5,0.4c-0.6,0.5-0.6,1.1-0.4,1.6c0.1,0.2,0.3,0.3,0.5,0.3
		c-0.3,0.4-0.4,0.8-0.4,1.3c0,0.7-0.5,1.3-1.1,1.7l-3.2,1.6c-1-0.8-2.5-0.8-3.6,0.1c-0.6,0.5-0.9,1.2-0.9,1.8
		c-0.1,0.3-0.1,0.5-0.1,0.8c0,0,0,0.1,0,0.1c0,0.1-0.1,0.2-0.1,0.4c-0.2,0.4-0.5,0.8-0.9,1l-1.7,1l-26,13c-1.6,0.8-3.1,1.7-4.5,2.8
		c-0.5,0.4-0.9,0.7-1.3,1.1l-8.1,7.1c-0.2,0.2-0.4,0.4-0.6,0.5c-0.5,0.4-0.8,0.6-1.2,0.7c-0.7,0.3-1.3,0-3.2,0.5c0,0,0,0,0,0
		c-2.3,0.6-4.7,0.8-7,0.7c-2.5-0.1-5.1,0.5-7.4,1.9c-0.6,0.4-1.1,0.8-1.6,1.2l-49.6,41.9c-1.1,1-2,2.1-2.7,3.2
		c-0.2,0.5-0.5,0.9-0.7,1.4c-1.1,2.6-1.3,5.4-0.5,8.1C467.5,2137.2,472.2,2134.9,474.8,2137.9z M554.6,2075.6L554.6,2075.6
		c0.1-0.1,0.3,0,0.4,0.1C554.9,2075.6,554.7,2075.6,554.6,2075.6z M558.5,2077.5c-0.4-0.1-0.7-0.3-1.1-0.4
		C557.7,2077.2,558.1,2077.3,558.5,2077.5C558.5,2077.5,558.5,2077.5,558.5,2077.5z M556.3,2069.8l26-13l1,1.2
		c2.1,2.3,1.9,5.9-0.5,7.9h0v0l-12.7,10.8c-0.3,0.2-0.6,0.5-0.9,0.7c-1.6-0.8-3.3-1.3-5.2-1.3c-0.7,0-1.5,0.1-2.2,0.2
		c-0.8-0.4-1.6-0.6-2.4-0.7c-1.1-0.1-2.2-0.6-3.3-1.4c-0.8-0.7-1.9-0.9-3-0.7c-0.3,0.1-0.6,0.2-0.8,0.3c-0.6,0-1.1-0.1-1.9-0.1
		C552.3,2072.1,554.2,2070.8,556.3,2069.8z M519,2088.5c0.5-0.4,1.1-0.8,1.6-1.2l1.7,1.9c2.8,3.1,3.1,7.6,1,10.9c-0.2,0-0.4,0-0.6,0
		c0,0,0,0,0,0c0,0,0,0,0,0c-3.8-0.1-7.7,1.1-10.8,3.7l-9,7.6c-1.2-0.9-2.7-1.3-4.2-0.9c-1.5,0.4-2.8,1.4-3.4,2.8l-3,6.7
		c-0.1,0.2-0.2,0.4-0.2,0.6l-4.3,3.6c-2.8,2.3-4.5,5.4-5.1,8.6c0,0,0,0,0,0c0,0,0,0,0,0c0,0,0,0.1,0,0.1c-3.1,0.3-6.2-0.7-8.4-3.2
		l-1.8-2L519,2088.5z"/>
	<path class="st8" d="M558.8,2127.8c2.6-2.2,4.1-5.2,4.3-8.3c0.2-2.2,0.7-4.4,1.6-6.5c0.8-1.8,0.6-2.4,1-3.2l-0.1-0.1l-17-18.9
		c-0.3,0.2-0.5,0.6-0.6,1l-0.2,2.7c-0.1,1.2-1.6,1.7-2.4,0.8c-0.8-0.9-2.3-0.4-2.4,0.8l-0.4,5.8c-0.3,4.7,1.3,9.4,4.5,12.9
		c1.3,1.4,1.2,3.6-0.3,4.9l-2.1,1.8c0.4,4.7-1.4,9.4-5.3,12.8l-9,7.6c0.7,1.3,0.8,2.7,0.3,4.1c-0.6,1.4-1.8,2.5-3.3,2.9l-7.3,2
		c-0.1,0-0.3,0.1-0.4,0.1l-4.5,3.8c-4,3.4-9.3,4.5-14.1,3.3c-3.3,1.6-7.4,0.8-10-2l-16.3-18.1c-2.6-2.9-7.4-0.7-7,2.8
		c0,0.3,0.1,0.6,0.2,1c0.1,0.2,0.2,0.5,0.3,0.7c0.5,1.1,1.2,2.2,2.1,3.2l15.6,17.4l5.1,5.6c2.5,2.8,6.1,4.2,9.6,4.2c3,0,6-1,8.4-3
		l10.8-9.1l0.1-0.1L558.8,2127.8L558.8,2127.8z"/>
	<path class="st8" d="M591.4,2071.2l-16.5,13.7c0.1,0.6,0.2,1.2,0.2,1.9c0,1.6-0.4,3.1-1,4.5c0,0.1,0,0.2,0,0.3c0,1.1,0.3,2.2,1,3.3
		c0.6,0.9,0.7,2,0.3,3c-0.1,0.2-0.2,0.3-0.2,0.4l0.7,0.7c-0.1,0.8-0.1,1.3-0.2,2.1c0,0.1,0,0.1,0,0.2c1.8-1.5,3.4-3.2,4.8-5
		l16.8-23.2l-0.1-0.1l-1.5-1.6C594.6,2070.3,592.7,2070.1,591.4,2071.2z"/>
	<path class="st9" d="M482.7,2133C482.8,2133,482.8,2132.9,482.7,2133c0-0.1,0-0.1,0-0.1c0,0,0,0,0,0c0.6-3.2,2.3-6.3,5.1-8.6
		l4.3-3.6c0.1-0.2,0.1-0.4,0.2-0.6l3-6.7c0.6-1.4,1.9-2.4,3.4-2.8c1.5-0.3,3,0,4.2,0.9l9-7.6c3.1-2.6,7-3.8,10.8-3.7c0,0,0,0,0,0
		c0,0,0,0,0,0c0.2,0,0.4,0,0.6,0c2.1-3.4,1.8-7.8-1-10.9l-1.7-1.9c-0.6,0.4-1.1,0.8-1.6,1.2l-46.4,39.3l1.8,2
		C476.5,2132.3,479.7,2133.3,482.7,2133z"/>
	<path class="st9" d="M553.2,2073.4c1.1-0.2,2.1,0,3,0.7c1,0.8,2.2,1.3,3.3,1.4c0.8,0.1,1.6,0.4,2.4,0.7c0.7-0.1,1.4-0.2,2.2-0.2
		c1.9,0,3.6,0.5,5.2,1.3c0.3-0.2,0.6-0.5,0.9-0.7l12.7-10.8v0h0c2.4-2,2.7-5.6,0.5-7.9l-1-1.2l-26,13c-2.1,1-4,2.3-5.8,3.9
		c0.7,0,1.2,0.1,1.9,0.1C552.6,2073.6,552.9,2073.5,553.2,2073.4z"/>
	<path class="st9" d="M558.5,2077.5C558.5,2077.5,558.5,2077.5,558.5,2077.5c-0.3-0.1-0.7-0.3-1.1-0.4
		C557.7,2077.2,558.1,2077.4,558.5,2077.5z"/>
	<path class="st9" d="M554.6,2075.6c0.2,0,0.3,0.1,0.4,0.1C554.8,2075.6,554.7,2075.5,554.6,2075.6L554.6,2075.6z"/>
	<path class="st7" d="M272.3,2190.7l0.6-15l0.4-8.9c0.1-3.7-2.2-6.8-5.6-8c-2.7-4.1-7.3-7-12.7-7.2l-6.4-0.2
		c-0.3-0.2-0.6-0.4-0.9-0.6l-6.5-3.4c-1.4-0.7-3-0.7-4.4-0.1c-1.3,0.6-2.3,1.9-2.6,3.4c0,0.1,0,0.1,0,0.2l-11.2-0.4
		c-5.2-0.2-9.9,2.1-12.9,5.9l-2.8-0.1c-2-0.1-3.6,1.4-3.7,3.3c-0.2,4.7-2.3,9.2-5.9,12.4l-4.3,3.9l-0.1,0.1c-0.6,0.6-1.5,0.4-2-0.1
		c-0.2-0.2-0.4-0.5-0.3-0.9c0-1.2-1.4-1.8-2.3-1l-2,1.8c-0.1,0.1-0.1,0.1-0.2,0.1c-0.3,0.2-0.6,0.3-0.9,0.2l0-0.2l1-25
		c0.9-0.2,1.2-0.8,3-1.7c2.1-0.9,4-2.2,5.8-3.7c2.4-2.1,5.6-3.3,9-3.1l0-0.1c-3.4-0.1-6.6,1.1-9,3.1c-1.7,1.5-3.7,2.7-5.8,3.7
		c-1.9,0.9-2.2,1.4-3.1,1.7c-0.5,0.1-1.1,0.2-2.1,0.1l-10.9-0.6c-0.6,0-1.1,0-1.7,0c-1.8,0-3.5,0.2-5.3,0.5l-28.7,5.7l-2,0.2
		c-0.9,0.1-1.7-0.3-2.2-0.9c-0.5-0.6-1.2-1-2.1-1c-0.8,0-1.5,0.2-2,0.7c-0.4,0.4-0.7,0.9-0.8,1.4l-3.5,0.7c-0.8,0.1-1.5-0.1-2-0.7
		c-0.2-0.3-0.6-0.4-0.9-0.6c-0.1,0-0.1-0.1-0.2-0.1c0.1-0.1,0.2-0.2,0.2-0.3c0-0.1,0-0.2,0-0.3c-0.1-0.4-1.3-1-1.3-1H120l0,0l0,0
		c-1,0-1.9,0.2-2.7,0.7c-0.9,0.5-1.6,1.4-2,2.4c0,0-0.1,0.1-0.1,0.1c-0.2,0.4-0.2,0.8-0.2,1.3l-0.6,15.2c0,0,0,0,0,0l0,0
		c0,0,0,0.1,0,0.1c0,0,0,0.1,0,0.1c0,0.2,0,0.3,0,0.5c0,0.1,0,0.2,0.1,0.3c0,0,0,0,0,0c0,0.1,0,0.1,0,0.2c0,0,0,0,0,0.1
		c0,0.1,0,0.1,0,0.2c0.3,1,0.9,1.8,1.8,2.4c0.8,0.5,1.6,0.8,2.6,1.1h0.6c0.8-0.1,1.2-0.6,1.4-1c0.1-0.3,0-0.6-0.4-0.7
		c0.6-0.1,1.1-0.3,1.4-0.6c0.5-0.5,1.3-0.7,2-0.5l2.8,0.8l0,0.2c0.2,1.3,1.3,2.3,2.7,2.3c0.2,0,0.4,0,0.5,0c0,0,0.1,0,0.1,0
		c0.9,0,1.6-0.3,2.2-0.9c0.2-0.3,0.6-0.5,0.9-0.6c0.4-0.2,0.9-0.2,1.4-0.2l2,0.4l0.6,0.2l0-1c0-0.7,0.2-1.3,0.4-1.9
		c0.9-2.2,3.1-3.6,5.6-3.6h0l0,0l16.9,0.6c0.3,0,0.7,0,1,0.1c0.5,1.1,1.1,2,1.9,2.9c1.2,1.3,2.7,2.3,4.4,2.9c0.7,0.8,1.1,1.8,1.2,3
		c0.1,0.9,0.6,1.7,1.4,2.2l-0.1,3.4l0,0c0.6,0,1.2,0.1,1.7,0.1l10.9,0.2c0.3,0,0.5,0,0.8,0c0.2,0,0.5,0.1,0.6,0.1
		c0.3,0,0.5,0.1,0.7,0.2l0,0c0.7,0.3,1,0.9,2.7,1.8c0,0,0,0,0,0c2,1.1,4,2.5,5.6,4.2c1.8,1.8,4.1,3.1,6.7,3.6c0.7,0.1,1.3,0.2,2,0.2
		l3.8,0.1c-0.7,0-1.3-0.1-1.9-0.2l0.1-2.5c0.2-4.1,3.1-7.5,6.9-8.6c0,0,0,0,0,0c0,0,0,0,0,0c2.7,2.6,6.4,4.3,10.5,4.4l11.5,0.4
		c0.3,1.3,1.1,2.4,2.2,3.1c1,0.6,2.2,0.8,3.4,0.6c0.5,0,1.1-0.1,1.6-0.3l6.8-2.8l6.6,0.2c3.7,0.1,7.1-0.9,9.8-2.9
		c2.8,1.7,4.6,4.8,4.5,8.3l-0.1,2.6l0.2,0c1.5,0.1,2.9-0.1,4.3-0.6c0.5-0.1,1-0.3,1.5-0.6c2.6-1.2,4.8-3.1,6.1-5.6
		C277.4,2196.2,272.1,2194.7,272.3,2190.7z M170.2,2183.4c-0.3-0.3-0.6-0.7-0.6-1.1c-0.1-1.1-0.5-2.4-1.3-3.5c0.1,0,0.1,0,0.2,0
		c0.8,0.9,1.3,2.1,1.4,3.5c0,0.3,0.2,0.7,0.3,1L170.2,2183.4z M171,2154.8c-0.3,1.2-0.8,2.3-1.5,3.1c0,0,0,0,0,0c0.7-1,1-2,1.2-2.9
		c0.1-0.4,0.3-0.8,0.7-1C171.1,2154.2,171,2154.5,171,2154.8z M171.4,2153.6c-0.8,0.4-1.4,1.2-1.6,2.1c-0.2,0.9-0.6,1.7-1.1,2.4
		c-2.8,0.7-5.2,2.4-6.7,4.6l-21.8-1c-1.6-0.1-2.9-1.4-2.9-3l0.1-2.3l28.7-5.7c1.8-0.3,3.5-0.5,5.3-0.5L171.4,2153.6z"/>
	<path class="st8" d="M137.5,2156.4l-0.1,2.3c0,1.6,1.2,3,2.9,3l21.8,1c1.5-2.3,3.9-4,6.7-4.6c0.5-0.7,0.8-1.5,1.1-2.4
		c0.2-0.9,0.8-1.6,1.6-2.1l0.1-3.5c-1.8,0-3.6,0.2-5.3,0.5L137.5,2156.4z"/>
	<path class="st8" d="M269.9,2144.6l-65.8-2.4c-3.5-0.1-6.6,1.1-9,3.1c-1.7,1.5-3.7,2.7-5.8,3.7c-1.9,0.8-2.2,1.4-3,1.7l-1,25l0,0.2
		c0.3,0,0.6,0,0.9-0.2c0.1,0,0.1-0.1,0.2-0.1l2-1.8c0.9-0.8,2.4-0.2,2.3,1c0,0.4,0.1,0.7,0.3,0.9c0.5,0.5,1.4,0.7,2,0.1l0.1-0.1
		l4.3-3.9c3.6-3.2,5.7-7.7,5.9-12.4c0.1-1.9,1.7-3.4,3.7-3.3l2.8,0.1c3-3.7,7.7-6,12.9-5.9l11.2,0.4c0-0.1,0-0.1,0-0.2
		c0.3-1.4,1.2-2.7,2.6-3.4c1.4-0.7,3-0.6,4.4,0.1l6.5,3.4c0.3,0.2,0.6,0.4,0.9,0.6l6.4,0.2c5.4,0.2,10.1,3,12.7,7.2
		c3.4,1.2,5.8,4.3,5.6,8l-0.4,8.9l-0.6,15c-0.2,4,5.2,5.5,7.3,2.5c0.1-0.2,0.3-0.4,0.4-0.7c0.2-0.5,0.4-1.1,0.6-1.7
		c0.1-0.3,0.2-0.6,0.2-1c0,0,0-0.1,0-0.1c0-0.2,0.1-0.4,0.1-0.7c0-0.3,0.1-0.7,0.1-1l0.5-12l0-0.3l0.7-18.1l0-0.1
		C282.4,2150.6,276.9,2144.9,269.9,2144.6z"/>
	<path class="st8" d="M169.4,2157.9C169.4,2157.9,169.5,2157.9,169.4,2157.9c0.8-0.8,1.3-1.9,1.5-3.1c0.1-0.3,0.2-0.6,0.3-0.8
		c-0.3,0.2-0.6,0.6-0.7,1C170.5,2155.9,170.1,2156.9,169.4,2157.9z"/>
	<path class="st9" d="M263.1,2189c-2.7,1.9-6.2,3-9.8,2.9l-6.6-0.2l-6.8,2.8c-0.5,0.2-1,0.3-1.6,0.3c-1.1,0.2-2.3,0-3.4-0.6
		c-1.1-0.7-1.9-1.8-2.2-3.1l-11.5-0.4c-4.1-0.2-7.8-1.8-10.5-4.4c0,0,0,0,0,0c0,0,0,0,0,0c-3.9,1.1-6.8,4.5-6.9,8.6l-0.1,2.5
		c0.6,0.1,1.3,0.2,1.9,0.2c0,0,0.1,0,0.1,0l61.6,2.3l0,0l0.1-2.6C267.7,2193.8,265.9,2190.7,263.1,2189z"/>
	<path class="st9" d="M182.7,2187.4l-10.9-0.2c-0.6,0-1.2,0-1.7-0.1l0,0l0.1-3.4c-0.8-0.5-1.3-1.3-1.4-2.2c-0.1-1.2-0.6-2.2-1.2-3
		c-1.7-0.6-3.2-1.6-4.4-2.9c-0.8-0.9-1.5-1.8-1.9-2.9c-0.3,0-0.7,0-1-0.1l-16.9-0.6l0,0h0c-2.5-0.1-4.7,1.4-5.6,3.6
		c-0.2,0.6-0.4,1.2-0.4,1.9l0,1l0,0.6l28.1,7.8c2.3,0.6,4.6,1,7,1l10.9,0.2c0.3,0,0.5,0,0.8,0l0-0.6c-0.2,0-0.4-0.1-0.6-0.1
		C183.3,2187.4,183,2187.4,182.7,2187.4z"/>
	<path class="st9" d="M168.4,2178.8c-0.1,0-0.1,0-0.2,0c0.8,1.2,1.2,2.4,1.3,3.5c0.1,0.5,0.3,0.9,0.6,1.1l0-0.2
		c-0.2-0.3-0.3-0.6-0.3-1C169.7,2180.9,169.2,2179.8,168.4,2178.8z"/>
	<path class="st7" d="M434.9,2161.7l-30.2-9.5l-2-0.8c-0.9-0.4-1.4-1.1-1.6-2c-0.2-0.8-0.6-1.6-1.4-2.1c-0.7-0.4-1.5-0.6-2.3-0.4
		c-0.6,0.1-1.1,0.4-1.5,0.9l-3.7-1.2c0,0,0,0,0,0c-0.6-0.2-1-0.6-1.3-1.1c-0.1-0.2-0.2-0.4-0.2-0.5c-0.2-0.6-0.5-1.2-1.1-1.5
		c-0.1-0.1-0.2-0.1-0.3-0.1c0.3,0,0.7,0.1,1.1,0.3c0.4,0.2,0.8,0,0.8-0.4c0.1-0.5,0.1-1.2-0.7-1.6l-0.6-0.3l0,0
		c-0.9-0.6-1.9-0.8-2.9-0.8c-1.1,0-2.2,0.4-3,1.1c-0.3-0.1-0.7,0-1,0.2c-0.3,0.3-0.6,0.7-0.9,1.1l-8.6,13.4l-0.2,0.3l-0.2,0.3
		c-0.3,0.4-0.5,0.9-0.6,1.4c0,0.2,0,0.3,0,0.4c0.1,0.3,0.3,0.5,0.5,0.7c0,0.3,0,0.7,0.1,1c0.1,0.5,0.2,0.9,0.4,1.3
		c0.4,0.9,1.1,1.6,2,2.2l0.5,0.3l0,0c0.8,0.5,1.4,0.2,1.8-0.1c0.2-0.1,0.2-0.3,0.2-0.5c0.3,0,0.6,0,0.8-0.1c0.8-0.2,1.6,0,2.1,0.6
		l2.6,2.6l0,0.1c0,0.1,0,0.1-0.1,0.2c-0.1,0.3-0.2,0.7-0.1,1.1c0,0.9,0.5,1.8,1.4,2.3c0.2,0.1,0.5,0.2,0.7,0.3
		c0.6,0.2,1.3,0.2,2,0.1c0.4-0.1,0.8-0.2,1.2-0.1c0.5,0.1,1,0.2,1.4,0.6l1.3,1.1l0.8-1.2c1.8-2.9,5.7-3.8,8.7-2v0l11,6.6l4.5,2.7
		c0.6,0.3,1.1,0.7,1.7,1c-0.1,0.6-0.1,1.1-0.1,1.7c0,1.8,0.5,3.6,1.2,5.1c-0.2,1-0.2,1.9-0.1,2.8c0.2,1.2,0,2.4-0.5,3.8
		c-0.4,1.1-0.3,2.2,0.3,3.2c0.1,0.1,0.1,0.2,0.2,0.2l-0.7,1c0.5,0.4,1,0.7,1.6,1l10.2,5.9c0.3,0.1,0.5,0.3,0.7,0.4l-0.4,0.6
		c0.1,0.1,0.2,0.1,0.3,0.2c0.6,0.4,0.9,0.6,1.1,0.9c0.5,0.7,0.5,1.3,1.6,3.1c0,0,0,0,0,0c1.3,2.1,2.3,4.4,3,6.8
		c0.7,2.6,2.2,5,4.4,6.8c0.6,0.5,1.2,0.9,1.8,1.3l60.6,36.3c1.4,0.8,2.8,1.4,4.3,1.7c0.6,0.1,1.1,0.2,1.7,0.2c2.4,0.2,4.8-0.2,7-1.2
		c-3,0-5.6-3.4-3.7-6.5l14.1-22.1c2.1-3.3,1.7-7.5-0.8-10.4c-0.3-5.2-3.1-10.2-8-13.1l-5.7-3.4c-0.1-0.4-0.3-0.8-0.6-1.1l-4.4-6.7
		c-0.8-1.2-2-2-3.4-2.3c-1.7-0.4-4.2,0.4-5.3,1.7c0,0-0.1,0.1-0.1,0.1l-10-6h0v0h0c-4.7-2.8-10.4-3.1-15.2-1.3l-2.9-1.8
		c-1.8-1.1-4.2-0.5-5.3,1.2c-2.8,4.3-7.2,7.4-12.3,8.6l-6.3,1.4c-1.3,0.3-2.3-1.1-1.6-2.2s-0.3-2.5-1.6-2.2l-2.9,0.7
		c-0.8,0.2-1.4-0.2-1.7-0.8l12.6-19.7l2.1-3.2c1.4,0.6,1.7,0,4.4,0.2c2.5,0.2,5,0,7.5-0.5c3.4-0.7,7-0.2,10.2,1.7l0.1,0l3,1.8
		l57.6,34.6c4.1,2.4,6.4,6.6,6.6,10.8c0-4.5-2.3-8.9-6.6-11.4l-37-22.2l-19.6-11.8l-0.1,0l-4-2.4c-2.6-1.5-5.4-2.1-8.2-2
		c-0.7,0-1.4,0.1-2,0.3c-1.5,0.3-3.1,0.5-4.6,0.5c-0.9,0-1.9,0-2.8,0c-0.9-0.1-1.5,0-2,0c-0.5,0-0.9,0.1-1.3,0.1
		c-0.1,0-0.3,0-0.4-0.1c-0.1,0-0.3-0.1-0.4-0.1l0.4-0.6c-0.5-0.1-1.1-0.4-2.1-1l0,0l-10-6.2c-0.5-0.3-1.1-0.6-1.6-0.9l-0.3,0.4
		l-0.1,0.2c-0.2-0.1-0.5-0.2-0.7-0.4c-0.6-0.3-1.1-0.5-1.7-0.8c-0.1,0-0.1-0.1-0.2-0.1C436.4,2162.2,435.6,2161.9,434.9,2161.7z
		 M446.1,2222.9c2.4-3.8,6.9-5.5,11.1-4.6c0.1,0.3,0.1,0.6,0.2,0.9c1.1,3.9,3.7,7.3,7.4,9.6l10.2,6.1c-0.6,1.8-0.1,3.8,1.5,5.3
		c0.9,0.9,2.1,1.3,3.4,1.4l7.6,0.8l6.8,4.1c3.4,2,7.2,2.8,10.9,2.4c0.1,0,0.2,0,0.3-0.1c1.3,2.9,1.1,6.4-0.8,9.3l-1.5,2.4
		l-56.8-34.1c-0.6-0.4-1.2-0.8-1.8-1.3L446.1,2222.9z M439.5,2164.2l-1.2,1.8c-0.1,0-0.2,0-0.3-0.1c-1.2-0.1-2.3,0.3-3.1,1.2
		c-1,1.1-2,1.8-3.2,2.1c-0.2,0.1-0.5,0.2-0.7,0.3c-0.4,0-0.7-0.1-1.1-0.1c-2.3,0-4.4,0.6-6.2,1.7l-17.9-10.9l-1.6-1
		c-1.5-0.9-2-2.9-1-4.3l1.3-2.1l30.2,9.5c0.2,0.1,0.4,0.1,0.6,0.2C436.8,2162.9,438.2,2163.5,439.5,2164.2z"/>
	<path class="st8" d="M434.8,2162.2l-30.2-9.5l-1.3,2.1c-0.9,1.5-0.5,3.4,1,4.3l1.6,1l17.9,10.9c1.8-1,3.9-1.7,6.2-1.7
		c0.4,0,0.7,0,1.1,0.1c0.2-0.1,0.5-0.2,0.7-0.3c1.2-0.3,2.3-1,3.2-2.1c0.8-0.9,1.9-1.3,3.1-1.2c0.1,0,0.2,0,0.3,0.1l1.2-1.8
		c-1.3-0.7-2.7-1.3-4.2-1.8C435.2,2162.4,435,2162.3,434.8,2162.2z"/>
	<path class="st8" d="M535.9,2210.2l-57.6-34.6l-3-1.8l-0.1,0c-3.2-1.9-6.9-2.4-10.2-1.7c-2.5,0.5-5,0.7-7.5,0.5
		c-2.6-0.2-3,0.4-4.4-0.2l-2.1,3.2l-12.6,19.7c0.3,0.6,0.9,1,1.7,0.8l2.9-0.7c1.3-0.3,2.3,1.1,1.6,2.2s0.3,2.5,1.6,2.2l6.3-1.4
		c5.1-1.2,9.5-4.3,12.3-8.6c1.1-1.8,3.5-2.3,5.3-1.2l2.9,1.8c4.8-1.9,10.5-1.6,15.2,1.3h0v0h0l10,6c0,0,0.1-0.1,0.1-0.1
		c1.1-1.3,3.6-2.1,5.3-1.7c1.4,0.3,2.6,1.1,3.4,2.3l4.4,6.7c0.2,0.4,0.4,0.7,0.6,1.1l5.7,3.4c4.9,2.9,7.7,7.9,8,13.1
		c2.5,2.8,3,7,0.8,10.4l-14.1,22.1c-2,3.1,0.6,6.5,3.7,6.5c0.9,0,1.7-0.2,2.6-0.8c1.2-0.9,2.4-2.1,3.5-3.7l17.9-28.1
		c1.5-2.4,2.2-5.1,2.1-7.7C542.3,2216.8,540,2212.6,535.9,2210.2z"/>
	<path class="st9" d="M503.2,2260.5l1.5-2.4c1.9-2.9,2-6.4,0.8-9.3c-0.1,0-0.2,0-0.3,0.1c-3.7,0.4-7.5-0.3-10.9-2.4l-6.8-4.1
		l-7.6-0.8c-1.3-0.1-2.5-0.6-3.4-1.4c-1.5-1.4-2-3.4-1.5-5.3l-10.2-6.1c-3.8-2.3-6.3-5.8-7.4-9.6c-0.1-0.3-0.1-0.6-0.2-0.9
		c-4.2-0.9-8.7,0.8-11.1,4.6l-1.5,2.3c0.5,0.5,1.1,0.9,1.8,1.3L503.2,2260.5z"/>
	<path class="st9" d="M430.2,2204.1l-10.2-5.9c-0.5-0.3-1.1-0.6-1.6-1l0.7-1c-0.1-0.1-0.1-0.2-0.2-0.2c-0.6-1-0.7-2.1-0.3-3.2
		c0.5-1.3,0.7-2.6,0.5-3.8c-0.2-0.8-0.1-1.8,0.1-2.8c-0.8-1.6-1.2-3.3-1.2-5.1c0-0.6,0.1-1.1,0.1-1.7c-0.5-0.4-1.1-0.7-1.7-1
		l-4.5-2.7l-11-6.6v0c-3-1.8-6.8-0.9-8.7,2l-0.8,1.2l-0.1,0.2l0,0l0.1,0.1l2.6,2.6l0.5,0.5l19,18.8c1.8,1.8,3.8,3.3,6,4.6l10.2,5.9
		c0.3,0.1,0.5,0.3,0.7,0.4l0.1-0.2l0.4-0.6C430.7,2204.4,430.5,2204.3,430.2,2204.1z"/>
	<path class="st10" d="M974.6,1115l-1.6,0l-150.4-1l0.1,1h-57.1h-42.7h-37.2c0-0.6,0.1-1.2,0.1-1.8l-75-0.5v2.3h-16.4v-2.4
		l-185.4-1.2l0.8,3.6h-56.4h-30.1h-42.6c-0.1-1.5-0.1-3-0.2-4.5l-131-0.8l-2.6,1.5l-8.2,4.8l-7.3,4.3h7.3h97.4h161.3h373.8h161.3
		h46.3h28.5l-28.5-4.6L974.6,1115z"/>
	<polygon class="st1" points="408.6,1109.7 409,1111.3 594.4,1112.5 594.4,1109.7 	"/>
	<path class="st1" d="M610.8,1109.7v3l75,0.5c0.1-1.2,0.1-2.3,0.2-3.5H610.8z"/>
	<path class="st11" d="M277.7,846.7c0,0,0.1-0.7,0.4-1.8c-0.1-1-0.1-2.1-0.1-3c0.4-7.9,4.2-14.1,9.6-17.7c0.6-0.5,1.2-1,1.8-1.4
		c2.6-1.6,8.3-3,14.3-4.1l15.9-32c-3.6-4.9-7-11.8-9.8-21.4c-11.2-37.5,2.5-34.2,7.7-43c4.2-7,14.1-9.8,20.2-10.2
		c2.9-0.2,7.7,0.7,11.5,1.6c2,0.5,4,0.8,6.1,1.1l28.2-56.7l24.2-48.7l48.5-97.7l63-0.6H157.9v98.3v48.7v446.2h4l116.8-235.1
		C278.1,855.8,277.7,846.7,277.7,846.7z"/>
	<path class="st11" d="M766.5,658.1l30.7,74.1c1.3,2.3,2.2,4.6,2.9,6.9l58.7,141.7c7.6,12.3,12.7,21.7,12.7,21.7l0,0l-3,1.9
		l4.3,10.3c5.9,8.5,10.2,14.8,10.7,16c0.4,1,1.2,6.8,2.3,15.4l65.6,158.3h19.3V658.1v-48.7v-98.3h-265l40.7,98.3L766.5,658.1z"/>
	<path class="st12" d="M594.4,1104.3v-76.1H422.7v-23h267.6c3.3-32.3,7.9-78.2,11.1-109.2c-8.9,6.7-15.4,11.2-15.4,11.2l-4.7-4.8
		l-39,27.3c-4.1,2.8-9.1,4.2-14.1,3.7c-23.2-2.3-86.8-8.3-92.7-7.5l-0.3-0.8l-1.2-0.4c1.4,1.4,1.9,3.1,0.3,4.8
		c-1.8,1.8-6.4-0.9-6.4-0.9s0.8,3.1-0.7,4.3c-1.5,1.2-3.9,0.5-3.9,0.5c0.2,0.8,0.3,2.4-1.5,3.3c-1.7,0.9-4.3-0.4-4.3-0.4
		s0.1,1.4-1.4,2.6c-1.5,1.2-4.4-0.3-4.4-0.3s-21.4-15.7-24.1-16.8c-1.6-0.6-4.1-1.1-5.8-1.4c-9.1,0.4-60.1,10.1-83.4,12.7
		c0.4,30.5,0.4,58.9-0.1,65c-1.2,13.9,4.9,68,4.9,68c-1.1,0.3-2.4,0.7-3.6,0.9l7.9,37.2l1.1,5.3h185.7V1104.3z"/>
	<path class="st12" d="M884.5,1104.3c-0.9-6-2.1-15.7-2.9-16.3c-1.1-0.8-0.9,1.7-0.9,1.7s0.9,8.6,1.3,14.6c0.2,2.4,0.3,4.4,0.2,5.3
		h3.3c-0.2-0.3-0.3-0.7-0.4-1C885.1,1108,884.8,1106.4,884.5,1104.3z"/>
	<path class="st12" d="M686.4,1104.3c1.2-21.6,2.1-42,2.1-58.5c0-0.1,0-0.6,0.1-1.4c-0.7-0.3-1.5-0.7-2.2-1c0,0,0.6-5.8,1.5-15.2
		h-77.1v76.1v5.3h75.2C686.2,1107.9,686.3,1106.1,686.4,1104.3z"/>
	<path class="st12" d="M877,1104.3c-1.2-4.9-2.3-11.3-2.6-12.2c-0.3-1.3-2.4-13-2.9-13.4c-0.6-0.3-1.8,6.6-4.2,10.3
		c-0.8,1.3-2.2,3.5-3.9,4c-1.8,0.6-3.4-1.3-2.5-2.9c0.6-1.1,1.5-2.6,1.5-3.4c0.1-1.3,0.8-4,1.3-6.3s1.4-6.2,1.9-8.1
		c0.4-1.6,3.9-7.6,6-10.3c1.7-2.2,3.5-4.8,5.1-7.9c0.6-1.5,1.3-3.3,2-5.2c-1.6-7.9-5.1-21.1-5.1-21.1s-17-72.5-18.1-76.3l-19.9-25.8
		l-6.3,4.1c0,0-5.8-8.3-13.1-18.2c-3.1,18.5-0.5,138.8-0.5,138.8s-0.7,0.5-2.2,1.3l4.8,26.7l3,25.9l0.6,5.3h56.5c0,0,0,0,0-0.1
		C878.1,1108.8,877.6,1106.7,877,1104.3z"/>
	<path class="st12" d="M323.9,815.8l5.4-20.1c-3.2-1.8-6.5-4.7-9.7-9.1l-15.9,32C312.7,817,322.5,815.9,323.9,815.8z"/>
	<path class="st12" d="M785.8,775.9c-8.8,6.3-11.5,13.2-12.4,17.1l4.2,24.7c1.7,0.1,3.1,0.2,4.2,0.3c11.8,1.2,18,2.9,27.5,5.6
		c0.5,0.1,0.9,0.6,1.4,1.3c14.6,5.3,35.1,34.9,48.1,56L800,739.1C804.1,753.7,796.6,768.1,785.8,775.9z"/>
	<path class="st12" d="M897.6,1055.4c0,0.4,0,0.8,0,1.2l0,0c-0.1,0.7-0.2,1.8-0.3,2.2c-0.8,7,2,13.7,2,19.6c0,5.9,3.6,17.8,1.2,19.4
		c0,0-0.9,0.9-2,0c-1.3-1.2-3.3-13.7-4-14.1c-0.6-0.4-0.8,0.9-0.8,0.9s2.9,16.4,1.8,18.9c-0.2,0.4-0.4,0.7-0.6,0.9
		c-0.8,0.8-1.9,0.6-2.6,0c-0.2-0.2-0.3-0.3-0.5-0.5c-0.8-1.3-2.1-16-3.1-16.2c-1-0.2-0.7,2.1-0.7,2.1s1.4,8.5,1.8,14.7
		c0.1,2.2,0.1,4.2-0.2,5.3h64l-2.2-5.3l-65.6-158.3C889.6,977.2,896.5,1045.4,897.6,1055.4z"/>
	<path class="st12" d="M279.3,1063.8c-1.1-0.1-1.6-0.2-1.6-0.2s0.8-74.5,2.4-92.7c1.4-16.4-0.3-70.6-1.5-101.7l-116.8,235.1
		l-2.6,5.3h121.3c-0.1-1.8-0.1-3.6-0.2-5.3C279.7,1087.6,279.3,1073.5,279.3,1063.8z"/>
	<path class="st12" d="M866.4,905.8c2.2,3.2,4.4,6.2,6.3,9l-4.3-10.3L866.4,905.8z"/>
	<path class="st12" d="M407.6,609.4l-24.2,48.7l-28.2,56.7c1.3,0.2,2.7,0.4,4,0.5c40.8,4.2,13.9,62.3,14,62.9c0,0,0,0,0,0
		c-1.8,12-7.2,22.2-13,24.9c0,1.9,0.2,3.9,0.3,5.9c-0.2,0-0.5-0.1-0.7-0.1c0.3,2.8,0.6,5.4,1,7.7c3.5,0.4,6.8,0.9,9.7,1.6
		c0.4,0,0.7,0.1,1.1,0.1c1.3,0.2,2.7,0.7,4.2,1.4c8.3,3.1,13,9,15.9,15c13.1,16.5,25.3,39.4,25.3,39.4l-3.7,3.6
		c4.4,5.2,8.3,9.9,9.5,11.6c13.4-7.1,48-39.4,49.6-40.8c1.7-1.4,2.4-30.8,5.6-29.6c3.2,1.2-0.7,15.5,3.2,16.1
		c3.8,0.6,29.5-22.8,30.4-20.2c1.6,4.9-15.2,15-14.1,17.1c1.2,2.2,16.7-12.3,19.8-9.5c3.1,2.8-15.9,12.2-15.8,14.2
		c0.1,2,18.9-6.1,18.9-1.6c0,2.4-16.9,6.8-15.5,9.2c1.4,2.4,14.8,1.3,14.5,4.1l0,0c-0.2,2.8-11.4-0.8-17.5,3
		c-6.1,3.8-12.4,3-20.5,12.2c-4.4,5-18,22.7-31.7,37.3c14.8,0.1,28,0.2,33.1,0.3v-0.7h1.8v0.7c-0.4,0-1,0-1.8,0v0.5
		c3.6,0.2,11.5,0.6,13.1,0c0.9-0.3,2.2-0.6,3.4-0.7c0,0,0,0,0,0s4.8-1,5-1c0.2,0,4.8-0.9,5-0.9c0.2-0.1,7.4,1,7.4,1l0.8,0.6h0v0h0
		l0.5,0.3c0.4,0.1,0.7,0.3,1,0.6l2.2,1.3c0,0,3.6,2.9,4.5,3.1c0.9,0.2,26-0.3,26-0.3s0,0.3,0,0.7c21.4-0.3,51.8-0.7,65.9-0.8
		c5.4,0,10.6-1.8,14.9-5.1l26.8-20.4l-2.3-2.3h0v0c0,0,41.2-41.9,56-52.5c2.8-2,6.3-3.3,9.9-4c1.4-1.7,2.2-2.6,2.2-2.6
		c2-0.6,6.5-1.1,12.2-1.3c0.5-1.8,2.2-8.2,3.4-15.3c-0.3,0-0.6,0-0.9,0.1c0.4-2.3,0.7-4.6,0.9-6.9c-5.5-0.2-10.3-1.9-13.3-5.2
		c-8.5-9.6-8.8-50.4,6.1-66c-8.8,1.5,2.3-39.1,37.7-12c6.5,0.7,15.3,4.1,24.4,18.1c0.5,0.7,0.9,1.4,1.3,2.1l-30.7-74.1l-20.2-48.7
		l-40.7-98.3l-0.7-1.8l-185.7,1.8l-63,0.6L407.6,609.4z"/>
	<path class="st13" d="M95.6,470.7c-7.9,0.1-12.3,0.3-12.6,0.5v32.7v0.3h5.4h0.4h962.1l-0.6-35.5
		C1050.3,468.6,208.9,468.6,95.6,470.7z"/>
	<path class="st14" d="M323.3,1115h30.1h56.4l-0.8-3.6l-0.4-1.7l-1.1-5.3l-7.9-37.2c1.3-0.3,2.5-0.6,3.6-0.9c0,0-6.1-54.1-4.9-68
		c0.5-6.2,0.5-34.5,0.1-65c23.3-2.6,74.2-12.4,83.4-12.7c1.7,0.3,4.2,0.8,5.8,1.4c2.7,1,24.1,16.8,24.1,16.8s2.9,1.5,4.4,0.3
		c1.5-1.2,1.4-2.6,1.4-2.6s2.5,1.4,4.3,0.4c1.7-0.9,1.7-2.5,1.5-3.3c0,0,2.5,0.7,3.9-0.5c1.5-1.2,0.7-4.3,0.7-4.3s4.6,2.7,6.4,0.9
		c1.6-1.7,1.1-3.4-0.3-4.8l1.2,0.4l0.3,0.8c5.9-0.8,69.5,5.2,92.7,7.5c5,0.5,10-0.8,14.1-3.7l39-27.3l4.7,4.8c0,0,6.4-4.5,15.4-11.2
		c-3.2,31-7.9,76.8-11.1,109.2H422.7v23h171.7v76.1v5.3v2.9v2.4h16.4v-2.3v-3v-5.3v-76.1h77.1c-1,9.5-1.5,15.2-1.5,15.2
		c0.7,0.3,1.5,0.7,2.2,1c-0.1,0.8-0.1,1.3-0.1,1.4c0,16.5-0.9,36.9-2.1,58.5c-0.1,1.8-0.2,3.5-0.3,5.3c-0.1,1.1-0.1,2.3-0.2,3.5
		c0,0.6-0.1,1.2-0.1,1.8h37.2h42.7h57.1l-0.1-1l-0.5-4.3l-0.6-5.3l-3-25.9l-4.8-26.7c1.5-0.8,2.2-1.3,2.2-1.3s-2.7-120.4,0.5-138.8
		c7.4,9.9,13.1,18.2,13.1,18.2l6.3-4.1l19.9,25.8c1.1,3.9,18.1,76.3,18.1,76.3s3.5,13.2,5.1,21.1c-0.7,1.9-1.4,3.7-2,5.2
		c-1.6,3.2-3.4,5.8-5.1,7.9c-2.1,2.7-5.6,8.7-6,10.3c-0.5,1.9-1.4,5.7-1.9,8.1s-1.2,5.1-1.3,6.3c-0.1,0.8-0.9,2.3-1.5,3.4
		c-1,1.6,0.7,3.5,2.5,2.9c1.7-0.5,3-2.7,3.9-4c2.3-3.8,3.6-10.7,4.2-10.3c0.6,0.4,2.6,12.1,2.9,13.4c0.2,0.9,1.4,7.3,2.6,12.2
		c0.6,2.4,1.1,4.4,1.6,5.2c0,0,0,0,0,0.1c1.4,2.4,3.2,2,3.6,0.4c0-0.1,0-0.2,0.1-0.4c0-0.9-0.1-2.9-0.2-5.3
		c-0.4-6.1-1.3-14.6-1.3-14.6s-0.2-2.4,0.9-1.7c0.8,0.6,2,10.3,2.9,16.3c0.3,2,0.6,3.6,0.8,4.3c0.1,0.4,0.2,0.7,0.4,1
		c0.9,1.8,2.3,2.5,3.6,0.8c0.1-0.2,0.2-0.5,0.3-0.8c0.3-1.1,0.3-3.1,0.2-5.3c-0.4-6.2-1.8-14.7-1.8-14.7s-0.3-2.3,0.7-2.1
		c1,0.2,2.3,15,3.1,16.2c0.1,0.2,0.3,0.4,0.5,0.5c0.7,0.6,1.8,0.8,2.6,0c0.2-0.2,0.4-0.5,0.6-0.9c1.1-2.5-1.8-18.9-1.8-18.9
		s0.2-1.3,0.8-0.9c0.6,0.4,2.7,12.9,4,14.1c1.1,1,2,0,2,0c2.4-1.6-1.3-13.5-1.2-19.4c0-5.9-2.8-12.6-2-19.6c0-0.4,0.2-1.5,0.3-2.2
		l0,0c0-0.4,0-0.8,0-1.2c-1-10-8-78.2-11.8-109.3c-1.1-8.6-1.9-14.4-2.3-15.4c-0.5-1.2-4.8-7.5-10.7-16c-2-2.8-4.1-5.8-6.3-9l2-1.3
		l3-1.9l0,0c0,0-5.1-9.4-12.7-21.7c-13.1-21.1-33.6-50.8-48.1-56c-0.4-0.7-0.9-1.1-1.4-1.3c-9.5-2.6-15.6-4.4-27.5-5.6
		c-1.1-0.1-2.5-0.2-4.2-0.3l-4.2-24.7c0.9-3.9,3.6-10.8,12.4-17.1c10.8-7.8,18.3-22.2,14.2-36.7c-0.7-2.3-1.6-4.6-2.9-6.9
		c-0.4-0.7-0.8-1.4-1.3-2.1c-9.1-14-17.9-17.4-24.4-18.1c-35.4-27.1-46.5,13.5-37.7,12c-14.8,15.6-14.6,56.4-6.1,66
		c2.9,3.3,7.8,5,13.3,5.2c-0.2,2.3-0.5,4.6-0.9,6.9c0.3,0,0.6,0,0.9-0.1c-1.2,7.1-2.9,13.5-3.4,15.3c-5.7,0.2-10.3,0.7-12.2,1.3
		c0,0-0.9,0.9-2.2,2.6c-3.6,0.7-7,2-9.9,4c-14.9,10.6-56,52.5-56,52.5v0h0l2.3,2.3l-26.8,20.4c-4.2,3.2-9.5,5-14.9,5.1
		c-14.1,0.1-44.5,0.5-65.9,0.8c0-0.4,0-0.7,0-0.7s-25.1,0.5-26,0.3c-0.9-0.2-4.5-3.1-4.5-3.1l-2.2-1.3c-0.3-0.2-0.6-0.4-1-0.6
		l-0.5-0.3h0v0h0l-0.8-0.6c0,0-7.3-1.1-7.4-1c-0.2,0-4.8,0.9-5,0.9c-0.1,0-5,1-5,1s0,0,0,0c-1.2,0.2-2.5,0.4-3.4,0.7
		c-1.6,0.6-9.4,0.2-13.1,0v-0.5c-5.1-0.1-18.3-0.2-33.1-0.3c13.7-14.7,27.3-32.3,31.7-37.3c8.1-9.2,14.3-8.4,20.5-12.2
		c6.1-3.8,17.2-0.2,17.5-3l0,0c0.3-2.8-13.1-1.7-14.5-4.1c-1.4-2.4,15.5-6.8,15.5-9.2c0-4.5-18.8,3.7-18.9,1.6
		c-0.1-2.1,18.8-11.4,15.8-14.2c-3-2.8-18.6,11.7-19.8,9.5c-1.1-2.1,15.7-12.2,14.1-17.1c-0.9-2.6-26.6,20.8-30.4,20.2
		c-3.9-0.6,0-14.9-3.2-16.1c-3.2-1.2-4,28.2-5.6,29.6c-1.7,1.4-36.2,33.7-49.6,40.8c-1.2-1.7-5.1-6.4-9.5-11.6l3.7-3.6
		c0,0-12.2-22.9-25.3-39.4c-2.8-6-7.5-11.8-15.9-15c-1.4-0.8-2.8-1.2-4.2-1.4c-0.3,0-0.7-0.1-1.1-0.1c-2.9-0.7-6.2-1.2-9.7-1.6
		c-0.4-2.2-0.7-4.9-1-7.7c0.2,0,0.5,0.1,0.7,0.1c-0.2-2-0.3-4-0.3-5.9c5.8-2.8,11.3-13,13-24.9c0,0,0,0,0,0
		c-0.1-0.6,26.8-58.7-14-62.9c-1.3-0.1-2.7-0.3-4-0.5c-2-0.3-4.1-0.6-6.1-1.1c-3.8-0.9-8.6-1.8-11.5-1.6c-6,0.4-16,3.1-20.2,10.2
		c-5.3,8.8-18.9,5.4-7.7,43c2.8,9.5,6.2,16.4,9.8,21.4c3.2,4.4,6.5,7.3,9.7,9.1l-5.4,20.1c-1.4,0.1-11.1,1.2-20.2,2.9
		c-6,1.1-11.7,2.5-14.3,4.1c-0.6,0.4-1.2,0.8-1.8,1.4c-5.4,3.6-9.2,9.8-9.6,17.7c-0.1,1,0,2,0.1,3c-0.3,1.2-0.4,1.8-0.4,1.8
		s0.4,9.1,0.9,22.5c1.2,31.1,2.9,85.2,1.5,101.7c-1.6,18.2-2.4,92.7-2.4,92.7s0.6,0.1,1.6,0.2c0,9.6,0.4,23.8,1,40.5
		c0.1,1.7,0.1,3.5,0.2,5.3c0,0.3,0,0.6,0,0.8c0.1,1.5,0.1,3,0.2,4.5H323.3z"/>
	<path class="st14" d="M484.8,900.7H483v0.7c0.8,0,1.4,0,1.8,0V900.7z"/>
	<polygon class="st0" points="1125.1,1749.6 1125.1,1396 1125,1396 0,1396 0,1407.9 0,1425 0,1762 0.1,1762 1125.1,1762 	"/>
</g>
</svg>
