<?xml version="1.0" encoding="UTF-8"?><svg id="Capa_2" xmlns="http://www.w3.org/2000/svg" xmlns:xlink="http://www.w3.org/1999/xlink" viewBox="0 0 756.4444444444 787.4334741461"><defs><style>.cls-1{fill:url(#Degradado_sin_nombre_3);}.cls-1,.cls-2,.cls-3,.cls-4{stroke-width:0px;}.cls-5{stroke-width:4.4633108764px;}.cls-5,.cls-6,.cls-7{stroke:#000;stroke-linecap:round;stroke-linejoin:round;}.cls-6{stroke-width:4.3540325518px;}.cls-7{stroke-width:4.0649823359px;}.cls-3{fill:#f6f6f6;}.cls-4{fill:#101328;}</style><linearGradient id="Degradado_sin_nombre_3" x1="378.2222222221" y1="-96.9800569801" x2="378.2222222222" y2="830.5759032798" gradientUnits="userSpaceOnUse"><stop offset="0" stop-color="#ffffb0"/><stop offset=".0990070096" stop-color="#f9f9ac"/><stop offset=".2286084755" stop-color="#e8e9a3"/><stop offset=".3751562061" stop-color="#cdce93"/><stop offset=".5342559429" stop-color="#a7a87e"/><stop offset=".7034017074" stop-color="#777962"/><stop offset=".8783227558" stop-color="#3d3f41"/><stop offset="1" stop-color="#101328"/></linearGradient></defs><g id="Capa_1-2"><path class="cls-1" d="m222.7197170645,0C214.6937813145,26.0842911877,0,730.3601532567,0,730.3601532567c0,0,455.4718538167,128.4149720012,756.4444444444,0L549.77659888,10.0324196876,222.7197170645,0Z"/><ellipse class="cls-4" cx="403.065667389" cy="701.7280768371" rx="205.1507238673" ry="37.1874772989"/><path class="cls-5" d="m512.7765595959,424.0544381036c5.1930932687,11.3656766959,49.1248138467,90.7444248173,48.0798281383,120.6339009518-.8622950519,24.6640190057-114.9930428454,14.8143957355-115.7998161897,12.5865302511s-6.5026821791-43.3974476072,1.0358012554-41.7173097063c7.5384834345,1.6801379009,29.8222918459-3.014831705,64.8677912518,3.4758380883-.2830231004-8.0520103011-37.9316905052-50.4830456018-35.0059953699-56.5125108135,2.9256951353-6.0294652117-25.6972079911-57.5049541578-11.5775624221-67.4141319651,14.119645569-9.9091778073,48.3999533362,28.9476831936,48.3999533362,28.9476831936Z"/><path class="cls-3" d="m469.0976452932,514.092000817l.592361157,47.9812537185s-10.0701396693,2.3694446281-9.4777785123-1.184722314,8.8854173553-46.7965314044,8.8854173553-46.7965314044Z"/><path class="cls-5" d="m324.1099532937,506.5328349676c1.7526298401,2.7923667697,4.2924013896,5.0020087616,6.2307755116,7.6687913242,4.9728791484,6.8416036313,5.4954148115,15.8435942882,5.8352087825,24.2947248183.366186149,9.1075499992.7242854653,18.3221028048-1.1099340367,27.2505515229-1.6836759369,8.195646156-5.1722332935,15.9258549691-7.0055639645,24.0893270872-5.3772871474,23.9440338821,5.6756186587,51.0924806797,27.0311963248,63.1826120828,8.2436850413,4.6670337293,17.5566072193,7.1014181951,26.863440728,8.8684416669,22.5629656766,4.2838731964,46.9472522158,4.663981283,67.3698597002-5.8410690302,5.6404399374-2.9013486833,11.104498703-6.8535531294,13.7892414212-12.6002507686,2.2634829572-4.8449939476,2.2982315628-10.3959605851,2.2235177152-15.7430832859-.3921725295-28.0665493138-2.6343788475-56.1233919857-1.6547688727-84.1755813784,1.2766448563-36.5580460875,8.0632315882-72.9188091465,20.059953475-107.4759965977,4.050571945-11.6678848891,8.2906935262-25.8801860591.2790846571-35.2802282765-5.2070787757-6.1094756978-36.8619623946-22.016453171-44.8103563113-23.140012164-41.9787509247-5.9339762299-61.3496626804,5.9236280524-103.6768980018,3.5085200014-3.4712107388-.1980611184-7.2065866483-.3308151397-10.1305011174,1.5504759154-2.9070453416,1.8704379434-4.3440284752,5.3145434585-5.3773683568,8.6132952231-6.9225426246,22.0989726039-.3786760959,39.1229594994,6.6625870496,59.6227479072,6.320423893,18.401151864-13.1386822408,38.7832888758-2.5794747039,55.606733952Z"/><path class="cls-5" d="m363.657359344,617.1628421381c-18.9041710188-36.563822097-65.9412335606-112.9008670847-85.8923677676-124.9882041308-13.0746891635-7.9212626737-15.1150008312-16.2767009421-28.5504928276-15.7432930045-13.4354919964.5334079376-28.2501035796,6.2926905914-29.958827794,15.0574158895-1.7087242144,8.7647252982-3.6646518996,20.1835885328-2.0817290027,31.9320563951,1.5829228969,11.7484678622,2.8969422428,35.9653139184,10.4256501875,50.9447278154s39.8998748003,58.5645547489,42.1495072715,74.424269715c2.0877954784,14.7187357198,41.1123631372,49.5261540889,61.624581317,60.1890861562,8.8143491462,4.5819161136,68.0600207658-.2644381525,71.971876136-23.1021646219,3.9118553702-22.8377264693-39.6881975202-68.7138942141-39.6881975202-68.7138942141Z"/><path class="cls-5" d="m459.4408402636,600.4332693706c125.0424725717-42.3230518238,194.3316303049,43.0849472843,51.4082845394,96.8570485499-34.0862465478,6.9561491862-43.7248597585,15.4596674169-74.2814012454,18.4610650316-30.5565414869,3.0013976146-51.7361125158.257474609-71.4294613211-18.3236040381-65.7539326024-92.830756633,33.1825610993-93.3993219499,94.3025780271-96.9945095434Z"/><path class="cls-3" d="m228.9464742768,483.3890813218c-3.2420614991.7819358977-6.4877316632,1.5648796837-9.6621358595,2.5873983904-1.4795987077.4765979104-3.1804074381,1.2822887067-3.383311329,2.8234531026-.1483398597,1.1267351458.6481650112,2.2117253283,1.6534200345,2.7418162567s2.1789624749.6180856495,3.3147899116.6559021553c10.7504955294.357922923,22.2034579938-4.332912989,32.4114933852-7.7237082608,4.2374466122-1.407549386,15.0888608363-7.8719320836,6.4172458677-8.7866904958-3.7369770727-.3942092938-13.6956498014,3.5882168625-17.3831735319,4.4775914678l-13.3683284786,3.2242373837Z"/><path class="cls-5" d="m367.8038874431,375.7756706533c-9.7739590908,3.5541669421-44.1309061978-.197453719-57.4590322307,6.0223384297s-29.9142384294,17.672107851-37.9111140491,29.2231504129c-7.9968756197,11.5510425619-21.3250016526,20.5351867766-21.3250016526,20.5351867766,0,0-41.4652809913,28.6307892559-45.0194479334,32.184956198s-7.1083338842-2.6656252066-5.3312504132,7.9968756197c1.7770834711,10.6625008263-.8885417355,19.5479181816,19.5479181816,16.882292975s37.3187528921-9.7739590908,46.2041702474-15.105209504c8.8854173553-5.3312504132,35.5416694211-24.8791685948,38.2072946277-26.6562520658s8.8854173553-4.4427086776,14.2166677684-2.6656252066,10.6625008263,8.8854173553,13.3281260329,8.8854173553,19.5479181816-51.5354206606,23.1020851237-58.6437545448,12.4395842974-18.6593764461,12.4395842974-18.6593764461Z"/><path class="cls-5" d="m250.8445178465,445.9954800317c2.5547384695-12.2437851049,32.9501912098-53.4042273922,20.9760675304-55.2733761789,4.703455295-10.2334176771,8.6974008333-17.9398040293,10.0863525536-19.1463147991,3.7946343064-3.2962032379,6.1421789677,1.3224818779,10.1860288083-5.5191401321s14.4167902996-15.0198262213,2.8941792901-15.8297767075-6.0939754074-14.680106157-21.5840320507,2.9364802598c-6.2931734316,7.157122543-13.3052301231,16.1749955319-19.671953324,24.6408200248-6.9851814268-4.4441971093-17.2304945009,23.5650036873-19.5204674109,26.048306215-3.8569381899,4.1825579309-16.1753993624,27.3664880402-21.2302116632,35.9185155528-5.0548123008,8.5520275126-12.6440809135,15.1444339884-11.5567142466,25.0189433789,1.0873666669,9.8745093905,11.2874957985,16.8266388445,29.000489336,5.6014469295s20.4202611769-24.3959045433,20.4202611769-24.3959045433Z"/><path class="cls-5" d="m282.9520036277,344.0364896861c3.6700265393-1.5234938518,18.4124365799-8.5038239522,23.9174763887-10.78906473s7.5656808058-4.5483032236,14.3062828557-.7758472492c13.1812874284,7.3770601115,21.7561015165,8.0480339744,22.9680759506,16.1498339788s-1.7475692941,8.7378464707-1.7475692941,8.7378464707c0,0-10.9092572069-7.4149492681-14.330068212-9.4368741884s-13.378240067,13.4873791912-13.378240067,13.4873791912c0,0-7.5269647292,5.7060517828-12.0210420779,6.280887058s-15.1303336652-.1728113274-15.1303336652-.1728113274l-4.5845818788-23.4813492038Z"/><path class="cls-3" d="m334.7069646343,560.0772962771c-1.7770834711,2.6656252066-11.7759902335,18.14456021-15.7728726452,29.8369326382-6.6146995867,19.3504644626,2.4913460097.9202869387,2.4913460097.9202869387l13.2815266355-30.7572195769Z"/><path class="cls-2" d="m385.361579315,712.0306993451c.8892870373.1001097888,1.9259516206.1484623299,2.5280266293-.5136245887.9421121856-1.0360157519-.0356264631-2.6656241258-1.0718743303-3.6074811815-4.0396398186-3.6716752041-9.4388967064-5.8118825091-14.8970282268-5.9050246753-2.6931022009-.0459573672-16.0287347194,2.0337740487-11.2526038739,7.1215381732,1.4504110436,1.5450475525,9.6017282127,1.2056673916,11.7335949479,1.4456581851,4.3199484417.4863098791,8.6398968834.9726197582,12.9598848537,1.4589340872Z"/><path class="cls-3" d="m467.9129229791,615.1883049481c0-8.2930561982-.394907438-20.1402793386-.394907438-20.1402793386,0,0-5.5287041322,41.6627347103-3.7516206611,39.2932900822s4.1465280991-10.8599545453,4.1465280991-19.1530107436Z"/><path class="cls-3" d="m262.512676596,415.3404274728c-1.9110129255.4968165794-25.967133675,19.3998921449-25.967133675,19.3998921449l25.7147957627-15.6619789314.2523379124-3.7379132135Z"/><path class="cls-3" d="m317.9340461367,595.7626424399c-5.0157443182,14.3554896385,4.3689333012,29.8855632844,16.8420427681,36.8716997949,12.9946710277,7.2455123449,28.2510147341,8.1475585248,42.9733811686,8.9242570883,15.1065167595.9075361875,30.2282034911,1.2766061007,45.3629816733,1.489674857,14.4555540778-.0589979063,31.4772940072,1.415855822,42.2922704084-10.0427848461-9.0709455797,13.4735945449-27.6564851265,13.8558919679-42.2082599054,14.6710977233-15.2458418824.7598529379-30.5298361548.5690773808-45.7738896695-.1987433562-22.5587008413-.971807373-50.6655673619-5.1489109752-60.0946799571-29.0324228675-2.8801500717-7.1981184044-3.2836725648-15.8531096771.6061535135-22.6827783938h0Z"/><path class="cls-3" d="m496.6923871765,602.8776578735c-10.6036019396.6237412906-21.0954856354,4.0278831032-31.6807734562,4.3967445527,4.6702311956-5.8255831358,24.1344268401-3.8621113516,31.6807734562-4.3967445527Z"/><polygon class="cls-3" points="291.3893073671 530.6781087485 324.775965082 576.5182576743 321.9776252382 578.4310994712 291.3893073671 530.6781087485 291.3893073671 530.6781087485"/><path class="cls-5" d="m441.4443572222,389.2523858731c.4746639456,2.6881058994.7500490035,5.9170664867-1.3248343731,7.6907852102-1.2758956519,1.0907022699-3.0763974368,1.2630901613-4.7525668721,1.3525152537-13.8822742246.7406323792-35.8523629409-.8516942099-49.2139711667-4.6901177034-4.6921093405-1.3479128134-9.4728207126-3.0715520261-12.949244664-6.4989760035-6.5115698679-6.4197919287-6.5644545245-17.4116406878-2.2664889526-25.482684846,4.2979342488-8.0709853374,12.0146165019-13.7294121609,19.8890264546-18.37772494,8.821378235-5.2073139948,29.1735103129-13.7277458773,31.9032652204-1.8411035175,4.9481082141,21.5464005712,16.5900304849,35.8142830404,18.7148143535,47.8473065465Z"/><path class="cls-7" d="m320.3334291188,261.1466495552c-3.5529155447,12.9515107863-11.8230445328,27.9262179229,8.2091998197,65.2170140816,19.4715977525,36.2471308702,40.7217212163,46.5629819214,50.3936456889,43.7732795925,19.5745988419-5.6459605461,45.5725665886-30.3721354584,48.9848775115-64.4861714902s-25.0306670396-77.5926502993-54.8511181329-77.6051990609c-28.2715326115-.0118969603-49.1836893426,20.1495660907-52.7366048873,33.101076877Z"/><path class="cls-3" d="m387.4942555754,319.3788981011c-7.1790293375-3.742768966-13.6978447805-8.5934225212-20.1816354394-13.4218975719-9.2995730195-6.9254168752-18.599146039-13.8508337504-27.8987190585-20.7762506257-4.9281119751-3.6699896508-10.2083774547-7.479164051-16.3515800162-8.017822039-1.6321023685-.1431521651-3.3702647773-.0194468412-4.7439854366.8645063966-1.047260758.6738753216-1.7802184348,1.721012922-2.4858396947,2.7411590874-4.0992797017,5.9269939371.3102698633,15.4405229044-3.7890098384,21.3675168414,1.5577814852,3.5355527924,3.1927726432,3.7435243102,6.0207775363,6.5177885552.7376889797.7236956571,1.3114701146-16.4095222313,2.8222394702-15.2702474722-.564447894,9.6835715677,16.5571382249,19.3671431355,20.6964227811,30.9129400047,16.23605737,16.5469854329,39.6367854475,29.6714564704,46.8491752045,17.504917834,9.8025368045,4.2622402713,38.9469046881,15.1460991188,34.0666991174,1.0504416936,1.9521881533-1.1353313014,3.7566545155-2.5507881708,5.4141219246-4.1902414313-6.2902015146-3.9246196946-12.871312446-7.3923361816-19.6843886454-10.3404512842-6.9103307593-2.9901306858-14.0615636922-5.4635867692-20.734277905-8.9423599886Z"/><path class="cls-6" d="m389.3039546518,334.7385383144c9.8025797332,4.2622509687,32.0542735837,16.2499489512,33.1948406596,2.5267242618,13.114787867-7.6273765593,19.7262461062-27.6455786891,17.8651864059-46.4051439578-1.025705989-10.3391623833-5.552713644-28.6053286865-9.6842943375-38.1555526831-10.1163839222-23.3842057899-33.7044614806-42.8315763002-59.3089162516-40.6299013353-12.2339523141,1.051972211-23.5559494604,6.7734427636-33.8980062451,13.3268985341-13.3586879203,8.4650058328-26.1018190962,19.0092057014-32.7839199367,33.2476727357-6.6820903541,14.2384446896-5.8657378339,32.8209057296,5.4000842295,43.8726487667.7377160072.723697538,8.6001602305-22.1249335145,10.4448416035-22.5725575538,1.7705269373-.4296299789,3.6726195404,12.4900042998,6.3735098552,20.1383352756,12.5744386869,4.9177869461,16.0214231835,17.6817137541,17.3097354169,18.9946980752,16.2360618187,16.5469938501,42.0200098889,29.4231597635,45.0869386004,15.656177881Z"/><path class="cls-2" d="m342.9540026741,213.6859557114c-5.0052143503.7191716082-9.7254493676,2.7871316127-14.0826995829,5.328811139-3.9777674567,2.3203185716-7.7860548076,5.1282360486-10.3692521469,8.9160008955s-3.7965893943,8.6969293874-2.3290090942,13.0298493944c2.1039173723-6.9302151203,7.0100833628-12.9439595682,13.3000814502-16.6326254831,6.2899440923-3.6886342504,13.8896905204-5.0621411378,21.1267012008-4.0344545097,3.0596147017.4344784391,8.0576453743-.3318531716,5.3418091433-4.4561034671-2.0225072444-3.0713656461-9.9796515748-2.5836746182-12.9876309703-2.151477969Z"/><path class="cls-2" d="m443.4197353542,254.9571113878c2.4489332578-4.4830877085,3.1050487189-9.6976789678,3.3850062849-14.7865266697,1.833206891,1.8582328743,2.0547344314,4.7230310764,1.964189514,7.3186363632-.1710509802,4.90336413-1.1828718869,10.01265834-4.3298205273,13.8035129937-1.3954526017,1.6809667351-9.9882640753,7.486004121-9.654046721,2.4055328199.1479061006-2.2483353707,7.2158386874-6.1437994102,8.6346714493-8.7411555071Z"/><path class="cls-3" d="m406.3062843948,262.098266208c8.7316833936,1.8332078186,21.5040066744-6.9771900353,27.3298065445-12.4570836842,4.7768208639-4.4931974588,9.2496548391-10.0258992714,9.1701120422-17.3607946461-.0798700363-7.3651883876-5.0816564222-15.3447857394-11.7475121557-20.1298070072-14.7356201005-10.5778252031-39.4422107749-5.8996061725-46.440890654,7.0902163772-7.714958264,14.3192631406-3.1472231144,37.6432381162,21.6884842229,42.8574689603Z"/><path class="cls-6" d="m413.0796591231,259.1187057256c8.7316833936,1.8332078186,21.5040066744-6.9771900353,27.3298065445-12.4570836842,4.7768208639-4.4931974588,9.2496548391-10.0258992714,9.1701120422-17.3607946461-.0798700363-7.3651883876-5.0816564222-15.3447857394-11.7475121557-20.1298070072-14.7356201005-10.5778252031-39.4422107749-5.8996061725-46.440890654,7.0902163772-7.714958264,14.3192631406-3.1472231144,37.6432381162,21.6884842229,42.8574689603Z"/><path class="cls-3" d="m368.0272858426,364.5825445723c0-1.3980554353-4.1941663059-20.5048130513-4.1941663059-20.5048130513,0,0,.9320369569,26.563053271,2.3300923922,26.563053271s1.8640739138-6.0582402197,1.8640739138-6.0582402197Z"/></g></svg>