<?xml version="1.0" encoding="UTF-8"?><svg id="Capa_2" xmlns="http://www.w3.org/2000/svg" viewBox="0 0 460.8276420171 874.889516403"><defs><style>.cls-1,.cls-2{fill:none;stroke:#9c3587;stroke-linecap:round;stroke-linejoin:round;stroke-width:3.3962759549px;}.cls-3{fill:#fff;opacity:.35;}.cls-3,.cls-2,.cls-4,.cls-5,.cls-6,.cls-7{fill-rule:evenodd;}.cls-3,.cls-4,.cls-5,.cls-6,.cls-7{stroke-width:0px;}.cls-4{fill:#120033;}.cls-5{fill:#653780;}.cls-6{fill:#e53f71;}.cls-7{fill:#f89f5b;}</style></defs><g id="Capa_1-2"><line class="cls-1" x1="133.4034089276" y1="273.8891323744" x2="206.0369378457" y2="692.9778452992"/><line class="cls-1" x1="290.9640095581" y1="375.0010625828" x2="205.6968856142" y2="691.0238718657"/><path class="cls-2" d="m205.3862031385,693.0581698137c-4.5179541134,50.3801016953-16.7580995106,100.7609110956-39.8993438736,116.165879119"/><path class="cls-2" d="m205.3862031385,693.0581698137c7.1966516997,90.0664273797-18.70711896,120.2401366549,15.5450932156,180.1332086119"/><path class="cls-2" d="m205.3862031385,693.0581698137c8.7854493264,34.2369973839,26.0832089661,76.3429663747,11.418465616,139.9490124782"/><path class="cls-2" d="m205.3862031385,693.0581698137c-2.8417892517,28.6609898931-34.5812614127,40.7638065074-40.3897834083,24.6649337569-5.808455154-16.0988727505,16.0677333258-26.5959067787,40.3897834083-24.6649337569Z"/><path class="cls-2" d="m205.3862031385,693.0581698137c2.8414353992,28.6609898931,34.5809411277,40.7638065074,40.3894650173,24.6649337569,5.8088068191-16.0988727505-16.0677687872-26.5959067787-40.3894650173-24.6649337569Z"/><path class="cls-6" d="m140.1800377357,308.8854963114c-31.7946747244,4.4111249921-63.965204762-19.0238351545-89.6672489804-52.7254346475C10.7949406743,204.0850078712-15.2429400746,120.8493510041,9.9304790703,64.3146944298,42.1441774368-8.0343370959,143.6615922678-22.4899185314,198.0787956131,37.0779614852c42.0026430035,45.97746789,38.2351756691,135.30787984,14.0267122321,196.6612994611-15.5553549375,39.4255354055-40.1300556894,70.7347565206-71.9254701094,75.1462353652Z"/><polygon class="cls-7" points="137.8378881832 299.4868206405 131.8878587638 336.7849949476 144.0097831063 335.1031341191 153.7180796955 333.756017735 137.8378881832 299.4868206405"/><path class="cls-3" d="m85.9585148108,18.1192534133c11.5568219349-1.6040132832,22.2254741497,6.4655924799,23.8291335805,18.0227682673,1.6040132832,11.5571514432-6.4655924799,22.2265357072-18.0227366965,23.829487433-11.5568222268,1.6036594308-22.226567278-6.4659463324-23.8291651513-18.0227682673-1.6040132832-11.5571757874,6.4645309225-22.2254741497,18.0227682673-23.829487433Z"/><path class="cls-3" d="m62.3636315708,141.9191429604c3.4978317461,11.0387819069-2.6160313706,22.8252541001-13.6544594251,26.3230858462-11.0394896119,3.4974778936-22.8252541001-2.6160313706-26.3227319937-13.6544594251-5.017274287-15.6908804366-6.3413902601-31.7292440067-4.4585412241-47.1621659867,1.954681089-15.9966089777,7.3841935131-31.3131134924,15.7457275707-44.8904330773,6.0413233587-9.8459452033,18.9243843815-12.9311849599,28.7713911422-6.8898616012,9.8466529082,6.0423849161,12.9322465173,18.9254222736,6.8898616012,28.7724526996-5.2058467852,8.4503510296-8.5879996436,18.0054294959-9.8087906931,27.9999927399-1.1683901558,9.583032812-.3248365749,19.6126274514,2.8375430219,29.5013888045Z"/><path class="cls-5" d="m289.1253920819,384.5119094893c-30.6910408359-9.4025680482-49.9848472046-44.2152825491-59.0845175315-85.6107147001-14.0628051848-63.9655586145-2.58595391-150.4198576224,44.0740954103-191.0743226843,59.7101287128-52.0251605933,157.8603136795-22.3390607952,182.0949621999,54.616776143,18.70570355,59.3983846796-22.3680766984,138.8166810129-70.1841620647,184.2463852668-30.7253645263,29.1928294436-66.2082756207,47.2244440229-96.9003780141,37.8218759747Z"/><polygon class="cls-5" points="290.9640095581 375.0021080644 269.8447143244 406.3152376327 281.5462258534 409.9011786458 290.918008736 412.7719838007 290.9640095581 375.0021080644"/><path class="cls-3" d="m362.5303194023,97.9869423938c11.1559457699,3.4171533811,17.429003809,15.232287625,14.0115353404,26.3878408497-3.4182150248,11.1569686346-15.2323263898,17.4300653665-26.388941172,14.011850428-11.1559070772-3.4175072335-17.429003809-15.232287625-14.011850428-26.3881947022,3.418568791-11.1569686346,15.2333491824-17.4300653665,26.3892562596-14.0114965755Z"/><path class="cls-3" d="m288.9459888755,200.3026787327c-1.4815803258,11.4846360294-11.9934758929,19.5952686859-23.4784298158,18.1140622066-11.4839642833-1.4815803258-19.5956784914-11.9945374503-18.1140981656-23.4784657747,2.0654369147-16.3437382587,7.6262286081-31.4454543192,15.8391446249-44.6466504724,8.5158137381-13.6813304609,19.8964171389-25.2816762506,33.2019780205-34.0696025443,9.6290336342-6.3813755901,22.6125887608-3.7483593006,28.9950259084,5.8820897435,6.3813755901,9.6290336342,3.7483593006,22.6125887608-5.8820897435,28.9939643509-8.2829788075,5.4694977541-15.3777209935,12.7086117511-20.6975391493,21.2566260647-5.0997219144,8.1969926553-8.5621318278,17.6476846405-9.8639916796,27.9479764256Z"/><path class="cls-4" d="m207.0652331471,493.5483659449c-32.0997275512,0-60.7433449998-27.6341092776-81.5707809576-64.5483683576-32.183944441-57.0399432013-46.5354620007-143.0632498909-13.8310318117-195.6029119874,41.8511941429-67.2340939547,144.3916625265-67.601392827,190.1065361567-1.1192353883,35.2851075591,51.3125017024,19.2764675972,139.277734629-13.1339424298,196.7221473756-20.8263414513,36.9131975226-49.4703104069,64.5483683576-81.5707809576,64.5483683576Z"/><polygon class="cls-4" points="206.0369378457 483.9168553434 195.0165562676 520.043777948 207.2556057803 520.043777948 217.0576732763 520.043777948 206.0369378457 483.9168553434"/><path class="cls-3" d="m193.3184182252,198.0889776297c11.6675777605,0,21.1260545003,9.4584767397,21.1260545003,21.1271160577,0,11.6672239081-9.4584767397,21.1260545003-21.1260545003,21.1260545003-11.6682854655,0-21.1271160577-9.4588305922-21.1271160577-21.1260545003,0-11.668639318,9.4588305922-21.1271160577,21.1271160577-21.1271160577Z"/><path class="cls-3" d="m152.9328810466,317.4724343976c1.947957892,11.4145732387-5.7274562106,22.2484745608-17.1420294493,24.1964324528-11.4148946965,1.9468963345-22.2498578498-5.7285348307-24.1967863053-17.1430910067-2.8134810534-16.2312131707-1.9206792279-32.2989464964,2.0664984721-47.3277689465,4.1333507967-15.5751706763,11.6173307086-30.0010285036,21.7651120757-42.2995252326,7.3371311335-8.9230979404,20.5223821726-10.2079362884,29.445480113-2.8704709901,8.9220363829,7.3371508212,10.2079362884,20.5231095653,2.8697435974,29.4454998007-6.3173282916,7.6559334659-10.9803630353,16.6554822919-13.5634861907,26.3871331447-2.4745235269,9.3310898476-3.0169793758,19.3815617832-1.244532313,29.6117907777Z"/></g></svg>