<?xml version="1.0" encoding="utf-8"?>
<!-- Generator: Adobe Illustrator 27.9.1, SVG Export Plug-In . SVG Version: 6.00 Build 0)  -->
<svg version="1.1" id="Capa_2_00000170256168768715134710000009506717854331647127_"
	 xmlns="http://www.w3.org/2000/svg" xmlns:xlink="http://www.w3.org/1999/xlink" x="0px" y="0px" viewBox="0 0 661 1336.9"
	 style="enable-background:new 0 0 661 1336.9;" xml:space="preserve">
<style type="text/css">
	.st0{fill:none;stroke:#373151;stroke-width:7;stroke-linecap:round;stroke-linejoin:round;}
	.st1{fill:#F7A27E;}
	.st2{fill:#DA374A;}
	.st3{fill:#A65137;}
	.st4{fill:#FF2C81;stroke:#373151;stroke-width:7;stroke-linecap:round;stroke-linejoin:round;}
	.st5{fill:#FFFFFF;stroke:#373151;stroke-width:7;stroke-linecap:round;stroke-linejoin:round;}
	.st6{fill:#FF2C81;stroke:#373151;stroke-width:3.9878;stroke-linecap:round;stroke-linejoin:round;}
	.st7{fill:#FFFFFF;}
	.st8{fill:#373151;}
	.st9{fill:#E67F26;stroke:#373151;stroke-width:11.6898;stroke-linecap:round;stroke-linejoin:round;}
	.st10{fill:#F0CC16;}
	.st11{fill:none;stroke:#373151;stroke-width:11.6898;stroke-linecap:round;stroke-linejoin:round;}
	.st12{fill:#FF5061;}
	.st13{fill:#354D6F;}
	.st14{clip-path:url(#SVGID_00000169541570000358423990000006269801534127503510_);}
	.st15{fill:#A15420;}
	.st16{fill:#98430A;}
	.st17{fill:#E0A99E;}
	.st18{fill:#CDBDC7;}
	.st19{fill:#F2F2F4;}
	.st20{fill:#AFB1B4;}
	.st21{fill:#827F7F;}
	.st22{fill:#0CABE0;}
	.st23{fill:#999B9E;}
</style>
<g id="Capa_1-2">
	<path class="st0" d="M593.3,211.3c-22.4,12.6-32.7,15.1-13.5,44.1c7.2,10.9,22.3,7.2,40.1-4.8c17.8-12,26.2-30.6,18.9-41.4
		S612.1,200.8,593.3,211.3L593.3,211.3z"/>
	<path class="st1" d="M121.7,1014.2l33,3.5l77.3-38.5c55.8-70-4.7-255-33.3-343.8l-89.9-307.7c-14.3-54.4-33.6-100-87.1-117.4l0,0
		c-11,1.1-18.4,11.9-15.3,22.5c15.9,54.5,36.9,239.6,21.1,472.2c-2.7,39.1,15.6,82.4,36.9,123.7
		C93.3,884.9,121.5,951.1,121.7,1014.2L121.7,1014.2z"/>
	<path class="st2" d="M4.9,252.6c4.1,25.6,12.2,34,12.2,34c8.5-0.8,13.4-16.9,9.2-38.2s-12.5-37.7-18.3-36.5
		C2,213,1.4,231.2,4.9,252.6z"/>
	<path class="st3" d="M254.3,975.6c-0.1,0-0.2,0-0.4,0c-1.1-0.1-1.9-1.1-1.8-2.1c0.1-1.2,10.3-117.9-22.3-226.8
		c-0.3-1,0.3-2.1,1.3-2.4c1-0.3,2.1,0.3,2.4,1.3c32.8,109.7,22.6,227.1,22.5,228.3C256,974.7,255.2,975.5,254.3,975.6L254.3,975.6z"
		/>
	<path class="st2" d="M589.7,215.7c-22.4,12.6-32.7,15.1-13.5,44.1c7.2,10.9,22.3,7.2,40.1-4.8c17.8-12,26.2-30.6,18.9-41.4
		S608.5,205.1,589.7,215.7z"/>
	<path class="st1" d="M438.9,285.7l43.2,80.7l121.6-74.1c24.5-14.9,33.1-44.4,21-67l0,0c-6.1-11.5-20.9-16.2-33.3-10.4L438.9,285.7
		L438.9,285.7z"/>
	<path class="st0" d="M442.5,281.3l43.2,80.7l121.6-74.1c24.5-14.9,33.1-44.4,21-67l0,0c-6.1-11.5-20.9-16.2-33.3-10.4L442.5,281.3
		L442.5,281.3z"/>
	<polygon class="st1" points="485.4,466 536.6,519.6 619.2,441.5 580.7,375.2 	"/>
	<polygon class="st1" points="634.9,752.7 571.9,841.8 525.5,802.5 585.4,722.8 	"/>
	<polygon class="st1" points="646.1,621.8 560.4,706.4 517.6,654.7 598,579.7 	"/>
	<path class="st1" d="M533.8,575.6l3.3,251.8c-10,45.9-38.7,83.6-76.7,106.1c-2.2,1.3-4.3,2.5-6.5,3.7
		c-30.5,16.3-50.1,47.6-50.7,82.1c0,0.1-0.1,0.3,0,0.5l-1.1,72.9l-2.3,152l-1.4,92.3c-20.4-21.6-82.7-41.7-157.9-48.8
		c-3.5-0.3-7-0.7-10.4-0.9c-38.4-3-73.7-1.9-101.6,2.4c-26.1,4-45.8,10.7-55.4,19.6L77,1284l31.1-187.8l20.8-125.9
		c2.7-16.3,4.8-32.8,6.3-49.4l33.9-379.5L533.8,575.6L533.8,575.6z"/>
	<path class="st4" d="M576.5,817.9l-366.7,35.6c-16,1.5-30.2-10.2-31.7-26.1L104.7,70.9c-1.5-16,10.2-30.2,26.1-31.7L497.5,3.6
		c16-1.5,30.2,10.2,31.7,26.1l73.3,756.4C604.2,802.1,592.4,816.3,576.5,817.9z"/>
	<path class="st5" d="M554.2,796.4L227.5,828c-14.7,1.4-27.7-9.3-29.1-24L129.1,89.8c-1.4-14.7,9.3-27.7,24-29.1L479.8,29
		c14.7-1.4,27.7,9.3,29.1,24l69.2,714.2C579.6,781.9,568.9,794.9,554.2,796.4z"/>
	<path class="st6" d="M121.2,234.2l-2.2,0.2c-2.1,0.2-4.1-1.4-4.3-3.5l-5.6-57.5c-0.2-2.1,1.4-4.1,3.5-4.3l2.2-0.2
		c2.1-0.2,4.1,1.4,4.3,3.5l5.6,57.5C124.9,232.1,123.4,234,121.2,234.2z"/>
	<path class="st6" d="M128,303.8l-2.2,0.2c-2.1,0.2-4.1-1.4-4.3-3.5l-5.6-57.5c-0.2-2.1,1.4-4.1,3.5-4.3l2.2-0.2
		c2.1-0.2,4.1,1.4,4.3,3.5l5.6,57.5C131.7,301.7,130.1,303.6,128,303.8z"/>
	<path class="st6" d="M549.9,190l-2.2,0.2c-2.1,0.2-4.1-1.4-4.3-3.5l-5.1-52.2c-0.2-2.1,1.4-4.1,3.5-4.3l2.2-0.2
		c2.1-0.2,4.1,1.4,4.3,3.5l5.1,52.2C553.7,187.9,552.1,189.8,549.9,190z"/>
	<path class="st7" d="M307.4,36.1l-23.8,2.3c-1,0.1-1.8-0.6-1.9-1.6l-0.1-1c-0.1-1,0.6-1.8,1.6-1.9l23.8-2.3c1-0.1,1.8,0.6,1.9,1.6
		l0.1,1C309,35.2,308.3,36,307.4,36.1z"/>
	<path class="st7" d="M329.9,31.7c0.4,4,3.9,6.9,7.9,6.5c4-0.4,6.9-3.9,6.5-7.9c-0.4-4-3.9-6.9-7.9-6.5
		C332.4,24.2,329.5,27.7,329.9,31.7z"/>
	<path class="st7" d="M314.6,33.2c0.3,2.8,2.8,4.9,5.6,4.6c2.8-0.3,4.9-2.8,4.6-5.6s-2.8-4.9-5.6-4.6
		C316.4,27.9,314.3,30.4,314.6,33.2L314.6,33.2z"/>
	<path class="st1" d="M519.5,700.7L519.5,700.7c2.7-10.8,13.3-17.4,24.6-15l72.3,23.1c21.1,6.7,30.3,30.5,16.9,45.1l-19.1,20.8
		l-69.2-27C525.7,740.3,514.7,719.4,519.5,700.7L519.5,700.7z"/>
	<path class="st1" d="M528.1,517.6c5.5-12.2,21.9-21.5,41.3-7.2l59.4,47.5c19.8,16,40.7,39.3,20.3,61.9l-29.3,27.9L548.8,581
		C517,546.7,528.1,517.6,528.1,517.6L528.1,517.6z"/>
	<path class="st2" d="M561.7,692.6c22.7,8.6,32.3,10.1,22.9,31.9c-3.5,8.2-17.6,6-36.1-2.3c-18.5-8.3-30.6-21.6-26.9-29.8
		S542.8,685.4,561.7,692.6z"/>
	<path class="st0" d="M588.2,764.6L545,747.8c-19.3-7.5-30.3-28.3-25.5-47.1l0,0c2.7-10.8,13.3-17.4,24.6-15l72.3,23.1
		c21.1,6.7,30.3,30.5,16.9,45.1l-28,42.2"/>
	<path class="st0" d="M561.7,692.6c22.7,8.6,32.3,10.1,22.9,31.9c-3.5,8.2-17.6,6-36.1-2.3c-18.5-8.3-30.6-21.6-26.9-29.8
		S542.8,685.4,561.7,692.6z"/>
	<path class="st2" d="M576,514.9c17.9,16.4,26.4,21.2,8.3,39.1c-6.8,6.7-19.2-0.5-33.2-15.1c-14.1-14.6-19.9-31.9-13-38.5
		C545,493.8,561.1,501.2,576,514.9L576,514.9z"/>
	<path class="st0" d="M578.7,609.1L548.8,581c-31.7-34.3-20.6-63.4-20.6-63.4c5.5-12.2,21.9-21.5,41.3-7.2l59.4,47.5
		c19.8,16,40.7,39.3,20.3,61.9l-52.2,49"/>
	<path class="st0" d="M576,514.9c17.9,16.4,26.4,21.2,8.3,39.1c-6.8,6.7-19.2-0.5-33.2-15.1c-14.1-14.6-19.9-31.9-13-38.5
		C545,493.8,561.1,501.2,576,514.9L576,514.9z"/>
	<path class="st3" d="M593,438c-0.7,0.1-1.5-0.3-1.9-0.9c-0.3-0.3-1.8-0.9-3.1-1.4c-6.8-2.7-20.9-8.2-37.9-31.7
		c-0.6-0.9-0.4-2.1,0.4-2.7c0.9-0.6,2.1-0.4,2.7,0.4c16.4,22.6,29.7,27.8,36.2,30.3c2.7,1.1,4.3,1.7,5.1,3.1
		c0.5,0.9,0.2,2.1-0.8,2.7C593.5,437.9,593.2,438,593,438L593,438z"/>
	<path class="st8" d="M403.1,1019.3c0.7-34.6,20.2-65.9,50.7-82.2c2.2-1.2,4.4-2.4,6.5-3.7c0,0-15.2,6.6-62.9,15.3
		C358.9,955.8,391.7,982.1,403.1,1019.3L403.1,1019.3z"/>
	<path class="st8" d="M401.9,1092.6l-15.8,13c-44.5,20.4-103.7,36-169.7,42.7l-12.7-10.8c-34.7,3.4-58,15-88.8,13.2
		c-18.1-1.1-35.2-3-51.3-5.7l44.6-48.9c30.2-7.9,63.6-13.9,98.8-17.3C282.4,1071.6,351.7,1077.4,401.9,1092.6L401.9,1092.6z"/>
	<path class="st0" d="M555,835.1c0,0,6-20.6,34.2-19.3"/>
	<path class="st0" d="M284.3,853.3c0,0-13.2,29.3-15.6,45.6"/>
	<path class="st0" d="M126.1,387.5c0,0-40.8-202-122.2-174.1c0,0-4.9,3.3,19.2,121.7S27.4,704,27.4,704s-6.9,52.8,6.9,71.4
		s118.1,142.8,64.2,331.3"/>
	<path class="st0" d="M37,471.4c0,0,16.8-12.3,36.6-14.3"/>
	<path class="st0" d="M38.9,491.2c0,0,16.8-12.3,36.6-14.3"/>
	<path class="st0" d="M398.5,1317.1c0,0-3.2-317.9,12-332.6c0,0,14.4-47.2,65.9-61.9c0,0,20.4-11.7,48.6-48.5"/>
	<path class="st9" d="M52.4,1210.7c0,0,4,18.7,12.2,16.7c8.2-2,360.9-57.6,360.9-57.6s5.1-16.2-1.9-19.5S140.6,1177.3,52.4,1210.7
		L52.4,1210.7z"/>
	<path class="st10" d="M61.6,1124.7c0,0,207.7-79.7,377.8-2.1l1.6,45.7c0,0-255.7-34.8-380.2,17.1
		C60.9,1185.4,52.9,1127.8,61.6,1124.7L61.6,1124.7z"/>
	<path class="st0" d="M61.2,1120.7c0,0,207.7-79.7,377.8-2.1l1.6,45.7c0,0-255.7-34.8-380.2,17.1
		C60.5,1181.5,52.5,1123.8,61.2,1120.7z"/>
	<path class="st0" d="M154.2,1140.7c17-2.6,36.8-4.9,59.2-6"/>
	<path class="st0" d="M72.9,1132.2c0,0-1.3,28.2,2.7,27.8c2-0.2,15.3-5.8,39.7-11.7"/>
	<line class="st11" x1="97" y1="1172.7" x2="69.3" y2="1314.1"/>
	<path class="st12" d="M241.3,501.8c-1.5-5.3-6.4-9.2-11.8-9.5c-6.2-0.3-11.3,3.6-13.1,8.9c-3-4.7-8.8-7.3-14.8-5.6
		c-5.3,1.5-9.1,6.5-9.3,11.9c-0.2,4.5,1.9,8.4,5,10.9l20.7,16.3c1.5,1.2,3.6,0.9,4.8-0.6l16.3-20.7
		C241.5,510.4,242.5,506.1,241.3,501.8L241.3,501.8z"/>
	<path class="st13" d="M511.8,116c-1.5-15.2-15-26.4-30.3-24.9l-317.5,30.5c-15.2,1.5-26.4,15-24.9,30.3L153.6,302l375.9-2.2
		C529.5,299.8,511.8,116,511.8,116z"/>
	<polygon class="st13" points="153.6,302 171.2,485.7 543.9,449.8 529.5,299.8 	"/>
	<g>
		<defs>
			<path id="SVGID_1_" d="M528.8,299.8l-17.7-183.8c-1.5-15.2-15-26.4-30.3-24.9l-317.5,30.5c-15.2,1.5-26.4,15-24.9,30.3L152.8,302
				l17.7,183.7l372.7-35.9L528.8,299.8z"/>
		</defs>
		<clipPath id="SVGID_00000166655734960319610710000000966131449811052945_">
			<use xlink:href="#SVGID_1_"  style="overflow:visible;"/>
		</clipPath>
		<g style="clip-path:url(#SVGID_00000166655734960319610710000000966131449811052945_);">
			<path class="st15" d="M517.7,74.2c-2.6-0.1-5.5,0.5-9,1.7c-23.2,8.3-40.9,25-61,38.6c-13.3,9-27.7,16.3-42.3,23.1
				c-13.3,6.2-23.3,14.8-33.7,25.3c-20.5,20.9-37.9,45.8-49.9,72.6c-7.3,16.4-14.7,32.7-22,49.1l-22,58.6l39.5,17.4
				c0,0,17.6-47.8,22.4-49.3s9.7,29.1,14.9,35.9c5.2,6.7,25.4,14.2,25.4,14.2s21.7,5.2,32.9,5.2s49.5-20.8,49.5-20.8
				s21.5-14.3,26.7-18.8s2.2-17.2-6-19.4s-15.7-6.7-26.2-3.7s-19.4,3.7-19.4,3.7l0.7-15.7l9-51.6l14.2-15.7c0,0,9.7-18.7,12.7-20.9
				s17.2-31.4,20.2-32.1S505,157.3,514,158c8.8,0.7,33.3,1.5,34.3,1.5c1.4,0,3.3-18.4,3.4-19.7c1.1-13.6,0-27.9-5.7-40.4
				c-3.2-7-7.9-13.3-13.9-18.2C526.6,76.8,522.6,74.4,517.7,74.2L517.7,74.2z"/>
			<path class="st16" d="M390,210.9c0,0-3.6,28-12.2,27s-18.8-15.3-18.8-15.3s16.8,30,14.2,34.1s-15.3,31.5-21.4,31.5
				c0,0,15.9,0.8,20.4,4.5l8.1-5l9.3-0.2c0,0,2.4-35.9,2.4-38S395.1,217,390,210.9z"/>
			<path class="st17" d="M285.7,325.3c0,0-3.1-15.3-9.2-15.3s-9.2,5.6-9.7,8.1s-13.7,21.9-13.7,21.9l-13.7,46.8l-6.2,14.4l-7.5,9
				c0,0-48.3,30.5-71.7,40.2c0,0,13.2,66.1,70.2,55.4c0,0,84.9-54.9,96.1-76.3c11.2-21.4,14.8-19.3,13.7-27.5
				c-1-8.1-1-22.4,0.5-24.4s2.5-15.4,5.6-21.9c5.1-10.6-6.9-24.5-10.9-26.6s-5.5-3.7-11.1-4.2s-15-5.3-16,2.3s1,8.4,3.1,11.4
				c8,11.8,11.1,16,12.6,16.5s-36.6-10.2-36.6-10.2l-5.5-1.2L285.7,325.3L285.7,325.3z"/>
			<path class="st8" d="M285.4,321.8c5.1-13.1,9.9-25.1,14.5-37.3c5.9-15.6,11.3-31.5,17.5-47c9.4-23.4,25.2-42.7,39.8-62.8
				c15.9-21.9,36.9-37.2,61.8-47.3c2.8-1.1,5.6-2.2,8.4-3.1c10.6-3.3,19.5-8.8,27.1-17.3c9.2-10.3,21.9-15.9,33.8-22.4
				c2.7-1.5,5.4-2.8,8.1-4.2c0.3,0.4,0.5,0.8,0.8,1.2c-1.1,0.8-2.2,1.6-3.3,2.3c-9.3,5.4-18.7,10.5-27.8,16.2
				c-4.1,2.5-7.9,5.8-11.1,9.4c-6.8,7.9-15.1,12.9-24.9,16c-19.3,6.2-36.6,16-52,29.3c-12.8,11-21.8,25.3-32.1,38.4
				c-19.2,24.7-30.6,53-40.9,82.1c-7.6,21.4-16.8,42.2-25.4,63.2c-0.7,1.7-1.4,3.3-2,4.6c12,3,23.7,5.8,35.3,8.7
				c-2.8-3.2-6.2-6.6-9.1-10.3c-1.8-2.3-3.6-5-4.3-7.7c-2-8,5-14.3,12.8-11.7c5.4,1.8,10.6,4,16.9,6.4c3.2-6.6,6.6-13.6,10-20.6
				c0.9-1.9,1.5-4.2,3-5.6c2.7-2.7,2.9-5.5,1.6-8.6c-1.9-4.6-4.1-9.1-6.2-13.7c-0.9-1.9-1.9-3.7-3-6c3.6,1,9.9,13.3,12.2,23
				c5.2-1.8,10.2-4,15.5-5.2c4.7-1,10.7,0.8,14.1-1.6c4.3-3,8.9-3.5,13.5-5.1c1.6-26.1,5.1-52.4-3.1-78.2c-3-9.3-2.5-18.6,1.3-27.7
				c0.4-1,1-1.8,1.5-2.7c0.4,0.1,0.8,0.2,1.2,0.4c-0.3,1.2-0.4,2.5-0.9,3.6c-3.4,8.3-3.8,16.7-1.3,25.2c5.8,19.5,6.7,39.4,4.7,59.5
				c-0.5,4.8-1.1,9.7-0.7,14.6c0.4,6.3-1.1,12.5-0.9,18.8c0.2,6.6-0.1,13.2,0.1,19.7c0.1,2.9,0.6,5.9,1,9.9
				c2.2-4.9,3.5-8.9,5.6-12.5c3.8-6.5,9.1-11.1,17.1-11.1c7.3,0,11.3,4.8,14,10.9c2.5,5.8,1.6,14.4-2.4,17.7
				c-1.8,1.5-4.7,2.4-7.1,2.4c-6.7,0-13.4-0.5-20.1-0.9c-1.2-0.1-2.5-0.3-4-0.5c1.3,5.4,4.6,8.2,9.2,9.8c9.8,3.4,18.8,0.4,24.9-8.2
				c4.7-6.6,6.4-14.3,7.3-22.2c3.2-27.4,6.1-54.8,9.2-82.3c1.8-15.9-1.6-30.7-9.1-44.7c-0.8-1.4-1.4-2.9-2.3-5
				c3.9,1.7,10.7,15.3,12.2,25.4c1.4,9.3,1.4,18.7,2.1,28.7c4.7-5.1,9.8-10.1,14.5-15.6c10.1-11.8,18.3-25,24.6-39
				c6.9-15.4,17.8-21.8,34.5-21c9.6,0.4,19.3-1.4,29-2.2c1.6-0.1,3.2-0.4,4.9-0.6c0.1,0.4,0.2,0.8,0.4,1.2c-1.3,0.4-2.5,1.1-3.8,1.3
				c-10.2,1-20.5,1.8-30.7,2.6c-1.7,0.1-3.4,0.1-5.1,0.1c-11.3-0.2-18.9,4.8-24.5,14.8c-7.6,13.7-15.7,27.2-24.5,40.2
				c-4.7,6.9-11.1,12.6-16.9,18.8c-1.1,1.1-2.6,1.8-4,2.8c4.9,5.5,13.1,4.9,15.2,12.2c6-3,11-1.4,15.6,3.3
				c8.2-5.3,17.1-8.2,26.8-6.5c3.8,0.7,7.7,2.4,10.9,4.5c3.9,2.7,4.1,6.6,1.4,10.5c-8.6,12.3-20.3,20.1-35,22.7
				c-9.1,1.6-18.5,2.2-27.7,2.7c-3.9,0.2-7.9-0.6-12.4-1.1c-0.4,4.5-0.7,9.6-1.5,14.6c-1.6,9.4-2.5,19.1-5.5,28.1
				c-4.7,14-16.7,19.9-29.8,16.1c-6.1-1.8-9.2-5.9-11.8-11.8c-6-13.4-3.2-27.3-3.8-41c-0.1-1.4,0-2.9,0-4.3c0-0.3-0.2-0.5-0.5-1.7
				c-3.5,0.9-7,1.9-11.2,3c4,4.5,8.5,7,9.7,12c-0.5,0.4-0.9,0.9-1.4,1.3c-2.6-2.6-5.6-4.8-7.7-7.8c-1.8-2.6-3.9-3.5-6.8-3.4
				c-8,0.2-15.6,2.1-22.5,6.2c-6.7,4-10,11.1-7.2,18.2c3.7,9.2,8.2,18.2,12.9,27c2.8,5.2,7.4,8.8,13,10.6c12.8,4.1,25.6,8,38.5,11.6
				c11,3,20.1-1.6,28.8-7.8c-2.2-9,11.1-17.3,20.7-13.5c1.8,0.7,3.6,3.3,6,0.7c2.4-2.5,2.7-5.3,1.8-8.3c-2.1-7.4-6.2-12.8-14.6-13.6
				c-2.1-0.2-4.2-0.7-6.3-1.4c-3.9-1.2-4.5-3.7-1.6-6.6c1.3-1.3,2.8-2.4,4.5-3.3c10.2-5.2,21.1-8.1,32.6-7.8
				c6.7,0.2,12.7,2.3,15.6,9.2c2.1,5.1,1.4,10.4-3,13.1c-5.9,3.6-12.4,6.1-18.9,8.7c-1.9,0.8-5.2,1-5.3-2.2
				c-0.1-1.2,2.5-3.3,4.2-3.8c3.1-0.8,6.5-0.9,9.8-0.9c5.8,0,11-3.4,12-8.1c1.1-5.1-1.9-10.3-7.6-12.4c-2.2-0.9-4.7-1.4-7.1-1.5
				c-11.1-0.2-21.5,2.5-31.3,7.6c-2,1-3.6,2.8-5.5,4.3c0.1,0.4,0.2,0.9,0.3,1.3c2.8,0.6,5.7,1.4,8.5,1.9c8.9,1.6,15.1,8.1,16.1,17.1
				c0.6,5.1-3.9,11.2-8.9,13.2c-9.1,3.8-18.2,7.4-26.9,12.1c-8,4.3-16,6.3-24.7,4c-12.1-3.2-24.2-6.9-36.2-10.6
				c-8.6-2.7-15-8.4-19-16.3c-4.3-8.5-8.2-17.2-12.3-25.9c-2.5,4.4-5.2,9.3-8,14.2c0.2,0.5,0.3,0.9,0.6,1.2
				c9.1,8.1,12.6,18.3,9.7,29.8c-3.3,12.8-5.8,25.5-6.2,38.8c-0.4,13.2-7.7,23.5-15.8,33c-13.9,16.4-30.5,29.5-49.4,39.9
				c-6.8,3.7-12.6,9.2-19,13.8c-10.2,7.4-20.4,14.7-30.6,22c-0.7,0.5-1.8,0.6-2.7,0.9c-0.2-0.4-0.4-0.8-0.6-1.2
				c1.8-1.1,3.7-2.2,5.4-3.4c9.6-7.1,19-14.5,28.8-21.5c9-6.3,18.2-12.3,27.4-18.2c18.8-12.2,35.5-26.5,47.6-45.6
				c4.4-7,7.1-14.5,7.1-22.6c0.1-11.4,1.9-22.4,5.3-33.3c2.8-9.2,1.9-18.1-4-26.1c-4.1-5.5-9.7-8.6-16.3-11c-0.5,4,2.1,9.1-3.3,10.7
				c-5.5,1.7-9.5-1.5-12.8-5.7c-0.3,0.2-0.7,0.4-1,0.7c1.2,2.3,1.9,4.9,3.5,6.8c6.9,8,14,15.8,21.1,23.7c1.5,1.7,2.8,3.5,4.2,5.3
				c-0.5,0.4-0.9,0.8-1.4,1.2c-1.7-1.7-3.6-3.3-5.1-5.2c-4.1-5.3-9.4-8.7-15.6-10.8c-10.6-3.5-21.3-6.6-32.6-6.6
				c-3.7,0-7,0.9-9.8,4.6c4.2-0.2,8.9-2.5,10.7,3.1c1.2,3.6-0.8,7-5.8,10.1c18.2,5.6,35.4,12.5,46,29.4
				c-8.9-5.5-14.8-15.3-25.5-18.2c-10.1-2.7-18.7-10.8-30.8-8.7c6.5,7.1-0.7,10.7-3.2,15.8c3.9,3.8,7.9,7.2,13.7,8.7
				c10.4,2.8,18.8,9.4,27.1,16.1c3,2.4,5.7,5.2,8.4,7.9c0.9,0.9,1.5,2.1,2.2,3.2c-0.3,0.3-0.6,0.7-0.9,1c-0.9-0.6-2-1-2.8-1.8
				c-10.5-9.7-22.6-16.9-35.2-23.5c-3.9-2.1-6.6-1.1-9.1,1.7c-2.6,2.9-3.3,6.6-1.2,9.8c5.1,7.9,10.7,15.5,16.1,23.2
				c4.3,6.1,10,9.3,17.6,8.4c0.5-0.1,1.1,0.1,1.6,0.1c0.1,0,0.2,0.2,0.2,0.3c-5.8,5.2-15.2,0.1-25.7-14.1c-4,2.6-7.9,2.5-11.6-0.8
				c-3.7-3.3-3.8-7.3-3-11.8c1.1-5.8,1.4-11.8,2.5-17.7c1-5.3-0.7-9.3-4.2-13.1c-4.2-4.6-2.8-11.3,3-13.8c3.1-1.3,6.5-1.8,10.4-2.7
				c-5-3.2-5.2-7.5-2.8-12.6c2.5-5.2,7.2-6.1,12.5-6.7c2.2-5.8,5-11.7,6.4-17.8c0.8-3.3,0-7.5-1.6-10.6c-3-5.9-9.3-6.2-12.5-0.4
				c-6.4,11.6-13.2,23-16.9,36c-3,10.4-6.6,20.6-10.3,30.8c-3.1,8.5-6.2,16.9-5.7,26.2c0,0.6-0.4,1.2-0.8,2.5
				c-0.7-1.2-1.1-1.7-1.3-2.2c-0.2-0.6-0.3-1.3-0.6-2.7c-24.7,22.8-54.2,35.4-84.2,47c-0.3-0.6-0.6-1.2-0.9-1.8
				c1.7-0.7,3.4-1.4,5.2-2.1c21.5-8.1,42.1-17.9,61.2-30.7c6.5-4.3,12.5-9.5,18.6-14.3c0.6-0.5,0.8-1.7,1-2.6
				c2.3-7.6,4.4-15.3,6.9-22.9c2.8-8.8,6.3-17.5,8.7-26.4c3.6-13.6,10.7-25.5,17.4-37.6c4.3-7.7,12.9-6.9,16.9,1
				C283.8,316.9,284.2,318.7,285.4,321.8L285.4,321.8z M447.9,242.8c-0.3,1.6-0.6,2.7-0.7,3.8c-1.3,10.5-2.5,21-3.8,31.5
				c-0.8,6.7,0.5,8.5,7.3,8.5c6.7,0,13.4-0.6,20.1-1.1c8.9-0.7,17.6-1.9,25.6-6.4c1-0.6,2.3-1.8,2.4-2.8c1-7.2,5.1-11.7,12.2-11.7
				c3.8,0,5.5-2.1,5.9-4.8c0.3-1.9-1.1-4.8-2.7-6c-2.4-1.8-5.5-3.1-8.5-3.6c-9.6-1.6-18.4,1-26.3,6.6c-1.1,0.8-2.2,1.5-3.5,2.5
				c0-5-3-8.1-7.5-7.3c-2.5,0.4-4.8,2.3-7,3.6c-1.2,0.7-2.2,1.6-3.3,2.5c-0.3-0.3-0.5-0.6-0.8-0.8c0.5-0.9,1-1.9,1.5-2.8
				c2.5-4,2.3-5-1.9-7.3C454.1,245.7,451.2,244.4,447.9,242.8L447.9,242.8z M414.4,334.1c0-0.1,0-0.2,0-0.3c2.6-0.1,5.2,0,7.7-0.5
				c1.6-0.3,3.4-1.1,4.4-2.2c4.6-5.2,3.4-14.9-2.4-20.7c-4.7-4.8-11.6-5.1-17.5-0.5c-6,4.7-9.1,11.2-10.6,18.6c-0.5,2.7,0.6,3.7,3,4
				C404.1,333,409.2,333.5,414.4,334.1z M308.9,323.9c-3.6,0-5.3,1.3-5.2,4.1c0.1,3.4,4.9,7.3,8.9,7.3c2.7,0,3.8-1.5,3.8-4.1
				C316.5,326.6,313.9,324,308.9,323.9L308.9,323.9z M257.4,406.9c-2.7,8.9-1.9,12.4,2.8,15.1c2.9,1.6,5.3,1.4,7.6-1.9
				C264.4,415.9,261.1,411.7,257.4,406.9z M458.5,348.8c-8.4-5.4-19.7-1.1-20.6,8C444.9,354.1,451.5,351.6,458.5,348.8z
				 M270.9,350.7c-2.8,2.2-4.6,3.6-6.4,5c1.8,1.8,3.3,4.6,5.4,5.1c3.1,0.7,4.4-2.3,4.2-5C273.9,354.3,272.4,353,270.9,350.7z
				 M254.2,379c0.7,0.1,1.3,0.3,2,0.4c1.4-2.1,3.1-4.1,3.9-6.4c0.4-1-1-2.7-1.5-4.1c-1.2,0.6-3.3,1-3.5,1.8
				C254.4,373.4,254.4,376.2,254.2,379L254.2,379z M511.4,266.7c-6.5,0.7-8.9,2.7-10,8C504.8,272.1,507.8,269.6,511.4,266.7z
				 M478.9,332.1c-0.1-0.6-0.2-1.1-0.3-1.7c-3.1,0.7-6.1,1.4-9.2,2.1c0.1,0.6,0.3,1.2,0.4,1.8C472.8,333.5,475.8,332.8,478.9,332.1
				L478.9,332.1z"/>
			<path class="st15" d="M447.9,242.8c3.3,1.6,6.2,2.9,8.9,4.4c4.3,2.3,4.5,3.3,1.9,7.3c-0.6,0.9-1,1.8-1.5,2.8
				c0.3,0.3,0.5,0.6,0.8,0.8c1.1-0.8,2.1-1.8,3.3-2.5c2.3-1.3,4.6-3.2,7-3.6c4.5-0.8,7.5,2.2,7.5,7.3c1.3-1,2.4-1.7,3.5-2.5
				c7.9-5.6,16.7-8.2,26.3-6.6c3,0.5,6.1,1.8,8.5,3.6c1.6,1.2,3,4.1,2.7,6c-0.4,2.7-2.1,4.8-5.9,4.8c-7.1,0-11.2,4.4-12.2,11.7
				c-0.1,1.1-1.4,2.2-2.4,2.8c-7.9,4.4-16.7,5.7-25.6,6.4c-6.7,0.5-13.4,1.2-20.1,1.1c-6.9,0-8.1-1.8-7.3-8.5
				c1.2-10.5,2.5-21,3.8-31.5C447.3,245.5,447.5,244.4,447.9,242.8L447.9,242.8z"/>
			<path class="st18" d="M414.4,334.1c-5.1-0.6-10.2-1.2-15.3-1.7c-2.4-0.3-3.5-1.3-3-4c1.5-7.4,4.6-13.8,10.6-18.6
				c5.9-4.6,12.7-4.3,17.5,0.5c5.7,5.8,6.9,15.5,2.4,20.7c-1,1.2-2.8,2-4.4,2.2c-2.5,0.5-5.1,0.4-7.7,0.5
				C414.4,333.9,414.4,334,414.4,334.1z"/>
			<path class="st19" d="M308.9,323.9c4.9,0.1,7.5,2.7,7.4,7.3c0,2.6-1.2,4.1-3.8,4.1c-4,0-8.8-3.9-8.9-7.3
				C303.6,325.2,305.4,323.9,308.9,323.9L308.9,323.9z"/>
			<path class="st8" d="M257.4,406.9c3.7,4.8,7,9,10.3,13.2c-2.2,3.3-4.7,3.5-7.6,1.9C255.5,419.3,254.7,415.8,257.4,406.9z"/>
			<path class="st18" d="M458.5,348.8c-7.1,2.7-13.7,5.3-20.6,8C438.9,347.8,450.1,343.4,458.5,348.8z"/>
			<path class="st19" d="M270.9,350.7c1.5,2.3,3,3.6,3.1,5.1c0.2,2.7-1.1,5.7-4.2,5c-2.1-0.5-3.6-3.3-5.4-5.1
				C266.3,354.2,268.1,352.8,270.9,350.7z"/>
			<path class="st19" d="M254.2,379c0.2-2.8,0.2-5.6,0.9-8.2c0.2-0.8,2.3-1.2,3.5-1.8c0.6,1.4,1.9,3.1,1.5,4.1
				c-0.9,2.3-2.6,4.3-3.9,6.4C255.5,379.3,254.8,379.1,254.2,379L254.2,379z"/>
			<path class="st18" d="M511.4,266.7c-3.6,2.9-6.7,5.3-10,8C502.5,269.4,504.9,267.4,511.4,266.7z"/>
			<path class="st8" d="M478.9,332.1c-3,0.7-6,1.4-9,2.2c-0.1-0.6-0.3-1.2-0.4-1.8c3.1-0.7,6.1-1.4,9.2-2.1
				C478.7,331,478.8,331.5,478.9,332.1L478.9,332.1z"/>
		</g>
	</g>
	<path class="st1" d="M597.2,465.7l16.5-14.6c26.4-23.3,28.9-63.7,5.6-90.4l-52.1-59.6c-8.7-12.2-26.7-12.4-35.6-0.5l0,0.1
		c-16.2,21.7-16.5,51.4-0.7,73.6L597.2,465.7z"/>
	<path class="st2" d="M575.6,308c16.4,20.2,24.6,26.7,2.9,42.6c-8.1,6-20.1-3.7-32.7-21.4c-12.6-17.7-16.2-36.9-8-42.7
		C546.1,280.6,561.9,291.1,575.6,308L575.6,308z"/>
	<path class="st0" d="M578.5,478.3l33.7-29.5c26.5-23.4,29.1-63.9,5.8-90.5l-43.3-49.5"/>
	<path class="st0" d="M524.9,306.7c-10.8,20.6-9.4,45.9,4.5,65.3l38.5,53.2"/>
	<path class="st0" d="M575.6,308c16.4,20.2,24.6,26.7,2.9,42.6c-8.1,6-20.1-3.7-32.7-21.4c-12.6-17.7-16.2-36.9-8-42.7
		C546.1,280.6,561.9,291.1,575.6,308L575.6,308z"/>
	<path class="st20" d="M284.8,521.3c2.6-4.1,3.5-9.4,1.3-14.9c-1.5-3.8-4.6-6.9-8.5-8.3c-12-4.6-23.3,5-21.9,16.7
		c0.9,6.9,6.3,12.5,13.2,13.6c3.6,0.6,7.1-0.1,10-1.6l8.1,1.5L284.8,521.3L284.8,521.3z"/>
	<path class="st7" d="M157.2,62.1l316.9-31.2c15.4-1.5,29.1,9.7,30.6,25.1l4.8,49L137,141.7l-4.8-49
		C130.6,77.3,141.9,63.6,157.2,62.1z"/>
	<g>
		<path d="M226.2,93.6c-0.6-0.8-1.4-1.4-2.4-1.8c-1-0.4-2-0.5-3.1-0.4c-1.1,0.1-2.1,0.5-3,1c-0.8,0.5-1.5,1.2-2,2.1
			c-0.6-0.8-1.3-1.3-2.2-1.7c-0.9-0.4-2-0.5-3.1-0.4c-1.1,0.1-2.1,0.5-2.9,1c-0.6,0.4-1,0.8-1.4,1.4l-0.2-1.6l-3.6,0.4l1.5,15.7
			l3.6-0.4l-0.9-9.3l0,0c-0.1-0.7,0-1.3,0.3-1.8s0.6-0.9,1.1-1.2c0.5-0.3,1.1-0.5,1.7-0.6c1-0.1,1.8,0.1,2.5,0.6
			c0.7,0.5,1.1,1.3,1.2,2.3l0.9,9.3l3.6-0.4l-0.9-9.3c-0.1-0.7,0-1.3,0.3-1.8c0.3-0.5,0.6-0.9,1.1-1.2c0.5-0.3,1.1-0.5,1.7-0.6
			c1-0.1,1.8,0.1,2.5,0.6c0.7,0.5,1.1,1.3,1.2,2.3l0.9,9.3l3.6-0.4l-1-10.1C227.2,95.4,226.8,94.4,226.2,93.6z"/>
		<path d="M241.8,89.6l0.2,1.8c-0.5-0.5-1.1-0.9-1.7-1.2c-1-0.4-2.1-0.6-3.3-0.5c-1.4,0.1-2.7,0.6-3.7,1.5c-1.1,0.8-1.9,1.9-2.4,3.2
			c-0.5,1.3-0.7,2.7-0.6,4.3c0.1,1.5,0.6,2.9,1.4,4s1.8,2,3,2.7c1.2,0.6,2.5,0.8,3.9,0.7c1.2-0.1,2.2-0.5,3.1-1.1
			c0.6-0.4,1.1-0.9,1.5-1.4l0.2,1.7l3.6-0.4l-1.5-15.7L241.8,89.6z M241.9,101c-0.7,1-1.8,1.5-3.1,1.7c-0.9,0.1-1.7,0-2.4-0.4
			c-0.7-0.3-1.3-0.8-1.7-1.5c-0.5-0.7-0.7-1.5-0.8-2.4c-0.1-0.9,0-1.8,0.3-2.5c0.3-0.8,0.8-1.4,1.4-1.8c0.6-0.5,1.4-0.7,2.2-0.8
			c0.9-0.1,1.7,0,2.4,0.4c0.7,0.3,1.3,0.8,1.7,1.5c0.4,0.7,0.7,1.5,0.8,2.4C242.9,98.8,242.7,100,241.9,101z"/>
		<path d="M262.6,87.6l-3.6,0.4l0.9,8.9c0.1,1.2-0.1,2.1-0.6,2.7c-0.5,0.7-1.3,1.1-2.3,1.2c-0.7,0.1-1.3,0-1.8-0.3s-0.9-0.6-1.2-1.1
			c-0.3-0.5-0.5-1.1-0.6-1.9l-0.9-8.9l-3.6,0.4l0.9,9.1c0.1,1.3,0.5,2.5,1.2,3.5c0.7,1,1.6,1.7,2.7,2.2c1.1,0.5,2.3,0.7,3.6,0.5
			c1.3-0.1,2.5-0.5,3.5-1.2c1-0.7,1.7-1.6,2.2-2.6c0.5-1.1,0.6-2.3,0.5-3.7L262.6,87.6z"/>
		<path d="M272.2,99.1l4.9-6.2c0.9-1.1,1.5-2,2-2.8c0.5-0.8,0.8-1.6,0.9-2.4c0.2-0.8,0.2-1.6,0.1-2.6c-0.1-1.3-0.5-2.5-1.2-3.4
			c-0.7-1-1.6-1.7-2.7-2.1c-1.1-0.5-2.4-0.6-3.8-0.5c-1.7,0.2-3.2,0.7-4.4,1.6c-1.2,0.9-2.2,2.2-3,3.8l2.8,1.9
			c0.5-1.2,1.2-2.1,2-2.8c0.8-0.6,1.7-1,2.8-1.1c1-0.1,1.9,0.1,2.6,0.6c0.7,0.5,1.1,1.3,1.2,2.3c0.1,0.5,0,1.1-0.1,1.6
			c-0.1,0.5-0.4,1.1-0.8,1.8c-0.4,0.6-0.9,1.3-1.5,2.2l-7.5,9.8l0.2,2.2l15.5-1.5l-0.3-3.4L272.2,99.1z"/>
		<polygon points="301.5,93.7 301.1,90.3 298,90.6 297.4,84.9 293.7,85.3 294.3,91 288.1,91.6 294.5,77.2 290.2,77.7 283.5,93.1 
			283.8,95.4 294.6,94.3 295.2,100.2 298.9,99.9 298.3,94 		"/>
	</g>
	<circle class="st21" cx="167" cy="101" r="25.8"/>
	<path class="st22" d="M392.5,61.4l85-7.9c6.5-0.6,12.3,4.2,12.9,10.7l1.8,19.5c0.6,6.5-4.2,12.3-10.7,12.9l-85,7.9
		c-6.5,0.6-12.3-4.2-12.9-10.7l-1.8-19.5C381.2,67.8,386,62.1,392.5,61.4z"/>
	<g>
		<path class="st7" d="M412.8,81.6c-0.4-0.6-0.9-1.2-1.5-1.5c-0.6-0.4-1.2-0.7-1.9-0.9c-0.7-0.2-1.3-0.4-2-0.6
			c-0.7-0.2-1.3-0.3-1.8-0.5s-1-0.5-1.4-0.8c-0.4-0.3-0.6-0.8-0.6-1.4c-0.1-0.7,0.2-1.3,0.7-1.7c0.5-0.4,1.2-0.7,2.2-0.8
			c0.8-0.1,1.5,0,2.1,0.3c0.6,0.2,1.2,0.7,1.8,1.2l1.9-2.3c-0.7-0.7-1.6-1.3-2.6-1.7c-1-0.4-2.2-0.5-3.5-0.4
			c-1.2,0.1-2.2,0.4-3.1,0.9c-0.9,0.5-1.6,1.2-2.1,2c-0.5,0.8-0.7,1.8-0.6,3c0.1,1,0.3,1.8,0.7,2.4c0.4,0.6,0.9,1.1,1.4,1.4
			c0.6,0.4,1.2,0.6,1.9,0.8c0.7,0.2,1.3,0.4,2,0.5c0.7,0.2,1.3,0.3,1.8,0.5c0.6,0.2,1,0.5,1.4,0.9c0.4,0.4,0.6,0.9,0.6,1.5
			c0.1,0.8-0.2,1.4-0.8,1.9c-0.6,0.5-1.4,0.8-2.5,0.9c-1.1,0.1-2.1,0-2.9-0.4c-0.8-0.4-1.5-0.9-2.1-1.6l-1.9,2.3
			c0.9,1,2,1.7,3.1,2.2c1.1,0.4,2.4,0.6,3.9,0.5c2.1-0.2,3.7-0.8,4.8-2c1.1-1.1,1.6-2.5,1.4-4.3C413.5,83.1,413.2,82.3,412.8,81.6z"
			/>
		<path class="st7" d="M427,77.9c-0.6-0.9-1.4-1.6-2.4-2.1c-1-0.5-2.1-0.7-3.3-0.5c-1.3,0.1-2.4,0.5-3.4,1.2s-1.7,1.6-2.2,2.7
			c-0.5,1.1-0.7,2.3-0.6,3.6c0.1,1.3,0.5,2.4,1.2,3.4c0.7,1,1.6,1.7,2.7,2.2c1.1,0.5,2.3,0.7,3.6,0.6c1-0.1,2-0.4,2.9-0.8
			c0.9-0.5,1.6-1.1,2.2-1.9l-2.1-1.8c-0.4,0.5-0.8,0.9-1.4,1.2c-0.6,0.3-1.2,0.5-1.8,0.5c-0.8,0.1-1.5,0-2.1-0.3
			c-0.6-0.3-1.1-0.7-1.5-1.3c-0.2-0.3-0.3-0.6-0.4-0.9l9.8-0.9c0-0.3,0-0.5,0.1-0.8c0-0.2,0-0.5,0-0.7C428,79.9,427.7,78.8,427,77.9
			z M419.5,78.7c0.5-0.4,1.2-0.6,2-0.7c0.7-0.1,1.4,0,1.9,0.3c0.5,0.2,1,0.6,1.3,1.2c0.2,0.3,0.3,0.6,0.4,1l-7,0.6
			c0-0.3,0.1-0.6,0.2-0.9C418.6,79.6,419,79.1,419.5,78.7z"/>
		<path class="st7" d="M442.4,73.5l-3,0.3l0.1,1.4c-0.4-0.4-0.9-0.7-1.4-0.9c-0.8-0.3-1.8-0.5-2.8-0.4c-1.2,0.1-2.2,0.5-3.1,1.2
			c-0.9,0.7-1.6,1.5-2,2.6c-0.4,1-0.6,2.2-0.5,3.4c0.1,1.2,0.5,2.3,1.1,3.3c0.6,1,1.4,1.7,2.4,2.2c1,0.5,2.1,0.7,3.2,0.6
			c1-0.1,1.9-0.4,2.7-0.9c0.5-0.3,0.9-0.7,1.2-1.2l0.1,1.4c0.1,1.1-0.2,1.9-0.8,2.6c-0.6,0.7-1.6,1.1-2.7,1.2c-1,0.1-1.8,0-2.5-0.3
			c-0.7-0.3-1.4-0.7-1.9-1.3l-1.8,2.2c0.7,0.9,1.6,1.5,2.7,1.9c1.1,0.4,2.3,0.5,3.7,0.4c1.4-0.1,2.6-0.5,3.5-1.1
			c1-0.6,1.7-1.4,2.2-2.4c0.5-1,0.7-2.1,0.6-3.4L442.4,73.5z M439.9,82.1c-0.3,0.6-0.6,1.1-1.2,1.4c-0.5,0.4-1.1,0.6-1.9,0.6
			s-1.4,0-2-0.3s-1.1-0.7-1.4-1.2c-0.4-0.5-0.6-1.2-0.6-1.9c-0.1-0.8,0-1.4,0.3-2c0.3-0.6,0.7-1.1,1.2-1.4c0.5-0.4,1.2-0.6,1.9-0.6
			s1.4,0,2,0.3c0.6,0.3,1,0.7,1.4,1.2c0.4,0.5,0.6,1.2,0.6,1.9C440.3,80.9,440.2,81.5,439.9,82.1z"/>
		<path class="st7" d="M456.9,72.2l-3,0.3l0.7,7.5c0.1,1-0.1,1.7-0.5,2.3c-0.4,0.6-1.1,0.9-1.9,1c-0.6,0.1-1.1,0-1.5-0.2
			c-0.4-0.2-0.8-0.5-1-0.9s-0.4-1-0.5-1.6l-0.7-7.5l-3,0.3l0.7,7.7c0.1,1.1,0.4,2.1,1,2.9c0.6,0.8,1.3,1.4,2.2,1.9s1.9,0.6,3,0.5
			c1.1-0.1,2.1-0.4,2.9-1c0.8-0.6,1.4-1.3,1.8-2.2s0.6-1.9,0.4-3.1L456.9,72.2z"/>
		<path class="st7" d="M461.3,69.3c0.5,0,0.9-0.3,1.2-0.6c0.3-0.4,0.4-0.8,0.4-1.3c0-0.5-0.3-0.9-0.6-1.2c-0.4-0.3-0.8-0.5-1.3-0.4
			c-0.5,0-0.9,0.3-1.2,0.6c-0.3,0.4-0.4,0.8-0.4,1.3c0,0.5,0.3,0.9,0.6,1.2C460.3,69.3,460.8,69.4,461.3,69.3z"/>
		
			<rect x="460.6" y="71.7" transform="matrix(0.9957 -9.219956e-02 9.219956e-02 0.9957 -5.2555 42.9406)" class="st7" width="3" height="13.2"/>
		<path class="st7" d="M474.6,70.6c-0.6-0.2-1.2-0.3-1.8-0.2c-1.5,0.1-2.6,0.8-3.2,1.9c0,0,0,0.1-0.1,0.1l-0.1-1.4l-3,0.3l1.2,13.2
			l3-0.3l-0.7-7.3c-0.1-1.1,0.1-2,0.6-2.6c0.5-0.6,1.2-0.9,2-1c0.4,0,0.7,0,1,0.1c0.3,0.1,0.6,0.2,0.8,0.5l1.8-2.2
			C475.7,71.2,475.2,70.8,474.6,70.6z"/>
	</g>
	
		<rect x="214.2" y="555" transform="matrix(0.9957 -9.284294e-02 9.284294e-02 0.9957 -50.3833 36.0749)" class="st23" width="296.6" height="9.1"/>
	
		<rect x="220.9" y="595" transform="matrix(0.9957 -9.284294e-02 9.284294e-02 0.9957 -54.0682 36.8666)" class="st23" width="296.6" height="9.1"/>
	
		<rect x="230.2" y="633.6" transform="matrix(0.9957 -9.284294e-02 9.284294e-02 0.9957 -57.6179 37.9001)" class="st23" width="296.6" height="9.1"/>
	
		<rect x="231.6" y="679" transform="matrix(0.9957 -9.284294e-02 9.284294e-02 0.9957 -61.821 38.2197)" class="st23" width="296.6" height="9.1"/>
</g>
</svg>
