<?xml version="1.0" encoding="UTF-8"?><svg id="Capa_2" xmlns="http://www.w3.org/2000/svg" xmlns:xlink="http://www.w3.org/1999/xlink" viewBox="0 0 657.0611720959 61.9169209892"><defs><style>.cls-1{fill:url(#_1370);opacity:.44;stroke-width:0px;}</style><linearGradient id="_1370" x1="328.5305860479" y1="-349.3631308354" x2="328.5305860479" y2="1410.1052461457" gradientUnits="userSpaceOnUse"><stop offset="0" stop-color="#69bdf0"/><stop offset=".410256" stop-color="#203346"/><stop offset="1" stop-color="#010717"/></linearGradient></defs><g id="Capa_1-2"><path class="cls-1" d="m108.555346157,45.779615226c4.5891840188,2.4943966673-18.7174427239,2.3487981829-22.4060329182,4.2983876333-3.6886474039,1.9495322408,11.3250445767,5.0021803858,12.2450324622,5.0079585574.9199906782.0057209621-20.8511304367-.6233560259-16.2641226262,2.3641303612,4.5870672629,2.9875435967,35.2450156463,5.1516119147,51.5026735856,4.2668651323,16.2576048001-.884803992,33.7591719305-5.7069457018,32.5390006608-7.1940525794-1.2201667571-1.487049668-38.6453837793,1.0015688276-39.2419656878-2.8290729477-.5965819084-3.8306417754,30.0722363026-4.1322508951,27.012036565-5.6307996968s-26.656192734-5.5910962201-18.0630791002-7.0168743844c8.5931136338-1.4257781643,27.6194310915-4.2658353592,35.5862710245-2.7366222008,7.966839933,1.5291559487,20.4716612757,17.241377776,36.8463128861,12.9786317363,0,0,6.1207427329,2.9060198874,9.8252372013-2.65984689,0,0,5.9000852319,6.6121735284,12.0593300384.7328552397,0,0,7.537081274,6.2936303609,12.8857229869-1.2345836123,0,0,12.4814798181-4.5937609044,25.9658442598-.1665944152,1.0207912344.3351339574,20.2226926047,4.0714370684,18.8030855238,1.4324716899-1.4195422798-2.6390225881-5.5027072173-3.9795584178-5.5027072173-3.9795584178,0,0,70.870761308,16.7342144895,86.8610214874,6.880028972,0,0,13.8178965213,4.9764932661,24.3288482176.1519487523,0,0-5.1279842119,3.8221175419-1.2435654913,3.846374421,3.8844759302.0242568791,31.2633405732,3.9938036133,39.8835143568-3.6050642414,8.620185203-7.598810645-26.3584738759-3.5433350608-31.0477747282-6.5315079633-4.6892436427-2.9881729026,44.7934727102-4.3229305605,67.4709080616-.5648877937,22.6774353514,3.7580427668,61.730609296,3.0156335205,50.7079175564-.9984222985-11.0226917396-4.0139986093,43.1521432298-3.0181507438,51.532894969-2.6370202514,8.3807517392.3810732827,62.226904314-.1397631031,56.8106406944-2.325857125-9.4925635058-3.8313855004-35.5499438144-3.7409370903-32.883517818-5.6968768086,2.6663687868-1.9559397183,75.4874650606-3.8495209502,60.1800585086-9.8628813798-15.307406552-6.0133604297-25.142369637-7.671638492-44.1578177474-7.2972587349,0,0,20.2945408075-3.9754393251,14.8992159091-5.8247403106-10.2581998581-3.5161032814-49.3991343472.4664300367-86.8081186799-.7535079128-37.4089122808-1.2198807398-72.7590792071-5.714611791-94.6489669414-2.5636775178-21.8899339907,3.1509914828-91.9915229225-1.85164658-107.5448160309.9722202923-15.7551858543,2.8604810294-50.4682664618-7.0347809957-69.9073513216-3.3032262832s-53.3983715255,8.4509479437-71.1706541316,5.0522960134c0,0,8.2066054468-6.53654241,4.1169758224-6.3914588121s-61.9299276091-4.1803069764-66.2398714768-.4169437148c-4.3099438678,3.7634204712,8.770177405,4.8314096683,8.770177405,4.8314096683,0,0-46.2461393595,9.2453607352-66.4889621586,9.7764948527C55.5258622557,16.6814291639-8.126818536,32.3934221526.8644170645,33.435895859c8.9912356005,1.0424164967,55.2377176848-8.2873284288,46.6278416327-3.0386889976-8.6098747861,5.2486966409-33.3677957727,9.6968018513-25.6075395783,11.7178461178,7.7602561943,2.0210442665,82.0814430193,1.1701655795,86.6706270381,3.6645622468Z"/></g></svg>