<?xml version="1.0" encoding="UTF-8"?><svg id="Capa_2" xmlns="http://www.w3.org/2000/svg" viewBox="0 0 135.3544921875 136.260235401"><defs><style>.cls-1{fill:#ddc5a4;}.cls-1,.cls-2{stroke-width:0px;}.cls-2{fill:#ceac7d;}</style></defs><g id="Capa_1-2"><path class="cls-2" d="m23.431640625,56.1631133113c0-21.7776722882,10.162109375-41.153754546,25.9594726562-53.6258443911C20.9013671875,10.5707959847,0,36.8846588039,0,68.1301177005c0,37.6272086316,30.3002929688,68.1301177005,67.6772460938,68.1301177005,15.744140625,0,30.2202148438-5.4272608501,41.7177734375-14.5042733094-5.8188476562,1.6408303905-11.9467773438,2.5372689202-18.2861328125,2.5372689202-37.3774414062,0-67.6772460938-30.5029090689-67.6772460938-68.1301177005Z"/><path class="cls-1" d="m135.3544921875,68.1301177005C135.3544921875,30.5028564394,105.0546875,0,67.6772460938,0c-6.3393554688,0-12.4672851562.8964385297-18.2861328125,2.5372689202-15.7973632812,12.4720898451-25.9594726562,31.8481721029-25.9594726562,53.6258443911,0,37.6272086316,30.2998046875,68.1301177005,67.6772460938,68.1301177005,6.3393554688,0,12.4672851562-.8964385297,18.2861328125-2.5372689202,15.7973632812-12.4720898451,25.9594726562-31.8481721029,25.9594726562-53.6258443911Z"/><ellipse class="cls-2" cx="92.7925858754" cy="15.4864381357" rx="5.1394527653" ry="7.7267887146" transform="translate(1.527484586 38.3113159273) rotate(-23.5162685302)"/><ellipse class="cls-2" cx="75.6055857927" cy="12.3705238013" rx="2.4372186627" ry="3.6641787595" transform="translate(1.3433287612 31.1947540049) rotate(-23.5162685303)"/><ellipse class="cls-2" cx="112.0661332752" cy="35.8236582698" rx="2.4372186627" ry="3.6641787595" transform="translate(-4.9865288164 47.6907141963) rotate(-23.5162685303)"/></g></svg>