<?xml version="1.0" encoding="UTF-8"?><svg id="Capa_2" xmlns="http://www.w3.org/2000/svg" viewBox="0 0 772.5077521169 282.7517331145"><defs><style>.cls-1{fill:#4d2d5d;}.cls-1,.cls-2{stroke-width:0px;}.cls-2{fill:#3f1651;}</style></defs><g id="Capa_1-2"><path class="cls-1" d="m141.3758629858,282.7517331145h631.1318891311l-55.5425079082-47.6545529951v-93.7213135621C716.9652442087,63.2963391998,653.6698511602,0,575.5893812229,0H141.3758629858C63.2963376008,0,0,63.2963391998,0,141.3758665572h0c0,78.0804719097,63.2963376008,141.3758665572,141.3758629858,141.3758665572Z"/><path class="cls-2" d="m483.300955842,108.8879899564c2.7514808009-17.5724511203,16.9584916923-31.9759292505,34.4931602774-34.9607145407,20.0141183284-3.4060556192,37.8303339527,7.2683300027,45.6407663235,23.6279759608,7.8114473819-16.3615350627,25.6285370997-27.0349761323,45.6445445326-23.6270314085,17.5346685851,2.9857298426,31.7407349242,17.3910970773,34.4903266205,34.9644927499,2.2537017477,14.4015890255-2.7392016212,27.7235547641-11.897580559,36.8819339333l-60.4645698558,60.4645713833c-4.2929901271,4.2929902355-11.2524513496,4.2929902355-15.5444969244,0l-60.4655144081-60.4645713833c-9.1583102368-9.1583791691-14.1531714112-22.4831785646-11.8966360067-36.8866566948Z"/><path class="cls-2" d="m277.1391963049,108.8879899564c2.7515442942-17.5724511203,16.9594362446-31.9759292505,34.4941048296-34.9607145407,20.0141183284-3.4060556192,37.8302634939,7.2683300027,45.6407663235,23.6279759608,7.811447382-16.3615350627,25.6285370997-27.0349761323,45.6446111339-23.6270314085,17.5336574315,2.9857298426,31.7406683229,17.3910970773,34.4902600193,34.9644927499,2.2537017477,14.4015890255-2.7401461735,27.7235547641-11.897580559,36.8819339333l-60.4645698558,60.4645713833c-4.292924591,4.2929902355-11.2533959019,4.2929902355-15.5444969244,0l-60.4655144081-60.4645713833c-9.1583789378-9.1583791691-14.1541159635-22.4831785646-11.897580559-36.8866566948Z"/><path class="cls-2" d="m70.97838132,108.8879899564c2.7514808009-17.5724511203,16.9594362446-31.9759292505,34.4941048296-34.9607145407,20.0141183284-3.4060556192,37.8302634939,7.2683300027,45.6407663235,23.6279759608,7.8105028297-16.3615350627,25.6285370997-27.0349761323,45.6435999804-23.6270314085,17.5347304212,2.9857298426,31.7416794765,17.3910970773,34.4912711728,34.9644927499,2.2537017477,14.4015890255-2.7401461735,27.7235547641-11.897580559,36.8819339333l-60.4655144081,60.4645713833c-4.2920455748,4.2929902355-11.2524513496,4.2929902355-15.5435523721,0l-60.4664589604-60.4645713833c-9.1583789378-9.1583791691-14.1531714112-22.4831785646-11.8966360067-36.8866566948Z"/></g></svg>