<?xml version="1.0" encoding="UTF-8"?><svg id="Capa_2" xmlns="http://www.w3.org/2000/svg" viewBox="0 0 1045.333333336 194.6666666667"><defs><style>.cls-1{fill:#a5305c;}.cls-1,.cls-2{stroke-width:0px;}.cls-2{fill:#e53f71;}</style></defs><g id="Capa_1-2"><path class="cls-1" d="m106.4314507392,32.1849365234c-39.5397949219,2.4188232422-79.0632324219,5.1827392578-118.56640625,8.2918701172,23.46875,19.5524902344,46.7387695312,39.2255859375,69.8098144531,59.0174560547-17.1967773438,19.4528808594-34.240234375,38.9709472656-51.1298828125,58.5528564453,40.1574707031-3.1038818359,80.3358154297-5.8446044922,120.5302734375-8.2230224609-6.8021240234-39.2224121094-13.6837158203-78.435546875-20.6437988281-117.6391601562Z"/><path class="cls-1" d="m938.9017876532,32.1849365234c39.5394287109,2.4188232422,79.0631103516,5.1827392578,118.56640625,8.2918701172-23.4686279297,19.5524902344-46.7388916016,39.2255859375-69.8099365234,59.0174560547,17.1966552734,19.4528808594,34.2403564453,38.9709472656,51.1300048828,58.5528564453-40.1573486328-3.1038818359-80.3358154297-5.8446044922-120.5301513672-8.2230224609,6.8021240234-39.2224121094,13.6834716797-78.435546875,20.6436767578-117.6391601562Z"/><path class="cls-2" d="m948.1110161689,187.7307128906c-284.2281494141-18.189453125-569.3309326172-18.1323242188-853.5532226562.1710205078-4.169921875-64.7547607422-8.3400878906-129.5096435547-12.5102539062-194.2645263672,292.5277099609-18.8386230469,585.9620361328-18.8972167969,878.4956054688-.1760253906-4.1440429688,64.7564697266-8.2880859375,129.5130615234-12.4321289062,194.26953125Z"/></g></svg>