<?xml version="1.0" encoding="UTF-8"?><svg id="Capa_2" xmlns="http://www.w3.org/2000/svg" viewBox="0 0 758.51678876 464.1775790364"><defs><style>.cls-1{opacity:.47;}.cls-1,.cls-2{stroke-width:0px;}.cls-2{fill:#e53f71;}</style></defs><g id="Capa_1-2"><path class="cls-1" d="m58.876037251,31.1563555423c-14.2049769795,3.7369736874-27.0250784586,10.4385300355-34.4882658826,22.7840213443-14.1217612975,23.3604624902-6.1855486161,75.1003176766-6.9920466047,102.9877474035-1.1114965203,38.4337984009-2.2376906788,76.8671783508-3.3155473208,115.301941176-1.3459164781,47.9933774133-12.7096277965,107.8640465071-3.224089694,155.2903126424,1.777835962,8.888912847,19.5555863589,28.444403373,40.8893182435,33.7778363213,21.4412469247,5.3580792396,48.374926143,1.5822480612,70.1995689539,1.6533884997,51.6213605527.1682669566,103.2458133673-.2156522333,154.8649941641-.6497613333,129.5866325414-1.0898029677,259.1625746187-3.1293731948,388.7408867803-4.9201407353,16.1129845689-.2226808298,32.9040215592-.6083680787,47.1978158237-8.0549444572,63.595884783-33.1351941419,42.5097241875-152.9791223343,42.0737625545-209.6587796022-.3158210283-41.0600970541,2.7594697795-82.2637377455-1.7465746984-123.2029624434-3.251116146-29.5376965486-11.1778248886-86.5532997855-44.286557537-98.637060726-4.8071177739-1.7544632047-9.9859610037-2.1611474134-15.0924338776-2.4934751518-49.2912465441-3.2076750088-98.2537997767,1.4957135662-147.5266316307,1.9626750189-98.6049830452.9339399068-197.2130713504,2.2754476747-295.7972407981,4.5362954618-49.2590115959,1.1296654218-98.3480583055,2.4753806801-147.5501888498,4.2840830836-13.2264092193.4862694429-29.3206899532,1.1910682378-43.9467696264,5.0388234976Z"/><path class="cls-2" d="m51.7649261399,16.9341333201c-14.2049769795,3.7369736874-27.0250784586,10.4385300355-34.4882658826,22.7840213443-14.1217612975,23.3604624902-6.1855486161,75.1003176766-6.9920466047,102.9877474035-1.1114965203,38.4337984009-2.2376906788,76.8671783508-3.3155473208,115.301941176-1.3459164781,47.9933774133-12.7096277965,107.8640465071-3.224089694,155.2903126424,1.777835962,8.888912847,19.5555863589,28.444403373,40.8893182435,33.7778363213,21.4412469247,5.3580792396,48.374926143,1.5822480612,70.1995689539,1.6533884997,51.6213605527.1682669566,103.2458133673-.2156522333,154.8649941641-.6497613333,129.5866325414-1.0898029677,259.1625746187-3.1293731948,388.7408867803-4.9201407353,16.1129845689-.2226808298,32.9040215592-.6083680787,47.1978158237-8.0549444572,63.595884783-33.1351941419,42.5097241875-152.9791223343,42.0737625545-209.6587796022-.3158210283-41.0600970541,2.7594697795-82.2637377455-1.7465746984-123.2029624434-3.251116146-29.5376965486-11.1778248886-86.5532997855-44.286557537-98.637060726-4.8071177739-1.7544632047-9.9859610037-2.1611474134-15.0924338776-2.4934751518-49.2912465441-3.2076750088-98.2537997767,1.4957135662-147.5266316307,1.9626750189-98.6049830452.9339399068-197.2130713504,2.2754476747-295.7972407981,4.5362954618-49.2590115959,1.1296654218-98.3480583055,2.4753806801-147.5501888498,4.2840830836-13.2264092193.4862694429-29.3206899532,1.1910682378-43.9467696264,5.0388234976Z"/></g></svg>