<?xml version="1.0" encoding="UTF-8"?><svg id="Capa_2" xmlns="http://www.w3.org/2000/svg" viewBox="0 0 1364.2626692268 76.6108271027"><defs><style>.cls-1{fill:#1b002c;stroke-width:0px;}</style></defs><g id="Capa_1-2"><path class="cls-1" d="m225.5888324581,57.1258178825c9.563389016,2.9696941951-38.834863019,3.2235332817-46.4678278075,5.6794278743-7.6329647885,2.4558945926,23.5845516683,5.9159896554,25.4950097383,5.9059779718s-43.3059664968-.3768397708-33.740289096,3.1968163889c9.5656201912,3.5736561597,73.2565186961,5.6555142529,107.0035013177,4.2705837577,33.7469826216-1.3849304952,70.0234886174-7.6148865484,67.4695367351-9.4133853909-2.5539518823-1.7985560521-80.2336896039,1.9429531344-81.5245674828-2.7371942971-1.2909350886-4.6800902219,62.3888075403-5.6180419514,56.0139395181-7.3965174266s-55.4277697456-6.3530139471-37.6034831454-8.2583803608c17.8242866001-1.9054236233,57.2937187307-5.7362370275,73.8577345989-4.0111953379,16.5639586586,1.7250416896,42.744110813,20.7352265149,76.6881233679,15.2112371798,0,0,12.749335577,3.4454493999,20.3659956237-3.4394995994,0,0,12.3414881918,7.9882365324,25.0511775017.6739293305,0,0,15.7364214968,7.5677458211,26.7405203881-1.7508432285,0,0,25.8553731384-5.8571209558,53.9158911023-.6854284643,2.1242504221.3915426433,42.0479269401,4.6112670483,39.0642163879,1.4057547971-2.9836533426-3.2055694608-11.4805406116-4.7715684052-11.4805406116-4.7715684052,0,0,147.3911478587,19.1797541408,180.4608829917,6.8153821007,0,0,28.7606493007,5.838241781,50.521015007-.2649949626,0,0-10.5963087158,4.7758591267-2.5299238417,4.7335240075,8.0663848741-.0422779096,64.9727944734,4.3114314268,82.7692199883-5.1543007669,17.7964255149-9.4657321937-54.7817587099-3.8507223522-64.5596838032-7.4232343195-9.7779250933-3.5725691769,92.9549352572-6.1245759321,140.0958914605-1.9426670863,47.141013413,4.1818516362,128.224952398,2.5486885972,105.2816061572-2.1627524967-22.9432890312-4.7114410939,89.5645215122-4.4962185013,106.9723792841-4.1848265364,17.4079149815.3113347552,129.2125048686-1.3247459743,117.9359165544-3.9015817049-19.7634638996-4.5161274493-73.8705495539-3.9222915875-68.3603477373-6.3670875138,5.5102018166-2.4447387166,156.6976656783-6.1137633138,124.8300190931-13.1942547963-31.8677037949-7.0804914825-52.3126486949-8.9289915333-91.7932367015-8.1179307423,0,0,42.0876876264-5.2447491771,30.8590409743-7.4095040105-21.3490285342-4.115831734-102.5710715434,1.4869924583-180.2675716838.6865726567-77.6964429308-.8004770113-151.1622916287-5.649621662-196.5739154209-1.3849877048s-191.0459214122-.5621989415-223.304023658,3.1844019012c-32.6767622492,3.7951718106-104.8933244623-7.6795906293-145.2078571082-2.7493227366-40.3145326459,4.9302106831-110.7669789985,11.3394044776-147.7173571153,7.5067603655,0,0,16.9521259343-8.157176542,8.4619321909-7.9036807132-8.4901365338.2534958288-128.6546538583-3.9713202324-137.5530382446.7174086422-8.8983843863,4.6887860842,18.2770435375,5.7542008484,18.2770435375,5.7542008484,0,0-95.9044916658,12.1796993848-137.9316515136,13.2054106723C115.0769511578,22.4737790633-16.8843043513,42.895554067,1.800186104,44.0055351257c18.6844904553,1.109923849,114.5885816538-11.1731533202,96.7815723591-4.5857515575-17.8070092947,6.5874017627-69.1564196078,12.4937802018-53.0147251588,14.8250150312,16.1416372394,2.3312348294,170.4583529281-.0886749119,180.0217991537,2.8810192832Z"/></g></svg>