<?xml version="1.0" encoding="UTF-8"?><svg xmlns="http://www.w3.org/2000/svg" xmlns:xlink="http://www.w3.org/1999/xlink" viewBox="0 0 619.0694376486 158.4525710608"><defs><style>.cls-1{fill:url(#_346-2);}.cls-1,.cls-2,.cls-3,.cls-4,.cls-5,.cls-6,.cls-7{stroke-width:0px;}.cls-2{fill:url(#_346-3);}.cls-3{fill:url(#_278-2);}.cls-4{fill:url(#_300-2);}.cls-5{fill:url(#_278);}.cls-6{fill:url(#_346);}.cls-7{fill:url(#_300);}.cls-8{mix-blend-mode:screen;opacity:.61;}.cls-9{isolation:isolate;}</style><linearGradient id="_346" x1="-292.1734370962" y1="111.0855260779" x2="-1438.7349167645" y2="162.424697096" gradientTransform="translate(-794.4825124247) rotate(-180) scale(1 -1)" gradientUnits="userSpaceOnUse"><stop offset="0" stop-color="#002"/><stop offset=".243171" stop-color="#000036"/><stop offset=".433047" stop-color="#00063d"/><stop offset=".566667" stop-color="#011c53"/><stop offset=".851282" stop-color="#1b3679"/><stop offset=".9256325481" stop-color="#1b5398"/><stop offset="1" stop-color="#1b75bc"/></linearGradient><linearGradient id="_346-2" x1="-330.9883293103" y1="562.1442038366" x2="-1209.2729873503" y2="63.9487995082" xlink:href="#_346"/><linearGradient id="_300" x1="-894.4111867669" y1="111.5189752057" x2="-1007.9700340773" y2="28.4457084517" gradientTransform="translate(-794.4825124247) rotate(-180) scale(1 -1)" gradientUnits="userSpaceOnUse"><stop offset=".0948718" stop-color="#000036"/><stop offset=".448718" stop-color="#1b3679"/><stop offset=".5070067988" stop-color="#1b3c80"/><stop offset="1" stop-color="#1b75bc"/></linearGradient><linearGradient id="_300-2" x1="-851.5580147701" y1="200.8756996763" x2="-1067.2859843372" y2="87.2944482801" xlink:href="#_300"/><linearGradient id="_346-3" x1="-890.6564693016" y1="267.6583758885" x2="-1158.3377507924" y2="137.6729559344" xlink:href="#_346"/><linearGradient id="_278" x1="-920.2456071237" y1="-26.1843191279" x2="-1016.7578458989" y2="238.7966732585" gradientTransform="translate(-794.4825124247) rotate(-180) scale(1 -1)" gradientUnits="userSpaceOnUse"><stop offset="0" stop-color="#002"/><stop offset=".289744" stop-color="#000036"/><stop offset=".566667" stop-color="#011c53"/><stop offset=".851282" stop-color="#1b3679"/><stop offset=".9256325481" stop-color="#1b5398"/><stop offset="1" stop-color="#1b75bc"/></linearGradient><linearGradient id="_278-2" x1="-850.7286972744" y1="-11.8866425138" x2="-975.5398166766" y2="330.7908738282" xlink:href="#_278"/></defs><g class="cls-9"><g id="Capa_2"><g id="Capa_1-2"><g class="cls-8"><path class="cls-6" d="m617.3961706657,144.2919923416c2.6749502298-.509508881-52.9534536551-.1718577002-84.8421533808-2.2664163292-146.8577956989-9.6463429659-150.1202314401-4.2056508383-188.9924513593-4.7767744807-38.8721627096-.5711236423-33.9191143014-.0652761771-50.3483551001-1.3292083248-72.5384789157-5.5803980211-283.6051877689-1.8811667442-290.4477408073-1.0566616923-16.8488656027,2.0303122251,46.9029023279,21.5809563361,93.4500214937,19.3303870718,16.7498895024-.809859389,56.5643518489-3.9985520118,103.3082148949-5.0066999458,21.5139061173-.463970023,103.2762919274-.7616316789,138.339209356,2.284551779,35.0629746382,3.0461834579,53.8825365323-2.8531009884,44.536029424,3.8169114664-9.6607023366,6.8943313771,106.5698654433.6712404784,138.8619502036-1.3340139329,47.7104207667-2.9626002022,65.4253797819-3.8129640026,96.1352752753-9.6620756116Z"/><path class="cls-1" d="m73.0052057677,147.1642013432c-17.5314873191,4.0742975494,83.8081445811,1.3174803525,54.622085279-6.2980355017-7.6719179266-2.0029088168,108.7256797796-3.1909237979,185.1094460364-1.8620015213,2.2143555186.0381016073,28.6334143812-1.7972402308,30.8248288424-1.7553627885,1.5321308103.0304927278-2.6715175851,2.6463454196-1.1509431179,2.6806711919,63.1056424921,1.3745755539,78.6743821976,3.8230328958,62.1300032562,8.1714217375-24.1362942485,6.3475218235,54.804814187-4.1771032376,127.6747674768-3.8077579271,47.0453017177.2361041042,86.854044108-.0105837798,86.854044108-.0105837798-27.7986695305-8.8815075483-149.624382608-8.0123789923-149.624382608-18.0800708138,0-42.8334150308-71.9970051191-37.4226435348-71.9970051191-37.4226435348,0,0,4.6571625938-16.2819724387-10.4389247858-12.8016251702-6.6047933205,1.5230917289-11.3993026624,6.0885910807-11.3993026624,6.0885910807,0,0-11.7060034306-51.8438158542-44.8004522837-44.7601778426-4.9984616342,1.0698771146-12.9456214582,2.6008637712-18.2864826629,5.5912106393,0,0-5.4191811733-8.7593077987-21.1898028757-1.395056598-5.6178237201,2.6235187809-4.1999405192,7.2728302269-4.1999405192,7.2728302269,0,0-10.0805065219-5.5936134434-19.0406770721.5596817182-8.5104457341,5.8487111416-5.5986477486,14.8274750449-5.5986477486,14.8274750449l-9.8024677728,10.3494492029c-2.3133281597-20.0668465176-24.7269127476-8.8606832464-25.100434351-8.6741226736.1029201048-.2703154573,10.3931570905-27.2710824094-.9451601179-36.5772569713,0,0,2.9307915791-24.6742805213-24.4524209949-11.2481551327,0,0-1.6276136646-19.6403487961-15.2031130296-17.9039796016-24.929034332,3.1946424233-17.6419590937,20.1429925226-17.6419590937,20.1429925226-24.6391531918,3.9143394503-36.9607321244,29.6510026259-36.9607321244,29.6510026259,0,0-26.2897651233-3.4993980722-34.6780683206,2.6882228618-.7090560197.5255275747-1.2918445848,1.1194778557-1.7187485879,1.7896885609-6.7190981395,10.5551177889-9.2347195125,28.851383759-7.8587137529,35.3702483961-.0078377178,0-.0115563431-.0038330446-.0189935935-.0038330446-.8765085749-.1865605727-31.465404948-6.6102284013-46.7176038308-.2170533005-18.0804136148,7.5813045011,12.2985234561,39.8062823766-1.2196518705,40.9257602322-117.5103869922,9.755498922,65.5602784111,9.1043962301,32.8294538972,16.7084701602Z"/><path class="cls-7" d="m160.7029751447,55.0670671372s12.3196910152-6.4340227699,17.9195973754-5.0353047561c0,0,9.4706029132-11.6371805528,17.5904132268-9.9587647039,8.1198184546,1.6784730584,11.8089235354,4.3638926489,11.8089235354,4.3638926489,0,0-9.5197950447-2.7973788179-13.7197248148-1.6784158488-4.1998725605,1.1189629691-12.0397071391,10.9099318558-12.0397071391,10.9099318558,0,0-8.9598272925-1.6784730584-21.5595021837,1.3986608041Z"/><path class="cls-4" d="m175.9376678841,101.1628035724s7.7373721506-10.6852696758,32.7725875358-.9025389744c0,0,2.7817033116-4.1256145791,10.6872717425-3.6267466876,4.412806763.278496433,11.7887949792,4.5160702396,13.0127283415,8.0734216574,0,0,12.2950908789-6.2809870348,28.9851963293-3.612959169,16.0037044399,2.5582998135,28.8095055889,15.0530525788,28.8095055889,15.0530525788,0,0-13.0183348841-8.6899125289-27.1864686938-10.8018628825-23.6268289811-3.521881453-31.3787895846,10.8018628825-31.3787895846,10.8018628825-3.0489294426-4.0928906761-12.269689808-12.7576881816-18.4787641929-12.2182586691-6.2090171752.5394295125-7.6774164698,1.5563305185-7.6774164698,1.5563305185,0,0-17.9375611958-8.907480716-29.5458505969-4.3223012547Z"/><path class="cls-2" d="m410.4202738527,145.7883671777s-8.0985364763-24.1261551465-37.3219536597-26.4360507873c-20.3898515204-1.611595012-27.6311590634,14.5807871609-27.6311590634,14.5807871609,0,0-.5716385145-21.0539413112-21.8668894674-7.0073203778-10.355227113,6.8304854405-7.4408546946,11.9292356659-7.4408546946,11.9292356659,0,0,14.4044667463-2.0843181069,27.402148958-1.6062173076,2.3131565308.0850707058-3.6569412988,2.5777510845-1.1513435853,2.6811288689,2.9613987253.12214254,11.3506744861.2083002286,14.4800406532.3573884998,22.4073487394,1.067703149,45.3738070868,2.7249514382,53.5300108591,5.5010482773Z"/><path class="cls-5" d="m144.6175753687,87.5575548618s-6.3229787366-19.7797114319-4.9545246467-32.4904877246c3.4300599254-31.8605525923,29.6852132291-34.8153722861,29.6852132291-34.8153722861-24.6391531918,3.9143394503-36.9607321244,29.6510026259-36.9607321244,29.6510026259-2.3209303639,25.5576542728,12.230043542,37.6548573847,12.230043542,37.6548573847Z"/><path class="cls-3" d="m94.5652228381,109.006700232c-.2021215844,4.386490449-9.4899832945,14.2981144256-13.4649703808,18.3495281268,13.3164542095-12.1353047192,35.3335189271-7.4669996792,39.0836666716-6.5569090349-1.9856314612-.5826227761-8.8379135941-3.1947568425-11.6468486844-12.0439981648-2.9614559349-9.3365528704,10.2217570716-12.0058393478,12.9733109139-12.4589395429-3.2700446206.4645421192-21.7427445938,2.8672317647-25.6760203292-1.7591386235-10.896144062-12.805572634,1.9018765788-41.961540413,1.9018765788-41.961540413l-.0267741017.0152177591c-.7090560197.5255275747-1.2918445848,1.1194778557-1.7187485879,1.7896885609-6.7190981395,10.5551177889-9.2347195125,28.851383759-7.8587137529,35.3702483961,4.2838562814.8034519115,6.6848295777,13.6736142072,6.4332216727,19.2558429361Z"/></g></g></g></g></svg>