<?xml version="1.0" encoding="UTF-8"?><svg id="Capa_2" xmlns="http://www.w3.org/2000/svg" viewBox="0 0 252.7736336498 216.7010471639"><defs><style>.cls-1{opacity:.2;}.cls-2{opacity:.4;}.cls-3{fill:#04071d;stroke-width:0px;}</style></defs><g id="Capa_1-2"><path class="cls-3" d="m139.4481446527,159.1070471639s-2.0210999489,21.543,12.2592996903,22.6124c14.2802996393,1.0695,40.5893989746.6417,45.0811988612-2.1389,4.4916998865-2.7806,7.9140998001-7.7002,8.5556997839-12.192.6416999838-4.4918-5.9286998502-14.3253-5.9286998502-14.3253l-59.9674984851,6.0438Z"/><path class="cls-3" d="m202.735743054,178.5312471639c0,.1438-13.5114996587.2604-30.1748992377.2604-16.6692995789,0-30.1778917218-.1166-30.1778917218-.2604s13.5085921429-.2603,30.1778917218-.2603c16.663399579,0,30.1748992377.1165,30.1748992377.2603Z"/><path class="cls-3" d="m251.7214418165,17.3031471639l.805510278-4.1367c.1894896969-.973-.4836102861-1.9032-1.467-2.0274l-4.4345101492-.5606s-.6352999839,1.0339-.1286999968,1.7989,3.5375999106,1.2456,3.5375999106,1.2456v4.0966l1.6870999574-.4164Z"/><path class="cls-3" d="m158.3007441765,84.7817471639h0c5.8884998512-.0707,10.5366997338-5.0208,10.2413997413-10.9023-.2835999928-5.6477-.6004999848-11.3542-.6004999848-11.3542,0,0,8.4575997863-1.5569,8.3261997897-10.0525-.1312999967-8.4957-2.1455999458-27.9562-2.1455999458-27.9562h0c-9.9485997487-3.9518-21.256699463-2.21-29.5546992534,4.5527l-1.2317999689,1.0037,4.512599886,45.358c.5326999865,5.3555,5.0709998719,9.4153,10.452399736,9.3508Z"/><path class="cls-3" d="m251.8384418135,12.8858471639l-10.0373997464,4.7758c-.3930899727-3.1428-2.8285999286-6.2368-2.6882999321-4.6573.1403999965,1.5795.118599997,9.7818.118599997,9.7818l-13.8819996493,30.0262c-1.8796999525,4.7531-5.7572998546,7.77-8.6712997809,8.5033l-13.2113996663,4.081,5.3667998644,17.4665,18.3555091945-6.3025c4.7625902215-1.6352,8.468-5.4312,9.9876900895-10.232l12.2878996896-38.8161s1.4619999631-4.4139,1.9709999502-7.6432c.5090999871-3.2293.4028999898-6.9835.4028999898-6.9835Z"/><path class="cls-3" d="m114.0900452933,114.0245471639s12.7980996767-33.2927,13.9137996485-34.388c6.9237998251-6.7976,16.5153995828-7.0352,16.5153995828-7.0352l26.1107075698-2.0967s20.3113912575-4.3983,32.1064909595-7.4844l7.401899813,24.0895-22.4792994321,7.5839.3031999923,28.0206,6.9777998237,20.7785c1.3617999656,2.4232,2.5472999357,4.9414,3.5470999104,7.5351l.9284999765,2.4085-60.3796910434,5.999c-.8293074103-7.0446,5.691192425-25.2596,5.691192425-25.2596l-6.848899827-27.0566-1.2196999692,10.6826-22.5684994299-3.7772Z"/><path class="cls-3" d="m187.3091434437,101.5857471639c.0059999999.0934-1.18589997-.3648-3.1772999197.2846-.9831999752.3173-2.1097999467.9355-3.2635999176,1.8497-1.1603999707.9078-2.294899942,2.1665-3.6326999082,3.491-1.3292999664,1.3039-2.9538999254,2.7554-5.14689987,3.4188-2.1621999454.6942-4.6696917337.6113-7.086899821-.0749-2.4279999387-.678-4.8041998786-1.9244-6.9927919128-3.5361-2.2043078549-1.5924-4.2892078022-3.4667-6.525-5.2276-2.2301076894-1.766-4.5604076305-3.2947-7.0554075675-4.242-2.4809999373-.9691-5.0403998727-1.4673-7.4874998108-1.5519-4.9218998757-.2122-9.2811997655,1.2609-12.4419996857,3.1818-3.1944999193,1.9234-5.2720929359,4.1908-6.5463998346,5.8278-.6310999841.8305-1.0815999727,1.5065-1.3749999653,1.9722-.2901999927.4679-.4518999886.7098-.4701999881.7s.1077999973-.271.3657999908-.7614c.2612999934-.4881.6829999827-1.1899,1.2917999674-2.0505,1.2296999689-1.6966,3.2877999169-4.0446,6.5126998355-6.0508,3.1880999195-2.0031,7.6422070585-3.5597,12.6826996796-3.3725,2.5063999367.0716,5.1319998704.5694,7.6815073788,1.5566,2.5663923623.9654,4.965,2.5366,7.2134922449,4.3184,2.257799943,1.779,4.3320998906,3.6488,6.4995077551,5.2236,2.1468920264,1.5907,4.4487919683,2.8072,6.7977919089,3.4796,2.336899941.6783,4.7307998805.7702,6.7876998285.1319,2.0801999474-.6043,3.6602999075-1.9715,4.9992998737-3.2481,1.344099966-1.2918,2.5116999365-2.5442,3.722399906-3.4513,1.1998084829-.9096,2.3748084828-1.5149,3.3996999141-1.8075,1.0216999742-.3115,1.8695999528-.3057,2.4201085687-.2461.5557913561.0607.8271913492.1847.8271913492.1847Z"/><path class="cls-3" d="m188.4311434153,127.0172471639c.0095999998.0652-.6865999827.1313-1.8673999528.5169-1.1786999702.3891-2.7952999294,1.2073-4.5697913681,2.5507-1.7958084711,1.3177-3.7133084227,3.1733-6.068,5.0119-2.382108303,1.802-5.3465082281,3.4104-8.717908143,4.2281-3.3618999151.8384-6.7075998306.9554-9.6759997556.5866-2.9755999248-.3633-5.5682998593-1.2144-7.6105998077-2.1733-1.0441999736-.4382-1.898299952-1.0123-2.6814922937-1.4456-.73430762-.5149-1.371-.9525-1.8658075914-1.3412-.950699976-.8299-1.4592999631-1.3005-1.4312999638-1.3311.1041075553-.1505,2.0415999484,1.9688,6.1535998446,3.7306,2.0293999487.8933,4.5833998842,1.6849,7.5011998105,2.0108,2.9109999265.3312,6.1796998439.1989,9.4623079002-.6191,3.2943917775-.7999,6.1781917047-2.347,8.5303916453-4.0862,2.3366083547-1.7848,4.2986083547-3.6207,6.1530998446-4.9146,1.8336999537-1.3205,3.5271999109-2.1044,4.75119988-2.431.6164999844-.151,1.0958999723-.2522,1.4300999639-.2711.3306999916-.0349.5040999873-.0431.5063999872-.0224Z"/><path class="cls-3" d="m192.321743317,72.1801471639c-.0257912226-.0592.7388999813-.4794,2.1030999469-.8008,1.3569999657-.3251,3.3305999159-.4676,5.4385998626-.0457,2.1070999468.4302,3.8705089679,1.3285,4.9945089679,2.1552,1.1321908773.8261,1.6734908636,1.5104,1.6265908648,1.5549-.0686999983.0736-.7076999821-.4921-1.8615908648-1.2009-1.1492090591-.7118-2.8598090159-1.507-4.8786089649-1.9202-2.019899949-.4034-3.9048999014-.3352-5.2403910351-.1258-1.3387087987.2048-2.1475087783.4778-2.1822087774.3833Z"/><path class="cls-3" d="m161.7578440892,155.1243471639c-.0288919947-.1377,1.937799951-.2485,4.7172998808-1.6028,1.3922999648-.6521,2.969299925-1.5958,4.6482998826-2.7602,1.6838999575-1.2007,3.5151999112-2.5068,5.4372998626-3.8775,1.9557999506-1.3555,3.9466999003-2.495,5.8722083792-3.2864,1.934-.7703,3.775591377-1.1784,5.3312913377-1.3619,1.5582999606-.1835,2.8303999285-.1666,3.7008999065-.101.871599978.0675,1.345499966.1671,1.3418999661.2022-.0038999999.1151-1.9351999511-.1406-4.9845998741.3197-1.5187999616.2333-3.3069999165.6752-5.1799998691,1.4536-1.8633999529.7991-3.8027999039,1.9256-5.7419998549,3.2695-1.9425999509,1.338-3.7492999053,2.6962-5.4660998619,3.84-1.7113917503,1.1498-3.3411999156,2.0741-4.7844998791,2.6893-.712099982.3297-1.3959999647.532-1.9841999499.7337-.6027999848.1581-1.1253999716.2823-1.5538999607.3668-.870299978.1138-1.3489999659.156-1.3538999658.115Z"/><path class="cls-3" d="m169.9355438826,16.9132471639c15.3065996133,1.4656,9.4187997621,21.5398,13.2454996654,27.62,1.4137999643,2.2464,3.7574999051,3.933,5.6343998577,5.9121,1.8766999526,1.979,3.3410999156,4.5654,2.5275999361,7.0699-.7042999822,2.168-3.0440912473,4.1223-2.4725999375,6.287.3037999923,1.1502,1.3770999652,1.9985,2.1910999446,2.9416,1.9964999496,2.3128,2.4959999369,5.437,1.7589999556,8.2962s-2.6172999339,5.4652-4.9606998747,7.6419c-6.8443998271,6.3581-18.0001995453,9.0755-27.5057993051,6.6999-2.810399929-.7024-5.7124998557-1.8186-8.5804997832-1.1485-1.7686999553.4134-3.2429999181,1.4574-4.8718998769,2.1905-6.3065998407,2.8383-14.6670996295.305-18.1473995416-4.8259-3.4801999121-5.131-2.4237999388-12.0304,1.6342999587-17.0361,2.9074999266-3.5863,7.4092998128-6.8546,7.3484998144-11.1506-.0596999985-4.227-4.7218998807-8.051-3.1076999215-12.0906,1.0433999736-2.6113,4.4257998882-4.2046,5.45460732-6.8198,1.0718925152-2.7245-.7306074393-5.5384-1.0623074309-8.3642-.4485999887-3.8208,1.8337999537-7.5548,4.4913074309-10.7378,3.3435923712-4.0047,7.7585922596-7.7643,13.3448921185-8.845,5.5862998589-1.0806,12.2841078815,1.5811,13.0776996696,6.3594"/><path class="cls-3" d="m168.4223439208,90.7057471639c-.0196999995-.0805,1.2632999681-.0517,3.2643999175-.9787.9857999751-.4705,2.1310999462-1.2169,3.1650999201-2.3732,1.0345999739-1.1454,1.9042999519-2.7489,2.2508999431-4.6644.3640999908-1.911.1435999964-4.1072-.8774999778-6.1743-.476799988-1.0476-1.0736999729-2.0922-1.6346999587-3.2118-.556399986-1.1146-1.0955916705-2.3302-1.2708999679-3.6897-.1924999951-1.3557.1295999967-2.8239.8811999777-4.035.7417999813-1.2196,1.7688999553-2.2319,2.8076999291-3.2106,1.0460999736-.9713,2.0942999471-1.9536,2.890799927-3.1458.8037999797-1.1688,1.2824999676-2.6026.9836084636-4.009-.295908481-1.4034-1.2292084574-2.5797-2.235-3.6164-1.0125084064-1.0448-2.1126083786-2.0126-3.0494083549-3.1325-.9405916451-1.1065-1.6515916451-2.463-1.8493999533-3.8802-.2218999944-1.4131-.0505999987-2.7993.1929999951-4.0988.5418999863-2.6004,1.3346999663-4.9491,1.6542999582-7.2463.3653999908-2.281.4077999897-4.4541.0565999986-6.3784-.6632999832-3.8965-3.0295999235-6.4381-4.868699877-7.541-1.898899952-1.129-3.2145999188-1.074-3.1850999195-1.1664.0008-.0103.077599998-.0101.2275999943.0002.1486999962.0175.3762999905.0149.6638999832.0774.5797999853.094,1.4294999639.3392,2.4122999391.8874,1.9264999513,1.07,4.4252998882,3.6448,5.1677998695,7.6648.3888999902,1.9772.3684999907,4.208.0181083669,6.5309-.3035083596,2.3357-1.0918083397,4.7404-1.603,7.2753-.230908321,1.2683-.3827083172,2.5968-.1699083225,3.9058.1934999951,1.3142.832399979,2.5297,1.7349083225,3.5925.8984916109,1.0699,1.9873915834,2.0259,3.0272915572,3.0942,1.0257084428,1.0583,2.0543999481,2.3158,2.3937999395,3.9131.3425999913,1.5978-.2194999945,3.2277-1.0756999728,4.4597-.8473915239,1.2642-1.9438999509,2.2801-2.9849999246,3.2429-1.0352999738.9681-2.0257999488,1.9467-2.7191999313,3.0779-.6992999823,1.1248-.988191668,2.4223-.8227999792,3.6713.3508999911,2.5236,1.8852999524,4.6108,2.810099929,6.7636,1.0356999738,2.1391,1.2525083822,4.4844.8408999787,6.4581-.3880999902,1.9911-1.3239999665,3.6467-2.4196999389,4.8113-1.0948999723,1.1752-2.2923999421,1.9111-3.3161999162,2.3598-1.028199974.4533-1.8897999523.6272-2.4689999376.7113-.2907999927.044-.514399987.057-.6649999832.0613-.1502999962.006-.2272999943.0039-.2280999942-.0063Z"/><path class="cls-3" d="m140.4105446284,36.3471471639c-.0356999991.0043-.1624999959-.6098-.299592534-1.7348-.1289074552-1.1238-.3034074508-2.7633-.217407453-4.8022.0864074529-2.0253.4788999879-4.5011,1.7327999562-6.9326,1.2492999684-2.4247,3.3283999159-4.6901,5.9347998501-6.4206,5.2568076466-3.466,11.4662997103-3.9518,15.3012996134-2.4343,1.9365999511.7278,3.2386999182,1.9109,3.8431999029,2.8883.315599992.4824.4866999877.9005.5740999855,1.1871.0864999978.2891.1213999969.4416.1015999974.4476-.0615999985.024-.2172999945-.6004-.8676999781-1.501-.6397999838-.8985-1.9160999516-1.9714-3.7975999041-2.6231-3.7128999062-1.3597-9.7317997542-.824-14.8230919705,2.5363-2.5264075912,1.6766-4.55180754,3.863-5.7759075091,6.1763-1.2321999689,2.3231-1.6607999581,4.7125-1.7992999545,6.7006-.1385999965,1.999-.0309999992,3.632.0262074637,4.7567.064892534,1.1261.1131925328,1.7503.066592534,1.7557Z"/><path class="cls-3" d="m164.7759520944,21.6474471639c.0070919183.1004-1.1148080534-.3256-2.948408007.3261-1.7683999553.6255-4.1782998945,2.6022-5.047591993,5.96-.443,1.6618-.533807866,3.5683-.4203078689,5.6016.0997999975,2.0375.4285999892,4.2095.5223999868,6.5388.0855999978,2.3092-.0339999991,4.8516-1.1156999718,7.2244-1.0414999737,2.4048-3.326799916,4.0725-4.0567998975,6.5354-.3484999912,1.2178-.1784999955,2.5106.2087999947,3.7109.3824999903,1.2092.9360999764,2.362,1.4062999645,3.5397.4678999882,1.1738.8671999781,2.4022.9137999769,3.6659.0688999983,1.2647-.2534921847,2.4814-.6922999825,3.5704-.9063999771,2.1893-2.2449999433,3.9631-3.2885999169,5.7115-1.0538999734,1.7362-1.8537999532,3.4854-1.9647999504,5.1922-.1471999963,1.6992.3505999911,3.2318.9622999757,4.4441.6056999847,1.2294,1.3247999665,2.1865,1.9102999517,2.9597.5959999849.7686,1.0887999725,1.3445,1.4166999642,1.7402.3301999917.3939.4981999874.6063.4824999878.6206-.0149999996.0138-.2126999946-.1711-.5724999855-.5395-.357599991-.3703-.8798999778-.9225-1.5091999619-1.675-.6186999844-.7579-1.3749999653-1.7046-2.0270999488-2.9532-.6555999834-1.2284-1.2134999693-2.823-1.0867923181-4.6261.0906923433-1.8115.9106923226-3.6473,1.960592296-5.4183,1.0407999737-1.7805,2.3534999405-3.5637,3.2022999191-5.6616.4123999896-1.0439.7034999822-2.1782.633199984-3.341-.0475999988-1.16-.4235999893-2.3207-.8868999776-3.4708-.4638999883-1.1541-1.0257999741-2.3121-1.4299999639-3.5792-.4073999897-1.2511-.6093999846-2.6876-.2166999945-4.0543.3893999902-1.3643,1.2319999689-2.4677,2.0195077368-3.4923.797292192-1.0281,1.590392172-2.0075,2.0806921596-3.1257,1.0283078404-2.23,1.1681999705-4.6857,1.0970999723-6.9582-.0761999981-2.2871-.3863999902-4.4676-.4668999882-6.5343-.0933999976-2.0621.0223999994-4.0233.5079999872-5.7372.9653999756-3.4932,3.5192999111-5.4868,5.3804998641-6.0695.949099976-.3064,1.7377999561-.3265,2.2526999431-.268.2593999935.0167.4512999886.0796.5812999853.1023.1291999967.03.1937999951.0502.1916080767.0604Z"/><path class="cls-3" d="m193.232243294,138.4073471639c.0362999991-.0123.2642999933.5742.6703999831,1.6352.4066999897,1.0606.988499975,2.5974,1.7776999551,4.4651.79239998,1.8661,1.8053999544,4.0575,3.0698999224,6.4196,1.2468999685,2.3676,2.8392999283,4.8631,4.2228998933,7.6606,1.3618999656,2.7891,2.4805999373,5.6288,2.5928999345,8.3936.079909112,1.3977-.3239999918,2.6942-.8065999796,3.7958-.4850999877,1.1136-1.067199973,2.0806-1.6437999585,2.926-1.1565999708,1.6911-2.2756909499,2.9191-3.0985999217,3.71-.4112999896.3965-.751399981.6827-.989499975.8665-.2424999939.1792-.3741999906.2657-.3852999903.2515-.0261999993-.0338.4603999884-.4307,1.2302999689-1.2602.7701999805-.8258,1.8361999536-2.0797,2.9359999258-3.7709.5482999861-.8449,1.1006999722-1.8056,1.5534999608-2.892.4531999886-1.083.8133999795-2.3036.7245999817-3.6063-.1296909001-2.6396-1.2313999689-5.4256-2.5800999348-8.1829-1.3664999655-2.7645-2.9458999256-5.2678-4.1805909653-7.6675-1.2487088975-2.3887-2.2339088727-4.6112-2.9862088536-6.5039-.7492999811-1.8946-1.2797911464-3.4548-1.6283999589-4.5378-.1750999956-.5414-.3010999924-.9649-.3814999904-1.2536-.080599998-.2888-.1146999971-.4431-.0975999975-.4488Z"/><path class="cls-3" d="m242.4041420519,49.8153471639c.0085999998.0027-.0099999998.0905-.0543999986.2594-.0554999986.1972-.1244999969.4424-.2098999947.7457-.2069999948.6907-.4927999875,1.6439-.8548899641,2.8518-.7769099947,2.5104-1.8796099668,6.0735-3.237,10.4596-.3536099236,1.1037-.6849099152,2.2575-1.1035099047,3.4639-.435599989,1.202-1.0518999734,2.4043-1.8954900953,3.4985-.8309098358,1.1037-1.861,2.1075-3.0184097805,3.0023-.5767999854.4502-1.1865902195.8725-1.8078999543,1.2858-.2973999925.2135-.6415999838.4032-.9947999749.5884-.3489999912.1537-.7002999823.3085-1.0537999734.4642-5.7020903169,2.2627-12.0931996945,4.3288-18.7982995251,6.527l-.4625999883.1491.1691999957-.3242c.4402999889,1.4343.8756999779,2.8523,1.3036999671,4.2467l.0741999981.2417-.237799994.0797c-8.2859997907,2.7785-15.9560995969,5.3505-22.4946994317,7.543l.1468999963-.2047c.0115999997,1.689.0226999994,3.3064.0333086651,4.8444-.0132086656,1.5345.0951913317,3.001.0862913319,4.371.0171999996,2.7426-.0459999988,5.123-.0703999982,7.0803-.0295999992,1.957-.0306999992,3.4905-.0201999995,4.5351.0053086658.4941.0094999998.888.0126999997,1.1919.0013.2697-.0033913339.4091-.0145999996.4097-.0111999997.0005-.0284999993-.1376-.0514999987-.4066-.0240999994-.2689-.0520999987-.6687-.0763999981-1.1913-.0520999987-1.045-.0903999977-2.5812-.0976999975-4.5401-.0123999997-1.9586.0164999996-4.3405-.0313999992-7.0743-.0065999998-1.3692-.1286999967-2.8141-.1295999967-4.3591-.0227999994-1.543-.0466999988-3.1656-.0716999982-4.86l-.0022999999-.1543.1493999962-.0507c6.5294998351-2.2163,14.1888996416-4.816,22.4634994325-7.6246l-.1634999959.3212c-.4287999892-1.3942-.8648999782-2.812-1.305899967-4.2461l-.0755999981-.2456.2449999938-.0789.4616999883-.1489c6.6950998309-2.1945,13.104299669-4.2527,18.7745995257-6.4747.3461999913-.1506.6902999826-.3003,1.0321999739-.449.315499992-.165.6305999841-.3316.9404999762-.5514.6200999843-.4082,1.2206999692-.8197,1.7877999548-1.2573,1.1372999713-.8693,2.1422999459-1.8378,2.9545999254-2.9014.8246999792-1.0543,1.4288999639-2.2121,1.8615098481-3.3745.4184900943-1.1734.7677900855-2.3451,1.1302900763-3.4385,1.423499964-4.3648,2.5797999348-7.9105,3.3944999142-10.4086.4015999899-1.1954.7184999818-2.1387.948099976-2.8222.1053999973-.297.1905999952-.537.2591100334-.7301.0611899585-.1635.0966899576-.246.1051899574-.2433Z"/><path class="cls-3" d="m248.0403419095,14.6929471639c.1688999957-.0803,3.676610185-9.8702,4.1260998958-10.7925.6863999827-1.408.751199981.7527.3925102892,3.4137-.3034102915,2.2508-.7205102809,5.5717-.7205102809,5.5717l-3.7980999041,1.8071Z"/><path class="cls-3" d="m180.8941436057,29.2035471639c.0176999996-.0033.079299998.2527.1804999954.7442.1091999972.4902.2308999942,1.22.3731999906,2.163.1232999969.945.2639999933,2.1046.3601999909,3.4548.1124999972,1.348.1654999958,2.8908.3650999908,4.5674.205808521,1.6623.6158999844,3.5104,1.7925999547,5.0937,1.1560999708,1.5837,2.7742085663,3.017,4.2842085663,4.6935.7606913063.8357,1.521091287,1.7207,2.1842912703,2.7205.6519999835.9956,1.2364999688,2.1353,1.3517999658,3.4332.0733999982.6433-.0590912361,1.3329-.3449999913,1.9256-.2826999929.5992-.6882999826,1.1146-1.0942999724,1.603-.4058999897.4883-.8249999792.9596-1.1028999721,1.4846-.3082999922.5218-.3020999924,1.0863-.1712999957,1.7023.5705999856,2.4269,2.8142999289,4.1732,3.444899913,6.6775.7271999816,2.4295.4042999898,4.9457-.3656999908,7.0845-.8072999796,2.1425-2.0361999486,3.9865-3.4739999122,5.418-1.4370999637,1.4367-3.0177913147,2.4863-4.5056998862,3.33-3.0118999239,1.6443-5.662199857,2.4802-7.4664998114,3.0744-.9082999771.2862-1.6168999592.4963-2.099299947.6325-.4823999878.1357-.7383999814.1987-.7437999812.1815-.0054916889-.0171.2398999939-.1136.711899982-.2815.5194999869-.1822,1.2067999695-.4232,2.0666999478-.7247,1.780299955-.6511,4.4022998888-1.5396,7.3495998143-3.2026,1.4541999633-.851,2.9963999243-1.9031,4.3798998894-3.3132,1.3827999651-1.4017,2.5621999353-3.2038,3.3301999159-5.278.7319999815-2.0715,1.0225999742-4.4811.3283999917-6.7731-.3293999917-1.1497-.9587999758-2.191-1.68219123-3.2273-.6971087099-1.0404-1.4873086899-2.1364-1.7837086824-3.4893-.1532913176-.6392-.1496999962-1.4515.2191999945-2.0511.3257999918-.6099.7673999806-1.0943,1.1663999705-1.5763.8141087175-.937,1.4755999627-1.9944,1.3284999664-3.1579-.0968999975-1.1549-.631699984-2.2367-1.2586999682-3.1988-.634999984-.967-1.3767999652-1.841-2.1240999463-2.6713-1.4863999625-1.6729-3.087299922-3.1037-4.2816998918-4.7672-1.2176999692-1.6719-1.6218914426-3.6147-1.8054999544-5.2998-.1787999955-1.7054-.2048999948-3.2436-.2897999927-4.5907-.0682999983-1.3482-.1789999955-2.5039-.2708999932-3.4493-.1107999972-.9429-.1997999949-1.6755-.275399993-2.1702-.0676999983-.4961-.0946999976-.7586-.0770999981-.7619Z"/><path class="cls-3" d="m120.3335969601,105.0448043351l-6.2435516668,40.5584098947,15.5609144239-.8923853309,6.0861660739-41.4406277155s-15.3967641997-1.1022799837-15.4035288311,1.7746031517Z"/><path class="cls-3" d="m55.6061985953,15.1006471639l-2.3318999411,47.2431,20.226499489,1.9053,1.1178999718-11.4654s7.1338998198,1.7629,9.300899765-4.8379c1.384399965-4.2166,2.6159999339-37.2409,2.6159999339-37.2409l-30.9293992187,4.3958Z"/><path class="cls-3" d="m88.2823977698,16.2215471639c.5594999859,4.4208-5.6222930882,6.9806-5.6222930882,6.9806l-1.0802067425,10.4585c-.8574999783-.1375-2.9056999266-.0256-2.9056999266-.0256.5209999868-4.9073-5.7991998535-3.9501-6.4424998373-.6031-.6185934937,3.218,3.0462999231,5.3656,3.0462999231,5.3656-2.5296999361,3.8818-3.5554999102,5.9293-7.1450998195,9.5664-3.8854999018,3.9369-5.9746998491,4.2553-9.9853997477,4.1367l-4.4188998884-.2045s-1.5732999603-3.7751-2.7267999311-12.6928c-.554899986-4.2898-3.90369403-9.9102-2.9504999255-16.8845,2.7084999316-19.819,21.6981994519-17.7248,21.6981994519-17.7248,9.8514997511.2745,17.2338995646,1.3679,18.5328995318,11.6275Z"/><path class="cls-3" d="m82.9384979048,22.8729471639c4.6177998833-1.534,8.3452997892-5.5091,9.579499758-10.216.476499988-1.8176.5733999855-3.8511-.357799991-5.4831-.9311999765-1.632-3.1442999206-2.6119-4.788699879-1.7027-.0052999999-2.5623-2.0426999484-4.9709-4.5685998846-5.4012-2.5258999362-.4302-5.2458998675,1.168-6.0990998459,3.584-1.1937999698-1.63-3.5406933807-2.1763-5.4543998622-1.5283-1.9135999517.6479-3.3714999148,2.3176-4.0888998967,4.2063-.7173936218,1.8887-.7630999807,3.9759-.4922999876,5.978"/><path class="cls-3" d="m46.7406988192,9.5195471639c-.0150999996-.0639.3518999911-.2305.9941999749-.2881.6380999839-.0601,1.5506999608.0341,2.4608999378.4261.909199977.3954,1.6024999595.9964,1.9953999496,1.5026.39769999.5078.5271999867.8894.4702999881.9222-.1304999967.0942-.9867999751-1.2176-2.6806999323-1.928-1.6766940558-.7485-3.2193999187-.475-3.2400999182-.6348Z"/><path class="cls-3" d="m51.9132986886,7.2405471639c.1400999965.0651-.2425999939,1.0095.0818999979,2.1446.2889059951,1.1451,1.0937999724,1.7697,1.0051999746,1.8964-.0352939795.0572-.3040999923-.0176-.6417999838-.3031-.3363999915-.2807-.7087999821-.7967-.8862999776-1.4527-.1754999956-.6562-.1122999972-1.2893.037899999-1.701.1489059828-.4163.3439059828-.6159.4030999898-.5842Z"/><path class="cls-3" d="m82.5522979145,28.0200471639c.005806767.0074-.0468999988.0553-.156099996.1422-.1136999971.0798-.2654999933.2288-.5052999872.3604-.4581999884.2963-1.2141999693.6344-2.2479999432.7974-2.0552999481.3197-5.2379998677-.302-8.2235997923-2.5732-.7365999814-.5707-1.465999963-1.2632-2.0015999494-2.1628-.5304999866-.8827-.832999979-2.0476-.5322999866-3.1665.2505999937-1.0825,1.0394999737-2.2479,2.3288999412-2.5081,1.2815999676-.272,2.5781999349.5021,3.2499999179,1.5917.7209999818,1.1243.7071999821,2.5715.3056999923,3.8183-.4071999897,1.264-1.1674999705,2.4056-2.1189999465,3.374-1.899999952,1.9353-4.7616998797,3.1134-7.6565998066,2.8181-1.4380999637-.1344-2.8261999286-.5845-4.0397998979-1.297-1.2113999694-.7051-2.2694937786-1.6982-2.9223999262-2.9201-.6604999833-1.1977-.8980938524-2.7193-.2513999936-3.984.674399983-1.2089,2.0014999494-1.9581,3.3390999157-1.8593.6742062256.0348,1.3088999669.4215,1.7053999569.9362.39799999.5256.5654999857,1.1649.5998062687,1.7693.0617937146,1.2256-.3419062752,2.3523-.8568062622,3.3315-1.0924999724,1.9562-2.8795999272,3.2544-4.6761937378,3.8091-1.8095060984.5844-3.6118060528.3494-4.9746060184-.225-1.3843939816-.5659-2.3869999397-1.4157-3.0659999225-2.2013-.6861999827-.7881-1.0501999735-1.5262-1.2459999685-2.033-.1130999971-.2487-.1536999961-.4556-.196799995-.5877-.037399999-.1345-.0520999987-.2043-.0430999989-.2069.0805059034-.0455.2707999932,1.163,1.6433999585,2.6874.6846999827.7439,1.6774999576,1.5422,3.0201059449,2.0601,1.3251939453.5265,3.0355939021.7191,4.7465938589.1417,1.700499957-.5484,3.3872999144-1.8076,4.3984998889-3.6595.4771999879-.9241.8421999787-1.9947.7756999804-3.0874-.0343999991-.5399-.1872999953-1.0796-.512899987-1.5026-.3309999916-.4115-.8078937411-.7077-1.3617999656-.7349-1.0945999723-.0885-2.2896999422.5869-2.8378999283,1.6051-.5313999866,1.0372-.3506999911,2.4013.2618061528,3.4894,1.2297938095,2.2444,3.8528937433,3.6687,6.5447936753,3.9297,2.7295999311.2787,5.424699863-.8266,7.2309998173-2.6531.9020999772-.9117,1.623799959-1.9936,2.0024999494-3.1572.3765999905-1.1494.3760999905-2.4387-.236199994-3.3966-.5837999853-.9599-1.701699957-1.6106-2.7331999309-1.3892-1.0423999737.1926-1.752893517,1.1751-1.9866999498,2.1486-.275699993.9984-.0244999994,2.0145.4576999884,2.8494.4858999877.8379,1.1702999704,1.5099,1.8759999526,2.071,2.8749999274,2.248,5.9629998494,2.9139,7.9601997989,2.6659,2.0392999485-.2651,2.9009066928-1.183,2.9370999258-1.0911Z"/><path class="cls-3" d="m54.2512986295,59.1156471639s-23.8248993981-3.8915-33.3624991572,23.0424l-6.8632998266,21.0248,19.9174994968,3.8102-1.4139999643,53.2583,61.6964984414-5.5553-3.5552999102-39.5386-4.7533998799-.7956,1.0577999733-7.6746,23.8830993967-8.5823s-18.5511995314-41.6499-39.2529990084-38.2207l-17.3533995616-.7686Z"/><path class="cls-3" d="m120.3335969601,181.5782471639l-38.0759990381,1.8622c-9.975699748,1.2346-27.392299308,1.2729-38.0769990381.4727-14.2803996392-1.0695-11.6515997057-23.6618-11.6515997057-23.6618l61.9287984356-5.8033c5.0064998735-1.827,10.092899745-1.758,15.2317996152-.4492,0,0-2.812699929,25.1212,10.6439997311,27.5794Z"/><path class="cls-3" d="m14.0254996457,103.1828471639s-5.5246998604,24.0347-5.5963949641,27.2244c-.0941048921,4.1877,5.2300949734,11.408,10.1158948499,12.389,7.8109998027,1.5684,15.397999611-5.2625,15.397999611-5.2625l.9434999762-32.2314-20.860999473-2.1195Z"/><path class="cls-3" d="m129.6509597173,154.2079523318l2.5292928007,2.8661443956c2.5263713238,2.4080725641,3.8400058984,3.844462695,5.1734548787,3.9743737318,1.7856883107.174068017,1.5387145692-1.9712327898,1.5387145692-1.9712327898,0,0,2.2961554024,1.3396330776,3.30258786.1593182898.6862738678-.8051513478-.0034752955-1.7836326076-.0034752955-1.7836326076,0,0,2.1045310278,1.1137300557,3.0907711247.8412853057,1.3451891938-.3716636088.8302386846-1.9961826525.8302386846-1.9961826525,3.3886659828,1.0707798259,4.604506939-.341858243,4.2871978455-.9908395404-.3173906532-.649021538-2.680896858-1.727165707-2.680896858-1.727165707-1.7328303292-1.1359605612-6.541174691-4.1659087891-2.9557461545-4.6002137484,3.586273961-.4351144391,6.1779285884-2.1201168855,6.562353187-3.0640496182.3843883846-.9438390909-.7893485613-1.8223488615-1.7439488279-1.2338874668-.7719733639.4755089101-2.3036740033.8685549744-3.4658890734,1.1168440339-.9595422141.204772946-1.9468868898.2520930652-2.9192365055.1248284544-1.1333360288-.1501581389-2.0873123708-.3209899715-2.8953355603-.4870503912l-4.7075574317-.4290008838-5.9425252436,9.2004611945Z"/><path class="cls-3" d="m26.9937993181,92.9618471639c.0177999996-.0021.0547999986.1565.1087999973.4604.0578999985.3649.1275999968.8042.2113999947,1.3322.1773999955,1.242.4141053716,2.8988.7011999823,4.9082.5965999849,4.2227,1.4001999646,9.9101,2.2882999422,16.1955.8906999775,6.3277,1.6506054471,12.0636,2.138199946,16.2232.2442999938,2.0798.4282999892,3.7643.5370999864,4.9306.0453055147.5328.0829999979.976.1143055147,1.3442.0203944819.3079.0224944819.4706.0045944823.4727-.0177999995.0022-.0547999986-.1564-.1087999972-.4602-.0578999985-.3648-.1275999968-.8041-.2112999947-1.3321-.1773999955-1.2418-.4140999895-2.8985-.7010999823-4.9079-.5966999849-4.2227-1.4003945081-9.9106-2.2886999422-16.1982-.8903999775-6.3256-1.6502999583-12.0609-2.137799946-16.2205-.2443999938-2.0797-.4283999892-3.7645-.5371999864-4.9309-.0452999988-.5328-.0829999979-.9762-.1143999971-1.3443-.0203999995-.308-.0224999994-.4708-.0045999999-.4729Z"/><g class="cls-1"><path class="cls-3" d="m72.1948981762,84.1259471639s-.2715999931,18.4715,2.2217999439,30.4271c.3315999916,1.5903-.2941999926,3.718-1.1741999703,5.0835-.9304999765,1.4436-2.8142999289,1.8664-4.5053934682,2.1665-4.9305062935.8748-9.8609061689,1.7496-14.7913060444,2.6244,4.5356998854,2.7174,8.5854997831,6.2433,11.9013060444,10.3618,1.8466936083,2.2937,3.4685935674,4.7699,5.4415935175,6.9559,1.9729999502,2.1861,6.8298998275,5.4667,9.7739997531,5.5294,5.6264998579.1199,9.4520997612-6.7659,11.5150997091-8.8673l-6.6609998317-24.0454.7978999798-6.8792-14.5197996332-23.3567Z"/></g><g class="cls-1"><path class="cls-3" d="m27.2421046816,95.3812471639c-1.0761053426,6.5694-1.8375053233,13.1904-2.2807053122,19.8327-.2742946878,4.1096-.4190999894,8.3022.6421999838,12.2818,1.0611999732,3.9796,3.5035053284,7.7736,7.2175998177,9.5538l-5.5790944893-41.6683Z"/></g><path class="cls-3" d="m85.9167978296,114.3618471639l-5.8727998516,12.6442-39.0341990139-4.8599-1.4480999634-1.5197c-.632199984-.53-1.3586999657-1.1713-2.180594319-1.9661-.7038056081-.6828-1.2802055936-1.4859-1.7159055826-2.3649-.5275999867-1.065-1.1711999704-2.5093-1.2782999677-3.4097-.1320999967-1.1136-1.5496999608-1.4875-2.0503999482-.5999-.5006999874.8878-.2107999947,3.9654,1.6764999576,7.0458,1.8872999523,3.0792-3.4742999122,1.1942-5.4409998625.5422,0,0-2.3132999416-1.182-3.0190999237-1.0276-.7055999822.1547-1.0570999733,1.985,1.8873999523,3.975,0,0-1.5928999598.6058-1.0482999735,1.8908.3992999899.942,2.5795999348,1.8991,2.5795999348,1.8991,0,0-1.1952999698.0675-1.3997999646,1.1054-.2995999924,1.5219,2.176699945,2.4888,2.176699945,2.4888,0,0-1.8343945669,1.1394-.5884999851,2.4304.9302999765.9641,2.8718999274,1.101,6.3284998401,1.5845l.7720999805.0406c9.9085997497,2.9426,48.5825987727,13.7615,55.2805986035,5.4639,9.1942997677-11.39,12.1509069941-22.3879,12.1509069941-22.3879l-17.775306852-2.975Z"/><path class="cls-3" d="m79.1798150673,91.4957724684s4.0380321296,29.0736768919,8.8652647742,34.0627952485c4.8273223233,4.9891626029,41.6505070974,32.2066926476,41.6505070974,32.2066926476l9.0402920181-13.5482644192s-29.6318223651-29.0599805727-30.4348949937-30.5692921694c-.5948287127-1.1179806435-2.1248890203-23.166478482-3.8279257597-34.40954609-1.6677169826-11.0102053872-8.7200109798-23.3789042534-19.5696461078-15.1813761505-.1047216905.0791319617.1144307039-.0698812832,0,0-11.4449560123,6.9867519441-5.7235970285,27.438990933-5.7235970285,27.438990933Z"/><path class="cls-3" d="m98.4944975118,77.4636471639c-.0255999993.063-1.0329999739-.5163-3.0339999234-.985-1.9885999498-.4726-5.0167998733-.6875-8.6096997825.084-3.6064999089.72-7.6220998074,2.5557-11.8566931244,4.9524-4.2485064687,2.3435-8.8621063522,5.2689-14.3687062131,6.7901-2.7361999309.7553-5.5564998596,1.0616-8.2360997919.7383-2.6838999322-.3157-5.1438998701-1.2314-7.362699814-2.2639-4.435199888-2.1085-8.0879997957-4.5827-11.4878997098-5.9914-3.365999915-1.4793-6.3345944712-2.0345-8.3841997882-2.0266-2.0548999481-.0098-3.16509992.3426-3.1760999198.2734,0,0,1.0908999724-.4225,3.1750999198-.4761,2.0771999475-.0715,5.109605317.4384,8.5288997845,1.8903,3.4551999127,1.3821,7.1518998193,3.8373,11.5457055325,5.8949,2.1987941203,1.0092,4.6130940593,1.8934,7.2208939934,2.1927,2.6031999342.307,5.3515998648.0077,8.0391060065-.7339,5.4078936538-1.4914,9.9981935378-4.3768,14.2736934298-6.7077,4.2573065702-2.3799,8.3461997892-4.2097,12.0153996965-4.8933,3.6540999077-.7365,6.7319998299-.4602,8.7312997794.0799,2.0132999491.5367,2.9859999246,1.1819,2.9859999246,1.1819Z"/><path class="cls-3" d="m102.8605974015,84.0437471639c-.0262999993.0655-1.1129999719-.5627-3.2742999173-1.0716-2.1477999457-.513-5.4196998631-.7475-9.301999765.0843-3.8968999016.776-8.2361930377,2.758-12.8096996764,5.3454-4.5887998841,2.53-9.5698997583,5.6875-15.5121996081,7.329-2.9526999254.815-5.9952937531,1.1455-8.8858997755.797-2.8950999269-.3402-5.5496998598-1.3278-7.9447997993-2.4418-4.7876998791-2.2748-8.7338997794-4.9459-12.4074996866-6.4659-3.6368999081-1.5964-6.8449998271-2.1941-9.0593997711-2.183-2.2201999439-.0081-3.4184999136.3753-3.4296947206.3033,0,0,1.1792947775-.4507,3.4287947206-.506,2.2418999434-.0747,5.5138998607.4777,9.2040997675,2.0467,3.7287999058,1.4934,7.718899805,4.1455,12.4651996851,6.3694,2.37519994,1.0906,4.9839998741,2.0468,7.8030998029,2.3706,2.8139999289.3322,5.7848060239.0087,8.6888060239-.7927,5.843593609-1.6117,10.8013934837-4.7291,15.4171933671-7.2465,4.5962998839-2.5706,9.0088066329-4.5468,12.9683996724-5.2864,3.9434069605-.7967,7.2650998165-.5008,9.4235997619.0797,2.1735999451.5769,3.2262999185,1.2685,3.2262999185,1.2685Z"/><path class="cls-3" d="m80.0876979768,64.6953471639c.0109999997.0659-.8657999781.0716-2.2863999422.6331-1.3970999647.5655-3.3157999162,1.8545-4.7542998799,4.1811-.7181999819,1.1484-1.3360999663,2.527-1.6498934731,4.0892-.325706477,1.5594-.3834064755,3.2891-.1817064806,5.0757.1901999952,1.7911.6505999836,3.64,1.267199968,5.5081.6293999841,1.8674,1.385299965,3.7692,2.3500999406,5.6181,1.9345999511,3.7092,4.1739998945,7.0386,6.2485998421,10.0223,2.0901999472,2.9776,4.0640998973,5.5955,5.7518067299,7.77,1.6890930822,2.1738,3.0922930467,3.905,4.074,5.0912.4604930103.5599.8337930008,1.0137,1.1266929934,1.3699.2551999935.3154.3829999903.487.3695999907.499-.0133999997.012-.1672929841-.1361-.4481999887-.4295-.2800929954-.2939-.6922999825-.7289-1.2019999696-1.3075-1.030599974-1.1476-2.4794999374-2.846-4.2088998937-4.9947-1.7279999564-2.1495-3.7366999056-4.75-5.8550998521-7.7218-2.1032999469-2.9796-4.3625998898-6.3094-6.3196998403-10.0609-.9800999752-1.8794-1.741699956-3.8056-2.3711999401-5.6957-.6184999844-1.896-1.0782999728-3.7819-1.2599999682-5.6177-.1930999951-1.8316-.118699997-3.6084.236399994-5.2162.3444999913-1.6156,1.0022999747-3.0277,1.7621999555-4.198,1.5214999616-2.3702,3.5369999106-3.6517,4.9908998739-4.1715,1.4795999626-.5159,2.3598999404-.4442,2.3598999404-.4442Z"/><path class="cls-3" d="m207.6333947547,216.7010471639H19.2869995128c-10.3133997395,0-18.6740995282-8.3606-18.6740995282-18.6741h0c0-10.3134,8.3606997888-18.6741,18.6740995282-18.6741h188.346395242c10.3133997395,0,18.6740995283,8.3607,18.6740995283,18.6741h0c0,10.3135-8.3606997888,18.6741-18.6740995283,18.6741Z"/><circle class="cls-3" cx="18.6741745283" cy="198.0269471639" r="18.6741372641"/><path class="cls-3" d="m22.6971046816,194.7331471639c.0148947447-.0099.081294743.0668.1953947401.2272.0971999975.1679.2416052599.4257.3296052599.7925.1948947269.7297.1222947287,1.8557-.32650526,3.1018-.2273999943.6184-.4839999878,1.3031-.9756999753,1.9548-.2479999937.3193-.5705999856.6211-.9725999754.8226-.4002999899.2015-.8522999785.296-1.3026999671.323-.9071999771.035-1.8061999544-.0839-2.7501999305-.305-.9303999765-.2326-1.9045999519-.6778-2.6186999338-1.4734-.7427999812-.779-1.0542999734-1.9385-.8265949578-2.9291.2011949736-.9969.7593949595-1.8288,1.42-2.4425,1.3657949083-1.2154,2.9466948684-1.6228,4.154-2.0003l.0221948373-.0069.0196999995-.001c.235899994-.0123.4535999885-.0236.6651051632-.0346l.037-.0019.0304948183.0107c1.0472999735.3681,1.8681999528.785,2.3263999412,1.2096.4645999883.4182.593599985.7434.5731052405.7525-.0338052541.0248-.2136052495-.2575-.6889052375-.6091-.4714999881-.3596-1.265899968-.7083-2.3208999414-1.0318l.0670999983.0087c-.2108999947.0193-.4279999892.0391-.6632948194.0606l.0414948351-.0079c-1.18929997.416-2.7122999315.8697-3.9361999006,2.0012-.5892949345.5624-1.0817999727,1.3269-1.2466999685,2.1902-.1830999954.861.0684999983,1.7951.712599982,2.4828.6230999843.6948,1.4872999624,1.1027,2.3600999404,1.3283.8734999779.2142,1.7837051116.3413,2.5960999344.3198.8244999792-.0167,1.5214999616-.3588,1.9634999504-.9354.4497999886-.5623.7288999816-1.224.9682999755-1.8139.4758052512-1.1885.5958052512-2.2364.473099988-2.9333-.118999997-.7005-.3702947368-1.0357-.3262947368-1.0602Z"/><path class="cls-3" d="m27.3416993093,195.1055471639c.0148999996-.0069.1205999969.1717.2888999927.529.1638999959.3586.3975053796.8958.593399985,1.626.1901053946.7258.3447999913,1.6679.1666999958,2.7479-.1788999955,1.0748-.713999982,2.237-1.5896999598,3.2823-1.7269999564,2.085-4.8048946414,3.8179-8.4385997868,3.8544-1.8018999545.0241-3.7097999063-.4247-5.4311998628-1.3745-1.7176999566-.947-3.2625999176-2.3732-4.3370949918-4.164-.3993048886-.6731-.7463048798-1.3685-.9586048745-2.1311-.2148999946-.7529-.2132999946-1.6227.1272999968-2.3472.6743048777-1.4678,2.0548999481-2.2539,3.2241999185-2.9425.594699985-.3515,1.1667999705-.7017,1.6574999581-1.1209.4897999876-.4148.8887999776-.9223,1.2867999675-1.4288.39729999-.5068.7968050335-1.0187,1.2798999677-1.4496.4911999876-.4325,1.0660999731-.7441,1.6816999575-.8887l-.0247948917.0075c1.9451948432-.685,3.8816947943-.3253,5.3603947569.2684,1.5083999619.5987,2.6192999338,1.5452,3.3363999157,2.4364.7299999816.8903,1.1529999709,1.6887,1.4222053274,2.233.26509463.5485.3723946273.8542.3545946277.8624-.0727999982.0451-.515299987-1.2129-1.9654999504-2.9342-.7307999815-.8475-1.8098999543-1.7211-3.2759999172-2.2719-1.4367999637-.5466-3.2889999169-.8481-5.0831998716-.1888l-.0112999997.0041-.0138999996.0034c-.5307999866.1304-1.0478999735.416-1.4788999626.8046-.4377949265.3978-.8179999793.8903-1.2110999694,1.4015-.39389999.5094-.8085999796,1.0496-1.3409999661,1.5079-.5274999867.4564-1.1237999716.8241-1.7193999566,1.181-1.1775999702.6924-2.4371999384,1.4568-3.0072950344,2.7222-.5919048746,1.2579.0631951088,2.7448.80669509,4.0036,1.0235999741,1.7064,2.4984999369,3.0742,4.1370998955,3.9851,1.6436999585.9135,3.4549999127,1.3507,5.1818998691,1.3412,3.4811999121-.0071,6.4677998366-1.6397,8.1598997939-3.6121.8576999783-.9884,1.3878999649-2.082,1.58449996-3.0969.1959053916-1.0179.079299998-1.9309-.077199998-2.648-.3445999913-1.4393-.7371999814-2.1831-.6852999827-2.2027Z"/><path class="cls-3" d="m19.3504995112,184.3768471639c-.0003948296-.009.078099998-.0211.2317999941-.0361.1850999953-.0137.4093999897-.0303.6831999827-.0505.6009999848-.0332,1.4898999624-.0767,2.6374999334-.03,1.1391999712.0677,2.572299935.1968,4.0985998965.847,1.5277999614.6292,3.0282999235,1.9575,3.9803998995,3.8104.9831054642,1.8408,1.4841054642,4.0771,1.8824999524,6.4455.1883999952,1.185.4197999894,2.4208.4081999897,3.7348.0071999998,1.3004-.3608999909,2.7199-1.2359999688,3.8238-.8537999784,1.109-1.9127999517,2.0095-2.9638999251,2.9629-1.0657999731.9396-2.2011999444,1.8521-3.4305999133,2.683-2.4448999382,1.6468-5.3402998651,3.0151-8.5343997844,3.2282-3.1485999205.224-6.4023998383-.6593-8.6207997822-2.7602-1.109499972-1.0379-1.8881999523-2.3343-2.456099938-3.6481-.5712999856-1.3203-.948599976-2.6688-1.2716999679-3.9876-.6435999837-2.63-.8674999781-5.3224-.1733999956-7.6954.6787999829-2.3634,2.0396999485-4.2854,3.5453999104-5.6951,1.5199999616-1.4146,3.204799919-2.3128,4.7390998803-2.8713,1.5404999611-.5633,2.9418999257-.7973,4.0834998968-.9035,2.294699942-.193,3.5523051099.0774,3.5523051099.0774-.0019051996.0219-.3177051916.0032-.9174051764-.0054-.5989999849-.0091-1.4855948236-.0058-2.613799934.1296-1.1251999716.1356-2.5008999368.3961-4.0024998989.9746-1.4967999622.5742-3.126499921,1.4741-4.5885998841,2.8665-1.4490999634,1.388-2.7475999306,3.2657-3.3820999146,5.5434-.6475951921,2.2788-.4227999893,4.8766.2237999943,7.4662.6506999836,2.5698,1.5103999619,5.388,3.6114999088,7.3775,2.0918999471,1.9752,5.1999998686,2.8283,8.235199792,2.6118,3.0650999226-.2028,5.8825998514-1.521,8.2849051129-3.1317,1.208-.8122,2.33-1.7079,3.3877945923-2.6338,1.0430999737-.9372,2.1082999467-1.8441,2.9084999265-2.8777.8189999793-1.0302,1.1534999709-2.2929,1.1613999707-3.5421.0201999995-1.25-.196799995-2.474-.3764999905-3.6582-.3768999905-2.357-.8520999785-4.5551-1.782799955-6.3448-.9025999772-1.801-2.3084999417-3.0793-3.7714999047-3.7144-1.4617999631-.6536-2.8679999275-.814-3.9931998991-.911-1.1342999713-.0771-2.0213999489-.0667-2.6220999338-.0675-.6010999848.0016-.9173999768.001-.9181999768-.0182Z"/><path class="cls-3" d="m224.8685943193,196.6801471639s-.1636999959.0233-.4841999878.0424c-.3426999913.0174-.81528965.0414-1.423199964.0722-1.2754999678.0524-3.1155999213.1279-5.4739998617.2247-4.7543998799.1779-11.6348997061.4258-20.1413994912.6013-8.5057997851.1692-18.6414995291.2521-29.8898992449-.1037-5.6231998579-.1886-11.5236997089-.4981-17.6277910881-.995-6.1057083123-.4817-12.4062081531-1.1961-18.8516079903-1.9529-12.8896996744-1.5398-25.174799364-3.0123-36.4098990802-3.3903-11.2308997163-.3972-21.3644929295.1352-29.7985992472,1.1585-8.4373997868,1.0235-15.1808936822,2.4468-19.7903995,3.6009-2.3025999418.5896-4.0878998967,1.0589-5.2882998664,1.4146-.5864999852.162-1.0424999737.2879-1.3730999653.3792-.3101999922.0827-.473199988.1123-.473199988.1123,0,0,.1523999962-.0637.4575999884-.1632.3270999917-.1032.7783999803-.2457,1.3588999657-.4289,1.1916999699-.3885,2.969899925-.8898,5.2680998669-1.5105,4.6001998838-1.216,11.3453997134-2.6973,19.7956994999-3.7698,8.4464997866-1.0724,18.60289953-1.6444,29.8598063166-1.2727,11.2626926445.3527,23.5682923337,1.8134,36.4542920082,3.3527,6.4438998372.7566,12.7371996782,1.4738,18.8323995242,1.9616,6.093999846.503,11.9859996972.8223,17.6025995553,1.0239,11.2348997162.3817,21.3637994603.3372,29.8670992455.2151,8.5038997852-.1284,15.3852996113-.3201,20.1412994912-.4357,2.3596999404-.0547,4.2007998939-.0974,5.4769998616-.1269.6086999846-.0088,1.0817999727-.0157,1.424799964-.0206.3210999919-.0017.4859999877.0108.4859999877.0108Z"/><path class="cls-3" d="m224.3369943328,189.4625471639s-2.4461999382,1.0498-7.084799821,2.2924c-4.6287998831,1.2512-11.5087997093,2.5037-20.0922994924,2.8229-4.2891998916.166-8.9947903377.0825-14.0303996456-.2262-5.0352998728-.3224-10.3978997373-.8871-16.0189995953-1.6194-11.2453910969-1.4253-23.5288994056-3.602-36.5598990764-4.5745-13.0321996708-.9967-25.5062993556-.9073-36.8175990699-.392-11.3163997141.5013-21.4802994574,1.4435-30.006499242,2.2806-8.5256997846.8574-15.4159996106,1.6464-20.1790994902,2.178-2.3636999403.2609-4.2076998937.4644-5.4855998614.6055-.6101999846.0619-1.0844999726.1101-1.4280999639.1449-.3219999919.0298-.488594393.0317-.488594393.0317,0,0,.1622944012-.0374.4822943931-.0845.3419999914-.0473.8142999794-.1125,1.4219999641-.1963,1.2750999678-.1637,3.1152999213-.3999,5.4740998617-.7026,4.7560998799-.5934,11.6406997059-1.4384,20.1653994906-2.343,8.5252997846-.8844,18.6927995278-1.8654,30.0218992416-2.3936,11.3234997139-.5423,23.8191993983-.6468,36.8797990683.3521,13.06439967.9754,25.3535993595,3.1686,36.5819990759,4.618,5.6130998582.7444,10.963599723,1.3239,15.9849995962,1.6641,5.0215998731.3266,9.7129997546.4311,13.9895093085.2892,8.558-.2713,15.4221899485-1.4635,20.0547898314-2.6513,1.1617999707-.2879,2.1894999447-.5602,3.0700999224-.8329.8857999776-.255,1.6341102461-.4757,2.2291999437-.6842.5830999853-.1898,1.0362999738-.3374,1.3644999655-.4442.3084999922-.0974.4712999881-.1347.4712999881-.1347Z"/><path class="cls-3" d="m108.976397247,204.0926471639s-.1737999956.0597-.5193999869.1507c-.3660999908.0934-.8773999778.2236-1.5373999612.3918-1.3539999658.3342-3.3619999151.7833-5.9632998494,1.2885-5.2043998685.9646-12.826599676,2.0874-22.3146994363,2.2094-2.3701999401.0246-4.8543998774-.0065-7.4398998121-.1216-1.2920999674-.0659-2.610999934-.1319-3.9516999002-.2405-1.3269999665-.1215-2.730799931-.1316-4.0991998964-.5865-.6780999829-.2153-1.3519999658-.5091-1.941299951-.9719-.594199985-.4404-1.0776999728-1.1445-1.1333937722-1.9485-.0556061978-.787.2912937934-1.5977.8720937787-2.1192.5679062213-.536,1.2597999682-.8897,1.9651999503-1.1615,2.8647999276-.9166,5.820899853-1.6144,8.8975997752-2.2569,12.2687996901-2.5598,26.2631064957-3.263,40.5861989747-1.0469,1.7947999547.2539,3.5549999102.6047,5.3190998656.9431,1.7348999562.398,3.56399991.9531,4.8625998772,2.3248.633399984.6789,1.0478999735,1.5831,1.1045999721,2.5153.0713999982.9346-.196599995,1.8492-.6169999844,2.6462-.435699989.7937-1.0311999739,1.4887-1.7457999559,2.0299-.7156999819.5377-1.5141999618.9291-2.335299941,1.2186-1.6486999584.5776-3.3509999154.7921-5.0036998736,1.0134-1.660592439.2095-3.3010999166.4507-4.9318998754.6275-3.2593999177.3755-6.4577998369.6676-9.5824997579.9026-12.5052996841.9134-23.8198993983.6274-33.2641928057-.0901-9.4501061153-.7312-17.0343059237-1.9347-22.2443057921-2.8767-2.6071999341-.4679-4.6201998833-.8886-5.9811998489-1.192-.6648999832-.1465-1.1799999702-.26-1.5487999609-.3413-.3481999912-.0798-.5237999868-.1337-.5237999868-.1337,0,0,.1831055886.019.5348999865.0816.3712056021.0692.8894999775.1659,1.5587999606.2906,1.3671999655.2701,3.3850999145.6584,5.9952998486,1.0951,5.2162998682.8799,12.7984996767,2.0261,22.2366994382,2.7093,9.4324997617.6693,20.7249994764.9163,33.2015991613-.0214,3.1174999212-.2411,6.3082998406-.5383,9.5598071934-.918,1.626892524-.1789,3.2633924826-.422,4.92-.633,1.654392399-.2225,3.3287923567-.4402,4.9021923169-.9945,1.5685999604-.538,3.0176999238-1.5252,3.7988076831-3.0118.3832922113-.7285.6194922053-1.5512.555-2.3664-.0501077918-.8115-.4082077827-1.5975-.9714077685-2.2015-1.1503999709-1.2252-2.8942999269-1.7842-4.592699884-2.1666-1.7388923475-.3327-3.5032999115-.6845-5.2860998665-.9363-14.2570996398-2.2059-28.1876992879-1.5211-40.4100989792,1.0023-3.048999923.6278-6.0464998473,1.333-8.8298997769,2.2142-.674499983.2562-1.3184999667.5911-1.816793725,1.0599-.5093062163.46-.778,1.1088-.7406062104,1.7649.0466999988.6496.4256062105,1.2299.9606062105,1.6325.524493752.4164,1.157.6992,1.8013937198.9051,1.2889999674.4374,2.6608999328.4553,3.999799899.5817,1.3358999663.1133,2.650399933.1841,3.9382999005.2552,2.5770999349.1253,5.0537998723.1676,7.4173998126.1548,9.461799761-.0746,17.0741995687-1.1387,22.2817994371-2.0406,2.6029999342-.4737,4.6155998834-.8904,5.976199849-1.1914.6646999832-.1465,1.1796999702-.2599,1.5483999609-.3412.3495999912-.074.5319999866-.099.5319999866-.099Z"/><path class="cls-3" d="m218.1111046816,210.8053471639c-.0019101915.0088-.088.0008-.2544101851-.023-.1959999951-.0316-.437699989-.0706-.7354999814-.1187-.6849999827-.123-1.6258999589-.2918-2.8167999288-.5056-1.2198999692-.2348-2.7146999314-.5075-4.4615998873-.7584-1.7448999559-.2601-3.722899906-.6138-5.9306900174-.856-1.102609805-.1369-2.2566097758-.2801-3.4581097455-.4293-1.2027999696-.1457-2.4608902545-.2351-3.759599905-.3627-2.5960999344-.2777-5.382399864-.4131-8.31119979-.5929-5.8627998519-.2543-12.3192996888-.3052-19.0847995179.0204-6.7657998291.3662-13.1848996669,1.0753-18.9920995202,1.9264-2.8956999268.4776-5.6538998572.8966-8.2083997926,1.4376-1.2788999677.2594-2.5213999363.4767-3.7030999065.7444-1.1800999702.2708-2.3133999416.531-3.3962999142.7796-2.1715999451.4662-4.1031998963,1.0197-5.8123919081,1.4564-1.7121079018.4278-3.171107865.8516-4.3606078349,1.2095-1.1626999706.334-2.0812999474.5979-2.7500999305.7901-.2912922345.0781-.5276999867.1416-.7193999818.193-.1630999959.0407-.2478922527.0574-.2506999937.0488-.0027999999-.0086.0765999981-.0421.2342999941-.0995.1875999953-.0646.4188999894-.1442.7039999822-.2424.6622999833-.2149,1.5719999603-.5103,2.7235077647-.8841,1.1817921367-.3882,2.6344921-.841,4.3418920569-1.2961,1.7045999569-.4642,3.6331079431-1.0437,5.8034998534-1.5337,1.0826999727-.2596,2.215899944-.5313,3.3957999142-.8141,1.1818999701-.2786,2.4250999387-.5062,3.7051999064-.7754,2.5566999354-.5606,5.3188998656-.9966,8.2199997923-1.4884,5.817899853-.8794,12.2538996904-1.6051,19.0382995191-1.9722,6.7840998286-.3266,13.258999665-.2609,19.1354995166.0204,2.9355999258.1934,5.7274998553.3454,8.3278997896.6422,1.3007999671.1373,2.5606999353.237,3.7647999049.3935,1.2025999696.161,2.3574999404.3158,3.4611097466.4635,2.209.2662,4.1866900602.6459,5.9297900161.9338,1.7449999559.2787,3.2364999182.5809,4.4518998875.8466,1.1837999701.2544,2.1189999465.4555,2.7998999293.6018.2935999926.0686.5318999866.1243.7250999817.1694.1626999959.041.2451999938.0663.2433101854.0751Z"/><path class="cls-3" d="m212.8972946218,180.5549471639c.0065999998.0167-.1646999958.0983-.4971899402.2383-.3891100374.1565-.8733100252.3513-1.4647100103.5892-.6357999839.2581-1.4203999641.5559-2.3506999406.8465-.9275900491.2976-1.9732999502.6753-3.1634999201.9759-1.1817999701.3313-2.4794999374.6837-3.8946999016.9713-1.4040999645.3403-2.928999926.5776-4.5290998856.8523-3.2122903419.469-6.7741998289.7967-10.5234997342.8354-3.7507906077.0076-7.3172998151-.2762-10.5355997338-.7056-1.6036999595-.2551-3.1314999209-.4736-4.5397998853-.7966-1.4186999642-.2701-2.7206999313-.6066-3.9063909885-.9233-1.1939088826-.2858-2.2441088561-.6507-3.1753088326-.9367-.9336911674-.2791-1.7217999565-.5673-2.3606911674-.8175-.5942087579-.2306-1.0807087456-.4193-1.4716087358-.5711-.3341999916-.1358-.5063912642-.2152-.4999999874-.232.0063999998-.0168.1910999952.0297.5364999864.1336.3987999899.127.8951087367.2849,1.5013999621.4779.6471999837.2201,1.4417999636.4792,2.3799999399.7308.9353999764.2584,1.9877999498.5969,3.1814999196.8584,1.1856999701.2923,2.4850999372.6063,3.8992089151.8565,1.4036909509.3029,2.9246909125.5039,4.5196908722.7445,3.2010999191.4004,6.7430998296.6678,10.4678997355.6603,3.723199906-.0385,7.2607998166-.3495,10.4562997359-.7892,1.5916999598-.2602,3.1099999214-.4799,4.5095998861-.8001,1.4108999644-.2675,2.7062999316-.5975,3.8882999018-.9043,1.1903999699-.2762,2.2385999434-.6277,3.1707999199-.8977.9349999764-.2631,1.7264999564-.5319,2.3710999401-.76.6038999847-.2004,1.0983100085-.3646,1.4954999622-.4965.3442999913-.1082.5283999866-.157.5349999865-.1403Z"/><path class="cls-3" d="m99.3395974905,179.1200471639c.0017.0179-.2463999938.0641-.7199999818.1358-.5242999868.0749-1.2126999694.1734-2.0716999477.2962-1.7944999547.287-4.3844998892.7349-7.5579998091,1.4341-3.1878999195.7324-6.9563998243,1.5982-11.1354997187,2.5583-4.1996998939.9306-8.8745997758,1.8203-13.8582933516,2.0971-2.4907062353.0976-4.9351061736.0797-7.2761061145-.1699-2.3396999409-.2454-4.5723998845-.6309-6.688799831-1.0254-4.2301998931-.802-8.0139997975-1.6134-11.2374997161-1.9789-3.2185943384-.3988-5.8517998522-.3927-7.6564998066-.2403-.9066999771.0461-1.6010945318.1662-2.0758999476.2238-.474499988.06-.7260999817.0832-.7296999816.0655-.0034946027-.0175.2411999939-.0751.711899982-.169.4709999881-.0912,1.1646999706-.2445,2.0747999476-.3221,1.8111999542-.2159,4.4708998871-.2785,7.7166998051.0762,3.2505999179.3212,7.0591998217,1.099,11.282999715,1.8729,2.1133999466.3805,4.3354998905.7535,6.6532998319.9897,2.3171999415.2402,4.7310998805.2536,7.1981998182.1573,4.9357998753-.274,9.5868997578-1.1427,13.7832996518-2.0459,4.1996998939-.9019,7.9685997987-1.8059,11.1608997181-2.4496,3.1902999194-.6546,5.7994998535-1.0488,7.6066998078-1.2746.9047999771-.1054,1.6107071199-.1581,2.0880999473-.1998.4778999879-.038.7293999816-.0493.7310999815-.0314Z"/><path class="cls-3" d="m182.1968953973,179.1346471639c0-.018.2742092843-.0355.7962092842-.0525.5706906812-.0122,1.330790662-.0285,2.283590638-.0488,2.0371999485-.0201,4.8925998764-.0483,8.3980997878-.0828,3.56219991-.0159,7.7781998035-.0349,12.4543996854-.0558,1.1666999705.0137,2.3973999394-.0529,3.6296999083.129,1.2378999687.136,2.4742999375.4506,3.7048999064.8443,2.4493100741.8315,4.7965998788,2.2174,6.849999827,4.0274,4.1621998948,3.5949,6.4377998374,8.8077,6.4293998376,13.5626.0349999991,4.7905-1.8251999539,8.8823-3.919399901,11.7424-1.0510999735,1.4533-2.2367999435,2.57-3.3015999166,3.504-1.1149999718.8804-2.1428999459,1.545-3.0257999236,2.0092-.4419999888.2138-.8394999788.4061-1.1924999699.5769-.3541999911.146-.6642999832.2451-.909999977.3352-.4941999875.1738-.7553999809.2563-.7609999808.2393-.0056999999-.0171.2442999938-.133.7232999817-.3372.238099994-.1053.5394999864-.219.8839100967-.3784.3430898723-.1817.7293898626-.3862,1.159-.6137.8578898301-.486,1.8553898049-1.1666,2.9357897776-2.0542,1.030699974-.9415,2.178099945-2.0567,3.1913999194-3.498,2.019499949-2.8362,3.7988103031-6.8601,3.7370999056-11.5204-.0195999995-4.6188-2.2357999435-9.6693-6.295199841-13.1782-2.0017999494-1.7642-4.2879998917-3.1187-6.6699998315-3.9343-1.1967999698-.3858-2.3982999394-.6967-3.600899909-.8334-1.2017999696-.1822-2.3830999398-.1226-3.5583999101-.1428-4.6784998818-.0209-8.8964997752-.0398-12.4605996852-.0557-3.5066999114-.0345-6.3631904257-.0627-8.4009997878-.0827-.9530999759-.0204-1.7132999567-.0367-2.2840999423-.0489-.5220906956-.0169-.7962999799-.0345-.7962999799-.0525Z"/><path class="cls-3" d="m175.2644955724,179.3528471639c-1.3666999655,4.4586-2.8394999283,7.3919-6.8454998271,9.7794s-13.7940996515,6.2625-18.2995995377,7.4662c-19.2382915261,5.1397-33.2001991613,6.8374-53.0672915261,5.485-19.8672066314-1.3523-41.3047060899-10.6172-57.0767056914-22.7736l135.2890965823.043Z"/><path class="cls-3" d="m75.0262981047,197.3387471639c.0028065769.0673-1.2465999685-.4969-2.0719999477-2.3424-.4166999895-.8988-.6768999829-2.0575-.8460999786-3.3245-.1704999957-1.2712-.3187999919-2.647-.7472999811-4.027-.8550999784-2.7749-2.4639999377-4.9419-3.8062999038-6.2763-1.3547999658-1.3429-2.3923999396-1.9521-2.3419999408-2.0294.017506329-.0293.289506329.0977.7591999808.3725.4604999884.2872,1.1133999719.7343,1.8370999536,1.3906,1.4415999636,1.2975,3.1624999201,3.5091,4.0495998977,6.3891.4458999887,1.4362.5833999853,2.8649.7254999817,4.1187.1423999964,1.2593.3551065152,2.368.7091999821,3.2423.6922999825,1.7827,1.7979065331,2.4242,1.7330999562,2.4864Z"/><path class="cls-3" d="m89.1284977484,179.3528471639c.0981999975.0027-.0558999986,1.308.2822999929,3.3497.1770999955,1.0156.4787999879,2.2228.9149999769,3.5173.4399999889,1.2971,1.0441999736,2.684,1.6826999575,4.1466.6376999839,1.4628,1.2331999689,2.8769,1.6393999586,4.216.4098999896,1.3362.6447999837,2.5852.710899982,3.6446.0753999981,1.0597-.0210999995,1.9214-.1303999967,2.5012-.1089999973.582-.238199994.8862-.2638999933.8793-.0965999976-.0155.2572999935-1.2892.0274999993-3.3481-.1104999972-1.0254-.3753999905-2.2313-.8014999798-3.5319-.4220999893-1.3023-1.0217999742-2.6906-1.6595999581-4.1534-.6378999839-1.4616-1.2368999687-2.8717-1.660699958-4.2036-.4211999894-1.3348-.6880930481-2.5618-.8236999792-3.614-.1338999966-1.0518-.1138999971-1.9128-.0671999983-2.4993.0485999988-.5877.1160999971-.9071.1491999962-.9044Z"/><path class="cls-3" d="m116.6614970529,202.2940471639c-.1034999974-.0322.5838999852-1.2861.5974999849-3.4854.0068999998-1.0897-.1514999962-2.3914-.5577999859-3.7783-.4021999898-1.387-1.0524999734-2.8517-1.8285999538-4.3438-1.5719999603-2.985-3.1337999208-5.6393-3.9078999013-7.7596-.3772999905-1.0631-.5086999871-1.9775-.5381999864-2.6022-.0296999992-.6273.0187999995-.972.0472999988-.9719.1078999973-.0124.0218999994,1.4048.8357999789,3.4449.8365074935,2.0244,2.4425999383,4.6467,4.0253998983,7.6492.7847999802,1.5092,1.4382999637,3.0131,1.8281999538,4.4537.3933999901,1.4377.5191999869,2.7919.4639076414,3.9187-.0563076517,1.1298-.2923076457,2.0234-.51960764,2.6086-.22439236.5884-.4234999893.8776-.4459999887.8661Z"/><path class="cls-3" d="m136.6695965474,179.3528471639c.0370999991.0165-.078899998.313-.2349999941.8544-.1520999962.5408-.3055999923,1.3433-.1668999958,2.3324.1315999967.9894.4795999879,2.1479.8688999781,3.4392.3929999901,1.2864.7989999798,2.7597.8543999784,4.3574.1126999972,3.2069-1.0522999734,5.9887-2.2201999439,7.6764-.5855999852.8558-1.1653999706,1.4646-1.58179996,1.8614-.4305999891.384-.6877999826.5711-.7098919285.546-.0688080518-.0694.9117919234-.8957,1.9827918964-2.6078,1.0573999733-1.6928,2.1165999465-4.3848,2.0086999493-7.4577-.0529999987-1.526-.4261999892-2.9456-.7949999799-4.2428-.3633999908-1.2981-.6833999827-2.4886-.7740999804-3.5332-.0989999975-1.0506.1246081147-1.9041.3409999914-2.436.2206999944-.5371.3988999899-.8029.4270999892-.7897Z"/><path class="cls-3" d="m154.4031960995,195.4959471639c-.0800914179-.0462.4464999887-.8569.869699978-2.3161.4215999893-1.441.6762086041-3.5975.0106999997-5.8075-.6771999829-2.1962-1.8818999525-4.0157-2.334199941-5.5272-.5049999872-1.4977-.4135999895-2.4998-.3617999909-2.4923.0913999977-.0082.1328999966.9558.7075999821,2.3656.5172999869,1.4278,1.7664999554,3.1903,2.4879999371,5.5068.7026999822,2.3358.3691999907,4.6043-.159499996,6.0667-.5326999865,1.486-1.1816999701,2.2365-1.2204999692,2.204Z"/><path class="cls-3" d="m167.8573957596,189.0657471639s-.3388999914.2019-1.0467999736.4367c-.7043999822.2392-1.782799955.5055-3.2001999192.5904-1.4152911853.0838-3.1584999202-.0278-5.1331998703-.406-1.9487999508-.4509-4.2112998936-.6113-6.725091315-.7397-2.5041084519-.116-5.2895083815-.2209-8.2226083074-.5076-2.9344999259-.2139-6.0859998462.1602-9.2903916926.9803-3.2086079917.8263-6.4674079093,2.0892-9.9054078225,3.2544-3.4371999132,1.151-7.085899821,2.2156-10.9450997235,2.5904-3.8467999028.3911-7.6356998071.3148-11.251492454-.0653-3.6124071705-.4063-7.0732070831-.9698-10.3418070005-1.6175-6.5400998348-1.2793-12.4043996866-2.5262-17.4030995604-3.0741-4.9925998739-.5711-9.0767997707-.5175-11.8684997002-.1978-.7039999822.0301-1.3153999668.1591-1.8491999533.246-.5239999868.0862-.9737999754.1602-1.3511999659.2222-.3423999914.052-.6170999844.0937-.8340999789.1266-.1887999952.0257-.2864999928.0346-.2885999927.0258-.0019999999-.0087.0916999977-.0349.276799993-.0777.2147061588-.0462.4862999877-.1046.8249999792-.1775.3761999905-.076.8244999792-.1666,1.346899966-.2722.5332999865-.1033,1.1455999711-.2486,1.8509999532-.2945,2.7980999293-.3836,6.9099998254-.4942,11.9318996986.033,5.026699873.5035,10.9193997242,1.7178,17.4524995591,2.9688,3.2668999175.634,6.7138998304,1.1843,10.3042997397,1.5813,3.5923999093.3708,7.3429998145.4412,11.1421072631.0552,3.8062923593-.369,7.4156922681-1.4169,10.8398921816-2.5562,3.4245999135-1.1529,6.7005998307-2.4124,9.9493997486-3.2358,3.245099918-.8176,6.4568998369-1.1826,9.4363997616-.9464,2.9607999252.3075,5.6901998562.4298,8.2155997925.5709,2.5103999366.1511,4.8103998785.3415,6.7612998292.8218,1.9506999507.4016,3.6685999073.5407,5.067099872.4891,1.3998999646-.0529,2.4707999376-.2833,3.1787999197-.4882.711099982-.2001,1.0665088948-.3646,1.0777999728-.3364Z"/><path class="cls-3" d="m173.9964956045,182.0922471639c.0027999999.0085-.1030999974.0466-.3125999921.1132-.237299994.0717-.5459999862.1651-.9351999764.2829-.2094999947.061-.4400999889.1281-.6921999825.2016-.2622999934.0519-.5465999862.1082-.8529999785.169-.3101999922.0606-.6424999838.1257-.9965999748.195-.357499991.0566-.7420999813.0891-1.147699971.1384-3.2504999179.4348-8.0197997974.0895-13.7430910476-.9927-2.8679085327-.515-5.9905084538-1.1656-9.3696083685-1.6541-3.3779999147-.4875-7.0264998225-.6592-10.8539997258-.3843-7.6686998063.4855-15.9089995981,2.6461-24.7976993736,3.4266-4.4477998876.414-8.8230997771.1857-12.9957996717-.2208-4.1786998944-.4117-8.1781997934-1.0061-11.9974996969-1.4539-7.6311998072-.9856-14.5776996317-.9302-20.3708994854-.456-5.7964936782.4645-10.4570997358,1.1797-13.6788996545,1.638-1.5852999599.2303-2.8287999285.4109-3.7102999063.5389-.4023999898.0539-.7215999818.0966-.9667999756.1294-.2182999945.0263-.3307999917.0354-.3321999916.0265-.0014-.0089.1081999973-.0355.3237058497-.079.2431941359-.0458.5595941279-.1054.9585941179-.1805.8780999778-.151,2.1166999465-.364,3.6957999066-.6355,3.2137999188-.5201,7.8696998012-1.2918,13.6799996544-1.8048,5.8017998534-.5232,12.7984996767-.6165,20.4563994832.3464,7.640699807.8393,16.0460995946,2.4201,24.8952068379,1.6322,8.8226923104-.7721,17.0797921018-2.9211,24.8082919065-3.3863,3.8550999026-.2644,7.5524998092-.074,10.9475997234.4356,3.3959999142.5101,6.5167998354,1.1824,9.3749997632,1.7195,5.7033998559,1.1257,10.4227997367,1.5222,13.655699655,1.1532.4031999898-.0413.7862999801-.0656,1.1424089519-.114.353-.0604.684391002-.1171.9936909942-.17.3063090058-.0516.5906999851-.0996.8529999784-.1438.2528999936-.0641.4843090274-.1228.6944999825-.1761.39369999-.0967.7059999822-.1734.9459999761-.2323.2141999946-.0497.3254999918-.0709.3281999917-.0623Z"/><g class="cls-2"><path class="cls-3" d="m41.5222989511,179.3528471639c8.3671997886,3.4507,17.6108995551,6.674,26.4478057305,8.6303,8.8368933781,1.9563,18.2021931415,2.3415,26.8433929232-.3506,4.9027998761-1.5275,9.5141997597-4.0203,14.5602996322-4.9727,6.0847998463-1.1485,12.3461996881.0223,18.4005995352,1.3216,7.9592997989,1.7081,16.0414995948,3.6552,24.14579939,2.8868,8.1041997953-.7684,18.5734995308-.167,22.0763994423-7.5154H41.5222989511Z"/></g></g></svg>