<?xml version="1.0" encoding="UTF-8"?><svg id="Capa_2" xmlns="http://www.w3.org/2000/svg" viewBox="0 0 1948.1539736348 266.9106656009"><defs><style>.cls-1{fill:#f89f5b;}.cls-1,.cls-2,.cls-3,.cls-4,.cls-5,.cls-6{stroke-width:0px;}.cls-2{fill:#653780;}.cls-3{fill:#3f1651;}.cls-4{fill:#120033;}.cls-5{fill:#f197b2;}.cls-6{fill:#e53f71;}</style></defs><g id="Capa_1-2"><polygon class="cls-4" points="600.4229783724 10.0950310022 596.6599102243 12.9949629642 591.4282661975 10.8193704215 592.6910065497 9.2675056624 600.4229783724 10.0950310022"/><rect class="cls-4" x="22.5931067047" y="110.4932583508" width="3.8137700907" height="9.0312575936" transform="translate(-90.7487469339 138.3545923294) rotate(-89.4255547935)"/><polygon class="cls-4" points="28.9984064307 113.9720134498 25.2353382826 116.8719454118 20.0036954919 114.6963528691 21.2664358759 113.14448811 28.9984064307 113.9720134498"/><polygon class="cls-4" points="412.7087023186 44.7917258277 408.9456340754 47.6916577897 403.7139899165 45.5160652469 404.9767303005 43.9642004879 412.7087023186 44.7917258277"/><polygon class="cls-4" points="438.4502107417 110.7540763591 434.6871406833 113.654061952 429.4554966565 111.4784157784 430.7182387236 109.9266046502 438.4502107417 110.7540763591"/><polygon class="cls-2" points="154.1525204695 143.140645934 146.2822880977 138.9700898405 156.3564300907 139.3959194709 164.2251071653 143.5674945523 154.1525204695 143.140645934"/><polygon class="cls-2" points="480.0466833928 119.5063233003 472.176451021 115.3357672067 482.250539383 115.7615968372 490.1192164577 119.9331719185 480.0466833928 119.5063233003"/><polygon class="cls-6" points="308.5504653511 164.372758011 311.113640077 158.1057150051 314.8688244777 163.9995939595 312.3088054517 170.2666905964 308.5504653511 164.372758011"/><polygon class="cls-1" points="482.3304494754 21.5732847805 477.6717447216 15.8022206691 486.6816880818 18.6680969868 491.3335313223 24.4433979422 482.3304494754 21.5732847805"/><polygon class="cls-6" points="416.0587587249 81.0376574963 421.3650556678 78.5781427793 415.5926522617 85.7151331953 410.2874264588 88.1673004741 416.0587587249 81.0376574963"/><polygon class="cls-6" points="498.7027938889 59.9068542571 504.0090385455 57.4473395402 498.2366874374 64.5843835871 492.9314617686 67.0364972349 498.7027938889 59.9068542571"/><polygon class="cls-6" points="195.4347026276 72.7777698321 200.7406791295 70.3182551151 194.9685425452 77.455299162 189.6635850311 79.9074128099 195.4347026276 72.7777698321"/><polygon class="cls-2" points="193.2533168377 228.5326400794 195.8133358637 222.2629691576 199.572765502 228.1581888854 197.0111291542 234.4281279619 193.2533168377 228.5326400794"/><polygon class="cls-3" points="238.7624648702 80.1688098704 248.6249791957 78.3195079412 242.5281609341 83.3819464976 232.6655929776 85.2286741419 238.7624648702 80.1688098704"/><polygon class="cls-3" points="47.9603741461 157.8221146164 56.9163647862 161.00983018 46.8914559911 161.7559437592 37.9355189819 158.5655466488 47.9603741461 157.8221146164"/><polygon class="cls-3" points="454.473791278 54.8915036624 450.9196692506 65.9188285323 438.3360285719 61.1575276806 441.8872545288 50.129130192 454.473791278 54.8915036624"/><polygon class="cls-3" points="92.2755616687 38.6166335559 80.6896708949 38.6213530783 81.3558771488 25.1837466905 92.9417682153 25.1758629429 92.2755616687 38.6166335559"/><polygon class="cls-3" points="474.7511226677 212.3242048019 463.1652318939 212.3286561696 463.8314353619 198.8910497818 475.4175942903 198.8832196652 474.7511226677 212.3242048019"/><polygon class="cls-5" points="100.7179824803 75.7128300812 98.5219566065 86.3916074991 86.2638020692 83.2258806192 88.4569855034 72.5465668919 100.7179824803 75.7128300812"/><polygon class="cls-5" points="98.30463063 116.7384579562 96.1086047562 127.4172890051 83.8504502188 124.2515084942 86.0436336531 113.5721947669 98.30463063 116.7384579562"/><polygon class="cls-5" points="180.3556681989 99.040946368 178.1596423251 109.7197237859 165.9015414186 106.553996906 168.0949393766 95.8746831787 180.3556681989 99.040946368"/><polygon class="cls-5" points="266.4290165322 129.3407088232 264.2329906585 140.0194862411 251.974889752 136.8537057302 254.16828771 126.1743920029 266.4290165322 129.3407088232"/><polygon class="cls-6" points="128.0682037636 165.8080827465 125.8721778898 176.4868601645 113.6140233524 173.3211332845 115.8074749413 162.6418195572 128.0682037636 165.8080827465"/><polygon class="cls-1" points="296.7227575985 212.5402433959 285.8855546699 213.7302066 285.1334880758 201.0923447273 295.9701546951 199.8995390836 296.7227575985 212.5402433959"/><polygon class="cls-6" points="192.4221609039 40.3179677331 190.2261405662 50.996798782 177.9680341236 47.8310182711 180.1614320816 37.1517045438 192.4221609039 40.3179677331"/><polygon class="cls-6" points="749.055408955 146.1847112653 746.8599105069 156.8638104689 734.601273291 153.6977618033 736.7946712491 143.0181799213 749.055408955 146.1847112653"/><polygon class="cls-5" points="360.2723445536 74.9837711395 349.435141625 76.1737343436 348.6830309391 63.5358724709 359.5197416501 62.3430668272 360.2723445536 74.9837711395"/><polygon class="cls-2" points="518.7984122971 89.8485230504 507.7163305217 93.2281837333 504.4393231101 80.1792407375 515.5205968441 76.7964158293 518.7984122971 89.8485230504"/><polygon class="cls-3" points="354.2348937516 144.2237097479 348.1003193122 150.7736023094 339.7807133404 151.7367602859 341.9741112985 141.0571784039 354.2348937516 144.2237097479"/><polygon class="cls-3" points="614.5770400743 121.5839857542 608.4424656348 128.1338783157 600.1228596631 129.0970362922 602.3163173019 118.4174544102 614.5770400743 121.5839857542"/><polygon class="cls-2" points="14.4766521384 136.8680789417 8.3421311749 143.4179715032 .022524993 144.3811294797 2.2159230065 133.7015475977 14.4766521384 136.8680789417"/><polygon class="cls-3" points="698.1861369398 178.456000649 694.6320685433 189.4833255188 682.0486960193 184.7220246671 685.5996538215 173.6936271786 698.1861369398 178.456000649"/><polygon class="cls-5" points="427.1234091913 177.1634139936 423.5692871639 188.1907924944 410.985969406 183.4294380117 414.536873667 172.4010941541 427.1234091913 177.1634139936"/><polygon class="cls-2" points="244.8062719457 155.0689436258 234.7860826728 159.364352538 230.3853427138 147.4938420951 240.404459368 143.1952153268 244.8062719457 155.0689436258"/><polygon class="cls-2" points="332.4884635342 45.667439058 322.4682742614 49.9629016011 318.0678112228 38.0923375273 328.0869727422 33.7937643899 332.4884635342 45.667439058"/><polygon class="cls-2" points="71.0507978341 105.1945199085 61.0306085612 109.4899824516 56.6298686023 97.6194183777 66.6490388874 93.3208452403 71.0507978341 105.1945199085"/><polygon class="cls-2" points="438.6725626857 18.3166534644 428.6523750756 22.6118478528 424.2516334538 10.7418200883 434.2708037389 6.4429787962 438.6725626857 18.3166534644"/><polygon class="cls-5" points="775.9473450195 50.0549593318 773.751855455 60.7340049044 761.494237227 57.5680098697 763.6866161972 46.8884279878 775.9473450195 50.0549593318"/><polygon class="cls-1" points="13.5501777221 180.0611475135 20.5337300306 188.7248497797 7.0154627154 184.4207526559 .0361472508 175.7581230085 13.5501777221 180.0611475135"/><polygon class="cls-4" points="514.8947238388 13.0473067576 520.5427584408 8.6945127441 528.3925574265 11.9590278078 526.4971329405 14.2885947673 514.8947238388 13.0473067576"/><polygon class="cls-4" points="563.9646691189 137.7329577336 569.6127089446 133.3801637201 577.4625027066 136.6446251529 575.5670782205 138.9742457433 563.9646691189 137.7329577336"/><polygon class="cls-5" points="705.6248548128 71.5324865711 701.7790341328 80.9382800962 696.1461770853 72.094967826 699.9878145524 62.6885843605 705.6248548128 71.5324865711"/><polygon class="cls-5" points="688.7315931328 154.3880455783 684.8857724528 163.7938927344 679.2529690362 154.9505804642 683.0946065033 145.5441969988 688.7315931328 154.3880455783"/><polygon class="cls-6" points="637.8080301735 23.4293978385 633.9622094936 32.8342260068 628.3252228641 23.9893048085 632.1694414201 14.5829213431 637.8080301735 23.4293978385"/><polygon class="cls-1" points="354.3315365169 205.8281446764 361.3177165649 214.4876637295 347.799503222 210.1864626763 340.8211532905 201.5238330288 354.3315365169 205.8281446764"/><polygon class="cls-5" points="154.123452503 9.3875053761 150.3522860838 18.6097738388 144.826047334 9.9392604438 148.5945903219 .7151685292 154.123452503 9.3875053761"/><polygon class="cls-2" points="171.1756226419 31.7022115236 167.0742505591 37.9619607223 160.9113589862 32.0523142727 165.0127846999 25.7928332287 171.1756226419 31.7022115236"/><polygon class="cls-3" points="766.4729041358 127.8035661059 756.6129640951 129.6513127379 762.709308907 124.5888741816 772.5723503132 122.7432191561 766.4729041358 127.8035661059"/><polygon class="cls-4" points="279.4294493482 155.7056769959 283.1904258899 152.8060131886 288.4262531295 154.9824101954 287.1635207624 156.5342213235 279.4294493482 155.7056769959"/><polygon class="cls-2" points="202.0569046507 36.027492867 206.432759856 19.0127566906 200.6778924326 4.651571957 196.3004819301 21.6663081334 202.0569046507 36.027492867"/><polygon class="cls-2" points="204.5263410284 20.1529503863 201.9636404556 26.4213341656 198.2069007578 20.5253636047 200.7684750809 14.2577306584 204.5263410284 20.1529503863"/><polygon class="cls-3" points="576.7326393193 94.8429039492 562.8766047203 97.4385339813 571.4392124561 90.3261601649 585.2953006861 87.7341770364 576.7326393193 94.8429039492"/><rect class="cls-5" x="208.4690768477" y="48.7017861403" width="3.7430825436" height="8.855829919" transform="translate(155.1250011213 262.9324093982) rotate(-89.4310836901)"/><polygon class="cls-5" points="205.9299698454 54.1462754884 209.6196708751 51.3010470809 214.749737912 53.4352901721 213.514724753 54.958086964 205.9299698454 54.1462754884"/><polygon class="cls-5" points="148.9213439939 97.5807368782 140.9809623598 101.4996566209 143.6478142073 95.5015191272 151.5856215565 91.5823848608 148.9213439939 97.5807368782"/><polygon class="cls-6" points="73.1260501597 220.7485123986 81.9397579307 224.0889152365 71.8821342656 224.6660913679 63.0710007795 221.3259566846 73.1260501597 220.7485123986"/><polygon class="cls-3" points="73.7257476847 65.8385167006 62.6460256705 66.3826561755 66.8422732955 59.2820811649 77.9217247359 58.741320439 73.7257476847 65.8385167006"/><polygon class="cls-3" points="231.39294603 107.6686085487 220.3132240157 108.2127480236 224.5094692215 101.112173013 235.5891376049 100.5714122871 231.39294603 107.6686085487"/><polygon class="cls-1" points="11.3562433993 83.2630468577 14.5303367052 89.8383604828 3.2047702012 88.2255173497 .0361472508 81.6470394994 11.3562433993 83.2630468577"/><polygon class="cls-1" points="25.2356064373 48.4948619948 28.409699663 55.0701756199 17.0841346074 53.4572788558 13.9155116569 46.8788546365 25.2356064373 48.4948619948"/><polygon class="cls-1" points="717.9950524714 117.9761261633 714.0732822891 124.1347810479 709.4863893566 113.6547598782 713.4128253144 107.4992155878 717.9950524714 117.9761261633"/><polygon class="cls-1" points="552.9376126822 39.6464811064 556.111705908 46.2220628862 544.7861396901 44.6089515984 541.6175168197 38.0307419028 552.9376126822 39.6464811064"/><polygon class="cls-1" points="515.1296273318 156.2874917085 518.3037741885 162.8630734883 506.9781543397 161.2499085695 503.8095314693 154.6717525049 515.1296273318 156.2874917085"/><rect class="cls-5" x="2.5761754895" y="10.9070598586" width="3.7415084481" height="8.8565812023" transform="translate(-10.9318989381 19.6295077579) rotate(-89.4300259557)"/><polygon class="cls-5" points="147.9886099089 39.3226311951 145.4757324742 45.4684682861 141.7917699545 39.6889841178 144.3035791465 33.5410554203 147.9886099089 39.3226311951"/><polygon class="cls-2" points="351.2268438838 13.4810474458 359.0986315527 17.6520862178 349.023470572 17.2255057542 341.1568851037 13.0544669822 351.2268438838 13.4810474458"/><polygon class="cls-2" points="605.0151271365 163.0013340408 612.8869148053 167.1723728128 602.8117538246 166.7460605039 594.9451683564 162.574968101 605.0151271365 163.0013340408"/><polygon class="cls-6" points="232.0336473187 26.0434505918 229.4715366862 32.3100109193 225.7136707387 26.4158638102 228.2768539899 20.1474800308 232.0336473187 26.0434505918"/><polygon class="cls-6" points="299.5436859885 35.6249926937 296.9815670582 41.8915530212 293.2237011108 35.997405912 295.7868843619 29.7290221327 299.5436859885 35.6249926937"/><polygon class="cls-6" points="607.6380016177 83.0859838283 605.0758909852 89.3525441559 601.3180250378 83.4583434158 603.8812082889 77.1897451127 607.6380016177 83.0859838283"/><polygon class="cls-3" points="268.9541479654 5.0590598074 259.0910973306 6.9070745941 265.190543508 1.8451187162 275.0535941429 0 268.9541479654 5.0590598074"/><polygon class="cls-1" points="59.2862621496 7.6439636524 63.9433579753 13.41481324 54.933468246 10.548346982 50.2821129312 4.7738504907 59.2862621496 7.6439636524"/><polygon class="cls-5" points="119.3615433378 130.2487879493 116.8496848909 136.3969848014 113.1659941153 130.6148727172 115.6778489727 124.4693037809 119.3615433378 130.2487879493"/><polygon class="cls-5" points="368.8228853291 132.4432585814 366.3110268822 138.5914554335 362.6276105632 132.8093433493 365.1394591187 126.663774413 368.8228853291 132.4432585814"/><polygon class="cls-2" points="308.2980160173 91.081686468 305.7363880632 97.3493194143 301.9780394373 91.4553868288 304.5412226885 85.1870030495 308.2980160173 91.081686468"/><polygon class="cls-6" points="543.4824115166 249.7553668874 540.9192331098 256.0229462027 537.16377571 250.1290672482 539.7256181879 243.8601471595 543.4824115166 249.7553668874"/><polygon class="cls-6" points="112.3112206922 18.8857586346 109.748037441 25.1533915808 105.9925848856 19.2594589954 108.5544273634 12.9905389067 112.3112206922 18.8857586346"/><polygon class="cls-3" points="601.2028257905 44.4738016401 591.3397751557 46.3215482721 597.437666036 41.2612013222 607.3007166708 39.414473678 601.2028257905 44.4738016401"/><polygon class="cls-3" points="286.5863902915 66.8692496563 277.6314722701 63.6817486164 287.6568637436 62.9354205134 296.6112454557 66.1263003023 286.5863902915 66.8692496563"/><polygon class="cls-4" points="1180.1523213323 10.0950310022 1176.3892531843 12.9949629642 1171.1576091575 10.8193704215 1172.4203495096 9.2675056624 1180.1523213323 10.0950310022"/><polygon class="cls-4" points="992.4380452785 44.7917258277 988.6749770354 47.6916577897 983.4433328765 45.5160652469 984.7060732605 43.9642004879 992.4380452785 44.7917258277"/><polygon class="cls-4" points="1018.1795537016 110.7540763591 1014.4164836432 113.654061952 1009.1848396165 111.4784157784 1010.4475816836 109.9266046502 1018.1795537016 110.7540763591"/><polygon class="cls-2" points="1059.7760263528 119.5063233003 1051.905793981 115.3357672067 1061.979882343 115.7615968372 1069.8485594177 119.9331719185 1059.7760263528 119.5063233003"/><polygon class="cls-6" points="888.2798083111 164.372758011 890.842983037 158.1057150051 894.5981674377 163.9995939595 892.0381484117 170.2666905964 888.2798083111 164.372758011"/><polygon class="cls-1" points="1062.0597924354 21.5732847805 1057.4010876816 15.8022206691 1066.4110310418 18.6680969868 1071.0628742822 24.4433979422 1062.0597924354 21.5732847805"/><polygon class="cls-6" points="995.7881016849 81.0376574963 1001.0943986278 78.5781427793 995.3219952216 85.7151331953 990.0167694188 88.1673004741 995.7881016849 81.0376574963"/><polygon class="cls-6" points="1078.4321368489 59.9068542571 1083.7383815055 57.4473395402 1077.9660303974 64.5843835871 1072.6608047286 67.0364972349 1078.4321368489 59.9068542571"/><polygon class="cls-3" points="818.4918078302 80.1688098704 828.3543221557 78.3195079412 822.2575038941 83.3819464976 812.3949359376 85.2286741419 818.4918078302 80.1688098704"/><polygon class="cls-3" points="1034.203134238 54.8915036624 1030.6490122106 65.9188285323 1018.0653715318 61.1575276806 1021.6165974888 50.129130192 1034.203134238 54.8915036624"/><polygon class="cls-5" points="846.1583594922 129.3407088232 843.9623336184 140.0194862411 831.704232712 136.8537057302 833.89763067 126.1743920029 846.1583594922 129.3407088232"/><polygon class="cls-5" points="940.0016875135 74.9837711395 929.1644845849 76.1737343436 928.4123738991 63.5358724709 939.2490846101 62.3430668272 940.0016875135 74.9837711395"/><polygon class="cls-2" points="1098.5277552571 89.8485230504 1087.4456734817 93.2281837333 1084.16866607 80.1792407375 1095.2499398041 76.7964158293 1098.5277552571 89.8485230504"/><polygon class="cls-3" points="933.9642367116 144.2237097479 927.8296622721 150.7736023094 919.5100563004 151.7367602859 921.7034542584 141.0571784039 933.9642367116 144.2237097479"/><polygon class="cls-3" points="1194.3063830342 121.5839857542 1188.1718085948 128.1338783157 1179.8522026231 129.0970362922 1182.0456602619 118.4174544102 1194.3063830342 121.5839857542"/><polygon class="cls-2" points="824.5356149056 155.0689436258 814.5154256328 159.364352538 810.1146856738 147.4938420951 820.133802328 143.1952153268 824.5356149056 155.0689436258"/><polygon class="cls-2" points="912.2178064942 45.667439058 902.1976172213 49.9629016011 897.7971541828 38.0923375273 907.8163157021 33.7937643899 912.2178064942 45.667439058"/><polygon class="cls-2" points="1018.4019056457 18.3166534644 1008.3817180356 22.6118478528 1003.9809764138 10.7418200883 1014.0001466989 6.4429787962 1018.4019056457 18.3166534644"/><polygon class="cls-4" points="1094.6240667988 13.0473067576 1100.2721014008 8.6945127441 1108.1219003865 11.9590278078 1106.2264759004 14.2885947673 1094.6240667988 13.0473067576"/><polygon class="cls-4" points="1143.6940120788 137.7329577336 1149.3420519045 133.3801637201 1157.1918456665 136.6446251529 1155.2964211805 138.9742457433 1143.6940120788 137.7329577336"/><polygon class="cls-6" points="1217.5373731335 23.4293978385 1213.6915524535 32.8342260068 1208.0545658241 23.9893048085 1211.8987843801 14.5829213431 1217.5373731335 23.4293978385"/><polygon class="cls-4" points="859.1587923082 155.7056769959 862.9197688499 152.8060131886 868.1555960895 154.9824101954 866.8928637224 156.5342213235 859.1587923082 155.7056769959"/><polygon class="cls-3" points="1156.4619822793 94.8429039492 1142.6059476803 97.4385339813 1151.1685554161 90.3261601649 1165.0246436461 87.7341770364 1156.4619822793 94.8429039492"/><polygon class="cls-3" points="811.12228899 107.6686085487 800.0425669757 108.2127480236 804.2388121815 101.112173013 815.3184805648 100.5714122871 811.12228899 107.6686085487"/><polygon class="cls-1" points="1132.6669556422 39.6464811064 1135.841048868 46.2220628862 1124.5154826501 44.6089515984 1121.3468597796 38.0307419028 1132.6669556422 39.6464811064"/><polygon class="cls-1" points="1094.8589702918 156.2874917085 1098.0331171485 162.8630734883 1086.7074972996 161.2499085695 1083.5388744292 154.6717525049 1094.8589702918 156.2874917085"/><polygon class="cls-2" points="930.9561868438 13.4810474458 938.8279745126 17.6520862178 928.7528135319 17.2255057542 920.8862280637 13.0544669822 930.9561868438 13.4810474458"/><polygon class="cls-2" points="1184.7444700964 163.0013340408 1192.6162577653 167.1723728128 1182.5410967846 166.7460605039 1174.6745113164 162.574968101 1184.7444700964 163.0013340408"/><polygon class="cls-6" points="811.7629902786 26.0434505918 809.2008796462 32.3100109193 805.4430136987 26.4158638102 808.0061969499 20.1474800308 811.7629902786 26.0434505918"/><polygon class="cls-6" points="879.2730289485 35.6249926937 876.7109100182 41.8915530212 872.9530440707 35.997405912 875.5162273219 29.7290221327 879.2730289485 35.6249926937"/><polygon class="cls-6" points="1187.3673445777 83.0859838283 1184.8052339452 89.3525441559 1181.0473679977 83.4583434158 1183.6105512489 77.1897451127 1187.3673445777 83.0859838283"/><polygon class="cls-3" points="848.6834909254 5.0590598074 838.8204402906 6.9070745941 844.919886468 1.8451187162 854.7829371028 0 848.6834909254 5.0590598074"/><polygon class="cls-5" points="948.5522282891 132.4432585814 946.0403698422 138.5914554335 942.3569535232 132.8093433493 944.8688020787 126.663774413 948.5522282891 132.4432585814"/><polygon class="cls-2" points="888.0273589772 91.081686468 885.4657310232 97.3493194143 881.7073823973 91.4553868288 884.2705656485 85.1870030495 888.0273589772 91.081686468"/><polygon class="cls-3" points="1180.9321687505 44.4738016401 1171.0691181156 46.3215482721 1177.1670089959 41.2612013222 1187.0300596308 39.414473678 1180.9321687505 44.4738016401"/><polygon class="cls-3" points="866.3157332515 66.8692496563 857.3608152301 63.6817486164 867.3862067036 62.9354205134 876.3405884157 66.1263003023 866.3157332515 66.8692496563"/><polygon class="cls-4" points="1772.6296069877 20.9827504005 1768.8665388396 23.8826823624 1763.6348948129 21.7070898197 1764.897635165 20.1552250607 1772.6296069877 20.9827504005"/><rect class="cls-4" x="1194.7997353201" y="121.380977749" width="3.8137700907" height="9.0312575936" transform="translate(1058.818409349 1321.2808677894) rotate(-89.4255547933)"/><polygon class="cls-4" points="1201.2050350461 124.859732848 1197.441966898 127.75966481 1192.2103241072 125.5840722673 1193.4730644912 124.0322075082 1201.2050350461 124.859732848"/><polygon class="cls-4" points="1584.9153309339 55.6794452259 1581.1522626907 58.5793771879 1575.9206185318 56.4037846452 1577.1833589159 54.8519198861 1584.9153309339 55.6794452259"/><polygon class="cls-4" points="1610.656839357 121.6417957573 1606.8937692986 124.5417813502 1601.6621252719 122.3661351766 1602.924867339 120.8143240485 1610.656839357 121.6417957573"/><polygon class="cls-2" points="1326.3591490849 154.0283653323 1318.4889167131 149.8578092387 1328.563058706 150.2836388691 1336.4317357807 154.4552139505 1326.3591490849 154.0283653323"/><polygon class="cls-2" points="1652.2533120082 130.3940426985 1644.3830796364 126.2234866049 1654.4571679984 126.6493162354 1662.3258450731 130.8208913168 1652.2533120082 130.3940426985"/><polygon class="cls-6" points="1480.7570939665 175.2604774092 1483.3202686923 168.9934344033 1487.0754530931 174.8873133578 1484.515434067 181.1544099946 1480.7570939665 175.2604774092"/><polygon class="cls-1" points="1654.5370780908 32.4610041787 1649.878373337 26.6899400673 1658.8883166972 29.555816385 1663.5401599376 35.3311173404 1654.5370780908 32.4610041787"/><polygon class="cls-6" points="1588.2653873403 91.9253768946 1593.5716842832 89.4658621776 1587.799280877 96.6028525936 1582.4940550742 99.0550198723 1588.2653873403 91.9253768946"/><polygon class="cls-6" points="1670.9094225043 70.7945736554 1676.2156671608 68.3350589384 1670.4433160528 75.4721029853 1665.1380903839 77.9242166331 1670.9094225043 70.7945736554"/><polygon class="cls-6" points="1367.641331243 83.6654892303 1372.9473077449 81.2059745133 1367.1751711606 88.3430185602 1361.8702136464 90.7951322081 1367.641331243 83.6654892303"/><polygon class="cls-2" points="1365.459945453 239.4203594776 1368.0199644791 233.1506885558 1371.7793941174 239.0459082837 1369.2177577695 245.3158473602 1365.459945453 239.4203594776"/><polygon class="cls-3" points="1410.9690934855 91.0565292686 1420.8316078111 89.2072273395 1414.7347895494 94.2696658958 1404.872221593 96.1163935401 1410.9690934855 91.0565292686"/><polygon class="cls-3" points="1220.1670027614 168.7098340146 1229.1229934016 171.8975495783 1219.0980846065 172.6436631575 1210.1421475973 169.4532660471 1220.1670027614 168.7098340146"/><polygon class="cls-3" points="1626.6804198933 65.7792230607 1623.1262978659 76.8065479305 1610.5426571872 72.0452470788 1614.0938831442 61.0168495902 1626.6804198933 65.7792230607"/><polygon class="cls-3" points="1264.4821902841 49.5043529541 1252.8962995102 49.5090724765 1253.5625057641 36.0714660887 1265.1483968306 36.0635823412 1264.4821902841 49.5043529541"/><polygon class="cls-3" points="1646.957751283 223.2119242001 1635.3718605092 223.2163755678 1636.0380639772 209.7787691801 1647.6242229057 209.7709390634 1646.957751283 223.2119242001"/><polygon class="cls-5" points="1272.9246110957 86.6005494794 1270.7285852219 97.2793268973 1258.4704306845 94.1136000174 1260.6636141188 83.4342862901 1272.9246110957 86.6005494794"/><polygon class="cls-5" points="1270.5112592454 127.6261773544 1268.3152333716 138.3050084033 1256.0570788342 135.1392278924 1258.2502622684 124.4599141651 1270.5112592454 127.6261773544"/><polygon class="cls-5" points="1352.5622968143 109.9286657662 1350.3662709405 120.6074431841 1338.108170034 117.4417163042 1340.301567992 106.7624025769 1352.5622968143 109.9286657662"/><polygon class="cls-5" points="1438.6356451476 140.2284282214 1436.4396192738 150.9072056393 1424.1815183673 147.7414251285 1426.3749163253 137.0621114012 1438.6356451476 140.2284282214"/><polygon class="cls-6" points="1300.2748323789 176.6958021447 1298.0788065051 187.3745795627 1285.8206519677 184.2088526828 1288.0141035566 173.5295389554 1300.2748323789 176.6958021447"/><polygon class="cls-1" points="1468.9293862139 223.4279627942 1458.0921832853 224.6179259983 1457.3401166912 211.9800641255 1468.1767833104 210.7872584818 1468.9293862139 223.4279627942"/><polygon class="cls-6" points="1364.6287895192 51.2056871314 1362.4327691816 61.8845181802 1350.1746627389 58.7187376694 1352.3680606969 48.0394239421 1364.6287895192 51.2056871314"/><polygon class="cls-6" points="1921.2620375704 157.0724306636 1919.0665391222 167.7515298671 1906.8079019064 164.5854812015 1909.0012998644 153.9058993196 1921.2620375704 157.0724306636"/><polygon class="cls-5" points="1532.4789731689 85.8714905378 1521.6417702403 87.0614537419 1520.8896595544 74.4235918692 1531.7263702655 73.2307862255 1532.4789731689 85.8714905378"/><polygon class="cls-2" points="1691.0050409125 100.7362424486 1679.9229591371 104.1159031316 1676.6459517254 91.0669601357 1687.7272254595 87.6841352276 1691.0050409125 100.7362424486"/><polygon class="cls-3" points="1526.441522367 155.1114291461 1520.3069479275 161.6613217076 1511.9873419558 162.6244796841 1514.1807399138 151.9448978022 1526.441522367 155.1114291461"/><polygon class="cls-3" points="1786.7836686896 132.4717051524 1780.6490942501 139.0215977139 1772.3294882784 139.9847556904 1774.5229459173 129.3051738085 1786.7836686896 132.4717051524"/><polygon class="cls-2" points="1186.6832807538 147.7557983399 1180.5487597903 154.3056909014 1172.2291536084 155.2688488779 1174.4225516218 144.5892669959 1186.6832807538 147.7557983399"/><polygon class="cls-3" points="1870.3927655551 189.3437200472 1866.8386971587 200.3710449171 1854.2553246346 195.6097440654 1857.8062824369 184.5813465768 1870.3927655551 189.3437200472"/><polygon class="cls-5" points="1599.3300378067 188.0511333918 1595.7759157792 199.0785118926 1583.1925980214 194.31715741 1586.7435022824 183.2888135523 1599.3300378067 188.0511333918"/><polygon class="cls-2" points="1417.012900561 165.9566630241 1406.9927112881 170.2520719363 1402.5919713292 158.3815614933 1412.6110879833 154.082934725 1417.012900561 165.9566630241"/><polygon class="cls-2" points="1504.6950921496 56.5551584562 1494.6749028767 60.8506209994 1490.2744398382 48.9800569255 1500.2936013575 44.6814837881 1504.6950921496 56.5551584562"/><polygon class="cls-2" points="1243.2574264495 116.0822393067 1233.2372371766 120.3777018498 1228.8364972176 108.5071377759 1238.8556675027 104.2085646385 1243.2574264495 116.0822393067"/><polygon class="cls-2" points="1610.879191301 29.2043728626 1600.8590036909 33.499567251 1596.4582620692 21.6295394865 1606.4774323543 17.3306981944 1610.879191301 29.2043728626"/><polygon class="cls-5" points="1948.1539736348 60.94267873 1945.9584840704 71.6217243026 1933.7008658423 68.455729268 1935.8932448126 57.776147386 1948.1539736348 60.94267873"/><polygon class="cls-1" points="1185.7568063374 190.9488669117 1192.740358646 199.6125691779 1179.2220913308 195.3084720541 1172.2427758661 186.6458424067 1185.7568063374 190.9488669117"/><polygon class="cls-4" points="1687.1013524542 23.9350261558 1692.7493870562 19.5822321423 1700.5991860419 22.846747206 1698.7037615558 25.1763141655 1687.1013524542 23.9350261558"/><polygon class="cls-4" points="1736.1712977342 148.6206771318 1741.8193375599 144.2678831183 1749.6691313219 147.5323445511 1747.7737068358 149.8619651415 1736.1712977342 148.6206771318"/><polygon class="cls-5" points="1877.8314834282 82.4202059693 1873.9856627482 91.8259994945 1868.3528057007 82.9826872242 1872.1944431678 73.5763037588 1877.8314834282 82.4202059693"/><polygon class="cls-5" points="1860.9382217481 165.2757649766 1857.0924010681 174.6816121327 1851.4595976516 165.8382998624 1855.3012351187 156.431916397 1860.9382217481 165.2757649766"/><polygon class="cls-6" points="1810.0146587889 34.3171172367 1806.1688381089 43.7219454051 1800.5318514794 34.8770242068 1804.3760700355 25.4706407413 1810.0146587889 34.3171172367"/><polygon class="cls-1" points="1526.5381651323 216.7158640746 1533.5243451802 225.3753831277 1520.0061318374 221.0741820745 1513.0277819059 212.4115524271 1526.5381651323 216.7158640746"/><polygon class="cls-5" points="1326.3300811184 20.2752247743 1322.5589146992 29.4974932371 1317.0326759494 20.8269798421 1320.8012189373 11.6028879275 1326.3300811184 20.2752247743"/><polygon class="cls-2" points="1343.3822512572 42.5899309218 1339.2808791745 48.8496801205 1333.1179876016 42.9400336709 1337.2194133153 36.6805526269 1343.3822512572 42.5899309218"/><polygon class="cls-3" points="1938.6795327511 138.6912855042 1928.8195927105 140.5390321362 1934.9159375223 135.4765935798 1944.7789789285 133.6309385543 1938.6795327511 138.6912855042"/><polygon class="cls-4" points="1451.6360779636 166.5933963941 1455.3970545052 163.6937325868 1460.6328817449 165.8701295936 1459.3701493778 167.4219407217 1451.6360779636 166.5933963941"/><polygon class="cls-2" points="1374.263533266 46.9152122653 1378.6393884714 29.9004760889 1372.884521048 15.5392913552 1368.5071105455 32.5540275317 1374.263533266 46.9152122653"/><polygon class="cls-2" points="1376.7329696437 31.0406697845 1374.170269071 37.3090535639 1370.4135293731 31.4130830029 1372.9751036963 25.1454500566 1376.7329696437 31.0406697845"/><polygon class="cls-3" points="1748.9392679347 105.7306233474 1735.0832333357 108.3262533795 1743.6458410715 101.2138795631 1757.5019293014 98.6218964346 1748.9392679347 105.7306233474"/><rect class="cls-5" x="1380.675705463" y="59.5895055385" width="3.7430825436" height="8.855829919" transform="translate(1304.8052562449 1445.860864053) rotate(-89.4310836901)"/><polygon class="cls-5" points="1378.1365984607 65.0339948866 1381.8262994905 62.1887664792 1386.9563665273 64.3230095704 1385.7213533683 65.8458063622 1378.1365984607 65.0339948866"/><polygon class="cls-5" points="1321.1279726092 108.4684562764 1313.1875909751 112.3873760191 1315.8544428226 106.3892385254 1323.7922501719 102.470104259 1321.1279726092 108.4684562764"/><polygon class="cls-6" points="1245.3326787751 231.6362317968 1254.1463865461 234.9766346347 1244.088762881 235.5538107661 1235.2776293948 232.2136760828 1245.3326787751 231.6362317968"/><polygon class="cls-3" points="1245.9323763001 76.7262360988 1234.8526542858 77.2703755737 1239.0489019109 70.1698005632 1250.1283533512 69.6290398372 1245.9323763001 76.7262360988"/><polygon class="cls-3" points="1403.5995746453 118.5563279469 1392.5198526311 119.1004674218 1396.7160978369 111.9998924113 1407.7957662202 111.4591316853 1403.5995746453 118.5563279469"/><polygon class="cls-1" points="1183.5628720146 94.1507662559 1186.7369653206 100.726079881 1175.4113988166 99.1132367479 1172.2427758661 92.5347588976 1183.5628720146 94.1507662559"/><polygon class="cls-1" points="1197.4422350526 59.382581393 1200.6163282784 65.9578950181 1189.2907632227 64.3449982541 1186.1221402723 57.7665740347 1197.4422350526 59.382581393"/><polygon class="cls-1" points="1890.2016810867 128.8638455615 1886.2799109045 135.0225004462 1881.693017972 124.5424792764 1885.6194539298 118.386934986 1890.2016810867 128.8638455615"/><polygon class="cls-1" points="1725.1442412976 50.5342005046 1728.3183345233 57.1097822844 1716.9927683054 55.4966709966 1713.824145435 48.918461301 1725.1442412976 50.5342005046"/><polygon class="cls-1" points="1687.3362559472 167.1752111067 1690.5104028038 173.7507928865 1679.184782955 172.1376279678 1676.0161600846 165.5594719031 1687.3362559472 167.1752111067"/><rect class="cls-5" x="1174.7828041049" y="21.7947792568" width="3.7415084481" height="8.8565812023" transform="translate(1138.7267192083 1202.5575463549) rotate(-89.4300259558)"/><polygon class="cls-5" points="1320.1952385242 50.2103505934 1317.6823610896 56.3561876843 1313.9983985698 50.576703516 1316.5102077618 44.4287748185 1320.1952385242 50.2103505934"/><polygon class="cls-2" points="1523.4334724991 24.368766844 1531.305260168 28.539805616 1521.2300991873 28.1132251525 1513.3635137191 23.9421863805 1523.4334724991 24.368766844"/><polygon class="cls-2" points="1777.2217557518 173.889053439 1785.0935434207 178.060092211 1775.01838244 177.6337799022 1767.1517969718 173.4626874992 1777.2217557518 173.889053439"/><polygon class="cls-6" points="1404.240275934 36.93116999 1401.6781653015 43.1977303175 1397.9202993541 37.3035832084 1400.4834826052 31.0351994291 1404.240275934 36.93116999"/><polygon class="cls-6" points="1471.7503146038 46.5127120919 1469.1881956736 52.7792724194 1465.4303297261 46.8851253103 1467.9935129773 40.6167415309 1471.7503146038 46.5127120919"/><polygon class="cls-6" points="1779.8446302331 93.9737032266 1777.2825196006 100.2402635541 1773.5246536531 94.346062814 1776.0878369043 88.0774645109 1779.8446302331 93.9737032266"/><polygon class="cls-3" points="1441.1607765808 15.9467792056 1431.2977259459 17.7947939923 1437.3971721234 12.7328381144 1447.2602227582 10.8877193982 1441.1607765808 15.9467792056"/><polygon class="cls-1" points="1231.4928907649 18.5316830506 1236.1499865907 24.3025326383 1227.1400968614 21.4360663802 1222.4887415465 15.6615698889 1231.4928907649 18.5316830506"/><polygon class="cls-5" points="1291.5681719531 141.1365073475 1289.0563135062 147.2847041996 1285.3726227306 141.5025921154 1287.884477588 135.3570231791 1291.5681719531 141.1365073475"/><polygon class="cls-5" points="1541.0295139445 143.3309779796 1538.5176554976 149.4791748318 1534.8342391786 143.6970627476 1537.346087734 137.5514938113 1541.0295139445 143.3309779796"/><polygon class="cls-2" points="1480.5046446326 101.9694058662 1477.9430166785 108.2370388125 1474.1846680527 102.3431062271 1476.7478513038 96.0747224477 1480.5046446326 101.9694058662"/><polygon class="cls-6" points="1715.689040132 260.6430862856 1713.1258617252 266.9106656009 1709.3704043254 261.0167866464 1711.9322468032 254.7478665577 1715.689040132 260.6430862856"/><polygon class="cls-6" points="1284.5178493075 29.7734780328 1281.9546660564 36.0411109791 1278.1992135009 30.1471783936 1280.7610559788 23.878258305 1284.5178493075 29.7734780328"/><polygon class="cls-3" points="1773.4094544059 55.3615210383 1763.546403771 57.2092676703 1769.6442946513 52.1489207205 1779.5073452862 50.3021930762 1773.4094544059 55.3615210383"/><polygon class="cls-3" points="1458.7930189069 77.7569690545 1449.8381008854 74.5694680146 1459.8634923589 73.8231399116 1468.8178740711 77.0140197005 1458.7930189069 77.7569690545"/></g></svg>