<?xml version="1.0" encoding="UTF-8"?><svg id="Capa_2" xmlns="http://www.w3.org/2000/svg" viewBox="0 0 475.2284526107 608.953974909"><defs><style>.cls-1{fill:#fffdeb;opacity:.39;}.cls-1,.cls-2,.cls-3,.cls-4,.cls-5,.cls-6,.cls-7,.cls-8,.cls-9,.cls-10,.cls-11,.cls-12,.cls-13,.cls-14,.cls-15,.cls-16,.cls-17,.cls-18,.cls-19{stroke-width:0px;}.cls-2{opacity:.5;}.cls-2,.cls-19{fill:#ed7c9e;}.cls-4{fill:#4d4d4d;}.cls-5{fill:#653780;}.cls-6{fill:#572451;}.cls-7{fill:#3f1651;}.cls-8{fill:#c58016;}.cls-9{fill:#cc9247;}.cls-10{fill:#c990bd;}.cls-11{fill:#dab4d3;}.cls-12{fill:#c180b3;}.cls-13{fill:#a489b4;}.cls-14{fill:#ae599d;}.cls-15{fill:#914882;}.cls-16{fill:#efdfec;}.cls-17{fill:#e53f71;}.cls-18{fill:#e8527f;}</style></defs><g id="Capa_1-2"><polygon class="cls-4" points="246.5451330715 123.4741840871 251.8940560457 71.9858741192 254.7521112257 71.9892178391 248.7808403383 123.4493763469 246.5451330715 123.4741840871"/><polygon class="cls-4" points="232.5456500029 114.4814711265 222.2894706778 67.4375233752 224.7874995391 66.0502857931 234.4867142676 113.372244279 232.5456500029 114.4814711265"/><path class="cls-8" d="m219.418043463,2.0557377171c3.4021911363,20.9875861144,7.7346873944,41.8565901768,12.9941585904,62.6062498535.1147404107.7626022528.0774158019,1.4882915218-.1082825393,2.1793146806-.2034325332.6245799518-.5777376403,1.2706755936-1.1236776547,1.941617109s-1.3720266862,1.2115141599-2.4774475328,1.6250581487c-1.1725862603.4283091004-2.3738702537.809744835-3.6034908769,1.1457917441-1.2314662667.3349234722-2.4169016522.4970886468-3.5529759725.4872578572-1.1378296881-.0105830914-2.1733463315-.2598961982-3.1072721369-.7509084011-.9350492423-.4891665592-1.6761550863-1.4221402394-2.2226856011-2.796323095-.3161865029-.7116365187-.7535631654-2.1477486961-1.3152796196-4.3083565955-.5613553509-2.1591233592-1.1455201622-4.7804803294-1.7520430549-7.8622152352-.6241668089-3.1478069778-1.2845140744-6.593033543-1.9825263369-10.3353185925-.6960763431-3.7407904775-1.3979704668-7.4990343344-2.1041075553-11.2747215391.0340341792-.1509716778.0187074423-.362659067-.047374475-.6343299292-.4184697785.0314258389-.9371359443.0129289409-1.5551860149-.0521504786-.6194443349-.0643471811-1.4710485563-.2880317938-2.5576011928-.6695893615-1.1680317827-.4321021945-2.3585723919-.8791701715-3.569324805-1.3382248189-1.2122369533-.458693544-2.3258322161-.9578908932-3.3446576274-1.5005811915-1.0184643079-.541205758-1.8447208012-1.0937861792-2.4772849398-1.6581023668-.6335972996-.562099409-.9240150604-1.1742617006-.87192534-1.8327855558.0535742607-.6588849586.6266678925-2.2330787703,1.7234636886-4.7247781504.5056771745-1.1273573457,1.0450274249-2.4071709094,1.6198061188-3.8386883892.5732941537-1.4311563765,1.1726981827-2.9036491507,1.7976704319-4.419705133.6400984641-1.4474060283,1.2055486046-2.8397035723,1.6956282147-4.1798617123.4889561732-1.3383124965.9536581-2.5630175758,1.3936544009-3.6759709133.4729973192-1.2617082366.9194333839-2.4839357507,1.3432703089-3.6633222635.1340202458-.606123553.944810136-1.144940839,2.4269731649-1.612780634,1.4820727531-.4682109301,3.1130808638-.7572337746,4.8959031368-.8681618753,1.7814280086-.1101958623,3.4526889741-.0139504591,5.0164811494.2869005976,1.5626687385.3026967003,2.5169968845.8775854262,2.8661340703,1.7246862409Z"/><path class="cls-8" d="m274.3185571403,34.8113183011c2.1359021465,2.9288443597,3.5827543159,6.136517147,4.342084335,9.6222544483.7578021922,3.4876470851.8433605042,6.9554324192.2582027631,10.406793613s-1.7570010504,6.7640720874-3.5140021008,9.9358409401c-1.7570010504,3.1736786365-4.083881572,5.8405006656-6.9775859107,8.0012300009-3.9280432179,2.928462403-7.9263664779,4.5494868503-11.9919141259,4.8630733422-4.067075475.3139684486-7.9263664779-.5408507581-11.5778730088-2.5621658796-2.4124388336-1.2551098808-4.4811165921-2.8581823609-6.2029776215-4.8111272241-1.7233888564-1.9514170362-2.6538354996-4.3928845828-2.7913399297-7.3213469858-.068752215-1.6030724801.2597305901-3.137774702.9823927612-4.6018149251.7241899982-1.4644221798,1.6699149114-2.6148759111,2.8432860477-3.4513611938,1.1703154823-.8368672394,2.4460510276-1.2371579136,3.8241509819-1.202781806,1.3780999543.0359039345,2.7225877147.7501630572,4.031935454,2.1439232383.9640588372,1.2551098808,2.2046543615,2.3532355373,3.7217865729,3.2947589263,1.5156043844.9411414322,3.1687131988,1.2386857405,4.9623820972.8888133575,3.4452498858-.5572748984,5.7522686564-2.9628385104,6.9256397927-7.2166908362.2750088601-1.1848298388.3773732691-2.4219877523.3101488811-3.7130015676-.068752215-1.2891040315-.3284828051-2.4918858376-.7746082892-3.6079634614-.4491811381-1.1145497968-1.1214250183-2.1084012605-2.0167316405-2.9807904777-.8968344492-.871243347-2.0671499315-1.4808463201-3.5140021008-1.8303367464-1.9999255435-.5572748984-4.13582769-.7486352302-6.4092342665-.5752268656-2.2749344036.1745542348-4.274859947.5408507581-5.9967209764,1.0981256565-.6202977622.140560084-1.6011626964.1749361915-2.9456504567.1046561495-1.3444877603-.068752215-2.3956327366-.1046561495-3.1534349288-.1046561495-.8265544072-.068752215-1.5339383084-.4869948564-2.1190960495-1.2551098808-.5866855681-.7665871974-1.0328110522-1.6733525221-1.3429599333-2.7195320606-.3101488811-1.0457975818-.5011272561-2.0915951635-.5683516441-3.1373927453-.070280042-1.0461795385.033612194-1.9514170362.3086210541-2.7195320607.207784472-.6959251987.3620949991-2.0392670887.4659872351-4.0265880595.103892236-1.9873209707.1894505481-4.2179483913.2582027631-6.6937920454.068752215-2.4739338703.119170506-4.9677294917.155838354-7.4779492533.033612194-2.5102197616.085558312-4.6018149251.154310527-6.275549404.068752215-1.3234801391.2582027631-2.2306274205.5683516441-2.7191501039.3101488811-.4869948564.7761361162-.7665871974,1.3964338783-.8368672394.6202977621-.0683702583,1.3765721273-.0160421835,2.2734065765.1569842243.8953066222.1749361915,1.9296455015.2975443083,3.1014888107.3662965233,4.7545976251.3494904263,9.5260013473.5931788329,14.3172668204.7318291332,4.7897376461.140560084,9.7001736253.070280042,14.7313079375-.2089303423.8265544072-.068752215,1.5660226754-.068752215,2.2229882855,0,.6539099562.070280042,1.1183693643.1745542348,1.3949060513.3135864918.3437610751.209312299.6722438802.5408507581.9823927612.993469507.3101488811.4545285326.5332116231,1.1687876553.6722438802,2.144305195.135976603,1.2551098808.1879227211,2.6144939544.154310527,4.0789161342-.035140021,1.4644221799-.1909783751,2.8417582207-.4644594081,4.131244209-.2765366871,1.2910138153-.6905778042,2.4235155793-1.2405955243,3.3990331191-.5530733741.9774273235-1.2405955243,1.5690783294-2.0686777585,1.7780086717-.4125132901.140560084-1.2757355453.2272642663-2.5835554576.2616403738-1.3093477393.0359039345-2.8952321657.0179519673-4.7545976251-.0523280748-6.6170187386-.209312299-13.2325096502-.8368672394-19.8480005617-1.8826648212v6.3798235968c5.7889365044-.9755175397,11.0767457526-.6959251987,15.8680112258.8368672394,4.7882098191,1.5347022219,8.6643069191,4.2194762183,11.6282912998,8.0531761189Z"/><path class="cls-9" d="m213.4050059065,3.5344573892c-.3657235882,0-.7377494628.0118406593-1.115695667.035140021-1.3387584091.0832665715-2.563884685.2914330003-3.642912504.6191518919-.2952525678.8112761372-.6011999246,1.6412681551-.9189879407,2.4884482269l-.0145143565.0389595885-.01527827.0389595885c-.4262637331,1.0778819488-.8762087847,2.2642396145-1.3498351548,3.5606008243-.5135408505,1.4048369268-1.1147407751,2.8887389009-1.7873666121,4.4127463338-.610557865,1.4819921904-1.1968614764,2.9219691382-1.7575739856,4.3218406273-.6019638381,1.4991802441-1.1716523309,2.8486334422-1.6943601434,4.0143654435-.3598032586.8170054884-.6262180918,1.4544913044-.8231167965,1.9468335552.1140140899.0653146043.2368131851.132920949.3689702206.203200991.8389680016.4468893976,1.7806823689.8685696497,2.8033715673,1.2554918376,1.1884584279.4507089651,2.3545723859.8884314007,3.4989148092,1.3124033933,1.049999106.3666784801,1.4395949911.4155689441,1.455828153.4174787278.3252361727.0339941508.5251905314.041251329.6357670105.041251329l.0805928743-.0019097837,3.9628012822-.2891412598.9474437186,3.8600549164c.1174517007.4824113754.1829572833.9453429565.1963257696,1.3941421378.6739626855,3.6041438939,1.3441058036,7.1930095177,2.0089015271,10.7658329581.6987898743,3.7458498481,1.3622487492,7.2056140905,1.9722336791,10.2811298422.5868765465,2.9815543912,1.1552281906,5.5345533088,1.6905405759,7.5940641053.7117764038,2.7382479414,1.0093207121,3.4654935936,1.0618397653,3.5831362726l.0378137183.0851763553.0343761075.0867041823c.0905237498.2272642663.1678699917.3716439178.2186702394.4549104894.177227932.068752215.4270276466.129865295.7942790618.1336848625h.0022917405c.7398502249,0,1.4869576281-.1088576738,2.2745524468-.3231354106,1.101945224-.3013638758,2.188612178-.6466527779,3.2239059491-1.0251719173.2878044112-.1077118035.4402051545-.2009092505.4969257319-.2394868823.0905237498-.1153509385.1518278082-.2054927316.1921242453-.2700434223-5.0649374846-20.0206450128-9.3214635076-40.4087324192-12.6614843088-60.6428912552-.6898138907-.1019824523-1.420688132-.1539285703-2.1773444539-.1539285703Z"/><path class="cls-9" d="m271.028911009,36.4717338198c-2.3860838178-3.0655848762-5.4312340079-5.1602356937-9.3077130646-6.4027410018-2.4500615735-.7837752512-5.1126820783-1.1817741848-7.9112791863-1.1817741848-1.8289998978,0-3.7615100749.1692068403-5.7442475646.5034189966l-5.4734402288.9224255515V12.8889601557l5.4262685702.8578748607c6.3920462128,1.010275604,12.8732793267,1.6252259716,19.2636067341,1.8272810924,1.2048825682.0454528533,2.2709238577.0679883015,3.1975509334.0679883015.454719511,0,.8815561792-.0053473945,1.2801280479-.0160421835.3745085935-.0099308755.66403181-.0236813185.8840388981-.0374317615.2350943797-.5057107371.4132772036-1.063749549.547916958-1.6928323164.2114130612-.9969071177.3338301996-2.096942558.3617130423-3.2607647755.0223444699-.9739897127.0007639135-1.9002348317-.064168734-2.7604014329-.0920515768.0053473945-.1858219589.012222616-.2815021248.0202437078l-.0643597124.0053473945-.0645506908.0034376108c-3.4253881348.1902144616-6.841800286.2864675626-10.1541292228.2864675626-1.6647584953,0-3.3386839526-.024445232-4.9749866699-.0721898258-4.8401559372-.1401781273-9.7272925546-.3899778418-14.5237144438-.7425239222-.8112761372-.047362637-1.6032634585-.1233720303-2.3511347752-.2257364393-.0446889398,1.3876488731-.0805928743,3.043049428-.1056110414,4.9161653304-.0370498048,2.5365747774-.0880410309,5.0509960632-.1571752027,7.5451736413-.0700890636,2.5212965074-.1585120513,4.8122730944-.2629772224,6.8083790704-.1300562734,2.4880662701-.3260000862,4.0208587082-.6556287615,5.124713716l-.0360949129.120698333-.0423971993.1184065925c-.0034376108.0095489188-.0836485283.2413966661-.0444979614.8227348397.0448799181.6982169392.174172278,1.4063647538.3852033825,2.1175682225.0689431934.2329936176.1480082407.4457435274.2366222067.6374858159.6061653624.0179519672,1.3087748042.0477445938,2.1187140927.0889959228.3657235882.0190978375.6936334582.029028713.9890770044.029028713.314159427,0,.5106761749-.0114587025.6185789568-.0210076213,1.9846472735-.6076931894,4.2486959096-1.0121853877,6.7359982662-1.2031637628.6581114804-.0500363343,1.3156500257-.0756274365,1.9561914956-.0756274365,2.0742161314,0,4.0909477719.2650779846,5.9957660846.7883587322,2.2315823124.5523094606,4.1155839822,1.5633489781,5.6006318266,3.0059996232,1.3660683167,1.3311192741,2.4070914391,2.8746065012,3.0997700054,4.5930299198.6413053834,1.6046003071,1.0125673445,3.3203500285,1.108056532,5.1124911.090141793,1.7321738617-.0529010099,3.4208046538-.4249268845,5.023877134l-.0217715347.0939613605-.0257820806.0928154903c-2.1028628876,7.6238567318-6.9231570738,9.9705990044-10.626800701,10.590132853-.7532187112.142087911-1.5089201412.21389578-2.2476244959.21389578-2.1345652979,0-4.1579811815-.5840118709-6.0141000086-1.7367573427-1.9030995073-1.1810102713-3.5147660143-2.5931043764-4.7927933001-4.1992325105-.3622859775-.3632408693-.5916510059-.4942520346-.674726599-.5339755366-.2629772224.0064932647-.5316837961.0614950368-.9042826058.3277188916-.5406597798.3857763176-.985830372.9449609997-1.3662592951,1.7142218944-.3708800043.7513089274-.5349304285,1.5114028601-.5003633426,2.3200053001.0859402688,1.8284269627.6160962379,3.2787167428,1.6202605339,4.4158019878,1.330546339,1.5091111196,2.9618836186,2.7714781787,4.8512326829,3.7542528966l.0538559018.0278828428.0529010099.0294106698c2.4777534378,1.3716066896,4.9889280913,2.0385031752,7.6771396985,2.0385031752.4161418792,0,.8422146339-.016806097,1.2663776049-.0496543775,3.1490424261-.2425425363,6.3612986944-1.5706061564,9.5479638604-3.9459951852,2.3755800072-1.7741891042,4.2332266613-3.9047438562,5.6766412199-6.5119806323,1.492496001-2.6939409584,2.4991430158-5.5356991791,2.9928221153-8.4469735283.4818384402-2.8425221342.4086937226-5.7446295214-.2173333908-8.6257292873-.619724827-2.8455777882-1.7678868178-5.398194749-3.5086547063-7.7995568369Z"/><path class="cls-1" d="m264.5440422327,5.4472826471c-1.9032105946.0235880011-6.3771515427-.7933908795-7.7070263382.8699683104-.1317130273.1647419862,5.598286998,1.4043992915,6.2193090083,1.4630313092,3.5737494025.337405332,7.2144741071.2393702379,10.7375587292-.4756933134.5260694868-.1067737917,1.0818402909-.2436638205,1.4533889614-.6310929532s.4408363257-1.1087278047.0016764691-1.4174159448c-.2522354038-.1772983296-.5854960542-.1712147041-.8935335399-.1581632795-3.4353858507.1455568939-6.845660076.2620925338-10.274986998.2480046191"/><path class="cls-1" d="m238.2373510786,5.0996171252s-1.3906620875,1.8542161166-1.2747735802,3.5925437259-1.2747735801,4.4037632769.4635540292,3.9402092478c1.7383276093-.4635540292.6953310437-5.2149828279,2.0859931312-4.8673173061s8.6916380465,1.3906620874,6.7215334226-1.1588850729c-1.9701046239-2.5495471603-7.9963070028-1.5065505947-7.9963070028-1.5065505947Z"/><path class="cls-1" d="m245.9803017017,27.3609429389c3.0339630991-.6473372569,7.1200444009-.6897474122,8.2626692264-.6725881716,7.0249816991.1054913007,17.6740266504,2.3236523261,18.8768208501,10.7441559348.0000621789.0004353136.4634063047,3.2447615406-1.7383276156,1.5065505509-2.2018485505-1.7383014872-10.4297183682-11.0091295585-28.3918745077-8.575859244-.3124861593.0423314047-.5010406307-.6927904788-.4939798148-.8806355901.0394087152-1.0484248125,1.5476077699-1.7083202653,3.4846918615-2.12162348Z"/><path class="cls-1" d="m217.2615312596,2.8977354868s-8.1121955101-2.0859931312-9.3869690902-.9271080583-10.7776311777,20.1646002679-8.3439725247,19.5851577315c2.433658653-.5794425364,8.9234150611-15.9926140056,10.893519685-15.4131714692,1.9701046239.5794425364,6.1420908862,26.4225796614,8.6916380465,24.6842520521,2.5495471603-1.7383276093,5.9103138716,0-1.8542161166-27.9291302562Z"/><path class="cls-13" d="m340.0402811511,167.0871819488s3.928759364-7.2495562284,15.1735658026-10.7681051424c9.7116015259-3.0373102986,22.2421097985-.9793737751,22.2421097985-.9793737751,0,0-9.0049192208,10.8216108662-13.3416988309,20.0572933046-6.3809386698,13.5962424798-13.6771265179,7.5444635073-19.4308690765,4.8402341619-8.8797596361-4.1725077606-7.1265867533-6.9577779392-4.6431076937-13.150048549Z"/><path class="cls-13" d="m347.3280108697,182.1247935324c-.1329820588-1.4942490297,34.1285155582,19.1467573029,22.2665159175,31.4250693224-11.8612075357,12.278468469-21.0197603781-17.2735876209-22.2665159175-31.4250693224Z"/><path class="cls-5" d="m352.1849850038,157.437377724c-8.9155865672,3.7371088443-12.1447038527,9.6498042248-12.1447038527,9.6498042248-2.4834790596,6.1922706099-4.2366519424,8.9775407884,4.6431076937,13.150048549,5.4794866185,2.5751585204,12.3570057982,8.1730775374,18.5126670731-3.0404392883-.1528411511-1.2489362374-.3889334095-2.5193060543-.7432914837-3.8195577228-2.4384116938-5.6895984151-5.7186978748-11.7925363691-10.2677794305-15.9398557627Z"/><path class="cls-5" d="m347.3280108697,182.1247935324c.5323975834,6.0456774426,2.5124318717,14.8955554514,5.5268908112,22.1008364756,3.2497784334-4.1817382802,6.2434294337-8.5108519752,8.2021769344-13.1447292666-6.6345531359-5.6742663656-13.7902298994-9.6405737052-13.7290677456-8.956107209Z"/><path class="cls-3" d="m374.2257911235,156.6456252997c-5.7465751368,3.7059190471-11.3787835829,7.6360215968-16.6058426285,12.048328727-3.4042877699,3.0528115943-14.0795138076,11.2353090205-18.2122336989,6.6466340344-.1091708845-.1669844787.1326391462-.3428602287.2551130765-.1834825861,3.1587453101,3.3125814194,10.6440295309-1.6033936168,13.5799120803-3.7124572135,3.9920262756-3.2143735511,7.9050298313-6.6091371854,12.1643006379-9.4873747037,2.8102056108-1.9759548988,5.6876470171-3.8504666176,8.6574956499-5.5811795082.1615844625-.0960039043.340613018.1598638627.1612548828.26953125h0Z"/><path class="cls-3" d="m362.7978126079,205.3008987372c-5.9972138306-9.8545799682-12.0415735151-19.9567317184-20.3601875785-28.0513959433-.1460194052-.1251023495.0498268979-.3720696876.205914122-.2369060156,4.4405864241,3.8008085707,8.0033615099,8.4874812215,11.3553345425,13.2384857198,3.3015023906,4.794689286,6.3558236796,9.7539178016,9.0744516093,14.8989373329.0903148561.1684153607-.1737402674.3314968356-.2755126953.1508789062h0Z"/><path class="cls-13" d="m143.9490050014,167.0871819488s-3.928759364-7.2495562284-15.1735658026-10.7681051424c-9.7115976976-3.0373102986-22.2421062867-.9793737751-22.2421062867-.9793737751,0,0,9.0049194483,10.8216108662,13.341699168,20.0572933046,6.3809446786,13.5962424798,13.6771268635,7.5444635073,19.4308652276,4.8402341619,8.8797596361-4.1725077606,7.1265867533-6.9577779392,4.6431076937-13.150048549Z"/><path class="cls-13" d="m136.6612752828,182.1247935324c.1321998113-1.4942490297-34.1285121475,19.1467573029-22.2665122071,31.4250693224,11.8612136829,12.278468469,21.0197662939-17.2735876209,22.2665122071-31.4250693224Z"/><path class="cls-5" d="m143.9490050014,167.0871819488s-3.871498854-7.1218934488-14.8978977367-10.6726709566c-4.4092198004,5.1733151151-8.1219185559,10.9294045613-10.1194655783,17.0888207793.3315164584.6362800548.6492653621,1.268805322.9433903936,1.8936645645,6.3809446786,13.5962424798,13.6771268635,7.5444635073,19.4308652276,4.8402341619,8.8797596361-4.1725077606,7.1265867533-6.9577779392,4.6431076937-13.150048549Z"/><path class="cls-5" d="m119.4587200009,194.2832652465c1.9471702883,4.7324404668,5.7468589265,8.7078218766,10.993544734,11.5029483727,3.3977698259-7.4480906247,5.6368747963-17.1704874104,6.2090105479-23.6614200868.0718103117-.8074357912-9.8926135753,4.8516549743-17.2025552819,12.1584717141Z"/><path class="cls-3" d="m109.9247657329,156.3760940497c5.9244610768,3.4847857034,11.556531474,7.4486631657,16.8706306141,11.809535147,3.1362948161,2.9279726137,13.6057918574,11.038005559,17.5311909936,6.9715776947.1096521367-.1663687784.3769268415.0232948263.2548896145.1832467031-4.123277365,4.5887740709-14.8077912815-3.5906805846-18.2120489471-6.6464080773-5.2271594467-4.4124169733-10.8593025351-8.34247479-16.6059079685-12.048433475-.161529237-.0962329037-.0198612893-.376430145.1612456934-.2695179925h0Z"/><path class="cls-3" d="m120.9159766704,205.1500198309c5.5975763865-10.1266219169,11.7429914559-20.3438599627,20.4295913779-28.1376195567.1469394311-.1241080753.3599295899.0994792008.2062473032.2372545047-6.2918176919,6.0092277981-11.1223996762,13.3525265873-15.8176771688,20.6300412884-1.5480199107,2.4512319667-3.0776829966,4.9192495448-4.542648817,7.4212026698-.0916178417.1680202312-.3740994002.0312314812-.2755126953-.1508789062h0Z"/><path class="cls-17" d="m211.1658035194,130.16729382c0-6.4535412495-5.5506711323-6.1037202014,3.6071054774-14.7060951252,9.1571383196-8.6025313733,12.2089983432,1.9418510058,14.7060885076.8318419109,2.4980288613-1.1092268475-2.2190794369-6.3801664412,13.8742528639-6.1043459994,16.0933323007.2772284871,11.9316196597,10.8222366641,13.5976501816,11.0996216008,1.6638475829.2772284871,13.0392896254-7.7705330129,19.422577254-.8319983604,6.3831388201,6.9363443597-5.27109591,50.223570072-5.27109591,50.223570072h-46.3404926877s-13.5960856868-24.1412506568-13.5960856868-40.5125940986Z"/><path class="cls-18" d="m227.8137492299,173.4543630827s-21.3652104581-34.4073094023-8.8789773887-46.3389293635,19.978598709,8.3251464366,26.3618939786,3.0518601007c6.3809485274-5.2718782906,26.3603294838-7.768968518,26.3603294838,4.163277241,0,11.9308377137-16.6495102053,38.569178598-16.6495102053,38.569178598l-27.1937358685.5546134238Z"/><path class="cls-19" d="m344.5305472261,162.3555237294s7.492512565,0,7.214345388-8.3251464366c-.2772284801-8.3243641892-5.548950188-6.6589594231-4.7171082982-8.6015926764.8318418899-1.9420074553,8.8789773887-9.7109759733-11.0996213204-21.6432217324-19.9787551585-11.9316199611-28.5803476176.5546134237-33.8528515729-1.9426332532-5.27109591-2.4964644296-8.3235734902-12.7650263668-22.1978345954-9.7116017713-13.8742528639,3.0524858987-7.2159194069,7.768968518-9.4351476408,8.6008104289-2.2190870893.8334064057-9.9880554111,1.9434155006-6.6589669074,11.6542350245,3.3298707512,9.7123840187,5.8271173651,14.430431133,5.8271173651,14.430431133,0,0,39.6791866905,26.914161326,74.9200675819,15.5387192835Z"/><path class="cls-3" d="m314.8417579204,134.1624710028c2.7549820152-3.0629269663,7.0193837533-4.7894428205,11.1292725179-4.5043946838.1798908617.0098561915.1826997721.2923897382-.0011184563.3002947231-4.0481480905.1967992631-7.866304137,1.7575430397-10.9187779577,4.4194920157-.1343086388.1199319741-.3355943129-.0820851331-.209376104-.215392055h0Z"/><path class="cls-3" d="m279.656455186,122.4112502997c1.434504658,3.5629065515,1.9876688284,7.5215479682,1.5818296881,11.3410590495-.0098082038.0825249349-.0846373053.1416069661-.1671568366.1318413411-.0753173828-.0087890625-.1311035156-.0720214844-.1329345703-.1455078125-.0498290909-3.8126696585-.5862082064-7.5489590566-1.566820411-11.2326590138-.0481061079-.1727306613.2193032657-.265317369.2850821297-.0947335643h0Z"/><path class="cls-19" d="m144.8473379206,162.3555237294s-7.4909575943,0-7.2127904173-8.3251464366c.2756639853-8.3243641892,5.5491066375-6.6589594231,4.7171082982-8.6015926764-.8334063847-1.9420074553-8.8805418835-9.7109759733,11.098213275-21.6432217324,19.978598709-11.9316199611,28.5817556629.5546134237,33.8526951234-1.9426332532,5.2726604048-2.4964644296,8.323738181-12.7650263668,22.1978345954-9.7116017713,13.8742528639,3.0524858987,7.2159194069,7.768968518,9.4351552932,8.6008104289,2.2190794369.8334064057,9.9903945009,1.9434155006,6.6589657744,11.6542350245-3.3290950233,9.7123840187-5.8271238846,14.430431133-5.8271238846,14.430431133,0,0-39.6791866905,26.914161326-74.9200580578,15.5387192835Z"/><path class="cls-3" d="m158.2743751079,129.6595413153c5.4985943578.4463483202,10.2661396573,3.7775579085,13.9922882856,7.6496948731.1298302314.1287316774-.0633574215.3443182721-.2049519595.2196750607-3.9980131803-3.4963865268-8.4813915489-6.6638049088-13.8279090659-7.5716714502-.180354657-.0283441454-.1471393042-.3187286994.0405727399-.2976984836h0Z"/><path class="cls-3" d="m202.2119971782,127.3839065497c1.1844104854-3.152560253,3.2134782502-6.0323777127,5.8070888124-8.1841113177.0648594298-.0519726667.1597080626-.0417187604.2118320861.0229785052.046875.0583496094.0430908203.1411132812-.0052490234.1950683594-2.2561541813,2.458955831-4.1426566007,5.1622920843-5.7403225894,8.0905998874-.0832968236.1576075025-.3389353865.0437280876-.2733492856-.1245354342h0Z"/><path class="cls-6" d="m155.6697307609,157.9164260466s-17.204123615-4.7178906648-1.9418462528-18.8693723662c15.2614857069-14.151638151,18.8693723662-2.775413861,23.5866319332-6.9363443597,4.7163260508-4.1634336905,16.6471634631-20.8121620689,31.0766555346-2.775413861,14.4288662736,18.03612241-26.6367757165,46.0617008763-52.721441215,28.581130587Z"/><path class="cls-6" d="m333.7081448617,157.9164260466s17.2056881098-4.7178906648,1.944197699-18.8693723662c-15.2622726583-14.151638151-18.870154137-2.775413861-23.5866279332-6.9363443597-4.7171170021-4.1634336905-16.6495189092-20.8121620689-31.0790109808-2.775413861-14.4273017788,18.03612241,26.6391224588,46.0617008763,52.721441215,28.581130587Z"/><path class="cls-6" d="m145.1255050976,164.8527704064s-7.2152936089,13.5968682777,2.7752573414,13.5968682777h77.6937574239c6.6606736797,0,11.3770065374-18.3133508971,7.214504842-28.3037456504-4.1618690905-9.9882044605-12.4862330694-9.4343732842-16.9253243659-9.9882044605-4.4391038448-.5561779186-24.6964955288,19.145192808-36.6281151885,20.2544196555-11.9316196597,1.1107913423-29.4129717548-7.4917400309-34.130080053,4.4406621776Z"/><path class="cls-14" d="m163.7160840123,155.6949998114s-12.4862330694-6.6591158726-2.4972466139-16.0934891568c9.9896122535-9.4342168347,10.5442256632,3.3300272848,16.3713430283,1.388176279,5.8271228191-1.9426332532,12.4870153168-20.5355593798,23.5858543898-15.2622730438,11.1004035678,5.2732863359,12.2104126346,9.1562061001,5.2732862027,16.6487283784-6.9371264319,7.4917400309-21.9212264311,27.7475677318-42.7332370069,13.3188575432Z"/><path class="cls-12" d="m167.6013504206,157.0830196409s.8318418899-11.933184456,8.3251514911-9.7116017713c7.490801334,2.2198617404,5.5481626758-3.6064735245,10.266215195-3.0526423481,4.717102774.5553956712,6.6589537308,4.9944933539,3.8852608842,8.8797598604-2.7754137909,3.884484259-13.3196394541,11.0988393533-22.4766275703,3.884484259Z"/><path class="cls-6" d="m344.2525269744,164.8527704064s7.2151371595,13.5968682777-2.7730670487,13.5968682777h-77.6960976466c-6.6589592549,0-11.3754417551-18.3133508971-7.2143549121-28.3037456504,4.1632771358-9.9882044605,12.4876411148-9.4343732842,16.9267386854-9.9882044605,4.4390975706-.5561779186,24.6966457041,19.145192808,36.6265444195,20.2544196555,11.9316196597,1.1107913423,29.4129717548-7.4917400309,34.1302365025,4.4406621776Z"/><path class="cls-14" d="m325.6619480598,155.6949998114s12.48607662-6.6591158726,2.4970901644-16.0934891568c-9.9880477587-9.4342168347-10.5442256632,3.3300272848-16.3713430283,1.388176279-5.8271173651-1.9426332532-12.485450822-20.5355593798-23.5858543898-15.2622730438-11.098839073,5.2732863359-12.2088481398,9.1562061001-5.27171374,16.6487283784,6.9379007114,7.4917400309,21.9212239453,27.7475677318,42.7318209936,13.3188575432Z"/><path class="cls-12" d="m321.7766816515,157.0830196409s-.8319983393-11.933184456-8.3229559336-9.7116017713c-7.493147887,2.2198617404-5.5505146828-3.6064735245-10.2677794305-3.0526423481-4.7178905456.5553956712-6.6589592549,4.9944933539-3.8844841609,8.8797598604,2.7738492961,3.884484259,13.3180836772,11.0988393533,22.475219525,3.884484259Z"/><path class="cls-14" d="m139.5756162127,168.736472418c-3.9936858986-2.9464131479,8.3259284737-15.5379370361,19.4239852993-14.9833236123,11.0997777698.5560214691,14.9842619307,6.6597416705,20.5339943662,4.7171084173,5.5491066375-1.9418510058,21.6424389382-23.308470049,30.7988012565-23.5866372331,9.158552611-.2764462397,13.5984324291,8.0479179495,9.4349988437,11.933184456-4.1609303936,3.884484259-18.591361162,2.2190794929-24.6942989619,8.0461970052-6.1051280926,5.8264917143-22.4772533682,13.5962424798-31.3570130043,8.3243641892-8.8781951413-5.2709395937-12.4862330694,14.1514817015-24.1404677995,5.5491067777Z"/><path class="cls-14" d="m349.8022594099,168.736472418c3.993842348-2.9464131479-8.3235817315-15.5379370361-19.4239852993-14.9833236123-11.0980568255.5560214691-14.9826974359,6.6597416705-20.5316476239,4.7171084173-5.5514533797-1.9418510058-21.6447856805-23.308470049-30.8009915493-23.5866372331-9.1571369272-.2764462397-13.5968679342,8.0479179495-9.4351552932,11.933184456,4.1632771358,3.884484259,18.591361162,2.2190794929,24.6966539594,8.0461970052,6.1043375898,5.8264917143,22.476619315,13.5962424798,31.3548144563,8.3243641892,8.8796031866-5.2709395937,12.48607662,14.1514817015,24.1403113501,5.5491067777Z"/><path class="cls-3" d="m162.7974463969,151.9827835028c6.1945221866,3.5788064622,14.5371715332,8.8724122029,21.1219645975,3.3883735636,3.0200031759-2.3566352823,5.1429279806-5.7133247354,7.9560383321-8.4516059854,2.7038880405-2.9269964224,6.8188876602-4.4605411998,10.7628762321-3.6177175279.0855124398.0142019029.1432516976.0950124498.128969471.1804616685-.0149518262.0876503554-.0976216056.1440499944-.1842055812.1286616777-3.876608101-.6733964301-7.6874952588.8386962155-10.3245323925,3.69838829-4.0458884488,4.0034612517-7.1316038116,10.1460169649-13.3541820871,10.9681217776-6.0296489003.5520759046-11.3658056907-3.0158379147-16.268199787-6.0250622604-.1602935088-.1045678874-.0192551012-.3718815224.161271215-.2696212037h0Z"/><path class="cls-3" d="m289.0108253032,140.952021784c9.8962171669,2.7542014393,14.6787735822,17.6595491532,24.5303876776,17.3530786822,4.1319002392-.3456450169,7.5888792938-3.0950264264,11.5694746062-4.1462574171,2.0140293177-.5535009527,4.2809970912-.5288427495,6.1745517787.4482080317.1642174668.081710135.0538173649.3543992979-.1301667423.2707409257-6.222456836-2.7302818929-11.4961018159,3.5497772757-17.5673384319,4.0036005512-6.6740807403.3986908316-10.9382784368-6.0315473366-14.9548829143-10.3220760936-2.7422652318-3.0389353053-5.8266158178-5.9215036646-9.7183394506-7.3228708521-.1714902337-.0542977353-.0956874186-.3511869779.0963134766-.2844238281h0Z"/><path class="cls-3" d="m230.52913585,138.3546096747c5.9366617632,4.3160991501,16.3769460543,6.4597320279,22.099999391.8042262193.1198582626-.1410044245.3529904804.0519380297.226881382.1967617759-5.5531078774,6.2208767657-16.7191755314,4.0906538825-22.5203535266-.77100347-.1388351764-.1235262985.0413416974-.3501349111.1934727536-.2299845253h0Z"/><path class="cls-14" d="m136.8011411187,293.3143347478c-1.1100090669-3.4175007457-6.4092617689-107.1314664007,0-111.5725630207,3.8844841609-2.6909875118,67.1501570119-5.1228811475,107.1075049067-5.1228811475,39.9571974181,0,100.4477634044,3.260206254,103.7776341555,5.1228811475,3.3290981917,1.8630250204,0,111.5725630207,0,111.5725630207h-210.8851390622Z"/><path class="cls-15" d="m347.6862801809,181.7417717271c-3.3298707512-1.8626748935-63.8204367375-5.1228811475-103.7776341555-5.1228811475-39.9573478948,0-103.2230207458,2.4318936357-107.1075049067,5.1228811475-4.8500903569,3.360605131-2.9961640084,63.5425105355-1.3262180066,94.1225904607,4.1701566701-.1110777462,8.4252696512-.4949043162,12.805542217-1.2292078727,29.9209632193-3.5247270965,15.7480532606-25.5520831567,25.1968146945-37.8873150186,3.1496409492-3.5243769696,7.8736330245-3.5243769696,11.0232739737,1.7621884848,7.8744152719,12.3351443303,22.0473301948,30.8377732939,50.3939422879,24.6703761922,22.0473301948-5.2860402641,17.3223994226-20.2647299168,25.1960324471-30.837773294,3.1496409492-3.5243769696,14.1736971703-4.4056462755,18.8976892456-.8813568375,7.8745717214,6.1678347603,4.7249307722,14.0974203468,15.7482047459,19.3838982695,15.7480482964,5.2865654544,16.5356149832-7.9294980548,29.1340223304-6.1673971017,12.5985637967,1.7621884848,11.8109971099,12.3343565448,21.259763508,17.6213596578,1.0205199638.4760849975,2.1366401537.9393903645,3.3207966813,1.3847517301.7317142221-32.6362874404,1.4299482553-80.7142197737-.7647250626-81.9421146707Z"/><path class="cls-11" d="m132.5001884397,260.555327843c1.4369884819,5.3561531678,12.0707077209,4.1919813593,13.7343870279-3.7260500408,1.6661869714-7.9175937416,3.7463438786-35.6294344322,12.0714854956-36.5603342204,8.3243639789-.9317751053,4.1609303936,8.3829998698,15.4004227586,8.3829998698,11.2371352053,0,5.4100231857-9.7801811034,9.1563571096-10.7115185502,3.7461828198-.9316875736,6.7980428434,3.4153999845,10.5442256632,1.7857345161,3.7461828198-1.6305407856,1.1100090669-8.5390689175,6.5200321159-8.5390689175,5.4123697912,0-1.2490926554,38.888765369,21.2275349149,38.888765369s16.6495102053-31.9028592011,22.8931030741-35.6285591151c6.2426402006-3.7256123822,10.405135089,2.3285186804,15.3988460694-2.3293064658,4.9952754752-4.6573874876,6.6606801992-10.2461124219,15.816886068-10.2461124219,9.1569881162,0,7.9080519103,6.2874906146,10.4060888087,14.2050843561,2.4970821273,7.9175937416,0,24.6849939886,13.7343789908,24.6849939886,13.7365860518,0,16.2324158892-20.027606501,29.1355868252-20.027606501,12.9025451381,0,11.2387049089,18.8625593754,11.2387049089,26.0812999051,0,7.2192657199,5.410023049,12.3429346529,9.9889864556,9.7810564205,4.5780247096-2.5617907006,2.4972466139-73.8202219065-.8327805868-76.3816624802-3.3290789525-2.5613530421-49.9454016262-6.0550063797-102.3896143611-6.0550063797-63.2648846308,0-109.0501338169,3.4936533377-112.7963209306,6.2879282731-3.7461787151,2.7948001258-2.4972466139,75.449537248-1.248310408,80.1073623942Z"/><path class="cls-10" d="m314.8151491006,210.5357670093c-20.4721968212-5.2865654544-31.6268803844-23.7156677776-64.6974925273-17.5482706759-18.3728012372,4.4056462755-13.1231389061,26.1389833052-27.8217240848,26.1389833052-13.6480208231,0-8.3991406068-16.1531902034-14.6984287292-20.5583988203-7.8744152719-7.0486664075-18.3721754393-4.6992276473-23.096949762,2.0553321981-10.4983807491,15.5660274597-29.8560366847,14.7475183935-53.2469550213,17.2619544364-.0436494052,19.6988373798.601083057,40.263713547,1.2465894637,42.6699603903,1.4369884819,5.3561531678,12.0707077209,4.1919813593,13.7343870279-3.7260500408,1.6661869714-7.9175937416,3.7463438786-35.6294344322,12.0714854956-36.5603342204,8.3243639789-.9317751053,4.1609303936,8.3829998698,15.4004227586,8.3829998698,11.2371352053,0,5.4100231857-9.7801811034,9.1563571096-10.7115185502,3.7461828198-.9316875736,6.7980428434,3.4153999845,10.5442256632,1.7857345161,3.7461828198-1.6305407856,1.1100090669-8.5390689175,6.5200321159-8.5390689175,5.4123697912,0-1.2490926554,38.888765369,21.2275349149,38.888765369s16.6495102053-31.9028592011,22.8931030741-35.6285591151c6.2426402006-3.7256123822,10.405135089,2.3285186804,15.3988460694-2.3293064658,4.9952754752-4.6573874876,6.6606801992-10.2461124219,15.816886068-10.2461124219,9.1569881162,0,7.9080519103,6.2874906146,10.4060888087,14.2050843561,2.4970821273,7.9175937416,0,24.6849939886,13.7343789908,24.6849939886,13.7365860518,0,16.2324158892-20.027606501,29.1355868252-20.027606501,12.9025451381,0,11.2387049089,18.8625593754,11.2387049089,26.0812999051,0,7.2192657199,5.410023049,12.3429346529,9.9889864556,9.7810564205,2.8433128656-1.5911515139,3.1174123561-29.6799913007,2.119890466-51.3534566374-6.6567689622,3.9769159358-24.4277090464,8.4364817476-37.0719560916,5.292517611Z"/><path class="cls-13" d="m152.5712487919,197.150854822c7.1999615598-1.258268402.9427645718-5.8549964111,1.3651781702-10.4615279723.4231958458-4.6078445369,10.3502332777-10.4871747648,10.3502332777-10.4871747648,0,0-19.1947872947,3.4769347801-20.2520773724,13.7392405693-.6317430038,6.1344851769,4.6185451252,7.8954482177,8.5366659245,7.2094621678Z"/><path class="cls-5" d="m153.9364269621,186.6893268497c.4231958458-4.6078445369,10.3502332777-10.4871747648,10.3502332777-10.4871747648,0,0-13.2195167571,2.4002946866-18.3178924402,9.0852668186,2.6034758114.8745293638,5.2854892622,1.6947015326,7.9928475289,2.4785480397-.0397334592-.3577421189-.0580427574-.7172348721-.0251883664-1.0766400935Z"/><path class="cls-13" d="m310.850406356,176.0239375133c1.5782710763-.2209300485,14.3592462546,1.3963059164,22.4766275703,6.4033826051,8.1150345735,5.0065514984,14.9833328534,15.9514296006,8.3243639789,17.931134397-6.6606801992,1.978917011-8.741458295-6.520412508-12.2784681588-6.0545687212-3.5384179092.46549366.6242334287,11.1777999956-10.6144714801,8.9656109643-11.2372968635-2.2121890312.2091729559-11.0619955367-.6242334287-15.8356251417-.8326241373-4.773629605-8.9492232056-11.1777999956-7.2838184816-11.4099341035Z"/><path class="cls-5" d="m333.3270339263,182.4273201184c-8.1173813157-5.0070766887-20.898356494-6.6243126536-22.4766275703-6.4033826051-1.665404724.232134108,6.4511943443,6.6363044985,7.2838184816,11.4099341035.1566147916.9009639417-.122969292,1.9472305302-.6065546374,3.066148442,7.0478926644-1.1086767012,12.162382644-4.1727243821,17.9971660336-6.5515737985-.7166950719-.5492615111-1.4515382836-1.0608843849-2.1978023075-1.5211261419Z"/><path class="cls-17" d="m24.9549393364,586.1328450053c-6.7736368955-5.0724051974-10.7710776826,1.0281860144-12.5984076655-15.3455041698-1.8273299829-16.375254679,11.6367126822-11.2890819269,12.4372646961-14.7818166759.7989875191-3.4925782995-8.4427964492-2.6873328011,4.5010516788-19.3606237486,12.9436916785-16.6715700032,20.7386308111-4.0119905892,22.3405170863-5.5398762581,1.5996959825-1.5292937143,2.0970488948-19.7975871598,14.3960122463-21.0412041147,12.2997455989-1.2451814498,48.5658313306,45.0205295547,48.5658313306,45.0205295547l-36.4356769733,48.6352949019s-36.0253099745-4.7149181245-53.2065923994-17.5867994895Z"/><path class="cls-18" d="m83.472991746,602.6959955156s-52.9077738833-4.6309047512-55.6127854762-27.115824712c-2.7050115928-22.4835119155,24.4458578038-14.4196361185,23.9287922564-25.2656531043-.5148752546-10.8400719054,12.5747837933-33.771185797,25.0952796153-24.3918827315,12.5220603169,9.3824320552,27.3886726136,47.7996982034,27.3886726136,47.7996982034l-20.7999590091,28.9736623445Z"/><path class="cls-17" d="m462.4596532015,586.1328450053c6.772854477-5.0724051974,10.7696693652,1.0281860144,12.5985637967-15.3455041698,1.8271734873-16.375254679-11.6390591304-11.2890819269-12.4380341221-14.7818166759-.8007209504-3.4925782995,8.4426272792-2.6873328011-4.5010516788-19.3606237486-12.9437037451-16.6715700032-20.7402071756-4.0119905892-22.3414676124-5.5398762581-1.60032174-1.5292937143-2.0976746397-19.7975871598-14.3966376805-21.0412041147-12.2997452882-1.2451814498-48.5658301038,45.0205295547-48.5658301038,45.0205295547l36.4356760528,48.6352949019s36.0268856284-4.7149181245,53.208781348-17.5867994895Z"/><path class="cls-18" d="m403.9400377754,602.6959955156s52.909493491-4.6309047512,55.6121707031-27.115824712c2.7057813421-22.4835119155-24.4460260655-14.4196361185-23.9288040817-25.2656531043.5148752416-10.8400719054-12.5747834756-33.771185797-25.0952789814-24.3918827315-12.5212777532,9.3824320552-27.3886719217,47.7996982034-27.3886719217,47.7996982034l20.8005842816,28.9736623445Z"/><path class="cls-16" d="m87.4109817289,291.9222356429s-.5560214691-15.2630552912,12.763461872-15.2630552912c13.3180752957,0,12.763461872,15.2630552912,12.763461872,15.2630552912h-25.526923744Z"/><path class="cls-16" d="m128.4767771398,288.5915825602s-.5538311623-15.2599263015,12.7656518423-15.2599263015c13.3180749593,0,12.7634615496,15.2599263015,12.7634615496,15.2599263015h-25.5291133919Z"/><path class="cls-16" d="m170.6532104442,286.9277422889s-.5538311623-15.2636810892,12.7640928015-15.2636810892c13.3196340001,0,12.7650205904,15.2636810892,12.7650205904,15.2636810892h-25.5291133919Z"/><path class="cls-16" d="m211.7211991765,285.2639020177s-.5546134097-15.265245584,12.764093839-15.265245584c13.3196329626,0,12.7636115076,15.265245584,12.7636115076,15.265245584h-25.5277053465Z"/><path class="cls-16" d="m253.8976324809,285.2639020177s-.5539876118-15.265245584,12.7640873475-15.265245584c13.3196394541,0,12.7634615496,15.265245584,12.7634615496,15.265245584h-25.5275488971Z"/><path class="cls-16" d="m294.9656212133,286.9277422889s-.5546134097-15.2636810892,12.7640873475-15.2636810892c13.3196394541,0,12.7634615496,15.2636810892,12.7634615496,15.2636810892h-25.5275488971Z"/><path class="cls-16" d="m337.1418980682,291.0896114846s-.5538311623-15.2599263015,12.7642534568-15.2599263015c13.3196297942,0,12.7634518897,15.2599263015,12.7634518897,15.2599263015h-25.5277053465Z"/><path class="cls-16" d="m376.8501843622,290.6144743991s2.7929361328-15.0139877114,15.7917084411-12.1049659903c12.9964040871,2.9104297664,9.1202117487,17.6830159227,9.1202117487,17.6830159227l-24.9119201898-5.5780499324Z"/><path class="cls-14" d="m85.1147726399,596.3203661095c-1.6585209888-9.1227259104-9.5764294164-286.0733587571,0-297.9339506521,5.8033371905-7.1838474448,100.3232266469-13.6771268635,160.0184034724-13.6771268635,59.6967498415,0,150.0715048979,8.7040670889,155.0453467942,13.6771268635,4.9754063911,4.9761887642,0,297.9339506521,0,297.9339506521H85.1147726399Z"/><path class="cls-15" d="m400.1785229064,298.3864154574c-4.9738418963-4.9730597745-95.3485969527-13.6771268635-155.0453467942-13.6771268635-59.6951768255,0-154.2150662818,6.4932794187-160.0184034724,13.6771268635-6.273311443,7.7691249675-5.0395508056,129.2724883768-2.9762949996,214.7467870238,25.3168120859-1.4789169802,44.8684566265-22.7599581552,51.9682905186-51.1607024861,3.1496409492-9.4497053337,20.4728226191,9.4479843893,33.0713864159-1.5752898628,9.448766398-7.8744154708,1.5743511261-23.6216819177,12.5984073472-29.9209639751,3.1496409492-1.5751334133,6.2992818984,0,7.8736330245,1.573725368,1.5751333735,11.024838747,9.4489228475,18.897689723,17.322555872,23.6232464125,29.9217454667,15.7472664468,50.3937858384-20.4728231363,61.4170598121-45.6697949168,7.8744152719-14.1736975283,33.0713864159-18.897689723,37.7953784912-6.2992820575,11.0240562211,28.3458305618,14.1736971703,66.1412100078,44.0946603895,80.3149075361,14.932946501,6.9684165041,36.1521895934,12.665680944,53.3287780998,9.1607431352.9571579241-84.896687149,1.5591865319-191.803313623-1.4301047048-194.7933761772Z"/><path class="cls-11" d="m77.5588883202,474.0865400555c8.2663214304,16.5326428607,22.8913757224,4.9960578488,22.8913757224-21.224562911,0-18.2039927072,4.9952756014-35.3783913547,8.7414585158-37.4607339979,3.7461829144-2.0824990927,4.9952756014,7.0752715023,11.6542350245,7.4923658289,6.6591118311.4156862812,10.4052946509-10.4043600901,14.1514774706-9.5748649215,3.7463392693.8341886532,15.8161038206,9.5748649215,19.978598709,1.6669692609,4.1618739312-7.9066440647,5.4108052964-45.786036884,22.4766275703-45.786036884,17.0644142286,0,7.0754332551,57.4402719086,42.0382884128,57.4402719086,26.6375650022,0,24.5567868539-53.2784027129,31.2157391231-58.6884258986,6.6589592549-5.4100231857,8.3243639789,9.1562061001,14.151481344,6.6581771757,5.827117365-2.4933354398,6.6591157044-8.7375472787,7.9080519103-8.322017447s4.9952754752,11.2387051928,12.0705467987,5.8286820071c7.0762100204-5.4131521754,13.3180749593-14.1522639489,24.9723096894-14.1522639489,11.6543911796,0,18.7304447505,25.387840152,22.4766275703,54.1064898362,3.7463392693,28.7216222244,7.9080613248,46.2014102663,26.2221845922,46.2014102663,18.3133504345,0,26.2212458953-39.5401041009,34.1308730398-36.6265453448,7.9072589235,2.9119942613-.8334171241,36.211015513,7.9072589235,42.4552273519,8.7398938002,6.242647344,9.5733001848-4.9960578488,9.5733001848-12.0728938459,0-7.0738634569-1.2481539585-142.7617194089-1.6652482745-151.9194900039-.4163120686-9.1562061001-75.7518999477-19.1467573028-163.9908152122-19.1467573028-88.2381330171,0-157.7473827674,6.6598981201-163.1581882005,13.7367341172-5.4115876805,7.0754279518-7.4925222783,171.898871465-3.7461829144,179.3882647537Z"/><path class="cls-10" d="m375.0511717815,380.0824590456c-22.0473204566,0-34.2111208841-40.9213966025-77.1651081085-48.2931398786-88.7134265401-15.2231606726-53.5428009897,57.7411242679-83.4645464564,57.7411242679-16.7976678637,0-18.3712367424-58.2650735926-49.3426017764-54.5907009917-28.8355167209,3.4192034911-34.1210059831,29.3938856607-57.7434660194,43.5674267396-9.1914072342,6.1267182757-21.0290010549,4.9639857044-31.2234059364-.4720080957-.8786203068,44.9959669856-.5164397495,92.1279387877,1.4468448358,96.0513789685,8.2663214304,16.5326428607,22.8913757224,4.9960578488,22.8913757224-21.224562911,0-18.2039927072,4.9952756014-35.3783913547,8.7414585158-37.4607339979,3.7461829144-2.0824990927,4.9952756014,7.0752715023,11.6542350245,7.4923658289,6.6591118311.4156862812,10.4052946509-10.4043600901,14.1514774706-9.5748649215,3.7463392693.8341886532,15.8161038206,9.5748649215,19.978598709,1.6669692609,4.1618739312-7.9066440647,5.4108052964-45.786036884,22.4766275703-45.786036884,17.0644142286,0,7.0754332551,57.4402719086,42.0382884128,57.4402719086,26.6375650022,0,24.5567868539-53.2784027129,31.2157391231-58.6884258986,6.6589592549-5.4100231857,8.3243639789,9.1562061001,14.151481344,6.6581771757,5.827117365-2.4933354398,6.6591157044-8.7375472787,7.9080519103-8.322017447s4.9952754752,11.2387051928,12.0705467987,5.8286820071c7.0762100204-5.4131521754,13.3180749593-14.1522639489,24.9723096894-14.1522639489,11.6543911796,0,18.7304447505,25.387840152,22.4766275703,54.1064898362,3.7463392693,28.7216222244,7.9080613248,46.2014102663,26.2221845922,46.2014102663,18.3133504345,0,26.2212458953-39.5401041009,34.1308730398-36.6265453448,7.9072589235,2.9119942613-.8334171241,36.211015513,7.9072589235,42.4552273519,8.7398938002,6.242647344,9.5733001848-4.9960578488,9.5733001848-12.0728938459,0-3.9494107952-.38877696-47.9767990202-.805871276-87.7018264122-8.2769597862,9.590196971-19.4339980661,15.7564969664-34.2622798644,15.7564969664Z"/><path class="cls-13" d="m24.3277333517,599.4019516123c-2.7561705744-2.7607076094,8.0227295825-1.0449261092,9.7658897425-4.1847108204,1.7433166096-3.1380637669,3.1382202164-20.2268845462,28.5941158942-22.6668707117,25.4558956779-2.439829716,51.9590642073,19.8754990032,51.9590642073,23.3635402677s-85.08771197,8.7193991384-90.319069844,3.4880412645Z"/><path class="cls-13" d="m457.2910317015,599.4906584702c2.6461865197-2.6477510814-7.6987225049-1.0037798947-9.3700723092-4.0151195789-1.6746352434-3.012904179-3.0114960576-19.4095924374-27.4374841597-21.75023318-24.4261445516-2.3406407427-49.85685122,19.0733824945-49.85685122,22.4193676267s81.6439438473,8.3664491006,86.6644076889,3.3459851322Z"/><path class="cls-5" d="m114.6468031957,595.9139103479c0-3.4880412645-26.5031685294-25.8033699837-51.9590642073-23.3635402677-7.2037165293.6907244756-12.4785673601,2.5560716833-16.3813562089,4.942552125,4.7369775019,7.8775444605,9.1546416052,15.915449643,13.6847928882,23.8982846068,25.2884947291-.7791184345,54.6556275279-3.4284340107,54.6556275279-5.4772964642Z"/><path class="cls-5" d="m420.4834752326,573.7253057113c-24.4261445516-2.3406407427-49.85685122,19.0733824945-49.85685122,22.4193676267,0,2.0197628492,29.7047609704,4.6460803512,54.3813702072,5.3106777628,5.2213449751-6.6123374767,10.1119557475-13.3898856093,14.8475250844-20.2483181256-3.8944969277-3.5398260439-9.8880765404-6.5710348127-19.3720440716-7.4817272639Z"/><path class="cls-19" d="m275.1863391429,600.9465773761h45.9600075501c2.6577727818-1.2267204106,4.7637302435-2.9899061047,6.1212423891-5.3870251114,0,0,4.6621945304-14.7023403376-12.0109395465-28.2374110688-10.2831114796-8.3495525563-16.3935588545-5.4710384848-15.7694734891-7.2098180592.6225040982-1.738623125,13.2767639102-9.6099096061,1.0480466863-22.1197668632-12.2287172239-12.515958787-16.99166522-15.5196324464-35.6089969958-15.7289618571-19.2813033727-.2169954355-21.7899707987,3.2037725505-21.5141503639,6.1372003912.2734736926,2.9365568304,2.5033481436,8.6674579095.090114901,8.0196005928-2.418552525-.6462928219-5.0539440305-15.2156510973-16.4852382504-13.4296237784-11.4303555229,1.7891563086-1.3162094827,11.0905475306-5.3549528317,11.8468243403-4.0343627636.7562768097-2.4690857073,22.5950603981,7.4732788029,40.3666267293,5.5268908112,9.8790027201,26.5605848193,21.0825067787,46.051061148,25.7423546846Z"/><path class="cls-19" d="m164.6090976492,600.9465773761h29.7055322841c15.6929780791-8.0776433516,37.3003723337-37.9130294586,34.281366701-52.7389648892,0,0-3.3727379089-15.3500412048-12.6343907278-21.3483144535-9.2616528189-5.9953007085-28.8591405925,9.3883771356-30.7238619552,14.6120689848-1.8676939028,5.2189983647,6.0547513597,10.2105191784,4.0717541895,12.9070824991-1.9809577741,2.6981278155-14.0865548094,3.1533958164-22.5316977876,11.4907453129-12.5503773566,12.3892347043-14.5243004569,27.6231903913-2.168702704,35.0773825459Z"/><path class="cls-19" d="m410.7801655291,594.1111429341s12.7130848167-12.0453587366,10.705525078-21.415587732c-2.0059952439-9.3671000057-9.3686642638-6.0256519085-8.3641021471-7.3595402162,1.0037798694-1.3398333881,19.4064629574,1.0008073545,13.7190549788-9.7047179939-5.6888160239-10.7084978887-17.400311264-16.3966882584-30.4488237678-20.4118078372-13.0499205491-4.013555084-16.3965313947-1.0067524349-17.0650400265,1.3399898376-.669906291,2.3406407427-.6691344297,7.0294318032-2.3414229309,6.3587328617-1.6744787939-.6722634363.666944137-12.3829767249-8.7009378794-11.7122777834-9.3686642638.6675699518-4.349764917,8.697965559-7.6971580101,9.0324545576-3.3436284602.3362099429-8.6971830919,17.7365216465-6.355760161,32.4571665738,2.3422051783,14.7222094222,42.1589217967,36.1392051995,56.5486648659,21.415587732Z"/><path class="cls-19" d="m361.9278764259,551.2799674701s2.0067774913-12.3798477352-3.347393093-17.731828162c-5.3543270338-5.3551094165-22.4185848129-.6677264013-25.4291421736,3.3444206374-3.0121218555,4.0165276242,3.3452028003,11.0445513821,1.002997622,13.0505466767-2.3414229309,2.0061517441-10.0370164462-9.0340190524-21.4140226961,3.6775015906-11.37700625,12.7162141276-9.7040919509,30.7872247727-1.6736965465,37.480759532,8.0310212023,6.6872767799,48.1845627188-24.7645454044,50.8612568873-39.8214002746Z"/><path class="cls-19" d="m72.8004772389,593.7933940304s-13.2493939719-12.5527244159-11.1578208091-22.3170496636,9.7621349549-6.2794129729,8.7162701487-7.67118759c-1.0450825587-1.3949036068-20.2245378039,1.0435180639-14.2974490708-10.1127382504,5.9295919248-11.1607933493,18.134529136-17.0902288247,31.733744156-21.2733751503,13.6007795148-4.1833027751,17.0872562844-1.0480550989,17.7847080879,1.3949036068.6974518034,2.4413942109.696669556,7.3288761172,2.4399861655,6.6307985159,1.7447246549-.7013630405-.6958873086-12.9070824991,9.0684379391-12.2090048977,9.7619744804.6968260055,4.5329673737,9.0646831515,8.0210046571,9.4145041996,3.4850686362.3484130027,9.0646829225,18.4837243861,6.6246968186,33.8260995662-2.4415505987,15.3425316295-43.9372691733,37.6639618787-58.9335780929,22.3170496636Z"/><path class="cls-19" d="m123.7121121452,549.1578866578s-2.0907909154-12.902545464,3.488819478-18.4805953964c5.5796142863-5.5796144272,23.3635443015-.696669556,26.5017598145,3.4864767696,3.1380636876,4.1847108204-3.4864766815,11.5092063521-1.0450825323,13.6007795149,2.4407730899,2.0900086679,10.460212292-9.4160686944,22.3178313472,3.8333252775,11.855898111,13.2508020173,10.1117992981,32.0859119463,1.7423778686,39.0588654855-8.3678569346,6.969980999-50.2165285766-25.8080634683-53.0057059761-41.498851651Z"/><path class="cls-6" d="m71.4047913846,555.0873221332c1.0396068267-12.4579160281,24.0617743185-16.0406092309,38.3598491873-12.9023890145,14.2974451162,3.1380637669,30.6886572286-6.6262614808,37.3141408306,1.0435180639,6.6239100352,7.6741601302-7.3229353878,12.9023890145-5.2319880758,13.2508020173,2.0923553574.351385543,23.0143444361-3.4850687242,32.0812176513,18.1368758782,9.0676554626,21.6186591633,1.7440988129,26.1533474813-10.8094075333,26.1533474813h-86.132633138c-8.0203828402,0-11.5076418572-20.5752975489-3.1382202163-29.2931321925,8.3686393934-8.7208071838,12.5533502139-13.2508020173,10.8094078064-13.9490360681-1.7448811044-.696669556-13.950600563,5.92802743-13.2523665121-2.4399861655Z"/><path class="cls-6" d="m312.7226372937,600.9465773761c4.1695439409-7.7292303489.8418633985-27.2303457349-10.4692863619-34.8007798567-14.0544826658-9.4099671645-17.0162277885-8.5893896165-15.2386487867-9.5809664514,1.7814902388-.9915768349,6.8165038822-.6570878363,2.1543093518-10.4121825644-6.9371264319-14.5205460362-31.1989990286-12.6121752202-46.9716098935-7.5137994083-15.7732366628,5.1029128469-39.9540684284-4.736351704-44.4222656025,4.9287845703-4.4689794215,9.66341533,14.7015577188,14.4165071288,12.3432382439,15.0337003465-2.3581630254.6203222074-29.2860912259-1.8088689437-30.324289981,24.4697945749-.3039813414,7.6849551447.4178765634,13.5028421373,1.9609377934,17.8754487891h130.9676152365Z"/><path class="cls-6" d="m412.1170263433,556.9697223347c-.9961138448-11.9522712931-23.0855289499-15.3899358235-36.8061484235-12.3800041847-13.7190549788,3.0113396841-29.445816588-6.3573248164-35.8029943521,1.0022153999-6.3565424084,7.3640772513,7.0264590855,12.3800041847,5.0196815942,12.7146496327-2.0077161882.3360534934-22.0833135754-3.3444206374-30.7819047126,17.4018761985-8.7018765763,20.7448887905-1.6746352434,25.0944973679,10.3708796384,25.0944973679h82.6469414693c7.6965322121,0,11.0423608104-19.7409524463,3.0113396081-28.1074015469-8.0302389549-8.3662926512-12.0461406797-12.7144931832-10.3724441332-13.3851921247,1.6746352434-.6677264013,13.3853482361,5.6910064604,12.7146493115-2.3406407427Z"/><path class="cls-2" d="m163.7955603486,580.7456634444c-4.5055886-9.012585473-15.0208665304-15.0214972867-24.034238602-12.0178236273-16.5243466868,6.0089118136-33.0477590279-6.0089118136-49.5719536165,0-10.7681051424,2.6920262856-15.4967908216,19.8556299186-8.7995012747,32.0416367421h81.7287365893c.3094570732,0,.6126611238-.0062579794.9160117106-.0107950144,1.7624034022-6.7453195388,1.8242009471-13.8207474905-.2390548068-20.0130181004Z"/><path class="cls-2" d="m275.246572193,574.5579298696c-20.4299554614-3.4054359365-34.0498214693,8.5116342226-52.778701725-5.107449882-5.1068239551-3.4070004313-13.6198660079-3.4070004313-15.3225057084,0-5.7989505515,10.1463748896-12.7963159406,20.2986948597-10.55423843,31.4960973885h108.9026062503c-.6706989246-4.4611570601-2.2473967929-8.8323556665-4.7086600262-12.7695634019-6.809611858-8.5114777731-17.0253018584-13.6190841046-25.5385003607-13.6190841046Z"/><path class="cls-2" d="m377.7676041181,574.383801593c-11.5312553657-8.6489968703-25.94558191-8.6489968703-38.9175906176,0-8.3350025436,5.9539980445-13.7060696719,15.8450473749-14.5135054427,26.419155156h76.1896455952c-5.3946909999-10.1355798752-14.8023111845-19.1863390225-22.7585495349-26.419155156Z"/><path class="cls-7" d="m473.4768256454,608.953974909H.2492189383c-1.7394053724,0,6.1350100984-8.3999292904,7.8736332234-8.3999292904h457.4795582117c1.7401875759,0,9.613038353,8.3999292904,7.8744152719,8.3999292904Z"/></g></svg>