<?xml version="1.0" encoding="utf-8"?>
<!-- Generator: Adobe Illustrator 27.9.1, SVG Export Plug-In . SVG Version: 6.00 Build 0)  -->
<svg version="1.1" id="Capa_2_00000168090965220072503280000011523583879078078375_"
	 xmlns="http://www.w3.org/2000/svg" xmlns:xlink="http://www.w3.org/1999/xlink" x="0px" y="0px" viewBox="0 0 661 1336.9"
	 style="enable-background:new 0 0 661 1336.9;" xml:space="preserve">
<style type="text/css">
	.st0{fill:none;stroke:#373151;stroke-width:7;stroke-linecap:round;stroke-linejoin:round;}
	.st1{fill:#F7A27E;}
	.st2{fill:#DA374A;}
	.st3{fill:#A65137;}
	.st4{fill:#FF2C81;stroke:#373151;stroke-width:7;stroke-linecap:round;stroke-linejoin:round;}
	.st5{fill:#FFFFFF;stroke:#373151;stroke-width:7;stroke-linecap:round;stroke-linejoin:round;}
	.st6{fill:#FF2C81;stroke:#373151;stroke-width:3.9878;stroke-linecap:round;stroke-linejoin:round;}
	.st7{fill:#FFFFFF;}
	.st8{fill:#373151;}
	.st9{fill:#E67F26;stroke:#373151;stroke-width:11.6898;stroke-linecap:round;stroke-linejoin:round;}
	.st10{fill:#F0CC16;}
	.st11{fill:none;stroke:#373151;stroke-width:11.6898;stroke-linecap:round;stroke-linejoin:round;}
	.st12{fill:#FF5061;}
	.st13{fill:#8DC5DC;}
	.st14{fill:#A08779;}
	.st15{fill:#886B5A;}
	.st16{fill:#363436;}
	.st17{fill:#231F20;stroke:#9C3587;stroke-width:0.5125;stroke-miterlimit:10;}
	.st18{fill:#120033;}
	.st19{fill:#FFFFFF;stroke:#9C3587;stroke-width:0.5125;stroke-miterlimit:10;}
	.st20{fill:#0CABE0;stroke:#9C3587;stroke-width:0.5125;stroke-miterlimit:10;}
	.st21{fill:#0CABE0;}
	.st22{opacity:0.21;fill:#FFFFFF;enable-background:new    ;}
	.st23{fill:none;stroke:#373151;stroke-width:1.025;stroke-linecap:round;stroke-linejoin:round;}
	.st24{fill:#EC6F95;stroke:#9C3587;stroke-width:0.5125;stroke-miterlimit:10;}
	.st25{fill:#020238;stroke:#9C3587;stroke-width:0.5125;stroke-miterlimit:10;}
	.st26{opacity:0.49;fill:#FFFFFF;enable-background:new    ;}
	.st27{fill:none;stroke:#9C3587;stroke-width:0.5125;stroke-miterlimit:10;}
	.st28{fill:#AFB1B4;}
	.st29{fill:#827F7F;}
	.st30{fill:#999B9E;}
</style>
<g id="Capa_1-2">
	<path class="st0" d="M593.3,211.3c-22.4,12.6-32.7,15.1-13.5,44.1c7.2,10.9,22.3,7.2,40.1-4.8c17.8-12,26.2-30.6,18.9-41.4
		S612.1,200.8,593.3,211.3L593.3,211.3z"/>
	<path class="st1" d="M121.7,1014.2l33,3.5l77.3-38.5c55.8-70-4.7-255-33.3-343.8l-89.9-307.7c-14.3-54.4-33.6-100-87.1-117.4l0,0
		c-11,1.1-18.4,11.9-15.3,22.5c15.9,54.5,36.9,239.6,21.1,472.2c-2.7,39.1,15.6,82.4,36.9,123.7
		C93.3,884.9,121.5,951.1,121.7,1014.2L121.7,1014.2z"/>
	<path class="st2" d="M4.9,252.6c4.1,25.6,12.2,34,12.2,34c8.5-0.8,13.4-16.9,9.2-38.2s-12.5-37.7-18.3-36.5
		C2,213,1.4,231.2,4.9,252.6z"/>
	<path class="st3" d="M254.3,975.6c-0.1,0-0.2,0-0.4,0c-1.1-0.1-1.9-1.1-1.8-2.1c0.1-1.2,10.3-117.9-22.3-226.8
		c-0.3-1,0.3-2.1,1.3-2.4c1-0.3,2.1,0.3,2.4,1.3c32.8,109.7,22.6,227.1,22.5,228.3C256,974.7,255.2,975.5,254.3,975.6L254.3,975.6z"
		/>
	<path class="st2" d="M589.7,215.7c-22.4,12.6-32.7,15.1-13.5,44.1c7.2,10.9,22.3,7.2,40.1-4.8c17.8-12,26.2-30.6,18.9-41.4
		S608.5,205.1,589.7,215.7z"/>
	<path class="st1" d="M438.9,285.7l43.2,80.7l121.6-74.1c24.5-14.9,33.1-44.4,21-67l0,0c-6.1-11.5-20.9-16.2-33.3-10.4L438.9,285.7
		L438.9,285.7z"/>
	<path class="st0" d="M442.5,281.3l43.2,80.7l121.6-74.1c24.5-14.9,33.1-44.4,21-67l0,0c-6.1-11.5-20.9-16.2-33.3-10.4L442.5,281.3
		L442.5,281.3z"/>
	<polygon class="st1" points="485.4,466 536.6,519.6 619.2,441.5 580.7,375.2 	"/>
	<polygon class="st1" points="634.9,752.7 571.9,841.8 525.5,802.5 585.4,722.8 	"/>
	<polygon class="st1" points="646.1,621.8 560.4,706.4 517.6,654.7 598,579.7 	"/>
	<path class="st1" d="M533.8,575.6l3.3,251.8c-10,45.9-38.7,83.6-76.7,106.1c-2.2,1.3-4.3,2.5-6.5,3.7
		c-30.5,16.3-50.1,47.6-50.7,82.1c0,0.1-0.1,0.3,0,0.5l-1.1,72.9l-2.3,152l-1.4,92.3c-20.4-21.6-82.7-41.7-157.9-48.8
		c-3.5-0.3-7-0.7-10.4-0.9c-38.4-3-73.7-1.9-101.6,2.4c-26.1,4-45.8,10.7-55.4,19.6L77,1284l31.1-187.8l20.8-125.9
		c2.7-16.3,4.8-32.8,6.3-49.4l33.9-379.5L533.8,575.6L533.8,575.6z"/>
	<path class="st4" d="M576.5,817.9l-366.7,35.6c-16,1.5-30.2-10.2-31.7-26.1L104.7,70.9c-1.5-16,10.2-30.2,26.1-31.7L497.5,3.6
		c16-1.5,30.2,10.2,31.7,26.1l73.3,756.4C604.2,802.1,592.4,816.3,576.5,817.9z"/>
	<path class="st5" d="M554.2,796.4L227.5,828c-14.7,1.4-27.7-9.3-29.1-24L129.1,89.8c-1.4-14.7,9.3-27.7,24-29.1L479.8,29
		c14.7-1.4,27.7,9.3,29.1,24l69.2,714.2C579.6,781.9,568.9,794.9,554.2,796.4z"/>
	<path class="st6" d="M121.2,234.2l-2.2,0.2c-2.1,0.2-4.1-1.4-4.3-3.5l-5.6-57.5c-0.2-2.1,1.4-4.1,3.5-4.3l2.2-0.2
		c2.1-0.2,4.1,1.4,4.3,3.5l5.6,57.5C124.9,232.1,123.4,234,121.2,234.2z"/>
	<path class="st6" d="M128,303.8l-2.2,0.2c-2.1,0.2-4.1-1.4-4.3-3.5l-5.6-57.5c-0.2-2.1,1.4-4.1,3.5-4.3l2.2-0.2
		c2.1-0.2,4.1,1.4,4.3,3.5l5.6,57.5C131.7,301.7,130.1,303.6,128,303.8z"/>
	<path class="st6" d="M549.9,190l-2.2,0.2c-2.1,0.2-4.1-1.4-4.3-3.5l-5.1-52.2c-0.2-2.1,1.4-4.1,3.5-4.3l2.2-0.2
		c2.1-0.2,4.1,1.4,4.3,3.5l5.1,52.2C553.7,187.9,552.1,189.8,549.9,190z"/>
	<path class="st7" d="M307.4,36.1l-23.8,2.3c-1,0.1-1.8-0.6-1.9-1.6l-0.1-1c-0.1-1,0.6-1.8,1.6-1.9l23.8-2.3c1-0.1,1.8,0.6,1.9,1.6
		l0.1,1C309,35.2,308.3,36,307.4,36.1z"/>
	<path class="st7" d="M329.9,31.7c0.4,4,3.9,6.9,7.9,6.5c4-0.4,6.9-3.9,6.5-7.9c-0.4-4-3.9-6.9-7.9-6.5
		C332.4,24.2,329.5,27.7,329.9,31.7z"/>
	<path class="st7" d="M314.6,33.2c0.3,2.8,2.8,4.9,5.6,4.6c2.8-0.3,4.9-2.8,4.6-5.6s-2.8-4.9-5.6-4.6
		C316.4,27.9,314.3,30.4,314.6,33.2L314.6,33.2z"/>
	<path class="st1" d="M519.5,700.7L519.5,700.7c2.7-10.8,13.3-17.4,24.6-15l72.3,23.1c21.1,6.7,30.3,30.5,16.9,45.1l-19.1,20.8
		l-69.2-27C525.7,740.3,514.7,719.4,519.5,700.7L519.5,700.7z"/>
	<path class="st1" d="M528.1,517.6c5.5-12.2,21.9-21.5,41.3-7.2l59.4,47.5c19.8,16,40.7,39.3,20.3,61.9l-29.3,27.9L548.8,581
		C517,546.7,528.1,517.6,528.1,517.6L528.1,517.6z"/>
	<path class="st2" d="M561.7,692.6c22.7,8.6,32.3,10.1,22.9,31.9c-3.5,8.2-17.6,6-36.1-2.3c-18.5-8.3-30.6-21.6-26.9-29.8
		S542.8,685.4,561.7,692.6z"/>
	<path class="st0" d="M588.2,764.6L545,747.8c-19.3-7.5-30.3-28.3-25.5-47.1l0,0c2.7-10.8,13.3-17.4,24.6-15l72.3,23.1
		c21.1,6.7,30.3,30.5,16.9,45.1l-28,42.2"/>
	<path class="st0" d="M561.7,692.6c22.7,8.6,32.3,10.1,22.9,31.9c-3.5,8.2-17.6,6-36.1-2.3c-18.5-8.3-30.6-21.6-26.9-29.8
		S542.8,685.4,561.7,692.6z"/>
	<path class="st2" d="M576,514.9c17.9,16.4,26.4,21.2,8.3,39.1c-6.8,6.7-19.2-0.5-33.2-15.1c-14.1-14.6-19.9-31.9-13-38.5
		C545,493.8,561.1,501.2,576,514.9L576,514.9z"/>
	<path class="st0" d="M578.7,609.1L548.8,581c-31.7-34.3-20.6-63.4-20.6-63.4c5.5-12.2,21.9-21.5,41.3-7.2l59.4,47.5
		c19.8,16,40.7,39.3,20.3,61.9l-52.2,49"/>
	<path class="st0" d="M576,514.9c17.9,16.4,26.4,21.2,8.3,39.1c-6.8,6.7-19.2-0.5-33.2-15.1c-14.1-14.6-19.9-31.9-13-38.5
		C545,493.8,561.1,501.2,576,514.9L576,514.9z"/>
	<path class="st3" d="M593,438c-0.7,0.1-1.5-0.3-1.9-0.9c-0.3-0.3-1.8-0.9-3.1-1.4c-6.8-2.7-20.9-8.2-37.9-31.7
		c-0.6-0.9-0.4-2.1,0.4-2.7c0.9-0.6,2.1-0.4,2.7,0.4c16.4,22.6,29.7,27.8,36.2,30.3c2.7,1.1,4.3,1.7,5.1,3.1
		c0.5,0.9,0.2,2.1-0.8,2.7C593.5,437.9,593.2,438,593,438L593,438z"/>
	<path class="st8" d="M403.1,1019.3c0.7-34.6,20.2-65.9,50.7-82.2c2.2-1.2,4.4-2.4,6.5-3.7c0,0-15.2,6.6-62.9,15.3
		C358.9,955.8,391.7,982.1,403.1,1019.3L403.1,1019.3z"/>
	<path class="st8" d="M401.9,1092.6l-15.8,13c-44.5,20.4-103.7,36-169.7,42.7l-12.7-10.8c-34.7,3.4-58,15-88.8,13.2
		c-18.1-1.1-35.2-3-51.3-5.7l44.6-48.9c30.2-7.9,63.6-13.9,98.8-17.3C282.4,1071.6,351.7,1077.4,401.9,1092.6L401.9,1092.6z"/>
	<path class="st0" d="M555,835.1c0,0,6-20.6,34.2-19.3"/>
	<path class="st0" d="M284.3,853.3c0,0-13.2,29.3-15.6,45.6"/>
	<path class="st0" d="M126.1,387.5c0,0-40.8-202-122.2-174.1c0,0-4.9,3.3,19.2,121.7S27.4,704,27.4,704s-6.9,52.8,6.9,71.4
		s118.1,142.8,64.2,331.3"/>
	<path class="st0" d="M37,471.4c0,0,16.8-12.3,36.6-14.3"/>
	<path class="st0" d="M38.9,491.2c0,0,16.8-12.3,36.6-14.3"/>
	<path class="st0" d="M398.5,1317.1c0,0-3.2-317.9,12-332.6c0,0,14.4-47.2,65.9-61.9c0,0,20.4-11.7,48.6-48.5"/>
	<path class="st9" d="M52.4,1210.7c0,0,4,18.7,12.2,16.7c8.2-2,360.9-57.6,360.9-57.6s5.1-16.2-1.9-19.5S140.6,1177.3,52.4,1210.7
		L52.4,1210.7z"/>
	<path class="st10" d="M61.6,1124.7c0,0,207.7-79.7,377.8-2.1l1.6,45.7c0,0-255.7-34.8-380.2,17.1
		C60.9,1185.4,52.9,1127.8,61.6,1124.7L61.6,1124.7z"/>
	<path class="st0" d="M61.2,1120.7c0,0,207.7-79.7,377.8-2.1l1.6,45.7c0,0-255.7-34.8-380.2,17.1
		C60.5,1181.5,52.5,1123.8,61.2,1120.7z"/>
	<path class="st0" d="M154.2,1140.7c17-2.6,36.8-4.9,59.2-6"/>
	<path class="st0" d="M72.9,1132.2c0,0-1.3,28.2,2.7,27.8c2-0.2,15.3-5.8,39.7-11.7"/>
	<line class="st11" x1="97" y1="1172.7" x2="69.3" y2="1314.1"/>
	<path class="st12" d="M241.3,501.8c-1.5-5.3-6.4-9.2-11.8-9.5c-6.2-0.3-11.3,3.6-13.1,8.9c-3-4.7-8.8-7.3-14.8-5.6
		c-5.3,1.5-9.1,6.5-9.3,11.9c-0.2,4.5,1.9,8.4,5,10.9l20.7,16.3c1.5,1.2,3.6,0.9,4.8-0.6l16.3-20.7
		C241.5,510.4,242.5,506.1,241.3,501.8L241.3,501.8z"/>
	<path class="st13" d="M511.8,116c-1.5-15.2-15-26.4-30.3-24.9l-317.5,30.5c-15.2,1.5-26.4,15-24.9,30.3L153.6,302l375.9-2.2
		C529.5,299.8,511.8,116,511.8,116z"/>
	<polygon class="st14" points="175.4,306.2 159.5,158.6 233.6,148.6 269.4,159.2 277.1,199.1 380,188 375.3,158.6 491.1,149.2 
		511.7,170.9 524.7,305.6 	"/>
	<path class="st15" d="M236.5,151.5c0,0,14.1,151.7,15.9,153.5s22.3-0.6,22.3-0.6L263,199.7l14.1-0.6l-7.6-40L236.5,151.5
		L236.5,151.5z"/>
	<polygon class="st15" points="490,149.7 501.1,302.6 524.7,305.6 511.7,167.4 	"/>
	<polygon class="st15" points="380,188 391.2,306.2 358.8,306.2 	"/>
	<polygon class="st16" points="153.6,302 171.2,485.7 543.9,449.8 529.5,299.8 	"/>
	<path class="st17" d="M304.7,380.5l17.7-8l25.1-46.8l-145.9-16.5c0,0-2.4,4.9-2.7,8c-0.3,3,0.9,21.8,0.9,21.8l3.8,5.3L304.7,380.5z
		"/>
	<path class="st18" d="M190.8,261.7c0,0-3.4,15.2-1.1,18.5c2.3,3.3,8.9,4.1,8.9,4.1l0.9,3.9l11.6-1.1l1.9-4.2c0,0-8.4,0.5-10.5-1.4
		c-2.1-1.9-3.7-17.9-3.7-17.9l43.6-8.3l-0.2-2.5l-48.9,8.1C193.3,260.9,192.6,259.1,190.8,261.7z"/>
	<path class="st18" d="M358.5,354.4c-4.7-18-16.4-30.5-26.2-27.9l-16.4,4.8l5.2,20.2c0.2,3.9,0.8,8,1.9,12.2
		c1.1,4.2,2.6,8.1,4.3,11.5l5.5,21.2l16.4-4.8C358.9,389,363.1,372.4,358.5,354.4L358.5,354.4z"/>
	<path class="st18" d="M239.8,334.4c-3.4-13-11.9-22.1-19-20.2l-11.9,3.5l3.8,14.6c0.1,2.8,0.6,5.8,1.3,8.8c0.8,3,1.9,5.8,3.1,8.3
		l4,15.4l11.9-3.5C240.2,359.5,243.2,347.4,239.8,334.4z"/>
	
		<ellipse transform="matrix(0.9679 -0.2512 0.2512 0.9679 -78.8417 64.9098)" class="st18" cx="214.9" cy="341.3" rx="11.6" ry="24.5"/>
	<ellipse transform="matrix(0.9679 -0.2512 0.2512 0.9679 -78.9244 64.703)" class="st19" cx="214" cy="341.6" rx="8.6" ry="20.1"/>
	<path class="st19" d="M219.2,340c0.8,2.9,0.3,5.6-1.1,6s-3.1-1.7-3.9-4.7c-0.8-2.9-0.3-5.6,1.1-6S218.4,337,219.2,340z"/>
	<path class="st20" d="M236.9,255.9l-24.5,28.1c0,0-12.2,0.4-13.5,5.6s-3.3,45.3-1.1,49.1c2.2,3.8,5.3,6.9,5.3,6.9
		s-2.5-21.7-1.4-24.4c1.2-2.7,3.2-7.2,9.4-3.9c6.2,3.3,11.2,13.7,15.7,24.1s4.4,17.9,4.4,17.9l73.5,21.1c0,0-3.7-29.7-3.1-35.4
		c0.6-5.6,4.7-14.9,14.5-15.4c9.8-0.5,22.8,9.7,27.5,23.3c4.8,13.6,7.7,27.1,7.7,27.1l1.6,13.3c0,0,31.6,4.9,61.1-2.4
		c29.5-7.3,88.6-29.6,94.2-36.1c5.7-6.4-4.1-14.9-4.1-14.9s3.5-19.5,1.7-24c-1.8-4.5-8.4-7.8-8.4-7.8s-6.7-15.3-15.8-21.3
		s-65.6-15.9-65.6-15.9s-50.7-30.9-57.6-33.1c-6.9-2.2-30-1.8-31.9-1.6c-1.9,0.2-27.7,2.8-38.6,4.9
		C264.4,246,242.2,248.7,236.9,255.9L236.9,255.9z"/>
	<path class="st21" d="M504.1,340c0,0,3.5-19.5,1.7-24c-1.8-4.5-8.4-7.8-8.4-7.8s-6.7-15.3-15.8-21.3c-3-2-11.1-4.4-20.7-6.7
		c2.5,2.9,5.2,6.7,4.4,8.3l-73.7,24.2c0,0-9.8-3.8-24.2-5.3c-14.5-1.4-12.7,0.5-22.7-1.5c-10-2-13.2-5.7-23.4-5.7
		c-10.2,0-16.4,1.9-16.4,1.9s12.9-1.9,20.5,1.1c7.6,3,6.8,4.7,1,6.9c-5.8,2.2-14.2,1.3-16.6,0.8c-2.4-0.5-7.7-0.7-7.7-0.7
		s11.1,2.6,18.9,3.7c7.8,1.1,9.7-3.9,24.3-3.8s18.2,4.3,17.9,9.1c-0.2,4.7-7.2,7.1-15,7.4c-7.8,0.3-20,0-34.4-6
		c-14.4-6-25.5-7-26.7-7.1s19.2,4.6,21.2,8.7c2,4.1,1.4,12.4-7,14c-8.4,1.6-12.9-6.3-18.3-10.8c-5.4-4.5-14.5-5.4-14.5-5.4
		s9.4,3.4,14.5,8.3s10.6,13.5,18.2,14.9c0.3,0.1,0.5,0.1,0.8,0.1c1.1-5.6,5.2-13.5,14.2-14c3.4-0.2,7.1,0.9,10.7,3
		c11.1-1.4,19.1,0.8,24.1,6.4c5.2,5.9,3.4,12.3-2.9,13.7c-1.5,0.3-2.9,0.5-4.2,0.7c4.7,13.4,7.5,26.6,7.5,26.6l1.6,13.3
		c0,0,31.6,4.9,61.1-2.4c29.5-7.3,88.6-29.6,94.2-36.1C513.9,348.5,504.1,340,504.1,340L504.1,340z"/>
	<path class="st21" d="M278.7,339.7c-9.4-7.6-21.5-8.2-32.7-11.3c-8.4-2.4-10.5-11.9-18.2-18.8c-7.7-6.9-16.7-7.5-16.7-7.5
		s8.7,1.8,13.9,9.3c5.2,7.6,5.7,14.2,0.9,14.2c-4.8,0-8.9-11.2-12.7-13.5c-3.8-2.3-7.5-2.5-7.5-2.5s6.1,1.7,10.9,9.1
		c4.8,7.4,10,14.4,15.7,15.6c5.7,1.2,11.7-1.7,20.1-0.9c8.5,0.9,9.3-0.2,17.7,3.5c0.5,0.2,1,0.4,1.5,0.6c2.2,1.3,4.1,2.5,5.3,3.7
		c4.2,4.4,4.6,9.3,0.2,11.9c-4.4,2.7-8.6,1.6-12.6-0.7c-4-2.3-17-11.5-17-11.5s7.8,6.5,14.8,12.8c7,6.2,12.8,8.7,20.1,7.5
		c6.6-1.1,15.3-0.4,20.4,1.8c-0.2-2.4-0.5-4.9-0.7-7.2c-0.3-0.1-0.5-0.1-0.8-0.2C289.6,352.5,287.8,347.1,278.7,339.7L278.7,339.7z"
		/>
	<path class="st18" d="M258.3,308.7l-5.5-1.3c0,0-1.4,0.7-1.5,1.7s1.4,1.9,1.4,1.9l7.7,1.4C260.2,312.4,260.8,309.7,258.3,308.7
		L258.3,308.7z"/>
	<path class="st18" d="M317.6,297c0,0,55.3,7.2,74.1,15.8c18.8,8.7,21.8,13.8,21.8,13.8l14.2,0l54.8-17.5c0,0,2.2-2.8,1.4-3.9
		c-0.8-1.1-6.6-11.2-17-16.9c-6.2-3.4-17.9-8.8-26.2-12.5c-13.3-2.7-24.6-4.7-24.6-4.7s-3-1.8-7.6-4.6L307.5,292L317.6,297
		L317.6,297z"/>
	<path class="st18" d="M362.8,240.4c0,0-17.9,1-35.1,4.1c-17.1,3.1-33.7,7.7-40.9,9.9c0,0-3.7,0.7-3.1,4.3
		c0.6,3.5,22.8,40.3,22.8,40.3l105.9-24.8c0,0,4.1-1,3.8-3.1c0,0-37.3-22.7-52.3-30.6L362.8,240.4L362.8,240.4z"/>
	<path class="st22" d="M298.1,285l53.5,3.4l21.5-5l-85.6-16.9C290.3,271.8,294.4,278.8,298.1,285L298.1,285z"/>
	<path class="st22" d="M327.7,244.5c-13.8,2.5-27.2,6-35.7,8.4l122.5,20.5c0.9-0.5,1.7-1.2,1.6-2.2c0,0-10.9-6.7-23.3-14l-56.4-14
		C333.5,243.5,330.6,244,327.7,244.5L327.7,244.5z"/>
	<path class="st23" d="M362.8,240.4c0,0-17.9,1-35.1,4.1c-17.1,3.1-33.7,7.7-40.9,9.9c0,0-3.7,0.7-3.1,4.3
		c0.6,3.5,22.8,40.3,22.8,40.3l105.9-24.8c0,0,4.1-1,3.8-3.1c0,0-37.3-22.7-52.3-30.6L362.8,240.4L362.8,240.4z"/>
	<path class="st18" d="M239.6,258.8c0,0-15.7,17.2-17.5,21.4c-1.8,4.3-2.7,8-2,8.2c0.7,0.2,73.6,14.1,74.2,14.2
		c0.6,0.1,2.5,0,2.4-0.9c-0.1-0.9,0-4.1,0-4.1s-19.4-36.5-22.5-38.7c-3.1-2.1-25.2-3.1-29.8-2.3
		C239.7,257.5,239.6,258.8,239.6,258.8L239.6,258.8z"/>
	<path class="st24" d="M250.6,294.3c0.5,0.1,1,0.2,1.4,0.3c-0.2-20.6,3-33.9,4.2-38.1c-0.5,0-1,0-1.5-0.1
		C253.5,261.1,250.4,274.2,250.6,294.3L250.6,294.3z"/>
	<path class="st20" d="M280.9,288.9c0,0-8.6,0.4-9.1,1.6s-0.3,6.6,0.7,7.1c1,0.5,11.4-1.3,12.1-2c0.7-0.7,0.4-3.5,0-5
		S283.7,288.5,280.9,288.9L280.9,288.9z"/>
	<path class="st20" d="M281.7,296.6c0,0,1.9,1.7,3.2,2c1.3,0.4,2.3-0.9,1.7-1.3c-0.6-0.5-1.9-0.4-2.8-0.8l-0.9-0.4L281.7,296.6
		L281.7,296.6z"/>
	<path class="st20" d="M286.1,301.1c4.9,0.9,8,1.5,8.1,1.5c0.6,0.1,2.5,0,2.4-0.9c-0.1-0.9,0-4.1,0-4.1s-4.5-8.4-9.4-17.3
		L286.1,301.1L286.1,301.1z"/>
	<path class="st20" d="M424.5,277.8c0,0,0.4-1.2-0.6-1.6s-14.4-2.1-17.9-2.2c-3.5-0.1-35.5,9.9-39.3,11.8c-3.8,2-4.5,4.3-4,5.2
		s15.4,6,18.4,6.1c2.9,0.1,43.2-11,44-12.2c0.8-1.2-0.6-3.1-0.6-3.1L424.5,277.8L424.5,277.8z"/>
	<path class="st18" d="M394.1,285.2c0,0-1.6,0.4-3.1,1.4c-1.5,1.1-5.9,3.1-6.3,4.3c-0.3,1.2,0.9,1.9,1.2,1.8
		c0.2-0.1,36.8-10.1,37.2-10.5c0.4-0.4,0.8-4.8,0.2-4.7C422.8,277.5,394.1,285.2,394.1,285.2L394.1,285.2z"/>
	<path class="st20" d="M388.1,292.1c0.4-0.1,1-0.3,1.5-0.4c0.3-2.1,0.8-3.8,1.2-4.9c-0.5,0.3-1.1,0.7-1.9,1.1
		C388.6,289,388.3,290.4,388.1,292.1L388.1,292.1z"/>
	<path class="st20" d="M398.6,289.2c0.5-0.1,1-0.3,1.5-0.4c0.3-2.4,1-4.3,1.7-5.6c-0.6,0.2-1.2,0.3-1.8,0.5
		C399.4,285.1,398.8,286.9,398.6,289.2L398.6,289.2z"/>
	<path class="st20" d="M412.9,280.2c-0.6,0.2-1.3,0.3-1.9,0.5c-0.7,1.4-1.6,3.3-2.1,5.6c0.5-0.2,1.1-0.3,1.6-0.5
		C411.2,283.4,412.2,281.4,412.9,280.2z"/>
	<path class="st23" d="M385.4,293.7c0,0-0.5,0.1-1.6,0c-1.1-0.1-13.1-4.7-14.9-6.1c-1.8-1.4,1.3-1.9,6.8-2.7s14.9,0.7,14.9,0.7"/>
	<path class="st24" d="M425.2,283c-0.3,0.3-0.8,0.8-1.6,1.1c-1.5,0.7-39.5,11.6-42.1,11.8c-2.7,0.2-17.6-6-17.6-6l-1-0.5
		c-0.2,0.6-0.2,1.2,0,1.5c0.5,0.9,15.4,6,18.4,6.1c2.9,0.1,43.2-11,44-12.2C425.4,284.3,425.4,283.6,425.2,283z"/>
	<path class="st25" d="M478.1,308.9c0,0-41.7,12.2-45,13.8c-3.3,1.5-5.1,4.1-4.3,7.7s2.5,8.2,6.2,8.7s25.1-4.9,38.2-10.8
		c13-6,16.3-9.1,15.3-11.5C487.4,314.3,481.2,307.5,478.1,308.9L478.1,308.9z"/>
	<path class="st18" d="M477.4,315.9l-2.1-6.2c-9.4,2.8-39.4,11.6-42.1,12.9c-3.3,1.5-5.1,4.1-4.3,7.7c0.2,0.7,0.3,1.4,0.6,2.1
		c7.1-2.1,22-6.7,32.7-10.2C476.6,317.3,477.4,315.9,477.4,315.9L477.4,315.9z"/>
	<path class="st25" d="M497.7,332.5l-68.2,23.8c0,0,1.5,9.7,2.9,11.3s4.1,1.7,6.5,1.2c2.5-0.5,53.7-19.8,57-23.3
		C499.2,342,497.7,332.5,497.7,332.5L497.7,332.5z"/>
	<path class="st18" d="M432.4,367.6c0.1,0.2,0.3,0.3,0.5,0.4c1.6-0.1,3-0.7,3-0.7l50.3-19.6c0,0,4.7-1.3,6-5c0.9-2.4,0.3-6-0.3-8.3
		l-62.3,21.8C429.5,356.3,431,366,432.4,367.6L432.4,367.6z"/>
	<path class="st23" d="M438.9,373.7c27.6-9.1,58.9-21.2,61.6-23.8l4.3-4.2"/>
	<path class="st23" d="M361.1,381.4c10,1.5,27.2,3.6,38.5,3c5.9-0.3,19.5-4.2,34.9-9.2"/>
	<path class="st23" d="M353,380.1c0,0,1.2,0.2,3.3,0.6"/>
	<path class="st23" d="M307.8,300.7c0,0,47.7,9.7,57.4,13.4c9.7,3.7,12.7,5.9,12.7,5.9"/>
	<path class="st23" d="M298.3,333.5c1,7.2,1.6,14,1.6,14"/>
	<path class="st23" d="M296.7,304.8c0,0-2.2,9.3-0.2,18c0.5,2.3,1,5.1,1.5,8.1"/>
	<path class="st23" d="M250.9,334.6c0.4,2.5,0.6,4,0.6,4"/>
	<path class="st23" d="M249,296.8c0,0-2.5,1.6-2.4,5.9c0.1,2.9,2.4,18.8,3.9,28.5"/>
	
		<ellipse transform="matrix(0.9679 -0.2512 0.2512 0.9679 -80.9897 93.0914)" class="st18" cx="324.2" cy="363.8" rx="18.4" ry="33.6"/>
	
		<ellipse transform="matrix(0.9679 -0.2512 0.2512 0.9679 -81.1208 92.7631)" class="st19" cx="322.9" cy="364.2" rx="13.7" ry="27.6"/>
	<ellipse transform="matrix(0.9679 -0.2512 0.2512 0.9679 -80.6256 93.7527)" class="st19" cx="327" cy="362.8" rx="4.1" ry="7.6"/>
	<path class="st26" d="M301.4,362.2c0,0-51.8-12.3-56.2-13s-12.7,1.5-12.7,1.5l68.8,15.8"/>
	<line class="st27" x1="302" y1="374.6" x2="232.6" y2="356.4"/>
	<path class="st23" d="M499.3,317.9c0.7-0.5,1.1-0.8,1.4-1.2c1.7-2,1.8-3.2,1.8-3.2"/>
	<path class="st23" d="M372.6,352.5c10.6,0.4,28.3,0.1,45.2-4.3c26.4-6.8,38.9-11.3,55-17.7c10.1-4.1,18-7.7,22.8-10.3"/>
	<path class="st23" d="M362.7,351.9c0,0,2.2,0.2,6,0.5"/>
	<path class="st23" d="M415.9,354.3L418,374c0,0-6.1,3.9-15.7,2.6s-16.2-6.8-18.6-10.5c-2.4-3.7-2.8-5.6-1.9-6.1
		C382.8,359.6,407.7,357.1,415.9,354.3z"/>
	<path class="st23" d="M504.1,340c-0.5,1.6-2.3,1.3-2.3,1.3l-0.1-17.8c0,0,3.1-1.9,4.3-3.5"/>
	<path class="st19" d="M492.8,314.3c1.9-0.2,4.6-6,4.6-6s-5.1-11.6-12.4-18.5c-0.4,0.8-3.7,6.6-2.2,10.4
		C484.5,304.2,490.9,314.5,492.8,314.3L492.8,314.3z"/>
	<path class="st19" d="M488.4,302.2c-1.5,0.2-2.7,1.1-3.4,2.4c1.2,2.1,2.7,4.4,4,6.2c0.1,0,0.2,0,0.3,0c2.4-0.3,4.1-2.4,3.8-4.8
		C493,303.6,490.8,301.9,488.4,302.2L488.4,302.2z"/>
	<path class="st19" d="M485.2,292.1c0.2,1.7,1.7,2.9,3.4,2.7c0.3,0,0.5-0.1,0.8-0.2c-1.2-1.5-2.4-3-3.8-4.3
		C485.3,290.8,485.1,291.4,485.2,292.1z"/>
	<path class="st19" d="M375.2,321.5c0,0-6.9,0.4-7.3,3.9c-0.4,3.5,5.9,18.8,8,19c2.1,0.1,29.6-3.1,29.6-3.1s5.2,1.5,8.2-1.1
		c3-2.7,3.4-10.5-0.2-13.5s-6.6-3.7-15.4-4.4C389.3,321.6,375.2,321.5,375.2,321.5L375.2,321.5z"/>
	<circle class="st19" cx="408.4" cy="332.6" r="4.3"/>
	<circle class="st19" cx="381.4" cy="338.7" r="3"/>
	<circle class="st19" cx="374.5" cy="328.5" r="3"/>
	<path class="st23" d="M236.9,255.9l-24.5,28.1c0,0-12.2,0.4-13.5,5.6s-3.3,45.3-1.1,49.1c2.2,3.8,5.3,6.9,5.3,6.9
		s-2.5-21.7-1.4-24.4c1.2-2.7,3.2-7.2,9.4-3.9c6.2,3.3,11.2,13.7,15.7,24.1s4.4,17.9,4.4,17.9l73.5,21.1c0,0-3.7-29.7-3.1-35.4
		c0.6-5.6,4.7-14.9,14.5-15.4c9.8-0.5,22.8,9.7,27.5,23.3c4.8,13.6,7.7,27.1,7.7,27.1l1.6,13.3c0,0,31.6,4.9,61.1-2.4
		c29.5-7.3,88.6-29.6,94.2-36.1c5.7-6.4-4.1-14.9-4.1-14.9s3.5-19.5,1.7-24c-1.8-4.5-8.4-7.8-8.4-7.8s-6.7-15.3-15.8-21.3
		s-65.6-15.9-65.6-15.9s-50.7-30.9-57.6-33.1c-6.9-2.2-30-1.8-31.9-1.6c-1.9,0.2-27.7,2.8-38.6,4.9
		C264.4,246,242.2,248.7,236.9,255.9L236.9,255.9z"/>
	<path class="st1" d="M597.2,465.7l16.5-14.6c26.4-23.3,28.9-63.7,5.6-90.4l-52.1-59.6c-8.7-12.2-26.7-12.4-35.6-0.5l0,0.1
		c-16.2,21.7-16.5,51.4-0.7,73.6L597.2,465.7z"/>
	<path class="st2" d="M575.6,308c16.4,20.2,24.6,26.7,2.9,42.6c-8.1,6-20.1-3.7-32.7-21.4c-12.6-17.7-16.2-36.9-8-42.7
		C546.1,280.6,561.9,291.1,575.6,308L575.6,308z"/>
	<path class="st0" d="M578.5,478.3l33.7-29.5c26.5-23.4,29.1-63.9,5.8-90.5l-43.3-49.5"/>
	<path class="st0" d="M524.9,306.7c-10.8,20.6-9.4,45.9,4.5,65.3l38.5,53.2"/>
	<path class="st0" d="M575.6,308c16.4,20.2,24.6,26.7,2.9,42.6c-8.1,6-20.1-3.7-32.7-21.4c-12.6-17.7-16.2-36.9-8-42.7
		C546.1,280.6,561.9,291.1,575.6,308L575.6,308z"/>
	<path class="st28" d="M284.8,521.3c2.6-4.1,3.5-9.4,1.3-14.9c-1.5-3.8-4.6-6.9-8.5-8.3c-12-4.6-23.3,5-21.9,16.7
		c0.9,6.9,6.3,12.5,13.2,13.6c3.6,0.6,7.1-0.1,10-1.6l8.1,1.5L284.8,521.3L284.8,521.3z"/>
	<path class="st7" d="M157.2,62.1l316.9-31.2c15.4-1.5,29.1,9.7,30.6,25.1l4.8,49L137,141.7l-4.8-49
		C130.6,77.3,141.9,63.6,157.2,62.1z"/>
	<g>
		<path d="M225.9,93.8c-0.6-0.8-1.4-1.4-2.3-1.8c-0.9-0.4-2-0.5-3.1-0.4c-1.1,0.1-2.1,0.4-2.9,1c-0.9,0.6-1.5,1.3-2,2.2
			c0,0,0,0,0,0.1c0,0,0,0,0-0.1c-0.6-0.8-1.4-1.4-2.3-1.8c-0.9-0.4-1.9-0.5-3-0.4c-1.1,0.1-2.1,0.4-2.9,1c-0.6,0.4-1.1,0.9-1.5,1.6
			l-0.2-1.8l-2.9,0.3l1.5,15.5l2.9-0.3l-0.9-9.4h0c-0.1-0.8,0-1.5,0.3-2c0.3-0.6,0.7-1,1.2-1.4c0.5-0.4,1.2-0.6,1.9-0.6
			c1.1-0.1,2,0.1,2.8,0.7c0.8,0.6,1.2,1.5,1.3,2.6l0.9,9.4l2.9-0.3l-0.9-9.4l0,0c-0.1-0.8,0-1.5,0.3-2c0.3-0.6,0.7-1,1.3-1.4
			c0.5-0.4,1.2-0.6,1.9-0.6c1-0.1,2,0.1,2.7,0.7c0.8,0.6,1.2,1.5,1.3,2.6l0.9,9.4l3-0.3l-1-9.9C226.9,95.6,226.5,94.6,225.9,93.8z"
			/>
		<path d="M242.2,89.8l0.2,2.1c-0.6-0.7-1.3-1.2-2.2-1.5c-1-0.4-2-0.5-3.2-0.4c-1.4,0.1-2.7,0.6-3.8,1.5c-1.1,0.8-1.9,1.9-2.4,3.2
			c-0.5,1.3-0.7,2.7-0.6,4.2c0.1,1.5,0.6,2.9,1.4,4c0.8,1.2,1.8,2,3,2.6c1.2,0.6,2.5,0.8,4,0.7c1.2-0.1,2.2-0.5,3.1-1
			c0.8-0.5,1.4-1.1,1.8-1.9l0.2,2.1l3-0.3l-1.5-15.5L242.2,89.8z M242.2,101.4c-0.8,1.1-1.9,1.7-3.4,1.8c-1,0.1-1.9,0-2.7-0.4
			c-0.8-0.4-1.5-0.9-2-1.7c-0.5-0.8-0.8-1.6-0.9-2.7c-0.1-1,0-1.9,0.4-2.8c0.3-0.8,0.9-1.5,1.6-2c0.7-0.5,1.5-0.8,2.5-0.9
			s1.9,0,2.6,0.4c0.8,0.4,1.4,0.9,1.9,1.7c0.5,0.8,0.8,1.7,0.9,2.7C243.3,99,243,100.4,242.2,101.4z"/>
		<path d="M262.3,87.8l-2.9,0.3l0.9,8.9c0.1,1.3-0.1,2.3-0.7,3.1c-0.6,0.8-1.4,1.2-2.6,1.4c-0.8,0.1-1.4,0-2-0.3
			c-0.6-0.3-1.1-0.7-1.4-1.3c-0.4-0.6-0.6-1.3-0.7-2.2l-0.9-8.9l-2.9,0.3l0.9,9c0.1,1.3,0.5,2.5,1.2,3.5c0.7,1,1.5,1.7,2.6,2.1
			c1.1,0.5,2.2,0.6,3.5,0.5s2.4-0.5,3.3-1.2c0.9-0.7,1.7-1.5,2.1-2.6c0.5-1.1,0.6-2.3,0.5-3.6L262.3,87.8z"/>
		<path d="M271.2,99.8l5.4-6.7c0.9-1.2,1.6-2.2,2.1-3c0.5-0.8,0.8-1.6,1-2.4c0.2-0.8,0.2-1.6,0.1-2.5c-0.1-1.3-0.5-2.4-1.2-3.3
			c-0.7-0.9-1.5-1.6-2.6-2c-1.1-0.4-2.3-0.6-3.7-0.5c-1.7,0.2-3.1,0.7-4.3,1.6c-1.2,0.9-2.1,2.1-2.9,3.7l2.3,1.6
			c0.6-1.2,1.2-2.1,2.1-2.8c0.8-0.6,1.8-1,3-1.1c1.2-0.1,2.2,0.1,2.9,0.7c0.8,0.6,1.2,1.4,1.4,2.6c0.1,0.6,0,1.2-0.1,1.7
			c-0.1,0.6-0.4,1.2-0.9,1.9c-0.4,0.7-1,1.5-1.8,2.5l-7.5,9.6l0.2,1.9l15.2-1.5l-0.3-2.7L271.2,99.8z"/>
		<polygon points="301.1,93.7 300.8,90.9 297.6,91.3 297,85 293.9,85.3 294.6,91.6 287.3,92.3 293.8,77.5 290.4,77.8 283.6,93.5 
			283.8,95.4 294.8,94.3 295.4,100.2 298.4,99.9 297.9,94 		"/>
	</g>
	<circle class="st29" cx="167" cy="101" r="25.8"/>
	<path class="st21" d="M392.5,61.4l85-7.9c6.5-0.6,12.3,4.2,12.9,10.7l1.8,19.5c0.6,6.5-4.2,12.3-10.7,12.9l-85,7.9
		c-6.5,0.6-12.3-4.2-12.9-10.7l-1.8-19.5C381.2,67.8,386,62.1,392.5,61.4z"/>
	<g>
		<path class="st7" d="M412.8,81.6c-0.4-0.6-0.9-1.2-1.5-1.5c-0.6-0.4-1.2-0.7-1.9-0.9c-0.7-0.2-1.3-0.4-2-0.6
			c-0.7-0.2-1.3-0.3-1.8-0.5s-1-0.5-1.4-0.8c-0.4-0.3-0.6-0.8-0.6-1.4c-0.1-0.7,0.2-1.3,0.7-1.7c0.5-0.4,1.2-0.7,2.2-0.8
			c0.8-0.1,1.5,0,2.1,0.3c0.6,0.2,1.2,0.7,1.8,1.2l1.9-2.3c-0.7-0.7-1.6-1.3-2.6-1.7c-1-0.4-2.2-0.5-3.5-0.4
			c-1.2,0.1-2.2,0.4-3.1,0.9c-0.9,0.5-1.6,1.2-2.1,2c-0.5,0.8-0.7,1.8-0.6,3c0.1,1,0.3,1.8,0.7,2.4c0.4,0.6,0.9,1.1,1.4,1.4
			c0.6,0.4,1.2,0.6,1.9,0.8c0.7,0.2,1.3,0.4,2,0.5c0.7,0.2,1.3,0.3,1.8,0.5c0.6,0.2,1,0.5,1.4,0.9c0.4,0.4,0.6,0.9,0.6,1.5
			c0.1,0.8-0.2,1.4-0.8,1.9c-0.6,0.5-1.4,0.8-2.5,0.9c-1.1,0.1-2.1,0-2.9-0.4c-0.8-0.4-1.5-0.9-2.1-1.6l-1.9,2.3
			c0.9,1,2,1.7,3.1,2.2c1.1,0.4,2.4,0.6,3.9,0.5c2.1-0.2,3.7-0.8,4.8-2c1.1-1.1,1.6-2.5,1.4-4.3C413.5,83.1,413.2,82.3,412.8,81.6z"
			/>
		<path class="st7" d="M427,77.9c-0.6-0.9-1.4-1.6-2.4-2.1c-1-0.5-2.1-0.7-3.3-0.5c-1.3,0.1-2.4,0.5-3.4,1.2s-1.7,1.6-2.2,2.7
			c-0.5,1.1-0.7,2.3-0.6,3.6c0.1,1.3,0.5,2.4,1.2,3.4c0.7,1,1.6,1.7,2.7,2.2c1.1,0.5,2.3,0.7,3.6,0.6c1-0.1,2-0.4,2.9-0.8
			c0.9-0.5,1.6-1.1,2.2-1.9l-2.1-1.8c-0.4,0.5-0.8,0.9-1.4,1.2c-0.6,0.3-1.2,0.5-1.8,0.5c-0.8,0.1-1.5,0-2.1-0.3
			c-0.6-0.3-1.1-0.7-1.5-1.3c-0.2-0.3-0.3-0.6-0.4-0.9l9.8-0.9c0-0.3,0-0.5,0.1-0.8c0-0.2,0-0.5,0-0.7
			C428.1,79.9,427.7,78.8,427,77.9z M419.5,78.7c0.5-0.4,1.2-0.6,2-0.7c0.7-0.1,1.4,0,1.9,0.3c0.5,0.2,1,0.6,1.3,1.2
			c0.2,0.3,0.3,0.6,0.4,1l-7,0.6c0-0.3,0.1-0.6,0.2-0.9C418.6,79.6,419,79.1,419.5,78.7z"/>
		<path class="st7" d="M442.4,73.5l-3,0.3l0.1,1.4c-0.4-0.4-0.9-0.7-1.4-0.9c-0.8-0.3-1.8-0.5-2.8-0.4c-1.2,0.1-2.2,0.5-3.1,1.2
			c-0.9,0.7-1.6,1.5-2,2.6c-0.4,1-0.6,2.2-0.5,3.4c0.1,1.2,0.5,2.3,1.1,3.3c0.6,1,1.4,1.7,2.4,2.2c1,0.5,2.1,0.7,3.2,0.6
			c1-0.1,1.9-0.4,2.7-0.9c0.5-0.3,0.9-0.7,1.2-1.2l0.1,1.4c0.1,1.1-0.2,1.9-0.8,2.6c-0.6,0.7-1.6,1.1-2.7,1.2c-1,0.1-1.8,0-2.5-0.3
			c-0.7-0.3-1.4-0.7-1.9-1.3l-1.8,2.2c0.7,0.9,1.6,1.5,2.7,1.9c1.1,0.4,2.3,0.5,3.7,0.4c1.4-0.1,2.6-0.5,3.5-1.1
			c1-0.6,1.7-1.4,2.2-2.4c0.5-1,0.7-2.1,0.6-3.4L442.4,73.5z M439.9,82.1c-0.3,0.6-0.6,1.1-1.2,1.4c-0.5,0.4-1.1,0.6-1.9,0.6
			s-1.4,0-2-0.3s-1.1-0.7-1.4-1.2c-0.4-0.5-0.6-1.2-0.6-1.9c-0.1-0.8,0-1.4,0.3-2c0.3-0.6,0.7-1.1,1.2-1.4c0.5-0.4,1.2-0.6,1.9-0.6
			s1.4,0,2,0.3c0.6,0.3,1,0.7,1.4,1.2c0.4,0.5,0.6,1.2,0.6,1.9C440.3,80.9,440.2,81.5,439.9,82.1z"/>
		<path class="st7" d="M456.9,72.2l-3,0.3l0.7,7.5c0.1,1-0.1,1.7-0.5,2.3c-0.4,0.6-1.1,0.9-1.9,1c-0.6,0.1-1.1,0-1.5-0.2
			c-0.4-0.2-0.8-0.5-1-0.9s-0.4-1-0.5-1.6l-0.7-7.5l-3,0.3l0.7,7.7c0.1,1.1,0.4,2.1,1,2.9c0.6,0.8,1.3,1.4,2.2,1.9s1.9,0.6,3,0.5
			c1.1-0.1,2.1-0.4,2.9-1c0.8-0.6,1.4-1.3,1.8-2.2s0.6-1.9,0.4-3.1L456.9,72.2z"/>
		<path class="st7" d="M461.3,69.3c0.5,0,0.9-0.3,1.2-0.6c0.3-0.4,0.4-0.8,0.4-1.3c0-0.5-0.3-0.9-0.6-1.2c-0.4-0.3-0.8-0.5-1.3-0.4
			c-0.5,0-0.9,0.3-1.2,0.6c-0.3,0.4-0.4,0.8-0.4,1.3c0,0.5,0.3,0.9,0.6,1.2C460.3,69.3,460.8,69.4,461.3,69.3z"/>
		
			<rect x="460.6" y="71.7" transform="matrix(0.9957 -9.219956e-02 9.219956e-02 0.9957 -5.2555 42.9408)" class="st7" width="3" height="13.2"/>
		<path class="st7" d="M474.6,70.6c-0.6-0.2-1.2-0.3-1.8-0.2c-1.5,0.1-2.6,0.8-3.2,1.9c0,0,0,0.1-0.1,0.1l-0.1-1.4l-3,0.3l1.2,13.2
			l3-0.3l-0.7-7.3c-0.1-1.1,0.1-2,0.6-2.6c0.5-0.6,1.2-0.9,2-1c0.4,0,0.7,0,1,0.1c0.3,0.1,0.6,0.2,0.8,0.5l1.8-2.2
			C475.7,71.2,475.2,70.8,474.6,70.6z"/>
	</g>
	
		<rect x="214.2" y="555" transform="matrix(0.9957 -9.284294e-02 9.284294e-02 0.9957 -50.3833 36.0749)" class="st30" width="296.6" height="9.1"/>
	
		<rect x="220.9" y="595" transform="matrix(0.9957 -9.284294e-02 9.284294e-02 0.9957 -54.0682 36.8666)" class="st30" width="296.6" height="9.1"/>
	
		<rect x="230.2" y="633.6" transform="matrix(0.9957 -9.284294e-02 9.284294e-02 0.9957 -57.6179 37.9001)" class="st30" width="296.6" height="9.1"/>
	
		<rect x="231.6" y="679" transform="matrix(0.9957 -9.284294e-02 9.284294e-02 0.9957 -61.821 38.2197)" class="st30" width="296.6" height="9.1"/>
</g>
</svg>
