<?xml version="1.0" encoding="UTF-8"?><svg xmlns="http://www.w3.org/2000/svg" viewBox="0 0 632.5805214118 270.9249496228"><defs><style>.cls-1,.cls-2,.cls-3,.cls-4,.cls-5,.cls-6,.cls-7,.cls-8,.cls-9,.cls-10{stroke-miterlimit:10;}.cls-1,.cls-2,.cls-4,.cls-5,.cls-6,.cls-7,.cls-8,.cls-9,.cls-10{stroke-width:1.5094997883px;}.cls-1,.cls-2,.cls-11{fill:none;}.cls-1,.cls-4,.cls-5,.cls-6,.cls-7,.cls-8,.cls-9,.cls-10,.cls-11{stroke:#373151;}.cls-2{stroke:#38bae6;}.cls-3{fill:#fff;stroke:#9c3587;stroke-width:.6084917075px;}.cls-12{opacity:.37;}.cls-12,.cls-13,.cls-14,.cls-15,.cls-16{stroke-width:0px;}.cls-12,.cls-16{fill:#04071d;mix-blend-mode:multiply;}.cls-4{fill:#0cabe0;}.cls-5{fill:#2e3b42;}.cls-6{fill:#e2d8ac;}.cls-7{fill:#e21d27;}.cls-8{fill:#00091c;}.cls-9{fill:#00658c;}.cls-10{fill:#001b27;}.cls-17{isolation:isolate;}.cls-11{stroke-linecap:round;stroke-linejoin:round;stroke-width:1.5471994458px;}.cls-14{fill:#0f0f0f;}.cls-15{fill:#323948;}.cls-16{opacity:.07;}</style></defs><g class="cls-17"><g id="Capa_2"><g id="Capa_1-2"><path class="cls-13" d="m471.8672624424,211.4290355279s3.9785096677,57.0360568395,48.2805801838,53.2849885684,94.6187285052-50.7132823943,64.4287337117-64.1310578581c-30.1899947935-13.4177754638-112.7093138955,10.8460692897-112.7093138955,10.8460692897Z"/><path class="cls-13" d="m210.6405076861,270.9249496228l56.3820493429-1.9113285194s25.046514199-26.2424972264,6.7088877319-94.52241976l-20.6526020063-10.1362288573-42.4383350686,2.4599664495v104.1100106872Z"/><path class="cls-13" d="m520.1478426263,264.7140240963l56.3820493429-1.9113285194s25.0465141991-26.2424972264,6.7088877319-94.52241976l-20.6526020063-10.1362288573-42.4383350686,2.4599664495v104.1100106872Z"/><path class="cls-13" d="m20.7502484511,239.047255901h43.3859291827s19.3487918252-67.1555460483-11.4068976607-87.8712513027l-31.979031522-2.9223626688v90.7936139714Z"/><path class="cls-4" d="m590.7800863087,83.5674792097c-19.0301629778-11.7601675275-46.9603305243-10.0061479936-46.9603305243-10.0061479936l-4.3243334827-2.58118559c-19.4163826378.3357310212-45.695534844.7986049648-73.4362778626,1.3108619565,27.3338856669-.3530519411,103.2054111563-.242308613,124.7209418696,11.276471627Z"/><path class="cls-4" d="m315.4231582107,75.7975725297c-5.0554974191.4790892728-9.9046179208.6950479758-14.3653075812.5693791743,3.0978649443,2.5660758514,6.3143966161,4.2708966023,9.7402534472,4.7978948024,15.4465752169,2.3762827933,39.2956392192,5.8026924197,44.556039435,6.5563366989,13.7034273242-6.2709100513,33.1448700163-12.1156149149,60.0608424252-14.4646264727-50.0559842873.9898721437-94.1867398601,1.9909844589-99.9918277262,2.5410157971Z"/><path class="cls-4" d="m466.0591444391,72.2910075827c-3.2865524117.0608074846-6.5915313339.1219834995-9.9105144041.1840808398l-.0036853021.0001842651h0c-13.5884458987.2537330495-27.3700016274.5170478845-40.729958796.7812840449-26.9159724089,2.3490115578-46.3574151009,8.1937164214-60.0608424252,14.4646264727.679569707.0974762405,1.0643152461.1523872418,1.0643152461.1523872418l4.1503872237,26.8680634816,45.047658735-.9268534779s7.8098922078,9.9064605718,8.3273086225,21.7561809403c.1599421111,3.6731406019-.372215512,7.5309148389-2.0652432962,11.3407801487,0,0-2.9954135459,5.3672739767-12.6789133408,6.4853946335h-32.6598842601l2.6254092152,16.9958762193h219.3808745192s.9825015395-8.0778136704,2.245823099-19.2170077942c-16.0575983049.0886315155-30.6550799183.0300352121-31.5417636033-.4625054134-2.0129120064-1.1181206568-4.0250869523-5.8143011213-4.0250869523-5.8143011213,0,0-.1230890901-5.4822554022-.1754203799-11.6286022426-.0479089273-5.5666488203-.036853021-11.6776167605.1754203799-14.7596349057.4473956748-6.4853946335,4.0250869523-6.7089082058,4.0250869523-6.7089082058l35.5572687702.798973495c1.097482965-12.1476770432,1.7549408594-22.2151853167,1.2684809824-25.1884870501-1.6554377028-1.4225266101-3.4354386165-2.6954299551-5.295779116-3.8450599448-21.5155307133-11.51878024-97.3870562027-11.6295235681-124.7209418696-11.276471627Zm80.2209190265,37.722015223c0,1.3418184942,2.6828999279,34.4389638483-4.0258240127,43.3841133676,0,0-1.006087473,5.5906032839-10.733810893,6.5970592871h-95.2665333751s-9.72772342.8818927922-12.4113604084-8.7837332874l-5.3672739767-37.3956817221s0-8.4979381096,9.056998438-8.4979381096h114.3866177241s4.3611865037,3.3543619703,4.3611865037,4.6961804645Z"/><path class="cls-4" d="m267.1899243415,12.7341302196h174.7245948671l-13.4874686212-8.0507267c-76.4191613813-7.2513846747-147.6162496887-3.0243431674-190.3915511496,1.1855616852,7.5563434234,1.5789676842,14.9829642129,4.6486400674,20.8676546043,10.1408457853,3.8865195934-2.0731666957,8.2867702994-3.2756807705,8.2867702994-3.2756807705Z"/><path class="cls-4" d="m456.148630035,72.4750884225c3.3189830702-.0620973404,6.6239619924-.1232733552,9.9105144041-.1840808398-6.1802516197.0799710555-9.8825061082.1831595143-9.9105144041.1840808398Z"/><path class="cls-4" d="m415.4149859369,73.2565567326c13.3599571686-.2642361605,27.1415128973-.5275509954,40.729958796-.7812840449-15.179759345-.625027236-28.696710383-.2688427881-40.729958796.7812840449Z"/><path class="cls-8" d="m441.9145192086,12.7341302196h-174.7245948671s-4.400250706,1.2025140748-8.2867702994,3.2756807705c-3.2305358198,1.7230629963-6.1065455777,4.0468302347-5.8021396244,6.7875894056.6714620424,6.0379989587,22.1398208888,44.2787204521,28.8485448295,48.9749009166,4.3140146369,3.0197365398,11.0728586861,4.3685571079,19.1082913823,4.5946503917,4.4606896604.1256688016,9.309810162-.0902899014,14.3653075812-.5693791743,5.805087866-.5500313382,49.9358434389-1.5511436534,99.9918277262-2.5410157971,12.033248413-1.0501268331,25.550199451-1.4063112809,40.729958796-.7812840449.0007370604,0,.0022111813-.0001842651.0036853021-.0001842651.028008296-.0009213255,3.7302627844-.1041097843,9.9105144041-.1840808398,27.7407430186-.5122569917,54.0198952248-.9751309353,73.4362778626-1.3108619565l-97.5809030931-58.2460154066Z"/><path class="cls-4" d="m594.8073844423,112.6010262046l13.701216143.3079069904-1.1778225508-6.2502723596c-1.6244811652-8.3238075855-5.7969802014-14.5569432903-11.2549126098-19.2461216808.486459877,2.9733017333-.1709980174,13.0408100068-1.2684809824,25.1884870501Z"/><path class="cls-4" d="m622.0329222275,170.3930123926H235.612781838c18.2945766789,17.7145101286,26.4339348943,82.0720462707,26.4339348943,82.0720462707h56.6158220232l300.2968415215-10.7341794232,10.733810893-18.7850903883s.8947913496-34.886175258,0-42.0422948734c-.5645882815-4.5185489034-4.6921266322-8.3192009579-7.6602689426-10.5104815858Z"/><path class="cls-4" d="m588.5460561764,170.3930123926h33.486866051c-1.7328290469-1.2791683585-3.0735419504-2.0127277413-3.0735419504-2.0127277413l-3.2828671096-17.4257667091c-7.4966415294.0867888644-16.3936978563.1746833195-24.884633892.2214866561-1.2633215595,11.1391941239-2.245823099,19.2170077942-2.245823099,19.2170077942Z"/><path class="cls-4" d="m366.539772442,153.3971361733h-70.7253696387s-1.5655163316-7.1561196155,0-10.9578772606c.3220954034-.7809155147.7348492385-2.4566223791,1.3355534806-4.5985199589,2.3239515035-8.2858489739,7.504749194-23.6585338837,21.5125824716-22.2371128642l41.906307226-.8619921609-4.1503872237-26.8680634816s-.3847455391-.0549110013-1.0643152461-.1523872418c-21.513319532,9.8449160268-28.9023502401,20.7263232688-28.9023502401,20.7263232688,0,0,7.3890307081-10.8814072421,28.9023502401-20.7263232688-5.2604002158-.7536442792-29.1094642181-4.1800539056-44.556039435-6.5563366989-3.4258568311-.5269982001-6.6423885029-2.231818951-9.7402534472-4.7978948024-8.0354326962-.2260932838-14.7942767455-1.5749138519-19.1082913823-4.5946503917-6.7087239407-4.6961804645-28.1770827871-42.9369019579-28.8485448295-48.9749009166-.3044059534-2.7407591709,2.5716038046-5.0645264093,5.8021396244-6.7875894056-5.8846903914-5.4922057179-13.3113111809-8.5618781011-20.8676546043-10.1408457853-25.8214376855,2.5412000622-41.2886505942,5.0761351109-41.2886505942,5.0761351109C118.028796013,27.0463694505,72.4084413318,108.4475064741,67.0419044155,109.3421135586c-5.3672739767.8946070845-38.4649721261,14.8434755285-38.4649721261,14.8434755285C-15.2538396926,160.4972391969,5.817980648,234.5747596246,5.817980648,234.5747596246l3.0801754942-8.0507267c-11.629339303-78.7176843004,13.4174478813-80.5067142042,13.4174478813-80.5067142042,33.096961089-1.7890299039,27.7296871123,85.8738039158,27.7296871123,85.8738039158l-9.8390195434,6.2616967961,147.5956119969,26.835448558h7.155382555v-70.6669576004c2.6836369884-12.5232093271,12.5233935922-35.7805980773,34.8865437882-27.7300556425,2.0254420335.7291370202,3.9469585478,2.0376035304,5.7689719055,3.8017576451h133.5523998192l-2.6254092152-16.9958762193Z"/><path class="cls-7" d="m594.8073844423,112.6010262046l-35.5572687702-.798973495s-3.5776912775.2235135723-4.0250869523,6.7089082058c-.2122734009,3.0820181452-.2233293072,9.1929860855-.1754203799,14.7596349057h37.708011075c.7385345406-6.9724073058,1.4579055103-14.1220776426,2.0497650274-20.6695696165Z"/><path class="cls-7" d="m592.7576194149,133.2705958211h19.5866435948l-3.8356624244-20.3616626261-13.701216143-.3079069904c-.5918595171,6.5474919738-1.3112304867,13.6971623106-2.0497650274,20.6695696165Z"/><path class="cls-6" d="m555.0496083399,133.2705958211c.0523312898,6.1463468404.1754203799,11.6286022426.1754203799,11.6286022426,0,0,2.012174946,4.6961804645,4.0250869523,5.8143011213.886683685.4925406255,15.4841652984.5511369289,31.5417636033.4625054134.6154454505-5.4336094145,1.2979633992-11.5950659935,1.9657401395-17.9054087773h-37.708011075Z"/><path class="cls-6" d="m590.7918792754,151.1760045983c8.4909360357-.0468033367,17.3879923626-.1346977917,24.884633892-.2214866561l-3.3322501577-17.6839221211h-19.5866435948c-.6677767403,6.3103427838-1.350294689,12.4717993628-1.9657401395,17.9054087773Z"/><path class="cls-7" d="m413.943813339,135.5709613911c-.5174164147-11.8497203685-8.3273086225-21.7561809403-8.3273086225-21.7561809403l-45.047658735.9268534779,3.3676290579,21.8011416259,50.0073382996-.9718141635Z"/><path class="cls-7" d="m360.5688459815,114.7416339287l-41.906307226.8619921609c-14.0078332776-1.4214210195-19.1886309681,13.9512638904-21.5125824716,22.2371128642l66.7865187555-1.2979633992-3.3676290579-21.8011416259Z"/><path class="cls-6" d="m411.8785700428,146.9117415398c1.6930277842-3.8098653097,2.2251854073-7.6676395468,2.0652432962-11.3407801487l-50.0073382996.9718141635,2.6032974026,16.8543606187h32.6598842601c9.6834997948-1.1181206568,12.6789133408-6.4853946335,12.6789133408-6.4853946335Z"/><path class="cls-6" d="m297.1499562839,137.8407389538c-.6007042421,2.1418975798-1.0134580772,3.8176044442-1.3355534806,4.5985199589-1.5655163316,3.8017576451,0,10.9578772606,0,10.9578772606h70.7253696387l-2.6032974026-16.8543606187-66.7865187555,1.2979633992Z"/><path class="cls-9" d="m418.4752607997,113.8147804508l5.3672739767,37.3956817221c2.6836369884,9.6656260797,12.4113604084,8.7837332874,12.4113604084,8.7837332874h95.2665333751c9.72772342-1.0064560032,10.733810893-6.5970592871,10.733810893-6.5970592871,6.7087239407-8.9451495193,4.0258240127-42.0422948734,4.0258240127-43.3841133676s-4.3611865037-4.6961804645-4.3611865037-4.6961804645h-114.3866177241c-9.056998438,0-9.056998438,8.4979381096-9.056998438,8.4979381096Zm120.2344550945,0s4.0575176108,2.6318584939,4.0575176108,3.6845650384c0,1.0528908096,2.4971607022,27.0208192536-3.7457410532,34.0391085706,0,0-.9360667331,4.3864308231-9.9879057482,5.1761910629h-88.6477308056s-9.0518390151.6917312039-11.5489997172-6.891883455l-4.9943214043-29.3405326597s0-6.6674485572,8.4275488396-6.6674485572h106.4396322783Z"/><path class="cls-10" d="m423.8425347764,120.482229008l4.9943214043,29.3405326597c2.4971607022,7.5836146589,11.5489997172,6.891883455,11.5489997172,6.891883455h88.6477308056c9.0518390151-.7897602398,9.9879057482-5.1761910629,9.9879057482-5.1761910629,6.2429017554-7.018289317,3.7457410532-32.9862177609,3.7457410532-34.0391085706,0-1.0527065445-4.0575176108-3.6845650384-4.0575176108-3.6845650384h-106.4396322783c-8.4275488396,0-8.4275488396,6.6674485572-8.4275488396,6.6674485572Z"/><path class="cls-8" d="m231.4270672792,90.3202425105c13.0548141548-1.2165182228,12.6332155947-12.1640766375,12.6332155947-12.1640766375,0,0-.8417229994-44.1967224804-19.7930205123-54.7388976643-5.1100398902-2.842842039-11.7553766348-3.7291571938-18.7309164474-3.5227802763-13.7270132576,18.1526925481-31.7193951645,56.2528197664-41.2119963106,77.3239030466,30.2821273459-3.1516703549,60.8723459473-6.317713388,67.1027176755-6.8981484686Z"/><path class="cls-8" d="m165.3090623245,29.0937390315c-34.9536162864,17.4355327597-72.8554742518,72.1742461588-72.8554742518,72.1742461588l5.8957462977,2.8382354114s28.7505157937-3.0108918147,59.6377697442-6.2279762819c8.2204348616-18.4628107197,25.8516571627-56.5938944757,40.1218839498-77.3965034979-16.6420872178,2.0694813936-32.7999257398,8.6119982096-32.7999257398,8.6119982096Z"/><path class="cls-5" d="m245.9449463673,79.8230280122s-.8940542892-48.7513873443-21.0209631716-60.3799895869c-4.4282590019-2.558336717-9.9392597605-3.6858548941-15.8416396019-3.8914947512-2.4632559228-.0856832738-4.9943214043-.0119772318-7.5430763358.1873976117-19.1090284428,1.4940214709-39.2315149627,9.9657939356-39.2315149627,9.9657939356-37.1227851017,19.2321175328-77.3758658062,79.6121071197-77.3758658062,79.6121071197l6.2620653263,3.1306641329s31.7275028291-3.4511011504,65.2460624782-7.076332825c2.1057816193-.2275674046,4.2174597219-.4560561347,6.3291378245-.6841763346,31.6619044517-3.422171529,63.2449434385-6.8159662317,69.7583463679-7.4461528906,13.8648435561-1.3418184942,13.4174478813-13.4178164116,13.4174478813-13.4178164116Zm-147.5956119969,24.2831925895l-5.8957462977-2.8382354114s37.9018579654-54.7387133991,72.8554742518-72.1742461588c0,0,16.157838522-6.542516816,32.7999257398-8.6119982096-14.270226787,20.8026090223-31.9014490881,58.9336927782-40.1218839498,77.3965034979-30.8872539505,3.2170844672-59.6377697442,6.2279762819-59.6377697442,6.2279762819Zm133.0777329089-13.7859780912c-6.2303717283.5804350806-36.8205903296,3.7464781136-67.1027176755,6.8981484686,9.4926011461-21.0710832802,27.4849830529-59.1712104985,41.2119963106-77.3239030466,6.9755398126-.2063769175,13.6208765572.6799382372,18.7309164474,3.5227802763,18.9512975129,10.5421751839,19.7930205123,54.7388976643,19.7930205123,54.7388976643,0,0,.4215985601,10.9475584147-12.6332155947,12.1640766375Z"/><path class="cls-8" d="m340.5339341575,85.58142984v-14.6012842139h-19.4491449094s11.6287387352-56.9042173863,13.8650346459-58.2460154066c2.2362959106-1.3417980203,259.8576121133,0,259.8576121133,0v56.3546364739l-8.4979517589,1.8913789327-1.7890367285,5.4219814209-18.3376264671-4.2370298555s.4472591821-6.6544039551,1.7890367285-6.6544039551,16.5485897386-3.2167125246,16.5485897386-3.2167125246l-12.9705162816-24.5133567671h-228.9967012481v24.2012860542s4.4725918213-.4965494016,5.8143693676,3.0815240554c1.3417775464,3.578073457.9832240243,21.7946482954.9832240243,21.7946482954l-8.8168892245-1.2766525097Z"/><ellipse class="cls-14" cx="210.6405076861" cy="218.8699442792" rx="19.2321448314" ry="52.0550053436"/><ellipse class="cls-14" cx="20.7502484511" cy="193.6504489153" rx="16.7722193297" ry="45.3968069857"/><ellipse class="cls-3" cx="20.7502484511" cy="195.1653747548" rx="12.2567121059" ry="38.4342643079"/><polyline class="cls-1" points="245.9465906788 185.1609585038 343.0566179904 185.1609585038 629.8501610071 185.1609585038"/><polyline class="cls-1" points="629.69319117 223.3931845266 339.9750093232 229.6548130764 260.7609284793 229.6548130764"/><path class="cls-2" d="m54.1271863375,126.2911864412s203.0556686848-20.0800441241,212.8953706916-17.8436799671"/><path class="cls-11" d="m164.3243496037,108.4475064741s-10.9056248344,7.1563857762-10.9056248344,14.0888177912v88.8927112626"/><path class="cls-11" d="m97.9064004898,108.4475064741s-10.9056248344,7.1563857762-10.9056248344,14.0888177912v88.8927112626"/><path class="cls-8" d="m92.4535880727,94.6922282549s3.6035945543-13.0902161994-7.5217015837-14.203358286-25.437589966.3709563671-25.437589966,7.2323132364,16.7581264564,12.4395529694,16.7581264564,12.4395529694v5.1561061664s3.5042648513,3.1635117836,7.0933462036,3.1306641329,7.8481826323,0,7.8481826323,0c0,0-.7260690328-14.4265038703,1.2596362574-13.7552782192Z"/><path class="cls-15" d="m87.0007756555,94.3011644276s-26.3912765355-.925707246-19.9320486824-7.443082078c0,0,14.1389416871-3.9167070885,19.9320486824-1.5921598396,0,0,3.3287263495,6.9941120704,0,9.0352419176Z"/><ellipse class="cls-3" cx="210.4264430315" cy="218.3979673575" rx="13.6592325136" ry="43.0122476498"/><path class="cls-12" d="m602.5805214118,90.770683794s-15.1111111111-22.2222222222-100.4444444444-17.7777777778c-85.3333333333,4.4444444444-66.6666666667-8.8888888889-114.6666666667,5.3333333333s-51.5555555556,21.3333333333-51.5555555556,21.3333333333l-17.7777777778,25.7777777778s8,12.4444444444-2.6666666667,16-44.4444444445,13.3333333333-48,13.3333333333-51.5555555556,5.3333333333-43.5555555556,7.1111111111,28.4444444445,17.7777777778,30.2222222222,24.8888888889c1.7777777778,7.1111111111,11.5555555555,40.8888888889,11.5555555555,47.1111111111s-16,17.7777777778,2.6666666667,18.6666666667,351.1111111111-8.8888888889,351.1111111111-8.8888888889c0,0,9.7777777778-9.7777777778,11.5555555556-18.6666666667,1.7777777778-8.8888888889,2.6666666667-46.2222222222-.8888888889-49.7777777778-3.5555555556-3.5555555556-10.6666666667-7.1111111111-10.6666666667-7.1111111111l-16.8888888889-77.3333333333Z"/><path class="cls-12" d="m200.802743634,165.4373504607l-134.2222222222,3.5555555556,7.1111111111,55.1111111111,4.4444444445,6.2222222222-12.4444444445,7.1111111111,120.8888888889,24.8888888889s-16-71.1111111111,14.2222222222-96.8888888889Z"/><polygon class="cls-4" points="181.1487940611 252.4650586633 174.4399063292 233.5996390627 66.0507300895 229.4249987339 56.3634822481 233.5996390627 181.1487940611 252.4650586633"/><path class="cls-16" d="m311.0249658563,106.770683794L45.2471880785,127.2151282384l7.1111111111,8.8888888889s223.1111111111-16.8888888889,234.6666666667-16.8888888889,24-12.4444444444,24-12.4444444444Z"/></g></g></g></svg>