<?xml version="1.0" encoding="UTF-8"?>
<svg id="Capa_2" data-name="Capa 2" xmlns="http://www.w3.org/2000/svg" xmlns:xlink="http://www.w3.org/1999/xlink" viewBox="0 0 756.44 899.51">
  <defs>
    <style>
      .cls-1 {
        stroke-width: 4.46px;
      }

      .cls-1, .cls-2, .cls-3 {
        stroke: #000;
        stroke-linecap: round;
        stroke-linejoin: round;
      }

      .cls-4 {
        fill: #f6f6f6;
      }

      .cls-2 {
        stroke-width: 4.06px;
      }

      .cls-5 {
        fill: #101328;
      }

      .cls-3 {
        stroke-width: 4.35px;
      }

      .cls-6 {
        fill: url(#Degradado_sin_nombre);
      }
    </style>
    <linearGradient id="Degradado_sin_nombre" data-name="Degradado sin nombre" x1="378.22" y1="947.11" x2="378.22" y2="19.55" gradientTransform="translate(0 910.26) scale(1 -1)" gradientUnits="userSpaceOnUse">
      <stop offset="0" stop-color="#ffffb0"/>
      <stop offset=".1" stop-color="#f9f9ac"/>
      <stop offset=".23" stop-color="#e8e9a3"/>
      <stop offset=".38" stop-color="#cdce93"/>
      <stop offset=".53" stop-color="#a7a87e"/>
      <stop offset=".7" stop-color="#777962"/>
      <stop offset=".88" stop-color="#3d3f41"/>
      <stop offset="1" stop-color="#101328"/>
    </linearGradient>
  </defs>
  <g id="Capa_1-2" data-name="Capa 1-2">
    <path class="cls-6" d="M222.72,60.13C214.69,86.21,0,790.49,0,790.49c0,0,455.47,128.41,756.44,0L549.78,70.16l-327.06-10.03Z"/>
    <ellipse class="cls-5" cx="403.07" cy="761.86" rx="205.15" ry="37.19"/>
    <path class="cls-1" d="M512.78,484.18c5.19,11.37,49.12,90.74,48.08,120.63-.86,24.66-114.99,14.81-115.8,12.59s-6.5-43.4,1.04-41.72c7.54,1.68,29.82-3.01,64.87,3.48-.28-8.05-37.93-50.48-35.01-56.51s-25.7-57.5-11.58-67.41c14.12-9.91,48.4,28.95,48.4,28.95h0Z"/>
    <path class="cls-4" d="M469.1,574.22l.59,47.98s-10.07,2.37-9.48-1.18,8.89-46.8,8.89-46.8h0Z"/>
    <path class="cls-1" d="M324.11,566.66c1.75,2.79,4.29,5,6.23,7.67,4.97,6.84,5.5,15.84,5.84,24.29,.37,9.11,.72,18.32-1.11,27.25-1.68,8.2-5.17,15.93-7.01,24.09-5.38,23.94,5.68,51.09,27.03,63.18,8.24,4.67,17.56,7.1,26.86,8.87,22.56,4.28,46.95,4.66,67.37-5.84,5.64-2.9,11.1-6.85,13.79-12.6,2.26-4.84,2.3-10.4,2.22-15.74-.39-28.07-2.63-56.12-1.65-84.18,1.28-36.56,8.06-72.92,20.06-107.48,4.05-11.67,8.29-25.88,.28-35.28-5.21-6.11-36.86-22.02-44.81-23.14-41.98-5.93-61.35,5.92-103.68,3.51-3.47-.2-7.21-.33-10.13,1.55-2.91,1.87-4.34,5.31-5.38,8.61-6.92,22.1-.38,39.12,6.66,59.62,6.32,18.4-13.14,38.78-2.58,55.61h0Z"/>
    <path class="cls-1" d="M363.66,677.29c-18.9-36.56-65.94-112.9-85.89-124.99-13.07-7.92-15.11-16.28-28.55-15.74-13.44,.53-28.25,6.29-29.96,15.06-1.71,8.76-3.66,20.18-2.08,31.93,1.58,11.75,2.9,35.97,10.43,50.94s39.9,58.56,42.15,74.42c2.09,14.72,41.11,49.53,61.62,60.19,8.81,4.58,68.06-.26,71.97-23.1,3.91-22.84-39.69-68.71-39.69-68.71h0Z"/>
    <path class="cls-1" d="M459.44,660.56c125.04-42.32,194.33,43.08,51.41,96.86-34.09,6.96-43.72,15.46-74.28,18.46s-51.74,.26-71.43-18.32c-65.75-92.83,33.18-93.4,94.3-96.99Z"/>
    <path class="cls-4" d="M228.95,543.52c-3.24,.78-6.49,1.56-9.66,2.59-1.48,.48-3.18,1.28-3.38,2.82-.15,1.13,.65,2.21,1.65,2.74s2.18,.62,3.31,.66c10.75,.36,22.2-4.33,32.41-7.72,4.24-1.41,15.09-7.87,6.42-8.79-3.74-.39-13.7,3.59-17.38,4.48l-13.37,3.22h0Z"/>
    <path class="cls-1" d="M367.8,435.91c-9.77,3.55-44.13-.2-57.46,6.02s-29.91,17.67-37.91,29.22c-8,11.55-21.32,20.54-21.32,20.54,0,0-41.47,28.63-45.02,32.18s-7.11-2.67-5.33,8-.89,19.55,19.55,16.88,37.32-9.77,46.2-15.11c8.89-5.33,35.54-24.88,38.21-26.66s8.89-4.44,14.22-2.67,10.66,8.89,13.33,8.89,19.55-51.54,23.1-58.64,12.44-18.66,12.44-18.66h0Z"/>
    <path class="cls-1" d="M250.84,506.13c2.55-12.24,32.95-53.4,20.98-55.27,4.7-10.23,8.7-17.94,10.09-19.15,3.79-3.3,6.14,1.32,10.19-5.52s14.42-15.02,2.89-15.83-6.09-14.68-21.58,2.94c-6.29,7.16-13.31,16.17-19.67,24.64-6.99-4.44-17.23,23.57-19.52,26.05-3.86,4.18-16.18,27.37-21.23,35.92s-12.64,15.14-11.56,25.02,11.29,16.83,29,5.6,20.42-24.4,20.42-24.4h0Z"/>
    <path class="cls-1" d="M282.95,404.17c3.67-1.52,18.41-8.5,23.92-10.79s7.57-4.55,14.31-.78c13.18,7.38,21.76,8.05,22.97,16.15s-1.75,8.74-1.75,8.74c0,0-10.91-7.41-14.33-9.44s-13.38,13.49-13.38,13.49c0,0-7.53,5.71-12.02,6.28s-15.13-.17-15.13-.17l-4.58-23.48Z"/>
    <path class="cls-4" d="M334.71,620.21c-1.78,2.67-11.78,18.14-15.77,29.84-6.61,19.35,2.49,.92,2.49,.92l13.28-30.76h0Z"/>
    <path d="M385.36,772.16c.89,.1,1.93,.15,2.53-.51,.94-1.04-.04-2.67-1.07-3.61-4.04-3.67-9.44-5.81-14.9-5.91-2.69-.05-16.03,2.03-11.25,7.12,1.45,1.55,9.6,1.21,11.73,1.45,4.32,.49,8.64,.97,12.96,1.46Z"/>
    <path class="cls-4" d="M467.91,675.32c0-8.29-.39-20.14-.39-20.14,0,0-5.53,41.66-3.75,39.29s4.15-10.86,4.15-19.15Z"/>
    <path class="cls-4" d="M262.51,475.47c-1.91,.5-25.97,19.4-25.97,19.4l25.71-15.66,.25-3.74Z"/>
    <path class="cls-4" d="M317.93,655.89c-5.02,14.36,4.37,29.89,16.84,36.87,12.99,7.25,28.25,8.15,42.97,8.92,15.11,.91,30.23,1.28,45.36,1.49,14.46-.06,31.48,1.42,42.29-10.04-9.07,13.47-27.66,13.86-42.21,14.67-15.25,.76-30.53,.57-45.77-.2-22.56-.97-50.67-5.15-60.09-29.03-2.88-7.2-3.28-15.85,.61-22.68h0Z"/>
    <path class="cls-4" d="M496.69,663.01c-10.6,.62-21.1,4.03-31.68,4.4,4.67-5.83,24.13-3.86,31.68-4.4Z"/>
    <polygon class="cls-4" points="291.39 590.81 324.78 636.65 321.98 638.56 291.39 590.81 291.39 590.81"/>
    <path class="cls-1" d="M441.44,449.38c.47,2.69,.75,5.92-1.32,7.69-1.28,1.09-3.08,1.26-4.75,1.35-13.88,.74-35.85-.85-49.21-4.69-4.69-1.35-9.47-3.07-12.95-6.5-6.51-6.42-6.56-17.41-2.27-25.48,4.3-8.07,12.01-13.73,19.89-18.38,8.82-5.21,29.17-13.73,31.9-1.84,4.95,21.55,16.59,35.81,18.71,47.85h0Z"/>
    <path class="cls-2" d="M320.33,321.28c-3.55,12.95-11.82,27.93,8.21,65.22,19.47,36.25,40.72,46.56,50.39,43.77,19.57-5.65,45.57-30.37,48.98-64.49s-25.03-77.59-54.85-77.61c-28.27-.01-49.18,20.15-52.74,33.1h0Z"/>
    <path class="cls-4" d="M387.49,379.51c-7.18-3.74-13.7-8.59-20.18-13.42-9.3-6.93-18.6-13.85-27.9-20.78-4.93-3.67-10.21-7.48-16.35-8.02-1.63-.14-3.37-.02-4.74,.86-1.05,.67-1.78,1.72-2.49,2.74-4.1,5.93,.31,15.44-3.79,21.37,1.56,3.54,3.19,3.74,6.02,6.52,.74,.72,1.31-16.41,2.82-15.27-.56,9.68,16.56,19.37,20.7,30.91,16.24,16.55,39.64,29.67,46.85,17.5,9.8,4.26,38.95,15.15,34.07,1.05,1.95-1.14,3.76-2.55,5.41-4.19-6.29-3.92-12.87-7.39-19.68-10.34-6.91-2.99-14.06-5.46-20.73-8.94Z"/>
    <path class="cls-3" d="M389.3,394.87c9.8,4.26,32.05,16.25,33.19,2.53,13.11-7.63,19.73-27.65,17.87-46.41-1.03-10.34-5.55-28.61-9.68-38.16-10.12-23.38-33.7-42.83-59.31-40.63-12.23,1.05-23.56,6.77-33.9,13.33-13.36,8.47-26.1,19.01-32.78,33.25-6.68,14.24-5.87,32.82,5.4,43.87,.74,.72,8.6-22.12,10.44-22.57,1.77-.43,3.67,12.49,6.37,20.14,12.57,4.92,16.02,17.68,17.31,18.99,16.24,16.55,42.02,29.42,45.09,15.66h0Z"/>
    <path d="M342.95,273.82c-5.01,.72-9.73,2.79-14.08,5.33-3.98,2.32-7.79,5.13-10.37,8.92s-3.8,8.7-2.33,13.03c2.1-6.93,7.01-12.94,13.3-16.63,6.29-3.69,13.89-5.06,21.13-4.03,3.06,.43,8.06-.33,5.34-4.46-2.02-3.07-9.98-2.58-12.99-2.15h0Z"/>
    <path d="M443.42,315.09c2.45-4.48,3.11-9.7,3.39-14.79,1.83,1.86,2.05,4.72,1.96,7.32-.17,4.9-1.18,10.01-4.33,13.8-1.4,1.68-9.99,7.49-9.65,2.41,.15-2.25,7.22-6.14,8.63-8.74h0Z"/>
    <path class="cls-4" d="M406.31,322.23c8.73,1.83,21.5-6.98,27.33-12.46,4.78-4.49,9.25-10.03,9.17-17.36-.08-7.37-5.08-15.34-11.75-20.13-14.74-10.58-39.44-5.9-46.44,7.09-7.71,14.32-3.15,37.64,21.69,42.86Z"/>
    <path class="cls-3" d="M413.08,319.25c8.73,1.83,21.5-6.98,27.33-12.46,4.78-4.49,9.25-10.03,9.17-17.36-.08-7.37-5.08-15.34-11.75-20.13-14.74-10.58-39.44-5.9-46.44,7.09-7.71,14.32-3.15,37.64,21.69,42.86Z"/>
    <path class="cls-4" d="M368.03,424.71c0-1.4-4.19-20.5-4.19-20.5,0,0,.93,26.56,2.33,26.56s1.86-6.06,1.86-6.06Z"/>
  </g>
  <g id="Capa_1-2-2" data-name="Capa 1-2">
    <path class="cls-5" d="M702.19,355.09c0-173.17-140.83-314.04-313.92-314.04-173.1,0-313.92,140.88-313.92,314.04V880.26h45.46v.27c0,2.2,1.78,3.98,3.98,3.98s3.98-1.78,3.98-3.98v-.27H646.11v.27c0,2.2,1.78,3.98,3.98,3.98s3.98-1.78,3.98-3.98v-.27h48.12V355.09ZM470.38,67.07c1.28,1.31,128.28,131.89,128.28,264.11V868.31h-47.79V360.4c0-151.53-79.9-268.84-104.87-301.8,7.87,1.53,15.62,3.39,23.26,5.52-.04,1.06,.32,2.13,1.12,2.95h0Zm-171.09-.68c7.39-2.28,14.93-4.22,22.55-5.94-26.39,35.28-103.48,151.09-103.48,299.95v507.91h-47.79V331.19c0-132.22,126.99-262.81,128.28-264.11,.2-.2,.3-.45,.44-.68h0Zm-72.97,294c0-159.43,89.99-280.45,107.42-302.38,5.7-1.04,11.45-1.93,17.26-2.65-20.44,26.69-66.94,112.57-66.94,344.19v468.75h-57.74V360.4h0Zm65.7,39.17c0-252.01,56.5-329.93,70.5-345.4,2.08-.18,4.17-.35,6.26-.48-3.87,34.62-20.95,195.19-20.95,334.59v480.03h-55.81V399.57Zm63.78-11.28c0-140.88,17.5-303.5,21.04-335,3.7-.14,7.39-.28,11.12-.28,4.59,23.95,24.52,135.92,24.52,273.86V868.31h-56.68V388.29h0ZM396.12,53.19c3.38,.09,6.74,.18,10.09,.38,13.08,13.88,71,89.66,71,345.99v468.75h-56.75V326.87c0-135.49-19.14-246.14-24.34-273.67h0Zm21.38,1.24c5.63,.54,11.23,1.21,16.77,2.06,13.75,16.97,108.64,140.05,108.64,303.91v507.91h-57.74V399.57c0-234.45-47.63-319.57-67.67-345.13ZM86.29,868.31V355.09c0-99.66,48.52-188.17,123.14-243.23-36.53,42.4-89.62,127-89.62,260.75v495.69h-33.52Zm41.48-495.69c0-167.58,84.65-256.2,111.8-280.3,14.1-8.02,28.87-14.98,44.26-20.67-29.89,33.61-121.21,145.62-121.21,259.55V868.31h-34.84V372.62h0Zm478.85,495.69V331.19c0-118.41-98.68-234.79-124.46-263.17,16.43,5.39,32.24,12.13,47.29,20.14,19.52,16.03,116.66,104.92,116.66,284.46v495.69h-39.49Zm83.63,0h-36.17V372.62c0-139.27-57.56-225.28-94.06-265.81,78.61,54.6,130.23,145.5,130.23,248.28V868.31Z"/>
    <path class="cls-5" d="M390.33,19.76c3.26-7.1,12.32-12.04,20.64-12.04,11.4,0,20.65,9.25,20.65,20.65,0,18.94-29.89,39.59-41.29,39.59s-41.29-20.65-41.29-39.59c0-11.41,9.24-20.65,20.65-20.65,8.33,0,17.38,4.94,20.65,12.04Z"/>
    <path class="cls-5" d="M277.19,92.34c-2.98,0-6.17-.82-9.63-2.67-14.8-7.92-16.63-20.46-13.69-28.8,3.18-9.03,11.7-14.69,19.86-13.13,3.24,.61,5.37,3.73,4.76,6.98-.61,3.24-3.76,5.4-6.98,4.76-2.32-.43-5.2,2.03-6.37,5.36-1.88,5.34,1.05,10.55,8.05,14.29,7.09,3.78,12.07-2.38,23.42-22.9,5.73-10.35,12.22-22.07,20.73-30.59,8.23-8.23,16.29-9.05,21.58-8.27,16.54,2.4,27.77,22.32,28.99,24.58,1.58,2.9,.5,6.53-2.4,8.1-2.89,1.57-6.52,.51-8.09-2.4h0c-2.57-4.7-11.19-17.16-20.23-18.46-3.84-.55-7.56,1.05-11.4,4.89-7.32,7.33-13.12,17.8-18.72,27.93-7.95,14.38-16.77,30.31-29.87,30.31h0Z"/>
    <path class="cls-5" d="M502.21,92.34c-13.1,0-21.92-15.94-29.87-30.31-5.61-10.13-11.4-20.6-18.72-27.93-3.84-3.85-7.58-5.45-11.42-4.89-9.05,1.32-17.85,14.08-20.21,18.45-1.57,2.9-5.2,3.97-8.1,2.4-2.9-1.57-3.98-5.2-2.4-8.1,1.22-2.26,12.45-22.18,28.99-24.58,5.3-.79,13.35,.04,21.58,8.27,8.51,8.52,15,20.24,20.73,30.59,11.35,20.51,16.34,26.68,23.42,22.9,7-3.75,9.94-8.96,8.06-14.29-1.17-3.34-4.08-5.8-6.37-5.36-3.22,.64-6.37-1.52-6.98-4.76-.61-3.25,1.52-6.37,4.76-6.98,8.15-1.55,16.67,4.11,19.85,13.13,2.93,8.34,1.11,20.88-13.69,28.8-3.45,1.85-6.65,2.67-9.63,2.67h0Z"/>
    <rect class="cls-5" x="74.35" y="528.82" width="627.85" height="13.94"/>
    <rect class="cls-5" x="62.4" y="851.71" width="651.74" height="47.8"/>
  </g>
</svg>