<?xml version="1.0" encoding="utf-8"?>
<!-- Generator: Adobe Illustrator 26.3.0, SVG Export Plug-In . SVG Version: 6.00 Build 0)  -->
<svg version="1.1" id="Capa_1" xmlns="http://www.w3.org/2000/svg" xmlns:xlink="http://www.w3.org/1999/xlink" x="0px" y="0px"
	 viewBox="0 0 1125 300" style="enable-background:new 0 0 1125 300;" xml:space="preserve">
<style type="text/css">
	.st0{clip-path:url(#SVGID_00000007412869449263667910000014620662842364663725_);}
	.st1{fill:#120033;}
	.st2{fill:#653780;}
	.st3{fill:#E53F71;}
	.st4{fill:#F89F5B;}
	.st5{fill:#3F1651;}
	.st6{fill:#F197B2;}
</style>
<g>
	<g id="Capa_1-2_00000063619191091849547710000005392724727948107668_">
		<g>
			<defs>
				<rect id="SVGID_1_" width="1125" height="300"/>
			</defs>
			<clipPath id="SVGID_00000052098582550323824880000013719392285872235952_">
				<use xlink:href="#SVGID_1_"  style="overflow:visible;"/>
			</clipPath>
			<g style="clip-path:url(#SVGID_00000052098582550323824880000013719392285872235952_);">
				<polygon class="st1" points="95.36,12.36 90.22,15.71 83.08,13.2 84.8,11.41 				"/>
				<rect x="-697.74" y="130.94" class="st1" width="11.76" height="4.97"/>
				<polygon class="st1" points="-684.85,132.31 -689.99,135.65 -697.14,133.14 -695.41,131.35 				"/>
				<polygon class="st1" points="-160.94,52.43 -166.08,55.77 -173.22,53.26 -171.5,51.47 				"/>
				<polygon class="st1" points="-125.8,128.59 -130.93,131.94 -138.08,129.43 -136.35,127.64 				"/>
				<polygon class="st2" points="-513.97,165.99 -524.72,161.17 -510.96,161.66 -500.22,166.48 				"/>
				<polygon class="st2" points="-69,138.7 -79.75,133.88 -65.99,134.37 -55.25,139.19 				"/>
				<polygon class="st3" points="-303.16,190.5 -299.66,183.27 -294.53,190.07 -298.03,197.31 				"/>
				<polygon class="st4" points="-65.88,25.62 -72.24,18.95 -59.94,22.26 -53.59,28.93 				"/>
				<polygon class="st3" points="-156.37,94.28 -149.12,91.44 -157,99.68 -164.25,102.51 				"/>
				<polygon class="st3" points="-43.53,69.88 -36.28,67.04 -44.16,75.28 -51.41,78.11 				"/>
				<polygon class="st3" points="-457.61,84.74 -450.36,81.9 -458.24,90.14 -465.48,92.97 				"/>
				<polygon class="st2" points="-460.58,264.59 -457.09,257.35 -451.96,264.15 -455.45,271.39 				"/>
				<polygon class="st5" points="-398.45,93.27 -384.98,91.14 -393.3,96.98 -406.77,99.12 				"/>
				<polygon class="st5" points="-658.96,182.94 -646.74,186.62 -660.42,187.48 -672.65,183.8 				"/>
				<polygon class="st5" points="-103.92,64.09 -108.77,76.82 -125.95,71.32 -121.1,58.59 				"/>
				<polygon class="st5" points="-598.74,44.75 -613.96,44.76 -613.08,29.83 -597.87,29.83 				"/>
				<polygon class="st5" points="-76.52,245.3 -91.73,245.31 -90.85,230.39 -75.64,230.38 				"/>
				<polygon class="st6" points="-586.93,88.13 -589.93,100.46 -606.67,96.8 -603.67,84.47 				"/>
				<polygon class="st6" points="-590.23,135.5 -593.22,147.83 -609.96,144.18 -606.97,131.84 				"/>
				<polygon class="st6" points="-478.19,115.07 -481.19,127.4 -497.93,123.74 -494.93,111.41 				"/>
				<polygon class="st6" points="-360.67,150.05 -363.67,162.38 -380.41,158.73 -377.41,146.4 				"/>
				<polygon class="st3" points="-549.59,192.16 -552.58,204.49 -569.32,200.83 -566.33,188.5 				"/>
				<polygon class="st4" points="-319.31,246.12 -334.1,247.49 -335.13,232.9 -320.34,231.52 				"/>
				<polygon class="st3" points="-461.72,47.26 -464.72,59.59 -481.45,55.94 -478.46,43.6 				"/>
				<polygon class="st3" points="298.3,169.5 295.3,181.83 278.56,178.18 281.56,165.84 				"/>
				<polygon class="st6" points="-232.54,87.29 -247.34,88.66 -248.36,74.07 -233.57,72.69 				"/>
				<polygon class="st2" points="-16.09,104.45 -31.22,108.35 -35.69,93.29 -20.56,89.38 				"/>
				<polygon class="st5" points="-240.78,167.24 -249.16,174.8 -260.52,175.91 -257.52,163.58 				"/>
				<polygon class="st5" points="114.69,141.1 106.31,148.66 94.95,149.77 97.94,137.44 				"/>
				<polygon class="st2" points="-704.68,158.74 -713.06,166.31 -724.42,167.42 -721.42,155.09 				"/>
				<polygon class="st5" points="228.84,206.76 223.99,219.5 206.81,214 211.66,201.26 				"/>
				<polygon class="st6" points="-141.26,205.27 -146.11,218 -163.29,212.51 -158.45,199.77 				"/>
				<polygon class="st2" points="-390.19,179.76 -403.88,184.72 -409.88,171.01 -396.2,166.05 				"/>
				<polygon class="st2" points="-270.47,53.44 -284.16,58.4 -290.16,44.69 -276.48,39.73 				"/>
				<polygon class="st2" points="-627.44,122.17 -641.12,127.13 -647.13,113.42 -633.45,108.46 				"/>
				<polygon class="st2" points="-125.49,21.86 -139.17,26.82 -145.18,13.11 -131.5,8.15 				"/>
				<polygon class="st6" points="335.02,58.5 332.02,70.83 315.28,67.18 318.28,54.85 				"/>
				<polygon class="st4" points="-705.95,208.62 -696.41,218.62 -714.87,213.65 -724.4,203.65 				"/>
				<polygon class="st1" points="-21.42,15.77 -13.71,10.75 -2.99,14.52 -5.58,17.2 				"/>
				<polygon class="st1" points="45.58,159.74 53.29,154.72 64.01,158.49 61.42,161.18 				"/>
				<polygon class="st6" points="239,83.3 233.75,94.16 226.06,83.95 231.3,73.09 				"/>
				<polygon class="st6" points="215.93,178.97 210.68,189.83 202.99,179.62 208.24,168.76 				"/>
				<polygon class="st3" points="146.4,27.76 141.15,38.62 133.46,28.41 138.71,17.54 				"/>
				<polygon class="st4" points="-240.65,238.37 -231.11,248.37 -249.57,243.4 -259.1,233.4 				"/>
				<polygon class="st6" points="-514.01,11.55 -519.16,22.19 -526.71,12.18 -521.56,1.53 				"/>
				<polygon class="st2" points="-490.73,37.31 -496.33,44.54 -504.74,37.72 -499.14,30.49 				"/>
				<polygon class="st5" points="322.08,148.28 308.62,150.41 316.94,144.57 330.41,142.43 				"/>
				<polygon class="st1" points="-342.92,180.49 -337.78,177.15 -330.64,179.66 -332.36,181.45 				"/>
				<polygon class="st2" points="-448.56,42.31 -442.59,22.66 -450.45,6.08 -456.42,25.72 				"/>
				<polygon class="st2" points="-445.19,23.98 -448.69,31.21 -453.82,24.41 -450.32,17.17 				"/>
				<polygon class="st5" points="63.01,110.22 44.09,113.22 55.79,105 74.7,102.01 				"/>
				<rect x="-442.94" y="59.67" class="st6" width="11.76" height="4.97"/>
				<polygon class="st6" points="-443.27,63.23 -438.24,59.94 -431.23,62.41 -432.92,64.16 				"/>
				<polygon class="st6" points="-521.11,113.38 -531.96,117.9 -528.31,110.98 -517.48,106.45 				"/>
				<polygon class="st3" points="-624.6,255.6 -612.57,259.45 -626.3,260.12 -638.33,256.26 				"/>
				<polygon class="st5" points="-623.78,76.73 -638.91,77.36 -633.18,69.16 -618.06,68.53 				"/>
				<polygon class="st5" points="-408.51,125.03 -423.64,125.66 -417.91,117.46 -402.78,116.83 				"/>
				<polygon class="st4" points="-708.94,96.85 -704.61,104.44 -720.07,102.58 -724.4,94.98 				"/>
				<polygon class="st4" points="-689.99,56.7 -685.66,64.29 -701.12,62.43 -705.45,54.84 				"/>
				<polygon class="st4" points="255.89,136.93 250.54,144.04 244.27,131.94 249.63,124.83 				"/>
				<polygon class="st4" points="30.52,46.48 34.86,54.08 19.39,52.21 15.07,44.62 				"/>
				<polygon class="st4" points="-21.1,181.17 -16.76,188.76 -32.23,186.9 -36.55,179.3 				"/>
				<rect x="-725.17" y="16.57" class="st6" width="11.76" height="4.97"/>
				<polygon class="st6" points="-522.39,46.11 -525.82,53.21 -530.85,46.53 -527.42,39.44 				"/>
				<polygon class="st2" points="-244.89,16.27 -234.14,21.09 -247.9,20.6 -258.64,15.78 				"/>
				<polygon class="st2" points="101.63,188.92 112.38,193.73 98.62,193.24 87.88,188.43 				"/>
				<polygon class="st3" points="-407.63,30.78 -411.13,38.01 -416.26,31.21 -412.76,23.97 				"/>
				<polygon class="st3" points="-315.46,41.84 -318.95,49.08 -324.09,42.27 -320.59,35.03 				"/>
				<polygon class="st3" points="105.21,96.64 101.71,103.88 96.58,97.07 100.08,89.83 				"/>
				<polygon class="st5" points="-357.22,6.55 -370.69,8.68 -362.36,2.84 -348.89,0.71 				"/>
				<polygon class="st4" points="-643.5,9.53 -637.14,16.2 -649.44,12.89 -655.79,6.22 				"/>
				<polygon class="st6" points="-561.47,151.1 -564.9,158.2 -569.93,151.52 -566.5,144.43 				"/>
				<polygon class="st6" points="-220.86,153.63 -224.29,160.73 -229.32,154.06 -225.89,146.96 				"/>
				<polygon class="st2" points="-303.5,105.88 -307,113.11 -312.13,106.31 -308.63,99.07 				"/>
				<polygon class="st3" points="17.61,289.09 14.11,296.33 8.99,289.52 12.48,282.28 				"/>
				<polygon class="st3" points="-571.1,22.51 -574.6,29.75 -579.73,22.94 -576.23,15.71 				"/>
				<polygon class="st5" points="96.42,52.06 82.96,54.19 91.28,48.35 104.75,46.22 				"/>
				<polygon class="st5" points="-333.15,77.92 -345.37,74.24 -331.69,73.38 -319.46,77.06 				"/>
				<polygon class="st1" points="886.91,12.36 881.78,15.71 874.63,13.2 876.36,11.41 				"/>
				<polygon class="st1" points="630.61,52.43 625.47,55.77 618.33,53.26 620.05,51.47 				"/>
				<polygon class="st1" points="665.76,128.59 660.62,131.94 653.48,129.43 655.2,127.64 				"/>
				<polygon class="st2" points="722.55,138.7 711.81,133.88 725.56,134.37 736.31,139.19 				"/>
				<polygon class="st3" points="488.4,190.5 491.89,183.27 497.02,190.07 493.53,197.31 				"/>
				<polygon class="st4" points="725.67,25.62 719.31,18.95 731.61,22.26 737.96,28.93 				"/>
				<polygon class="st3" points="635.19,94.28 642.43,91.44 634.55,99.68 627.31,102.51 				"/>
				<polygon class="st3" points="748.03,69.88 755.27,67.04 747.39,75.28 740.15,78.11 				"/>
				<polygon class="st5" points="393.11,93.27 406.57,91.14 398.25,96.98 384.78,99.12 				"/>
				<polygon class="st5" points="687.64,64.09 682.78,76.82 665.6,71.32 670.45,58.59 				"/>
				<polygon class="st6" points="430.88,150.05 427.88,162.38 411.15,158.73 414.14,146.4 				"/>
				<polygon class="st6" points="559.02,87.29 544.22,88.66 543.19,74.07 557.99,72.69 				"/>
				<polygon class="st2" points="775.46,104.45 760.33,108.35 755.86,93.29 770.99,89.38 				"/>
				<polygon class="st5" points="550.77,167.24 542.4,174.8 531.04,175.91 534.03,163.58 				"/>
				<polygon class="st5" points="906.24,141.1 897.86,148.66 886.5,149.77 889.5,137.44 				"/>
				<polygon class="st2" points="401.36,179.76 387.68,184.72 381.67,171.01 395.35,166.05 				"/>
				<polygon class="st2" points="521.08,53.44 507.4,58.4 501.39,44.69 515.07,39.73 				"/>
				<polygon class="st2" points="666.06,21.86 652.38,26.82 646.37,13.11 660.05,8.15 				"/>
				<polygon class="st1" points="770.13,15.77 777.85,10.75 788.56,14.52 785.98,17.2 				"/>
				<polygon class="st1" points="837.13,159.74 844.85,154.72 855.56,158.49 852.98,161.18 				"/>
				<polygon class="st3" points="937.96,27.76 932.71,38.62 925.01,28.41 930.26,17.54 				"/>
				<polygon class="st1" points="448.63,180.49 453.77,177.15 460.92,179.66 459.19,181.45 				"/>
				<polygon class="st5" points="854.57,110.22 835.65,113.22 847.34,105 866.26,102.01 				"/>
				<polygon class="st5" points="383.05,125.03 367.92,125.66 373.65,117.46 388.77,116.83 				"/>
				<polygon class="st4" points="822.08,46.48 826.41,54.08 810.95,52.21 806.62,44.62 				"/>
				<polygon class="st4" points="770.46,181.17 774.79,188.76 759.33,186.9 755,179.3 				"/>
				<polygon class="st2" points="546.66,16.27 557.41,21.09 543.66,20.6 532.92,15.78 				"/>
				<polygon class="st2" points="893.18,188.92 903.93,193.73 890.17,193.24 879.43,188.43 				"/>
				<polygon class="st3" points="383.92,30.78 380.42,38.01 375.29,31.21 378.79,23.97 				"/>
				<polygon class="st3" points="476.1,41.84 472.6,49.08 467.47,42.27 470.97,35.03 				"/>
				<polygon class="st3" points="896.76,96.64 893.27,103.88 888.14,97.07 891.64,89.83 				"/>
				<polygon class="st5" points="434.33,6.55 420.86,8.68 429.19,2.84 442.66,0.71 				"/>
				<polygon class="st6" points="570.69,153.63 567.26,160.73 562.23,154.06 565.66,146.96 				"/>
				<polygon class="st2" points="488.05,105.88 484.55,113.11 479.42,106.31 482.92,99.07 				"/>
				<polygon class="st5" points="887.98,52.06 874.51,54.19 882.84,48.35 896.3,46.22 				"/>
				<polygon class="st5" points="458.41,77.92 446.18,74.24 459.87,73.38 472.09,77.06 				"/>
				<polygon class="st1" points="1695.87,24.93 1690.73,28.28 1683.59,25.77 1685.32,23.98 				"/>
				<rect x="903.53" y="144.2" class="st1" width="11.76" height="4.97"/>
				<polygon class="st1" points="915.66,144.88 910.52,148.23 903.38,145.71 905.1,143.92 				"/>
				<polygon class="st1" points="1439.57,65 1434.43,68.35 1427.29,65.83 1429.01,64.04 				"/>
				<polygon class="st1" points="1474.72,141.16 1469.58,144.51 1462.44,142 1464.16,140.21 				"/>
				<polygon class="st2" points="1086.54,178.56 1075.8,173.74 1089.55,174.23 1100.29,179.05 				"/>
				<polygon class="st2" points="1531.51,151.27 1520.77,146.45 1534.52,146.94 1545.27,151.76 				"/>
				<polygon class="st3" points="1297.35,203.07 1300.85,195.84 1305.98,202.64 1302.49,209.88 				"/>
				<polygon class="st4" points="1534.63,38.19 1528.27,31.52 1540.57,34.83 1546.92,41.5 				"/>
				<polygon class="st3" points="1444.14,106.85 1451.39,104.01 1443.51,112.25 1436.26,115.08 				"/>
				<polygon class="st3" points="1556.99,82.45 1564.23,79.61 1556.35,87.85 1549.11,90.68 				"/>
				<polygon class="st3" points="1142.91,97.31 1150.15,94.47 1142.27,102.71 1135.03,105.54 				"/>
				<polygon class="st2" points="1139.93,277.16 1143.42,269.92 1148.56,276.72 1145.06,283.96 				"/>
				<polygon class="st5" points="1202.07,105.85 1215.53,103.71 1207.21,109.56 1193.74,111.69 				"/>
				<polygon class="st5" points="941.55,195.51 953.78,199.19 940.09,200.05 927.86,196.37 				"/>
				<polygon class="st5" points="1496.6,76.66 1491.74,89.39 1474.56,83.89 1479.41,71.16 				"/>
				<polygon class="st5" points="1001.77,58.01 986.56,58.02 987.43,43.09 1002.65,43.09 				"/>
				<polygon class="st5" points="1524,258.56 1508.78,258.57 1509.66,243.65 1524.87,243.64 				"/>
				<polygon class="st6" points="1013.58,100.7 1010.58,113.03 993.85,109.38 996.84,97.05 				"/>
				<polygon class="st6" points="1010.29,148.07 1007.29,160.4 990.55,156.75 993.55,144.42 				"/>
				<polygon class="st6" points="1122.32,127.64 1119.32,139.97 1102.58,136.31 1105.58,123.98 				"/>
				<polygon class="st6" points="1239.84,162.62 1236.84,174.95 1220.11,171.3 1223.1,158.97 				"/>
				<polygon class="st3" points="1050.93,204.73 1047.93,217.06 1031.19,213.41 1034.19,201.08 				"/>
				<polygon class="st4" points="1281.21,258.69 1266.41,260.07 1265.38,245.47 1280.18,244.1 				"/>
				<polygon class="st3" points="1138.79,59.83 1135.8,72.16 1119.06,68.51 1122.05,56.18 				"/>
				<polygon class="st3" points="1898.81,182.07 1895.82,194.4 1879.08,190.75 1882.07,178.42 				"/>
				<polygon class="st6" points="1367.97,99.86 1353.18,101.23 1352.15,86.64 1366.95,85.26 				"/>
				<polygon class="st2" points="1584.42,117.02 1569.29,120.93 1564.82,105.86 1579.95,101.95 				"/>
				<polygon class="st5" points="1359.73,179.81 1351.36,187.37 1340,188.48 1342.99,176.15 				"/>
				<polygon class="st5" points="1715.2,153.67 1706.82,161.23 1695.46,162.34 1698.46,150.01 				"/>
				<polygon class="st2" points="895.83,171.32 887.45,178.88 876.1,179.99 879.09,167.66 				"/>
				<polygon class="st5" points="1829.36,219.34 1824.5,232.07 1807.32,226.57 1812.17,213.84 				"/>
				<polygon class="st6" points="1459.25,217.84 1454.4,230.58 1437.22,225.08 1442.07,212.34 				"/>
				<polygon class="st2" points="1210.32,192.33 1196.64,197.29 1190.63,183.58 1204.31,178.62 				"/>
				<polygon class="st2" points="1330.04,66.01 1316.36,70.97 1310.35,57.26 1324.03,52.3 				"/>
				<polygon class="st2" points="973.08,134.74 959.39,139.7 953.39,126 967.07,121.03 				"/>
				<polygon class="st2" points="1475.02,34.43 1461.34,39.39 1455.33,25.68 1469.01,20.72 				"/>
				<polygon class="st6" points="1935.53,71.07 1932.53,83.41 1915.8,79.75 1918.79,67.42 				"/>
				<polygon class="st4" points="894.57,221.19 904.1,231.19 885.64,226.22 876.11,216.22 				"/>
				<polygon class="st1" points="1579.09,28.34 1586.81,23.32 1597.52,27.09 1594.94,29.78 				"/>
				<polygon class="st1" points="1646.09,172.31 1653.81,167.29 1664.52,171.06 1661.93,173.75 				"/>
				<polygon class="st6" points="1839.51,95.87 1834.26,106.73 1826.57,96.52 1831.82,85.66 				"/>
				<polygon class="st6" points="1816.45,191.54 1811.2,202.41 1803.51,192.19 1808.75,181.33 				"/>
				<polygon class="st3" points="1746.92,40.33 1741.67,51.19 1733.97,40.98 1739.22,30.12 				"/>
				<polygon class="st4" points="1359.86,250.94 1369.4,260.94 1350.94,255.97 1341.42,245.97 				"/>
				<polygon class="st6" points="1086.5,24.12 1081.35,34.77 1073.81,24.75 1078.95,14.1 				"/>
				<polygon class="st2" points="1109.79,49.88 1104.19,57.11 1095.77,50.29 1101.37,43.06 				"/>
				<polygon class="st5" points="1922.59,160.85 1909.13,162.98 1917.46,157.14 1930.92,155.01 				"/>
				<polygon class="st1" points="1257.59,193.07 1262.73,189.72 1269.88,192.23 1268.15,194.02 				"/>
				<polygon class="st2" points="1151.95,54.88 1157.92,35.23 1150.07,18.65 1144.09,38.3 				"/>
				<polygon class="st2" points="1155.32,36.55 1151.82,43.79 1146.69,36.98 1150.19,29.74 				"/>
				<polygon class="st5" points="1663.53,122.79 1644.61,125.79 1656.3,117.57 1675.22,114.58 				"/>
				<rect x="1158.32" y="72.93" class="st6" width="11.76" height="4.97"/>
				<polygon class="st6" points="1157.24,75.8 1162.28,72.51 1169.28,74.98 1167.59,76.74 				"/>
				<polygon class="st6" points="1079.4,125.95 1068.56,130.48 1072.2,123.55 1083.04,119.03 				"/>
				<polygon class="st3" points="975.91,268.17 987.94,272.03 974.21,272.69 962.18,268.84 				"/>
				<polygon class="st5" points="976.73,89.3 961.6,89.93 967.33,81.73 982.46,81.1 				"/>
				<polygon class="st5" points="1192,137.6 1176.88,138.23 1182.61,130.03 1197.73,129.4 				"/>
				<polygon class="st4" points="891.57,109.42 895.9,117.01 880.44,115.15 876.11,107.55 				"/>
				<polygon class="st4" points="910.52,69.27 914.85,76.87 899.39,75 895.06,67.41 				"/>
				<polygon class="st4" points="1856.4,149.5 1851.05,156.61 1844.79,144.51 1850.15,137.4 				"/>
				<polygon class="st4" points="1631.04,59.06 1635.37,66.65 1619.91,64.79 1615.58,57.19 				"/>
				<polygon class="st4" points="1579.41,193.74 1583.75,201.33 1568.28,199.47 1563.96,191.87 				"/>
				<rect x="876.09" y="28.18" class="st6" width="11.76" height="4.97"/>
				<polygon class="st6" points="1078.13,58.68 1074.69,65.78 1069.66,59.11 1073.09,52.01 				"/>
				<polygon class="st2" points="1355.62,28.84 1366.37,33.66 1352.62,33.17 1341.87,28.35 				"/>
				<polygon class="st2" points="1702.14,201.49 1712.89,206.31 1699.13,205.81 1688.39,201 				"/>
				<polygon class="st3" points="1192.88,43.35 1189.38,50.59 1184.25,43.78 1187.75,36.54 				"/>
				<polygon class="st3" points="1285.06,54.41 1281.56,61.65 1276.43,54.84 1279.93,47.61 				"/>
				<polygon class="st3" points="1705.72,109.21 1702.23,116.45 1697.09,109.64 1700.59,102.41 				"/>
				<polygon class="st5" points="1243.29,19.12 1229.82,21.25 1238.15,15.41 1251.62,13.28 				"/>
				<polygon class="st4" points="957.01,22.1 963.37,28.77 951.07,25.46 944.72,18.79 				"/>
				<polygon class="st6" points="1039.04,163.67 1035.61,170.77 1030.58,164.09 1034.01,157 				"/>
				<polygon class="st6" points="1379.65,166.21 1376.22,173.31 1371.19,166.63 1374.62,159.53 				"/>
				<polygon class="st2" points="1297.01,118.45 1293.51,125.68 1288.38,118.88 1291.88,111.64 				"/>
				<polygon class="st3" points="1618.13,301.66 1614.63,308.9 1609.5,302.09 1613,294.86 				"/>
				<polygon class="st3" points="1029.41,35.08 1025.91,42.32 1020.79,35.52 1024.28,28.28 				"/>
				<polygon class="st5" points="1696.94,64.63 1683.47,66.76 1691.8,60.92 1705.26,58.79 				"/>
				<polygon class="st5" points="1267.37,90.49 1255.14,86.81 1268.83,85.95 1281.05,89.63 				"/>
			</g>
		</g>
	</g>
</g>
</svg>
