<svg id="Capa_1" data-name="Capa 1" xmlns="http://www.w3.org/2000/svg" viewBox="0 0 54.37 73"><defs><style>.cls-1,.cls-4{fill:#15c;}.cls-2{fill:none;}.cls-2,.cls-4{stroke:#5d5e64;stroke-miterlimit:10;}.cls-3{fill:#fff;}.cls-5{fill:#5d5e64;}</style></defs><rect class="cls-1" x="0.5" y="0.5" width="29" height="72"/><rect class="cls-2" x="0.5" y="0.5" width="29" height="72"/><path class="cls-3" d="M10.25,33a1.5,1.5,0,0,0,0-3,1.5,1.5,0,0,0,0,3Z"/><path class="cls-3" d="M8.94,31.13Q7,41.59,4.83,52c-.4,1.88,2.49,2.68,2.89.79q2.2-10.4,4.12-20.85c.34-1.88-2.55-2.69-2.9-.79Z"/><path class="cls-1" d="M10.44,27.43A45.83,45.83,0,0,0,4.89,46.12c-.11,1.42,2.21,2.13,2.79.76L12,36.79,9.21,35.63,5.71,48.4l2.89.8q1.77-10,3.79-20l-2.51.66c1,.85.64,2.7.66,3.85l.07,5a1.51,1.51,0,0,0,2.56,1.06,20.53,20.53,0,0,0,4.6-8l-2.9-.8L12,45.06c-.38,1.88,2.5,2.69,2.9.8A102.67,102.67,0,0,0,17,28.48H14A58.67,58.67,0,0,1,12.24,47L15,46.64c-1.54-3.19-1.77-6.78-2-10.26a1.5,1.5,0,0,0-3,0,61.46,61.46,0,0,1-2.5,16.16l2.74-.36A10.87,10.87,0,0,1,9,45.71c.16-1.67-2.72-2.08-3-.4a133.88,133.88,0,0,1-3.8,18l2.94.39A68.84,68.84,0,0,1,6.33,53.33L8,43.11c.3-1.88-2.57-2.71-2.89-.8L3.42,52.09l3,.4-.12-1c-.22-1.9-3.22-1.92-3,0l.12,1C3.54,54,6,54.71,6.31,52.88L8,43.11l-2.89-.8L3.36,53A71.78,71.78,0,0,0,2.15,63.74a1.51,1.51,0,0,0,2.95.4,133.74,133.74,0,0,0,3.8-18L6,45.71a13.67,13.67,0,0,0,1.68,8,1.52,1.52,0,0,0,2.75-.36,65.44,65.44,0,0,0,2.6-17H10c.26,4,.62,8.07,2.4,11.78a1.51,1.51,0,0,0,2.74-.36A61.66,61.66,0,0,0,17,28.48a1.5,1.5,0,0,0-3,0,96.31,96.31,0,0,1-2,16.58l2.9.8,2.88-14.07a1.51,1.51,0,0,0-2.9-.8,17.13,17.13,0,0,1-3.82,6.67l2.56,1.06c0-2.13,0-4.27-.09-6.4,0-1.66-.19-3.39-1.52-4.55a1.51,1.51,0,0,0-2.5.66q-2,10-3.79,20c-.33,1.87,2.37,2.69,2.89.8l3.5-12.77c.43-1.58-2.07-2.76-2.74-1.16L5.09,45.36l2.8.76A42.41,42.41,0,0,1,13,28.94c.94-1.69-1.65-3.21-2.59-1.51Z"/><polyline class="cls-4" points="29.5 0.5 53.76 36.5 29.5 72.5"/><path class="cls-5" d="M27.33,10.18a124.62,124.62,0,0,1-.11,14.07,1.5,1.5,0,0,0,3,0,124.62,124.62,0,0,0,.11-14.07c-.1-1.93-3.1-1.94-3,0Z"/><path class="cls-1" d="M27.55,6.26C26.8,14.71,26.09,23.2,27,31.67c.16,1.52,2.67,2.21,2.95.39a90.84,90.84,0,0,0,1-19h-3a14.61,14.61,0,0,1-.73,5.57h2.9a40.9,40.9,0,0,1-2.21-9.69l-2.94.4c2.14,5.59,1.18,11.59,1.05,17.42-.14,6.26.89,12.45,1.92,18.6l2.75-1.16c-2.35-3.44-.05-7.67.88-11.2.41-1.53.65-3.51-.83-4.59a2,2,0,0,0-2-.27,2.33,2.33,0,0,0-1.28,2.32c-.08,1.74.84,3.26,1.52,4.79.93,2.08.41,4.07.06,6.23a129.52,129.52,0,0,0-1.45,13.18c-.15,2.5-.22,5-.21,7.51,0,1.3,0,2.59.07,3.88,0,.57,0,1.13.07,1.7,0,.32,0,.65.05,1,0,1-.14,0,.59-.14l1.15.15.33.47-.38,1.45.12-.13c1.3-1.42-.82-3.54-2.12-2.12a1.85,1.85,0,0,0,1.69,3.08c2.06-.4,1.6-3,1.54-4.46a121.63,121.63,0,0,1,.14-13.09,124.76,124.76,0,0,1,1.55-13.08A11.1,11.1,0,0,0,32,34.8c-.57-1.46-1.94-3.19-1.44-4.82L29.52,31c-.57-.46-.8-.52-.69-.19a.54.54,0,0,1,0,.22,6.23,6.23,0,0,0-.19.92c-.19.75-.43,1.5-.67,2.24a31.83,31.83,0,0,0-1.16,4.17A9.76,9.76,0,0,0,28,45.71a1.51,1.51,0,0,0,2.74-1.15c-1-6.2-2-12.4-1.79-18.7.2-5.8.94-11.77-1.19-17.32-.55-1.44-3.13-1.42-2.95.4a44.32,44.32,0,0,0,2.31,10.49,1.52,1.52,0,0,0,2.9,0,17,17,0,0,0,.83-6.37c-.12-1.91-3.11-1.93-3,0A86.7,86.7,0,0,1,27,31.27l2.94.4c-.87-8.47-.16-17,.59-25.41.17-1.92-2.84-1.91-3,0Z"/><path class="cls-1" d="M27.4,4.11c2.22,3.51.77,8,.35,11.8a1.51,1.51,0,0,0,1.5,1.5,1.53,1.53,0,0,0,1.5-1.5c.49-4.45,1.83-9.22-.76-13.31C29,1,26.37,2.48,27.4,4.11Z"/><path class="cls-1" d="M28.27,4.21a1.5,1.5,0,0,0,0-3,1.5,1.5,0,0,0,0,3Z"/></svg>