<?xml version="1.0" encoding="UTF-8"?>
<svg id="Capa_2" data-name="Capa 2" xmlns="http://www.w3.org/2000/svg" xmlns:xlink="http://www.w3.org/1999/xlink" viewBox="0 0 429.7 218.67">
  <defs>
    <style>
      .cls-1 {
        fill: #fee5d6;
      }

      .cls-2 {
        fill: #fff;
      }

      .cls-3 {
        opacity: .26;
      }

      .cls-4 {
        font-family: Poppins-Regular, Poppins;
        font-size: 18px;
      }

      .cls-5 {
        fill: #ec6091;
      }

      .cls-6 {
        stroke: #9c3587;
        stroke-miterlimit: 10;
        stroke-width: .11px;
      }

      .cls-6, .cls-7 {
        fill: #0cabe0;
      }

      .cls-8 {
        font-family: Poppins-Bold, Poppins;
        font-size: 18.31px;
      }

      .cls-9 {
        fill: #f5d500;
      }

      .cls-10 {
        fill: #120033;
      }

      .cls-11 {
        fill: #9ae2e1;
      }

      .cls-12 {
        clip-path: url(#clippath);
      }

      .cls-13 {
        fill: none;
      }
    </style>
    <clipPath id="clippath">
      <circle class="cls-13" cx="87.61" cy="62.58" r="31.15"/>
    </clipPath>
  </defs>
  <path class="cls-1" d="M27.16,0H392.36c15,0,27.16,17.39,27.16,38.85v96.52c0,21.46-12.16,38.85-27.16,38.85H27.16c-15,0-27.16-17.39-27.16-38.85V38.85C0,17.39,12.16,0,27.16,0Z"/>
  <path class="cls-1" d="M51.56,149.33c1.78,8.89,1.78,69.33,1.78,69.33l92.44-62.22-94.22-7.11h0Z"/>
  <g class="cls-12">
    <g>
      <circle class="cls-10" cx="87.69" cy="63.39" r="33.13"/>
      <g id="car">
        <circle class="cls-9" cx="94.7" cy="52.96" r="21.64"/>
        <g id="tires">
          <path class="cls-10" d="M62.24,79.59l-1.11,.16c-.31,.04-.33,.48-.03,.56,8.81,2.27,21.37,2.46,35.48,1.8l31.78-5.2c.28-.05,.27-.46-.01-.49l-2.59-.29s.99-1.55,.99-2.96l.7-4.95-4.1-3.67-23.83,2.54-25.35,2.56-4.76,3.73-7.16,6.22h0Z"/>
          <ellipse class="cls-2" cx="101.08" cy="74.26" rx="2.48" ry="5" transform="translate(-8.5 13.23) rotate(-7.19)"/>
          <path class="cls-5" d="M101.48,73.08s.55,1.03,.78,1.06c.23,.04,.45-1.17,.45-1.17,0,0,.24,1.11,.47,1.08,.23-.03,.16-1.21,.16-1.21,0,0,.83,4.43-1.3,5.44h-.96l-.34-.19,.25-.23c.86-1.75,1.01-3.06,.49-4.78Z"/>
          <path class="cls-5" d="M99.6,75.98s.22-.04,.28-.09l.6,1.1v.48h-.24c-.33-.49-.57-.96-.73-1.43,0,0,.09-.07,.09-.07Z"/>
          <path class="cls-5" d="M99.61,74.14s.54,1.17,.15,1.36c-.54,.26-.75-.73-.73-.98,.01-.25,.58-.38,.58-.38Z"/>
          <path class="cls-10" d="M103,73.87c-.3-2.41-1.45-4.25-2.56-4.11-.51,.06-.92,.53-1.19,1.24,0,0,0,0,0,0-.23,.6-.35,1.37-.35,2.23,0,.04,0,.07,0,.11,0,.01,0,.03,0,.04,0,.04,0,.08,0,.12,0,.05,0,.09,0,.14,0,.05,0,.09,0,.14,0,.05,0,.1,0,.14,0,.05,0,.09,.01,.14,0,.05,0,.1,.01,.14,0,0,0,0,0,0,0,.05,.01,.1,.02,.15,.01,.09,.02,.17,.04,.25,0,0,0,0,0,0,.19,1.27,.6,2.34,1.07,2.95,0,0,0,0,0,0,.44,.62,.95,.97,1.46,.91,1.11-.14,1.77-2.21,1.46-4.62Zm-3.9,.49c-.17-1.31-.04-2.52,.29-3.3,.11-.13,.23-.22,.37-.23,.67-.08,1.41,1.37,1.64,3.24,.24,1.87-.12,3.46-.79,3.55-.14,.02-.28-.03-.42-.13-.51-.68-.93-1.81-1.1-3.12Zm2.22,3.78c-.11,.01-.22,0-.33-.03,.84-.11,1.3-1.95,1.02-4.12-.27-2.17-1.18-3.84-2.01-3.74h0c.1-.06,.21-.1,.32-.11,.95-.12,1.94,1.57,2.22,3.78,.28,2.21-.26,4.1-1.21,4.22Z"/>
          <path class="cls-10" d="M100.59,72.3l-.75,1.21,.5,.75,.81,.18c-.01-.83-.17-1.56-.55-2.15Z"/>
          <path class="cls-10" d="M101.23,75.57l-.97-.48-.35,.76,.66,1.17-.08,.46c.39-.49,.65-1.12,.74-1.91Z"/>
          <path class="cls-10" d="M99.58,70.89c.22,.17,.41,.38,.6,.61l-.7,1.14-.39-.42c.06-.42,.15-.81,.3-1.17,.06-.07,.12-.13,.19-.17Z"/>
          <path class="cls-2" d="M100.59,72.64c.15,.52,.25,1.02,.23,1.48h-.43l.6,.19c.02-.7-.12-1.25-.4-1.67Z"/>
          <path class="cls-2" d="M100.42,75.25l-.17,.26,.6,.42c.05,.26-.06,.66-.19,1.07,.24-.46,.41-.92,.45-1.39l-.69-.36Z"/>
          <path class="cls-2" d="M99.55,71s.2,.36,.21,.53l-.28,.94h0l.55-.95c-.12-.23-.28-.41-.48-.53Z"/>
          <path class="cls-10" d="M99.63,74.26c-.08-.51-.33-.89-.55-.85-.03,0-.07,.02-.1,.05,.02,.41,.07,1.18,.15,1.67,.08,.09,.17,.14,.25,.12,.22-.04,.33-.48,.24-.98Z"/>
          <path class="cls-5" d="M100.34,74.63l.81,.21,.09,.59-.97-.46s.09-.29,.08-.34Z"/>
          <path class="cls-2" d="M99.46,74.28c.03,.19-.01,.36-.1,.37-.02,0-.13,.03-.15,.02-.07-.04-.13-.16-.15-.32-.02-.15,0-.28,.05-.34,.01-.02,.13-.06,.14-.06,.08-.01,.18,.13,.21,.33Z"/>
          <path class="cls-10" d="M99.37,74.66s-.16-.18-.18-.38c0,0-.03,.27,.1,.44h.1s-.03-.06-.03-.06Z"/>
          <path class="cls-10" d="M99.96,68.93s-3.39,1.78-1.34,7.69c0,0-.96-1.18-1.31-.91-.34,.27-.43,2.07-.43,2.07,0,0-2.5-8.06,3.08-8.85Z"/>
          <ellipse class="cls-2" cx="124.77" cy="71.67" rx="1.45" ry="4.02" transform="translate(-9.68 20.41) rotate(-9)"/>
          <path class="cls-5" d="M124.92,70.69s.39,.79,.52,.81c.14,.02,.18-.96,.18-.96,0,0,.21,.88,.35,.84,.13-.04,.02-.98,.02-.98,0,0,.77,3.52-.4,4.45l-.55,.05-.21-.13,.13-.2c.39-1.46,.39-2.52-.03-3.88h0Z"/>
          <path class="cls-5" d="M124.02,73.14s.12-.05,.16-.09l.42,.85,.03,.39h-.14c-.22-.36-.4-.73-.52-1.09l.05-.07h0Z"/>
          <path class="cls-5" d="M123.91,71.66s.39,.91,.18,1.08c-.29,.24-.48-.55-.49-.75s.31-.34,.31-.34Z"/>
          <path class="cls-10" d="M125.85,71.24c-.33-1.92-1.12-3.34-1.76-3.17-.29,.08-.5,.48-.61,1.07,0,0,0,0,0,0-.09,.5-.11,1.12-.06,1.82,0,.03,0,.06,0,.09,0,.01,0,.02,0,.04,0,.03,0,.07,0,.1,0,.04,0,.07,.01,.11s0,.08,.01,.11c0,.04,0,.08,.02,.11,0,.04,.01,.08,.02,.11,0,.04,.01,.08,.02,.11,0,0,0,0,0,0,0,.04,.01,.08,.02,.12,.01,.07,.02,.14,.04,.2,0,0,0,0,0,0,.19,1.01,.5,1.85,.81,2.31,0,0,0,0,0,0,.29,.48,.61,.73,.9,.65,.64-.18,.88-1.88,.55-3.8h0Zm-2.23,.62c-.18-1.05-.19-2.02-.05-2.67,.05-.11,.12-.19,.2-.21,.38-.11,.9,1.02,1.16,2.51,.26,1.49,.16,2.79-.22,2.9-.08,.02-.16,0-.25-.08-.34-.51-.66-1.4-.84-2.45h0Zm1.53,2.92c-.06,.02-.13,.02-.2,0,.48-.13,.62-1.64,.32-3.37-.3-1.73-.93-3.02-1.41-2.89h0c.05-.05,.11-.09,.18-.11,.54-.15,1.23,1.16,1.53,2.92,.31,1.76,.11,3.31-.43,3.46Z"/>
          <path class="cls-10" d="M124.35,70.12l-.36,1.02,.34,.58,.48,.1c-.06-.67-.2-1.25-.46-1.7h0Z"/>
          <path class="cls-10" d="M124.94,72.72l-.6-.33-.15,.64,.46,.91v.37c.18-.42,.29-.93,.29-1.58h0Z"/>
          <path class="cls-10" d="M123.68,69.04c.14,.13,.27,.28,.39,.46l-.33,.96-.26-.31c0-.34,.03-.66,.1-.96,.03-.06,.06-.11,.1-.15Z"/>
          <path class="cls-2" d="M124.38,70.4c.12,.41,.21,.8,.23,1.17l-.25,.02,.36,.12c-.03-.57-.15-1-.34-1.32Z"/>
          <path class="cls-2" d="M124.45,72.5l-.08,.22,.38,.3c.05,.21,0,.53-.04,.87,.11-.39,.18-.77,.17-1.14l-.42-.25h0Z"/>
          <path class="cls-2" d="M123.66,69.14s.14,.28,.16,.41l-.1,.78h0l.26-.79c-.08-.18-.19-.31-.31-.4h0Z"/>
          <path class="cls-10" d="M123.93,71.75c-.08-.4-.25-.7-.37-.66-.02,0-.04,.02-.05,.04,.04,.33,.12,.95,.19,1.33,.05,.07,.11,.1,.15,.09,.12-.04,.16-.4,.08-.81h0Z"/>
          <path class="cls-5" d="M124.36,72.01l.48,.12,.09,.47-.6-.32s.03-.24,.02-.28Z"/>
          <path class="cls-2" d="M123.83,71.78c.03,.15,.02,.29-.03,.31-.01,0-.07,.03-.08,.02-.04-.03-.08-.12-.11-.25-.02-.12-.02-.23,0-.28,0-.02,.07-.05,.08-.06,.05-.02,.11,.1,.14,.25Z"/>
          <path class="cls-10" d="M123.8,72.09s-.11-.14-.13-.3c0,0,0,.22,.09,.35h.06s-.02-.05-.02-.05Z"/>
          <path class="cls-10" d="M123.77,67.44s-1.85,1.62-.27,6.26c0,0-.64-.89-.82-.66-.18,.24-.11,1.69-.11,1.69,0,0-1.98-6.34,1.21-7.3Z"/>
        </g>
        <g id="base">
          <path class="cls-6" d="M60.81,78.89v-.25c0-.05,.01-.1,.04-.15l.96-1.57c.06-.1,.07-.22,.01-.33-.55-1.06-.44-2.87-.42-4.91,0-.08,.03-.16,.08-.22l.16-.19s.07-.07,.11-.09l1.35-.84h.19c.39-1.39,.97-2.57,1.79-3.48v-.03c-.06-.15,0-.3,.13-.38,1.76-1.09,5.25-2.33,11.51-3.79,2.35-2.41,5.29-4.77,8.55-6.97,1.4-.95,3-1.56,4.68-1.81,8.18-1.22,16.12-1.19,23.89-.1,.13,.02,.25,.06,.37,.11,3.79,1.84,7.1,3.91,9.47,6.44l1.64,.17c1.27,.79,1.88,2.09,2.1,3.68l-.16,.11,.43,2.71h.1s.61,.56,.61,.56c.09,.08,.14,.19,.15,.31,.11,1.7-.02,3.21-.37,4.53-.04,.14-.13,.25-.26,.31l-1.01,.45c-.14,.06-.3-.03-.32-.19-.2-2.5-.79-4.35-1.76-5.59-.13-.17-.33-.27-.55-.28-1.03-.01-1.74,1.49-2.38,3.34l-.78,3.27-.53,.65c-.1,.12-.14,.28-.1,.43l.26,1.15c.02,.09,0,.18-.08,.24l-.07,.06s-.11,.07-.17,.07h-2.6l-14.38,1.86c-.11,.01-.2-.09-.17-.2,.76-2.49,.6-4.93-.36-7.32-.84-1.46-1.76-1.97-2.71-2.13-.28-.05-.57-.02-.84,.08-2.22,.83-3.22,2.98-3.51,5.87l-.56,3.16,.5,.43,.09,2.29c.01,.27-.2,.51-.47,.53-5.37,.35-10.78,.46-16.22,.34-8.11-.26-14.81-.69-18.21-2.07-.11-.04-.18-.15-.18-.26h0Z"/>
        </g>
        <g id="highlights">
          <path class="cls-11" d="M67.08,68.58l13.73,.12,.48,.47,1.93,.05-1.59,2.1-1.97,.49c-.08,.02-.16,.03-.24,.03l-5.91,.2-5.97-.64c-.37-.04-.66-.34-.68-.72l-.08-1.59s.3-.52,.3-.52Z"/>
          <path class="cls-11" d="M62.02,76.87l-.71,1.53c-.07,.16,0,.35,.18,.4,1.17,.38,2.53,.73,3.99,1.07h-.6l-.11,.28c-1.43-.36-2.77-.75-3.97-1.2v-.46s1.15-1.75,1.15-1.75h.09l-.03,.13h0Z"/>
          <path class="cls-11" d="M65.96,77.94c-.05,.48-.03,.92,.08,1.33,.14,.52,.57,.91,1.11,1,3.56,.58,7.25,.76,11.06,.6,.54-.02,1.02-.36,1.22-.86,.15-.38,.27-.85,.37-1.35-.13,.27-.27,.54-.4,.78-.26,.45-.75,.72-1.27,.69l-10.56-.55c-.42-.02-.82-.24-1.06-.59-.21-.3-.38-.65-.54-1.03h0Z"/>
          <path class="cls-6" d="M67.38,79.78l-.2,.19c3.32,.44,7.21,.62,11.4,.67l-.11-.27c-4.06,0-7.84-.15-11.09-.59Z"/>
          <path class="cls-11" d="M65.84,77.94l-.84,.68v.41l-2.62-1.01s1.59,.2,1.58,.13-1.72-.99-1.72-.99c1.27,.45,2.49,.75,3.6,.79Z"/>
          <path class="cls-11" d="M94.29,78.23l-.03-.08-2.02,.47,.06,.6c.69-.27,1.36-.6,1.99-.98Z"/>
          <path class="cls-11" d="M92.34,79.54l.04,.34c.64-.28,1.18-.61,1.62-1-.53,.26-1.08,.48-1.66,.66Z"/>
          <path class="cls-11" d="M88.55,80.1c1.19-.11,2.3-.36,3.34-.73l-.19-.69-11.62,.04,.45,.97,3.04,.09,.37,.68-3.63,.18-.23,.28-1.31,.19c5.49,.23,10.3,.08,13.29-1.1l-.1-.36c-1.06,.29-2.2,.44-3.42,.45Z"/>
          <polygon class="cls-6" points="85.61 78.98 86.1 80.79 86.59 80.79 86.1 78.98 85.61 78.98"/>
          <polygon class="cls-6" points="86.37 78.98 86.86 80.79 87.03 80.79 86.54 78.98 86.37 78.98"/>
          <path class="cls-11" d="M63.29,72.11v.68l2.64,.28-3.07,.15s2.92,.52,1.48,.4c-1.44-.11-1.87-.13-1.87-.13l-.09,.67-.82-.06s.38,1.83,.88,2.41c.49,.59,1.02,.83,1.02,.83l-1.6-.45c-.43-2.03-.67-3.93-.33-5.43,.52,.37,1.1,.59,1.76,.64Z"/>
          <path class="cls-11" d="M64.6,74.24s.51,1.64,1.32,2.72c.37,.49,.94,.79,1.55,.82l12.34,.62c.36,.02,.57-.39,.35-.67l-.07-.1-12.58-2.7s-2.91-.69-2.91-.69Z"/>
          <path class="cls-11" d="M81.81,75.47v2.22c0,.26,.21,.47,.47,.48l3.22,.12c.07,0,.14,0,.21,0l2.36-.27c.34-.04,.6-.32,.61-.66l.07-2.01-5.95,.37s-.99-.24-.99-.24Z"/>
          <path class="cls-11" d="M66.31,72.64s.45,.03,1.24,.08c.39,.03,.87,.05,1.42,.09,.55,.03,1.17,.07,1.84,.11,.67,.03,1.4,.08,2.18,.11,.77,.04,1.59,.07,2.43,.11,.42,.02,.85,.03,1.28,.05,.43,.02,.87,.03,1.32,.05,.44,.02,.89,.03,1.34,.04,.45,.01,.9,.02,1.35,.04,.45,.01,.9,.03,1.35,.04,.45,.01,.89,.02,1.34,.03,.44,0,.88,.02,1.32,.02,.43,0,.86,.01,1.29,.02,.84,0,1.66,.02,2.43,.03,.77,0,1.51,.01,2.18,.02,.08,0,.17,0,.25,0h.06s.03,0,.03,0h.03s.08,0,.12,0c.16,0,.32-.02,.47-.02,.31-.02,.6-.03,.87-.05,.55-.04,1.02-.09,1.41-.14,.39-.05,.7-.09,.91-.12,.21-.03,.32-.05,.32-.05,0,0-.11,.02-.32,.06-.21,.04-.51,.09-.9,.15-.39,.05-.87,.11-1.41,.17-.27,.03-.56,.05-.87,.07-.15,.01-.31,.02-.47,.03-.04,0-.08,0-.12,0h-.03s-.03,0-.03,0h-.06c-.08,0-.17,0-.25,0-.68,0-1.41,.01-2.18,.01-.77,0-1.59,0-2.43,0-.42,0-.85,0-1.29-.01-.43,0-.87-.01-1.32-.02-.44,0-.89-.02-1.34-.02-.45,0-.9-.02-1.35-.03-.45-.01-.9-.03-1.35-.04-.45-.02-.9-.03-1.34-.05-.44-.02-.88-.03-1.32-.05-.43-.02-.86-.04-1.28-.06-.84-.04-1.66-.08-2.43-.13-.77-.04-1.5-.1-2.18-.14-.67-.05-1.29-.09-1.84-.14-.55-.05-1.02-.08-1.42-.12-.78-.07-1.23-.11-1.23-.11h0Z"/>
          <polygon class="cls-11" points="90.94 74.11 91.12 77.94 91.35 74.24 92.95 73.76 90.94 74.11"/>
          <path class="cls-11" d="M63.09,70.34l.43,.44-.57,.51-1.43,.18,1.73,.21,.47,.48c8,.71,17.4,.93,27.47,.9l5.13-.98-.47-.13c-1.48,.34-3.06,.57-4.74,.69-9.22,.09-17.97-.19-26.13-.94,0,0,.61-.18,.79-.34,.18-.16,.07-.01,.07-.01l.78-.72,.07-3.36-1.56-.76-.64,1.28-1.09,2.16-.11,.38s-.19,0-.19,0Z"/>
          <polygon class="cls-6" points="67.32 69.29 67.49 70.69 73.42 71.58 78.93 71.21 79.37 70.69 68.21 69.58 67.25 69.26 67.32 69.29"/>
          <path class="cls-11" d="M81.29,71.21l.18,.21c.21,.24,.52,.38,.84,.38h7.25l3.47-.41c.6-.07,1.06-.57,1.08-1.18l.03-1.16,2.86-1.7-3.34,.9-.4-.46c-.34-.39-.83-.61-1.34-.59l-4.85,.13c-.46,.01-.91,.1-1.34,.25l-.38,.13c-.33,.12-.65,.27-.95,.47l-1.67,1.09-1.46,1.3s0,.65,0,.65Z"/>
          <path class="cls-11" d="M99.1,62.97c-6.26,1.51-11.93,3.19-16.23,5.28l3.53-1.06,4.44-.32,12.25-3.75-3.99-.15Z"/>
          <path class="cls-11" d="M66.89,68.3s.03-.04,.08-.1c.05-.06,.13-.16,.23-.27,.1-.11,.23-.25,.38-.41,.15-.16,.32-.32,.52-.5,.2-.18,.41-.37,.65-.56,.12-.1,.24-.19,.37-.29,.06-.05,.13-.1,.19-.14,.07-.05,.13-.1,.2-.14,.14-.1,.27-.19,.42-.29,.07-.05,.14-.1,.22-.14,.07-.05,.15-.09,.22-.14,.07-.05,.15-.09,.23-.14,.08-.04,.15-.09,.23-.13,.15-.09,.31-.17,.47-.26,.32-.16,.63-.32,.95-.46,.08-.04,.16-.07,.24-.1,.08-.04,.16-.06,.24-.1,.08-.03,.16-.06,.24-.09,.08-.03,.16-.06,.24-.09,.16-.06,.31-.11,.46-.16,.08-.02,.15-.05,.23-.07,.04-.01,.07-.02,.11-.03,.04-.01,.07-.02,.11-.03,.15-.04,.29-.08,.43-.12,.14-.03,.27-.06,.4-.09,.06-.02,.13-.03,.19-.04,.06-.01,.12-.02,.18-.03,.12-.02,.23-.04,.34-.06,.11-.01,.21-.03,.3-.04,.09-.01,.18-.03,.25-.03,.15-.02,.27-.02,.36-.03,.08,0,.13-.01,.13-.01v.02s-.17,.03-.47,.08c-.08,.01-.16,.03-.25,.05-.09,.02-.19,.04-.29,.06-.11,.02-.22,.05-.33,.08-.06,.01-.12,.03-.18,.04-.06,.01-.12,.03-.19,.05-.13,.03-.26,.07-.4,.11-.14,.04-.28,.08-.42,.13-.04,.01-.07,.02-.11,.03-.04,.01-.07,.02-.11,.04-.07,.03-.15,.05-.22,.08-.15,.05-.3,.11-.45,.17-.08,.03-.15,.06-.23,.09-.08,.03-.15,.06-.23,.1-.16,.06-.31,.13-.47,.21-.31,.14-.63,.3-.94,.46-.16,.08-.31,.17-.46,.25-.08,.04-.15,.09-.23,.13-.08,.04-.15,.09-.22,.13-.15,.09-.29,.18-.44,.27-.14,.09-.28,.18-.42,.27-.14,.09-.27,.19-.4,.28-.13,.09-.25,.18-.37,.28-.24,.18-.46,.36-.67,.53-.2,.17-.39,.33-.54,.47-.16,.14-.29,.27-.4,.38-.22,.21-.34,.35-.34,.35h-.02s0-.01,0-.01Z"/>
          <path class="cls-11" d="M65.4,66.76c2.98-1.62,6.7-2.84,10.77-3.88-3.51,.55-7.18,1.84-10.95,3.56l-.17,.07,.27,.24h.09Z"/>
          <path class="cls-11" d="M103.46,70.78c-.35-1.68-.96-3.07-2-3.96-.96-.81-2.33-.92-3.38-.25-.16,.1-.3,.21-.45,.32,0,0,2.18-.02,2.25,.45,.07,.47-1.64,1.05-2.42,2.61,0,0,1.39-1.83,2.87-1.4,1.48,.43,2.72,1.33,3.14,2.23Z"/>
          <path class="cls-11" d="M121.5,70.08l-.04,.21s.02-.08,.04-.21Z"/>
          <path class="cls-11" d="M105.74,70.62l.07-1.32-.17,.02-1.89,.63c-.44,.84-.12,1.95-.12,1.95-.05-.4,.12-1.05,.12-1.05l1.99-.23h0Z"/>
          <polygon class="cls-11" points="106.09 70.59 117.63 69.44 117.68 67.6 117.56 67.59 106.18 69.24 106.09 70.59"/>
          <path class="cls-11" d="M121.9,67.88l-3.76-.25-.08,1.77,3.25-.3c.28,.09,.23,.67,.18,.98l.41-2.19Z"/>
          <polygon class="cls-11" points="104.24 71.21 104.4 71.57 105.66 71.49 105.73 71.03 104.24 71.21"/>
          <polygon class="cls-11" points="105.82 71.09 105.82 71.57 117.65 70.37 117.63 69.83 105.82 71.09"/>
          <polygon class="cls-11" points="117.72 69.83 121.04 69.48 121.07 69.86 117.66 70.25 117.72 69.83"/>
          <path class="cls-11" d="M121.9,67.17c.34-.74,.82-1.34,1.52-1.7,.52-.27,1.15-.2,1.59,.19,.26,.23,.51,.52,.74,.86,0,0-.56-.24-.73-.04-.17,.2,.36,1.45,.36,1.45,0,0-.66-1.01-1.23-.92-.57,.09-1.55,1.68-1.55,1.68,0,0,.6-1.48,.38-1.7s-1.08,.17-1.08,.17h0Z"/>
          <path class="cls-11" d="M104.08,75.13s.06-.01,.18-.03c.12-.02,.29-.05,.52-.08,.22-.03,.49-.07,.81-.12,.31-.05,.66-.1,1.04-.15,.38-.05,.8-.11,1.24-.17,.44-.06,.9-.12,1.38-.18,.48-.06,.97-.13,1.48-.19,.5-.06,1.02-.13,1.53-.19,.51-.06,1.02-.12,1.53-.18,.5-.06,1-.11,1.48-.17,.48-.05,.95-.1,1.39-.15,.11-.01,.22-.02,.33-.03,.05,0,.11-.01,.16-.02h.04s.02,0,.02,0h0s.01,0,.01,0h0s.05,0,.08,0c.21,0,.41-.01,.6-.02,.39-.01,.74-.02,1.06-.03,.31,0,.59-.01,.81-.02,.23,0,.4,0,.52,0,.12,0,.19,0,.19,0,0,0-.06,0-.18,.02-.12,.01-.3,.03-.52,.05-.22,.02-.5,.04-.81,.07-.31,.03-.67,.05-1.05,.08-.19,.01-.39,.03-.6,.04-.03,0-.05,0-.08,0h0s0,0,0,0h0s-.02,0-.02,0h-.04c-.05,.01-.11,.02-.16,.03-.11,.01-.21,.03-.32,.04-.44,.06-.9,.12-1.38,.18-.48,.06-.97,.13-1.48,.19-.5,.06-1.02,.13-1.53,.19-.51,.06-1.02,.12-1.53,.18-.5,.06-1,.11-1.48,.17-.48,.05-.95,.1-1.39,.15-.44,.05-.86,.09-1.24,.13-.38,.04-.74,.07-1.05,.1-.31,.03-.59,.05-.81,.07-.22,.02-.4,.03-.52,.04-.12,0-.18,.01-.18,.01h0Z"/>
          <polygon class="cls-11" points="103.55 77.01 103.75 77.15 103.75 77.48 103.88 77.25 120.09 75.01 120.57 75.18 120.48 74.63 103.55 76.92 103.55 77.01"/>
          <path class="cls-11" d="M127.68,66.92s.37,.5-.12,.75-2.02,.38-2.02,.38l.1,.48,2.43-.42,.24-.17,.17-.27-.18-.24-.63-.51Z"/>
          <path class="cls-11" d="M125.32,60.5l-1.64-.17c-2.26-2.57-5.63-4.68-9.65-6.51-2.69-.26-5.42-.15-8.16,.29,0,0,1.23-.12,1.57-.04,.34,.07,.13,.25,.13,.25l3.73,5.01,1.42,2.97-5.6,1.09c-.17,.79-1.16,1.79-1.76,1.68-.38-.07-.8-.51-1.09-.88-1.81,.79-4.97,1.83-4.97,1.83l27.31-3.4c0-.72-.59-1.42-1.29-2.11h0Z"/>
          <polygon class="cls-11" points="99.8 66.14 105.34 65.52 100.71 66.68 99.8 66.14"/>
          <path class="cls-11" d="M107.36,65.28l10.6-1.37,8.66-1.06s.55,1.31,.55,2.54-.07,0-.07,0c0,0-.69-1.85-1.13-1.64-.45,.22,.06,2.48,.06,2.48,0,0-.67-2.1-1.91-2.38l-16.74,1.43h0Z"/>
          <path class="cls-11" d="M107.87,54.05l-.77,.3c-.21,.08-.37,.25-.44,.46l-2.95,8.87,1.64-3.62,2.42-5.74,.09-.27h0Z"/>
          <path class="cls-11" d="M104.57,63.58s1.14-2.08,2.16-2.25c1.02-.17,3.52-.45,3.52-.45,0,0-.5-.99-2.84-.7-.54,.07-.9,.07-.9,.07,0,0,.55-.43,1.62-.47s2.92,.06,2.99,1.14c.07,1.08-.06,1.06-.06,1.06l-.26-.1-.34,.06v-.5l.14,.09s-.14-.29-.4-.24l-3.26,.82-.17,.17-.93,.11-.98,1.36-.36,.06,.08-.24h0Z"/>
          <path class="cls-11" d="M79.49,60.07c3.12-2.23,6.09-4.3,8.02-5.3,.07-.03,.14-.06,.21-.08l1.45-.34,1.86-.63s-2.16,.28-3.45,.82c-2.41,.99-5.19,3.07-8.1,5.53Z"/>
          <path class="cls-11" d="M96.76,53.14s-2.27,.08-1.94,.38c.32,.3,2.5,.53,2.5,.53l-7.68,.22,2.28-.57s3.77-.7,4.85-.56Z"/>
          <path class="cls-11" d="M99.3,52.96s1.98,.13,1.83,.42c-.15,.29-1.7,.55-1.7,.55l6,.12s-.13,.13-.17,.6c0,0,.35-.87,.98-.94,.62-.08,4.72-.2,4.72-.2-3.52-.48-7.42-.64-11.65-.55Z"/>
          <path class="cls-6" d="M113.75,54.18s.94,.14,2.18,.93c3.54,2.35,5.66,4.44,6.36,5.18,.16,.17,.23,.41,.18,.64h0c-.06,.3-.3,.51-.59,.56l-15.01,2.2,.23-.37,14.69-2.05,.24-.49-7.67-6.12-.61-.47h0Z"/>
          <path class="cls-11" d="M128.32,68.39l-.33,.08c.17,.95,.09,2.15-.08,3.43-.04,.26-.19,.49-.41,.63l-.59,.36,.7-.32c.26-.12,.45-.36,.5-.64,.21-1.12,.25-2.32,.22-3.54Z"/>
        </g>
        <g id="outlines">
          <path class="cls-10" d="M83.37,81.45c-1.39,0-2.79-.02-4.18-.05-8.56-.27-14.95-.73-18.27-2.09-.17-.07-.28-.24-.28-.42v-.25c0-.08,.02-.17,.07-.24l.96-1.57s.03-.11,0-.16c-.5-.97-.48-2.49-.45-4.26,0-.24,0-.49,.01-.74,0-.12,.04-.24,.12-.33l.16-.19c.04-.05,.09-.1,.15-.13l1.39-.87h.11c.41-1.4,.97-2.5,1.73-3.36-.03-.2,.05-.4,.23-.51,1.92-1.19,5.69-2.44,11.52-3.8,2.28-2.33,5.15-4.67,8.54-6.95,1.41-.95,3.05-1.58,4.75-1.84,4.02-.6,8.1-.91,12.12-.92,3.91,0,7.88,.27,11.81,.82,.15,.02,.29,.06,.42,.13,4.24,2.06,7.34,4.16,9.48,6.43l1.61,.17,.03,.02c1.21,.76,1.93,2,2.18,3.8v.1s-.14,.11-.14,.11l.39,2.48h.03s.65,.59,.65,.59c.12,.11,.2,.26,.21,.43,.11,1.68-.02,3.22-.38,4.59-.05,.19-.18,.34-.36,.42l-1.01,.45c-.12,.05-.25,.04-.36-.02-.11-.07-.18-.18-.19-.31-.19-2.44-.78-4.29-1.73-5.5-.1-.13-.26-.21-.41-.21,0,0,0,0-.01,0-.96,0-1.65,1.63-2.2,3.22l-.78,3.3-.56,.68c-.06,.08-.09,.18-.07,.28l.26,1.15c.03,.15-.02,.31-.13,.41l-.07,.06c-.08,.07-.18,.11-.29,.11h-2.59l-14.37,1.86c-.11,.01-.22-.03-.29-.11-.07-.09-.1-.2-.06-.31,.72-2.39,.61-4.81-.35-7.2-.71-1.23-1.51-1.86-2.59-2.04-.25-.04-.51-.02-.75,.07-1.97,.74-3.08,2.61-3.4,5.73h0s-.54,3.07-.54,3.07l.48,.42,.1,2.37c.02,.36-.27,.68-.63,.7-3.98,.26-8.02,.39-12.06,.39h0Zm-20.23-10.94l-1.32,.82s-.04,.03-.05,.05l-.16,.19s-.04,.07-.04,.11c0,.25,0,.5-.01,.74-.03,1.72-.05,3.2,.41,4.09,.08,.15,.07,.34-.02,.49l-.96,1.57s-.02,.04-.02,.06v.25s.03,.09,.07,.1c3.28,1.33,9.63,1.79,18.15,2.06,5.41,.12,10.86,0,16.21-.34,.18-.01,.32-.17,.31-.35l-.09-2.22-.52-.45,.58-3.25c.34-3.26,1.52-5.22,3.63-6.01,.29-.11,.61-.14,.92-.09,1.18,.2,2.08,.9,2.84,2.22v.02c1,2.46,1.12,4.95,.38,7.41l14.36-1.86h2.61s.04,0,.06-.02l.07-.06s.03-.05,.02-.08l-.26-1.15c-.05-.2,0-.41,.14-.58l.51-.62,.77-3.24h0c.62-1.81,1.36-3.47,2.53-3.47,0,0,.01,0,.02,0,.26,0,.51,.13,.68,.34,1,1.26,1.6,3.17,1.8,5.68,0,.02,.02,.04,.03,.04,0,0,.03,.01,.05,0l1.01-.45c.08-.04,.14-.11,.16-.19,.35-1.33,.47-2.83,.36-4.48,0-.07-.04-.14-.09-.19l-.57-.51-.17-.02-.47-2.94,.16-.12c-.24-1.62-.89-2.74-1.97-3.43l-1.66-.17-.04-.05c-2.11-2.26-5.19-4.35-9.42-6.4-.1-.05-.21-.08-.32-.1-7.93-1.11-15.95-1.08-23.84,.1-1.65,.25-3.24,.86-4.61,1.78-3.39,2.28-6.26,4.62-8.53,6.94l-.04,.04h-.05c-5.82,1.37-9.57,2.61-11.46,3.78-.06,.04-.09,.11-.07,.19l.04,.12-.07,.07c-.78,.86-1.35,1.97-1.76,3.41l-.04,.13h-.28Z"/>
          <path class="cls-10" d="M67.08,68.58l-.3,.5,.18,1.65c.01,.11,.09,.21,.2,.24,1.26,.4,3.01,.55,5.17,.71-1.93-.26-3.5-.47-4.82-.83-.11-.03-.19-.12-.21-.24l-.2-1.52,.16-.29,13.35,.39,.3,.53,1.71-.03,.39-.32-1.93-.04-.39-.39s-13.61-.37-13.61-.37Z"/>
          <path class="cls-10" d="M80.87,69.44l-1.41,1.62c-.13,.15-.32,.26-.52,.28-1.06,.15-2.73,.24-4.43,.34,1.73-.02,3.38-.06,4.54-.17,.22-.02,.42-.13,.57-.29l1.42-1.65-.16-.13Z"/>
          <polygon class="cls-10" points="66.48 68.94 66.9 69.02 66.86 69.26 66.48 69.17 66.48 68.94"/>
          <path class="cls-10" d="M65.92,68.74s.05-.19,.14-.52c.04-.17,.1-.37,.16-.6,.02-.06,.03-.12,.05-.18,0-.03,.02-.07,.03-.1,.01-.03,.03-.07,.04-.1,.06-.13,.14-.26,.24-.38,.05-.06,.11-.12,.17-.17,.02-.01,.03-.03,.05-.04l.02-.02,.03-.02s.06-.05,.1-.07c.13-.09,.26-.19,.4-.28,.14-.09,.29-.19,.45-.28,.15-.09,.31-.18,.47-.27,.33-.18,.67-.36,1.02-.52,.09-.04,.18-.08,.27-.12,.09-.04,.18-.08,.27-.12,.09-.04,.18-.08,.27-.12l.28-.11,.28-.11c.09-.04,.18-.07,.28-.1,.18-.07,.37-.14,.55-.2,.18-.06,.37-.13,.55-.19,.18-.06,.36-.12,.54-.17,.35-.11,.7-.21,1.02-.3,.16-.05,.32-.09,.48-.13,.15-.04,.3-.08,.45-.12,.29-.07,.55-.14,.78-.19,.23-.05,.44-.1,.61-.14,.34-.07,.53-.11,.53-.11,0,0-.19,.06-.52,.16-.17,.05-.37,.11-.6,.18-.23,.07-.49,.14-.77,.23-.28,.09-.59,.17-.91,.27-.32,.1-.66,.21-1.01,.32-.17,.06-.35,.12-.53,.18-.18,.06-.36,.13-.54,.19-.18,.06-.36,.13-.55,.2-.09,.04-.18,.07-.27,.1l-.27,.11-.27,.11c-.09,.04-.18,.08-.27,.12-.09,.04-.18,.08-.27,.12-.09,.04-.18,.08-.26,.12-.35,.16-.69,.34-1.01,.51-.16,.09-.32,.18-.47,.27-.15,.09-.29,.19-.44,.27-.14,.09-.27,.19-.4,.28-.03,.02-.06,.05-.1,.07-.03,.02-.06,.04-.09,.07-.05,.05-.11,.1-.15,.15-.09,.1-.16,.22-.21,.33-.01,.03-.03,.06-.04,.09-.01,.03-.02,.05-.03,.08-.02,.06-.03,.12-.05,.18-.06,.23-.12,.43-.17,.6-.09,.33-.15,.52-.15,.52l-.17-.05h0Z"/>
          <path class="cls-10" d="M90.6,67.52s.03-.04,.09-.11c.03-.04,.07-.08,.11-.13,.02-.03,.05-.06,.07-.09,.02-.03,.05-.06,.09-.1,.13-.13,.3-.28,.53-.41,.06-.03,.12-.06,.18-.09,.07-.03,.13-.05,.19-.08,.13-.05,.26-.1,.4-.16,.28-.11,.59-.22,.91-.34,.33-.12,.67-.25,1.03-.37,.36-.13,.72-.26,1.1-.39,.38-.13,.76-.26,1.14-.38,.19-.06,.38-.12,.58-.18,.19-.06,.38-.12,.57-.18,.38-.12,.75-.23,1.12-.34,.36-.1,.72-.21,1.05-.29,.33-.09,.65-.17,.95-.24,.29-.07,.56-.13,.8-.19,.24-.05,.45-.1,.62-.13,.17-.03,.31-.06,.4-.08,.09-.02,.14-.03,.14-.03,0,0-.05,.01-.14,.04-.09,.03-.22,.06-.39,.11-.17,.05-.37,.11-.61,.18-.24,.07-.5,.15-.79,.23-.14,.04-.3,.09-.45,.14-.16,.05-.32,.09-.48,.15-.33,.1-.68,.21-1.04,.32-.36,.11-.73,.23-1.11,.35-.19,.06-.38,.12-.57,.19-.19,.06-.38,.13-.57,.19-.38,.13-.76,.26-1.14,.39-.37,.13-.74,.26-1.1,.39-.36,.13-.7,.25-1.02,.37-.32,.12-.63,.23-.91,.34-.14,.05-.28,.1-.41,.15-.06,.02-.13,.05-.18,.07-.06,.02-.11,.05-.16,.08-.21,.11-.36,.24-.48,.36-.03,.03-.05,.06-.08,.09-.03,.03-.05,.06-.07,.08-.04,.05-.08,.1-.11,.13-.06,.07-.09,.11-.09,.11l-.16-.14h0Z"/>
          <path class="cls-10" d="M85.19,78.6c-6.41,0-12.69-.22-18.72-.65h0c-1.87-.26-3.39-.62-4.65-1.11l.08-.2c1.24,.48,2.74,.83,4.6,1.09,7.9,.57,16.21,.76,24.71,.59,.28,0,.56-.04,.84-.1l3.23-.69,.04,.21-3.23,.69c-.29,.06-.59,.1-.88,.1-2.02,.04-4.03,.06-6.02,.06Z"/>
          <path class="cls-10" d="M85.52,73.17c-6.09,0-12.97-.26-20.85-.79h0c-.21-.03-.42-.05-.62-.07-1.05-.12-2.04-.23-2.59-.76l.15-.15c.49,.48,1.45,.59,2.46,.7,.2,.02,.42,.05,.62,.07,10.2,.68,18.72,.92,26.03,.72,.21,0,.42-.02,.64-.04,2.02-.22,3.63-.5,4.95-.86l.06,.21c-1.32,.36-2.95,.64-4.98,.87-.22,.02-.44,.04-.66,.05-1.67,.05-3.4,.07-5.2,.07Z"/>
          <rect class="cls-10" x="103.47" y="75.67" width="17.08" height=".22" transform="translate(-9.14 15.69) rotate(-7.7)"/>
          <path class="cls-10" d="M125.56,68.65l-.03-.21,2.34-.38c.21-.03,.39-.17,.48-.35l.04-.08,.19,.1-.04,.08c-.12,.25-.36,.43-.64,.47l-2.34,.38h0Z"/>
          <path class="cls-10" d="M104.95,76.78l-.2-.08,.69-1.77,.19-2.35v-1.81c.16-1.92,.12-3.84-.11-5.72l-.26-1.35,.21-.04,.26,1.36c.24,1.89,.28,3.83,.12,5.76v1.81s-.19,2.39-.19,2.39h0s-.7,1.8-.7,1.8h0Z"/>
          <path class="cls-10" d="M116.89,75.16l-.21-.06,.41-1.48,.46-2.86-.03-1.11h0c.08-2.47,.01-4.36-.22-5.93l-1.19-1.67,.18-.12,1.22,1.72v.03c.25,1.59,.32,3.49,.23,5.99l.03,1.13-.47,2.89-.41,1.48h0Z"/>
          <polygon class="cls-10" points="114.98 64.32 116.38 64.21 116.62 64.64 114.98 64.92 114.98 64.32"/>
          <polygon class="cls-10" points="114.98 65.25 116.76 64.92 116.71 65.11 115.03 65.65 114.98 65.25"/>
          <path class="cls-10" d="M114.75,64.37c0,.05-.02,.1-.03,.15,0,.02-.01,.05-.02,.07,0,.02-.01,.05-.02,.07v-.02c.03,.13,.04,.26,.05,.39,0,.13,0,.26,0,.39v-.02s.02,.05,.04,.08c.01,.03,.03,.06,.04,.08-.03-.02-.05-.04-.07-.06-.02-.02-.05-.04-.07-.06h0s0-.02,0-.02c-.03-.13-.05-.26-.06-.39-.01-.13-.02-.26-.01-.39v-.02s0,0,0,0c.01-.02,.02-.04,.04-.06,.01-.02,.02-.04,.04-.06,.03-.04,.05-.08,.09-.12h0Z"/>
          <path class="cls-10" d="M104.17,72.4c-.17,0-.32-.12-.35-.29-.06-.35-.06-.65,0-.93,.03-.15,.16-.26,.31-.27l1.5-.16,.02,.21-1.5,.16c-.06,0-.11,.05-.13,.11-.06,.25-.06,.52,0,.84,.01,.07,.08,.12,.16,.12l1.46-.17,.03,.21-1.46,.17s-.03,0-.04,0h0Z"/>
          <rect class="cls-10" x="105.62" y="71.38" width="12.11" height=".22" transform="translate(-7.65 13.67) rotate(-6.78)"/>
          <path class="cls-10" d="M117.7,70.93l-.03-.21,3.24-.38s.06-.02,.07-.05c.13-.28,.18-.54,.14-.77,0-.05-.05-.08-.1-.07l-3.33,.36-.02-.21,3.33-.36c.16-.02,.31,.09,.33,.25,.05,.28,0,.58-.16,.9-.04,.09-.14,.16-.24,.17,0,0-3.24,.38-3.24,.38Z"/>
          <rect class="cls-10" x="105.61" y="70.18" width="12.11" height=".22" transform="translate(-6.88 12.36) rotate(-6.15)"/>
          <polygon class="cls-10" points="105.83 71.49 105.83 71.95 117.56 70.6 117.56 70.6 117.54 70.22 105.83 71.49 105.83 71.49"/>
          <polygon class="cls-10" points="117.76 70.24 117.76 70.24 117.76 70.62 120.91 70.26 121.04 69.89 117.76 70.24"/>
          <path class="cls-10" d="M105.63,71.89v-.46h0l-1.31,.14-.21-.36c-.12,.45,.1,.84,.1,.84l1.42-.16h0Z"/>
          <path class="cls-10" d="M105.34,60.56l-1.23,3.03s.56-.71,.61-.67c.05,.04-.24,.89-.24,.89,0,0,1.13-2.04,1.44-2.21,0,0-.62,.48-.64,.14-.02-.34,.05-1.18,.05-1.18Z"/>
          <path class="cls-10" d="M110.29,62l-4.58,.5-.85,1.25s1.38,0,1.5-.19l.34-.6,3.52-.51c.05,0,.1-.03,.15-.05,.25-.16,.37-.31,.35-.46l-.42,.06h0Z"/>
          <path class="cls-10" d="M105.2,54.6s.02-.02,.05-.06c0-.01,.02-.02,.03-.03,0,0,.01-.01,.02-.02,0,0,.01-.01,.02-.02,.01-.01,.03-.03,.04-.05,.02-.02,.03-.04,.05-.05,.08-.08,.17-.16,.29-.25,.12-.08,.26-.17,.43-.23,.17-.07,.36-.12,.56-.14,.05,0,.1-.01,.16-.01,.05,0,.1,0,.15,0,.1,0,.21-.01,.32-.02,.22-.01,.44-.02,.67-.03,.23,0,.46-.01,.69-.02,.23,0,.46,0,.69,0,.23,0,.45,0,.67,0,.22,0,.42,0,.62,.01,.2,0,.38,.01,.56,.02,.35,.02,.63,.04,.83,.05,.2,.02,.32,.02,.32,.02,0,0-.12,0-.32,0-.2,0-.49-.01-.83-.01-.17,0-.36,0-.56,0-.2,0-.41,0-.62,0-.43,.01-.89,.02-1.35,.04-.23,.01-.46,.02-.68,.04-.23,.01-.45,.03-.66,.04-.11,0-.21,.01-.32,.02-.05,0-.1,0-.15,.01-.05,0-.1,0-.14,.01-.19,.03-.36,.07-.51,.13-.31,.12-.53,.3-.67,.43-.02,.02-.03,.03-.05,.05-.02,.02-.03,.03-.04,.05-.01,.01-.02,.03-.04,.04-.01,.01-.02,.02-.03,.03-.04,.04-.06,.06-.06,.06,0,0-.13-.11-.13-.11Z"/>
          <path class="cls-10" d="M88.8,54.79l-.16-.14s.72-.77,5.28-1.38l.03,.21c-4.42,.59-5.14,1.3-5.14,1.31Z"/>
          <path class="cls-10" d="M99.88,66.01s.1-.02,.3-.05c.19-.03,.48-.07,.84-.13,.36-.05,.8-.12,1.31-.19,.51-.07,1.08-.16,1.7-.24,.62-.09,1.3-.18,2.01-.28,.71-.1,1.47-.2,2.25-.3,.78-.1,1.58-.21,2.4-.32,.82-.11,1.65-.21,2.48-.32,.83-.1,1.66-.21,2.48-.31,.82-.1,1.63-.2,2.41-.3,.78-.09,1.54-.18,2.25-.27,.72-.09,1.39-.16,2.02-.24,.62-.07,1.2-.14,1.71-.19,.51-.06,.95-.1,1.32-.15,.36-.04,.65-.07,.85-.09,.2-.02,.3-.03,.3-.03,0,0-.1,.02-.3,.05-.19,.03-.48,.07-.84,.13-.36,.05-.8,.12-1.31,.19-.51,.07-1.08,.16-1.7,.24-.62,.09-1.3,.18-2.01,.28-.71,.1-1.47,.2-2.25,.3-.78,.1-1.58,.21-2.4,.32-.82,.11-1.65,.21-2.48,.32-.83,.1-1.66,.21-2.48,.31-.82,.1-1.63,.2-2.41,.3-.78,.09-1.54,.18-2.25,.27-.72,.08-1.39,.16-2.02,.24-.62,.07-1.2,.14-1.71,.19-.51,.06-.95,.1-1.32,.15-.36,.04-.65,.07-.85,.09-.2,.02-.3,.03-.3,.03h0Z"/>
        </g>
        <g id="windows">
          <path class="cls-10" d="M77.35,62.69c2.98-2.95,6.14-5.49,9.54-7.52,.59-.36,1.27-.56,1.96-.61,5.94-.4,11.44-.48,16.48,0,.23,.02,.43,.19,.49,.41l.09,.31c.03,.12,.03,.24,0,.35l-2.13,6.69c-.12,.39-.48,.65-.89,.65h-.48c-7.44-.41-15.96-.45-25.05-.28Z"/>
          <path class="cls-10" d="M105.54,55.31l-.09-.31c-.02-.07-.08-.12-.15-.13-2.3-.22-4.91-.32-7.61-.32s-5.66,.11-9,.33c-.63,.04-1.25,.23-1.79,.55-3,1.79-6.23,4.28-9.06,7,3.06-.05,5.88-.08,8.58-.08,5.9,0,11.16,.12,15.7,.38h.47c.24,0,.45-.15,.52-.38l2.42-6.91s.01-.09,0-.13h0Zm-2.92,7.04c-.04,.12-.15,.2-.27,.2h-.46c-4.48-.25-9.77-.38-15.71-.38-2.51,0-5.11,.02-7.92,.07,2.69-2.52,5.7-4.81,8.53-6.51,.5-.3,1.08-.48,1.67-.52,3.33-.22,6.27-.33,8.98-.33s5.31,.11,7.52,.32l.07,.25s-2.42,6.9-2.42,6.9Z"/>
          <path class="cls-10" d="M105.36,60.06l1.65-5.07c.15-.47,.57-.8,1.06-.83,1.88-.14,3.74-.14,5.58,.02,.31,.03,.61,.12,.89,.27,3.07,1.71,5.61,3.73,7.61,6.06,.24,.28,.09,.72-.28,.79-4.41,.84-9.56,1.55-15.14,2.17,0,0-.03-.39,.72-.51,.55-.09,2.05-.28,2.8-.38,.28-.04,.51-.26,.53-.55,.02-.19,.02-.39,0-.59-.05-.73-.6-1.32-1.33-1.42-1.07-.14-2.18-.1-3.33,.09l-.78,.29v-.34Z"/>
          <polygon class="cls-2" points="101.38 55.36 99.42 58.6 100.93 55.34 98.12 55.24 93.93 61.95 96.53 62.02 99.79 56.13 97.15 62.04 102.14 62.19 104.27 55.47 101.38 55.36"/>
          <path class="cls-10" d="M102.16,62.21h-.02s-5.03-.15-5.03-.15v-.03s2.45-5.45,2.45-5.45l-3.03,5.46-2.64-.08,4.22-6.75,2.85,.11-1.36,2.93,1.77-2.92h.01s2.92,.11,2.92,.11l-2.14,6.76Zm-4.98-.19l4.95,.15,2.11-6.67-2.85-.11-1.96,3.23-.04-.02,1.5-3.23-2.76-.1-4.16,6.66,2.54,.07,3.26-5.88,.04,.02s-2.63,5.88-2.63,5.88Z"/>
          <path class="cls-10" d="M112.99,54.48l1.13,.07c2.99,1.79,5.59,3.69,7.42,5.8,.2,.24,.03,.55-.27,.65-1.3,.44-3.12,.54-5.15,.77-.9-2.88-1.86-5.26-3.13-7.29h0Z"/>
          <path class="cls-10" d="M107.64,54.88c1.41-.46,2.98-.56,4.67-.37l.24-.28c-1.86-.1-3.59-.07-4.95,.32-.63,.83-1.34,3.12-2.04,5.35l-.12,.36,.36-.23c.62-2.08,1.26-3.92,1.99-4.95,1.71-.15,3.34-.26,4.42-.11l.06-.26c-1.43-.11-2.98-.02-4.61,.19h0Z"/>
          <path class="cls-10" d="M107.78,55.35c1.22-.29,2.62-.34,4.13-.26,1.2,2.11,2.07,4.37,2.56,6.79h-.55c-.37-2.31-1.19-4.45-2.34-6.46-.89-.29-2.3-.21-3.8-.07Z"/>
          <path class="cls-10" d="M112.35,54.88l-.09,.18c1.03,2.02,1.9,4.3,2.64,6.83h.33c-.85-2.63-1.8-5-2.89-7Z"/>
          <path class="cls-10" d="M112.55,54.23c1.58,2.69,2.82,5.34,3.38,7.91l-8.99,1.2s.08-.18,.45-.26,3.23-.45,3.23-.45c0,0,.35-.33,.5-.34s2.8-.39,2.8-.39h.99l.16,.18,.5-.03c-.64-2.61-1.76-5.12-3.25-7.52l.24-.28h0Z"/>
          <polygon class="cls-10" points="114.08 56.7 117.66 56.65 117.96 56.85 114.21 57.06 114.08 56.7"/>
          <polygon class="cls-10" points="113.69 55.9 116.4 55.8 116.79 56.12 113.88 56.3 113.69 55.9"/>
          <path class="cls-10" d="M107.57,56.22c.69,.26,1.05,.75,1.21,1.36,0,0,1.21,.2,1.68,2.5l-.36-.14c-.3-.96-.77-1.7-1.49-2.13-.12-.56-.5-1.08-1.03-1.59h0Z"/>
          <path class="cls-10" d="M113.17,59.32v.17h-.19v.59h.19l.17,.17,.1-.17c-.03-.28-.13-.53-.27-.76h0Z"/>
          <path class="cls-10" d="M113.13,60.25s0,1.15-.29,1.64l.35-.04s.2-.54,.23-1.3l-.11-.04-.17-.25Z"/>
        </g>
        <g id="front_stuff" data-name="front stuff">
          <path class="cls-10" d="M65.5,71.01c.16,.05,.34,0,.47-.11l.1-.09c.06-.06,.11-.13,.13-.21,.22-.89,.31-1.78,.29-2.69,0-.33-.21-.62-.52-.74l-.87-.33c-.83,.91-1.41,2.09-1.79,3.48,0,0,2.21,.67,2.21,.67Z"/>
          <path class="cls-2" d="M65.73,70.77s-.04,0-.07,0l-1.88-.59c.37-1.24,.88-2.23,1.55-3l.62,.26c.21,.08,.35,.28,.35,.5,.03,.87-.07,1.75-.28,2.62,0,.03-.02,.06-.05,.08l-.1,.09s-.1,.06-.15,.06h0Z"/>
          <path class="cls-10" d="M82.09,71.64c4.32,.06,8.79,.16,11.01-.47,.44-.12,.72-.55,.67-1l-.14-1.44c-.04-.37-.22-.7-.52-.93h0c-.41-.32-.92-.48-1.44-.47l-3.68,.11c-1.24,.04-2.46,.36-3.54,.97-.95,.54-1.83,1.21-2.63,2.02-.23,.23-.3,.58-.18,.88h0c.07,.19,.25,.32,.46,.32h0Z"/>
          <path class="cls-2" d="M86.63,71.43c-1.15,0-2.38-.02-3.56-.03-.26,0-.53,0-.79-.01-.1,0-.18-.06-.22-.15-.08-.21-.03-.45,.13-.61,.77-.78,1.64-1.45,2.58-1.98,1.02-.58,2.21-.9,3.42-.94l3.51-.11s.04,0,.06,0c.44,0,.87,.15,1.22,.41,.24,.18,.39,.45,.42,.75l.14,1.44c.03,.33-.17,.63-.49,.72-1.57,.45-4.17,.51-6.41,.51Z"/>
          <path class="cls-10" d="M67.25,69.26l13.29,.25c-.32,.57-.78,1.07-1.31,1.52l-5.49,.18c-.19,0-.38,0-.57-.02l-4.65-.55-.69-1.12s-.58-.25-.58-.25Z"/>
          <path class="cls-10" d="M61.56,74.24l2.23,.08,1.01,1.78c.13,.23,.1,.52-.07,.72l-.04,.05c-.21,.25-.57,.32-.86,.16-.96-.52-1.6-1.28-1.89-2.32,0,0-.39-.46-.39-.46Z"/>
          <path class="cls-10" d="M64.6,74.24l14.78,.5c.24,0,.44,.18,.48,.42l.45,2.42c.03,.18-.04,.37-.19,.48h0c-.09,.06-.2,.1-.31,.09l-11.82-.63c-.61-.03-1.16-.37-1.47-.9l-1.23-2.13-.69-.25h0Z"/>
          <path class="cls-10" d="M81.81,75.47h3.45l3.49-.13-.28,.26-.04,1.55c-.01,.43-.34,.78-.77,.82l-2.15,.18s-.1,0-.15,0l-2.59-.09c-.46-.02-.82-.39-.81-.85v-1.5s-.14-.24-.14-.24Z"/>
          <path class="cls-10" d="M65.83,67.43c-.84,.65-1.44,1.49-1.97,2.74,.7-1.08,1.34-1.84,2.07-2.43l.19,.04v-.19s-.29-.16-.29-.16Z"/>
          <path class="cls-10" d="M65.2,68.22l.5,.37v.24l.58,.06-.39,1.21c-.08,.26-.34,.43-.62,.39l-1.29-.35,.34-.28,1.35,.17v-.18s-1.32-.18-1.32-.18l.61-.79-.19-.11h.42l-.23-.18s.25-.37,.25-.37Z"/>
          <path class="cls-2" d="M66.02,68.77h0s0,0,0,.01c0,.03,0,.07-.02,.12-.01,.11-.04,.26-.08,.43-.02,.08-.05,.18-.1,.25-.02,.04-.05,.07-.07,.07h0s0,0,0,0h-.01s0-.01,0-.01c0,0,0,0,0,0,0-.01-.02-.03-.03-.05-.03-.09-.05-.21-.05-.32,0-.12,0-.24,0-.36,0-.12,.02-.24,.03-.36,0-.02,0-.04,0-.06v-.11l-.06-.06c-.02,.07-.03,.14-.04,.21-.02,.12-.03,.25-.04,.37,0,.13,0,.25,0,.38,0,.06,.01,.12,.02,.19,.01,.06,.03,.12,.05,.18,.01,.03,.03,.06,.05,.08,0,.01,.03,.03,.04,.03h.02s0,0,0,0h0s0,0,0,0h0s.01,0,.01,0c.02,0,.03,0,.04-.02,.01,0,.02-.02,.03-.03,0-.01,.02-.02,.02-.03l.02-.04c.05-.1,.07-.2,.09-.29,.04-.18,.05-.34,.05-.45,0-.05,0-.1,0-.13,0,0,0,0,0-.01h0Z"/>
          <path class="cls-10" d="M90.94,67.73l-.11,.1v.29l-1.35,3.09h-1.06l.49-.11,1.11-2.97-2.83,.11c-.32,.01-.64,.09-.94,.22-1.29,.58-2.39,1.31-3.17,2.27-.07,.09-.01,.22,.1,.22l2.96,.14-3.56,.1c-.11,0-.22-.07-.26-.17v-.04c-.05-.1-.03-.21,.05-.29,1.11-1.1,2.31-1.97,3.64-2.51,.42-.15,.84-.25,1.25-.29l3.69-.19h0Z"/>
          <path class="cls-10" d="M87.68,68.32l2.18-.08-.82,1.59s-.06-.79-.36-1.03c-.29-.25-1-.48-1-.48Z"/>
          <path class="cls-10" d="M88.03,68.93l-.29,.55-.88,.19v-.48l-.81,.48-1.56,.09,1.04,.39,.11,.72,2.04,.12,.1-.27,.37,.27h.55s.26-.75,0-1.26c-.26-.51-.67-.79-.67-.79Z"/>
          <path class="cls-10" d="M91.67,69.05l-.6-.73-1.3,2.8,1.37-.92,.43-.68,.37,.43-.28,.38,.09,.57,1.54-1.62c.04-.68-.22-1.12-.71-1.4l-.89,1.16h0Z"/>
          <polygon class="cls-10" points="91.27 70.3 89.86 71.27 91.58 70.61 91.27 70.3"/>
          <path class="cls-2" d="M87.55,69.72s0,.02,0,.06c0,.04,0,.1,0,.17,0,.07-.01,.16-.03,.26-.02,.1-.04,.21-.09,.33-.01,.03-.02,.06-.04,.09,0,.01-.02,.03-.02,.05,0,.01-.02,.03-.03,.04-.04,.06-.09,.12-.17,.16-.04,.02-.08,.03-.13,.03h-.03s0,0-.01,0h-.02s-.05-.02-.07-.03c-.09-.04-.15-.1-.21-.17-.11-.14-.17-.3-.22-.47-.02-.08-.04-.17-.05-.26,0-.04,0-.09-.01-.13,0-.02,0-.04,0-.07v-.07s0-.08,0-.13c0-.04,0-.09,.01-.13,.01-.09,.03-.17,.05-.26,.04-.17,.11-.33,.22-.47,.05-.07,.12-.13,.21-.17,.04-.02,.09-.03,.14-.03h0s0,0,0,0h0s.01,0,0,0h.01s.03,0,.03,0c0,0,.02,0,.03,0h.03c.08,.05,.13,.11,.17,.17,0,.01,.02,.03,.03,.04,0,.02,.02,.03,.02,.05,.02,.03,.03,.06,.04,.09,.05,.12,.07,.23,.09,.33,.02,.1,.03,.19,.03,.26,0,.07,0,.13,0,.17,0,.04,0,.06,0,.06h0Zm0,0s0-.02,0-.06c0-.04,0-.1-.01-.17,0-.04,0-.08-.02-.12,0-.04-.02-.09-.03-.14-.03-.1-.06-.21-.12-.31-.02-.03-.03-.05-.05-.08,0-.01-.02-.03-.03-.04-.01-.01-.02-.02-.03-.04-.04-.04-.1-.09-.15-.1,0,0-.01,0-.02,0,0,0-.01,0-.02,0h-.03s-.01,0-.01,0c0,0,0,0,0,0h0s0,0,0,0h0s-.05,.02-.07,.03c-.05,.03-.09,.08-.12,.14-.07,.12-.11,.27-.14,.42,0,.04-.01,.08-.02,.11,0,.04,0,.08-.01,.12,0,.04,0,.08,0,.11v.12s0,.12,0,.12c0,.04,0,.08,0,.12,0,.04,0,.08,.01,.12,0,.04,0,.08,.02,.11,.03,.15,.07,.3,.14,.42,.03,.06,.08,.11,.12,.14,.01,.01,.02,.01,.03,.02h0s0,0,.01,0h.03s0,0,0,0h0s0,0,0,0c0,0-.01,0,0,0h0s.02,0,.02,0c.01,0,.03,0,.04,0,.06-.02,.11-.06,.15-.1,.01-.01,.02-.02,.03-.04,0-.01,.02-.03,.03-.04,.02-.02,.03-.05,.05-.08,.06-.11,.1-.22,.12-.31,.03-.1,.04-.18,.05-.26,0-.07,.01-.13,.01-.17,0-.04,0-.06,0-.06h0Z"/>
          <polygon class="cls-2" points="89.02 71.27 90.58 67.59 89.26 71.27 89.02 71.27"/>
          <ellipse class="cls-2" cx="84.78" cy="76.74" rx=".83" ry="1.04"/>
          <path class="cls-2" d="M84.7,75.64s.01,0,.04-.02c.03-.01,.07-.03,.13-.05,.03,0,.06-.01,.1-.02,0,0,.02,0,.03,0,0,0,0,0,.02,0h.01s.04,0,.06,0c.02,0,.04,0,.07,0,.02,0,.05,0,.07,0,.05,.01,.1,.02,.15,.04,.1,.04,.2,.1,.29,.18,.09,.08,.17,.17,.23,.28,.06,.11,.11,.23,.14,.35,.03,.12,.04,.25,.04,.38v.09s-.02,.1-.02,.1c0,.03-.01,.06-.02,.1v.05s-.02,.05-.02,.05c-.03,.12-.09,.24-.16,.34-.07,.1-.16,.2-.25,.27-.1,.07-.2,.12-.31,.16-.1,.03-.21,.04-.29,.03-.09,0-.16-.02-.22-.04-.06-.02-.1-.04-.13-.06-.03-.02-.04-.03-.04-.03,0,0,.02,0,.05,.02,.03,.01,.07,.02,.13,.03,.06,.01,.13,.02,.21,.01,.02,0,.04,0,.06,0,.01,0,.02,0,.03,0,.01,0,.02,0,.03,0,.02,0,.04,0,.06-.02,.02,0,.04-.02,.06-.02,.09-.04,.17-.09,.25-.16,.08-.07,.14-.16,.2-.25,.03-.05,.05-.1,.08-.15,.02-.05,.04-.11,.05-.16v-.04s.02-.04,.02-.04c0-.03,.01-.06,.02-.08v-.08s.01-.09,.01-.09c0-.11,0-.23-.03-.34-.03-.11-.06-.22-.11-.32-.05-.1-.11-.19-.19-.26-.07-.08-.15-.13-.24-.18-.04-.02-.08-.04-.12-.05-.02,0-.04-.01-.06-.02-.02,0-.04-.01-.06-.01-.02,0-.04,0-.06,0h-.01s0,0-.01,0c0,0-.02,0-.03,0-.03,0-.07,0-.1,0-.06,0-.1,.01-.13,.02-.03,0-.05,.01-.05,.01h0Z"/>
          <path class="cls-10" d="M85.36,76.74c-.06,0-.12,.04-.12,.04,0,0-.04,.07-.11,.09-.07,.02-.06-.02-.08-.09-.02-.07-.03-.05-.09-.08-.06-.04-.07-.02-.28,.11-.21,.14-.11,.03-.27,0-.16-.02-.09-.16-.14-.2-.02-.01-.09,0-.19,.05,0,.02,0,.05,0,.07,0,.49,.32,.89,.71,.89s.7-.39,.71-.87c-.05,0-.1-.02-.13-.02Z"/>
          <ellipse class="cls-2" cx="63.38" cy="75.58" rx=".41" ry=".89" transform="translate(-5.9 5.37) rotate(-4.63)"/>
          <path class="cls-2" d="M63.26,74.64s0,0,.02-.02c.01-.01,.03-.03,.06-.04,.01,0,.03-.01,.05-.02,0,0,0,0,.01,0,0,0,0,0,0,0h0s.02,0,.03,0c.01,0,.02,0,.03,0,.01,0,.02,0,.04,0,.02,0,.05,.02,.08,.03,.05,.03,.11,.07,.16,.14,.05,.06,.1,.14,.14,.23,.04,.09,.07,.19,.1,.29,.02,.1,.04,.21,.05,.32v.08s0,.08,0,.08c0,.03,0,.05,0,.08v.04s0,.04,0,.04c0,.11-.03,.21-.06,.3-.03,.09-.06,.17-.11,.24-.04,.07-.09,.11-.14,.15-.05,.03-.1,.04-.14,.04-.04,0-.08-.01-.11-.03-.03-.01-.05-.03-.07-.04-.01-.01-.02-.02-.02-.02,0,0,0,0,.02,.01,.02,0,.04,.02,.07,.02,.03,0,.06,0,.1,0,0,0,.02,0,.03,0,0,0,.01,0,.02,0,0,0,.01,0,.02,0,.01,0,.02-.01,.03-.02,.01,0,.02-.02,.03-.02,.04-.04,.08-.08,.11-.15,.03-.06,.06-.14,.08-.22,.01-.04,.02-.09,.03-.13,0-.05,.01-.09,.02-.14v-.04s0-.04,0-.04c0-.02,0-.05,0-.07v-.07s0-.08,0-.08c0-.1-.02-.2-.04-.29-.02-.09-.05-.18-.08-.26-.03-.08-.07-.15-.11-.21-.04-.06-.09-.11-.13-.14-.02-.02-.04-.03-.07-.04-.01,0-.02,0-.03-.01-.01,0-.02,0-.03,0-.01,0-.02,0-.03,0h0s0,0,0,0c0,0,0,0-.01,0-.02,0-.03,0-.05,0-.03,0-.05,.02-.07,.02-.01,0-.02,.01-.02,.01h0Z"/>
          <path class="cls-10" d="M63.66,75.56s-.06,.04-.06,.04c0,0-.02,.06-.05,.08-.03,.02-.03-.02-.05-.07-.02-.06-.02-.04-.05-.07-.03-.03-.04-.02-.13,.11-.09,.12-.05,.03-.14,.02-.08-.01-.05-.13-.09-.17,0-.01-.05,.01-.09,.05,0,.02,0,.04,0,.06,.03,.42,.22,.74,.42,.73,.19-.02,.32-.36,.29-.77-.03,0-.05-.01-.07,0Z"/>
          <polygon class="cls-10" points="67.06 74.55 67.57 77.11 80.09 77.63 67.94 76.74 67.06 74.55"/>
          <polygon class="cls-10" points="68.13 69.44 80.2 69.73 79.37 70.69 73.57 70.86 68.67 70.24 68.13 69.44"/>
          <g class="cls-3">
            <polygon class="cls-10" points="68.48 69.89 79.86 70.1 80.2 69.73 68.13 69.44 68.48 69.89"/>
          </g>
        </g>
        <path class="cls-10" d="M78.78,62.77s-7.37,.83-11.7,5.81l13.86,.36,.69,.54,1.47,.15s.54-1.77,3.47-1.93c0,0,7.79-3.78,11.57-4.94s-19.36,0-19.36,0Z"/>
        <path class="cls-7" d="M77.39,64.1s5-1.03,6.22-.98,5,.05,5,.05c0,0,.49,.44,.59,.93s-3.48,1.27-3.48,1.27l-8.08-.2s-.24-1.08-.24-1.08Z"/>
        <path class="cls-10" d="M85.71,65.38s.44-1.27-1.13-1.27h-7.2s-.73,.78-.69,1.32c0,0,9.01-.05,9.01-.05Z"/>
      </g>
    </g>
  </g>
  <text class="cls-8" transform="translate(152.46 52.23)"><tspan x="0" y="0">Manu</tspan></text>
  <text class="cls-4" transform="translate(151.87 75.9)"><tspan x="0" y="0">No me gusta que salgas </tspan><tspan x="0" y="21.6">con esos chiquillos... Es </tspan><tspan x="0" y="43.2">que me estás dando </tspan><tspan x="0" y="64.8">vuelta???</tspan></text>
</svg>