<?xml version="1.0" encoding="utf-8"?>
<!-- Generator: Adobe Illustrator 26.3.0, SVG Export Plug-In . SVG Version: 6.00 Build 0)  -->
<svg version="1.1" id="Capa_1" xmlns="http://www.w3.org/2000/svg" xmlns:xlink="http://www.w3.org/1999/xlink" x="0px" y="0px"
	 viewBox="0 0 1125 1626" style="enable-background:new 0 0 1125 1626;" xml:space="preserve">
<style type="text/css">
	.st0{clip-path:url(#SVGID_00000165200010869381545560000014150544121717496987_);}
	.st1{fill:#3E1254;}
	.st2{fill:#1B002C;}
	.st3{fill:#F2FF3B;}
	.st4{fill:#04071D;}
	.st5{fill:url(#SVGID_00000136373339392064194780000015762878341056397967_);}
	.st6{fill:url(#SVGID_00000109010250342398520900000008231993673752293300_);}
	.st7{fill:url(#SVGID_00000113330182057456037830000009264706559524268450_);}
	.st8{fill:url(#SVGID_00000085222505536071199340000004623158687686856895_);}
	.st9{fill:url(#SVGID_00000049186684513749512190000000973971408888193722_);}
	.st10{fill:url(#SVGID_00000182500024113122868040000002307004105886446747_);}
	.st11{fill:url(#SVGID_00000121262020361957780160000003054847473969979270_);}
	.st12{fill:url(#SVGID_00000165937929453069331090000002426129975776653974_);}
	.st13{fill:url(#SVGID_00000044138897903810674210000015574852725725000842_);}
	.st14{fill:url(#SVGID_00000132055343159748161180000010969263596702700164_);}
	.st15{fill:url(#SVGID_00000131363197101011503660000011748097693039583875_);}
	.st16{fill:url(#SVGID_00000086673667660692821510000008867396727501173147_);}
	.st17{fill:url(#SVGID_00000063621142182200458350000003147247408830172348_);}
	.st18{fill:url(#SVGID_00000017509079129092444610000015709947369170364044_);}
	.st19{fill:url(#SVGID_00000149375144980911101220000013502554864953963197_);}
	.st20{fill:url(#SVGID_00000020363909068559176170000010046034085667478703_);}
	.st21{fill:url(#SVGID_00000102502735928800226500000011563666809653232527_);}
	.st22{fill:url(#SVGID_00000085219395677223634650000015324313115438756778_);}
	.st23{fill:url(#SVGID_00000011009398414469505310000001846317123376230019_);}
	.st24{fill:none;}
	.st25{fill:#043B1D;}
	.st26{fill:#517C29;}
	.st27{fill:#0CABE0;}
	.st28{fill:#E21D27;}
	.st29{fill:#E2D8AC;}
	.st30{fill:#00091C;}
	.st31{fill:#2E3B42;}
	.st32{fill:#0F0F0F;}
	.st33{fill:#FFFFFF;}
	.st34{fill:#323948;}
	.st35{opacity:0.37;fill:#04071D;enable-background:new    ;}
	.st36{fill:#00658C;}
	.st37{fill:#001B27;}
	.st38{opacity:7.000000e-02;fill:#04071D;enable-background:new    ;}
</style>
<g>
	<g id="Capa_1-2_00000090276711379237923210000012378319681152254376_">
		<g>
			<g>
				<g>
					<defs>
						<rect id="SVGID_1_" x="1.2" y="96.4" width="1124" height="811"/>
					</defs>
					<clipPath id="SVGID_00000124120448537306797790000012975745956722558110_">
						<use xlink:href="#SVGID_1_"  style="overflow:visible;"/>
					</clipPath>
					<g style="clip-path:url(#SVGID_00000124120448537306797790000012975745956722558110_);">
						<path class="st1" d="M-448.7,779.2c0,0,103.4-377.9,203.3-442.6S473.9,85.9,560.1,96.5S1123.3,284.8,1182,350
							c58.7,65.2,183,433.6,187.5,451.5s-40.6,86.7-40.6,86.7l-1870.2,7.3L-448.7,779.2z"/>
					</g>
				</g>
			</g>
		</g>
	</g>
</g>
<g>
	<path class="st1" d="M1035,807.9l55.5,41c0.1,0,0.1,0,0.2,0l3.3,2.5c2.4,0.2,4.6,0.4,6.8,0.6c5.8,0.1,15.2,0.9,24.7,4.1
		c0-0.3,0-0.5-0.1-0.8c0-0.9,0-1.8,0-2.6l-8.7-2.5c0,0,0.4-8.2,1.8-8.2c0.7,0,4.7-1,8.7-1.9c-0.2-4.3,0.8-8.5,2.5-12.3
		c-0.2-1.2-0.4-2.3-0.6-3.5l-7-16.4L1035,807.9L1035,807.9z"/>
	<path class="st1" d="M424.5,997.1c0.5,0,0.9-0.1,1.4-0.1C425.5,997,425,997,424.5,997.1L424.5,997.1z"/>
	<path class="st1" d="M884.7,761c-0.4,0.4-0.8,0.9-1.2,1.3c0.5,0,1,0,1.5,0C884.9,761.8,884.8,761.4,884.7,761z"/>
	<path class="st1" d="M425.2,965.4c-0.1-0.2-0.1-0.3-0.2-0.5L425.2,965.4L425.2,965.4z"/>
	<path class="st1" d="M9.6,944.7c4.4-12,14.7-20.5,26.8-20.5c7.7,0,14.6,3.4,19.8,9c0.3-0.2,0.6-0.4,0.9-0.6
		c3.7-2.6,7.8-4.5,12.2-5.5c2.1-0.5,4.3-0.7,6.5-0.8c0.2,0,0.4,0,0.6,0c0.7,0,1.4,0,2.1,0.1v-1v-8.5h6.6l2.5-3.7h2.9v0.2v12.2h3v5.6
		c0.3,0.2,0.7,0.4,1,0.6h2v-4.9h10v14.8h7v2.5h1v18.6h-1c0.4,2.8,0.7,5.6,0.7,8.5c0,0.9,0,1.8-0.1,2.7h4.4h0.9V970v-12.3h4.2h20.8
		v16.1h13v-30.9h5V928h73c1.6-10.1,4.3-24.4,4.3-24.4l0,0l0,0l6.9-26c0.4-1.4,0.8-2.6,1.2-3.9c-0.1,0-0.1,0-0.2,0c0,0,0.1,0,0.2-0.1
		c9.1-25.7,27.3-25.2,31.3-24.7l0.4-8.8h-0.1c0,0-1.6-4.7-2.7-15.7c-0.5-5.3-3.9-12.3-3-20.9c0.6-5.8,2.2-10,4.1-13.2
		c-0.4-0.5-1.2-1.4-2.2-1.9c-1.7-0.9-3.2-0.6-3.2-0.8l0,0c0-0.1,0.4-0.3,1-0.4c0.6-0.1,1.5,0,2.5,0.5c0.9,0.5,1.6,1.2,2,1.9
		c0.1,0.1,0.1,0.2,0.2,0.3c0.1-0.1,0.1-0.2,0.2-0.3c-0.1-0.1-0.2-0.1-0.2-0.2c-0.3-0.3-0.7-1-0.9-1.8c-0.2-0.8-0.1-1.6,0-2.1
		c0.1-0.5,0.3-0.8,0.4-0.7c0.1,0.1-0.2,1.2,0.1,2.7c0.2,0.9,0.6,1.5,0.8,1.9c4.9-7,12.1-7.9,15.3-7.9c0.8-1.3,1.9-2.4,3.1-3
		c1.9-0.8,4.3-0.1,5.5,1.9c0.9-3,3.6-5,6.1-4.4s4.6,3.5,4.6,6.7c1.6-1.1,3.9,0.1,4.8,2.1c0.9,2,0.8,4.5,0.4,6.8
		c-0.9,4.4-3.3,8.3-6.5,10.8c-0.5,12.4-1.3,29.6-2.1,32.9c-2.2,8.2-9.3,6-9.3,6l-0.7,8.6c4,0,7.8,1.9,11.5,4.9
		c10.5-9.2,17.4,5.8,19,19.3c0.4,3.1,0.7,6.8,1.1,10.8c3.3,7.2,5.3,12.6,5.3,12.6l-4.1,1.8c0.7,9.1,1.2,16.7,1.6,17.4
		c0.3,0.7,4.3,5.7,9.2,11.9l1.3-10.4l-4.7-1l0,0c0,0,1.3-4.2,3.1-9.9c-0.3,0.5-0.5,0.9-0.6,1.2c-0.3,0.6-0.5,0.9-0.5,0.9
		s0.1-0.3,0.4-0.9c0.2-0.5,0.6-1.2,1.1-2.1c3.1-9.8,7.5-23.6,9.5-29.2c-1.1-5.4,0.3-11.5,3.4-16.2c2.9-4.4,7.4-8.5,7.4-13.8
		c-0.1-5.2-4.7-10-3.1-15c1-3.2,4.4-5.2,5.5-8.4c0.3-0.9,0.4-1.8,0.3-2.7c0,0-0.2-0.8-0.3-2.2c0-0.1,0-0.2,0-0.3
		c-0.4-1.7-0.9-3.5-1.1-5.3c-0.5-4.7,1.8-9.3,4.5-13.3c3.3-5,7.8-9.6,13.3-11c5.6-1.3,12.3,2,13.1,7.9l0,0c7.8,0.9,10.1,7.7,11,15.2
		v0l0,0l0,0l0,0c0,0,0.1,0.3,0.2,0.9c0.1,0.6,0.2,1.5,0.4,2.7c0.1,1.2,0.3,2.6,0.4,4.3c0.1,1.7,0.2,3.6,0.4,5.7
		c0.2,2.1,0.6,4.3,1.8,6.3c1,1.8,2.4,3.4,3.8,5.2c0.4,0.4,0.7,0.8,1,1.3c0.9,1.2,1.8,2.7,2.3,4.2c0.4,0.9,0.6,1.8,0.7,2.8
		c0.1,0.8-0.1,1.7-0.3,2.4c-0.3,0.7-0.7,1.4-1.1,2c-0.1,0.1-0.2,0.3-0.3,0.4c-0.4,0.8-0.8,1.7-1.1,2.5c0,0.3,0,0.7,0.1,1
		c0.3,1.5,0.9,2.7,1.6,4c4.3-1.2,8.5-2.5,12.1-3.7l0.7,2.9l13.2-5c2.9-0.9,6.8-4.6,8.7-10.5l13.9-37.2c0,0,0-10.2-0.1-12.1
		c-0.1-2,2.3,1.9,2.7,5.8l7.9-4.6l0,0l-1.6,1l0,0l0,0l0,0c0,0,0.2-0.6,0.5-1.6c-0.9-0.3-2.1-0.7-2.4-1.3c-0.5-1,0.1-2.2,0.1-2.2
		l3.2,0.5c1.1-3.6,2.4-8.1,2.7-8.8c0.7-1.7,0.8,0.9,0.4,4.2c-0.2,1.9-0.5,4.3-0.6,5.7c0.2,0.4,0.3,1,0.2,1.5l-0.4,2.2
		c0,1.7-0.1,4-0.4,6.1c-0.5,4-2,9.5-2,9.5L463,858c-0.6,2.4-1.6,4.6-2.9,6.5c0.2-0.3,0.5-0.6,0.6-1c0.8-1.3,1.4-2.7,1.9-4.2
		c0.4-1.5,0.8-2.9,1.1-4.3c1.4-5.4,2.6-9.8,3.4-12.9c0.4-1.5,0.7-2.7,1-3.5c0.1-0.4,0.2-0.7,0.3-0.9c0.1-0.2,0.1-0.3,0.1-0.3l0,0
		c0,0,0,0.1,0,0.3c-0.1,0.2-0.1,0.5-0.2,0.9c-0.2,0.8-0.5,2-0.9,3.5c-0.8,3.1-1.9,7.5-3.2,13c-0.4,1.4-0.7,2.8-1.1,4.3
		c-0.4,1.5-1,3-1.9,4.3c-0.8,1.4-1.9,2.6-3,3.7c-0.6,0.6-1.2,1.1-1.8,1.6c-0.3,0.3-0.6,0.5-1,0.7c-0.4,0.2-0.7,0.4-1,0.6
		c-5.7,2.8-12.1,5.4-18.8,8.1l-0.2,0.1c0.4,1.7,0.8,3.3,1.2,4.9l0.1,0.3l-0.2,0.1c-8.2,3.4-15.8,6.6-22.4,9.3c0,2,0,4,0,5.8
		c0,1.9,0.1,3.7,0.1,5.4c0,3.4,0,6.3-0.1,8.8c0,2.4,0,4.3,0,5.6c0,0.6,0,1.1,0,1.5c0,0.3,0,0.5,0,0.5s0-0.2,0-0.5
		c0-0.3,0-0.8-0.1-1.5c0-1.3-0.1-3.2-0.1-5.6c0-2.4,0-5.4,0-8.8c0-1.7-0.1-3.5-0.1-5.4c0-1.9,0-3.9-0.1-6l0.3,34.7l5.3,19.5
		c0.1,0.2,0.3,0.9,0.6,1.9c0.4,1.3,1,3.2,1.8,5.5c0.8,2.3,1.8,5,3.1,7.9c1.2,2.9,2.8,6,4.2,9.5c1.4,3.4,2.5,7,2.6,10.4
		c0.1,1.7-0.3,3.3-0.8,4.7c-0.5,1.4-1.1,2.6-1.6,3.6c-1.2,2.1-2.3,3.6-3.1,4.6c-0.4,0.5-0.8,0.8-1,1.1c-0.1,0.1-0.1,0.1-0.2,0.2
		c2.2,0,3.5,0.1,3.8,0.1c40.2-2.3,81.4-4.6,123.4-6.6c0.5-9.7,1.7-19.8,4-29.7c-5.7-0.5-10.4-1.1-13.8-1.9
		c-7.6-1.7,3.2-3.6,15.7-5.1c0.3-1.1,0.7-2.2,1-3.2c-37.5-1.6-62.2-5.3-97.3-14c-27.7-6.8,49.2-7.9,107.5-8.6
		c1.6-2.6,3.4-5.2,5.3-7.6c-14.5-1.4-28.5-3.1-37.3-5.3c-6.1-1.6,15.3-1.9,44.3-1.6c6.8-3.5,32.2-16.6,36.9-17.6
		c1.1-0.2,3.8-4.4,8-11.1c-4-1.9-15.3-7.8-15.3-14.8c0-8.5,14.3-10.3,25.4-8.9c1.7,0.2,3.1,0.8,4.2,1.6
		c21.6-31.7,58.2-76.4,107.9-89c0,0,15.5-3.2,41.4-6.3c1.1,0.3,2.3,0.6,3.4,1c17.7-2.1,39.7-4.1,64.7-5.1c-8.6-8-14.5-24-14.5-42.5
		c0-25.5,11.3-46.4,25.5-47.8c-2.9-9.4-4.6-19.8-4.6-30.9c0-39.7,21.2-71.8,47.3-71.8l0,0l0,0c2,0,4,0.2,6,0.6
		c0.6,0.1,1.2,0.2,1.7,0.4c0.5,0.1,1,0.3,1.5,0.4c0.6,0.2,1.2,0.4,1.8,0.6c10.8,3.9,20.1,13.4,26.6,26.3l0,0l0,0c0,0,0,0,0,0
		s0,0,0,0c0,0,0.1-0.1,0.2-0.2c1.3-1.5,2.7-2.9,4-4.2c0,0,0.1-0.1,0.1-0.1c13.7-13.5,28.7-20,37.3-13.9c13.9,9.9,19.2,46.5,4.5,78.5
		c12.7,0,26.3,6.3,37.4,18.8c21,23.6,25.2,60.2,9.4,81.8c-7.2,9.8-17.2,14.8-28,15.2c0.7,0.8,1.3,1.6,1.9,2.4c31,0.1,62,0.2,86,0.4
		c-11.9-6.4-20.2-20.8-20.2-37.6c0-9.2,2.5-17.8,6.8-24.6c-2.3-4.1-3.7-9-3.7-14.3c0-14.1,9.4-25.4,21-25.4c0.3,0,0.7,0,1,0
		c0.3,0,0.7,0,1,0c11,0,20.1,10.3,20.9,23.3c0.2-1,0.5-2,0.8-2.9c-0.8-2.6-1.3-5.4-1.4-8.2c-0.1-2.8,0.2-5.6,1-8.2
		c0-0.4-0.1-0.9-0.1-1.3c-0.1-1.9,0.1-3.8,0.4-5.7c-1.2-3.3-2-6.8-2.2-10.4c-0.1-2,0.1-3.9,0.4-5.8c-1.1,0.1-2.1,0.2-3.2,0.2
		c-0.3,0-0.5,0-0.8,0c-0.4,0-0.8,0-1.2,0c-22.5,0-40.8-22.1-40.8-49.3c0-12.4,3.8-23.8,10.1-32.4c-8.7-8.7-14.2-22.2-14.2-37.4
		c0-13.9,4.6-26.3,12-35c0.5,0.2,1.1,0.3,1.6,0.5c0.1-0.2,0.2-0.3,0.4-0.5c-95.3-27.6-177.2-48.2-208.6-51.3
		c-76.4-7.6-560.3,106.1-757.2,171.9c2,7.4,3.1,15.4,3.1,23.8c0,38.5-23.4,69.7-52.2,69.7c-2.1,0-4.3-0.2-6.3-0.5
		c2.6,4.8,4.1,10.7,4.1,17.1c0,16.3-9.9,29.6-22.2,29.6c-4.5,0-8.8-1.8-12.3-4.9c-3.4,17-11.7,30.1-23.2,33.8
		c-5.7,1.9-11.5,1.2-17-1.5c-0.2,34.2-1.4,68.3-2.6,102.4c-0.6,17.8,0.2,35.4,0.7,53.2c2.2-0.6,4.4-1,6.7-1
		C6.4,944.2,8,944.4,9.6,944.7z"/>
	<path class="st1" d="M1055.3,851.3c2.2-0.1,4.4-0.2,6.6-0.3c-12.2-0.5-23.7-0.6-33-0.5c-0.4,0-0.8,0-1.2,0
		c-0.1,0.2-0.1,0.3-0.2,0.5C1035.3,850.9,1045,851,1055.3,851.3z"/>
	<path class="st1" d="M560.1,960.8c-0.1,0.3-0.2,0.6-0.2,0.9C560,961.5,560.1,961.1,560.1,960.8
		C560.2,960.8,560.2,960.8,560.1,960.8z"/>
	<path class="st1" d="M564.5,950.4c-0.2,0-0.4,0-0.6,0c-0.4,0.8-0.8,1.6-1.1,2.5c0.2,0,0.3,0,0.5-0.1
		C563.7,951.9,564.1,951.2,564.5,950.4z"/>
	<path class="st1" d="M424.5,996.7C424.5,996.7,424.6,996.7,424.5,996.7c0.3-0.2,0.7-0.7,1.2-1.4c0.2-0.3,0.4-0.6,0.7-1
		c-0.6,0.8-1.2,1.5-1.9,2.2V996.7z"/>
	<path class="st1" d="M858.3,908.6c3-3.2,6.8-5.1,11.6-4.4l6.3-0.2l0.5-0.8l-6,0.2C865.4,902.6,861.4,904.9,858.3,908.6z"/>
	<path class="st1" d="M908.1,868.8c0.3,0.1,0.4,0.1,0.4,0.1l0,0.2c0.7-0.4,1.5-0.8,2.2-1.2c0-0.2,0-0.3,0-0.5
		C909.9,867.9,909,868.3,908.1,868.8z"/>
	<path class="st1" d="M407.4,820c-0.1-1.7-0.2-3.1-0.3-4.3c0-0.3,0-0.5-0.1-0.8c0.2,2.4,0.3,4.8,0.4,7.1
		C407.4,821.3,407.4,820.6,407.4,820z"/>
	<path class="st1" d="M363.9,955.7l2.2,0.2c0.3,0.1,0.6,0.1,0.9,0.2c1.5-6.7,3.2-12.8,3.5-13.9c-0.5-0.6-0.8-0.9-0.8-0.9
		c0-0.1,0.3,0.2,0.8,0.7l0,0l-6.9-33.5l-1.2,13.2l-3-0.6l-2.8,23.7c4.5,5.5,7.9,9.6,7.9,9.6L363.9,955.7z"/>
	<path class="st1" d="M324.5,957.7h16.4c-5.4-5-11.4-10.7-16.4-15.5V957.7z"/>
	<path class="st1" d="M810.1,781c-0.2-0.2-0.4-0.4-0.6-0.6c-2.2,1.6-4,3.6-4.5,5.8C806,784.2,808,782.4,810.1,781
		c3.9-2.6,8.3-4,8.3-4l0,0C818.4,777,814,778.5,810.1,781z"/>
	<path class="st1" d="M768,966.1c-1,0.3-1.9,0.7-2.8,1.2l11.4-0.8C773.7,966.3,770.9,966.2,768,966.1z"/>
	<path class="st2" d="M871.6,931.1l-22.7,0.5c0,0.2-0.1,0.4-0.1,0.6l22.6-0.5C871.5,931.5,871.6,931.3,871.6,931.1z"/>
	<path class="st2" d="M581.2,913.1c-29-0.2-50.5,0.1-44.3,1.6c8.8,2.2,22.9,3.9,37.3,5.3c1.7-2.1,3.4-4.1,5.3-6
		C579.5,914,580.2,913.6,581.2,913.1z"/>
	<path class="st2" d="M563.2,952.8c-0.2,0-0.3,0-0.5,0.1c-0.9,2.2-1.8,4.8-2.6,8c0,0,0,0,0,0C561.1,957.8,562.1,955.1,563.2,952.8z"
		/>
	<path class="st2" d="M571.5,944.6v-0.3l13.3,1.5c-3.2-3.3-7-5-11.5-4.7c0,0-4.9,0.4-9.4,9.3c0.2,0,0.4,0,0.6,0
		C566.6,946.9,569,944.8,571.5,944.6z"/>
	<path class="st2" d="M542,958.6c3.5,0.8,8.1,1.4,13.8,1.9c0.5-2.4,1.2-4.7,1.8-7C545.3,955,534.4,956.9,542,958.6z"/>
	<path class="st2" d="M461.4,936.2c35.1,8.6,59.8,12.4,97.3,13.9c2.5-7.9,5.9-15.5,10.2-22.6C510.6,928.4,433.7,929.4,461.4,936.2z"
		/>
	<path class="st2" d="M778.3,966.3c-3.8-1.2-7.2-1.2-10.3-0.2c2.9,0.1,5.7,0.2,8.6,0.4L778.3,966.3z"/>
	<rect x="177.5" y="940.4" class="st3" width="6" height="7.4"/>
	<rect x="209.5" y="940.4" class="st3" width="6" height="7.4"/>
	<rect x="177.5" y="955.2" class="st3" width="6" height="7.4"/>
	<rect x="242.5" y="955.2" class="st3" width="6" height="7.4"/>
	<rect x="177.5" y="968.8" class="st3" width="6" height="7.4"/>
	<rect x="209.5" y="968.8" class="st3" width="6" height="7.4"/>
	<rect x="242.5" y="968.8" class="st3" width="6" height="7.4"/>
	<rect x="121.5" y="994.8" class="st3" width="5" height="2.5"/>
	<path class="st3" d="M179.5,1013.4h-5v0.6c1.7-0.1,3.3-0.2,5-0.4V1013.4z"/>
	<rect x="217.5" y="998.5" class="st3" width="5" height="2.5"/>
	<path class="st4" d="M93.5,925.5h-3v-12.2v-0.2h-2.9l-2.5,3.7h-6.6v8.5v1c5.4,0.3,10.4,2,15,4.8V925.5z"/>
	<path class="st4" d="M113.5,962.6h1v-18.6h-1v-2.5h-7v-14.8h-10v4.9h-2C104.2,938,111.4,949.3,113.5,962.6z"/>
	<path class="st1" d="M926.4,860.6L926.4,860.6c0,0.2,0,0.4,0,0.5l0,0c5.4-1.9,11.4-3.7,18-5.2c1.5-0.5,3-1,4.4-1.5
		C940.5,856.2,933.1,858.3,926.4,860.6z"/>
	
		<linearGradient id="SVGID_00000106840037811405861600000007006712733202099619_" gradientUnits="userSpaceOnUse" x1="-459.0846" y1="-2659.0007" x2="-541.6993" y2="-2121.0457" gradientTransform="matrix(1 0 0 1 264.8622 3344.0552)">
		<stop  offset="0" style="stop-color:#2B1B49"/>
		<stop  offset="0.5051" style="stop-color:#0A3258"/>
		<stop  offset="1" style="stop-color:#002B5B"/>
	</linearGradient>
	<path style="fill:url(#SVGID_00000106840037811405861600000007006712733202099619_);" d="M-250.4,1052.7c0-1.2,0.1-2.4,0.1-3.7
		c-0.1,1.2-0.2,2.5-0.3,3.7C-250.6,1052.7-250.5,1052.7-250.4,1052.7z"/>
	<path class="st1" d="M949.1,598.2L949.1,598.2c-6.5-12.9-15.8-22.4-26.6-26.3C933.3,575.8,942.6,585.3,949.1,598.2z"/>
	
		<linearGradient id="SVGID_00000160173707707549035760000011449642852294548664_" gradientUnits="userSpaceOnUse" x1="897.3928" y1="-2534.9731" x2="642.0229" y2="-2790.3428" gradientTransform="matrix(1 0 0 1 264.8622 3344.0552)">
		<stop  offset="3.080000e-02" style="stop-color:#0D0E2B"/>
		<stop  offset="0.5487" style="stop-color:#301F3C"/>
		<stop  offset="0.9667" style="stop-color:#F6C5EC"/>
	</linearGradient>
	<path style="fill:url(#SVGID_00000160173707707549035760000011449642852294548664_);" d="M949.1,598.2L949.1,598.2
		c-6.5-12.9-15.8-22.4-26.6-26.3C933.3,575.8,942.6,585.3,949.1,598.2z"/>
	<path class="st1" d="M919.2,570.9c0.5,0.1,1,0.3,1.5,0.4C920.2,571.2,919.7,571,919.2,570.9z"/>
	
		<linearGradient id="SVGID_00000159444808609705875320000015848848387091863219_" gradientUnits="userSpaceOnUse" x1="895.2462" y1="-2532.8264" x2="639.8764" y2="-2788.196" gradientTransform="matrix(1 0 0 1 264.8622 3344.0552)">
		<stop  offset="3.080000e-02" style="stop-color:#0D0E2B"/>
		<stop  offset="0.5487" style="stop-color:#301F3C"/>
		<stop  offset="0.9667" style="stop-color:#F6C5EC"/>
	</linearGradient>
	<path style="fill:url(#SVGID_00000159444808609705875320000015848848387091863219_);" d="M919.2,570.9c0.5,0.1,1,0.3,1.5,0.4
		C920.2,571.2,919.7,571,919.2,570.9z"/>
	<path class="st1" d="M911.5,569.9L911.5,569.9c2,0,4,0.2,6,0.6C915.5,570.1,913.5,569.9,911.5,569.9z"/>
	
		<linearGradient id="SVGID_00000072262805042321509230000006389000301322917276_" gradientUnits="userSpaceOnUse" x1="892.9462" y1="-2530.5266" x2="637.5762" y2="-2785.8962" gradientTransform="matrix(1 0 0 1 264.8622 3344.0552)">
		<stop  offset="3.080000e-02" style="stop-color:#0D0E2B"/>
		<stop  offset="0.5487" style="stop-color:#301F3C"/>
		<stop  offset="0.9667" style="stop-color:#F6C5EC"/>
	</linearGradient>
	<path style="fill:url(#SVGID_00000072262805042321509230000006389000301322917276_);" d="M911.5,569.9L911.5,569.9c2,0,4,0.2,6,0.6
		C915.5,570.1,913.5,569.9,911.5,569.9z"/>
	<path class="st1" d="M2.5,989.9h27v-22.3h34.7c-0.4-7.5-0.3-12.5,0.6-13.6c1.1-1.4,2.9-4.8,4.8-9.3v-0.7h0.3c2-5,4-11.3,5-17.6
		c0.3-0.1,0.7-0.1,1-0.2c-2.2,0-4.4,0.3-6.5,0.8c-1.4,8.7-3.6,18.5-6.3,17.3c-1.8-0.8-4-5.9-5.9-11.8c-0.3,0.2-0.6,0.4-0.9,0.6
		c-5.2-5.6-12.2-9-19.8-9c-12.1,0-22.5,8.5-26.8,20.5c-1.6-0.3-3.3-0.5-4.9-0.5c-2.3,0-4.5,0.4-6.7,1c0,0.6,0,1.3,0.1,1.9
		c0.2,5.2,0.2,10.3,0.2,15.4c0.5,2,0.8,4.1,0.9,6.3c0.1,2.2-0.1,4.3-0.5,6.3c0.3,1.4,0.4,2.9,0.5,4.4c0.2,3.4-0.4,6.7-1.5,9.8
		c1.5,9.2,2.6,17.7,3.4,25c0.5,4.4,0.7,9,0.7,13.9c0.2,0,0.5,0,0.8-0.1C2.5,1028.1,2.5,989.9,2.5,989.9z"/>
	
		<linearGradient id="SVGID_00000028289367550920239440000000223212524469292928_" gradientUnits="userSpaceOnUse" x1="-2975.5352" y1="-5116.3579" x2="3653.7559" y2="1512.9335" gradientTransform="matrix(1 0 0 1 264.8622 3344.0552)">
		<stop  offset="0" style="stop-color:#00131B"/>
		<stop  offset="0.6154" style="stop-color:#030A26"/>
		<stop  offset="1" style="stop-color:#0A3258"/>
	</linearGradient>
	<path style="fill:url(#SVGID_00000028289367550920239440000000223212524469292928_);" d="M2.5,989.9h27v-22.3h34.7
		c-0.4-7.5-0.3-12.5,0.6-13.6c1.1-1.4,2.9-4.8,4.8-9.3v-0.7h0.3c2-5,4-11.3,5-17.6c0.3-0.1,0.7-0.1,1-0.2c-2.2,0-4.4,0.3-6.5,0.8
		c-1.4,8.7-3.6,18.5-6.3,17.3c-1.8-0.8-4-5.9-5.9-11.8c-0.3,0.2-0.6,0.4-0.9,0.6c-5.2-5.6-12.2-9-19.8-9c-12.1,0-22.5,8.5-26.8,20.5
		c-1.6-0.3-3.3-0.5-4.9-0.5c-2.3,0-4.5,0.4-6.7,1c0,0.6,0,1.3,0.1,1.9c0.2,5.2,0.2,10.3,0.2,15.4c0.5,2,0.8,4.1,0.9,6.3
		c0.1,2.2-0.1,4.3-0.5,6.3c0.3,1.4,0.4,2.9,0.5,4.4c0.2,3.4-0.4,6.7-1.5,9.8c1.5,9.2,2.6,17.7,3.4,25c0.5,4.4,0.7,9,0.7,13.9
		c0.2,0,0.5,0,0.8-0.1C2.5,1028.1,2.5,989.9,2.5,989.9z"/>
	<path class="st4" d="M118.1,1018.3c4.2-0.3,8.5-0.7,12.8-1c-0.4-4.7-1.8-9.2-4.1-13c-0.3-0.6-0.7-1.2-1.1-1.7l0,0
		c-2.4-3.4-5.5-6.2-9-8.3c0,0.1,0,0.2,0,0.3C116.9,1001,117.4,1009.2,118.1,1018.3z"/>
	
		<linearGradient id="SVGID_00000043422031190761201850000014020056696513068689_" gradientUnits="userSpaceOnUse" x1="-2950.4866" y1="-5141.4062" x2="3678.8044" y2="1487.8849" gradientTransform="matrix(1 0 0 1 264.8622 3344.0552)">
		<stop  offset="0" style="stop-color:#00131B"/>
		<stop  offset="0.6154" style="stop-color:#030A26"/>
		<stop  offset="1" style="stop-color:#0A3258"/>
	</linearGradient>
	<path style="fill:url(#SVGID_00000043422031190761201850000014020056696513068689_);" d="M118.1,1018.3c4.2-0.3,8.5-0.7,12.8-1
		c-0.4-4.7-1.8-9.2-4.1-13c-0.3-0.6-0.7-1.2-1.1-1.7l0,0c-2.4-3.4-5.5-6.2-9-8.3c0,0.1,0,0.2,0,0.3
		C116.9,1001,117.4,1009.2,118.1,1018.3z"/>
	<path class="st4" d="M69.5,944.1v0.7c0.1-0.2,0.2-0.4,0.3-0.7H69.5z"/>
	
		<linearGradient id="SVGID_00000106869258779144034360000002165875188300245425_" gradientUnits="userSpaceOnUse" x1="-2943.7175" y1="-5148.1753" x2="-307.243" y2="-2511.7004" gradientTransform="matrix(1 0 0 1 264.8622 3344.0552)">
		<stop  offset="0" style="stop-color:#00131B"/>
		<stop  offset="0.6154" style="stop-color:#030A26"/>
		<stop  offset="1" style="stop-color:#0A3258"/>
	</linearGradient>
	<path style="fill:url(#SVGID_00000106869258779144034360000002165875188300245425_);" d="M69.5,944.1v0.7c0.1-0.2,0.2-0.4,0.3-0.7
		H69.5z"/>
	<path class="st4" d="M29.5,967.6v22.3h-27v38.2c21.3-1.9,43.4-3.8,66.4-5.7c-2-20.3-4.1-41.4-4.7-54.8H29.5z M51.5,978.7h-5v-2.5h5
		V978.7z"/>
	
		<linearGradient id="SVGID_00000090993838627191219610000013776948458967657378_" gradientUnits="userSpaceOnUse" x1="-2988.5728" y1="-5103.3203" x2="3640.7185" y2="1525.9709" gradientTransform="matrix(1 0 0 1 264.8622 3344.0552)">
		<stop  offset="0" style="stop-color:#00131B"/>
		<stop  offset="0.6154" style="stop-color:#030A26"/>
		<stop  offset="1" style="stop-color:#0A3258"/>
	</linearGradient>
	<path style="fill:url(#SVGID_00000090993838627191219610000013776948458967657378_);" d="M29.5,967.6v22.3h-27v38.2
		c21.3-1.9,43.4-3.8,66.4-5.7c-2-20.3-4.1-41.4-4.7-54.8H29.5z M51.5,978.7h-5v-2.5h5V978.7z"/>
	<rect x="46.5" y="976.2" class="st3" width="5" height="2.5"/>
	
		<linearGradient id="SVGID_00000145028310090834646690000009961240599841400752_" gradientUnits="userSpaceOnUse" x1="-2970.5801" y1="-5121.3125" x2="3658.7109" y2="1507.9785" gradientTransform="matrix(1 0 0 1 264.8622 3344.0552)">
		<stop  offset="0" style="stop-color:#00131B"/>
		<stop  offset="0.6154" style="stop-color:#030A26"/>
		<stop  offset="1" style="stop-color:#0A3258"/>
	</linearGradient>
	<rect x="46.5" y="976.2" style="fill:url(#SVGID_00000145028310090834646690000009961240599841400752_);" width="5" height="2.5"/>
	<path class="st1" d="M63,944.3c2.7,1.2,4.9-8.6,6.3-17.3c-4.4,1-8.5,2.9-12.2,5.5C59.1,938.4,61.2,943.5,63,944.3z"/>
	
		<linearGradient id="SVGID_00000180361988761473839990000004124993927011879356_" gradientUnits="userSpaceOnUse" x1="-2941.1484" y1="-5150.7446" x2="3688.1426" y2="1478.5466" gradientTransform="matrix(1 0 0 1 264.8622 3344.0552)">
		<stop  offset="0" style="stop-color:#00131B"/>
		<stop  offset="0.6154" style="stop-color:#030A26"/>
		<stop  offset="1" style="stop-color:#0A3258"/>
	</linearGradient>
	<path style="fill:url(#SVGID_00000180361988761473839990000004124993927011879356_);" d="M63,944.3c2.7,1.2,4.9-8.6,6.3-17.3
		c-4.4,1-8.5,2.9-12.2,5.5C59.1,938.4,61.2,943.5,63,944.3z"/>
	<path class="st1" d="M113.5,962.6L113.5,962.6v11.1h0.6c0-0.9,0.1-1.8,0.1-2.7C114.2,968.2,114,965.4,113.5,962.6z"/>
	
		<linearGradient id="SVGID_00000120525492319305464070000004029418813307419025_" gradientUnits="userSpaceOnUse" x1="-2933.6902" y1="-5158.2026" x2="3695.6008" y2="1471.0884" gradientTransform="matrix(1 0 0 1 264.8622 3344.0552)">
		<stop  offset="0" style="stop-color:#00131B"/>
		<stop  offset="0.6154" style="stop-color:#030A26"/>
		<stop  offset="1" style="stop-color:#0A3258"/>
	</linearGradient>
	<path style="fill:url(#SVGID_00000120525492319305464070000004029418813307419025_);" d="M113.5,962.6L113.5,962.6v11.1h0.6
		c0-0.9,0.1-1.8,0.1-2.7C114.2,968.2,114,965.4,113.5,962.6z"/>
	<path class="st1" d="M94.5,931.7c-0.3-0.2-0.6-0.4-1-0.6v0.6H94.5z"/>
	
		<linearGradient id="SVGID_00000125579408168846128360000013060946744794965694_" gradientUnits="userSpaceOnUse" x1="-2925.1926" y1="-5166.7002" x2="3303.8113" y2="1062.3037" gradientTransform="matrix(1 0 0 1 264.8622 3344.0552)">
		<stop  offset="0" style="stop-color:#00131B"/>
		<stop  offset="0.6154" style="stop-color:#030A26"/>
		<stop  offset="1" style="stop-color:#0A3258"/>
	</linearGradient>
	<path style="fill:url(#SVGID_00000125579408168846128360000013060946744794965694_);" d="M94.5,931.7c-0.3-0.2-0.6-0.4-1-0.6v0.6
		H94.5z"/>
	<path class="st1" d="M71.5,960.2h-2v-15.4c-1.8,4.5-3.6,7.9-4.8,9.3c-0.8,1-0.9,6.1-0.6,13.6h7.3V960.2z"/>
	
		<linearGradient id="SVGID_00000124145501549187907360000009753690210829850787_" gradientUnits="userSpaceOnUse" x1="-2950.9902" y1="-5140.9028" x2="3678.3008" y2="1488.3884" gradientTransform="matrix(1 0 0 1 264.8622 3344.0552)">
		<stop  offset="0" style="stop-color:#00131B"/>
		<stop  offset="0.6154" style="stop-color:#030A26"/>
		<stop  offset="1" style="stop-color:#0A3258"/>
	</linearGradient>
	<path style="fill:url(#SVGID_00000124145501549187907360000009753690210829850787_);" d="M71.5,960.2h-2v-15.4
		c-1.8,4.5-3.6,7.9-4.8,9.3c-0.8,1-0.9,6.1-0.6,13.6h7.3V960.2z"/>
	<path class="st1" d="M71.5,941.6h7v-9.5v-5.8c-0.7-0.1-1.4-0.1-2.1-0.1c-0.2,0-0.4,0-0.6,0c-0.3,0.1-0.7,0.2-1,0.2
		c-1.1,6.3-3,12.6-5,17.6h1.7V941.6z"/>
	
		<linearGradient id="SVGID_00000023271146968633573070000016815395250865103518_" gradientUnits="userSpaceOnUse" x1="-2936.8625" y1="-5155.0303" x2="3692.4285" y2="1474.261" gradientTransform="matrix(1 0 0 1 264.8622 3344.0552)">
		<stop  offset="0" style="stop-color:#00131B"/>
		<stop  offset="0.6154" style="stop-color:#030A26"/>
		<stop  offset="1" style="stop-color:#0A3258"/>
	</linearGradient>
	<path style="fill:url(#SVGID_00000023271146968633573070000016815395250865103518_);" d="M71.5,941.6h7v-9.5v-5.8
		c-0.7-0.1-1.4-0.1-2.1-0.1c-0.2,0-0.4,0-0.6,0c-0.3,0.1-0.7,0.2-1,0.2c-1.1,6.3-3,12.6-5,17.6h1.7V941.6z"/>
	<path class="st4" d="M113.5,962.6L113.5,962.6c-2.2-13.4-9.3-24.6-19-30.9h-1v-0.6c-4.6-2.8-9.6-4.4-15-4.8v5.8v9.5h-7v2.5h-1.7
		c-0.1,0.2-0.2,0.4-0.3,0.7v15.4h2v7.4h-7.3c0.6,13.3,2.7,34.5,4.7,54.8c16-1.3,32.4-2.7,49.2-4c-0.7-9.2-1.3-17.3-1.5-23.7
		c0-0.1,0-0.2,0-0.3c-2.1-1.2-4.3-2.1-6.6-2.8c2.3-5.4,3.8-11.4,4.1-17.8h-0.6V962.6z M85.5,950.3h-5v-2.5h5V950.3z M105.5,968.8h-5
		v-2.5h5V968.8z"/>
	
		<linearGradient id="SVGID_00000119119882387169518260000005165234891006402228_" gradientUnits="userSpaceOnUse" x1="-2953.7166" y1="-5138.1763" x2="3675.5745" y2="1491.1151" gradientTransform="matrix(1 0 0 1 264.8622 3344.0552)">
		<stop  offset="0" style="stop-color:#00131B"/>
		<stop  offset="0.6154" style="stop-color:#030A26"/>
		<stop  offset="1" style="stop-color:#0A3258"/>
	</linearGradient>
	<path style="fill:url(#SVGID_00000119119882387169518260000005165234891006402228_);" d="M113.5,962.6L113.5,962.6
		c-2.2-13.4-9.3-24.6-19-30.9h-1v-0.6c-4.6-2.8-9.6-4.4-15-4.8v5.8v9.5h-7v2.5h-1.7c-0.1,0.2-0.2,0.4-0.3,0.7v15.4h2v7.4h-7.3
		c0.6,13.3,2.7,34.5,4.7,54.8c16-1.3,32.4-2.7,49.2-4c-0.7-9.2-1.3-17.3-1.5-23.7c0-0.1,0-0.2,0-0.3c-2.1-1.2-4.3-2.1-6.6-2.8
		c2.3-5.4,3.8-11.4,4.1-17.8h-0.6V962.6z M85.5,950.3h-5v-2.5h5V950.3z M105.5,968.8h-5v-2.5h5V968.8z"/>
	<rect x="80.5" y="947.8" class="st3" width="5" height="2.5"/>
	
		<linearGradient id="SVGID_00000155114532655367111130000003920737758580744354_" gradientUnits="userSpaceOnUse" x1="-2939.3452" y1="-5152.5479" x2="3689.9456" y2="1476.7435" gradientTransform="matrix(1 0 0 1 264.8622 3344.0552)">
		<stop  offset="0" style="stop-color:#00131B"/>
		<stop  offset="0.6154" style="stop-color:#030A26"/>
		<stop  offset="1" style="stop-color:#0A3258"/>
	</linearGradient>
	<rect x="80.5" y="947.8" style="fill:url(#SVGID_00000155114532655367111130000003920737758580744354_);" width="5" height="2.5"/>
	<rect x="100.5" y="966.3" class="st3" width="5" height="2.5"/>
	
		<linearGradient id="SVGID_00000115490401480568367020000009804171301905020801_" gradientUnits="userSpaceOnUse" x1="-2938.6301" y1="-5153.2627" x2="3690.6611" y2="1476.0286" gradientTransform="matrix(1 0 0 1 264.8622 3344.0552)">
		<stop  offset="0" style="stop-color:#00131B"/>
		<stop  offset="0.6154" style="stop-color:#030A26"/>
		<stop  offset="1" style="stop-color:#0A3258"/>
	</linearGradient>
	
		<rect x="100.5" y="966.3" style="fill:url(#SVGID_00000115490401480568367020000009804171301905020801_);" width="5" height="2.5"/>
	<path class="st4" d="M16.9,791.1c11.5-3.8,19.8-16.9,23.2-33.8c3.5,3.1,7.7,4.9,12.3,4.9c12.3,0,22.2-13.2,22.2-29.6
		c0-6.4-1.5-12.3-4.1-17.1c2.1,0.3,4.2,0.5,6.3,0.5c28.8,0,52.2-31.2,52.2-69.7c0-8.4-1.1-16.4-3.1-23.8
		c-7.3-26.8-26.5-45.9-49.1-45.9c-6.7,0-13.1,1.7-19,4.8c0.8-4.7,1.2-9.6,1.2-14.6c0-36.2-22-65.6-49.2-65.6c-3.4,0-6.6,0.5-9.8,1.3
		c0,0,0,0.1,0,0.1c0.1,3.1-0.3,6.1-1.2,8.9c0.5,33.1,2.1,66.1,2.2,99.2c0,7.4-0.1,14.8-0.3,22.1c0.1,19.3,0.2,38.6,0.4,57.8
		c0.1,3.4,0.1,6.9,0,10.3c-0.1,23.6-1.5,47.2-2.9,70.7c1.1,3.2,1.8,6.5,1.8,9.8c0,2.7,0,5.4,0,8.1C5.4,792.3,11.2,792.9,16.9,791.1z
		 M122.4,623.6c1.2,5.4,2.2,11.4,2.9,18.1c0,0-1.8-7.4-5.4-17.2c-7.3-19.9-22.4-49.5-46.2-46.6C73.7,577.9,110.4,570.6,122.4,623.6z
		"/>
	<path class="st4" d="M1084.9,700.3c0,5.3,1.4,10.2,3.7,14.3c-4.3,6.9-6.8,15.4-6.8,24.6c0,16.8,8.3,31.2,20.2,37.6c0.7,0,1.4,0,2,0
		c9.3,0,17.4,0.1,23.9,0.1v0c-0.7-7.1-1-14.2-0.7-21.3c0.5-13.4,2-26.7,3.4-40c-1.3-3.4-2.1-7-2.3-10.7c-0.1-1.9,0.1-3.9,0.4-5.7
		c-0.6,0.3-1.2,0.7-1.7,1.1c0-13.6-8.9-24.7-20-25.3c-0.3,0-0.7,0-1,0C1094.3,674.9,1084.9,686.3,1084.9,700.3z"/>
	<path class="st4" d="M1077.6,536.9c0,15.2,5.6,28.7,14.2,37.4c-6.3,8.7-10.1,20-10.1,32.4c0,27.2,18.3,49.3,40.8,49.3
		c0.4,0,0.8,0,1.2,0c1.4-0.1,2.7-0.2,4.1-0.4c0.4-2.2,1.2-4.4,2.1-6.5c-1.8-3.8-2.8-8.1-3-12.5c-0.2-4.3,0.7-8.4,2.4-12.2
		c-1.4-3.4-2.2-7.2-2.4-11.1c-0.2-4.6,0.8-9,2.8-12.9c-2.4-29-4.9-57.9-4.1-87c0-0.3,0-0.6,0.1-0.9c-11.6-3.5-23.1-6.8-34.4-10.1
		c-0.5-0.2-1.1-0.3-1.6-0.5C1082.3,510.5,1077.6,523,1077.6,536.9z"/>
	<path class="st4" d="M1042.1,758.9c15.8-21.6,11.6-58.2-9.4-81.8c-11.1-12.5-24.7-18.8-37.4-18.8c14.7-32,9.3-68.6-4.5-78.5
		c-8.6-6.2-23.6,0.4-37.3,13.9c0,0.1-0.1,0.1-0.1,0.1c-1.3,1.3-2.7,2.7-4,4.2c-0.1,0.1-0.1,0.2-0.2,0.2c0,0,0,0,0,0l0,0l0,0
		c-6.5-12.9-15.8-22.4-26.6-26.3c-0.6-0.2-1.2-0.4-1.8-0.6c-0.5-0.2-1-0.3-1.5-0.4c-0.6-0.1-1.1-0.3-1.7-0.4c-2-0.4-4-0.6-6-0.6l0,0
		c-26.1,0-47.3,32.2-47.3,71.8c0,11,1.7,21.5,4.6,30.9c-14.2,1.4-25.5,22.3-25.5,47.8c0,18.5,5.9,34.5,14.5,42.5l0,0
		c0.5,0,1,0,1.4-0.1c7.8-0.3,15.9-0.5,24.2-0.6c0.4-0.4,0.8-0.8,1.2-1.3c0.1,0.4,0.2,0.8,0.2,1.2c29.3-0.3,61.5,0.9,94.7,4.8
		l12.7,9.4c7.8,0,15.7,0,23.6,0.1c-0.6-0.8-1.3-1.6-1.9-2.4C1024.9,773.7,1034.9,768.7,1042.1,758.9z"/>
	<path class="st4" d="M910.8,867.4c0,0.2,0,0.3,0,0.5c4.6-2.4,9.8-4.6,15.6-6.7c0-0.2,0-0.4,0-0.5
		C920.6,862.7,915.4,865,910.8,867.4z"/>
	<path class="st4" d="M995.6,851.6c3.9-0.1,7.8-0.2,11.7-0.3l0,0c3.3-0.1,6.6-0.2,9.9-0.2l0,0c2.9-0.1,6.3-0.1,10.2-0.1
		c0.1-0.2,0.1-0.3,0.2-0.5c-3.4,0.1-6.9,0.2-10.4,0.2c-6.2,0.1-9.9,0.2-9.9,0.2l0,0c-0.8,0-1.6-0.1-2.4-0.1c-4.7,0.1-9.3,0.2-14,0.3
		C992.5,851.3,994,851.4,995.6,851.6z"/>
	<path class="st4" d="M119.9,624.5c0.8-0.3,1.7-0.6,2.5-0.8c-12.1-53-48.7-45.7-48.7-45.7C97.5,574.9,112.6,604.6,119.9,624.5z"/>
	
		<linearGradient id="SVGID_00000045602608342511923780000010893523371195285146_" gradientUnits="userSpaceOnUse" x1="-117.9202" y1="-2760.7322" x2="-164.1804" y2="-2744.2107" gradientTransform="matrix(1 0 0 1 264.8622 3344.0552)">
		<stop  offset="3.080000e-02" style="stop-color:#0D0E2B"/>
		<stop  offset="0.5487" style="stop-color:#301F3C"/>
		<stop  offset="0.9667" style="stop-color:#F6C5EC"/>
	</linearGradient>
	<path style="fill:url(#SVGID_00000045602608342511923780000010893523371195285146_);" d="M119.9,624.5c0.8-0.3,1.7-0.6,2.5-0.8
		c-12.1-53-48.7-45.7-48.7-45.7C97.5,574.9,112.6,604.6,119.9,624.5z"/>
	<path class="st4" d="M125.3,641.7c-0.7-6.7-1.6-12.7-2.9-18.1c-0.8,0.3-1.7,0.6-2.5,0.8C123.6,634.3,125.3,641.7,125.3,641.7z"/>
	
		<linearGradient id="SVGID_00000165210344192512423410000012521408659776923812_" gradientUnits="userSpaceOnUse" x1="-104.9062" y1="-2724.293" x2="-151.1664" y2="-2707.7715" gradientTransform="matrix(1 0 0 1 264.8622 3344.0552)">
		<stop  offset="3.080000e-02" style="stop-color:#0D0E2B"/>
		<stop  offset="0.5487" style="stop-color:#301F3C"/>
		<stop  offset="0.9667" style="stop-color:#F6C5EC"/>
	</linearGradient>
	<path style="fill:url(#SVGID_00000165210344192512423410000012521408659776923812_);" d="M125.3,641.7c-0.7-6.7-1.6-12.7-2.9-18.1
		c-0.8,0.3-1.7,0.6-2.5,0.8C123.6,634.3,125.3,641.7,125.3,641.7z"/>
	<path class="st4" d="M1124.9,1079.5c0,0.3,0,0.5,0,0.8C1124.9,1080,1124.9,1079.7,1124.9,1079.5z"/>
	<path class="st4" d="M1125.7,1049.2c0,0.3,0,0.6-0.1,0.9C1125.6,1049.9,1125.6,1049.6,1125.7,1049.2z"/>
	<path class="st4" d="M1125.1,1083.1c0,0.1,0,0.1,0,0.2C1125.1,1083.2,1125.1,1083.1,1125.1,1083.1z"/>
	<path class="st4" d="M1126.1,1043.5c-0.1,0.7-0.1,1.4-0.2,2.1C1126,1044.9,1126,1044.2,1126.1,1043.5z"/>
	<path class="st4" d="M1124.9,1062.8c0,0.4,0,0.8,0,1.2c0-1.1,0.1-2.2,0.1-3.4c-0.8,0.8-1.6,1.5-2.4,2.3L1124.9,1062.8z"/>
	<path class="st4" d="M1126.3,1041c0.1-0.8,0.1-1.6,0.2-2.3c0,0.2,0,0.4-0.1,0.6C1126.4,1039.9,1126.3,1040.4,1126.3,1041z"/>
	<path class="st4" d="M1124.8,1076.4c0,0.3,0,0.5,0,0.8C1124.8,1077,1124.8,1076.7,1124.8,1076.4z"/>
	<path class="st4" d="M1071.5,1088.7L1071.5,1088.7c-0.1,0-0.1,0-0.1,0c-17.8,1.9-29-8.4-36.2-21.3c-22.2,0.8-45.2,1.5-67.6,2.3
		l-14.8,0.7l-41.2,1.8L870,1074h-43.5c-3.8,13.9-8.6,20-8.6,20l-55.7,2.3c-0.1,0-0.2,0-0.3,0c0,0-0.1,0-0.1,0l-0.2,0v0
		c-3.1-0.2-6.1-2.9-8.7-7.5c-2.5-4.4-4.7-10.7-6.3-18.2v18.1h-7.2l-85.8-19.3l-29.1-6.6c-32.6,0.4-52.8,0.9-52.8,1.7
		c0,4.4,17.8-4.4,56.9,14.6s-98.7,14.3-204.4,11.6s-17.8-20.4,30.2-26.2s-71.1-2.9-131.6-2.9c-35.3,0-128.4-1-201.8-5.9
		c-18-1.2-34.8-2.6-49.3-4.4c-23.8-2.8-41.3-6.4-47.4-10.9c-0.9-0.7-1.6-1.4-1.9-2.1c-2.2-4.2,16.4-7.3,47.3-9.8
		c2.4-0.2,4.8-0.4,7.3-0.6c12.4-0.9,26.5-1.7,41.8-2.3c3.8-0.2,7.7-0.3,11.7-0.5c7.7-0.3,15.6-0.6,23.7-0.9
		c-8.3-0.2-16.2-0.4-23.5-0.6c-4.3-0.1-8.3-0.2-12.1-0.3c-17.9-0.5-29.8-0.8-29.8-0.8l29.6-1.6l12.6-0.7l95.4-5.1
		c-0.4,1.8-0.6,3.7-0.6,5.6c0,0.6,0,1.1,0.1,1.7c0.1,1.1,0.2,2.2,0.4,3.3c0.9,4.9,3,9.2,5.9,12.4c0.9,1,1.9,1.8,2.9,2.6
		c2.4,1.7,5.1,2.8,8.1,3.1c0.9,0.2,1.9,0.3,2.8,0.3h181.1h5.5c2.4,0,4.7-0.6,6.8-1.6c2.8-1.3,5.2-3.5,7.1-6.2
		c2.9-4,4.6-9.3,4.6-15.1c0-0.2,0-0.3,0-0.5c0.3,0,0.7,0,1,0c-0.1,5.5-1.8,10.2-3.7,13.6c-0.5,0.8-0.9,1.5-1.4,2.1
		c-0.6,0.8-1.2,1.5-1.8,2.2c-1.1,1.1-2.1,1.9-2.9,2.5c-0.4,0.3-0.8,0.5-1.2,0.8c-0.3,0.2-0.5,0.3-0.7,0.4c-0.1,0-0.1,0.1-0.2,0.1
		c-0.5,0.2-0.7,0.4-0.7,0.4s0.3-0.1,0.8-0.3c0.2-0.1,0.4-0.2,0.7-0.3c0.1,0,0.1-0.1,0.2-0.1c0.4-0.2,0.8-0.4,1.2-0.7
		c0.9-0.6,1.9-1.4,3-2.5c0.6-0.7,1.3-1.5,2-2.3c0.5-0.6,0.9-1.2,1.3-2c2-3.4,3.8-8.2,3.9-13.9c29.5,0,47.9,0.1,47.9,0.1
		c2.3-0.8,7.4-1.7,14.8-2.5l-1.8-6.1l3.7,5.8c8.8-0.9,20.6-1.9,34.8-2.7c-0.5-7.8-0.6-16.4-0.2-25.4c-42,2.1-83.1,4.3-123.4,6.6
		c-0.3-0.1-1.6-0.1-3.8-0.1c0-0.1,0.1-0.1,0.2-0.2c0.2-0.2,0.6-0.6,1-1.1c0.8-1,1.9-2.5,3.1-4.6c0.6-1.1,1.2-2.2,1.6-3.6
		c0.5-1.4,0.9-3,0.8-4.7c-0.1-3.4-1.2-6.9-2.6-10.4c-1.4-3.5-3-6.6-4.2-9.5c-1.3-2.9-2.3-5.6-3.1-7.9c-0.8-2.3-1.4-4.2-1.8-5.5
		c-0.3-1-0.5-1.7-0.6-1.9l-5.3-19.5l-0.3-34.7l0,0l0,0c0,2.1,0,4.1,0.1,6c0,1.9,0.1,3.7,0.1,5.4c0,3.4,0,6.3,0,8.8
		c0,2.4,0,4.3,0.1,5.6c0,0.7,0,1.1,0.1,1.5c0,0.3,0,0.5,0,0.5c0,0,0-0.2,0-0.5c0-0.4,0-0.9,0-1.5c0-1.3,0-3.2,0-5.6
		c0-2.4,0.1-5.4,0.1-8.8c0-1.7-0.1-3.5-0.1-5.4c0-1.8,0-3.8,0-5.8c6.5-2.7,14.1-5.9,22.4-9.3l0.2-0.1l-0.1-0.3
		c-0.4-1.6-0.8-3.3-1.2-5l0.2-0.1c6.7-2.7,13.1-5.3,18.8-8.1c0.4-0.2,0.7-0.4,1-0.6c0.4-0.2,0.7-0.5,1-0.7c0.6-0.5,1.2-1,1.8-1.6
		c1.2-1.1,2.2-2.3,3-3.7c0.8-1.3,1.5-2.8,1.9-4.3c0.4-1.5,0.8-2.9,1.1-4.3c1.4-5.4,2.5-9.8,3.2-12.9c0.4-1.5,0.6-2.7,0.9-3.5
		c0.1-0.4,0.1-0.7,0.2-0.9c0-0.2,0.1-0.3,0-0.3l0,0c0,0,0,0.1-0.1,0.3c-0.1,0.2-0.1,0.5-0.3,0.9c-0.2,0.8-0.5,2-1,3.5
		c-0.8,3.1-2,7.5-3.4,12.9c-0.4,1.3-0.7,2.8-1.1,4.3c-0.4,1.4-1,2.9-1.9,4.2c-0.2,0.3-0.4,0.7-0.6,1c1.3-1.9,2.3-4.1,2.9-6.6
		l12.3-48c0,0,1.5-5.5,2-9.5c0.3-2.1,0.4-4.4,0.4-6.1l0.4-2.2c0.1-0.5,0-1.1-0.2-1.5c0.1-1.4,0.4-3.9,0.6-5.7c0.4-3.3,0.3-6-0.4-4.2
		c-0.3,0.7-1.6,5.2-2.7,8.8l-3.2-0.5c0,0-0.6,1.3-0.1,2.2c0.3,0.6,1.5,1,2.4,1.3c-0.3,1-0.5,1.6-0.5,1.6l1.6-1l0,0l-7.9,4.6
		c-0.4-3.9-2.8-7.7-2.7-5.8c0.1,2,0.1,12.1,0.1,12.1l-13.9,37.2c-1.9,5.9-5.8,9.6-8.7,10.5l-13.2,5l-0.7-2.9
		c-3.5,1.1-7.8,2.4-12.1,3.7c-0.7-1.2-1.4-2.5-1.6-3.9c-0.1-0.3-0.1-0.7-0.1-1c0.2-0.8,0.6-1.7,1.1-2.5c0.1-0.1,0.2-0.3,0.3-0.4
		c0.4-0.6,0.8-1.2,1.1-2c0.3-0.7,0.4-1.6,0.3-2.4c-0.1-1-0.3-1.9-0.7-2.8c-0.5-1.5-1.3-2.9-2.3-4.2c-0.3-0.4-0.7-0.9-1-1.3
		c-1.4-1.8-2.8-3.4-3.8-5.2c-1.2-2-1.6-4.2-1.8-6.3c-0.2-2.1-0.2-4-0.4-5.7c-0.1-1.7-0.2-3.1-0.4-4.3c-0.1-1.2-0.3-2.1-0.4-2.7
		c-0.1-0.6-0.2-0.9-0.2-0.9v0c-0.9-7.5-3.2-14.3-11-15.2l0,0c-0.8-5.9-7.5-9.2-13.1-7.9c-5.6,1.3-10,6-13.3,10.9
		c-2.7,3.9-4.9,8.6-4.5,13.3c0.2,1.8,0.7,3.5,1.1,5.3c0,0.1,0,0.2,0,0.3c0.1,1.4,0.3,2.1,0.3,2.2c0,0.9,0,1.8-0.3,2.7
		c-1,3.2-4.4,5.2-5.5,8.4c-1.6,5,3,9.7,3.1,15c0.1,5.3-4.4,9.4-7.4,13.8c-3.1,4.7-4.4,10.8-3.4,16.2c-2,5.6-6.4,19.3-9.5,29.2
		c-0.5,0.9-0.8,1.6-1.1,2.1c-0.3,0.6-0.4,0.9-0.4,0.9c0,0,0.2-0.3,0.5-0.9c0.2-0.3,0.4-0.7,0.6-1.2c-1.8,5.7-3.1,9.9-3.1,9.9l0,0
		l4.7,1l-1.3,10.4c-5-6.2-9-11.2-9.2-11.9c-0.3-0.7-0.9-8.3-1.6-17.4l4.1-1.8c0,0-2-5.4-5.3-12.6c-0.4-4-0.7-7.7-1.1-10.8
		c-1.6-13.4-8.5-28.4-19-19.3c-3.6-3.1-7.5-5-11.5-4.9l0.7-8.5c0,0,7.1,2.2,9.3-6c0.9-3.3,1.7-20.5,2.1-32.9
		c3.1-2.5,5.5-6.4,6.5-10.8c0.5-2.2,0.6-4.8-0.4-6.8c-0.9-2-3.1-3.2-4.8-2.1c0-3.2-2-6.2-4.6-6.7s-5.2,1.5-6.1,4.4
		c-1.2-2-3.5-2.7-5.5-1.9c-1.3,0.5-2.3,1.6-3.1,3c-3.2,0-10.4,0.9-15.3,7.9c-0.2-0.4-0.6-1-0.8-1.9c-0.3-1.4,0.1-2.6-0.1-2.7
		c-0.1,0-0.2,0.2-0.4,0.7s-0.2,1.3,0,2.1c0.2,0.8,0.5,1.4,0.9,1.8c0.1,0.1,0.2,0.2,0.2,0.2c-0.1,0.1-0.1,0.2-0.2,0.3
		c-0.1-0.1-0.1-0.2-0.2-0.3c-0.4-0.6-1.1-1.4-2-1.9s-1.8-0.6-2.5-0.5c-0.6,0.1-1,0.3-1,0.4l0,0c0,0.2,1.6-0.1,3.2,0.8
		c1,0.5,1.8,1.4,2.2,1.9c-2,3.2-3.5,7.4-4.1,13.2c-1,8.6,2.4,15.6,3,20.9c1.1,11,2.7,15.7,2.7,15.7h0.1l-0.4,8.8
		c-4-0.5-22.2-1-31.3,24.7c-0.1,0-0.2,0.1-0.2,0.1c0,0,0.1,0,0.2,0c-0.4,1.2-0.9,2.5-1.2,3.9l-6.9,26l0,0l0,0c0,0-2.6,14.3-4.3,24.4
		h-73V943h-5v30.9h-13v-16.1h-20.8h-4.2v12.3v3.8h-0.9h-4.4c-0.3,6.4-1.8,12.4-4.1,17.8c2.3,0.6,4.5,1.6,6.6,2.8
		c3.6,2.1,6.7,4.9,9,8.3l0,0c0.4,0.6,0.8,1.1,1.1,1.7c2.3,3.8,3.8,8.2,4.1,13c-4.3,0.3-8.6,0.7-12.8,1c-16.8,1.3-33.2,2.7-49.2,4
		c-23,1.9-45.1,3.8-66.4,5.7c-0.2,0-0.5,0-0.8,0.1c-0.4,0-0.9,0.1-1.3,0.1h1.3h0.8v0v12.4v513.5h1124v-461.1c-0.5-2.3-0.9-4.7-1.1-7
		c0,0.1,0,0.2,0,0.2L1071.5,1088.7z M126.5,997.3h-5v-2.5h5V997.3z M445.8,1004c1.8,1.9,3.1,4.1,4.2,6.5c-0.1,0-0.2,0.1-0.3,0.1
		c0,0-0.1,0-0.1,0.1l-0.6,0.1c-1.1-2.7-2.7-5.1-4.6-7l1.1-0.1C445.6,1003.8,445.7,1003.9,445.8,1004z M450,1010.6l-0.2,0
		C449.9,1010.6,449.9,1010.5,450,1010.6C450,1010.5,450,1010.5,450,1010.6z M248.5,968.8v7.4h-6v-7.4H248.5z M242.5,962.6v-7.4h6
		v7.4H242.5z M311.8,917.5L311.8,917.5L311.8,917.5z M248.5,1016.9L248.5,1016.9L248.5,1016.9z M393.7,1009.9L393.7,1009.9
		L393.7,1009.9z M380.2,1017.9L380.2,1017.9L380.2,1017.9z M267.4,997.3L267.4,997.3L267.4,997.3z M324.3,871.8L324.3,871.8
		L324.3,871.8z M443.9,1036.8L443.9,1036.8L443.9,1036.8L443.9,1036.8L443.9,1036.8z M510.8,1000.2l-60.3,10.2
		c-1-2.5-2.5-4.8-4.3-6.8L510.8,1000.2z M425.9,997c-0.5,0-0.9,0.1-1.4,0.1V997C425,997,425.5,997,425.9,997z M425.7,995.3
		c-0.5,0.7-0.9,1.2-1.1,1.4c0,0-0.1,0-0.1,0v-0.2c0.7-0.7,1.3-1.4,1.9-2.2C426.2,994.7,425.9,995,425.7,995.3z M425.2,965.4
		L425.2,965.4l-0.2-0.5C425.1,965.1,425.1,965.2,425.2,965.4z M407.1,815.7c0.1,1.2,0.2,2.6,0.3,4.3c0,0.7,0.1,1.3,0.1,2.1
		c-0.1-2.2-0.2-4.7-0.4-7.1C407,815.2,407.1,815.4,407.1,815.7z M359.5,921.1l3,0.6l1.2-13.2l6.9,33.5c0,0,0,0,0,0
		c-0.5-0.5-0.8-0.8-0.8-0.7c0,0,0.2,0.3,0.8,0.9c-0.3,1.2-2,7.2-3.5,13.9c-0.3-0.1-0.6-0.1-0.9-0.2l-2.2-0.2l0.7-1.3
		c0,0-3.4-4.1-7.9-9.6L359.5,921.1z M340.9,957.7h-16.4v-15.5C329.6,947,335.5,952.7,340.9,957.7z M328.7,879.9L328.7,879.9
		L328.7,879.9z M217.5,998.5h5v2.5h-5V998.5z M209.5,940.4h6v7.4h-6V940.4z M209.5,968.8h6v7.4h-6V968.8z M177.5,940.4h6v7.4h-6
		V940.4z M177.5,955.2h6v7.4h-6V955.2z M177.5,968.8h6v7.4h-6V968.8z M174.5,1013.4h5v0.2c-1.7,0.1-3.3,0.2-5,0.4V1013.4z
		 M896.5,1132.2L896.5,1132.2L896.5,1132.2z"/>
	<line class="st24" x1="896.5" y1="1132.2" x2="896.5" y2="1132.2"/>
	<path class="st25" d="M513.5,1012.5l1.8,6.1c0.6-0.1,1.2-0.1,1.9-0.2L513.5,1012.5z"/>
	<path class="st25" d="M510.8,1000.2l-64.5,3.4c1.8,2,3.2,4.3,4.3,6.8L510.8,1000.2z"/>
	<path class="st25" d="M449,1010.7l0.6-0.1c0,0,0.1,0,0.1-0.1c0.1,0,0.2-0.1,0.3-0.1c-1-2.4-2.4-4.6-4.2-6.5
		c-0.1-0.1-0.2-0.2-0.3-0.3l-1.1,0.1C446.2,1005.7,447.8,1008.1,449,1010.7z"/>
	<path class="st25" d="M450,1010.6C450,1010.5,450,1010.5,450,1010.6c-0.1,0-0.1,0-0.2,0L450,1010.6z"/>
	<path class="st25" d="M225.8,1021c0-1.9,0.2-3.8,0.6-5.6l-95.4,5.1l-12.6,0.7l-29.6,1.6c0,0,11.9,0.4,29.8,0.8
		c3.8,0.1,7.8,0.2,12.1,0.3c7.3,0.2,15.2,0.4,23.5,0.6c22.7-0.8,47-1.3,71.8-1.8C225.9,1022.2,225.8,1021.6,225.8,1021z"/>
	<path class="st26" d="M573.5,1056.7c-0.5,0.2-1,0.2-1.5,0.2c-0.7,0-1.3-0.2-2-0.4c-2.8-1.1-5.4-4.6-7.7-9.9
		c-0.6-1.5-1.2-3.1-1.8-4.9c-0.4-1.2-0.8-2.5-1.1-3.8c0.1,1.1,0.2,2.1,0.4,3.2l-3.1,10c0,0-1.6-7-3-18.1c-0.6-5-1.2-10.9-1.6-17.4
		c-14.2,0.9-26,1.8-34.8,2.7c-0.7,0.1-1.3,0.1-1.9,0.2c-7.4,0.8-12.5,1.7-14.8,2.5c0,0-18.4-0.1-47.9-0.1
		c-0.1,5.7-1.9,10.5-3.9,13.9c-0.4,0.7-0.9,1.4-1.3,2c-0.7,0.9-1.3,1.7-2,2.3c-1.1,1.1-2.1,1.9-3,2.5c-0.4,0.3-0.8,0.5-1.2,0.7
		c-0.1,0-0.1,0.1-0.2,0.1c-0.3,0.1-0.5,0.2-0.7,0.3c-0.5,0.2-0.8,0.3-0.8,0.3c0,0,0.2-0.2,0.7-0.4c0.1,0,0.1-0.1,0.2-0.1
		c0.2-0.1,0.4-0.2,0.7-0.4c0.3-0.2,0.7-0.5,1.2-0.8c0.9-0.6,1.9-1.4,2.9-2.5c0.6-0.7,1.2-1.4,1.8-2.2c0.5-0.7,1-1.3,1.4-2.1
		c1.9-3.4,3.6-8.1,3.7-13.6c-0.3,0-0.7,0-1,0c0,0.2,0,0.3,0,0.5c0,5.8-1.8,11.1-4.6,15.1c-1.9,2.7-4.4,4.8-7.1,6.2
		c-2.1,1-4.4,1.6-6.8,1.6h-5.5H246c-1,0-1.9-0.1-2.8-0.3c-2.9-0.3-5.7-1.3-8.1-3.1c-1-0.8-2-1.6-2.9-2.6c-2.9-3.2-5.1-7.5-5.9-12.4
		c-0.2-1.1-0.3-2.2-0.4-3.3c-24.8,0.5-49.1,1.1-71.8,1.8c-8.1,0.3-16.1,0.6-23.7,0.9c-4,0.2-7.9,0.3-11.7,0.5
		c-15.3,0.7-29.4,1.5-41.8,2.3c-2.5,0.2-4.9,0.4-7.3,0.6c-30.9,2.4-49.5,5.6-47.3,9.8c0.4,0.7,1,1.4,1.9,2.1
		c6.1,4.5,23.6,8.1,47.4,10.9c14.5,1.7,31.3,3.2,49.3,4.4c73.4,4.9,166.4,5.9,201.8,5.9c60.4,0,179.6-2.9,131.6,2.9
		s-136,23.5-30.2,26.2s243.6,7.3,204.4-11.6c-39.1-18.9-56.9-10.2-56.9-14.6c0-0.8,20.2-1.3,52.8-1.7l-28-6.3L573.5,1056.7
		L573.5,1056.7z"/>
	<path d="M761.5,1096.4l0.2,0C761.7,1096.4,761.6,1096.4,761.5,1096.4L761.5,1096.4z"/>
	<path d="M802,1008.8c-2.7-10.6-6-20.5-9.8-28c-1.6-3.2-3.4-6-5.2-8.2h0.2c-1.8-2.3-3.7-4-5.8-5c-0.8-0.4-1.6-0.7-2.4-1
		c-0.2-0.1-0.5-0.2-0.7-0.2l-1.7,0.1l-11.4,0.8c-0.4,0.2-0.8,0.4-1.2,0.7c3.7,1.4,7,6.2,9.7,13.4c2.7,7.1,4.8,16.6,6.1,27.6
		c0.8,7.2,1.3,14.9,1.3,23.1c0,10.4-0.8,20.3-2.1,29c-3.1,20.7-9.5,34.9-16.8,35.4l55.7-2.3c0,0,4.7-6.1,8.6-20h-13
		c0,0-0.1-0.6-0.2-1.8c-3.8-1.9-3-5.6-1.2-9.6c-0.1-0.7-0.2-1.5-0.3-2.2C810,1047.3,806.8,1027.1,802,1008.8z"/>
	<path d="M1120.9,1064.4c-14.4,0.5-31.2,1.1-49.4,1.7c-11.6,0.4-23.8,0.8-36.3,1.3c7.1,12.9,18.4,23.1,36.2,21.3c0.1,0,0.1,0,0.1,0
		v0l53.9-2.3c0-0.1,0-0.2,0-0.2c-0.1-1-0.2-2-0.3-3c0-0.1,0-0.1,0-0.2c-0.1-0.9-0.1-1.9-0.2-2.8c0-0.3,0-0.5,0-0.8
		c0-0.8-0.1-1.5-0.1-2.2c0-0.3,0-0.5,0-0.8c0-1,0-1.9,0-2.9c0-3.1,0.1-6.2,0.2-9.3C1123.6,1064.3,1122.3,1064.4,1120.9,1064.4z"/>
	<path d="M571.5,944.6c0.2,0,0.3,0,0.5,0c2.8,0,5.4,2.3,7.7,6.3c0.1,0.1,0.1,0.2,0.2,0.3c1.6,2.9,3,6.5,4.2,10.9
		c2.1,7.2,3.5,16.3,4.2,26.4c0.3,3.9,0.4,8,0.4,12.2c0,4.5-0.2,8.8-0.5,12.9c-1.4,20.1-6.1,36.1-12,41.4c-0.7,0.6-1.3,1-2,1.3
		c-0.2,0.1-0.5,0.2-0.8,0.3h22.9l-5.1-1.2l9.9-7.8c0,0,0.8-15.5-0.1-34.6c-0.3-8-1-16.7-2-25.1c-1.2-9.2-2.9-18.1-5.3-25.7
		c-2.3-7-5.2-12.8-8.9-16.5l-13.3-1.5V944.6z"/>
	<path class="st27" d="M1125.7,856.8c0-0.2,0-0.5-0.1-0.7c-9.6-3.2-18.9-4-24.7-4.1C1110.8,853.1,1119,854.8,1125.7,856.8z"/>
	<path class="st27" d="M1061.9,851c12.2-0.5,22.9-0.3,32.2,0.4l-3.3-2.5c-0.1,0-0.1,0-0.2,0l0.2,0.2c-16.7,0.4-38.5,0.8-61.9,1.4
		C1038.2,850.4,1049.7,850.5,1061.9,851z"/>
	<path class="st27" d="M1027.5,851c-3.8,0-7.3,0.1-10.2,0.1l0,0c-3.3,0.1-6.6,0.2-9.9,0.2l0,0c-3.9,0.1-7.8,0.2-11.7,0.3
		c7.5,0.7,17.3,1.2,31.1,0.9c7.6-0.1,16.3-0.5,26.6-1.1c0.6,0,1.3-0.1,1.9-0.1C1045,851,1035.3,850.9,1027.5,851z"/>
	<path class="st27" d="M885,762.2c-0.5,0-1,0-1.5,0c-8.3,0.1-16.4,0.3-24.2,0.6c-0.5,0-1,0-1.4,0.1l0,0c-25,1.1-47,3-64.7,5.1
		c-1.1-0.4-2.3-0.7-3.4-1c-25.9,3.2-41.4,6.3-41.4,6.3c-49.7,12.6-86.3,57.3-107.9,89c5.6,4.2,3.5,14.9,3.3,15.9
		c8.3-14,22.6-36.6,38.8-56c1.2-1.5,2.5-2.9,3.7-4.3c8.9-10.2,18.2-19.1,27.3-24.9c0,0,20.1-10.5,39.2-12.3c2.5-0.2,5.1-0.3,7.5-0.2
		c5.9,0.2,11.4,1.7,15.8,4.8c20.1,14.4,21,74.7,21,74.7l0,0c0,0,0.5,14.9-13.4,16.6c-4.9,0.6-24.3,3.2-47.2,6.2
		c-7.3,1-14.9,2-22.5,3c-2.1,0.3-4.2,0.6-6.3,0.8c-21.4,2.9-42,5.6-54.2,7.3c-6.7,0.9-10.8,1.5-11.1,1.5l0,0c0,0,0,0,0,0l0,0l0,0
		c-0.3,0-4.4,0-7.8,0c-3.6,0-7.1-3.9-7.1-3.9v-6.4c0,0-0.5-0.2-1.4-0.6c-4.2,6.7-6.9,10.9-8,11.1c-4.7,1-30.1,14-36.9,17.6
		c-1.1,0.5-1.7,0.9-1.7,0.9c-1.9,1.9-3.6,3.9-5.3,6c-1.9,2.4-3.7,5-5.3,7.6c-4.4,7-7.7,14.7-10.2,22.6c-0.3,1.1-0.7,2.2-1,3.2
		c-0.7,2.3-1.3,4.7-1.8,7c-2.3,9.9-3.5,20-4,29.7c-0.5,9-0.3,17.6,0.2,25.4c0.4,6.5,1,12.3,1.6,17.4c1.4,11.1,3,18.1,3,18.1l3.1-10
		c-0.1-1.1-0.2-2.1-0.4-3.2c-0.7-2.7-1.3-5.5-1.9-8.6c-0.8-4.3-1.4-9-1.8-13.9c-0.4-4.7-0.6-9.6-0.6-14.6c0-3.7,0.1-7.2,0.3-10.7
		c0.6-10.9,2.2-20.6,4.4-28.3c0.1-0.3,0.2-0.6,0.2-0.9c0.8-3.1,1.7-5.8,2.6-8c0.4-0.9,0.8-1.7,1.1-2.5c4.5-8.9,9.4-9.3,9.4-9.3
		c4.5-0.3,8.3,1.5,11.5,4.7c3.7,3.8,6.6,9.6,8.9,16.5c2.5,7.6,4.2,16.5,5.3,25.7c1.1,8.4,1.7,17.1,2,25.1
		c0.8,19.2,0.1,34.6,0.1,34.6l-9.9,7.8l5.1,1.2l28,6.3l29.1,6.6l85.8,19.3h7.2v-18.1c-0.7-2.9-1.2-6-1.7-9.2
		c-1.4-8.8-2.1-18.9-2.1-29.6c0-8,0.4-15.6,1.2-22.7c1.2-10.7,3.2-20.1,5.8-27.2c2-5.4,4.3-9.6,6.8-12c1.6-1.5,3.3-2.4,5-2.5
		c0.1,0,0.2,0,0.4,0c0.7,0,1.5,0.2,2.2,0.4c0.4-0.2,0.8-0.5,1.2-0.7c0.9-0.5,1.8-0.9,2.8-1.2c3.1-1,6.5-1,10.3,0.2
		c0.2,0.1,0.5,0.2,0.7,0.2c0.8,0.3,1.6,0.6,2.4,1c2,1,4,2.7,5.8,5H787c1.8,2.2,3.6,5,5.2,8.2c3.8,7.5,7.1,17.4,9.8,28
		c4.8,18.3,8,38.6,9.7,51.6c0.1,0.8,0.2,1.5,0.3,2.2c0.3-0.8,0.7-1.5,1.1-2.3c1.8-3.5,3.8-7.1,3.8-9.8c0-1.1-0.2-2.8-0.5-5
		c-1.3-8.6-4.7-24.3-7.4-36.8c-1.6-7.4-3-13.7-3.6-16.5c-0.2-0.7-0.4-1.5-0.8-2.4c-1.2-2.7-3.4-5.9-6.2-9.3
		c-2.3-2.7-4.9-5.5-7.6-8.1c-2.2-2.1-4.5-4.1-6.6-5.7c-0.4-0.3-0.7-0.6-1.1-0.8c-3.1-2.3-5.9-4-7.9-4.6c-8-2.2,40-8.8,43.6-8.8
		c2.1,0,15.2-4.4,27.7-8.8c0-2.1,0.2-4.2,0.7-5.8c0.3-1,0.7-3,1.3-5.7l0.4,0c0-0.2,0.1-0.4,0.1-0.6l-0.5,0
		c1.3-5.7,3.5-14.1,7.6-20.2c0.7-1.1,1.5-2,2.3-2.9c3.1-3.7,7.1-5.9,12.4-5.3l6-0.2l10.4-18.7c0,0,1.8-4.5,20.5-13.6
		c0.3-0.2,0.7-0.3,1.1-0.5c0.7-0.3,1.5-0.7,2.2-1c4.3-2,9.5-4.2,15.5-6.6l0,0c3.7-1.5,7.8-3,12.2-4.7c2-0.7,3.9-1.4,5.7-2.1
		c-6.6,1.5-12.5,3.3-18,5.2l0,0c-5.8,2.1-11,4.3-15.6,6.7c-0.8,0.4-1.5,0.8-2.2,1.2l0-0.2c0,0-0.2,0-0.4-0.1
		c0.9-0.5,1.7-0.9,2.6-1.4c4.6-2.4,9.8-4.7,15.6-6.7l0,0c6.6-2.4,14.1-4.5,22.4-6.2c2.9-0.9,5.4-1.7,7.8-2.3
		c-10.7,0.3-20.9,0.5-30.5,0.8l0,0c-5.9,0.2-11.5,0.3-16.8,0.5c-3.2,0.1-6.2,0.2-9.1,0.3c0.1,5.5,0.1,11.2,0.1,13.7
		c0,0.6,0,0.9,0,1.1c0,0.1,0,0.2,0,0.2l-8.7-1.6V867v-1.1v-11.9c-13.4,0.4-22.4,0.8-24.9,1.1c-4.3,0.5-8.5,0.8-12.4,0.7
		c-0.1,0-0.1-0.1-0.2-0.2c-0.3-0.3-0.7-0.7-1.1-1c-8.1-0.3-14.8-2-19.2-5.7c-6.7-5.8-28.3-53.3-29-60.8c-0.1-0.6,0-1.2,0.1-1.8
		c0.5-2.2,2.4-4.2,4.5-5.8c0.2,0.2,0.4,0.4,0.6,0.6c3.9-2.6,8.3-4,8.3-4l0,0h68.3c0.5-0.1,1.4-0.1,2.4-0.1
		c11.9-0.5,55.4-0.5,103.3-0.4l-12.7-9.4C946.5,763.1,914.3,761.9,885,762.2z M741.8,982.3c-3.3,8.1-5.4,17.5-6.7,27.1
		c-2.3,18.2-1.6,37.6-0.3,52.2c1.2,14.3,3,24.1,3,24.1l-84.3-21.5l-6-1.5l-30.5-7.8l3.4-2.4l33.2,6.2l19.5,3.6l59.4,11.1l-3.4-11.8
		l-3.3-11.5l-72.2-3.4l-24.5-1.2l-4.1-7.2l-2.7-26.1l-1.3-12.9l-1.3-12.3l-1-10l-0.7-6.8l20.7-0.7l15-0.5l51-1.7l47.5-1.6
		C747.8,970.3,744.4,976,741.8,982.3z M838.3,908.6c-4.4,0-39.8,3.1-81.7,6.8c-7.1,0.6-14.3,1.3-21.7,2c-10.1,0.9-20.3,1.8-30.3,2.8
		c-18.1,1.7-35.7,3.3-51,4.7c-5.3,0.5-10.3,1-15,1.4c-21,2-34.9,3.3-34.9,3.3l-1.5-2.3l-3.3-5.1l-2.3-3.6l42-4l4.1-0.4l10.9-1
		l51.9-4.9l51.1-4.9l105.7-10.1C862.3,893.2,849.8,908.6,838.3,908.6z"/>
	<path class="st27" d="M1005,850.8c-6.6-0.3-12.9-0.3-18.8-0.2c1.5,0.2,3.1,0.3,4.8,0.5C995.7,851,1000.4,850.9,1005,850.8z"/>
	<path class="st27" d="M826.5,1074H870l41.6-1.8l41.2-1.8l14.8-0.7c-5,0.2-9.9,0.3-14.8,0.5c-14.2,0.5-28,0.9-41.1,1.3
		c-39.1,1.2-71,2.1-85.2,2.2c-3.4,0-5.8,0-7-0.1c-2.9-0.2-4.9-0.7-6.3-1.4c0.1,1.1,0.2,1.8,0.2,1.8L826.5,1074L826.5,1074z"/>
	<path class="st27" d="M749.4,786.4L749.4,786.4c-1.1,2-2.3,4.2-3.4,6.5C747.1,790.6,748.2,788.4,749.4,786.4z"/>
	<path class="st27" d="M777.1,873.5c-1.1,0.1-2.3,0.3-3.7,0.5C774.7,873.8,776,873.7,777.1,873.5z"/>
	<path class="st27" d="M782.5,872.9c0,0,0.1,0,0.2,0l0,0C782.6,872.9,782.6,872.9,782.5,872.9z"/>
	<path class="st27" d="M642.8,879.7c0.3-0.5,0.6-1,0.9-1.5C643.3,878.1,643,878.7,642.8,879.7z"/>
	<path class="st27" d="M758.1,875.9c-1.7,0.2-3.5,0.5-5.3,0.7C754.6,876.4,756.4,876.1,758.1,875.9z"/>
	<path class="st27" d="M795.3,857.8c0,0,0.3,9.7-7.5,13.6C795.6,867.4,795.3,857.8,795.3,857.8s-0.8-54.7-19.8-67.8
		c-3.9-2.7-8.7-4-13.9-4.3c5.2,0.3,10,1.6,13.9,4.3C794.5,803.1,795.3,857.8,795.3,857.8z"/>
	<path class="st27" d="M657.3,888.9c-0.7,0.1-1.4,0.2-2,0.3C655.9,889.1,656.5,889,657.3,888.9z"/>
	<path class="st28" d="M869.4,916.3l2.6-4.7l4.3-7.6l-6.3,0.2c-4.9-0.6-8.7,1.3-11.6,4.4c-0.8,0.9-1.6,1.8-2.3,2.9
		c-4.1,6-6.3,14.5-7.6,20.2l0.5,0l22.7-0.5C873.8,924.9,869.4,916.3,869.4,916.3z"/>
	<path class="st29" d="M866.7,936.1c2.4-1,3.9-2.6,4.7-4.4l-22.6,0.5l-0.4,0c-0.6,2.7-1,4.7-1.3,5.7c-0.5,1.6-0.7,3.8-0.7,5.8
		c0.2-0.1,0.5-0.2,0.7-0.3C855,940.7,862.6,937.8,866.7,936.1z"/>
	<path class="st30" d="M736.5,827.5c-8.1,19.3-15.8,39.7-21,53.8c1.7-0.2,3.3-0.4,5-0.6c0.5-0.1,1-0.1,1.5-0.2
		c4.2-0.5,8.4-1.1,12.5-1.6c0.5-0.1,0.9-0.1,1.4-0.2c0.2,0,0.4-0.1,0.6-0.1c2.1-0.3,4.1-0.5,6.1-0.8c2.2-0.3,4.4-0.6,6.5-0.8
		c1.2-0.2,2.5-0.3,3.7-0.5c1.8-0.2,3.6-0.5,5.3-0.7s3.4-0.4,5-0.6c1.8-0.2,3.4-0.4,5-0.6c0.3,0,0.6-0.1,1-0.1c1.5-0.2,3-0.4,4.3-0.5
		c1.3-0.2,2.6-0.3,3.7-0.5c2.5-0.3,4.3-0.5,5.4-0.7c0,0,0.1,0,0.2,0l0,0l0,0c1-0.1,1.9-0.3,2.7-0.5c0.5-0.1,0.9-0.3,1.3-0.4
		c0.4-0.2,0.8-0.3,1.1-0.5c7.8-3.9,7.5-13.6,7.5-13.6s-0.8-54.7-19.8-67.8c-3.9-2.7-8.7-4-13.9-4.3c-0.7-0.1-1.5-0.1-2.2-0.1
		c-0.9,0-1.7,0-2.6,0C750.5,795.9,743.4,811.4,736.5,827.5z"/>
	<path class="st30" d="M649.6,889.9c0,0,1.4-0.2,3.8-0.5c0,0,0.1,0,0.1,0c0.5-0.1,1.1-0.1,1.7-0.2s1.3-0.2,2-0.3
		c1.4-0.2,3-0.4,4.8-0.6c1.2-0.2,2.4-0.3,3.8-0.5c6.6-0.8,14.8-1.9,23.7-3.1c3.6-0.5,7.3-0.9,11.1-1.4c2.8-0.4,5.7-0.7,8.6-1.1
		c0.5-1.4,1.1-2.9,1.7-4.6s1.2-3.3,1.8-5.1c1.8-4.8,3.7-10,5.8-15.7c0.8-2.2,1.7-4.5,2.6-6.8c0.5-1.2,0.9-2.3,1.4-3.5
		c3.7-9.4,7.7-19.3,11.8-28.8c2.9-6.7,5.8-13.2,8.7-19.2c1-2,1.9-3.9,2.9-5.8c1.2-2.3,2.3-4.4,3.4-6.5
		c-16.6,2.6-32.8,10.7-32.8,10.7c-6,3.7-12.1,8.8-18.1,14.7c-2,1.9-4,4-5.9,6.1c-0.2,0.2-0.3,0.4-0.5,0.6c-1.6,1.7-3.2,3.5-4.8,5.3
		c-1,1.2-2.1,2.4-3.1,3.7c-0.5,0.6-1,1.2-1.5,1.8c0,0-0.1,0.1-0.1,0.1c-2,2.4-4,4.9-5.8,7.4c-1.9,2.5-3.8,5-5.7,7.5
		c-0.9,1.2-1.8,2.5-2.7,3.7c-1.3,1.9-2.6,3.7-3.8,5.5c-0.4,0.6-0.8,1.2-1.2,1.8c-1.2,1.8-2.4,3.5-3.5,5.2c-0.8,1.1-1.5,2.2-2.2,3.3
		c-1.8,2.7-3.4,5.3-4.9,7.6c-0.6,0.9-1.2,1.8-1.7,2.7c-0.5,0.9-1,1.7-1.5,2.5c-3.6,6-5.7,9.7-5.7,9.7L649.6,889.9z"/>
	<path class="st31" d="M642.4,895.3L642.4,895.3L642.4,895.3z"/>
	<path class="st31" d="M643.7,878.3c-0.3,0.5-0.6,1-0.9,1.5c-0.8,4.1-0.4,15.5-0.4,15.6c0.2,0,4.3-0.6,11.1-1.5
		c12.2-1.6,32.8-4.4,54.2-7.3c2.1-0.3,4.2-0.6,6.3-0.8c7.6-1,15.2-2,22.5-3c22.9-3.1,42.3-5.6,47.2-6.2
		c13.9-1.7,13.4-16.6,13.4-16.6l0,0c0,0-0.9-60.3-21-74.7c-4.4-3.2-9.9-4.6-15.8-4.8c-2.5-0.1-5,0-7.5,0.2
		c-19.1,1.8-39.2,12.3-39.2,12.3c-9.1,5.9-18.5,14.8-27.3,24.9c-1.2,1.4-2.5,2.9-3.7,4.3C666.3,841.5,652,864.2,643.7,878.3
		C643.7,878.2,643.7,878.3,643.7,878.3C643.7,878.3,643.7,878.3,643.7,878.3z M761.6,785.8c5.2,0.3,10,1.6,13.9,4.3
		c19,13.1,19.8,67.8,19.8,67.8s0.3,9.7-7.5,13.6c-0.4,0.2-0.7,0.3-1.1,0.5c-0.4,0.2-0.9,0.3-1.3,0.4c-0.8,0.2-1.7,0.4-2.7,0.5l0,0
		c0,0-0.1,0-0.2,0c-1.1,0.1-3,0.4-5.4,0.7c-1.1,0.1-2.3,0.3-3.7,0.5c-1.3,0.2-2.8,0.3-4.3,0.5c-0.3,0-0.6,0.1-1,0.1
		c-1.6,0.2-3.3,0.4-5,0.6c-1.6,0.2-3.2,0.4-5,0.6c-1.7,0.2-3.5,0.5-5.3,0.7c-1.2,0.2-2.4,0.3-3.7,0.5c-2.1,0.3-4.3,0.5-6.5,0.8
		c-2,0.3-4,0.5-6.1,0.8c-0.2,0-0.4,0.1-0.6,0.1c-0.5,0.1-0.9,0.1-1.4,0.2c-4.1,0.5-8.3,1.1-12.5,1.6c-0.5,0.1-1,0.1-1.5,0.2
		c-1.7,0.2-3.3,0.4-5,0.6c5.2-14.2,12.8-34.6,21-53.8c6.8-16.2,14-31.6,20.2-41.9c0.9,0,1.7,0,2.6,0
		C760.1,785.7,760.9,785.7,761.6,785.8z M649.4,876.7c0.5-0.8,1-1.6,1.5-2.5c0.5-0.9,1.1-1.8,1.7-2.7c1.5-2.4,3.1-4.9,4.9-7.6
		c0.7-1.1,1.4-2.2,2.2-3.3c1.1-1.7,2.3-3.4,3.5-5.2c0.4-0.6,0.8-1.2,1.2-1.8c1.2-1.8,2.5-3.6,3.8-5.5c0.9-1.2,1.8-2.5,2.7-3.7
		c1.8-2.5,3.7-5,5.7-7.5c1.9-2.5,3.9-4.9,5.8-7.4c0,0,0.1-0.1,0.1-0.1c0.5-0.6,1-1.2,1.5-1.8c1-1.2,2.1-2.4,3.1-3.7
		c1.6-1.8,3.2-3.6,4.8-5.3c0.2-0.2,0.3-0.4,0.5-0.6c2-2.1,3.9-4.2,5.9-6.1c6-5.9,12.1-10.9,18.1-14.7c0,0,16.2-8.1,32.8-10.7l0,0
		c-1.1,2-2.3,4.2-3.4,6.4c-1,1.8-1.9,3.8-2.9,5.8c-2.9,6-5.8,12.5-8.7,19.2c-4.1,9.4-8.1,19.3-11.8,28.8c-0.5,1.2-0.9,2.3-1.4,3.5
		c-0.9,2.3-1.8,4.6-2.6,6.8c-2.1,5.6-4.1,10.9-5.8,15.7c-0.7,1.8-1.3,3.4-1.8,5.1s-1.1,3.1-1.7,4.6c-2.9,0.4-5.8,0.7-8.6,1.1
		c-3.8,0.5-7.5,1-11.1,1.4c-9,1.2-17.2,2.2-23.7,3.1c-1.3,0.2-2.6,0.3-3.8,0.5c-1.8,0.2-3.4,0.4-4.8,0.6c-0.7,0.1-1.4,0.2-2,0.3
		c-0.6,0.1-1.2,0.2-1.7,0.2c0,0-0.1,0-0.1,0c-2.5,0.3-3.8,0.5-3.8,0.5l-5.9-3.5C643.7,886.4,645.8,882.7,649.4,876.7z"/>
	<path class="st24" d="M787.9,871.4c-0.4,0.2-0.7,0.3-1.1,0.5"/>
	<path class="st24" d="M773.4,874c-1.3,0.2-2.8,0.3-4.3,0.5"/>
	<path class="st24" d="M782.5,872.9c-1.1,0.1-3,0.4-5.4,0.7"/>
	<path class="st24" d="M742.6,877.9c-2,0.3-4,0.5-6.1,0.8"/>
	<path class="st24" d="M752.8,876.6c-1.2,0.2-2.4,0.3-3.7,0.5"/>
	<path class="st24" d="M735.9,878.8c0.2,0,0.4,0,0.6-0.1"/>
	<path class="st24" d="M722,880.6c4.2-0.5,8.4-1.1,12.5-1.6"/>
	<path class="st24" d="M671,844.2c-0.9,1.2-1.8,2.5-2.7,3.7"/>
	<path class="st24" d="M676.7,836.7c-1.9,2.5-3.8,5-5.7,7.5"/>
	<path class="st24" d="M668.3,848c-1.3,1.9-2.6,3.7-3.8,5.5"/>
	<path class="st24" d="M698.5,811.7c-2,1.9-4,4-5.9,6.1"/>
	<path class="st24" d="M649.4,876.7c0.5-0.8,1-1.6,1.5-2.5"/>
	<path class="st24" d="M676.7,836.7c1.9-2.5,3.9-4.9,5.8-7.4"/>
	<path class="st24" d="M652.6,871.5c1.5-2.4,3.1-4.9,4.9-7.6"/>
	<path class="st24" d="M743.1,798.6c1-2,1.9-3.9,2.9-5.8"/>
	<path class="st24" d="M687.3,823.7c-1,1.2-2.1,2.4-3.1,3.7"/>
	<path class="st24" d="M710.9,877.6c0.6-1.6,1.2-3.3,1.8-5.1"/>
	<path class="st24" d="M692,818.4c0.2-0.2,0.3-0.4,0.5-0.6"/>
	<path class="st24" d="M721.2,850.1c0.5-1.2,0.9-2.3,1.4-3.5"/>
	<path class="st24" d="M712.7,872.6c1.8-4.8,3.7-10.1,5.8-15.7"/>
	<path class="st24" d="M682.6,829.2c0,0-0.1,0.1-0.1,0.1"/>
	<path class="st30" d="M1116.9,850.2l8.7,2.5c0.2-3.1,0.9-6.2,2.1-9c-0.2-1.2-0.3-2.3-0.3-3.5c0,0,0,0,0-0.1c-3.9,1-8,1.9-8.7,1.9
		C1117.4,842,1116.9,850.2,1116.9,850.2z"/>
	<path class="st30" d="M1128.3,806.1c-0.1-3.1,0.3-6.1,1.2-8.9c-0.7-2.4-1.1-4.9-1.2-7.5c-0.1-1.9,0.1-3.7,0.4-5.5
		c-0.2-1.9-0.4-3.8-0.6-5.7c-0.1-0.5-0.1-1-0.1-1.5v0c-6.6,0-14.6-0.1-23.9-0.1c-0.7,0-1.4,0-2,0c-23.9-0.1-54.9-0.3-86-0.4
		c-7.9,0-15.8-0.1-23.6-0.1c-47.9-0.1-91.3-0.1-103.3,0.4c-1.1,0-1.9,0.1-2.4,0.1h-68.3c0,0-4.4,1.5-8.3,4c-2.1,1.4-4.1,3.1-5.1,5.1
		c-0.2,0.6-0.2,1.2-0.1,1.8c0.7,7.5,22.2,55,29,60.8c4.3,3.8,11.1,5.4,19.2,5.7c0.3,0.4,0.7,0.7,1.1,1c0.1,0,0.1,0.1,0.2,0.2
		c3.9,0,8.1-0.2,12.4-0.7c2.4-0.3,11.5-0.7,24.9-1.1v11.9v1.1v0.1l8.7,1.6c0,0,0-0.1,0-0.2c0-0.2,0-0.6,0-1.1
		c0-2.5,0.1-8.2-0.1-13.7c2.9-0.1,6-0.2,9.1-0.3c5.3-0.2,10.9-0.3,16.8-0.5l0,0c9.6-0.3,19.8-0.5,30.5-0.8c0.2-0.1,0.4-0.1,0.6-0.2
		c1.3-0.3,2.6-0.7,3.8-0.9l0,0c9.5-2.1,15.3-1.5,24.1-0.6c0.4,0,0.7,0.1,1.1,0.1c6-0.2,12.2-0.1,18.8,0.2c0.8,0,1.6,0.1,2.4,0.1l0,0
		c0,0,3.7-0.1,9.9-0.2c3.5-0.1,6.9-0.2,10.4-0.2c0.4,0,0.8,0,1.2,0c23.4-0.5,45.2-1,61.9-1.4l-0.2-0.2l-55.5-41h87.2l7,16.4
		c-0.1-0.7-0.1-1.3-0.1-2c-0.1-2.5,0.2-5,0.7-7.3C1129,812.1,1128.4,809.2,1128.3,806.1z"/>
	<path class="st32" d="M779.1,1061c1.3-8.7,2.1-18.6,2.1-29c0-8.1-0.5-15.9-1.3-23.1c-1.2-10.9-3.4-20.4-6.1-27.6
		c-2.7-7.2-6.1-12-9.7-13.4c-0.7-0.3-1.4-0.4-2.2-0.4c-0.1,0-0.2,0-0.4,0c-1.7,0.1-3.4,1-5,2.5c-2.5,2.4-4.8,6.6-6.8,12
		c-2.6,7.1-4.6,16.5-5.8,27.2c-0.8,7.1-1.2,14.7-1.2,22.7c0,10.7,0.8,20.7,2.1,29.6c0.5,3.2,1.1,6.3,1.7,9.2
		c1.7,7.5,3.9,13.7,6.3,18.2c2.6,4.6,5.5,7.3,8.7,7.5c0.1,0,0.2,0,0.2,0c0,0,0.1,0,0.1,0c0.1,0,0.2,0,0.3,0
		C769.6,1095.9,775.9,1081.7,779.1,1061z M761.7,1084.6c0,0-0.1,0-0.1,0c-1.8-0.1-3.5-1.4-5-3.9c-2.5-4-4.6-10.7-6.1-19.3
		c-1.5-8.6-2.4-18.9-2.4-30.1c0-7.9,0.5-15.4,1.2-22.1c1.4-12.3,4-22.1,7.3-27.2c0-0.1,0.1-0.1,0.1-0.2c1.5-2.3,3.2-3.6,4.9-3.7
		c0,0,0.1,0,0.1,0c1.7,0,3.3,1.2,4.8,3.4c3.3,4.9,6.1,14.8,7.6,27.4c0.8,6.8,1.3,14.4,1.3,22.4c0,11-0.9,21.2-2.3,29.7
		C770.6,1075.3,766.4,1084.6,761.7,1084.6z"/>
	<path class="st32" d="M562.3,1046.7c2.2,5.2,4.8,8.7,7.7,9.9c0.7,0.3,1.3,0.4,2,0.4c0.5,0,1-0.1,1.5-0.2c0.2-0.1,0.5-0.2,0.8-0.3
		c0.7-0.3,1.4-0.8,2-1.3c6-5.3,10.6-21.2,12-41.4c0.3-4.2,0.5-8.5,0.5-12.9c0-4.2-0.1-8.3-0.4-12.2c-0.7-10.1-2.2-19.2-4.2-26.4
		c-1.2-4.3-2.7-8-4.2-10.9c-0.1-0.1-0.1-0.2-0.2-0.3c-2.3-4-4.9-6.3-7.7-6.3c-0.2,0-0.3,0-0.5,0c-2.5,0.2-4.9,2.3-7,5.8
		c-0.4,0.7-0.9,1.5-1.3,2.4c-1.1,2.3-2.1,5-3.1,8c-0.1,0.3-0.2,0.6-0.3,0.9c-2.2,7.7-3.8,17.4-4.4,28.3c-0.2,3.5-0.3,7-0.3,10.7
		c0,5.1,0.2,10,0.6,14.6c0.4,4.9,1,9.6,1.8,13.9c0.5,3.1,1.2,5.9,1.9,8.6c0.3,1.3,0.7,2.6,1.1,3.8
		C561.1,1043.5,561.7,1045.2,562.3,1046.7z M571.5,955.1c0.2,0,0.3-0.1,0.5-0.1c2.3,0,4.5,2.5,6.3,6.8c2.6,6,4.5,15.5,5.4,26.9
		c0.3,4.4,0.5,9.1,0.5,13.9c0,3.9-0.1,7.7-0.3,11.3c-1.2,18.8-5.2,33.2-10.2,35.8c-0.5,0.3-1.1,0.5-1.7,0.5c-0.2,0-0.3,0-0.5-0.1
		c-1.3-0.2-2.6-1.2-3.8-2.8c-3.7-5.3-6.6-17.3-7.6-32.2c-0.3-4-0.4-8.2-0.4-12.5c0-4.4,0.2-8.7,0.5-12.8c0.9-12.2,3-22.5,5.8-28.6
		C567.6,957.6,569.5,955.4,571.5,955.1z"/>
	<path class="st33" d="M559.7,1002.6c0,4.3,0.2,8.5,0.4,12.5c1,14.9,3.9,26.9,7.6,32.2c1.2,1.7,2.4,2.7,3.8,2.8
		c0.2,0,0.3,0.1,0.5,0.1c0.6,0,1.1-0.2,1.7-0.5c5-2.7,9-17.1,10.2-35.8c0.2-3.6,0.3-7.4,0.3-11.3c0-4.8-0.2-9.5-0.5-13.9
		c-0.9-11.3-2.8-20.9-5.4-26.9c-1.8-4.3-4-6.8-6.3-6.8c-0.2,0-0.3,0-0.5,0.1c-2,0.3-3.9,2.5-5.6,6.1c-2.8,6.1-4.9,16.4-5.8,28.6
		C559.9,993.9,559.7,998.2,559.7,1002.6z"/>
	<path class="st30" d="M627.5,891.4c0,0,3.5,3.9,7.1,3.9c3.4,0,7.5,0,7.8,0l0,0c0,0,0,0,0,0l0,0c0-0.1-0.5-11.4,0.4-15.6
		c0.2-1,0.5-1.6,0.9-1.5c0,0,0,0,0,0c0,0,0,0,0-0.1c0.2-1,2.3-11.7-3.3-15.9c-1.1-0.8-2.5-1.4-4.2-1.6c-11.1-1.4-25.4,0.5-25.4,8.9
		c0,7,11.3,12.9,15.3,14.8c0.9,0.4,1.4,0.6,1.4,0.6L627.5,891.4L627.5,891.4z M618.3,868.6c0,0,13.3-4.5,19.4-2.2
		c0.2,0.1,0.4,0.2,0.6,0.2c0,0,3.3,8.7,0,11.2c0,0-3.4-0.2-7.5-0.7C623.5,876.1,614.2,873.7,618.3,868.6z"/>
	<path class="st34" d="M638.2,866.6c-0.2-0.1-0.4-0.2-0.6-0.2c-6.1-2.3-19.4,2.2-19.4,2.2c-4.1,5.2,5.2,7.5,12.4,8.5
		c4.1,0.6,7.5,0.7,7.5,0.7C641.6,875.3,638.2,866.6,638.2,866.6z"/>
	<path class="st33" d="M775.3,1031.4c0-8-0.5-15.6-1.3-22.4c-1.5-12.6-4.2-22.5-7.6-27.4c-1.5-2.2-3.1-3.4-4.8-3.4c0,0-0.1,0-0.1,0
		c-1.7,0.1-3.4,1.4-4.9,3.7c0,0.1-0.1,0.1-0.1,0.2c-3.2,5.1-5.8,14.9-7.3,27.2c-0.8,6.7-1.2,14.2-1.2,22.1c0,11.2,0.9,21.5,2.4,30.1
		c1.5,8.6,3.6,15.3,6.1,19.3c1.5,2.4,3.2,3.8,5,3.9c0,0,0.1,0,0.1,0c4.7,0,8.9-9.3,11.3-23.5
		C774.5,1052.6,775.3,1042.4,775.3,1031.4z"/>
	<path class="st1" d="M1055.3,851.3c24,0.7,51.8,2.6,70.6,7.4c0-0.2-0.1-0.4-0.1-0.6c-17.1-4.4-41.6-6.3-63.9-7.2
		C1059.7,851,1057.5,851.2,1055.3,851.3z"/>
	<path class="st35" d="M1055.3,851.3c24,0.7,51.8,2.6,70.6,7.4c0-0.2-0.1-0.4-0.1-0.6c-17.1-4.4-41.6-6.3-63.9-7.2
		C1059.7,851,1057.5,851.2,1055.3,851.3z"/>
	<path class="st1" d="M1094.1,906.2L1094.1,906.2c-0.5-1.5-4-4.3-4-4.3l0,0C1090.1,902,1093.6,904.8,1094.1,906.2z"/>
	<path class="st35" d="M1094.1,906.2L1094.1,906.2c-0.5-1.5-4-4.3-4-4.3l0,0C1090.1,902,1093.6,904.8,1094.1,906.2z"/>
	<path class="st1" d="M1094.6,925.2L1094.6,925.2c0.1-2.4,0-4.8,0-7l0,0C1094.6,920.4,1094.7,922.8,1094.6,925.2z"/>
	<path class="st35" d="M1094.6,925.2L1094.6,925.2c0.1-2.4,0-4.8,0-7l0,0C1094.6,920.4,1094.7,922.8,1094.6,925.2z"/>
	<polygon class="st1" points="911.7,903.1 911.6,902.3 876.7,903.2 876.2,904 	"/>
	<polygon class="st35" points="911.7,903.1 911.6,902.3 876.7,903.2 876.2,904 	"/>
	<path class="st1" d="M1100.9,852c-2.2-0.2-4.5-0.5-6.8-0.6l1,0.7C1095.1,852.1,1097.3,851.9,1100.9,852z"/>
	<path class="st35" d="M1100.9,852c-2.2-0.2-4.5-0.5-6.8-0.6l1,0.7C1095.1,852.1,1097.3,851.9,1100.9,852z"/>
	<polygon class="st1" points="913.1,913.2 911.9,903.6 911.9,903.6 	"/>
	<polygon class="st35" points="913.1,913.2 911.9,903.6 911.9,903.6 	"/>
	<path class="st2" d="M1094.1,906.6c0,0.5,0.4,5.3,0.5,11.7l0,0C1094.5,911.9,1094.1,907,1094.1,906.6c0-0.1,0-0.2-0.1-0.3l0,0
		C1094.1,906.4,1094.1,906.5,1094.1,906.6z"/>
	<path class="st35" d="M1094.1,906.6c0,0.5,0.4,5.3,0.5,11.7l0,0C1094.5,911.9,1094.1,907,1094.1,906.6c0-0.1,0-0.2-0.1-0.3l0,0
		C1094.1,906.4,1094.1,906.5,1094.1,906.6z"/>
	<path class="st2" d="M1106.5,939.9c0,0.7,0,1.1,0,1.1s2,5.8,4,7.2c0.6,0.4,7.4,0.6,16.7,0.6c0.1-0.4,0.1-0.7,0.2-1.1
		c-9.4,0-16.3-0.2-16.9-0.6C1108.5,945.7,1106.5,939.9,1106.5,939.9z"/>
	<path class="st35" d="M1106.5,939.9c0,0.7,0,1.1,0,1.1s2,5.8,4,7.2c0.6,0.4,7.4,0.6,16.7,0.6c0.1-0.4,0.1-0.7,0.2-1.1
		c-9.4,0-16.3-0.2-16.9-0.6C1108.5,945.7,1106.5,939.9,1106.5,939.9z"/>
	<path class="st2" d="M1090.4,948.8c0,0-0.9,5.4-10,6.4l0,0C1089.5,954.2,1090.4,948.8,1090.4,948.8c3.1-4.3,4-14.3,4.2-23.6l0,0
		C1094.4,934.4,1093.5,944.5,1090.4,948.8z"/>
	<path class="st35" d="M1090.4,948.8c0,0-0.9,5.4-10,6.4l0,0C1089.5,954.2,1090.4,948.8,1090.4,948.8c3.1-4.3,4-14.3,4.2-23.6l0,0
		C1094.4,934.4,1093.5,944.5,1090.4,948.8z"/>
	<path class="st2" d="M915.2,930.6l1.4,0c0-0.2,0-0.4,0-0.6l-1.3,0l-2.1-16.9l0,0l2.1,16.9l-43.5,1.1c-0.1,0.2-0.2,0.4-0.2,0.6
		L915.2,930.6z"/>
	<path class="st35" d="M915.2,930.6l1.4,0c0-0.2,0-0.4,0-0.6l-1.3,0l-2.1-16.9l0,0l2.1,16.9l-43.5,1.1c-0.1,0.2-0.2,0.4-0.2,0.6
		L915.2,930.6z"/>
	<path class="st2" d="M990.9,955.2c0.4,0,0.6,0,0.6,0l0,0C991.5,955.2,991.3,955.2,990.9,955.2z"/>
	<path class="st35" d="M990.9,955.2c0.4,0,0.6,0,0.6,0l0,0C991.5,955.2,991.3,955.2,990.9,955.2z"/>
	<path class="st2" d="M1092.8,953.4c-0.2,0.4-0.6,0.8-0.9,1.3C1092.2,954.2,1092.5,953.8,1092.8,953.4z"/>
	<path class="st35" d="M1092.8,953.4c-0.2,0.4-0.6,0.8-0.9,1.3C1092.2,954.2,1092.5,953.8,1092.8,953.4z"/>
	<path class="st2" d="M1089.2,956.9c-0.7,0.4-1.5,0.8-2.4,1.2C1087.7,957.7,1088.5,957.3,1089.2,956.9z"/>
	<path class="st35" d="M1089.2,956.9c-0.7,0.4-1.5,0.8-2.4,1.2C1087.7,957.7,1088.5,957.3,1089.2,956.9z"/>
	<path class="st2" d="M946.6,929.9l18.5-0.5c0,0,0,0,0,0c0-0.2,0-0.4,0-0.6l-18.4,0.4C946.7,929.5,946.7,929.7,946.6,929.9z"/>
	<path class="st35" d="M946.6,929.9l18.5-0.5c0,0,0,0,0,0c0-0.2,0-0.4,0-0.6l-18.4,0.4C946.7,929.5,946.7,929.7,946.6,929.9z"/>
	<path class="st1" d="M948.9,854.5c-1.4,0.5-2.9,1-4.4,1.5c4.9-1.1,10.2-2.1,15.8-2.9c0.1-0.2,0.1-0.4,0.2-0.6
		C956.4,853.1,952.6,853.7,948.9,854.5z"/>
	<path class="st35" d="M948.9,854.5c-1.4,0.5-2.9,1-4.4,1.5c4.9-1.1,10.2-2.1,15.8-2.9c0.1-0.2,0.1-0.4,0.2-0.6
		C956.4,853.1,952.6,853.7,948.9,854.5z"/>
	<path class="st4" d="M968.8,851.7c-0.7,0.1-1.4,0.1-2.1,0.2c-0.5,0-1.1,0-1.6,0c-1.5,0.2-3.1,0.4-4.6,0.6l0,0
		c-0.1,0.2-0.1,0.4-0.2,0.6l0,0c2.1-0.3,4.2-0.6,6.4-0.8c9.5-0.2,19.3-0.5,29-0.7c-1.6-0.1-3.2-0.3-4.6-0.4
		C983.6,851.3,976.1,851.5,968.8,851.7z"/>
	<path class="st35" d="M968.8,851.7c-0.7,0.1-1.4,0.1-2.1,0.2c-0.5,0-1.1,0-1.6,0c-1.5,0.2-3.1,0.4-4.6,0.6l0,0
		c-0.1,0.2-0.1,0.4-0.2,0.6l0,0c2.1-0.3,4.2-0.6,6.4-0.8c9.5-0.2,19.3-0.5,29-0.7c-1.6-0.1-3.2-0.3-4.6-0.4
		C983.6,851.3,976.1,851.5,968.8,851.7z"/>
	<path class="st4" d="M946.6,929.9c0-0.2,0.1-0.4,0.1-0.6l-30.3,0.7c0,0.2,0,0.4,0,0.6L946.6,929.9z"/>
	<path class="st35" d="M946.6,929.9c0-0.2,0.1-0.4,0.1-0.6l-30.3,0.7c0,0.2,0,0.4,0,0.6L946.6,929.9z"/>
	<path class="st4" d="M1034.8,1066.7l-67.3,3c22.5-0.7,45.5-1.5,67.6-2.3C1035.1,1067.2,1035,1067,1034.8,1066.7z"/>
	<path class="st35" d="M1034.8,1066.7l-67.3,3c22.5-0.7,45.5-1.5,67.6-2.3C1035.1,1067.2,1035,1067,1034.8,1066.7z"/>
	<path d="M813.2,1072.3c-0.2-1.9-0.6-5.3-1.2-9.6C810.3,1066.6,809.5,1070.3,813.2,1072.3z"/>
	<path class="st35" d="M813.2,1072.3c-0.2-1.9-0.6-5.3-1.2-9.6C810.3,1066.6,809.5,1070.3,813.2,1072.3z"/>
	<path d="M1122.6,1062.8l-51.1,2.3l-36.7,1.6c0.1,0.2,0.2,0.5,0.4,0.7c12.5-0.4,24.7-0.8,36.3-1.3c18.2-0.6,35-1.2,49.4-1.7
		c1.4-0.1,2.7-0.1,4-0.1c0-0.1,0-0.2,0-0.3c0-0.4,0-0.8,0-1.2L1122.6,1062.8z"/>
	<path class="st35" d="M1122.6,1062.8l-51.1,2.3l-36.7,1.6c0.1,0.2,0.2,0.5,0.4,0.7c12.5-0.4,24.7-0.8,36.3-1.3
		c18.2-0.6,35-1.2,49.4-1.7c1.4-0.1,2.7-0.1,4-0.1c0-0.1,0-0.2,0-0.3c0-0.4,0-0.8,0-1.2L1122.6,1062.8z"/>
	<path class="st27" d="M1095.1,852.1l-1-0.7c-9.3-0.7-19.9-0.9-32.2-0.4c22.3,0.8,46.8,2.8,63.9,7.2c-0.1-0.4-0.1-0.9-0.2-1.3
		c-6.7-2-14.8-3.7-24.8-4.8C1097.3,851.9,1095.1,852.1,1095.1,852.1z"/>
	<path class="st35" d="M1095.1,852.1l-1-0.7c-9.3-0.7-19.9-0.9-32.2-0.4c22.3,0.8,46.8,2.8,63.9,7.2c-0.1-0.4-0.1-0.9-0.2-1.3
		c-6.7-2-14.8-3.7-24.8-4.8C1097.3,851.9,1095.1,852.1,1095.1,852.1z"/>
	<path class="st27" d="M960.5,852.5L960.5,852.5c1.5-0.2,3-0.4,4.6-0.6c-1.5,0-2.9,0.1-4.4,0.1l0,0c-1.3,0-2.7,0.1-4,0.1
		c-2.3,0.6-4.9,1.4-7.8,2.3C952.6,853.7,956.4,853.1,960.5,852.5z"/>
	<path class="st35" d="M960.5,852.5L960.5,852.5c1.5-0.2,3-0.4,4.6-0.6c-1.5,0-2.9,0.1-4.4,0.1l0,0c-1.3,0-2.7,0.1-4,0.1
		c-2.3,0.6-4.9,1.4-7.8,2.3C952.6,853.7,956.4,853.1,960.5,852.5z"/>
	<path class="st27" d="M1053.4,851.4c-10.3,0.7-19,1-26.6,1.1c-13.8,0.2-23.6-0.3-31.1-0.9c-9.7,0.2-19.5,0.5-29,0.7
		c-2.2,0.2-4.3,0.5-6.4,0.8l0,0c-5.6,0.8-10.9,1.8-15.8,2.9c-1.8,0.6-3.7,1.3-5.7,2c-4.4,1.6-8.5,3.2-12.2,4.7l0,0
		c-6.1,2.4-11.2,4.6-15.5,6.6c-0.8,0.3-1.5,0.7-2.2,1c-0.4,0.2-0.7,0.3-1.1,0.5c-18.7,9-20.5,13.6-20.5,13.6l-10.4,18.7l34.9-0.9
		l0.1,0.8h0.1l0.1,0.6l0,0l-0.1-0.6l2.4-0.1l15.5-0.4l0,0l14.5-0.4l0,0l9.6-0.2l3-0.1c0,0,3.9,6.2,6.4,15c1,3.6,1.8,7.7,1.9,11.9
		l0,0h0c0,0.2,0,0.4,0,0.6c0,0,0,0,0,0h0c0.2,4.5-0.4,9.3-2.1,14c0,0-3,6.6-12.7,8h0h-6h-26.2h-0.2h-0.3h0h-70.7
		c0,0-0.7-3.8-0.7-7.7c-12.4,4.4-25.5,8.8-27.7,8.8c-3.6,0-51.6,6.6-43.6,8.8c2,0.6,4.8,2.2,7.9,4.6c0.3,0.3,0.7,0.5,1.1,0.8
		c2.1,1.7,4.4,3.6,6.6,5.7c2.7,2.6,5.3,5.3,7.6,8.1c2.8,3.3,5,6.6,6.2,9.3c0.4,0.8,0.7,1.7,0.8,2.4c0.6,2.8,2,9.1,3.6,16.5
		c2.8,12.5,6.2,28.3,7.4,36.8c0.3,2.2,0.5,3.9,0.5,5c0,2.7-2,6.3-3.8,9.8c-0.4,0.8-0.8,1.5-1.1,2.3c0.6,4.4,1,7.7,1.2,9.6
		c1.4,0.7,3.5,1.2,6.3,1.4c1.2,0.1,3.5,0.1,7,0.1c14.1-0.1,46.1-1,85.2-2.2c13-0.4,26.9-0.8,41.1-1.3c4.9-0.2,9.8-0.3,14.8-0.5
		l67.3-3l36.7-1.6l51.1-2.3c0.8-0.8,1.6-1.5,2.4-2.3c0,0,0,0,0,0c0.1-3.4,0.3-6.9,0.6-10.4c0-0.3,0-0.6,0.1-0.9
		c0.1-1.2,0.2-2.5,0.3-3.7c0.1-0.7,0.1-1.4,0.2-2.1c0.1-0.8,0.1-1.6,0.2-2.5c0.1-0.6,0.1-1.2,0.1-1.8c0-0.2,0-0.4,0.1-0.6
		c0.7-8.6,1.6-17.2,2.4-25.9c-0.8-2.2-1.3-4.4-1.7-6.7c-0.1-1-0.2-2.1-0.3-3.2c-0.1-2.9,0.2-5.7,1-8.3c-0.4-1.6-0.7-3.2-0.8-4.8
		c-0.1-0.7-0.1-1.3-0.2-1.9c-0.1-2.4,0.1-4.8,0.7-7c-0.1-0.6-0.2-1.3-0.3-1.9c-0.1-0.9-0.2-1.7-0.3-2.6c0-0.2,0-0.5-0.1-0.8
		c-0.1-1,0-2.1,0.1-3.1c0.2-2.4,0.7-4.7,1.5-6.9c0.2-0.5,0.4-1,0.6-1.5c-1.2-3.2-2-6.8-2.1-10.4c-0.1-1.7,0-3.3,0.3-5
		c-9.3,0-16.1-0.2-16.7-0.6c-2-1.4-4-7.2-4-7.2s0-0.4,0-1.1l0,0c0,0-0.1-6.8-0.2-14.4l0,0c0,0,0,0,0-0.1c0-2.2,0-4.4,0-6.5
		c0-4.7,0.1-9.1,0.2-11.7c0-0.8,0.1-1.4,0.2-2.1c0.9-6,3.8-6.2,3.8-6.2l15.1,0.4c0-0.1,0-0.2,0-0.3c-0.2-3.8,0.5-7.4,1.8-10.8
		c-0.2-1.4-0.4-2.8-0.5-4.3c-0.1-2.9,0.2-5.8,1.1-8.5c-0.3-1.6-0.5-3.3-0.6-5c-0.1-1.7,0-3.3,0.3-5c-0.8-2.2-1.4-4.5-1.8-6.9
		c-18.8-4.8-46.6-6.7-70.6-7.4C1054.7,851.3,1054,851.4,1053.4,851.4z M1095.3,892.7c0.4,0.5,0.8,0.9,1.2,1.4
		c0.1,0.2,0.2,0.3,0.4,0.5c0.4,0.5,0.7,0.9,0.8,1.4c0.1,0.3,0.2,0.5,0.2,0.7c0,0.5,0.2,4,0.4,9.1c0.1,3.6,0.2,8,0.2,12.7
		c0,2.2-0.1,4.5-0.2,6.8c-0.4,10.3-1.5,20.6-4.4,25.4c0,0,0,0.2-0.2,0.7c-0.1,0.3-0.2,0.6-0.4,1c-0.1,0.3-0.3,0.7-0.6,1
		c-0.2,0.4-0.6,0.8-0.9,1.3c-0.1,0.2-0.3,0.4-0.5,0.5s-0.4,0.4-0.6,0.5c-0.1,0.1-0.1,0.1-0.2,0.2c-0.4,0.3-0.8,0.7-1.3,0.9
		c-0.7,0.4-1.5,0.8-2.4,1.2c-1.1,0.4-2.3,0.7-3.8,0.9h-95.8c0,0-9.8,1.1-12.5-10.9l-3.5-30.2l-1.9-16.3c0,0,0-10.6,9.1-10.6h115.1
		C1093.5,890.8,1094.3,891.6,1095.3,892.7z"/>
	<path class="st35" d="M1053.4,851.4c-10.3,0.7-19,1-26.6,1.1c-13.8,0.2-23.6-0.3-31.1-0.9c-9.7,0.2-19.5,0.5-29,0.7
		c-2.2,0.2-4.3,0.5-6.4,0.8l0,0c-5.6,0.8-10.9,1.8-15.8,2.9c-1.8,0.6-3.7,1.3-5.7,2c-4.4,1.6-8.5,3.2-12.2,4.7l0,0
		c-6.1,2.4-11.2,4.6-15.5,6.6c-0.8,0.3-1.5,0.7-2.2,1c-0.4,0.2-0.7,0.3-1.1,0.5c-18.7,9-20.5,13.6-20.5,13.6l-10.4,18.7l34.9-0.9
		l0.1,0.8h0.1l0.1,0.6l0,0l-0.1-0.6l2.4-0.1l15.5-0.4l0,0l14.5-0.4l0,0l9.6-0.2l3-0.1c0,0,3.9,6.2,6.4,15c1,3.6,1.8,7.7,1.9,11.9
		l0,0h0c0,0.2,0,0.4,0,0.6c0,0,0,0,0,0h0c0.2,4.5-0.4,9.3-2.1,14c0,0-3,6.6-12.7,8h0h-6h-26.2h-0.2h-0.3h0h-70.7
		c0,0-0.7-3.8-0.7-7.7c-12.4,4.4-25.5,8.8-27.7,8.8c-3.6,0-51.6,6.6-43.6,8.8c2,0.6,4.8,2.2,7.9,4.6c0.3,0.3,0.7,0.5,1.1,0.8
		c2.1,1.7,4.4,3.6,6.6,5.7c2.7,2.6,5.3,5.3,7.6,8.1c2.8,3.3,5,6.6,6.2,9.3c0.4,0.8,0.7,1.7,0.8,2.4c0.6,2.8,2,9.1,3.6,16.5
		c2.8,12.5,6.2,28.3,7.4,36.8c0.3,2.2,0.5,3.9,0.5,5c0,2.7-2,6.3-3.8,9.8c-0.4,0.8-0.8,1.5-1.1,2.3c0.6,4.4,1,7.7,1.2,9.6
		c1.4,0.7,3.5,1.2,6.3,1.4c1.2,0.1,3.5,0.1,7,0.1c14.1-0.1,46.1-1,85.2-2.2c13-0.4,26.9-0.8,41.1-1.3c4.9-0.2,9.8-0.3,14.8-0.5
		l67.3-3l36.7-1.6l51.1-2.3c0.8-0.8,1.6-1.5,2.4-2.3c0,0,0,0,0,0c0.1-3.4,0.3-6.9,0.6-10.4c0-0.3,0-0.6,0.1-0.9
		c0.1-1.2,0.2-2.5,0.3-3.7c0.1-0.7,0.1-1.4,0.2-2.1c0.1-0.8,0.1-1.6,0.2-2.5c0.1-0.6,0.1-1.2,0.1-1.8c0-0.2,0-0.4,0.1-0.6
		c0.7-8.6,1.6-17.2,2.4-25.9c-0.8-2.2-1.3-4.4-1.7-6.7c-0.1-1-0.2-2.1-0.3-3.2c-0.1-2.9,0.2-5.7,1-8.3c-0.4-1.6-0.7-3.2-0.8-4.8
		c-0.1-0.7-0.1-1.3-0.2-1.9c-0.1-2.4,0.1-4.8,0.7-7c-0.1-0.6-0.2-1.3-0.3-1.9c-0.1-0.9-0.2-1.7-0.3-2.6c0-0.2,0-0.5-0.1-0.8
		c-0.1-1,0-2.1,0.1-3.1c0.2-2.4,0.7-4.7,1.5-6.9c0.2-0.5,0.4-1,0.6-1.5c-1.2-3.2-2-6.8-2.1-10.4c-0.1-1.7,0-3.3,0.3-5
		c-9.3,0-16.1-0.2-16.7-0.6c-2-1.4-4-7.2-4-7.2s0-0.4,0-1.1l0,0c0,0-0.1-6.8-0.2-14.4l0,0c0,0,0,0,0-0.1c0-2.2,0-4.4,0-6.5
		c0-4.7,0.1-9.1,0.2-11.7c0-0.8,0.1-1.4,0.2-2.1c0.9-6,3.8-6.2,3.8-6.2l15.1,0.4c0-0.1,0-0.2,0-0.3c-0.2-3.8,0.5-7.4,1.8-10.8
		c-0.2-1.4-0.4-2.8-0.5-4.3c-0.1-2.9,0.2-5.8,1.1-8.5c-0.3-1.6-0.5-3.3-0.6-5c-0.1-1.7,0-3.3,0.3-5c-0.8-2.2-1.4-4.5-1.8-6.9
		c-18.8-4.8-46.6-6.7-70.6-7.4C1054.7,851.3,1054,851.4,1053.4,851.4z M1095.3,892.7c0.4,0.5,0.8,0.9,1.2,1.4
		c0.1,0.2,0.2,0.3,0.4,0.5c0.4,0.5,0.7,0.9,0.8,1.4c0.1,0.3,0.2,0.5,0.2,0.7c0,0.5,0.2,4,0.4,9.1c0.1,3.6,0.2,8,0.2,12.7
		c0,2.2-0.1,4.5-0.2,6.8c-0.4,10.3-1.5,20.6-4.4,25.4c0,0,0,0.2-0.2,0.7c-0.1,0.3-0.2,0.6-0.4,1c-0.1,0.3-0.3,0.7-0.6,1
		c-0.2,0.4-0.6,0.8-0.9,1.3c-0.1,0.2-0.3,0.4-0.5,0.5s-0.4,0.4-0.6,0.5c-0.1,0.1-0.1,0.1-0.2,0.2c-0.4,0.3-0.8,0.7-1.3,0.9
		c-0.7,0.4-1.5,0.8-2.4,1.2c-1.1,0.4-2.3,0.7-3.8,0.9h-95.8c0,0-9.8,1.1-12.5-10.9l-3.5-30.2l-1.9-16.3c0,0,0-10.6,9.1-10.6h115.1
		C1093.5,890.8,1094.3,891.6,1095.3,892.7z"/>
	<path class="st27" d="M991,851.1c-1.7-0.2-3.3-0.4-4.8-0.5c-6.1,0.2-11.9,0.5-17.4,1.1C976.1,851.5,983.6,851.3,991,851.1z"/>
	<path class="st35" d="M991,851.1c-1.7-0.2-3.3-0.4-4.8-0.5c-6.1,0.2-11.9,0.5-17.4,1.1C976.1,851.5,983.6,851.3,991,851.1z"/>
	<path class="st30" d="M960.7,852c1.5,0,2.9-0.1,4.4-0.1c0.5,0,1.1,0,1.6,0c0.7-0.1,1.4-0.1,2.1-0.2c5.5-0.5,11.3-0.9,17.4-1.1
		c-0.4,0-0.7-0.1-1.1-0.1c-8.8-1-14.6-1.5-24.1,0.6l0,0c-1.2,0.3-2.4,0.6-3.8,0.9c-0.2,0.1-0.4,0.1-0.6,0.2
		C958,852.1,959.3,852.1,960.7,852L960.7,852z"/>
	<path class="st35" d="M960.7,852c1.5,0,2.9-0.1,4.4-0.1c0.5,0,1.1,0,1.6,0c0.7-0.1,1.4-0.1,2.1-0.2c5.5-0.5,11.3-0.9,17.4-1.1
		c-0.4,0-0.7-0.1-1.1-0.1c-8.8-1-14.6-1.5-24.1,0.6l0,0c-1.2,0.3-2.4,0.6-3.8,0.9c-0.2,0.1-0.4,0.1-0.6,0.2
		C958,852.1,959.3,852.1,960.7,852L960.7,852z"/>
	<path class="st28" d="M1106.7,905.2c-0.1,0.6-0.2,1.3-0.2,2.1c-0.1,2.6-0.2,7-0.2,11.7c0,2.2,0,4.4,0,6.5c0,0,0,0.1,0,0.1l0,0h0
		h5.8h15.2c-0.2-1.1-0.2-2.1-0.3-3.2c0-0.8,0-1.7,0-2.5c0.1-2.8,0.8-5.5,1.7-8.1c-1-2.2-1.8-4.5-2.4-6.9c-0.3-1.4-0.6-2.9-0.7-4.4
		c0-0.4-0.1-0.7-0.1-1.1l-15.1-0.4C1110.5,898.9,1107.6,899.2,1106.7,905.2z"/>
	<path class="st35" d="M1106.7,905.2c-0.1,0.6-0.2,1.3-0.2,2.1c-0.1,2.6-0.2,7-0.2,11.7c0,2.2,0,4.4,0,6.5c0,0,0,0.1,0,0.1l0,0h0
		h5.8h15.2c-0.2-1.1-0.2-2.1-0.3-3.2c0-0.8,0-1.7,0-2.5c0.1-2.8,0.8-5.5,1.7-8.1c-1-2.2-1.8-4.5-2.4-6.9c-0.3-1.4-0.6-2.9-0.7-4.4
		c0-0.4-0.1-0.7-0.1-1.1l-15.1-0.4C1110.5,898.9,1107.6,899.2,1106.7,905.2z"/>
	<path class="st29" d="M1106.3,925.5L1106.3,925.5c0,7.6,0.2,14.4,0.2,14.4l0,0c0,0,2,5.8,4,7.2c0.6,0.4,7.5,0.6,16.9,0.6
		c0-0.2,0.1-0.4,0.1-0.6c-1.1-3.1-1.8-6.4-1.9-9.8c-0.2-3.8,0.5-7.4,1.9-10.8c-0.1-0.3-0.1-0.6-0.2-0.9c0,0,0,0,0-0.1h-15.2
		L1106.3,925.5L1106.3,925.5z"/>
	<path class="st35" d="M1106.3,925.5L1106.3,925.5c0,7.6,0.2,14.4,0.2,14.4l0,0c0,0,2,5.8,4,7.2c0.6,0.4,7.5,0.6,16.9,0.6
		c0-0.2,0.1-0.4,0.1-0.6c-1.1-3.1-1.8-6.4-1.9-9.8c-0.2-3.8,0.5-7.4,1.9-10.8c-0.1-0.3-0.1-0.6-0.2-0.9c0,0,0,0,0-0.1h-15.2
		L1106.3,925.5L1106.3,925.5z"/>
	<path class="st28" d="M915.2,930.1l1.3,0l30.3-0.7l18.4-0.4h0l0,0c-0.2-4.3-0.9-8.3-1.9-12c-2.5-8.8-6.4-15-6.4-15l-3,0.1l-9.6,0.2
		l0,0l-14.5,0.4l0,0l-15.5,0.4l-2.4,0.1l0.1,0.6l1.2,9.5L915.2,930.1z"/>
	<path class="st35" d="M915.2,930.1l1.3,0l30.3-0.7l18.4-0.4h0l0,0c-0.2-4.3-0.9-8.3-1.9-12c-2.5-8.8-6.4-15-6.4-15l-3,0.1l-9.6,0.2
		l0,0l-14.5,0.4l0,0l-15.5,0.4l-2.4,0.1l0.1,0.6l1.2,9.5L915.2,930.1z"/>
	<path class="st28" d="M872,911.6l-2.6,4.7c0,0,4.5,8.6,2.3,14.8l43.5-1.1l-2.1-16.9l-1.2-9.5l-0.1-0.6h-0.1l-35.5,0.9L872,911.6z"
		/>
	<path class="st35" d="M872,911.6l-2.6,4.7c0,0,4.5,8.6,2.3,14.8l43.5-1.1l-2.1-16.9l-1.2-9.5l-0.1-0.6h-0.1l-35.5,0.9L872,911.6z"
		/>
	<path class="st29" d="M916.5,930.6l-1.4,0l-43.8,1c-0.8,1.8-2.3,3.4-4.7,4.4c-4.1,1.7-11.7,4.5-19.6,7.4c-0.2,0.1-0.5,0.2-0.7,0.3
		c0,3.9,0.7,7.7,0.7,7.7h70.7h0h0.3h0.2h26.2h6h0c9.7-1.4,12.7-8,12.7-8c1.7-4.7,2.2-9.5,2.1-14h0l-18.5,0.4L916.5,930.6z"/>
	<path class="st35" d="M916.5,930.6l-1.4,0l-43.8,1c-0.8,1.8-2.3,3.4-4.7,4.4c-4.1,1.7-11.7,4.5-19.6,7.4c-0.2,0.1-0.5,0.2-0.7,0.3
		c0,3.9,0.7,7.7,0.7,7.7h70.7h0h0.3h0.2h26.2h6h0c9.7-1.4,12.7-8,12.7-8c1.7-4.7,2.2-9.5,2.1-14h0l-18.5,0.4L916.5,930.6z"/>
	<path class="st36" d="M969.3,901.4l1.9,16.3l3.5,30.2c2.7,12,12.5,10.9,12.5,10.9h95.8c1.4-0.2,2.7-0.5,3.8-0.9
		c0.9-0.3,1.7-0.7,2.4-1.2c0.5-0.3,0.9-0.6,1.3-0.9c0.1-0.1,0.1-0.1,0.2-0.2c0.2-0.2,0.4-0.3,0.6-0.5c0.2-0.2,0.3-0.4,0.5-0.5
		c0.4-0.4,0.7-0.9,0.9-1.3c0.2-0.4,0.4-0.7,0.6-1c0.2-0.4,0.3-0.7,0.4-1c0.1-0.4,0.2-0.7,0.2-0.7c2.9-4.8,4.1-15.1,4.4-25.4
		c0.1-2.3,0.1-4.6,0.1-6.8c0-4.7-0.1-9.1-0.2-12.7c-0.2-5.1-0.4-8.6-0.4-9.1c0-0.2-0.1-0.5-0.2-0.7c-0.2-0.4-0.5-0.9-0.8-1.4
		c-0.1-0.2-0.2-0.3-0.4-0.5c-0.4-0.5-0.8-1-1.2-1.4c-0.9-1-1.8-1.8-1.8-1.8H978.4C969.3,890.8,969.3,901.4,969.3,901.4z M983.4,902
		h106.7l0,0c0,0,3.5,2.8,4,4.3c0,0.1,0.1,0.2,0.1,0.3c0,0.5,0.3,5.3,0.5,11.7c0,2.2,0.1,4.6,0,7c-0.2,9.2-1.1,19.3-4.2,23.6
		c0,0-0.9,5.4-10,6.4l0,0h-88.8c0,0-0.2,0-0.6,0c-0.6,0-1.5-0.1-2.6-0.3c-2.9-0.6-6.8-2.5-8.3-8.3l-3.9-28.3l-1.1-8.1
		C974.9,910.3,974.9,902,983.4,902L983.4,902z"/>
	<path class="st35" d="M969.3,901.4l1.9,16.3l3.5,30.2c2.7,12,12.5,10.9,12.5,10.9h95.8c1.4-0.2,2.7-0.5,3.8-0.9
		c0.9-0.3,1.7-0.7,2.4-1.2c0.5-0.3,0.9-0.6,1.3-0.9c0.1-0.1,0.1-0.1,0.2-0.2c0.2-0.2,0.4-0.3,0.6-0.5c0.2-0.2,0.3-0.4,0.5-0.5
		c0.4-0.4,0.7-0.9,0.9-1.3c0.2-0.4,0.4-0.7,0.6-1c0.2-0.4,0.3-0.7,0.4-1c0.1-0.4,0.2-0.7,0.2-0.7c2.9-4.8,4.1-15.1,4.4-25.4
		c0.1-2.3,0.1-4.6,0.1-6.8c0-4.7-0.1-9.1-0.2-12.7c-0.2-5.1-0.4-8.6-0.4-9.1c0-0.2-0.1-0.5-0.2-0.7c-0.2-0.4-0.5-0.9-0.8-1.4
		c-0.1-0.2-0.2-0.3-0.4-0.5c-0.4-0.5-0.8-1-1.2-1.4c-0.9-1-1.8-1.8-1.8-1.8H978.4C969.3,890.8,969.3,901.4,969.3,901.4z M983.4,902
		h106.7l0,0c0,0,3.5,2.8,4,4.3c0,0.1,0.1,0.2,0.1,0.3c0,0.5,0.3,5.3,0.5,11.7c0,2.2,0.1,4.6,0,7c-0.2,9.2-1.1,19.3-4.2,23.6
		c0,0-0.9,5.4-10,6.4l0,0h-88.8c0,0-0.2,0-0.6,0c-0.6,0-1.5-0.1-2.6-0.3c-2.9-0.6-6.8-2.5-8.3-8.3l-3.9-28.3l-1.1-8.1
		C974.9,910.3,974.9,902,983.4,902L983.4,902z"/>
	<path class="st24" d="M1095.3,892.7c0.4,0.5,0.8,0.9,1.2,1.4"/>
	<path class="st24" d="M1095.3,892.7c0.4,0.5,0.8,0.9,1.2,1.4"/>
	<path class="st24" d="M1096.9,894.6c0.4,0.5,0.7,0.9,0.8,1.4"/>
	<path class="st24" d="M1096.9,894.6c0.4,0.5,0.7,0.9,0.8,1.4"/>
	<path class="st24" d="M1083,958.9c1.4-0.2,2.7-0.5,3.8-0.9"/>
	<path class="st24" d="M1083,958.9c1.4-0.2,2.7-0.5,3.8-0.9"/>
	<path class="st24" d="M1093.7,951.4c-0.1,0.3-0.2,0.6-0.4,1"/>
	<path class="st24" d="M1093.7,951.4c-0.1,0.3-0.2,0.6-0.4,1"/>
	<path class="st24" d="M1093.3,952.4c-0.1,0.3-0.3,0.7-0.6,1"/>
	<path class="st24" d="M1093.3,952.4c-0.1,0.3-0.3,0.7-0.6,1"/>
	<path class="st37" d="M974.9,910.3l1.1,8.1l3.9,28.3c1.5,5.7,5.5,7.7,8.3,8.3c1.1,0.2,2,0.3,2.6,0.3c0.4,0,0.6,0,0.6,0l0,0h88.8
		c9.1-1,10-6.4,10-6.4c3.1-4.3,4-14.3,4.2-23.6c0.1-2.4,0-4.8,0-7c-0.1-6.3-0.5-11.2-0.5-11.7c0-0.1,0-0.2-0.1-0.3
		c-0.5-1.4-4-4.3-4-4.3H983.4l0,0C974.9,902,974.9,910.3,974.9,910.3z"/>
	<path class="st35" d="M974.9,910.3l1.1,8.1l3.9,28.3c1.5,5.7,5.5,7.7,8.3,8.3c1.1,0.2,2,0.3,2.6,0.3c0.4,0,0.6,0,0.6,0l0,0h88.8
		c9.1-1,10-6.4,10-6.4c3.1-4.3,4-14.3,4.2-23.6c0.1-2.4,0-4.8,0-7c-0.1-6.3-0.5-11.2-0.5-11.7c0-0.1,0-0.2-0.1-0.3
		c-0.5-1.4-4-4.3-4-4.3H983.4l0,0C974.9,902,974.9,910.3,974.9,910.3z"/>
	<path class="st27" d="M653.5,969.1l-15,0.5l-20.7,0.7l0.7,6.8l1,10l1.3,12.3l1.3,12.9l2.7,26.1l4.1,7.2l24.5,1.2l72.2,3.4l3.3,11.5
		l3.4,11.8l-59.4-11.1l-19.5-3.6l-33.2-6.2l-3.4,2.4l30.5,7.8l6,1.5l84.3,21.5c0,0-1.8-9.8-3-24.1c-1.3-14.7-2-34,0.3-52.2
		c1.2-9.6,3.3-18.9,6.7-27.1c2.6-6.4,6-12,10.2-16.5l-47.5,1.6L653.5,969.1z"/>
	<path class="st35" d="M653.5,969.1l-15,0.5l-20.7,0.7l0.7,6.8l1,10l1.3,12.3l1.3,12.9l2.7,26.1l4.1,7.2l24.5,1.2l72.2,3.4l3.3,11.5
		l3.4,11.8l-59.4-11.1l-19.5-3.6l-33.2-6.2l-3.4,2.4l30.5,7.8l6,1.5l84.3,21.5c0,0-1.8-9.8-3-24.1c-1.3-14.7-2-34,0.3-52.2
		c1.2-9.6,3.3-18.9,6.7-27.1c2.6-6.4,6-12,10.2-16.5l-47.5,1.6L653.5,969.1z"/>
	<path class="st27" d="M705.5,908.1l-51.9,4.9l-10.9,1l-4.1,0.4l-42,4l2.3,3.6l3.3,5.1l1.5,2.3c0,0,13.9-1.3,34.9-3.3
		c4.7-0.4,9.7-0.9,15-1.4c15.3-1.4,32.9-3,51-4.7c10-0.9,20.3-1.8,30.3-2.8c7.3-0.7,14.6-1.3,21.7-2c42-3.8,77.3-6.8,81.7-6.8
		c11.6,0,24-15.4,24-15.4l-105.7,10.1L705.5,908.1z"/>
	<path class="st38" d="M705.5,908.1l-51.9,4.9l-10.9,1l-4.1,0.4l-42,4l2.3,3.6l3.3,5.1l1.5,2.3c0,0,13.9-1.3,34.9-3.3
		c4.7-0.4,9.7-0.9,15-1.4c15.3-1.4,32.9-3,51-4.7c10-0.9,20.3-1.8,30.3-2.8c7.3-0.7,14.6-1.3,21.7-2c42-3.8,77.3-6.8,81.7-6.8
		c11.6,0,24-15.4,24-15.4l-105.7,10.1L705.5,908.1z"/>
	<line class="st24" x1="413.5" y1="893.1" x2="413.5" y2="893.1"/>
	<path class="st4" d="M473.9,794.1L473.9,794.1L473.9,794.1z"/>
	<path class="st4" d="M406.7,812.1L406.7,812.1L406.7,812.1z"/>
	<line class="st24" x1="311.8" y1="917.5" x2="311.8" y2="917.5"/>
	<line class="st24" x1="324.3" y1="871.8" x2="324.3" y2="871.8"/>
	<line class="st24" x1="328.7" y1="879.9" x2="328.7" y2="879.9"/>
	<line class="st24" x1="248.5" y1="1016.9" x2="248.5" y2="1016.9"/>
	<polyline class="st24" points="443.9,1036.8 443.9,1036.8 443.9,1036.8 	"/>
	<line class="st24" x1="380.2" y1="1017.9" x2="380.2" y2="1017.9"/>
	<line class="st24" x1="393.7" y1="1009.9" x2="393.7" y2="1009.9"/>
	<line class="st24" x1="267.4" y1="997.3" x2="267.4" y2="997.3"/>
	<rect y="1024.5" class="st4" width="15" height="529.7"/>
</g>
<rect y="1533" class="st4" width="1127.4" height="93"/>
</svg>
