<?xml version="1.0" encoding="utf-8"?>
<!-- Generator: Adobe Illustrator 26.3.0, SVG Export Plug-In . SVG Version: 6.00 Build 0)  -->
<svg version="1.1" id="Capa_1" xmlns="http://www.w3.org/2000/svg" xmlns:xlink="http://www.w3.org/1999/xlink" x="0px" y="0px"
	 viewBox="0 0 1125 1626" style="enable-background:new 0 0 1125 1626;" xml:space="preserve">
<style type="text/css">
	.st0{clip-path:url(#SVGID_00000106859784862209731150000008001692406324334009_);}
	.st1{fill:#3E1254;}
	.st2{fill:#1B002C;}
	.st3{fill:#F2FF3B;}
	.st4{fill:#04071D;}
	.st5{fill:url(#SVGID_00000160901914262090919080000014813762934043607433_);}
	.st6{fill:url(#SVGID_00000030488981685267685670000007085301058945130116_);}
	.st7{fill:url(#SVGID_00000061438706380764048220000008509688574120020634_);}
	.st8{fill:url(#SVGID_00000003081643588587215080000002584246988048635027_);}
	.st9{fill:url(#SVGID_00000116932841418267136560000015951771605299253157_);}
	.st10{fill:url(#SVGID_00000157993656509339195640000005939403498083081892_);}
	.st11{fill:url(#SVGID_00000048472902507160960200000012958223970284068515_);}
	.st12{fill:url(#SVGID_00000168075278043233689530000005589349359035958711_);}
	.st13{fill:url(#SVGID_00000130627560884259497380000010516610765778787743_);}
	.st14{fill:url(#SVGID_00000145752112485762519730000000662177108320381602_);}
	.st15{fill:url(#SVGID_00000080888870173134959540000009608404843639713672_);}
	.st16{fill:url(#SVGID_00000150101220470510918230000007954945327492943039_);}
	.st17{fill:url(#SVGID_00000183927906367337019620000006888704697802516382_);}
	.st18{fill:url(#SVGID_00000049189033596266222430000000888273822082175139_);}
	.st19{fill:url(#SVGID_00000182502066992292198020000014527902419348168351_);}
	.st20{fill:url(#SVGID_00000019651043581848881250000001510607983812054975_);}
	.st21{fill:url(#SVGID_00000127045246044869691570000013640269921162316715_);}
	.st22{fill:url(#SVGID_00000081612517734202149980000016949849394911805347_);}
	.st23{fill:url(#SVGID_00000143619431245020089310000015663651620290553496_);}
	.st24{fill:none;stroke:#04071D;stroke-width:0;stroke-linecap:round;stroke-linejoin:round;}
	.st25{fill:#043B1D;}
	.st26{fill:#517C29;}
	.st27{fill:#0CABE0;}
	.st28{fill:#E21D27;}
	.st29{fill:#E2D8AC;}
	.st30{fill:#00091C;}
	.st31{fill:#2E3B42;}
	.st32{fill:none;stroke:#2E3B42;stroke-width:0;stroke-linecap:round;stroke-linejoin:round;}
	.st33{fill:#0F0F0F;}
	.st34{fill:#FFFFFF;}
	.st35{fill:#323948;}
	.st36{opacity:0.37;fill:#04071D;enable-background:new    ;}
	.st37{fill:#00658C;}
	.st38{fill:none;stroke:#00658C;stroke-width:0;stroke-linecap:round;stroke-linejoin:round;}
	
		.st39{opacity:0.37;fill:none;stroke:#04071D;stroke-width:0;stroke-linecap:round;stroke-linejoin:round;enable-background:new    ;}
	.st40{fill:#001B27;}
	.st41{opacity:0.07;fill:#04071D;enable-background:new    ;}
</style>
<g>
	<g id="Capa_1-2_00000090276711379237923210000012378319681152254376_">
		<g>
			<g>
				<defs>
					<rect id="SVGID_1_" x="1" y="33" width="1124" height="811"/>
				</defs>
				<clipPath id="SVGID_00000008837978818948884840000013074493878175019454_">
					<use xlink:href="#SVGID_1_"  style="overflow:visible;"/>
				</clipPath>
				<g style="clip-path:url(#SVGID_00000008837978818948884840000013074493878175019454_);">
					<path class="st1" d="M-448.99,715.88c0,0,103.42-377.88,203.33-442.55S473.63,22.51,559.88,33.17s563.17,188.24,621.91,253.44
						c58.74,65.19,183.04,433.64,187.53,451.47c4.49,17.83-40.59,86.69-40.59,86.69l-1870.21,7.34L-448.99,715.88z"/>
				</g>
			</g>
		</g>
	</g>
</g>
<g>
	<path class="st1" d="M1033.51,879.69l55.49,41c0.07,0,0.14,0,0.2,0l3.33,2.46c2.37,0.18,4.64,0.4,6.83,0.64
		c5.79,0.13,15.17,0.92,24.73,4.09c-0.02-0.27-0.04-0.54-0.05-0.81c-0.04-0.88-0.02-1.75,0.03-2.61l-8.66-2.47
		c0,0,0.45-8.19,1.79-8.19c0.66,0,4.73-0.97,8.66-1.95c-0.18-4.33,0.75-8.48,2.5-12.26c-0.25-1.16-0.44-2.34-0.56-3.54l-7.03-16.36
		H1033.51z"/>
	<path class="st1" d="M422.98,1068.85c0.47-0.03,0.94-0.05,1.41-0.08c-0.43,0.01-0.9,0.02-1.41,0.03L422.98,1068.85z"/>
	<path class="st1" d="M883.21,832.72c-0.4,0.44-0.8,0.86-1.21,1.26c0.48-0.01,0.96-0.01,1.45-0.02
		C883.37,833.55,883.29,833.14,883.21,832.72z"/>
	<path class="st1" d="M423.68,1037.13c-0.07-0.16-0.14-0.31-0.21-0.47l0.15,0.47L423.68,1037.13z"/>
	<path class="st1" d="M8.1,1016.46c4.36-12.05,14.74-20.54,26.84-20.54c7.67,0,14.64,3.41,19.84,8.97c0.29-0.22,0.59-0.43,0.88-0.64
		c3.69-2.6,7.79-4.48,12.15-5.46c2.11-0.48,4.29-0.74,6.52-0.78c0.19,0,0.38-0.01,0.58-0.01c0.7,0,1.4,0.03,2.09,0.07v-0.97v-8.5
		h6.61l2.49-3.71H89v0.16v12.22h3v5.6c0.32,0.2,0.65,0.39,0.97,0.59H95v-4.95h10v14.85h7v2.48h1v18.57h-1
		c0.44,2.75,0.68,5.59,0.68,8.49c0,0.89-0.02,1.77-0.07,2.65h4.45H118v-3.78v-12.31h4.21H143v16.09h13v-30.94h5v-14.85h73.04
		c1.65-10.08,4.3-24.36,4.3-24.36v0h0l6.86-26.02c0.39-1.36,0.81-2.64,1.25-3.87c-0.09,0.02-0.15,0.03-0.16,0.01
		c0,0,0.06-0.03,0.18-0.07c9.06-25.69,27.26-25.15,31.28-24.7l0.35-8.82l-0.06,0c0,0-1.57-4.67-2.73-15.71
		c-0.55-5.31-3.9-12.27-2.95-20.9c0.64-5.75,2.17-10,4.14-13.15c-0.43-0.53-1.16-1.36-2.21-1.9c-1.68-0.93-3.22-0.59-3.24-0.79h0
		c-0.02-0.08,0.35-0.29,0.99-0.36c0.64-0.07,1.55,0.04,2.46,0.53c0.91,0.49,1.6,1.23,2,1.86c0.08,0.12,0.14,0.24,0.2,0.35
		c0.07-0.11,0.14-0.24,0.22-0.35c-0.08-0.06-0.16-0.13-0.25-0.23c-0.34-0.35-0.71-0.99-0.89-1.8c-0.18-0.81-0.11-1.6,0.04-2.11
		c0.15-0.52,0.34-0.76,0.4-0.72c0.14,0.08-0.24,1.25,0.08,2.65c0.18,0.9,0.57,1.54,0.81,1.92c4.94-7.04,12.15-7.92,15.33-7.93
		c0.79-1.35,1.85-2.45,3.12-2.98c1.91-0.8,4.26-0.13,5.45,1.89c0.85-2.99,3.57-4.97,6.1-4.44c2.53,0.53,4.56,3.51,4.57,6.68
		c1.64-1.13,3.86,0.09,4.79,2.11c0.93,2.02,0.83,4.54,0.36,6.79c-0.94,4.43-3.32,8.34-6.45,10.79c-0.48,12.43-1.29,29.62-2.15,32.89
		c-2.17,8.17-9.3,5.99-9.3,5.99l-0.67,8.55c3.97-0.03,7.84,1.87,11.49,4.94c10.55-9.15,17.4,5.85,19.04,19.26
		c0.38,3.07,0.74,6.8,1.1,10.76c3.34,7.18,5.29,12.59,5.29,12.59l-4.12,1.83c0.7,9.1,1.25,16.69,1.56,17.41
		c0.29,0.67,4.26,5.69,9.23,11.86l1.3-10.42l-4.71-0.98l0,0c0,0,1.3-4.18,3.1-9.91c-0.26,0.47-0.48,0.87-0.64,1.19
		c-0.29,0.58-0.45,0.88-0.47,0.87c-0.02-0.01,0.11-0.34,0.37-0.94c0.23-0.52,0.58-1.25,1.06-2.13c3.1-9.83,7.47-23.56,9.48-29.15
		c-1.06-5.43,0.29-11.48,3.37-16.19c2.91-4.44,7.41-8.48,7.35-13.8c-0.06-5.23-4.72-9.96-3.11-14.96c1.04-3.23,4.43-5.2,5.45-8.44
		c0.28-0.88,0.36-1.77,0.33-2.67c-0.04,0-0.16-0.76-0.3-2.15c-0.01-0.09-0.02-0.19-0.03-0.28c-0.36-1.74-0.9-3.5-1.06-5.26
		c-0.45-4.73,1.83-9.35,4.49-13.29c3.34-4.96,7.76-9.61,13.34-10.95c5.59-1.34,12.28,1.96,13.08,7.87l0,0
		c7.75,0.92,10.06,7.73,10.96,15.22c0,0,0-0.01,0-0.01l0,0l0,0v0c0.02,0,0.08,0.31,0.18,0.92c0.11,0.61,0.23,1.51,0.37,2.68
		c0.12,1.17,0.26,2.6,0.36,4.28c0.11,1.67,0.17,3.58,0.37,5.65c0.21,2.06,0.62,4.34,1.79,6.3c1.03,1.75,2.44,3.37,3.8,5.18
		c0.36,0.42,0.71,0.85,1.05,1.28c0.94,1.23,1.78,2.65,2.28,4.15c0.35,0.86,0.62,1.8,0.69,2.81c0.07,0.8-0.06,1.65-0.34,2.38
		c-0.28,0.74-0.69,1.38-1.09,1.98c-0.1,0.14-0.19,0.29-0.29,0.43c-0.42,0.84-0.83,1.67-1.07,2.51c-0.01,0.32,0.02,0.65,0.08,1
		c0.27,1.45,0.94,2.7,1.62,3.95c4.27-1.24,8.55-2.53,12.07-3.67l0.73,2.93l13.19-5.04c2.91-0.91,6.79-4.64,8.67-10.52l13.88-37.16
		c0,0,0.02-10.15-0.12-12.11c-0.14-1.95,2.3,1.87,2.69,5.76l7.89-4.64v0l-1.65,0.97l0,0v0l0,0c0.04-0.02,0.24-0.64,0.54-1.6
		c-0.92-0.26-2.13-0.7-2.43-1.27c-0.51-0.95,0.13-2.23,0.13-2.23l3.21,0.5c1.08-3.59,2.41-8.09,2.68-8.77
		c0.69-1.74,0.75,0.93,0.39,4.22c-0.2,1.87-0.46,4.32-0.6,5.74c0.21,0.43,0.31,0.96,0.22,1.5l-0.35,2.2
		c-0.03,1.69-0.13,3.98-0.4,6.09c-0.51,4-1.97,9.46-1.97,9.46l-12.29,48.04c-0.62,2.42-1.61,4.64-2.88,6.55
		c0.23-0.32,0.45-0.64,0.65-0.98c0.82-1.3,1.43-2.74,1.86-4.18c0.42-1.45,0.77-2.9,1.13-4.26c1.42-5.4,2.58-9.79,3.39-12.88
		c0.4-1.48,0.72-2.65,0.95-3.49c0.11-0.37,0.19-0.66,0.26-0.9c0.06-0.2,0.1-0.3,0.11-0.3l0,0c0.01,0-0.01,0.11-0.05,0.32
		c-0.06,0.24-0.12,0.55-0.21,0.92c-0.21,0.85-0.49,2.03-0.85,3.53c-0.78,3.11-1.88,7.52-3.24,12.95c-0.35,1.37-0.68,2.79-1.1,4.29
		c-0.44,1.49-1.05,2.98-1.9,4.33c-0.83,1.37-1.86,2.61-3.02,3.72c-0.58,0.56-1.19,1.08-1.81,1.59c-0.3,0.26-0.64,0.5-0.99,0.73
		c-0.35,0.19-0.7,0.38-1.05,0.57c-5.7,2.8-12.09,5.36-18.8,8.08l-0.22,0.09c0.41,1.67,0.83,3.33,1.23,4.95l0.07,0.3l-0.24,0.1
		c-8.22,3.41-15.84,6.57-22.35,9.27c0.01,2.02,0.02,3.96,0.03,5.8c-0.01,1.9,0.1,3.71,0.09,5.41c0.02,3.39-0.05,6.34-0.07,8.76
		c-0.03,2.42-0.03,4.32-0.02,5.61c0.01,0.61,0.01,1.1,0.01,1.48c0,0.33,0,0.51-0.01,0.51c-0.01,0-0.03-0.17-0.05-0.5
		c-0.02-0.33-0.05-0.83-0.08-1.47c-0.05-1.29-0.09-3.19-0.1-5.62c-0.01-2.42,0.02-5.37-0.03-8.76c-0.01-1.69-0.13-3.48-0.13-5.4
		c-0.02-1.91-0.05-3.92-0.07-6.01l0.3,34.68l5.3,19.54c0.1,0.25,0.3,0.91,0.61,1.91c0.41,1.31,0.99,3.21,1.78,5.53
		c0.79,2.31,1.81,5.02,3.07,7.95c1.25,2.93,2.84,6.02,4.22,9.48c1.36,3.45,2.48,6.97,2.59,10.39c0.08,1.73-0.32,3.33-0.81,4.7
		c-0.49,1.38-1.07,2.58-1.64,3.62c-1.16,2.09-2.28,3.61-3.1,4.59c-0.41,0.49-0.75,0.84-0.99,1.07c-0.08,0.07-0.12,0.11-0.17,0.15
		c2.18,0.04,3.54,0.09,3.82,0.14c40.22-2.34,81.4-4.57,123.37-6.63c0.49-9.71,1.69-19.83,3.98-29.74
		c-5.71-0.51-10.38-1.13-13.85-1.89c-7.57-1.65,3.24-3.62,15.68-5.14c0.32-1.09,0.65-2.17,0.99-3.25
		c-37.53-1.56-62.22-5.31-97.33-13.95c-27.67-6.81,49.21-7.9,107.55-8.62c1.63-2.63,3.42-5.18,5.35-7.62
		c-14.46-1.38-28.51-3.08-37.35-5.3c-6.13-1.55,15.32-1.87,44.33-1.62c6.82-3.53,32.25-16.6,36.91-17.56
		c1.07-0.22,3.75-4.41,7.97-11.13c-4.04-1.89-15.34-7.79-15.34-14.76c0-8.49,14.31-10.33,25.44-8.95c1.74,0.22,3.12,0.79,4.21,1.62
		c21.62-31.7,58.18-76.41,107.9-89c0,0,15.52-3.15,41.44-6.31c1.14,0.3,2.28,0.64,3.42,1.02c17.66-2.07,39.72-4.07,64.69-5.11
		c-8.64-7.99-14.54-24.01-14.54-42.48c0-25.52,11.26-46.37,25.46-47.8c-2.93-9.36-4.58-19.82-4.58-30.87
		c0-39.68,21.17-71.83,47.29-71.83h0h0c2.04,0,4.05,0.2,6.02,0.58c0.58,0.11,1.15,0.24,1.72,0.38c0.5,0.13,1,0.26,1.49,0.41
		c0.6,0.18,1.19,0.37,1.79,0.59c10.76,3.9,20.09,13.39,26.59,26.32c0,0,0,0,0,0c0,0,0,0,0,0c0.01,0.01,0.01,0.01,0.01,0.01
		s0.01-0.01,0.02-0.02c0.03-0.03,0.09-0.1,0.17-0.18c1.31-1.47,2.65-2.86,4-4.19c0.04-0.04,0.08-0.08,0.13-0.13
		c13.72-13.49,28.67-20.05,37.29-13.9c13.88,9.91,19.24,46.45,4.55,78.49c12.7-0.02,26.3,6.3,37.43,18.79
		c21.01,23.58,25.21,60.22,9.37,81.83c-7.16,9.77-17.2,14.78-27.97,15.18c0.65,0.76,1.29,1.56,1.92,2.39
		c31.05,0.1,62.05,0.25,85.95,0.37c-11.88-6.4-20.17-20.8-20.17-37.55c0-9.25,2.53-17.78,6.79-24.64
		c-2.31-4.08-3.66-9.02-3.66-14.33c0-14.05,9.41-25.43,21.03-25.43c0.34,0,0.67,0.01,1,0.03c0.33-0.02,0.66-0.03,1-0.03
		c11.03,0,20.07,10.28,20.95,23.34c0.22-0.99,0.49-1.96,0.81-2.91c-0.79-2.62-1.27-5.36-1.4-8.19c-0.13-2.81,0.23-5.55,0.96-8.17
		c-0.04-0.44-0.07-0.87-0.09-1.31c-0.09-1.93,0.05-3.82,0.38-5.66c-1.24-3.27-2-6.78-2.17-10.42c-0.09-1.96,0.06-3.89,0.4-5.76
		c-1.06,0.1-2.13,0.16-3.22,0.16c-0.27,0-0.54-0.02-0.81-0.02c-0.39,0.01-0.79,0.02-1.19,0.02c-22.52,0-40.77-22.08-40.77-49.32
		c0-12.42,3.8-23.75,10.06-32.42c-8.66-8.67-14.23-22.18-14.23-37.38c0-13.87,4.64-26.35,12.03-35.01c0.54,0.16,1.08,0.31,1.62,0.47
		c0.13-0.16,0.25-0.32,0.38-0.47c-95.28-27.62-177.17-48.16-208.59-51.28c-76.43-7.6-560.31,106.13-757.19,171.91
		c2.02,7.42,3.13,15.44,3.13,23.79c0,38.47-23.39,69.65-52.24,69.65c-2.14,0-4.26-0.18-6.33-0.51c2.57,4.83,4.09,10.73,4.09,17.11
		c0,16.34-9.94,29.6-22.2,29.6c-4.53,0-8.75-1.82-12.26-4.92c-3.4,16.98-11.72,30.08-23.19,33.85c-5.68,1.87-11.48,1.22-16.97-1.47
		c-0.19,34.15-1.37,68.27-2.59,102.4c-0.63,17.76,0.16,35.44,0.69,53.18c2.15-0.62,4.38-0.98,6.68-0.98
		C4.84,1015.94,6.49,1016.12,8.1,1016.46z"/>
	<path class="st1" d="M1053.78,923.06c2.25-0.13,4.45-0.25,6.6-0.33c-12.21-0.45-23.74-0.56-33.03-0.53c-0.4,0.01-0.8,0.02-1.2,0.03
		c-0.07,0.18-0.14,0.35-0.21,0.53C1033.8,922.71,1043.43,922.77,1053.78,923.06z"/>
	<path class="st1" d="M558.62,1032.6c-0.08,0.31-0.16,0.62-0.23,0.93c0.09-0.31,0.18-0.63,0.27-0.93
		C558.65,1032.6,558.64,1032.6,558.62,1032.6z"/>
	<path class="st1" d="M563,1022.19c-0.21-0.01-0.42-0.02-0.63-0.02c-0.38,0.76-0.76,1.57-1.13,2.46c0.16-0.02,0.32-0.03,0.47-0.05
		C562.13,1023.71,562.56,1022.92,563,1022.19z"/>
	<path class="st1" d="M422.98,1068.48c0.03,0,0.06,0,0.09,0c0.18-0.22,0.57-0.67,1.12-1.4c0.21-0.28,0.44-0.6,0.69-0.96
		c-0.59,0.77-1.23,1.49-1.9,2.16L422.98,1068.48z"/>
	<path class="st1" d="M856.74,980.35c2.98-3.16,6.78-5.05,11.64-4.44l6.35-0.16l0.46-0.83l-6.03,0.15
		C863.87,974.41,859.84,976.69,856.74,980.35z"/>
	<path class="st1" d="M906.62,940.55c0.27,0.05,0.43,0.08,0.43,0.08l0.03,0.21c0.73-0.39,1.47-0.78,2.23-1.17
		c-0.02-0.17-0.03-0.34-0.05-0.51C908.36,939.62,907.48,940.08,906.62,940.55z"/>
	<path class="st1" d="M405.83,891.72c-0.07-1.67-0.18-3.1-0.27-4.27c-0.03-0.26-0.05-0.51-0.07-0.75c0.19,2.42,0.29,4.83,0.43,7.08
		C405.89,893.06,405.86,892.37,405.83,891.72z"/>
	<path class="st1" d="M362.37,1027.43l2.24,0.25c0.28,0.07,0.58,0.14,0.9,0.21c1.46-6.71,3.16-12.76,3.49-13.94
		c-0.5-0.56-0.77-0.88-0.75-0.9c0.04-0.07,0.3,0.22,0.81,0.71c0,0,0.01-0.02,0.01-0.02l-6.85-33.49L361,993.48l-3.01-0.62
		l-2.82,23.72c4.5,5.49,7.87,9.59,7.87,9.59L362.37,1027.43z"/>
	<path class="st1" d="M323,1029.45h16.41c-5.38-5.01-11.38-10.65-16.41-15.5V1029.45z"/>
	<path class="st1" d="M808.62,852.8c-0.19-0.22-0.39-0.43-0.58-0.64c-2.16,1.61-3.99,3.56-4.54,5.78
		C804.51,855.95,806.48,854.21,808.62,852.8c3.89-2.57,8.29-4.05,8.29-4.05v0C816.91,848.75,812.51,850.24,808.62,852.8z"/>
	<path class="st1" d="M766.49,1037.85c-0.97,0.3-1.91,0.7-2.81,1.18l11.4-0.82C772.21,1038.08,769.35,1037.96,766.49,1037.85z"/>
	<path class="st2" d="M870.12,1002.87l-22.72,0.55c-0.04,0.2-0.09,0.39-0.13,0.57l22.61-0.54
		C869.97,1003.26,870.05,1003.07,870.12,1002.87z"/>
	<path class="st2" d="M579.71,984.85c-29.01-0.25-50.46,0.07-44.33,1.62c8.84,2.23,22.89,3.93,37.35,5.3
		c1.65-2.09,3.4-4.11,5.29-6.04C578.01,985.73,578.64,985.41,579.71,984.85z"/>
	<path class="st2" d="M561.72,1024.57c-0.16,0.02-0.32,0.03-0.47,0.05c-0.93,2.22-1.82,4.85-2.62,7.98c0.01,0,0.02,0,0.04,0
		C559.58,1029.55,560.61,1026.85,561.72,1024.57z"/>
	<path class="st2" d="M570,1016.36v-0.27l13.26,1.5c-3.2-3.27-7.01-5.04-11.53-4.73c0,0-4.89,0.44-9.36,9.31
		c0.21,0.01,0.42,0.02,0.63,0.02C565.12,1018.66,567.49,1016.59,570,1016.36z"/>
	<path class="st2" d="M540.49,1030.36c3.47,0.76,8.14,1.38,13.85,1.89c0.55-2.36,1.16-4.71,1.83-7.04
		C543.73,1026.74,532.92,1028.7,540.49,1030.36z"/>
	<path class="st2" d="M459.83,1008.01c35.11,8.64,59.8,12.39,97.33,13.95c2.53-7.91,5.86-15.54,10.22-22.57
		C509.04,1000.12,432.16,1001.2,459.83,1008.01z"/>
	<path class="st2" d="M776.8,1038.09c-3.83-1.23-7.25-1.2-10.31-0.24c2.86,0.12,5.73,0.24,8.59,0.36L776.8,1038.09z"/>
	<rect x="176" y="1012.12" class="st3" width="6" height="7.43"/>
	<rect x="208" y="1012.12" class="st3" width="6" height="7.43"/>
	<rect x="176" y="1026.97" class="st3" width="6" height="7.43"/>
	<rect x="241" y="1026.97" class="st3" width="6" height="7.43"/>
	<rect x="176" y="1040.58" class="st3" width="6" height="7.43"/>
	<rect x="208" y="1040.58" class="st3" width="6" height="7.43"/>
	<rect x="241" y="1040.58" class="st3" width="6" height="7.43"/>
	<rect x="120" y="1066.58" class="st3" width="5" height="2.48"/>
	<path class="st3" d="M178,1085.14h-5v0.57c1.66-0.13,3.33-0.25,5-0.38V1085.14z"/>
	<rect x="216" y="1070.29" class="st3" width="5" height="2.48"/>
	<path class="st4" d="M92,997.27h-3v-12.22v-0.16h-2.9l-2.49,3.71H77v8.5v0.97c5.38,0.35,10.45,2.04,15,4.79V997.27z"/>
	<path class="st4" d="M112,1034.4h1v-18.57h-1v-2.48h-7V998.5H95v4.95h-2.03C102.71,1009.77,109.85,1021.03,112,1034.4z"/>
	<path class="st1" d="M924.9,932.41C924.9,932.41,924.9,932.41,924.9,932.41c0.01,0.18,0.01,0.36,0.02,0.53c0,0,0,0,0,0
		c5.44-1.95,11.42-3.72,17.99-5.22c1.54-0.54,3.02-1.04,4.42-1.49C938.99,927.92,931.54,930.03,924.9,932.41z"/>
	
		<linearGradient id="SVGID_00000060032717505335493150000010248309202668629393_" gradientUnits="userSpaceOnUse" x1="-460.6133" y1="2887.2405" x2="-543.228" y2="2349.2854" gradientTransform="matrix(1 0 0 -1 264.8622 3644.0552)">
		<stop  offset="0" style="stop-color:#2B1B49"/>
		<stop  offset="0.5051" style="stop-color:#0A3258"/>
		<stop  offset="1" style="stop-color:#002B5B"/>
	</linearGradient>
	<path style="fill:url(#SVGID_00000060032717505335493150000010248309202668629393_);" d="M-251.97,1124.46
		c0.02-1.22,0.05-2.45,0.08-3.67c-0.09,1.23-0.18,2.46-0.27,3.69C-252.09,1124.48-252.03,1124.47-251.97,1124.46z"/>
	<path class="st1" d="M947.57,669.98C947.57,669.98,947.57,669.98,947.57,669.98c-6.5-12.94-15.83-22.42-26.59-26.32
		C931.74,647.56,941.08,657.04,947.57,669.98z"/>
	
		<linearGradient id="SVGID_00000079457898410421632520000000419240317557401473_" gradientUnits="userSpaceOnUse" x1="895.8641" y1="2763.2139" x2="640.4942" y2="3018.5835" gradientTransform="matrix(1 0 0 -1 264.8622 3644.0552)">
		<stop  offset="0.0308" style="stop-color:#0D0E2B"/>
		<stop  offset="0.5487" style="stop-color:#301F3C"/>
		<stop  offset="0.9667" style="stop-color:#F6C5EC"/>
	</linearGradient>
	<path style="fill:url(#SVGID_00000079457898410421632520000000419240317557401473_);" d="M947.57,669.98
		C947.57,669.98,947.57,669.98,947.57,669.98c-6.5-12.94-15.83-22.42-26.59-26.32C931.74,647.56,941.08,657.04,947.57,669.98z"/>
	<path class="st1" d="M917.71,642.66c0.5,0.13,1,0.26,1.49,0.41C918.7,642.92,918.21,642.79,917.71,642.66z"/>
	
		<linearGradient id="SVGID_00000135670003539608032190000006186111983677493140_" gradientUnits="userSpaceOnUse" x1="893.7142" y1="2761.064" x2="638.3444" y2="3016.4336" gradientTransform="matrix(1 0 0 -1 264.8622 3644.0552)">
		<stop  offset="0.0308" style="stop-color:#0D0E2B"/>
		<stop  offset="0.5487" style="stop-color:#301F3C"/>
		<stop  offset="0.9667" style="stop-color:#F6C5EC"/>
	</linearGradient>
	<path style="fill:url(#SVGID_00000135670003539608032190000006186111983677493140_);" d="M917.71,642.66c0.5,0.13,1,0.26,1.49,0.41
		C918.7,642.92,918.21,642.79,917.71,642.66z"/>
	<path class="st1" d="M909.97,641.7L909.97,641.7c2.04,0,4.05,0.2,6.02,0.58C914.02,641.9,912.01,641.7,909.97,641.7z"/>
	
		<linearGradient id="SVGID_00000164497190482441772100000011817876468707071641_" gradientUnits="userSpaceOnUse" x1="891.4163" y1="2758.7661" x2="636.0464" y2="3014.1357" gradientTransform="matrix(1 0 0 -1 264.8622 3644.0552)">
		<stop  offset="0.0308" style="stop-color:#0D0E2B"/>
		<stop  offset="0.5487" style="stop-color:#301F3C"/>
		<stop  offset="0.9667" style="stop-color:#F6C5EC"/>
	</linearGradient>
	<path style="fill:url(#SVGID_00000164497190482441772100000011817876468707071641_);" d="M909.97,641.7L909.97,641.7
		c2.04,0,4.05,0.2,6.02,0.58C914.02,641.9,912.01,641.7,909.97,641.7z"/>
	<path class="st1" d="M1,1061.63h27v-22.28h34.7c-0.36-7.5-0.26-12.53,0.55-13.55c1.12-1.41,2.93-4.83,4.75-9.31v-0.66h0.27
		c2-5.04,3.98-11.32,5.04-17.62c0.34-0.05,0.68-0.12,1.02-0.2c-2.22,0.04-4.4,0.31-6.52,0.78c-1.38,8.72-3.56,18.46-6.29,17.29
		c-1.85-0.8-3.96-5.87-5.86-11.83c-0.3,0.21-0.59,0.42-0.88,0.64c-5.19-5.56-12.16-8.97-19.84-8.97c-12.11,0-22.48,8.48-26.84,20.54
		c-1.61-0.34-3.26-0.52-4.95-0.52c-2.3,0-4.53,0.36-6.68,0.98c0.02,0.63,0.04,1.27,0.06,1.9c0.15,5.16,0.21,10.29,0.16,15.41
		c0.48,2.03,0.78,4.12,0.88,6.26c0.1,2.15-0.09,4.26-0.5,6.3c0.26,1.45,0.43,2.92,0.5,4.42c0.15,3.4-0.39,6.69-1.46,9.78
		c1.45,9.24,2.64,17.7,3.41,25.01c0.46,4.38,0.69,9.04,0.72,13.88c0.25-0.02,0.51-0.04,0.76-0.07V1061.63z"/>
	
		<linearGradient id="SVGID_00000163042808835090745580000006913864841746354838_" gradientUnits="userSpaceOnUse" x1="-2977.0657" y1="5344.5967" x2="3652.2253" y2="-1284.6946" gradientTransform="matrix(1 0 0 -1 264.8622 3644.0552)">
		<stop  offset="0" style="stop-color:#00131B"/>
		<stop  offset="0.6154" style="stop-color:#030A26"/>
		<stop  offset="1" style="stop-color:#0A3258"/>
	</linearGradient>
	<path style="fill:url(#SVGID_00000163042808835090745580000006913864841746354838_);" d="M1,1061.63h27v-22.28h34.7
		c-0.36-7.5-0.26-12.53,0.55-13.55c1.12-1.41,2.93-4.83,4.75-9.31v-0.66h0.27c2-5.04,3.98-11.32,5.04-17.62
		c0.34-0.05,0.68-0.12,1.02-0.2c-2.22,0.04-4.4,0.31-6.52,0.78c-1.38,8.72-3.56,18.46-6.29,17.29c-1.85-0.8-3.96-5.87-5.86-11.83
		c-0.3,0.21-0.59,0.42-0.88,0.64c-5.19-5.56-12.16-8.97-19.84-8.97c-12.11,0-22.48,8.48-26.84,20.54c-1.61-0.34-3.26-0.52-4.95-0.52
		c-2.3,0-4.53,0.36-6.68,0.98c0.02,0.63,0.04,1.27,0.06,1.9c0.15,5.16,0.21,10.29,0.16,15.41c0.48,2.03,0.78,4.12,0.88,6.26
		c0.1,2.15-0.09,4.26-0.5,6.3c0.26,1.45,0.43,2.92,0.5,4.42c0.15,3.4-0.39,6.69-1.46,9.78c1.45,9.24,2.64,17.7,3.41,25.01
		c0.46,4.38,0.69,9.04,0.72,13.88c0.25-0.02,0.51-0.04,0.76-0.07V1061.63z"/>
	<path class="st4" d="M116.6,1090.11c4.24-0.34,8.5-0.68,12.79-1.02c-0.35-4.74-1.81-9.17-4.12-13c-0.35-0.58-0.72-1.16-1.11-1.71
		l0,0c-2.38-3.39-5.47-6.22-9.03-8.28c0,0.09,0,0.18,0,0.27C115.35,1072.78,115.9,1080.91,116.6,1090.11z"/>
	
		<linearGradient id="SVGID_00000013154293149180903100000005671542195051893914_" gradientUnits="userSpaceOnUse" x1="-2952.0178" y1="5369.6445" x2="3677.2734" y2="-1259.6466" gradientTransform="matrix(1 0 0 -1 264.8622 3644.0552)">
		<stop  offset="0" style="stop-color:#00131B"/>
		<stop  offset="0.6154" style="stop-color:#030A26"/>
		<stop  offset="1" style="stop-color:#0A3258"/>
	</linearGradient>
	<path style="fill:url(#SVGID_00000013154293149180903100000005671542195051893914_);" d="M116.6,1090.11
		c4.24-0.34,8.5-0.68,12.79-1.02c-0.35-4.74-1.81-9.17-4.12-13c-0.35-0.58-0.72-1.16-1.11-1.71l0,0c-2.38-3.39-5.47-6.22-9.03-8.28
		c0,0.09,0,0.18,0,0.27C115.35,1072.78,115.9,1080.91,116.6,1090.11z"/>
	<path class="st4" d="M68,1015.83v0.66c0.09-0.22,0.18-0.44,0.27-0.66H68z"/>
	
		<linearGradient id="SVGID_00000020400272432894212590000007788803824477457544_" gradientUnits="userSpaceOnUse" x1="-2945.2485" y1="5376.4136" x2="-308.774" y2="2739.939" gradientTransform="matrix(1 0 0 -1 264.8622 3644.0552)">
		<stop  offset="0" style="stop-color:#00131B"/>
		<stop  offset="0.6154" style="stop-color:#030A26"/>
		<stop  offset="1" style="stop-color:#0A3258"/>
	</linearGradient>
	<path style="fill:url(#SVGID_00000020400272432894212590000007788803824477457544_);" d="M68,1015.83v0.66
		c0.09-0.22,0.18-0.44,0.27-0.66H68z"/>
	<path class="st4" d="M28,1039.35v22.28H1v38.19c21.28-1.87,43.44-3.77,66.42-5.69c-2.02-20.31-4.09-41.45-4.72-54.78H28z
		 M50,1050.49h-5v-2.48h5V1050.49z"/>
	
		<linearGradient id="SVGID_00000088112282391480311970000000996488574511908502_" gradientUnits="userSpaceOnUse" x1="-2990.0994" y1="5331.563" x2="3639.1917" y2="-1297.7281" gradientTransform="matrix(1 0 0 -1 264.8622 3644.0552)">
		<stop  offset="0" style="stop-color:#00131B"/>
		<stop  offset="0.6154" style="stop-color:#030A26"/>
		<stop  offset="1" style="stop-color:#0A3258"/>
	</linearGradient>
	<path style="fill:url(#SVGID_00000088112282391480311970000000996488574511908502_);" d="M28,1039.35v22.28H1v38.19
		c21.28-1.87,43.44-3.77,66.42-5.69c-2.02-20.31-4.09-41.45-4.72-54.78H28z M50,1050.49h-5v-2.48h5V1050.49z"/>
	<rect x="45" y="1048.01" class="st3" width="5" height="2.48"/>
	
		<linearGradient id="SVGID_00000035497947178980551440000012395331441197987738_" gradientUnits="userSpaceOnUse" x1="-2972.1089" y1="5349.5532" x2="3657.1821" y2="-1279.7378" gradientTransform="matrix(1 0 0 -1 264.8622 3644.0552)">
		<stop  offset="0" style="stop-color:#00131B"/>
		<stop  offset="0.6154" style="stop-color:#030A26"/>
		<stop  offset="1" style="stop-color:#0A3258"/>
	</linearGradient>
	
		<rect x="45" y="1048.01" style="fill:url(#SVGID_00000035497947178980551440000012395331441197987738_);" width="5" height="2.48"/>
	<path class="st1" d="M61.52,1016.09c2.73,1.17,4.91-8.57,6.29-17.29c-4.36,0.98-8.45,2.86-12.15,5.46
		C57.56,1010.21,59.67,1015.29,61.52,1016.09z"/>
	
		<linearGradient id="SVGID_00000047755390826049796490000015163771205241978262_" gradientUnits="userSpaceOnUse" x1="-2942.6755" y1="5378.9868" x2="3686.6157" y2="-1250.3043" gradientTransform="matrix(1 0 0 -1 264.8622 3644.0552)">
		<stop  offset="0" style="stop-color:#00131B"/>
		<stop  offset="0.6154" style="stop-color:#030A26"/>
		<stop  offset="1" style="stop-color:#0A3258"/>
	</linearGradient>
	<path style="fill:url(#SVGID_00000047755390826049796490000015163771205241978262_);" d="M61.52,1016.09
		c2.73,1.17,4.91-8.57,6.29-17.29c-4.36,0.98-8.45,2.86-12.15,5.46C57.56,1010.21,59.67,1015.29,61.52,1016.09z"/>
	<path class="st1" d="M112,1034.4L112,1034.4l0,11.14h0.62c0.04-0.88,0.07-1.76,0.07-2.65C112.68,1039.98,112.44,1037.15,112,1034.4
		z"/>
	
		<linearGradient id="SVGID_00000116204533286288027780000012121025972680322721_" gradientUnits="userSpaceOnUse" x1="-2935.2175" y1="5386.4448" x2="3694.0735" y2="-1242.8464" gradientTransform="matrix(1 0 0 -1 264.8622 3644.0552)">
		<stop  offset="0" style="stop-color:#00131B"/>
		<stop  offset="0.6154" style="stop-color:#030A26"/>
		<stop  offset="1" style="stop-color:#0A3258"/>
	</linearGradient>
	<path style="fill:url(#SVGID_00000116204533286288027780000012121025972680322721_);" d="M112,1034.4L112,1034.4l0,11.14h0.62
		c0.04-0.88,0.07-1.76,0.07-2.65C112.68,1039.98,112.44,1037.15,112,1034.4z"/>
	<path class="st1" d="M92.97,1003.46c-0.32-0.21-0.64-0.4-0.97-0.59v0.59H92.97z"/>
	
		<linearGradient id="SVGID_00000128459794560844873020000006358122490962817975_" gradientUnits="userSpaceOnUse" x1="-2926.7207" y1="5394.9414" x2="3302.2832" y2="-834.0624" gradientTransform="matrix(1 0 0 -1 264.8622 3644.0552)">
		<stop  offset="0" style="stop-color:#00131B"/>
		<stop  offset="0.6154" style="stop-color:#030A26"/>
		<stop  offset="1" style="stop-color:#0A3258"/>
	</linearGradient>
	<path style="fill:url(#SVGID_00000128459794560844873020000006358122490962817975_);" d="M92.97,1003.46
		c-0.32-0.21-0.64-0.4-0.97-0.59v0.59H92.97z"/>
	<path class="st1" d="M70,1031.92h-2v-15.43c-1.82,4.48-3.63,7.9-4.75,9.31c-0.81,1.02-0.91,6.05-0.55,13.55H70V1031.92z"/>
	
		<linearGradient id="SVGID_00000025438046009539551200000012771755163446908806_" gradientUnits="userSpaceOnUse" x1="-2952.5193" y1="5369.1431" x2="3676.772" y2="-1260.1481" gradientTransform="matrix(1 0 0 -1 264.8622 3644.0552)">
		<stop  offset="0" style="stop-color:#00131B"/>
		<stop  offset="0.6154" style="stop-color:#030A26"/>
		<stop  offset="1" style="stop-color:#0A3258"/>
	</linearGradient>
	<path style="fill:url(#SVGID_00000025438046009539551200000012771755163446908806_);" d="M70,1031.92h-2v-15.43
		c-1.82,4.48-3.63,7.9-4.75,9.31c-0.81,1.02-0.91,6.05-0.55,13.55H70V1031.92z"/>
	<path class="st1" d="M70,1013.36h7v-9.53v-5.76c-0.69-0.05-1.39-0.07-2.09-0.07c-0.19,0-0.38,0.01-0.58,0.01
		c-0.34,0.08-0.68,0.15-1.02,0.2c-1.06,6.29-3.04,12.57-5.04,17.62H70V1013.36z"/>
	
		<linearGradient id="SVGID_00000148639504163922266000000003654865174708208777_" gradientUnits="userSpaceOnUse" x1="-2938.3945" y1="5383.2676" x2="3690.8967" y2="-1246.0233" gradientTransform="matrix(1 0 0 -1 264.8622 3644.0552)">
		<stop  offset="0" style="stop-color:#00131B"/>
		<stop  offset="0.6154" style="stop-color:#030A26"/>
		<stop  offset="1" style="stop-color:#0A3258"/>
	</linearGradient>
	<path style="fill:url(#SVGID_00000148639504163922266000000003654865174708208777_);" d="M70,1013.36h7v-9.53v-5.76
		c-0.69-0.05-1.39-0.07-2.09-0.07c-0.19,0-0.38,0.01-0.58,0.01c-0.34,0.08-0.68,0.15-1.02,0.2c-1.06,6.29-3.04,12.57-5.04,17.62H70
		V1013.36z"/>
	<path class="st4" d="M112,1034.4L112,1034.4c-2.15-13.37-9.29-24.63-19.03-30.94H92v-0.59c-4.55-2.75-9.62-4.44-15-4.79v5.76v9.53
		h-7v2.48h-1.73c-0.09,0.22-0.18,0.44-0.27,0.66v15.43h2v7.43h-7.3c0.63,13.33,2.7,34.47,4.72,54.78
		c16.01-1.33,32.41-2.67,49.18-4.01c-0.7-9.2-1.26-17.33-1.47-23.73c0-0.09,0-0.18,0-0.27c-2.05-1.19-4.26-2.12-6.59-2.75
		c2.33-5.39,3.77-11.43,4.08-17.82H112V1034.4z M84,1022.02h-5v-2.48h5V1022.02z M104,1040.58h-5v-2.48h5V1040.58z"/>
	
		<linearGradient id="SVGID_00000049929787251224562760000015109996070133533063_" gradientUnits="userSpaceOnUse" x1="-2955.2397" y1="5366.4224" x2="3674.0513" y2="-1262.8687" gradientTransform="matrix(1 0 0 -1 264.8622 3644.0552)">
		<stop  offset="0" style="stop-color:#00131B"/>
		<stop  offset="0.6154" style="stop-color:#030A26"/>
		<stop  offset="1" style="stop-color:#0A3258"/>
	</linearGradient>
	<path style="fill:url(#SVGID_00000049929787251224562760000015109996070133533063_);" d="M112,1034.4L112,1034.4
		c-2.15-13.37-9.29-24.63-19.03-30.94H92v-0.59c-4.55-2.75-9.62-4.44-15-4.79v5.76v9.53h-7v2.48h-1.73
		c-0.09,0.22-0.18,0.44-0.27,0.66v15.43h2v7.43h-7.3c0.63,13.33,2.7,34.47,4.72,54.78c16.01-1.33,32.41-2.67,49.18-4.01
		c-0.7-9.2-1.26-17.33-1.47-23.73c0-0.09,0-0.18,0-0.27c-2.05-1.19-4.26-2.12-6.59-2.75c2.33-5.39,3.77-11.43,4.08-17.82H112V1034.4
		z M84,1022.02h-5v-2.48h5V1022.02z M104,1040.58h-5v-2.48h5V1040.58z"/>
	<rect x="79" y="1019.54" class="st3" width="5" height="2.48"/>
	
		<linearGradient id="SVGID_00000036970089673153882070000001560144374931074730_" gradientUnits="userSpaceOnUse" x1="-2940.876" y1="5380.7866" x2="3688.4153" y2="-1248.5048" gradientTransform="matrix(1 0 0 -1 264.8622 3644.0552)">
		<stop  offset="0" style="stop-color:#00131B"/>
		<stop  offset="0.6154" style="stop-color:#030A26"/>
		<stop  offset="1" style="stop-color:#0A3258"/>
	</linearGradient>
	
		<rect x="79" y="1019.54" style="fill:url(#SVGID_00000036970089673153882070000001560144374931074730_);" width="5" height="2.48"/>
	<rect x="99" y="1038.11" class="st3" width="5" height="2.48"/>
	
		<linearGradient id="SVGID_00000112633454556793149150000000145510667566572170_" gradientUnits="userSpaceOnUse" x1="-2940.1582" y1="5381.5039" x2="3689.1328" y2="-1247.7871" gradientTransform="matrix(1 0 0 -1 264.8622 3644.0552)">
		<stop  offset="0" style="stop-color:#00131B"/>
		<stop  offset="0.6154" style="stop-color:#030A26"/>
		<stop  offset="1" style="stop-color:#0A3258"/>
	</linearGradient>
	
		<rect x="99" y="1038.11" style="fill:url(#SVGID_00000112633454556793149150000000145510667566572170_);" width="5" height="2.48"/>
	<path class="st4" d="M15.35,862.82c11.47-3.77,19.79-16.87,23.19-33.85c3.51,3.11,7.73,4.92,12.26,4.92
		c12.26,0,22.2-13.25,22.2-29.6c0-6.38-1.52-12.28-4.09-17.11c2.08,0.33,4.19,0.51,6.33,0.51c28.85,0,52.24-31.18,52.24-69.65
		c0-8.36-1.11-16.37-3.13-23.79c-7.29-26.75-26.53-45.86-49.11-45.86c-6.72,0-13.14,1.69-19.05,4.78c0.8-4.71,1.23-9.6,1.23-14.63
		c0-36.24-22.03-65.61-49.21-65.61c-3.36,0-6.63,0.48-9.8,1.34c0,0.03,0,0.06,0.01,0.09c0.14,3.08-0.29,6.08-1.17,8.92
		c0.49,33.06,2.13,66.1,2.16,99.18c0.01,7.39-0.11,14.76-0.34,22.11c0.14,19.28,0.19,38.57,0.44,57.85
		c0.05,3.44,0.05,6.88,0.04,10.32c-0.09,23.59-1.45,47.15-2.88,70.7c1.13,3.15,1.75,6.46,1.75,9.81c0,2.7-0.02,5.4-0.04,8.1
		C3.86,864.04,9.66,864.68,15.35,862.82z M120.92,695.4c1.23,5.38,2.2,11.38,2.86,18.08c0,0-1.75-7.43-5.36-17.23
		c-7.34-19.89-22.4-49.53-46.21-46.58C72.21,649.66,108.85,642.41,120.92,695.4z"/>
	<path class="st4" d="M1083.39,772.1c0,5.32,1.35,10.25,3.66,14.33c-4.26,6.87-6.79,15.4-6.79,24.64c0,16.75,8.29,31.15,20.17,37.55
		c0.67,0,1.36,0.01,2.02,0.01c9.26,0.05,17.37,0.09,23.91,0.13c0,0,0,0.01,0,0.01c-0.65-7.06-0.97-14.16-0.69-21.34
		c0.51-13.39,1.99-26.7,3.38-40.02c-1.31-3.36-2.1-6.98-2.27-10.74c-0.09-1.95,0.06-3.87,0.4-5.74c-0.59,0.35-1.17,0.71-1.73,1.09
		c-0.03-13.61-8.89-24.7-20.02-25.34c-0.33-0.02-0.67-0.03-1-0.03C1092.8,746.67,1083.39,758.05,1083.39,772.1z"/>
	<path class="st4" d="M1076.09,608.63c0,15.2,5.58,28.72,14.23,37.38c-6.26,8.67-10.06,20.01-10.06,32.42
		c0,27.24,18.26,49.32,40.77,49.32c0.4,0,0.79-0.01,1.19-0.02c1.38-0.05,2.74-0.19,4.08-0.4c0.43-2.25,1.18-4.41,2.15-6.47
		c-1.77-3.85-2.84-8.1-3.04-12.53c-0.19-4.29,0.71-8.41,2.42-12.16c-1.4-3.45-2.25-7.19-2.42-11.08c-0.21-4.58,0.83-8.97,2.77-12.92
		c-2.39-28.97-4.92-57.93-4.11-87.02c0.01-0.31,0.03-0.62,0.05-0.93c-11.6-3.46-23.08-6.84-34.38-10.12
		c-0.54-0.16-1.08-0.32-1.62-0.47C1080.73,582.29,1076.09,594.76,1076.09,608.63z"/>
	<path class="st4" d="M1040.54,830.69c15.83-21.61,11.64-58.25-9.37-81.83c-11.12-12.49-24.73-18.81-37.43-18.79
		c14.69-32.04,9.33-68.58-4.55-78.49c-8.61-6.15-23.57,0.41-37.29,13.9c-0.04,0.05-0.09,0.09-0.13,0.13c-1.35,1.33-2.69,2.72-4,4.19
		c-0.08,0.09-0.14,0.15-0.17,0.18c-0.02,0.01-0.02,0.02-0.02,0.02s-0.01-0.01-0.01-0.01c0,0,0,0,0,0
		c-6.5-12.94-15.83-22.42-26.59-26.32c-0.59-0.21-1.19-0.41-1.79-0.59c-0.5-0.15-0.99-0.29-1.49-0.41
		c-0.57-0.14-1.14-0.27-1.72-0.38c-1.97-0.38-3.98-0.58-6.02-0.58h0c-26.12,0-47.29,32.16-47.29,71.83
		c0,11.05,1.65,21.51,4.58,30.87c-14.2,1.43-25.46,22.28-25.46,47.8c0,18.47,5.9,34.49,14.54,42.48h0c0.48-0.02,0.95-0.04,1.43-0.06
		c7.81-0.31,15.9-0.53,24.23-0.63c0.41-0.41,0.81-0.82,1.21-1.26c0.07,0.42,0.16,0.83,0.24,1.25c29.31-0.3,61.51,0.92,94.69,4.82
		l12.73,9.41c7.79,0.02,15.7,0.04,23.61,0.06c-0.63-0.83-1.27-1.63-1.92-2.39C1023.34,845.47,1033.38,840.46,1040.54,830.69z"/>
	<path class="st4" d="M909.26,939.15c0.02,0.17,0.03,0.34,0.05,0.51c4.62-2.37,9.8-4.64,15.61-6.72c-0.01-0.18-0.01-0.36-0.02-0.53
		C919.08,934.49,913.88,936.78,909.26,939.15z"/>
	<path class="st4" d="M994.12,923.35c3.92-0.09,7.84-0.18,11.74-0.27l0,0c3.32-0.08,6.63-0.15,9.91-0.23h0
		c2.88-0.05,6.31-0.09,10.16-0.1c0.07-0.17,0.14-0.35,0.21-0.53c-3.43,0.08-6.88,0.16-10.37,0.24c-6.18,0.1-9.88,0.23-9.91,0.23
		c0,0,0,0,0,0c-0.81-0.04-1.59-0.07-2.38-0.1c-4.65,0.11-9.31,0.22-13.97,0.33C990.96,923.06,992.49,923.21,994.12,923.35z"/>
	<path class="st4" d="M118.42,696.24c0.83-0.28,1.66-0.56,2.51-0.85c-12.08-52.98-48.71-45.73-48.71-45.73
		C96.02,646.71,111.07,676.36,118.42,696.24z"/>
	
		<linearGradient id="SVGID_00000061438769877271419870000003907855416546984590_" gradientUnits="userSpaceOnUse" x1="-119.4493" y1="2988.9712" x2="-165.7095" y2="2972.4497" gradientTransform="matrix(1 0 0 -1 264.8622 3644.0552)">
		<stop  offset="0.0308" style="stop-color:#0D0E2B"/>
		<stop  offset="0.5487" style="stop-color:#301F3C"/>
		<stop  offset="0.9667" style="stop-color:#F6C5EC"/>
	</linearGradient>
	<path style="fill:url(#SVGID_00000061438769877271419870000003907855416546984590_);" d="M118.42,696.24
		c0.83-0.28,1.66-0.56,2.51-0.85c-12.08-52.98-48.71-45.73-48.71-45.73C96.02,646.71,111.07,676.36,118.42,696.24z"/>
	<path class="st4" d="M123.78,713.47c-0.66-6.7-1.63-12.69-2.86-18.08c-0.84,0.28-1.67,0.57-2.51,0.85
		C122.03,706.04,123.78,713.47,123.78,713.47z"/>
	
		<linearGradient id="SVGID_00000018218639070237491320000016680949621051759515_" gradientUnits="userSpaceOnUse" x1="-106.4343" y1="2952.5291" x2="-152.6945" y2="2936.0076" gradientTransform="matrix(1 0 0 -1 264.8622 3644.0552)">
		<stop  offset="0.0308" style="stop-color:#0D0E2B"/>
		<stop  offset="0.5487" style="stop-color:#301F3C"/>
		<stop  offset="0.9667" style="stop-color:#F6C5EC"/>
	</linearGradient>
	<path style="fill:url(#SVGID_00000018218639070237491320000016680949621051759515_);" d="M123.78,713.47
		c-0.66-6.7-1.63-12.69-2.86-18.08c-0.84,0.28-1.67,0.57-2.51,0.85C122.03,706.04,123.78,713.47,123.78,713.47z"/>
	<path class="st4" d="M1123.34,1151.25c0.01,0.26,0.02,0.51,0.04,0.77C1123.36,1151.76,1123.35,1151.5,1123.34,1151.25z"/>
	<path class="st4" d="M1124.14,1121.01c-0.02,0.32-0.04,0.63-0.06,0.95C1124.1,1121.64,1124.12,1121.32,1124.14,1121.01z"/>
	<path class="st4" d="M1123.55,1154.83c0,0.05,0.01,0.1,0.01,0.15C1123.56,1154.93,1123.56,1154.88,1123.55,1154.83z"/>
	<path class="st4" d="M1124.56,1115.26c-0.05,0.68-0.11,1.37-0.16,2.05C1124.46,1116.62,1124.51,1115.94,1124.56,1115.26z"/>
	<path class="st4" d="M1123.42,1134.51c-0.01,0.4-0.03,0.79-0.04,1.19c0.04-1.13,0.08-2.25,0.12-3.38
		c-0.78,0.77-1.57,1.53-2.38,2.29L1123.42,1134.51z"/>
	<path class="st4" d="M1124.76,1112.79c0.06-0.77,0.13-1.55,0.19-2.32c-0.02,0.19-0.03,0.37-0.05,0.56
		C1124.85,1111.62,1124.81,1112.2,1124.76,1112.79z"/>
	<path class="st4" d="M1123.24,1148.21c0.01,0.26,0.01,0.52,0.02,0.79C1123.25,1148.73,1123.24,1148.47,1123.24,1148.21z"/>
	<path class="st4" d="M1070,1160.46v-0.02c-0.05,0-0.09,0.01-0.14,0.02c-17.75,1.86-29.02-8.36-36.16-21.27
		c-22.15,0.76-45.19,1.54-67.64,2.28l-14.77,0.65l-41.22,1.82l-41.59,1.84h-43.53c-3.84,13.86-8.57,19.99-8.57,19.99l-55.68,2.34
		c-0.12,0.01-0.23,0.03-0.35,0.03c-0.04,0-0.08-0.01-0.12-0.01l-0.24,0.01v-0.03c-3.12-0.19-6.06-2.86-8.65-7.47
		c-2.49-4.44-4.66-10.65-6.35-18.15v18.14h-7.18L652,1141.33l-29.13-6.55c-32.61,0.44-52.8,0.9-52.8,1.73
		c0,4.36,17.78-4.36,56.89,14.55c39.11,18.91-98.67,14.34-204.44,11.64s-17.78-20.37,30.22-26.19s-71.11-2.91-131.56-2.91
		c-35.34,0-128.41-0.99-201.76-5.89c-18.02-1.2-34.84-2.64-49.33-4.36c-23.85-2.83-41.35-6.41-47.41-10.93
		c-0.91-0.68-1.57-1.37-1.94-2.09c-2.17-4.15,16.39-7.33,47.32-9.77c2.37-0.19,4.8-0.37,7.31-0.55c12.41-0.88,26.49-1.66,41.81-2.34
		c3.82-0.17,7.72-0.33,11.69-0.49c7.67-0.31,15.6-0.6,23.74-0.86c-8.27-0.2-16.19-0.41-23.47-0.6c-4.28-0.11-8.34-0.22-12.13-0.33
		c-17.93-0.49-29.79-0.85-29.79-0.85l29.61-1.58l12.63-0.67l95.43-5.09c-0.36,1.79-0.56,3.67-0.56,5.6c0,0.58,0.02,1.14,0.06,1.71
		c0.07,1.13,0.2,2.23,0.39,3.31c0.87,4.89,3,9.19,5.94,12.37c0.89,0.97,1.86,1.83,2.9,2.58c2.4,1.73,5.13,2.82,8.05,3.07
		c0.92,0.18,1.87,0.27,2.83,0.27H425.6h5.47c2.38,0,4.66-0.56,6.75-1.58c2.76-1.34,5.2-3.48,7.13-6.18
		c2.88-4.04,4.62-9.33,4.62-15.13c0-0.16-0.01-0.31-0.01-0.47c0.33,0,0.67,0,1,0c-0.07,5.49-1.78,10.24-3.72,13.62
		c-0.45,0.79-0.93,1.49-1.41,2.14c-0.6,0.81-1.21,1.54-1.79,2.19c-1.08,1.1-2.08,1.94-2.94,2.54c-0.43,0.28-0.82,0.53-1.16,0.76
		c-0.26,0.15-0.49,0.26-0.69,0.37c-0.06,0.03-0.14,0.07-0.19,0.1c-0.48,0.25-0.73,0.4-0.72,0.42c0.01,0.02,0.27-0.08,0.76-0.3
		c0.19-0.09,0.43-0.19,0.69-0.31c0.07-0.03,0.14-0.06,0.22-0.1c0.35-0.21,0.75-0.45,1.19-0.71c0.88-0.57,1.91-1.4,3.03-2.49
		c0.63-0.69,1.3-1.47,1.97-2.35c0.45-0.61,0.91-1.25,1.33-1.98c2.02-3.41,3.8-8.24,3.9-13.88c29.54,0.03,47.92,0.14,47.93,0.14
		c2.31-0.84,7.4-1.68,14.84-2.52l-1.82-6.05l3.73,5.84c8.83-0.94,20.64-1.86,34.82-2.74c-0.47-7.79-0.62-16.41-0.17-25.38
		c-41.97,2.06-83.15,4.28-123.37,6.63c-0.28-0.05-1.64-0.1-3.82-0.14c0.05-0.05,0.1-0.08,0.17-0.15c0.24-0.23,0.58-0.58,0.99-1.07
		c0.82-0.98,1.94-2.5,3.1-4.59c0.58-1.05,1.16-2.24,1.64-3.62c0.48-1.36,0.89-2.97,0.81-4.7c-0.11-3.42-1.23-6.94-2.59-10.39
		c-1.38-3.46-2.98-6.55-4.22-9.48c-1.26-2.92-2.28-5.64-3.07-7.95c-0.79-2.31-1.37-4.21-1.78-5.53c-0.31-1-0.51-1.66-0.61-1.91
		l-5.3-19.54l-0.3-34.68c0,0,0,0,0,0c0,0,0,0,0,0c0.03,2.1,0.05,4.1,0.07,6.01c0,1.91,0.12,3.7,0.13,5.4
		c0.05,3.38,0.02,6.33,0.03,8.76c0.01,2.42,0.05,4.33,0.1,5.62c0.02,0.65,0.05,1.14,0.08,1.47c0.02,0.33,0.04,0.5,0.05,0.5
		c0.01,0,0.02-0.17,0.01-0.51c0-0.38-0.01-0.86-0.01-1.48c-0.01-1.29-0.01-3.19,0.02-5.61c0.02-2.42,0.09-5.37,0.07-8.76
		c0.01-1.7-0.1-3.51-0.09-5.41c-0.01-1.84-0.02-3.78-0.03-5.8c6.51-2.7,14.12-5.86,22.35-9.27l0.24-0.1l-0.07-0.3
		c-0.4-1.63-0.81-3.28-1.23-4.95l0.22-0.09c6.71-2.72,13.1-5.28,18.8-8.08c0.35-0.19,0.7-0.38,1.05-0.57
		c0.35-0.23,0.7-0.46,0.99-0.73c0.62-0.51,1.23-1.03,1.81-1.59c1.16-1.11,2.19-2.35,3.02-3.72c0.84-1.35,1.46-2.84,1.9-4.33
		c0.42-1.49,0.75-2.92,1.1-4.29c1.36-5.43,2.46-9.84,3.24-12.95c0.36-1.49,0.65-2.67,0.85-3.53c0.09-0.38,0.15-0.68,0.21-0.92
		c0.04-0.21,0.06-0.32,0.05-0.32l0,0c-0.01,0-0.04,0.1-0.11,0.3c-0.07,0.24-0.15,0.54-0.26,0.9c-0.23,0.85-0.55,2.01-0.95,3.49
		c-0.81,3.09-1.97,7.48-3.39,12.88c-0.36,1.35-0.71,2.8-1.13,4.26c-0.43,1.44-1.04,2.87-1.86,4.18c-0.21,0.33-0.42,0.66-0.65,0.98
		c1.27-1.91,2.26-4.13,2.88-6.55l12.29-48.04c0,0,1.46-5.46,1.97-9.46c0.27-2.11,0.37-4.4,0.4-6.09l0.35-2.2
		c0.09-0.54-0.01-1.06-0.22-1.5c0.15-1.42,0.4-3.88,0.6-5.74c0.36-3.29,0.29-5.97-0.39-4.22c-0.27,0.67-1.6,5.17-2.68,8.77
		l-3.21-0.5c0,0-0.64,1.28-0.13,2.23c0.3,0.57,1.51,1.01,2.43,1.27c-0.3,0.96-0.5,1.58-0.54,1.6l1.65-0.97v0l-7.89,4.64
		c-0.39-3.89-2.83-7.72-2.69-5.76c0.14,1.95,0.12,12.11,0.12,12.11l-13.88,37.16c-1.88,5.88-5.76,9.62-8.67,10.52l-13.19,5.04
		l-0.73-2.93c-3.52,1.14-7.8,2.42-12.07,3.67c-0.68-1.25-1.35-2.51-1.62-3.95c-0.06-0.35-0.09-0.68-0.08-1
		c0.24-0.84,0.64-1.68,1.07-2.51c0.1-0.14,0.19-0.29,0.29-0.43c0.41-0.6,0.81-1.24,1.09-1.98c0.29-0.73,0.42-1.59,0.34-2.38
		c-0.07-1.02-0.34-1.95-0.69-2.81c-0.5-1.5-1.34-2.92-2.28-4.15c-0.34-0.44-0.69-0.86-1.05-1.28c-1.37-1.81-2.77-3.42-3.8-5.18
		c-1.18-1.96-1.59-4.25-1.79-6.3c-0.2-2.08-0.25-3.98-0.37-5.65c-0.1-1.67-0.24-3.11-0.36-4.28c-0.14-1.17-0.26-2.07-0.37-2.68
		c-0.1-0.61-0.16-0.92-0.18-0.92c0,0,0,0.01,0,0.01c-0.9-7.48-3.21-14.3-10.96-15.22l0,0c-0.79-5.91-7.49-9.21-13.08-7.87
		c-5.59,1.34-10,5.99-13.34,10.95c-2.66,3.94-4.94,8.56-4.49,13.29c0.17,1.76,0.71,3.52,1.06,5.26c0.01,0.09,0.02,0.19,0.03,0.28
		c0.14,1.38,0.26,2.14,0.3,2.15c0.04,0.9-0.05,1.79-0.33,2.67c-1.03,3.24-4.41,5.21-5.45,8.44c-1.61,5,3.05,9.73,3.11,14.96
		c0.06,5.32-4.44,9.36-7.35,13.8c-3.08,4.71-4.43,10.77-3.37,16.19c-2.01,5.59-6.38,19.32-9.48,29.15c-0.48,0.87-0.84,1.6-1.06,2.13
		c-0.26,0.61-0.38,0.93-0.37,0.94c0.02,0.01,0.18-0.29,0.47-0.87c0.16-0.32,0.38-0.72,0.64-1.19c-1.8,5.73-3.1,9.91-3.1,9.91l0,0
		l4.71,0.98l-1.3,10.42c-4.98-6.17-8.95-11.2-9.23-11.86c-0.31-0.71-0.86-8.31-1.56-17.41l4.12-1.83c0,0-1.95-5.42-5.29-12.59
		c-0.35-3.96-0.72-7.68-1.1-10.76c-1.64-13.4-8.49-28.41-19.04-19.26c-3.65-3.07-7.52-4.97-11.49-4.94l0.67-8.55
		c0,0,7.13,2.18,9.3-5.99c0.87-3.26,1.67-20.45,2.15-32.89c3.12-2.45,5.51-6.36,6.45-10.79c0.48-2.25,0.57-4.77-0.36-6.79
		c-0.93-2.02-3.14-3.23-4.79-2.11c-0.01-3.17-2.04-6.15-4.57-6.68c-2.53-0.53-5.25,1.45-6.1,4.44c-1.19-2.02-3.54-2.69-5.45-1.89
		c-1.27,0.53-2.33,1.62-3.12,2.98c-3.18,0.01-10.39,0.89-15.33,7.93c-0.24-0.39-0.63-1.03-0.81-1.92c-0.32-1.4,0.06-2.57-0.08-2.65
		c-0.06-0.04-0.25,0.21-0.4,0.72c-0.15,0.51-0.21,1.29-0.04,2.11c0.18,0.81,0.55,1.45,0.89,1.8c0.09,0.09,0.17,0.17,0.25,0.23
		c-0.08,0.11-0.15,0.23-0.22,0.35c-0.06-0.11-0.12-0.22-0.2-0.35c-0.39-0.63-1.09-1.37-2-1.86c-0.91-0.49-1.82-0.6-2.46-0.53
		c-0.64,0.07-1.01,0.28-0.99,0.36h0c0.02,0.2,1.56-0.14,3.24,0.79c1.05,0.55,1.78,1.38,2.21,1.9c-1.97,3.15-3.51,7.4-4.14,13.15
		c-0.95,8.63,2.4,15.59,2.95,20.9c1.15,11.04,2.73,15.71,2.73,15.71l0.06,0l-0.35,8.82c-4.02-0.46-22.23-0.99-31.28,24.7
		c-0.11,0.04-0.18,0.07-0.18,0.07c0,0.02,0.06,0.01,0.16-0.01c-0.43,1.24-0.86,2.51-1.25,3.87l-6.86,26.02h0v0
		c0,0-2.65,14.27-4.3,24.36H161v14.85h-5v30.94h-13v-16.09h-20.79H118v12.31v3.78h-0.94h-4.45c-0.31,6.39-1.75,12.43-4.08,17.82
		c2.33,0.63,4.54,1.56,6.59,2.75c3.56,2.06,6.65,4.89,9.03,8.28l0,0c0.39,0.55,0.76,1.13,1.11,1.71c2.31,3.83,3.77,8.25,4.12,13
		c-4.29,0.34-8.55,0.68-12.79,1.02c-16.77,1.34-33.18,2.68-49.18,4.01c-22.98,1.91-45.14,3.82-66.42,5.69
		c-0.25,0.02-0.51,0.04-0.76,0.07c-0.43,0.04-0.87,0.08-1.3,0.11h1.3H1v0.01v12.37V1626h1124v-461.05c-0.5-2.31-0.87-4.65-1.14-7
		c0.01,0.08,0.01,0.16,0.02,0.25L1070,1160.46z M125,1069.05h-5v-2.48h5V1069.05z M444.28,1075.76c1.75,1.87,3.13,4.1,4.16,6.48
		c-0.07,0.03-0.16,0.06-0.27,0.1c-0.04,0.02-0.11,0.04-0.15,0.06l-0.6,0.1c-1.15-2.68-2.71-5.05-4.58-6.97l1.15-0.06
		C444.1,1075.57,444.19,1075.66,444.28,1075.76z M448.48,1082.32l-0.2,0.03c0.07-0.03,0.13-0.06,0.18-0.09
		C448.47,1082.29,448.47,1082.3,448.48,1082.32z M247,1040.58v7.43h-6v-7.43H247z M241,1034.4v-7.43h6v7.43H241z M310.23,989.22
		L310.23,989.22L310.23,989.22z M247.01,1088.69L247.01,1088.69L247.01,1088.69z M392.17,1081.68L392.17,1081.68L392.17,1081.68z
		 M378.72,1089.64L378.72,1089.64L378.72,1089.64z M265.84,1069.05L265.84,1069.05L265.84,1069.05z M322.81,943.55L322.81,943.55
		L322.81,943.55z M442.42,1108.58L442.42,1108.58L442.42,1108.58L442.42,1108.58L442.42,1108.58z M509.31,1071.99l-60.29,10.24
		c-1.05-2.5-2.47-4.84-4.26-6.8L509.31,1071.99z M424.39,1068.77c-0.47,0.03-0.94,0.05-1.41,0.08l0-0.05
		C423.49,1068.79,423.96,1068.78,424.39,1068.77z M424.19,1067.08c-0.55,0.73-0.94,1.18-1.12,1.4c-0.03,0-0.06,0-0.09,0l0-0.19
		c0.67-0.67,1.31-1.39,1.9-2.16C424.63,1066.48,424.4,1066.8,424.19,1067.08z M423.68,1037.13l-0.06,0.01l-0.15-0.47
		C423.54,1036.82,423.6,1036.97,423.68,1037.13z M405.56,887.45c0.09,1.17,0.2,2.6,0.27,4.27c0.03,0.65,0.06,1.34,0.09,2.06
		c-0.14-2.25-0.24-4.66-0.43-7.08C405.51,886.94,405.53,887.19,405.56,887.45z M357.99,992.85l3.01,0.62l1.22-13.22l6.85,33.49
		c0,0,0,0.01-0.01,0.02c-0.5-0.49-0.77-0.77-0.81-0.71c-0.02,0.03,0.25,0.35,0.75,0.9c-0.34,1.18-2.03,7.22-3.49,13.94
		c-0.32-0.07-0.62-0.14-0.9-0.21l-2.24-0.25l0.68-1.26c0,0-3.38-4.1-7.87-9.59L357.99,992.85z M339.41,1029.45H323v-15.5
		C328.03,1018.8,334.02,1024.43,339.41,1029.45z M327.17,951.7L327.17,951.7L327.17,951.7z M216,1070.29h5v2.48h-5V1070.29z
		 M208,1012.12h6v7.43h-6V1012.12z M208,1040.58h6v7.43h-6V1040.58z M176,1012.12h6v7.43h-6V1012.12z M176,1026.97h6v7.43h-6
		V1026.97z M176,1040.58h6v7.43h-6V1040.58z M173,1085.14h5v0.19c-1.67,0.13-3.34,0.25-5,0.38V1085.14z M894.97,1203.96h-0.04
		H894.97z"/>
	<line class="st24" x1="894.93" y1="1203.96" x2="894.97" y2="1203.96"/>
	<path class="st25" d="M511.98,1084.28l1.82,6.05c0.62-0.07,1.25-0.14,1.91-0.21L511.98,1084.28z"/>
	<path class="st25" d="M509.31,1071.99l-64.55,3.44c1.8,1.96,3.22,4.3,4.26,6.8L509.31,1071.99z"/>
	<path class="st25" d="M447.43,1082.5l0.6-0.1c0.05-0.02,0.11-0.04,0.15-0.06c0.11-0.04,0.19-0.07,0.27-0.1
		c-1.04-2.38-2.42-4.61-4.16-6.48c-0.09-0.1-0.19-0.19-0.28-0.29l-1.15,0.06C444.72,1077.45,446.28,1079.82,447.43,1082.5z"/>
	<path class="st25" d="M448.48,1082.32c-0.01-0.02-0.02-0.04-0.02-0.05c-0.05,0.02-0.11,0.05-0.18,0.09L448.48,1082.32z"/>
	<path class="st25" d="M224.31,1092.77c0-1.93,0.19-3.81,0.56-5.6l-95.43,5.09l-12.63,0.67l-29.61,1.58c0,0,11.86,0.36,29.79,0.85
		c3.79,0.1,7.85,0.21,12.13,0.33c7.29,0.19,15.2,0.4,23.47,0.6c22.67-0.75,46.96-1.34,71.76-1.82
		C224.34,1093.91,224.31,1093.34,224.31,1092.77z"/>
	<path class="st26" d="M571.96,1128.46c-0.49,0.15-0.99,0.23-1.49,0.23c-0.68,0-1.35-0.15-2.01-0.41c-2.83-1.13-5.44-4.62-7.66-9.87
		c-0.63-1.5-1.23-3.14-1.8-4.91c-0.39-1.22-0.76-2.49-1.11-3.83c0.12,1.06,0.24,2.11,0.37,3.19l-3.09,10c0,0-1.61-7.01-3.02-18.1
		c-0.64-5.04-1.24-10.93-1.62-17.38c-14.18,0.88-25.99,1.8-34.82,2.74c-0.66,0.07-1.29,0.14-1.91,0.21
		c-7.44,0.84-12.53,1.68-14.84,2.52c0,0-18.39-0.11-47.93-0.14c-0.1,5.65-1.88,10.48-3.9,13.88c-0.43,0.73-0.88,1.38-1.33,1.98
		c-0.66,0.89-1.34,1.67-1.97,2.35c-1.11,1.09-2.14,1.91-3.03,2.49c-0.44,0.26-0.84,0.5-1.19,0.71c-0.08,0.04-0.14,0.07-0.22,0.1
		c-0.26,0.12-0.5,0.23-0.69,0.31c-0.49,0.22-0.76,0.32-0.76,0.3c-0.01-0.02,0.24-0.16,0.72-0.42c0.06-0.03,0.13-0.07,0.19-0.1
		c0.2-0.1,0.43-0.22,0.69-0.37c0.34-0.22,0.73-0.48,1.16-0.76c0.86-0.6,1.86-1.44,2.94-2.54c0.57-0.65,1.18-1.38,1.79-2.19
		c0.48-0.65,0.96-1.35,1.41-2.14c1.94-3.38,3.65-8.12,3.72-13.62c-0.33,0-0.67,0-1,0c0,0.16,0.01,0.31,0.01,0.47
		c0,5.8-1.75,11.1-4.62,15.13c-1.93,2.71-4.37,4.84-7.13,6.18c-2.09,1.02-4.37,1.58-6.75,1.58h-5.47H244.48
		c-0.96,0-1.91-0.09-2.83-0.27c-2.92-0.26-5.66-1.34-8.05-3.07c-1.03-0.75-2-1.61-2.9-2.58c-2.94-3.18-5.06-7.49-5.94-12.37
		c-0.19-1.08-0.32-2.18-0.39-3.31c-24.81,0.47-49.09,1.07-71.76,1.82c-8.14,0.27-16.06,0.56-23.74,0.86
		c-3.97,0.16-7.87,0.32-11.69,0.49c-15.32,0.68-29.4,1.46-41.81,2.34c-2.51,0.18-4.95,0.36-7.31,0.55
		c-30.93,2.44-49.49,5.62-47.32,9.77c0.38,0.72,1.04,1.42,1.94,2.09c6.06,4.53,23.57,8.11,47.41,10.93
		c14.49,1.72,31.31,3.16,49.33,4.36c73.35,4.9,166.42,5.89,201.76,5.89c60.44,0,179.56-2.91,131.56,2.91s-136,23.49-30.22,26.19
		s243.56,7.27,204.44-11.64c-39.11-18.91-56.89-10.18-56.89-14.55c0-0.82,20.19-1.29,52.8-1.73l-28.05-6.31H571.96z"/>
	<path d="M760,1168.15l0.24-0.01c-0.08,0-0.16-0.02-0.24-0.02V1168.15z"/>
	<path d="M800.52,1080.53c-2.74-10.57-6-20.48-9.81-28c-1.63-3.23-3.37-6.02-5.21-8.23h0.15c-1.82-2.31-3.74-4.03-5.77-4.98
		c-0.82-0.39-1.63-0.71-2.42-0.99c-0.23-0.08-0.45-0.16-0.67-0.23l-1.72,0.12l-11.4,0.82c-0.39,0.21-0.78,0.44-1.16,0.68
		c3.65,1.37,6.98,6.15,9.72,13.37c2.71,7.13,4.82,16.64,6.08,27.59c0.82,7.16,1.27,14.93,1.27,23.05c0,10.44-0.75,20.29-2.06,29.01
		c-3.12,20.68-9.46,34.95-16.82,35.39l55.68-2.34c0,0,4.73-6.13,8.57-19.99h-13.04c0,0-0.06-0.63-0.19-1.77
		c-3.79-1.95-2.99-5.63-1.18-9.64c-0.1-0.72-0.2-1.48-0.3-2.25C808.47,1119.11,805.27,1098.86,800.52,1080.53z"/>
	<path d="M1119.39,1136.19c-14.42,0.51-31.22,1.11-49.39,1.74c-11.63,0.41-23.82,0.83-36.3,1.26c7.14,12.91,18.41,23.13,36.16,21.27
		c0.05,0,0.09-0.01,0.14-0.02v0.02l53.88-2.26c-0.01-0.08-0.02-0.16-0.02-0.25c-0.11-0.99-0.21-1.98-0.29-2.97
		c0-0.05-0.01-0.1-0.01-0.15c-0.08-0.94-0.13-1.88-0.18-2.82c-0.01-0.26-0.02-0.51-0.04-0.77c-0.03-0.75-0.06-1.5-0.08-2.25
		c-0.01-0.26-0.02-0.52-0.02-0.79c-0.02-0.96-0.03-1.91-0.03-2.86c0-3.1,0.06-6.2,0.16-9.3
		C1122.06,1136.09,1120.74,1136.14,1119.39,1136.19z"/>
	<path d="M570,1016.36c0.16-0.01,0.31-0.04,0.47-0.04c2.78,0,5.39,2.28,7.7,6.28c0.07,0.12,0.14,0.23,0.2,0.35
		c1.59,2.85,3.02,6.54,4.25,10.88c2.06,7.25,3.54,16.32,4.21,26.43c0.26,3.95,0.4,8.04,0.4,12.25c0,4.46-0.16,8.79-0.45,12.95
		c-1.42,20.14-6.07,36.1-12.02,41.37c-0.67,0.59-1.35,1.04-2.05,1.35c-0.25,0.11-0.5,0.21-0.75,0.28h22.86l-5.14-1.16l9.88-7.78
		c0,0,0.76-15.47-0.06-34.63c-0.35-8.02-0.97-16.68-2.05-25.12c-1.17-9.18-2.87-18.09-5.32-25.65c-2.26-6.96-5.16-12.75-8.87-16.53
		l-13.26-1.5V1016.36z"/>
	<path class="st27" d="M1124.15,928.57c-0.02-0.23-0.03-0.47-0.05-0.7c-9.56-3.17-18.94-3.96-24.73-4.09
		C1109.32,924.89,1117.48,926.59,1124.15,928.57z"/>
	<path class="st27" d="M1060.37,922.72c12.23-0.5,22.89-0.29,32.17,0.42l-3.33-2.46c-0.07,0-0.14,0-0.2,0l0.2,0.15
		c-16.69,0.36-38.46,0.83-61.87,1.36C1036.63,922.17,1048.17,922.28,1060.37,922.72z"/>
	<path class="st27" d="M1025.93,922.75c-3.84,0.02-7.28,0.06-10.16,0.1h0c-3.29,0.08-6.59,0.15-9.91,0.23l0,0
		c-3.9,0.09-7.82,0.18-11.74,0.27c7.55,0.66,17.33,1.17,31.14,0.95c7.56-0.12,16.31-0.46,26.59-1.13c0.65-0.04,1.28-0.08,1.92-0.11
		C1043.43,922.77,1033.8,922.71,1025.93,922.75z"/>
	<path class="st27" d="M883.45,833.97c-0.48,0-0.97,0.01-1.45,0.02c-8.33,0.1-16.42,0.32-24.23,0.63c-0.48,0.02-0.95,0.04-1.43,0.06
		h0c-24.97,1.05-47.02,3.04-64.69,5.11c-1.13-0.38-2.27-0.73-3.42-1.02c-25.92,3.16-41.44,6.31-41.44,6.31
		c-49.73,12.59-86.29,57.31-107.9,89c5.6,4.23,3.53,14.89,3.33,15.88c8.3-13.98,22.6-36.63,38.78-56.02
		c1.22-1.47,2.46-2.91,3.71-4.34c8.87-10.15,18.19-19.09,27.32-24.94c0,0,20.12-10.49,39.23-12.33c2.55-0.25,5.08-0.34,7.54-0.23
		c5.9,0.25,11.41,1.65,15.84,4.82c20.13,14.39,21.02,74.73,21.02,74.73l0,0c0,0,0.45,14.95-13.42,16.61
		c-4.94,0.59-24.34,3.16-47.24,6.21c-7.27,0.97-14.89,1.99-22.51,3.01c-2.11,0.28-4.22,0.57-6.33,0.85
		c-21.37,2.86-42,5.63-54.16,7.27c-6.71,0.9-10.82,1.46-11.06,1.49c0,0,0,0,0,0s-0.02,0-0.03,0c0,0,0,0,0,0l0,0
		c-0.33,0-4.38-0.04-7.82,0c-3.59,0.04-7.09-3.87-7.09-3.87v-6.38c0,0-0.54-0.22-1.42-0.63c-4.22,6.72-6.9,10.91-7.97,11.13
		c-4.66,0.96-30.09,14.03-36.91,17.56c-1.07,0.55-1.7,0.88-1.7,0.88c-1.88,1.93-3.64,3.95-5.29,6.04c-1.93,2.44-3.71,4.99-5.35,7.62
		c-4.36,7.03-7.69,14.66-10.22,22.57c-0.34,1.08-0.68,2.16-0.99,3.25c-0.67,2.33-1.28,4.68-1.83,7.04
		c-2.29,9.92-3.49,20.03-3.98,29.74c-0.45,8.97-0.3,17.59,0.17,25.38c0.39,6.46,0.98,12.34,1.62,17.38
		c1.41,11.09,3.02,18.1,3.02,18.1l3.09-10c-0.13-1.08-0.25-2.14-0.37-3.19c-0.7-2.65-1.32-5.51-1.86-8.57
		c-0.76-4.31-1.36-8.99-1.76-13.95c-0.38-4.67-0.58-9.58-0.58-14.64c0-3.66,0.11-7.23,0.31-10.69c0.63-10.87,2.19-20.62,4.39-28.28
		c0.08-0.32,0.15-0.63,0.23-0.93c0.8-3.13,1.69-5.76,2.62-7.98c0.37-0.88,0.75-1.7,1.13-2.46c4.47-8.87,9.36-9.31,9.36-9.31
		c4.53-0.3,8.33,1.47,11.53,4.73c3.71,3.78,6.61,9.58,8.87,16.53c2.45,7.56,4.15,16.47,5.32,25.65c1.07,8.45,1.7,17.11,2.05,25.12
		c0.83,19.16,0.06,34.63,0.06,34.63l-9.88,7.78l5.14,1.16l28.05,6.31l29.13,6.55l85.82,19.31H745v-18.14
		c-0.65-2.9-1.23-5.99-1.73-9.23c-1.37-8.85-2.14-18.89-2.14-29.55c0-7.97,0.44-15.6,1.23-22.65c1.2-10.73,3.23-20.09,5.83-27.22
		c1.98-5.43,4.29-9.56,6.82-12c1.59-1.54,3.27-2.42,5-2.52c0.12-0.01,0.24-0.03,0.36-0.03c0.73,0,1.45,0.15,2.16,0.41
		c0.38-0.24,0.77-0.47,1.16-0.68c0.9-0.48,1.83-0.88,2.81-1.18c3.06-0.96,6.48-0.99,10.31,0.24c0.22,0.07,0.45,0.15,0.67,0.23
		c0.79,0.28,1.59,0.61,2.42,0.99c2.03,0.96,3.95,2.67,5.77,4.98h-0.15c1.84,2.2,3.57,5,5.21,8.23c3.81,7.52,7.07,17.44,9.81,28
		c4.76,18.33,7.95,38.59,9.72,51.6c0.11,0.78,0.21,1.53,0.3,2.25c0.34-0.75,0.71-1.51,1.1-2.28c1.76-3.51,3.77-7.07,3.77-9.79
		c0-1.06-0.19-2.79-0.52-4.98c-1.28-8.56-4.68-24.34-7.43-36.82c-1.64-7.43-3.04-13.68-3.61-16.51c-0.15-0.72-0.43-1.52-0.8-2.37
		c-1.19-2.68-3.44-5.93-6.24-9.28c-2.27-2.72-4.9-5.48-7.6-8.05c-2.2-2.1-4.45-4.06-6.59-5.74c-0.36-0.28-0.71-0.55-1.06-0.82
		c-3.1-2.33-5.9-4.01-7.92-4.56c-8-2.2,40-8.8,43.56-8.8c2.14,0,15.24-4.39,27.65-8.84c-0.01-2.09,0.15-4.22,0.69-5.85
		c0.32-0.97,0.73-3.04,1.34-5.69l0.41-0.01c0.04-0.19,0.08-0.38,0.13-0.57l-0.54,0.01c1.29-5.71,3.48-14.13,7.57-20.18
		c0.71-1.05,1.48-2.02,2.31-2.9c3.1-3.66,7.13-5.94,12.42-5.28l6.03-0.15l10.44-18.74c0,0,1.83-4.52,20.53-13.56
		c0.35-0.17,0.71-0.34,1.07-0.51c0.71-0.34,1.45-0.69,2.21-1.04c4.35-2.01,9.47-4.22,15.53-6.63c0,0,0,0,0,0
		c3.71-1.48,7.76-3.03,12.2-4.65c2.03-0.74,3.93-1.42,5.73-2.05c-6.57,1.5-12.55,3.27-17.99,5.22c0,0,0,0,0,0
		c-5.81,2.08-11,4.35-15.61,6.72c-0.76,0.39-1.5,0.78-2.23,1.17l-0.03-0.21c0,0-0.16-0.03-0.43-0.08c0.86-0.47,1.74-0.93,2.64-1.4
		c4.62-2.37,9.82-4.66,15.64-6.74c0,0,0,0,0,0c6.64-2.38,14.09-4.49,22.43-6.17c2.86-0.93,5.43-1.7,7.77-2.33
		c-10.65,0.27-20.92,0.53-30.48,0.79c0,0,0,0,0,0c-5.91,0.16-11.53,0.32-16.81,0.47c-3.17,0.09-6.22,0.18-9.12,0.27
		c0.12,5.5,0.09,11.24,0.06,13.72c-0.01,0.55-0.01,0.93-0.01,1.12c0,0.09,0,0.16,0,0.16l-8.73-1.58v-0.14v-1.13V925.7
		c-13.37,0.44-22.44,0.82-24.86,1.1c-4.34,0.51-8.51,0.76-12.42,0.73c-0.06-0.05-0.11-0.1-0.17-0.16c-0.35-0.33-0.71-0.68-1.06-1.04
		c-8.06-0.28-14.85-1.96-19.18-5.71c-6.73-5.83-28.28-53.34-28.95-60.84c-0.06-0.64,0-1.25,0.14-1.85c0.55-2.22,2.37-4.17,4.54-5.78
		c0.19,0.21,0.39,0.42,0.58,0.64c3.89-2.57,8.29-4.05,8.29-4.05v0h68.28c0.54-0.05,1.36-0.1,2.44-0.14
		c11.92-0.47,55.4-0.53,103.26-0.42l-12.73-9.41C944.96,834.89,912.77,833.67,883.45,833.97z M740.28,1054.11
		c-3.33,8.14-5.43,17.46-6.68,27.09c-2.35,18.22-1.63,37.56-0.35,52.21c1.25,14.27,3.04,24.09,3.04,24.09l-84.3-21.48l-6.05-1.54
		l-30.54-7.78l3.36-2.38l33.23,6.22l19.46,3.64l59.4,11.11l-3.39-11.81l-3.32-11.54l-72.16-3.44l-24.47-1.17l-4.12-7.15l-2.72-26.13
		l-1.34-12.88l-1.29-12.33l-1.04-10.02l-0.71-6.84l20.7-0.68l15-0.49l51-1.67l47.52-1.56
		C746.24,1042.11,742.89,1047.75,740.28,1054.11z M836.74,980.38c-4.42,0-39.76,3.06-81.74,6.83c-7.07,0.64-14.32,1.29-21.65,1.96
		c-10.08,0.92-20.3,1.85-30.35,2.77c-18.13,1.66-35.72,3.28-51,4.7c-5.3,0.49-10.33,0.96-15,1.39c-21.03,1.95-34.93,3.26-34.93,3.26
		l-1.51-2.34l-3.27-5.05l-2.33-3.61l42.04-4l4.11-0.39l10.89-1.04l51.93-4.94l51.07-4.86l105.74-10.07
		C860.74,964.98,848.3,980.38,836.74,980.38z"/>
	<path class="st27" d="M1003.48,922.59c-6.58-0.28-12.86-0.35-18.82-0.2c1.52,0.17,3.12,0.35,4.85,0.53
		C994.17,922.8,998.83,922.7,1003.48,922.59z"/>
	<path class="st27" d="M824.95,1145.79h43.53l41.59-1.84l41.22-1.82l14.77-0.65c-4.96,0.16-9.89,0.33-14.78,0.48
		c-14.22,0.46-28.05,0.91-41.09,1.31c-39.06,1.21-71.05,2.08-85.15,2.2c-3.43,0.03-5.81,0.01-6.97-0.06
		c-2.88-0.17-4.94-0.66-6.35-1.38c0.13,1.14,0.19,1.77,0.19,1.77H824.95z"/>
	<path class="st27" d="M747.83,858.18L747.83,858.18c-1.12,2.02-2.26,4.19-3.42,6.45C745.56,862.37,746.71,860.2,747.83,858.18z"/>
	<path class="st27" d="M775.55,945.3c-1.11,0.14-2.34,0.29-3.68,0.46C773.22,945.59,774.45,945.44,775.55,945.3z"/>
	<path class="st27" d="M780.99,944.64c0.05-0.01,0.11-0.01,0.15-0.02h0C781.1,944.62,781.04,944.63,780.99,944.64z"/>
	<path class="st27" d="M641.31,951.48c0.28-0.47,0.57-0.96,0.86-1.46C641.79,949.9,641.51,950.48,641.31,951.48z"/>
	<path class="st27" d="M756.6,947.69c-1.72,0.22-3.5,0.45-5.33,0.68C753.1,948.14,754.88,947.91,756.6,947.69z"/>
	<path class="st27" d="M793.78,929.56c0,0,0.3,9.65-7.45,13.56C794.08,939.21,793.78,929.56,793.78,929.56
		c0,0-0.84-54.7-19.79-67.75c-3.91-2.69-8.72-3.97-13.9-4.3c5.17,0.33,9.98,1.61,13.9,4.3
		C792.93,874.86,793.78,929.56,793.78,929.56z"/>
	<path class="st27" d="M655.73,960.69c-0.71,0.09-1.38,0.18-2.01,0.26C654.35,960.87,655.02,960.78,655.73,960.69z"/>
	<path class="st28" d="M867.85,988.08l2.61-4.69l4.26-7.64l-6.35,0.16c-4.86-0.61-8.65,1.28-11.64,4.44
		c-0.83,0.88-1.6,1.85-2.31,2.9c-4.09,6.05-6.28,14.47-7.57,20.18l0.54-0.01l22.72-0.55C872.32,996.69,867.85,988.08,867.85,988.08z
		"/>
	<path class="st29" d="M865.19,1007.88c2.44-1.01,3.9-2.59,4.7-4.43l-22.61,0.54l-0.41,0.01c-0.6,2.65-1.01,4.72-1.34,5.69
		c-0.54,1.63-0.7,3.76-0.69,5.85c0.24-0.09,0.48-0.17,0.71-0.26C853.5,1012.43,861.07,1009.58,865.19,1007.88z"/>
	<path class="st30" d="M735,899.31c-8.13,19.28-15.8,39.67-20.96,53.84c1.65-0.21,3.3-0.42,4.95-0.64c0.49-0.06,0.97-0.13,1.46-0.19
		c4.23-0.54,8.44-1.09,12.55-1.61c0.47-0.06,0.94-0.12,1.41-0.18c0.2-0.03,0.4-0.05,0.6-0.08c2.06-0.26,4.09-0.53,6.09-0.78
		c2.21-0.28,4.38-0.56,6.49-0.83c1.25-0.16,2.48-0.32,3.69-0.47c1.83-0.23,3.61-0.46,5.33-0.68s3.38-0.43,4.97-0.63
		c1.76-0.22,3.44-0.44,5.02-0.64c0.32-0.04,0.64-0.08,0.95-0.12c1.55-0.2,2.99-0.38,4.33-0.55c1.34-0.17,2.57-0.32,3.68-0.46
		c2.45-0.3,4.3-0.53,5.43-0.66c0.05-0.01,0.11-0.01,0.15-0.02h0l0,0c0.99-0.11,1.88-0.3,2.72-0.54c0.46-0.13,0.9-0.28,1.32-0.45
		c0.4-0.16,0.78-0.32,1.14-0.5c7.75-3.92,7.45-13.56,7.45-13.56s-0.84-54.7-19.79-67.75c-3.91-2.69-8.72-3.97-13.9-4.3
		c-0.74-0.05-1.48-0.08-2.24-0.09c-0.86-0.01-1.73,0-2.6,0.03C748.99,867.71,741.83,883.12,735,899.31z"/>
	<path class="st30" d="M648.07,961.68c0,0,1.38-0.18,3.85-0.5c0.03,0,0.06-0.01,0.09-0.01c0.53-0.07,1.11-0.14,1.73-0.22
		c0.62-0.08,1.29-0.17,2.01-0.26c1.43-0.18,3.03-0.39,4.78-0.62c1.19-0.15,2.44-0.32,3.76-0.49c6.6-0.85,14.78-1.91,23.74-3.07
		c3.58-0.46,7.29-0.94,11.08-1.43c2.84-0.37,5.71-0.74,8.61-1.11c0.51-1.43,1.06-2.95,1.65-4.56s1.2-3.3,1.85-5.06
		c1.75-4.76,3.72-10.05,5.85-15.65c0.85-2.24,1.73-4.53,2.63-6.85c0.45-1.16,0.91-2.33,1.37-3.51c3.69-9.43,7.69-19.31,11.76-28.75
		c2.91-6.74,5.85-13.24,8.73-19.2c0.96-1.99,1.92-3.91,2.86-5.76c1.15-2.26,2.3-4.43,3.42-6.45c-16.64,2.56-32.8,10.66-32.8,10.66
		c-6.01,3.71-12.11,8.79-18.08,14.65c-1.99,1.95-3.97,3.99-5.93,6.1c-0.18,0.19-0.35,0.38-0.53,0.56c-1.6,1.73-3.18,3.51-4.75,5.31
		c-1.04,1.2-2.08,2.42-3.1,3.65c-0.51,0.61-1.02,1.23-1.53,1.85c-0.04,0.04-0.07,0.09-0.11,0.13c-1.99,2.43-3.95,4.9-5.85,7.37
		c-1.94,2.52-3.83,5.04-5.65,7.54c-0.91,1.25-1.81,2.5-2.69,3.73c-1.32,1.86-2.61,3.69-3.85,5.49c-0.41,0.6-0.83,1.2-1.23,1.79
		c-1.22,1.78-2.39,3.53-3.52,5.23c-0.75,1.13-1.48,2.24-2.19,3.33c-1.77,2.72-3.41,5.28-4.88,7.64c-0.59,0.94-1.16,1.85-1.7,2.73
		c-0.54,0.87-1.05,1.71-1.54,2.51c-3.64,5.98-5.72,9.7-5.72,9.7L648.07,961.68z"/>
	<polygon class="st31" points="640.91,967.05 640.91,967.05 640.91,967.05 	"/>
	<path class="st31" d="M642.17,950.03c-0.3,0.5-0.58,0.98-0.86,1.46c-0.83,4.13-0.37,15.5-0.37,15.57
		c0.24-0.03,4.35-0.59,11.06-1.49c12.16-1.63,32.78-4.41,54.16-7.27c2.11-0.28,4.22-0.56,6.33-0.85c7.63-1.02,15.25-2.04,22.51-3.01
		c22.9-3.05,42.3-5.62,47.24-6.21c13.86-1.66,13.42-16.61,13.42-16.61l0,0c0,0-0.89-60.34-21.02-74.73
		c-4.43-3.17-9.94-4.56-15.84-4.82c-2.46-0.11-4.99-0.01-7.54,0.23c-19.11,1.85-39.23,12.33-39.23,12.33
		c-9.13,5.86-18.45,14.8-27.32,24.94c-1.24,1.42-2.48,2.87-3.71,4.34c-16.19,19.39-30.49,42.04-38.78,56.02
		c-0.01,0.05-0.02,0.08-0.02,0.08C642.19,950.02,642.18,950.03,642.17,950.03z M760.09,857.51c5.17,0.33,9.98,1.61,13.9,4.3
		c18.95,13.05,19.79,67.75,19.79,67.75s0.3,9.65-7.45,13.56c-0.36,0.18-0.74,0.35-1.14,0.5c-0.42,0.17-0.86,0.31-1.32,0.45
		c-0.84,0.24-1.74,0.43-2.72,0.54l0,0c-0.05,0.01-0.11,0.01-0.15,0.02c-1.14,0.13-2.99,0.36-5.43,0.66
		c-1.11,0.14-2.34,0.29-3.68,0.46c-1.34,0.17-2.78,0.35-4.33,0.55c-0.31,0.04-0.63,0.08-0.95,0.12c-1.58,0.2-3.26,0.41-5.02,0.64
		c-1.59,0.2-3.25,0.41-4.97,0.63s-3.5,0.45-5.33,0.68c-1.21,0.15-2.44,0.31-3.69,0.47c-2.11,0.27-4.28,0.55-6.49,0.83
		c-2,0.26-4.03,0.52-6.09,0.78c-0.2,0.03-0.4,0.05-0.6,0.08c-0.47,0.06-0.94,0.12-1.41,0.18c-4.11,0.53-8.31,1.07-12.55,1.61
		c-0.49,0.06-0.97,0.12-1.46,0.19c-1.65,0.21-3.3,0.42-4.95,0.64c5.16-14.17,12.83-34.57,20.96-53.84
		c6.83-16.19,13.99-31.6,20.25-41.86c0.87-0.03,1.74-0.04,2.6-0.03C758.6,857.44,759.35,857.46,760.09,857.51z M647.89,948.47
		c0.49-0.8,1-1.63,1.54-2.51c0.54-0.87,1.1-1.78,1.7-2.73c1.48-2.36,3.11-4.92,4.88-7.64c0.71-1.09,1.44-2.2,2.19-3.33
		c1.13-1.7,2.3-3.45,3.52-5.23c0.41-0.59,0.82-1.19,1.23-1.79c1.24-1.8,2.53-3.64,3.85-5.49c0.88-1.24,1.78-2.48,2.69-3.73
		c1.83-2.5,3.72-5.03,5.65-7.54c1.9-2.47,3.86-4.94,5.85-7.37c0.04-0.04,0.07-0.09,0.11-0.13c0.51-0.62,1.02-1.24,1.53-1.85
		c1.03-1.23,2.06-2.45,3.1-3.65c1.56-1.81,3.15-3.58,4.75-5.31c0.18-0.19,0.35-0.38,0.53-0.56c1.96-2.11,3.94-4.15,5.93-6.1
		c5.98-5.86,12.07-10.94,18.08-14.65c0,0,16.16-8.1,32.8-10.66h0c-1.12,2.02-2.26,4.19-3.42,6.45c-0.95,1.85-1.9,3.78-2.86,5.76
		c-2.88,5.96-5.82,12.46-8.73,19.2c-4.07,9.44-8.08,19.32-11.76,28.75c-0.46,1.18-0.92,2.35-1.37,3.51
		c-0.9,2.32-1.78,4.61-2.63,6.85c-2.13,5.6-4.1,10.89-5.85,15.65c-0.65,1.76-1.27,3.45-1.85,5.06s-1.13,3.13-1.65,4.56
		c-2.9,0.37-5.77,0.74-8.61,1.11c-3.78,0.49-7.49,0.97-11.08,1.43c-8.96,1.16-17.15,2.22-23.74,3.07c-1.32,0.17-2.57,0.33-3.76,0.49
		c-1.76,0.23-3.36,0.43-4.78,0.62c-0.71,0.09-1.38,0.18-2.01,0.26c-0.62,0.08-1.2,0.16-1.73,0.22c-0.03,0-0.06,0.01-0.09,0.01
		c-2.47,0.32-3.85,0.5-3.85,0.5l-5.9-3.51C642.17,958.17,644.25,954.45,647.89,948.47z"/>
	<path class="st32" d="M786.33,943.13c-0.36,0.18-0.74,0.35-1.14,0.5"/>
	<path class="st32" d="M771.88,945.76c-1.34,0.17-2.78,0.35-4.33,0.55"/>
	<path class="st32" d="M780.99,944.64c-1.14,0.13-2.99,0.36-5.43,0.66"/>
	<path class="st32" d="M741.09,949.68c-2,0.26-4.03,0.52-6.09,0.78"/>
	<path class="st32" d="M751.27,948.38c-1.21,0.15-2.44,0.31-3.69,0.47"/>
	<path class="st32" d="M734.4,950.54c0.2-0.03,0.4-0.05,0.6-0.08"/>
	<path class="st32" d="M720.44,952.33c4.23-0.54,8.44-1.09,12.55-1.61"/>
	<path class="st32" d="M669.49,916.01c-0.91,1.25-1.81,2.5-2.69,3.73"/>
	<path class="st32" d="M675.15,908.47c-1.94,2.52-3.83,5.04-5.65,7.54"/>
	<path class="st32" d="M666.8,919.75c-1.32,1.86-2.61,3.69-3.85,5.49"/>
	<path class="st32" d="M696.94,883.49c-1.99,1.95-3.97,3.99-5.93,6.1"/>
	<path class="st32" d="M647.89,948.47c0.49-0.8,1-1.63,1.54-2.51"/>
	<path class="st32" d="M675.15,908.47c1.9-2.47,3.86-4.94,5.85-7.37"/>
	<path class="st32" d="M651.12,943.24c1.48-2.36,3.11-4.92,4.88-7.64"/>
	<path class="st32" d="M741.55,870.39c0.96-1.99,1.92-3.91,2.86-5.76"/>
	<path class="st32" d="M685.74,895.47c-1.04,1.2-2.08,2.42-3.1,3.65"/>
	<path class="st32" d="M709.35,949.41c0.58-1.61,1.2-3.3,1.85-5.06"/>
	<path class="st32" d="M690.49,890.15c0.18-0.19,0.35-0.38,0.53-0.56"/>
	<path class="st32" d="M719.69,921.85c0.45-1.16,0.91-2.33,1.37-3.51"/>
	<path class="st32" d="M711.2,944.35c1.75-4.76,3.72-10.05,5.85-15.65"/>
	<path class="st32" d="M681.11,900.97c-0.04,0.04-0.07,0.09-0.11,0.13"/>
	<path class="st30" d="M1115.41,921.99l8.66,2.47c0.18-3.14,0.93-6.16,2.14-8.99c-0.18-1.16-0.3-2.34-0.35-3.54
		c0-0.03,0-0.05,0-0.08c-3.93,0.98-8,1.95-8.66,1.95C1115.85,913.8,1115.41,921.99,1115.41,921.99z"/>
	<path class="st30" d="M1126.78,877.85c-0.14-3.08,0.3-6.08,1.19-8.91c-0.67-2.41-1.07-4.92-1.19-7.49
		c-0.08-1.88,0.05-3.74,0.36-5.54c-0.23-1.88-0.44-3.76-0.63-5.65c-0.05-0.49-0.1-0.98-0.14-1.48c0,0,0-0.01,0-0.01
		c-6.55-0.04-14.65-0.08-23.91-0.13c-0.66,0-1.35-0.01-2.02-0.01c-23.9-0.13-54.9-0.27-85.95-0.37c-7.91-0.03-15.82-0.05-23.61-0.06
		c-47.86-0.11-91.34-0.06-103.26,0.42c-1.08,0.04-1.89,0.09-2.44,0.14h-68.28c0,0-4.4,1.49-8.29,4.05
		c-2.13,1.41-4.11,3.14-5.12,5.14c-0.15,0.6-0.2,1.21-0.14,1.85c0.67,7.5,22.22,55,28.95,60.84c4.33,3.75,11.11,5.43,19.18,5.71
		c0.35,0.36,0.71,0.7,1.06,1.04c0.06,0.05,0.11,0.11,0.17,0.16c3.92,0.03,8.09-0.22,12.42-0.73c2.42-0.28,11.49-0.66,24.86-1.1
		v11.88v1.13v0.14l8.73,1.58c0,0,0-0.06,0-0.16c0-0.19,0.01-0.58,0.01-1.12c0.03-2.48,0.06-8.22-0.06-13.72
		c2.9-0.09,5.95-0.18,9.12-0.27c5.28-0.15,10.91-0.31,16.81-0.47c0,0,0,0,0,0c9.56-0.26,19.83-0.52,30.48-0.79
		c0.22-0.06,0.43-0.12,0.64-0.17c1.32-0.35,2.56-0.65,3.75-0.91c0,0,0,0,0,0c9.51-2.08,15.32-1.53,24.07-0.56
		c0.36,0.04,0.72,0.08,1.09,0.12c5.96-0.15,12.24-0.08,18.82,0.2c0.8,0.03,1.58,0.06,2.38,0.1c0,0,0,0,0,0
		c0.03,0,3.73-0.13,9.91-0.23c3.48-0.08,6.94-0.16,10.37-0.24c0.4-0.01,0.8-0.02,1.2-0.03c23.41-0.53,45.18-1,61.87-1.36l-0.2-0.15
		l-55.49-41h87.25l7.03,16.36c-0.07-0.65-0.12-1.31-0.15-1.98c-0.11-2.52,0.16-4.97,0.74-7.34
		C1127.47,883.91,1126.92,880.92,1126.78,877.85z"/>
	<path class="st33" d="M777.53,1132.73c1.32-8.72,2.06-18.57,2.06-29.01c0-8.13-0.45-15.89-1.27-23.05
		c-1.25-10.95-3.37-20.45-6.08-27.59c-2.74-7.22-6.08-12.01-9.72-13.37c-0.71-0.27-1.43-0.41-2.16-0.41c-0.12,0-0.24,0.02-0.36,0.03
		c-1.73,0.11-3.41,0.98-5,2.52c-2.52,2.45-4.84,6.57-6.82,12c-2.6,7.13-4.63,16.5-5.83,27.22c-0.79,7.05-1.23,14.68-1.23,22.65
		c0,10.65,0.78,20.7,2.14,29.55c0.5,3.25,1.08,6.34,1.73,9.23c1.69,7.5,3.86,13.71,6.35,18.15c2.59,4.61,5.53,7.28,8.65,7.47
		c0.08,0,0.16,0.02,0.24,0.02c0.04,0,0.08,0.01,0.12,0.01c0.12,0,0.23-0.02,0.35-0.03C768.06,1167.67,774.41,1153.41,777.53,1132.73
		z M760.14,1156.37c-0.05,0-0.09-0.01-0.14-0.01c-1.77-0.07-3.45-1.45-5-3.9c-2.5-3.96-4.63-10.71-6.13-19.27
		c-1.5-8.55-2.38-18.9-2.38-30.05c0-7.9,0.45-15.39,1.24-22.14c1.44-12.29,4.05-22.07,7.28-27.18c0.04-0.07,0.08-0.13,0.13-0.19
		c1.51-2.33,3.15-3.64,4.87-3.71c0.05,0,0.09-0.01,0.14-0.01c1.69,0,3.31,1.21,4.81,3.41c3.35,4.92,6.08,14.83,7.58,27.41
		c0.81,6.81,1.27,14.41,1.27,22.42c0,11-0.86,21.21-2.32,29.69C769.03,1147.03,764.86,1156.37,760.14,1156.37z"/>
	<path class="st33" d="M560.8,1118.41c2.22,5.25,4.83,8.74,7.66,9.87c0.66,0.26,1.33,0.41,2.01,0.41c0.5,0,1-0.09,1.49-0.23
		c0.25-0.07,0.5-0.17,0.75-0.28c0.7-0.31,1.38-0.76,2.05-1.35c5.95-5.27,10.6-21.23,12.02-41.37c0.29-4.16,0.45-8.49,0.45-12.95
		c0-4.21-0.14-8.31-0.4-12.25c-0.67-10.11-2.15-19.18-4.21-26.43c-1.23-4.34-2.66-8.03-4.25-10.88c-0.07-0.12-0.14-0.23-0.2-0.35
		c-2.31-4-4.92-6.28-7.7-6.28c-0.16,0-0.31,0.03-0.47,0.04c-2.51,0.23-4.88,2.3-7,5.83c-0.44,0.73-0.87,1.52-1.29,2.38
		c-1.11,2.28-2.14,4.98-3.06,8.03c-0.09,0.3-0.18,0.62-0.27,0.93c-2.2,7.66-3.76,17.41-4.39,28.28c-0.2,3.46-0.31,7.03-0.31,10.69
		c0,5.07,0.2,9.97,0.58,14.64c0.4,4.95,0.99,9.63,1.76,13.95c0.54,3.06,1.16,5.92,1.86,8.57c0.35,1.33,0.72,2.61,1.11,3.83
		C559.56,1115.26,560.17,1116.91,560.8,1118.41z M570,1026.86c0.15-0.02,0.31-0.05,0.47-0.05c2.31,0,4.47,2.48,6.31,6.79
		c2.57,6,4.52,15.53,5.41,26.87c0.35,4.4,0.53,9.07,0.53,13.91c0,3.89-0.12,7.66-0.35,11.28c-1.18,18.77-5.22,33.17-10.23,35.84
		c-0.55,0.29-1.11,0.46-1.68,0.46c-0.16,0-0.31-0.02-0.47-0.05c-1.31-0.19-2.58-1.17-3.75-2.85c-3.7-5.26-6.56-17.26-7.61-32.16
		c-0.28-3.99-0.43-8.18-0.43-12.51c0-4.43,0.16-8.72,0.45-12.79c0.88-12.23,2.98-22.46,5.77-28.6
		C566.08,1029.35,567.98,1027.15,570,1026.86z"/>
	<path class="st34" d="M558.21,1074.38c0,4.33,0.15,8.52,0.43,12.51c1.04,14.9,3.91,26.9,7.61,32.16c1.18,1.67,2.44,2.66,3.75,2.85
		c0.15,0.02,0.31,0.05,0.47,0.05c0.57,0,1.13-0.16,1.68-0.46c5.01-2.67,9.05-17.07,10.23-35.84c0.23-3.62,0.35-7.39,0.35-11.28
		c0-4.84-0.19-9.51-0.53-13.91c-0.89-11.34-2.84-20.87-5.41-26.87c-1.84-4.31-4-6.79-6.31-6.79c-0.16,0-0.31,0.02-0.47,0.05
		c-2.02,0.29-3.92,2.49-5.57,6.13c-2.78,6.13-4.89,16.37-5.77,28.6C558.37,1065.66,558.21,1069.95,558.21,1074.38z"/>
	<path class="st30" d="M626,963.18c0,0,3.5,3.92,7.09,3.87c3.44-0.04,7.49,0,7.82,0c0,0,0,0,0,0c0.01,0,0.03,0,0.03,0s0,0,0,0
		c0-0.07-0.46-11.44,0.37-15.57c0.2-1.01,0.48-1.58,0.86-1.46c0.01,0,0.02,0,0.03,0c0,0,0.01-0.03,0.02-0.08
		c0.21-0.99,2.27-11.65-3.33-15.88c-1.09-0.82-2.47-1.4-4.21-1.62c-11.13-1.38-25.44,0.46-25.44,8.95c0,6.98,11.3,12.88,15.34,14.76
		c0.88,0.41,1.42,0.63,1.42,0.63V963.18z M616.78,940.33c0,0,13.28-4.55,19.37-2.21c0.19,0.07,0.38,0.16,0.56,0.24
		c0,0,3.33,8.66,0,11.18c0,0-3.43-0.15-7.51-0.72C621.96,947.82,612.65,945.49,616.78,940.33z"/>
	<path class="st35" d="M636.72,938.36c-0.18-0.09-0.37-0.17-0.56-0.24c-6.09-2.34-19.37,2.21-19.37,2.21
		c-4.13,5.16,5.17,7.49,12.42,8.49c4.08,0.57,7.51,0.72,7.51,0.72C640.05,947.02,636.72,938.36,636.72,938.36z"/>
	<path class="st34" d="M773.8,1103.14c0-8.01-0.46-15.6-1.27-22.42c-1.5-12.58-4.22-22.49-7.58-27.41c-1.5-2.2-3.12-3.41-4.81-3.41
		c-0.05,0-0.09,0.01-0.14,0.01c-1.72,0.07-3.36,1.38-4.87,3.71c-0.04,0.06-0.08,0.13-0.13,0.19c-3.23,5.11-5.83,14.89-7.28,27.18
		c-0.79,6.74-1.24,14.24-1.24,22.14c0,11.15,0.88,21.5,2.38,30.05c1.5,8.56,3.63,15.31,6.13,19.27c1.55,2.45,3.23,3.83,5,3.9
		c0.05,0,0.09,0.01,0.14,0.01c4.72,0,8.88-9.34,11.34-23.54C772.95,1124.35,773.8,1114.13,773.8,1103.14z"/>
	<path class="st1" d="M1053.78,923.06c23.96,0.67,51.78,2.57,70.6,7.4c-0.03-0.19-0.05-0.38-0.08-0.57
		c-17.11-4.38-41.62-6.34-63.92-7.17C1058.22,922.81,1056.02,922.93,1053.78,923.06z"/>
	<path class="st36" d="M1053.78,923.06c23.96,0.67,51.78,2.57,70.6,7.4c-0.03-0.19-0.05-0.38-0.08-0.57
		c-17.11-4.38-41.62-6.34-63.92-7.17C1058.22,922.81,1056.02,922.93,1053.78,923.06z"/>
	<path class="st1" d="M1092.56,978.01C1092.56,978.01,1092.56,978.01,1092.56,978.01c-0.5-1.45-4-4.26-4-4.26h0
		C1088.55,973.75,1092.06,976.57,1092.56,978.01z"/>
	<path class="st36" d="M1092.56,978.01C1092.56,978.01,1092.56,978.01,1092.56,978.01c-0.5-1.45-4-4.26-4-4.26h0
		C1088.55,973.75,1092.06,976.57,1092.56,978.01z"/>
	<path class="st1" d="M1093.08,996.98C1093.08,996.98,1093.08,996.98,1093.08,996.98c0.05-2.43,0.04-4.81,0-7c0,0,0,0,0,0
		C1093.12,992.17,1093.13,994.55,1093.08,996.98z"/>
	<path class="st36" d="M1093.08,996.98C1093.08,996.98,1093.08,996.98,1093.08,996.98c0.05-2.43,0.04-4.81,0-7c0,0,0,0,0,0
		C1093.12,992.17,1093.13,994.55,1093.08,996.98z"/>
	<polygon class="st1" points="910.19,974.85 910.09,974.03 875.19,974.92 874.72,975.75 	"/>
	<polygon class="st36" points="910.19,974.85 910.09,974.03 875.19,974.92 874.72,975.75 	"/>
	<path class="st1" d="M1099.37,923.78c-2.19-0.24-4.46-0.46-6.83-0.64l0.99,0.73C1093.54,923.88,1095.75,923.7,1099.37,923.78z"/>
	<path class="st36" d="M1099.37,923.78c-2.19-0.24-4.46-0.46-6.83-0.64l0.99,0.73C1093.54,923.88,1095.75,923.7,1099.37,923.78z"/>
	<polygon class="st1" points="911.54,984.93 910.35,975.4 910.35,975.4 911.54,984.93 	"/>
	<polygon class="st36" points="911.54,984.93 910.35,975.4 910.35,975.4 911.54,984.93 	"/>
	<path class="st2" d="M1092.62,978.32c0,0.49,0.35,5.33,0.46,11.65c0,0,0,0,0,0C1092.97,983.66,1092.62,978.81,1092.62,978.32
		c0-0.09-0.03-0.2-0.06-0.31c0,0,0,0,0,0C1092.59,978.12,1092.62,978.23,1092.62,978.32z"/>
	<path class="st36" d="M1092.62,978.32c0,0.49,0.35,5.33,0.46,11.65c0,0,0,0,0,0C1092.97,983.66,1092.62,978.81,1092.62,978.32
		c0-0.09-0.03-0.2-0.06-0.31c0,0,0,0,0,0C1092.59,978.12,1092.62,978.23,1092.62,978.32z"/>
	<path class="st2" d="M1104.94,1011.66c0.01,0.68,0.02,1.08,0.02,1.08s2.01,5.81,4.03,7.2c0.6,0.41,7.42,0.58,16.69,0.61
		c0.05-0.36,0.11-0.72,0.18-1.08c-9.38-0.03-16.29-0.2-16.89-0.61C1106.96,1017.47,1104.95,1011.68,1104.94,1011.66z"/>
	<path class="st36" d="M1104.94,1011.66c0.01,0.68,0.02,1.08,0.02,1.08s2.01,5.81,4.03,7.2c0.6,0.41,7.42,0.58,16.69,0.61
		c0.05-0.36,0.11-0.72,0.18-1.08c-9.38-0.03-16.29-0.2-16.89-0.61C1106.96,1017.47,1104.95,1011.68,1104.94,1011.66z"/>
	<path class="st2" d="M1088.86,1020.55c0,0-0.94,5.44-10.01,6.42h0C1087.93,1025.99,1088.86,1020.55,1088.86,1020.55
		c3.09-4.3,4.04-14.35,4.22-23.57c0,0,0,0,0,0C1092.91,1006.2,1091.96,1016.25,1088.86,1020.55z"/>
	<path class="st36" d="M1088.86,1020.55c0,0-0.94,5.44-10.01,6.42h0C1087.93,1025.99,1088.86,1020.55,1088.86,1020.55
		c3.09-4.3,4.04-14.35,4.22-23.57c0,0,0,0,0,0C1092.91,1006.2,1091.96,1016.25,1088.86,1020.55z"/>
	<path class="st2" d="M913.65,1002.4l1.36-0.03c-0.01-0.19-0.03-0.38-0.04-0.57l-1.32,0.03l-2.11-16.9c0,0,0,0,0,0l2.11,16.9
		l-43.53,1.05c-0.07,0.2-0.15,0.39-0.23,0.58L913.65,1002.4z"/>
	<path class="st36" d="M913.65,1002.4l1.36-0.03c-0.01-0.19-0.03-0.38-0.04-0.57l-1.32,0.03l-2.11-16.9c0,0,0,0,0,0l2.11,16.9
		l-43.53,1.05c-0.07,0.2-0.15,0.39-0.23,0.58L913.65,1002.4z"/>
	<path class="st2" d="M989.39,1026.99c0.38,0,0.6-0.02,0.6-0.02h0C990,1026.97,989.78,1026.99,989.39,1026.99z"/>
	<path class="st36" d="M989.39,1026.99c0.38,0,0.6-0.02,0.6-0.02h0C990,1026.97,989.78,1026.99,989.39,1026.99z"/>
	<path class="st2" d="M1091.23,1025.16c-0.25,0.41-0.56,0.84-0.93,1.28C1090.68,1026,1090.98,1025.57,1091.23,1025.16z"/>
	<path class="st36" d="M1091.23,1025.16c-0.25,0.41-0.56,0.84-0.93,1.28C1090.68,1026,1090.98,1025.57,1091.23,1025.16z"/>
	<path class="st2" d="M1087.71,1028.63c-0.69,0.43-1.49,0.81-2.41,1.15C1086.22,1029.45,1087.02,1029.06,1087.71,1028.63z"/>
	<path class="st36" d="M1087.71,1028.63c-0.69,0.43-1.49,0.81-2.41,1.15C1086.22,1029.45,1087.02,1029.06,1087.71,1028.63z"/>
	<path class="st2" d="M945.12,1001.64l18.52-0.45c0,0,0,0,0-0.01c-0.01-0.19-0.02-0.38-0.03-0.57l-18.39,0.44
		C945.19,1001.26,945.16,1001.45,945.12,1001.64z"/>
	<path class="st36" d="M945.12,1001.64l18.52-0.45c0,0,0,0,0-0.01c-0.01-0.19-0.02-0.38-0.03-0.57l-18.39,0.44
		C945.19,1001.26,945.16,1001.45,945.12,1001.64z"/>
	<path class="st1" d="M947.33,926.23c-1.4,0.46-2.87,0.96-4.42,1.49c4.93-1.13,10.2-2.1,15.82-2.88c0.07-0.19,0.14-0.39,0.21-0.58
		C954.9,924.83,951.03,925.49,947.33,926.23z"/>
	<path class="st36" d="M947.33,926.23c-1.4,0.46-2.87,0.96-4.42,1.49c4.93-1.13,10.2-2.1,15.82-2.88c0.07-0.19,0.14-0.39,0.21-0.58
		C954.9,924.83,951.03,925.49,947.33,926.23z"/>
	<path class="st4" d="M967.25,923.45c-0.7,0.07-1.42,0.13-2.11,0.21c-0.54,0.01-1.08,0.03-1.62,0.04c-1.54,0.18-3.07,0.37-4.56,0.58
		h0c-0.07,0.19-0.14,0.38-0.21,0.58c0,0,0,0,0,0c2.09-0.29,4.2-0.56,6.38-0.8c9.53-0.23,19.27-0.47,29-0.69
		c-1.63-0.14-3.16-0.29-4.61-0.44C982.04,923.09,974.59,923.27,967.25,923.45z"/>
	<path class="st36" d="M967.25,923.45c-0.7,0.07-1.42,0.13-2.11,0.21c-0.54,0.01-1.08,0.03-1.62,0.04
		c-1.54,0.18-3.07,0.37-4.56,0.58h0c-0.07,0.19-0.14,0.38-0.21,0.58c0,0,0,0,0,0c2.09-0.29,4.2-0.56,6.38-0.8
		c9.53-0.23,19.27-0.47,29-0.69c-1.63-0.14-3.16-0.29-4.61-0.44C982.04,923.09,974.59,923.27,967.25,923.45z"/>
	<path class="st4" d="M945.12,1001.64c0.04-0.19,0.07-0.38,0.11-0.57l-30.26,0.73c0.02,0.19,0.03,0.38,0.04,0.57L945.12,1001.64z"/>
	<path class="st36" d="M945.12,1001.64c0.04-0.19,0.07-0.38,0.11-0.57l-30.26,0.73c0.02,0.19,0.03,0.38,0.04,0.57L945.12,1001.64z"
		/>
	<path class="st4" d="M1033.32,1138.49l-67.26,2.98c22.45-0.74,45.49-1.52,67.64-2.28
		C1033.57,1138.96,1033.44,1138.73,1033.32,1138.49z"/>
	<path class="st36" d="M1033.32,1138.49l-67.26,2.98c22.45-0.74,45.49-1.52,67.64-2.28
		C1033.57,1138.96,1033.44,1138.73,1033.32,1138.49z"/>
	<path d="M811.72,1144.02c-0.21-1.9-0.6-5.26-1.18-9.64C808.73,1138.39,807.93,1142.07,811.72,1144.02z"/>
	<path class="st36" d="M811.72,1144.02c-0.21-1.9-0.6-5.26-1.18-9.64C808.73,1138.39,807.93,1142.07,811.72,1144.02z"/>
	<path d="M1121.12,1134.61l-51.12,2.26l-36.68,1.62c0.12,0.23,0.25,0.46,0.38,0.69c12.48-0.43,24.67-0.85,36.3-1.26
		c18.16-0.63,34.97-1.23,49.39-1.74c1.35-0.05,2.67-0.09,3.98-0.14c0-0.12,0.01-0.23,0.01-0.35c0.01-0.4,0.03-0.79,0.04-1.19
		L1121.12,1134.61z"/>
	<path class="st36" d="M1121.12,1134.61l-51.12,2.26l-36.68,1.62c0.12,0.23,0.25,0.46,0.38,0.69c12.48-0.43,24.67-0.85,36.3-1.26
		c18.16-0.63,34.97-1.23,49.39-1.74c1.35-0.05,2.67-0.09,3.98-0.14c0-0.12,0.01-0.23,0.01-0.35c0.01-0.4,0.03-0.79,0.04-1.19
		L1121.12,1134.61z"/>
	<path class="st27" d="M1093.54,923.88l-0.99-0.73c-9.28-0.71-19.94-0.92-32.17-0.42c22.3,0.82,46.81,2.79,63.92,7.17
		c-0.06-0.44-0.11-0.88-0.15-1.32c-6.67-1.98-14.83-3.68-24.78-4.79C1095.75,923.7,1093.54,923.88,1093.54,923.88z"/>
	<path class="st36" d="M1093.54,923.88l-0.99-0.73c-9.28-0.71-19.94-0.92-32.17-0.42c22.3,0.82,46.81,2.79,63.92,7.17
		c-0.06-0.44-0.11-0.88-0.15-1.32c-6.67-1.98-14.83-3.68-24.78-4.79C1095.75,923.7,1093.54,923.88,1093.54,923.88z"/>
	<path class="st27" d="M958.95,924.27L958.95,924.27c1.5-0.21,3.02-0.4,4.56-0.58c-1.47,0.04-2.93,0.07-4.38,0.11c0,0,0,0,0,0
		c-1.35,0.03-2.69,0.07-4.02,0.1c-2.35,0.63-4.91,1.4-7.77,2.33C951.03,925.49,954.9,924.83,958.95,924.27z"/>
	<path class="st36" d="M958.95,924.27L958.95,924.27c1.5-0.21,3.02-0.4,4.56-0.58c-1.47,0.04-2.93,0.07-4.38,0.11c0,0,0,0,0,0
		c-1.35,0.03-2.69,0.07-4.02,0.1c-2.35,0.63-4.91,1.4-7.77,2.33C951.03,925.49,954.9,924.83,958.95,924.27z"/>
	<path class="st27" d="M1051.85,923.17c-10.28,0.66-19.03,1-26.59,1.13c-13.82,0.22-23.6-0.29-31.14-0.95
		c-9.73,0.23-19.48,0.46-29,0.69c-2.18,0.24-4.3,0.51-6.38,0.8c0,0,0,0,0,0c-5.61,0.78-10.88,1.75-15.82,2.88
		c-1.8,0.63-3.7,1.3-5.73,2.05c-4.44,1.63-8.49,3.18-12.2,4.65c0,0,0,0,0,0c-6.06,2.41-11.19,4.62-15.53,6.63
		c-0.76,0.35-1.5,0.7-2.21,1.04c-0.36,0.17-0.72,0.34-1.07,0.51c-18.71,9.04-20.53,13.56-20.53,13.56l-10.44,18.74l34.9-0.89
		l0.1,0.82l0.1,0l0.07,0.56h0l-0.07-0.56l2.4-0.06l15.52-0.4h0l14.52-0.37h0l9.58-0.24l3.03-0.08c0,0,3.92,6.17,6.39,14.98
		c1.01,3.62,1.78,7.68,1.93,11.95h0l-0.04,0c0.01,0.19,0.02,0.38,0.03,0.57c0,0,0,0,0,0.01l0.02,0c0.16,4.55-0.37,9.32-2.07,14.04
		c0,0-3,6.64-12.68,8.03h-0.02h-5.95h-26.22h-0.19h-0.29h-0.03h-70.7c0,0-0.66-3.78-0.69-7.71c-12.41,4.45-25.51,8.84-27.65,8.84
		c-3.56,0-51.56,6.6-43.56,8.8c2.02,0.55,4.82,2.23,7.92,4.56c0.35,0.26,0.7,0.54,1.06,0.82c2.14,1.68,4.39,3.64,6.59,5.74
		c2.7,2.57,5.33,5.33,7.6,8.05c2.8,3.34,5.05,6.6,6.24,9.28c0.38,0.85,0.66,1.65,0.8,2.37c0.57,2.83,1.97,9.08,3.61,16.51
		c2.75,12.48,6.16,28.26,7.43,36.82c0.33,2.19,0.52,3.92,0.52,4.98c0,2.73-2.01,6.29-3.77,9.79c-0.39,0.77-0.76,1.53-1.1,2.28
		c0.58,4.39,0.97,7.74,1.18,9.64c1.42,0.73,3.47,1.21,6.35,1.38c1.16,0.07,3.54,0.09,6.97,0.06c14.11-0.11,46.09-0.99,85.15-2.2
		c13.04-0.4,26.87-0.85,41.09-1.31c4.89-0.16,9.82-0.32,14.78-0.48l67.26-2.98l36.68-1.62l51.12-2.26c0.81-0.76,1.6-1.52,2.38-2.29
		c0,0,0,0,0.01-0.01c0.15-3.45,0.34-6.91,0.57-10.36c0.02-0.32,0.04-0.63,0.06-0.95c0.08-1.23,0.17-2.47,0.27-3.7
		c0.05-0.68,0.1-1.37,0.16-2.05c0.06-0.82,0.13-1.64,0.2-2.46c0.05-0.59,0.09-1.18,0.14-1.76c0.02-0.19,0.03-0.37,0.05-0.56
		c0.74-8.63,1.6-17.25,2.41-25.86c-0.77-2.15-1.34-4.41-1.66-6.73c-0.15-1.04-0.25-2.1-0.29-3.17c-0.13-2.87,0.24-5.65,1-8.31
		c-0.39-1.55-0.68-3.15-0.85-4.77c-0.07-0.65-0.12-1.3-0.15-1.95c-0.11-2.41,0.14-4.76,0.66-7.03c-0.13-0.63-0.25-1.26-0.34-1.9
		c-0.13-0.86-0.21-1.73-0.27-2.61c-0.02-0.25-0.04-0.51-0.05-0.76c-0.05-1.03-0.03-2.06,0.05-3.07c0.18-2.39,0.7-4.71,1.49-6.92
		c0.18-0.51,0.38-1.01,0.59-1.51c-1.23-3.25-1.96-6.75-2.13-10.37c-0.08-1.68,0.02-3.33,0.27-4.95c-9.28-0.03-16.09-0.2-16.69-0.61
		c-2.01-1.38-4.03-7.2-4.03-7.2s-0.01-0.39-0.02-1.08c0,0,0,0,0,0s-0.12-6.79-0.18-14.39h0c0-0.03,0-0.05,0-0.08
		c-0.01-2.16-0.02-4.38-0.02-6.53c0-4.7,0.05-9.06,0.2-11.67c0.04-0.76,0.12-1.43,0.21-2.06c0.89-5.99,3.81-6.24,3.81-6.24
		l15.1,0.42c-0.01-0.1-0.02-0.2-0.02-0.31c-0.17-3.77,0.51-7.4,1.83-10.78c-0.24-1.4-0.4-2.82-0.47-4.26
		c-0.13-2.94,0.25-5.8,1.06-8.51c-0.32-1.62-0.53-3.28-0.61-4.97c-0.08-1.68,0.03-3.34,0.27-4.96c-0.82-2.19-1.41-4.5-1.76-6.87
		c-18.82-4.83-46.63-6.73-70.6-7.4C1053.13,923.1,1052.5,923.13,1051.85,923.17z M1093.76,964.45c0.4,0.45,0.83,0.93,1.21,1.42
		c0.13,0.16,0.25,0.33,0.37,0.49c0.35,0.48,0.65,0.95,0.83,1.37c0.12,0.27,0.19,0.52,0.19,0.73c0,0.47,0.21,4,0.37,9.09
		c0.11,3.62,0.19,8.02,0.16,12.68c-0.02,2.24-0.06,4.53-0.15,6.82c-0.38,10.34-1.53,20.64-4.43,25.42c0,0-0.04,0.24-0.16,0.65
		c-0.08,0.27-0.2,0.61-0.38,1c-0.14,0.32-0.33,0.67-0.55,1.04c-0.25,0.41-0.56,0.84-0.93,1.28c-0.15,0.18-0.31,0.36-0.48,0.54
		c-0.17,0.18-0.36,0.36-0.56,0.53c-0.07,0.06-0.14,0.12-0.21,0.17c-0.4,0.33-0.84,0.65-1.34,0.95c-0.69,0.43-1.49,0.81-2.41,1.15
		c-1.09,0.4-2.33,0.72-3.78,0.9h-95.83c0,0-9.79,1.1-12.48-10.94l-3.51-30.23l-1.89-16.33c0,0,0-10.58,9.11-10.58h115.06
		C1091.98,962.61,1092.82,963.41,1093.76,964.45z"/>
	<path class="st36" d="M1051.85,923.17c-10.28,0.66-19.03,1-26.59,1.13c-13.82,0.22-23.6-0.29-31.14-0.95
		c-9.73,0.23-19.48,0.46-29,0.69c-2.18,0.24-4.3,0.51-6.38,0.8c0,0,0,0,0,0c-5.61,0.78-10.88,1.75-15.82,2.88
		c-1.8,0.63-3.7,1.3-5.73,2.05c-4.44,1.63-8.49,3.18-12.2,4.65c0,0,0,0,0,0c-6.06,2.41-11.19,4.62-15.53,6.63
		c-0.76,0.35-1.5,0.7-2.21,1.04c-0.36,0.17-0.72,0.34-1.07,0.51c-18.71,9.04-20.53,13.56-20.53,13.56l-10.44,18.74l34.9-0.89
		l0.1,0.82l0.1,0l0.07,0.56h0l-0.07-0.56l2.4-0.06l15.52-0.4h0l14.52-0.37h0l9.58-0.24l3.03-0.08c0,0,3.92,6.17,6.39,14.98
		c1.01,3.62,1.78,7.68,1.93,11.95h0l-0.04,0c0.01,0.19,0.02,0.38,0.03,0.57c0,0,0,0,0,0.01l0.02,0c0.16,4.55-0.37,9.32-2.07,14.04
		c0,0-3,6.64-12.68,8.03h-0.02h-5.95h-26.22h-0.19h-0.29h-0.03h-70.7c0,0-0.66-3.78-0.69-7.71c-12.41,4.45-25.51,8.84-27.65,8.84
		c-3.56,0-51.56,6.6-43.56,8.8c2.02,0.55,4.82,2.23,7.92,4.56c0.35,0.26,0.7,0.54,1.06,0.82c2.14,1.68,4.39,3.64,6.59,5.74
		c2.7,2.57,5.33,5.33,7.6,8.05c2.8,3.34,5.05,6.6,6.24,9.28c0.38,0.85,0.66,1.65,0.8,2.37c0.57,2.83,1.97,9.08,3.61,16.51
		c2.75,12.48,6.16,28.26,7.43,36.82c0.33,2.19,0.52,3.92,0.52,4.98c0,2.73-2.01,6.29-3.77,9.79c-0.39,0.77-0.76,1.53-1.1,2.28
		c0.58,4.39,0.97,7.74,1.18,9.64c1.42,0.73,3.47,1.21,6.35,1.38c1.16,0.07,3.54,0.09,6.97,0.06c14.11-0.11,46.09-0.99,85.15-2.2
		c13.04-0.4,26.87-0.85,41.09-1.31c4.89-0.16,9.82-0.32,14.78-0.48l67.26-2.98l36.68-1.62l51.12-2.26c0.81-0.76,1.6-1.52,2.38-2.29
		c0,0,0,0,0.01-0.01c0.15-3.45,0.34-6.91,0.57-10.36c0.02-0.32,0.04-0.63,0.06-0.95c0.08-1.23,0.17-2.47,0.27-3.7
		c0.05-0.68,0.1-1.37,0.16-2.05c0.06-0.82,0.13-1.64,0.2-2.46c0.05-0.59,0.09-1.18,0.14-1.76c0.02-0.19,0.03-0.37,0.05-0.56
		c0.74-8.63,1.6-17.25,2.41-25.86c-0.77-2.15-1.34-4.41-1.66-6.73c-0.15-1.04-0.25-2.1-0.29-3.17c-0.13-2.87,0.24-5.65,1-8.31
		c-0.39-1.55-0.68-3.15-0.85-4.77c-0.07-0.65-0.12-1.3-0.15-1.95c-0.11-2.41,0.14-4.76,0.66-7.03c-0.13-0.63-0.25-1.26-0.34-1.9
		c-0.13-0.86-0.21-1.73-0.27-2.61c-0.02-0.25-0.04-0.51-0.05-0.76c-0.05-1.03-0.03-2.06,0.05-3.07c0.18-2.39,0.7-4.71,1.49-6.92
		c0.18-0.51,0.38-1.01,0.59-1.51c-1.23-3.25-1.96-6.75-2.13-10.37c-0.08-1.68,0.02-3.33,0.27-4.95c-9.28-0.03-16.09-0.2-16.69-0.61
		c-2.01-1.38-4.03-7.2-4.03-7.2s-0.01-0.39-0.02-1.08c0,0,0,0,0,0s-0.12-6.79-0.18-14.39h0c0-0.03,0-0.05,0-0.08
		c-0.01-2.16-0.02-4.38-0.02-6.53c0-4.7,0.05-9.06,0.2-11.67c0.04-0.76,0.12-1.43,0.21-2.06c0.89-5.99,3.81-6.24,3.81-6.24
		l15.1,0.42c-0.01-0.1-0.02-0.2-0.02-0.31c-0.17-3.77,0.51-7.4,1.83-10.78c-0.24-1.4-0.4-2.82-0.47-4.26
		c-0.13-2.94,0.25-5.8,1.06-8.51c-0.32-1.62-0.53-3.28-0.61-4.97c-0.08-1.68,0.03-3.34,0.27-4.96c-0.82-2.19-1.41-4.5-1.76-6.87
		c-18.82-4.83-46.63-6.73-70.6-7.4C1053.13,923.1,1052.5,923.13,1051.85,923.17z M1093.76,964.45c0.4,0.45,0.83,0.93,1.21,1.42
		c0.13,0.16,0.25,0.33,0.37,0.49c0.35,0.48,0.65,0.95,0.83,1.37c0.12,0.27,0.19,0.52,0.19,0.73c0,0.47,0.21,4,0.37,9.09
		c0.11,3.62,0.19,8.02,0.16,12.68c-0.02,2.24-0.06,4.53-0.15,6.82c-0.38,10.34-1.53,20.64-4.43,25.42c0,0-0.04,0.24-0.16,0.65
		c-0.08,0.27-0.2,0.61-0.38,1c-0.14,0.32-0.33,0.67-0.55,1.04c-0.25,0.41-0.56,0.84-0.93,1.28c-0.15,0.18-0.31,0.36-0.48,0.54
		c-0.17,0.18-0.36,0.36-0.56,0.53c-0.07,0.06-0.14,0.12-0.21,0.17c-0.4,0.33-0.84,0.65-1.34,0.95c-0.69,0.43-1.49,0.81-2.41,1.15
		c-1.09,0.4-2.33,0.72-3.78,0.9h-95.83c0,0-9.79,1.1-12.48-10.94l-3.51-30.23l-1.89-16.33c0,0,0-10.58,9.11-10.58h115.06
		C1091.98,962.61,1092.82,963.41,1093.76,964.45z"/>
	<path class="st27" d="M989.51,922.91c-1.73-0.18-3.34-0.36-4.85-0.53c-6.12,0.15-11.91,0.52-17.41,1.06
		C974.59,923.27,982.04,923.09,989.51,922.91z"/>
	<path class="st36" d="M989.51,922.91c-1.73-0.18-3.34-0.36-4.85-0.53c-6.12,0.15-11.91,0.52-17.41,1.06
		C974.59,923.27,982.04,923.09,989.51,922.91z"/>
	<path class="st30" d="M959.13,923.8c1.46-0.04,2.92-0.07,4.38-0.11c0.54-0.01,1.08-0.03,1.62-0.04c0.69-0.07,1.41-0.14,2.11-0.21
		c5.5-0.54,11.29-0.91,17.41-1.06c-0.37-0.04-0.74-0.08-1.09-0.12c-8.75-0.97-14.56-1.52-24.07,0.56c0,0,0,0,0,0
		c-1.19,0.26-2.44,0.56-3.75,0.91c-0.21,0.06-0.43,0.11-0.64,0.17C956.44,923.87,957.78,923.83,959.13,923.8
		C959.13,923.8,959.13,923.8,959.13,923.8z"/>
	<path class="st36" d="M959.13,923.8c1.46-0.04,2.92-0.07,4.38-0.11c0.54-0.01,1.08-0.03,1.62-0.04c0.69-0.07,1.41-0.14,2.11-0.21
		c5.5-0.54,11.29-0.91,17.41-1.06c-0.37-0.04-0.74-0.08-1.09-0.12c-8.75-0.97-14.56-1.52-24.07,0.56c0,0,0,0,0,0
		c-1.19,0.26-2.44,0.56-3.75,0.91c-0.21,0.06-0.43,0.11-0.64,0.17C956.44,923.87,957.78,923.83,959.13,923.8
		C959.13,923.8,959.13,923.8,959.13,923.8z"/>
	<path class="st28" d="M1105.15,976.94c-0.09,0.63-0.17,1.3-0.21,2.06c-0.15,2.61-0.2,6.97-0.2,11.67c0,2.15,0.01,4.37,0.02,6.53
		c0,0.03,0,0.05,0,0.08h0h0.01h5.77h15.17c-0.15-1.06-0.25-2.13-0.3-3.22c-0.04-0.84-0.02-1.68,0.02-2.51
		c0.15-2.8,0.75-5.51,1.73-8.06c-1.02-2.18-1.82-4.47-2.35-6.87c-0.32-1.44-0.55-2.92-0.68-4.42c-0.03-0.36-0.05-0.71-0.07-1.07
		l-15.1-0.42C1108.97,970.7,1106.04,970.94,1105.15,976.94z"/>
	<path class="st36" d="M1105.15,976.94c-0.09,0.63-0.17,1.3-0.21,2.06c-0.15,2.61-0.2,6.97-0.2,11.67c0,2.15,0.01,4.37,0.02,6.53
		c0,0.03,0,0.05,0,0.08h0h0.01h5.77h15.17c-0.15-1.06-0.25-2.13-0.3-3.22c-0.04-0.84-0.02-1.68,0.02-2.51
		c0.15-2.8,0.75-5.51,1.73-8.06c-1.02-2.18-1.82-4.47-2.35-6.87c-0.32-1.44-0.55-2.92-0.68-4.42c-0.03-0.36-0.05-0.71-0.07-1.07
		l-15.1-0.42C1108.97,970.7,1106.04,970.94,1105.15,976.94z"/>
	<path class="st29" d="M1104.78,997.27h-0.01c0.05,7.61,0.18,14.39,0.18,14.39s0,0,0,0c0.01,0.02,2.02,5.81,4.02,7.19
		c0.6,0.41,7.51,0.58,16.89,0.61c0.04-0.19,0.09-0.38,0.13-0.57c-1.1-3.1-1.78-6.39-1.94-9.81c-0.17-3.78,0.51-7.43,1.85-10.81
		c-0.05-0.31-0.12-0.62-0.16-0.93c0-0.03-0.01-0.05-0.01-0.08h-15.17H1104.78z"/>
	<path class="st36" d="M1104.78,997.27h-0.01c0.05,7.61,0.18,14.39,0.18,14.39s0,0,0,0c0.01,0.02,2.02,5.81,4.02,7.19
		c0.6,0.41,7.51,0.58,16.89,0.61c0.04-0.19,0.09-0.38,0.13-0.57c-1.1-3.1-1.78-6.39-1.94-9.81c-0.17-3.78,0.51-7.43,1.85-10.81
		c-0.05-0.31-0.12-0.62-0.16-0.93c0-0.03-0.01-0.05-0.01-0.08h-15.17H1104.78z"/>
	<path class="st28" d="M913.65,1001.83l1.32-0.03l30.26-0.73l18.39-0.44l0.04,0h0c-0.15-4.27-0.92-8.33-1.93-11.95
		c-2.47-8.81-6.39-14.98-6.39-14.98l-3.03,0.08l-9.58,0.24h0l-14.52,0.37h0l-15.52,0.4l-2.4,0.06l0.07,0.56l1.19,9.53
		L913.65,1001.83z"/>
	<path class="st36" d="M913.65,1001.83l1.32-0.03l30.26-0.73l18.39-0.44l0.04,0h0c-0.15-4.27-0.92-8.33-1.93-11.95
		c-2.47-8.81-6.39-14.98-6.39-14.98l-3.03,0.08l-9.58,0.24h0l-14.52,0.37h0l-15.52,0.4l-2.4,0.06l0.07,0.56l1.19,9.53
		L913.65,1001.83z"/>
	<path class="st28" d="M870.47,983.39l-2.61,4.69c0,0,4.47,8.61,2.27,14.79l43.53-1.05l-2.11-16.9l-1.19-9.53l-0.07-0.56l-0.1,0
		l-35.46,0.9L870.47,983.39z"/>
	<path class="st36" d="M870.47,983.39l-2.61,4.69c0,0,4.47,8.61,2.27,14.79l43.53-1.05l-2.11-16.9l-1.19-9.53l-0.07-0.56l-0.1,0
		l-35.46,0.9L870.47,983.39z"/>
	<path class="st29" d="M915.02,1002.36l-1.36,0.03l-43.77,1.05c-0.81,1.84-2.26,3.43-4.7,4.43c-4.12,1.7-11.69,4.55-19.63,7.4
		c-0.24,0.09-0.48,0.17-0.71,0.26c0.03,3.93,0.69,7.71,0.69,7.71h70.7h0.03h0.29h0.19h26.22h5.95h0.02
		c9.68-1.38,12.68-8.03,12.68-8.03c1.69-4.72,2.23-9.49,2.07-14.04l-0.02,0l-18.52,0.45L915.02,1002.36z"/>
	<path class="st36" d="M915.02,1002.36l-1.36,0.03l-43.77,1.05c-0.81,1.84-2.26,3.43-4.7,4.43c-4.12,1.7-11.69,4.55-19.63,7.4
		c-0.24,0.09-0.48,0.17-0.71,0.26c0.03,3.93,0.69,7.71,0.69,7.71h70.7h0.03h0.29h0.19h26.22h5.95h0.02
		c9.68-1.38,12.68-8.03,12.68-8.03c1.69-4.72,2.23-9.49,2.07-14.04l-0.02,0l-18.52,0.45L915.02,1002.36z"/>
	<path class="st37" d="M967.81,973.19l1.89,16.33l3.51,30.23c2.7,12.03,12.48,10.94,12.48,10.94h95.83c1.45-0.19,2.69-0.51,3.78-0.9
		c0.91-0.33,1.71-0.72,2.41-1.15c0.49-0.3,0.94-0.62,1.34-0.95c0.07-0.06,0.15-0.11,0.21-0.17c0.2-0.18,0.38-0.35,0.56-0.53
		c0.17-0.18,0.33-0.36,0.48-0.54c0.37-0.44,0.68-0.87,0.93-1.28c0.22-0.37,0.41-0.72,0.55-1.04c0.17-0.39,0.29-0.73,0.38-1
		c0.12-0.41,0.16-0.65,0.16-0.65c2.89-4.77,4.05-15.08,4.43-25.42c0.08-2.29,0.13-4.58,0.15-6.82c0.04-4.66-0.05-9.06-0.16-12.68
		c-0.16-5.09-0.37-8.63-0.37-9.09c0-0.21-0.07-0.46-0.19-0.73c-0.18-0.41-0.48-0.88-0.83-1.37c-0.12-0.16-0.24-0.32-0.37-0.49
		c-0.39-0.49-0.81-0.98-1.21-1.42c-0.94-1.04-1.78-1.84-1.78-1.84H976.92C967.81,962.61,967.81,973.19,967.81,973.19z
		 M981.86,973.75h106.69h0c0,0,3.5,2.81,4,4.26c0.04,0.11,0.06,0.22,0.06,0.31c0,0.49,0.35,5.33,0.46,11.65c0.04,2.2,0.05,4.57,0,7
		c-0.17,9.22-1.12,19.27-4.22,23.57c0,0-0.94,5.44-10.01,6.42h0H990c0,0-0.22,0.02-0.6,0.02c-0.58,0-1.52-0.06-2.62-0.3
		c-2.86-0.63-6.82-2.54-8.35-8.27l-3.9-28.34l-1.11-8.06C973.42,982.02,973.42,973.75,981.86,973.75L981.86,973.75z"/>
	<path class="st36" d="M967.81,973.19l1.89,16.33l3.51,30.23c2.7,12.03,12.48,10.94,12.48,10.94h95.83c1.45-0.19,2.69-0.51,3.78-0.9
		c0.91-0.33,1.71-0.72,2.41-1.15c0.49-0.3,0.94-0.62,1.34-0.95c0.07-0.06,0.15-0.11,0.21-0.17c0.2-0.18,0.38-0.35,0.56-0.53
		c0.17-0.18,0.33-0.36,0.48-0.54c0.37-0.44,0.68-0.87,0.93-1.28c0.22-0.37,0.41-0.72,0.55-1.04c0.17-0.39,0.29-0.73,0.38-1
		c0.12-0.41,0.16-0.65,0.16-0.65c2.89-4.77,4.05-15.08,4.43-25.42c0.08-2.29,0.13-4.58,0.15-6.82c0.04-4.66-0.05-9.06-0.16-12.68
		c-0.16-5.09-0.37-8.63-0.37-9.09c0-0.21-0.07-0.46-0.19-0.73c-0.18-0.41-0.48-0.88-0.83-1.37c-0.12-0.16-0.24-0.32-0.37-0.49
		c-0.39-0.49-0.81-0.98-1.21-1.42c-0.94-1.04-1.78-1.84-1.78-1.84H976.92C967.81,962.61,967.81,973.19,967.81,973.19z
		 M981.86,973.75h106.69h0c0,0,3.5,2.81,4,4.26c0.04,0.11,0.06,0.22,0.06,0.31c0,0.49,0.35,5.33,0.46,11.65c0.04,2.2,0.05,4.57,0,7
		c-0.17,9.22-1.12,19.27-4.22,23.57c0,0-0.94,5.44-10.01,6.42h0H990c0,0-0.22,0.02-0.6,0.02c-0.58,0-1.52-0.06-2.62-0.3
		c-2.86-0.63-6.82-2.54-8.35-8.27l-3.9-28.34l-1.11-8.06C973.42,982.02,973.42,973.75,981.86,973.75L981.86,973.75z"/>
	<path class="st38" d="M1093.76,964.45c0.4,0.45,0.83,0.93,1.21,1.42"/>
	<path class="st39" d="M1093.76,964.45c0.4,0.45,0.83,0.93,1.21,1.42"/>
	<path class="st38" d="M1095.35,966.36c0.35,0.48,0.65,0.95,0.83,1.37"/>
	<path class="st39" d="M1095.35,966.36c0.35,0.48,0.65,0.95,0.83,1.37"/>
	<path class="st38" d="M1081.52,1030.68c1.45-0.19,2.69-0.51,3.78-0.9"/>
	<path class="st39" d="M1081.52,1030.68c1.45-0.19,2.69-0.51,3.78-0.9"/>
	<path class="st38" d="M1092.16,1023.12c-0.08,0.27-0.2,0.61-0.38,1"/>
	<path class="st39" d="M1092.16,1023.12c-0.08,0.27-0.2,0.61-0.38,1"/>
	<path class="st38" d="M1091.78,1024.12c-0.14,0.32-0.33,0.67-0.55,1.04"/>
	<path class="st39" d="M1091.78,1024.12c-0.14,0.32-0.33,0.67-0.55,1.04"/>
	<path class="st40" d="M973.42,982.02l1.11,8.06l3.9,28.34c1.53,5.73,5.48,7.65,8.35,8.27c1.1,0.24,2.05,0.3,2.62,0.3
		c0.38,0,0.6-0.02,0.6-0.02h0h88.85c9.07-0.98,10.01-6.42,10.01-6.42c3.09-4.3,4.04-14.35,4.22-23.57c0.05-2.43,0.04-4.81,0-7
		c-0.11-6.32-0.46-11.16-0.46-11.65c0-0.09-0.03-0.2-0.06-0.31c-0.5-1.45-4-4.26-4-4.26H981.86h0
		C973.42,973.75,973.42,982.02,973.42,982.02z"/>
	<path class="st36" d="M973.42,982.02l1.11,8.06l3.9,28.34c1.53,5.73,5.48,7.65,8.35,8.27c1.1,0.24,2.05,0.3,2.62,0.3
		c0.38,0,0.6-0.02,0.6-0.02h0h88.85c9.07-0.98,10.01-6.42,10.01-6.42c3.09-4.3,4.04-14.35,4.22-23.57c0.05-2.43,0.04-4.81,0-7
		c-0.11-6.32-0.46-11.16-0.46-11.65c0-0.09-0.03-0.2-0.06-0.31c-0.5-1.45-4-4.26-4-4.26H981.86h0
		C973.42,973.75,973.42,982.02,973.42,982.02z"/>
	<path class="st27" d="M652,1040.82l-15,0.49l-20.7,0.68l0.71,6.84l1.04,10.02l1.29,12.33l1.34,12.88l2.72,26.13l4.12,7.15
		l24.47,1.17l72.16,3.44l3.32,11.54l3.39,11.81l-59.4-11.11l-19.46-3.64l-33.23-6.22l-3.36,2.38l30.54,7.78l6.05,1.54l84.3,21.48
		c0,0-1.78-9.83-3.04-24.09c-1.29-14.65-2-33.99,0.35-52.21c1.24-9.63,3.34-18.95,6.68-27.09c2.6-6.36,5.95-12.01,10.23-16.52
		l-47.52,1.56L652,1040.82z"/>
	<path class="st36" d="M652,1040.82l-15,0.49l-20.7,0.68l0.71,6.84l1.04,10.02l1.29,12.33l1.34,12.88l2.72,26.13l4.12,7.15
		l24.47,1.17l72.16,3.44l3.32,11.54l3.39,11.81l-59.4-11.11l-19.46-3.64l-33.23-6.22l-3.36,2.38l30.54,7.78l6.05,1.54l84.3,21.48
		c0,0-1.78-9.83-3.04-24.09c-1.29-14.65-2-33.99,0.35-52.21c1.24-9.63,3.34-18.95,6.68-27.09c2.6-6.36,5.95-12.01,10.23-16.52
		l-47.52,1.56L652,1040.82z"/>
	<path class="st27" d="M703.93,979.91L652,984.85l-10.89,1.04l-4.11,0.39l-42.04,4l2.33,3.61l3.27,5.05l1.51,2.34
		c0,0,13.89-1.3,34.93-3.26c4.67-0.43,9.7-0.9,15-1.39c15.28-1.42,32.87-3.04,51-4.7c10.05-0.92,20.27-1.85,30.35-2.77
		c7.33-0.67,14.58-1.32,21.65-1.96c41.98-3.77,77.32-6.83,81.74-6.83c11.56,0,24-15.4,24-15.4L755,975.05L703.93,979.91z"/>
	<path class="st41" d="M703.93,979.91L652,984.85l-10.89,1.04l-4.11,0.39l-42.04,4l2.33,3.61l3.27,5.05l1.51,2.34
		c0,0,13.89-1.3,34.93-3.26c4.67-0.43,9.7-0.9,15-1.39c15.28-1.42,32.87-3.04,51-4.7c10.05-0.92,20.27-1.85,30.35-2.77
		c7.33-0.67,14.58-1.32,21.65-1.96c41.98-3.77,77.32-6.83,81.74-6.83c11.56,0,24-15.4,24-15.4L755,975.05L703.93,979.91z"/>
	<line class="st24" x1="412" y1="964.88" x2="412" y2="964.88"/>
	<polygon class="st4" points="472.35,865.86 472.35,865.86 472.35,865.86 	"/>
	<polygon class="st4" points="405.21,883.82 405.21,883.82 405.21,883.82 	"/>
	<line class="st24" x1="310.23" y1="989.22" x2="310.23" y2="989.22"/>
	<line class="st24" x1="322.81" y1="943.55" x2="322.81" y2="943.55"/>
	<line class="st24" x1="327.17" y1="951.7" x2="327.17" y2="951.7"/>
	<line class="st24" x1="247.01" y1="1088.69" x2="247.01" y2="1088.69"/>
	<polyline class="st24" points="442.42,1108.58 442.42,1108.58 442.42,1108.58 	"/>
	<line class="st24" x1="378.72" y1="1089.64" x2="378.72" y2="1089.64"/>
	<line class="st24" x1="392.17" y1="1081.68" x2="392.17" y2="1081.68"/>
	<line class="st24" x1="265.84" y1="1069.05" x2="265.84" y2="1069.05"/>
</g>
</svg>
