<?xml version="1.0" encoding="UTF-8"?><svg id="Capa_2" xmlns="http://www.w3.org/2000/svg" viewBox="0 0 477.8040788761 275.953890793"><defs><style>.cls-1{fill:#a5305c;}.cls-1,.cls-2{stroke-width:0px;}.cls-2{fill:#e53f71;}</style></defs><g id="Capa_1-2"><path class="cls-1" d="m38.9649734658,53.4452586206c-18.73046875,1.1493530273-37.4536132812,2.4605102539-56.1672363281,3.9334106445C-8.5687179404,87.0341258081-.1077804404,116.7216258081,8.1795730752,146.4392771753c-1.3291015625,25.9965820312-2.5795898438,51.9926757812-3.7514648438,77.9873046875,18.9567871094-1.4398193359,37.9235839844-2.7047119141,56.8979492188-3.794921875-7.2360839844-55.7496337891-14.6896972656-111.4788818359-22.3610839844-167.1864013672Z"/><path class="cls-1" d="m438.8392410439,53.4452586206c18.73046875,1.1493530273,37.4536132812,2.4605102539,56.1669921875,3.9334106445-8.6335449219,29.655456543-17.0939941406,59.342956543-25.3815917969,89.0606079102,1.3291015625,25.9968261719,2.5795898438,51.9926757812,3.7512207031,77.9874267578-18.9567871094-1.4400634766-37.9230957031-2.7049560547-56.8977050781-3.7950439453,7.2360839844-55.7496337891,14.6892089844-111.4788818359,22.3610839844-167.1864013672Z"/><path class="cls-2" d="m439.8001785439,273.2020945581c-135.3122558594-8.9471435547-271.0725097656-8.8450927734-406.3747558594.3062744141C27.2181472939,181.7333445581,21.0111160439,89.9584422144,14.8035965127-1.8166432348c147.564453125-9.9809570312,295.6284179688-10.0922851562,443.2033691406-.333984375-6.0688476562,91.7842407227-12.1376953125,183.5684204102-18.2067871094,275.352722168Z"/></g></svg>