<?xml version="1.0" encoding="UTF-8"?><svg id="Capa_2" xmlns="http://www.w3.org/2000/svg" xmlns:xlink="http://www.w3.org/1999/xlink" viewBox="0 0 1357.1807801334 186.48048525"><defs><style>.cls-1{clip-path:url(#clippath);}.cls-2{fill:none;}.cls-2,.cls-3,.cls-4,.cls-5,.cls-6,.cls-7,.cls-8{stroke-width:0px;}.cls-3{fill:#f89f5b;}.cls-4{fill:#653780;}.cls-5{fill:#3f1651;}.cls-6{fill:#120033;}.cls-7{fill:#f197b2;}.cls-8{fill:#e53f71;}</style><clipPath id="clippath"><rect class="cls-2" x="369.6070624178" width="574.432872919" height="181.0072127119"/></clipPath></defs><g id="Capa_1-2"><g class="cls-1"><polygon class="cls-6" points="418.2844565807 7.569963786 415.6629164797 9.5902003668 412.0182935096 8.0745745875 412.8979811315 6.9934685493 418.2844565807 7.569963786"/><rect class="cls-6" x="15.7394798348" y="77.512353536" width="2.6568615916" height="6.2916224243" transform="translate(-63.7573196033 96.91655555) rotate(-89.4255547935)"/><polygon class="cls-6" points="20.2017296348 79.9358270515 17.5801895337 81.9560636322 13.9355674247 80.440437853 14.8152550688 79.3593318147 20.2017296348 79.9358270515"/><polygon class="cls-6" points="287.5133722287 31.7414040256 284.8918320614 33.7616406064 281.2472089993 32.2460148271 282.1268966434 31.1649087889 287.5133722287 31.7414040256"/><polygon class="cls-6" points="305.4461850127 77.6940523097 302.8246435808 79.7143262524 299.1800206107 78.1986631112 300.0597094274 77.1175944349 305.4461850127 77.6940523097"/><polygon class="cls-4" points="107.3902991353 100.2561446065 101.9075045232 97.3507281716 108.9256519973 97.6473822338 114.4073631122 100.5535085462 107.3902991353 100.2561446065"/><polygon class="cls-4" points="334.4243530464 83.7913020612 328.9415584343 80.8858856263 335.9596685464 81.1825396885 341.4413796613 84.0886660008 334.4243530464 83.7913020612"/><polygon class="cls-8" points="214.951573101 115.0474880129 216.7372078717 110.6815547083 219.353255763 114.7875234077 217.5698194094 119.1534940743 214.951573101 115.0474880129"/><polygon class="cls-3" points="336.0153378841 15.5662852412 332.7698528569 11.5458754589 339.046626728 13.5423871871 342.2873316843 17.5657485652 336.0153378841 15.5662852412"/><polygon class="cls-8" points="289.8471878453 56.9921195668 293.5438177431 55.2786995048 289.5224749417 60.2506813664 285.8265912531 61.9589828382 289.8471878453 56.9921195668"/><polygon class="cls-8" points="347.421125858 42.2713529266 351.1177193306 40.5579328646 347.0964129626 45.5299520882 343.4005293674 47.238216198 347.421125858 42.2713529266"/><polygon class="cls-8" points="136.1495168077 51.2378717324 139.8459234704 49.5244516703 135.8247665503 54.4964708939 132.129069765 56.2047350037 136.1495168077 51.2378717324"/><polygon class="cls-4" points="134.6298551648 159.7444472765 136.4132915183 155.3766832353 139.0322968528 159.483585984 137.2477337926 163.8515368351 134.6298551648 159.7444472765"/><polygon class="cls-5" points="166.3337871259 56.386837174 173.20450426 55.0985216359 168.9571579636 58.6252676746 162.0864034676 59.911789838 166.3337871259 56.386837174"/><polygon class="cls-5" points="33.4115777705 110.4839845974 39.6507654982 112.7047055229 32.6669163141 113.2244852853 26.4277659484 111.0018962611 33.4115777705 110.4839845974"/><polygon class="cls-5" points="316.6090067542 38.7774106999 314.1330288946 46.4595926897 305.3666400443 43.142634127 307.8406003574 35.4597048977 316.6090067542 38.7774106999"/><polygon class="cls-5" points="64.2837375627 27.4395281676 56.2124308324 27.4428160212 56.6765431847 18.0815122602 64.7478501189 18.0760200502 64.2837375627 27.4395281676"/><polygon class="cls-5" points="330.7352025308 148.4528465446 322.6638958006 148.4559475883 323.1280062121 139.0946438272 331.1994997522 139.0891889793 330.7352025308 148.4528465446"/><polygon class="cls-7" points="70.16514705 53.282580422 68.6352863979 60.7219469521 60.0956473533 58.5165444353 61.6235278209 51.0768042854 70.16514705 53.282580422"/><polygon class="cls-7" points="68.4838863328 81.8630696433 66.9540256806 89.3024735353 58.4143866361 87.0970336566 59.9422671037 79.6572935067 68.4838863328 81.8630696433"/><polygon class="cls-7" points="125.6447127795 69.5341044235 124.1148521274 76.9734709536 115.5752504448 74.7680684368 117.1032803603 67.3283282869 125.6447127795 69.5341044235"/><polygon class="cls-7" points="185.6076806048 90.6424232747 184.0778199527 98.0817898048 175.5382182701 95.876349926 177.0662481856 88.4366097762 185.6076806048 90.6424232747"/><polygon class="cls-8" points="89.2186690818 116.0474064848 87.6888084296 123.4867730149 79.1491693851 121.281370498 80.6772366626 113.8416303482 89.2186690818 116.0474064848"/><polygon class="cls-3" points="206.7118046576 148.6033497551 199.1620710512 149.4323372024 198.6381441231 140.6281751763 206.1875041098 139.7972075444 206.7118046576 148.6033497551"/><polygon class="cls-8" points="134.050830676 28.6247620235 132.5209738806 36.0641659155 123.9813683412 33.8587260367 125.5093982568 26.4189858869 134.050830676 28.6247620235"/><polygon class="cls-8" points="521.8291870391 102.3767916483 520.2996938178 109.8163823502 511.7597185155 107.6107556616 513.287748431 100.1708287019 521.8291870391 102.3767916483"/><polygon class="cls-7" points="250.9836020453 52.7746817669 243.4338684389 53.6036692142 242.9099107943 44.7995071881 250.4593014975 43.9685395562 250.9836020453 52.7746817669"/><polygon class="cls-4" points="361.4207313499 63.1302059543 353.7004029812 65.4846453797 351.4174769211 56.3941038339 359.1372423681 54.0374600521 361.4207313499 63.1302059543"/><polygon class="cls-5" points="246.7776140688 101.0106606313 242.5039649445 105.5736409792 236.7081143721 106.2446246446 238.2361442877 98.8046976849 246.7776140688 101.0106606313"/><polygon class="cls-5" points="428.1448786842 85.2387048785 423.8712295599 89.8016852264 418.0753789875 90.4726688918 419.6034504797 83.0327419321 428.1448786842 85.2387048785"/><polygon class="cls-4" points="10.0851546176 95.8863630188 5.8115427472 100.4493433667 .0156920285 101.120327032 1.5437219826 93.6804000724 10.0851546176 95.8863630188"/><polygon class="cls-5" points="486.3911265917 124.8585740404 483.915186094 132.5407560302 475.1489840535 129.2237974675 477.6227575568 121.5408682382 486.3911265917 124.8585740404"/><polygon class="cls-7" points="297.5553726988 123.9580940018 295.0793948392 131.6403133536 286.3132309515 128.3233174289 288.7869671553 120.6404255616 297.5553726988 123.9580940018"/><polygon class="cls-4" points="170.5442031981 108.5659889957 163.5636418675 111.5583841027 160.4978679238 103.2887971801 167.477682015 100.2941603548 170.5442031981 108.5659889957"/><polygon class="cls-4" points="231.6279711109 32.3514693394 224.6474097803 35.3439018083 221.5818287531 27.0742775238 228.5616740996 24.0796780604 231.6279711109 32.3514693394"/><polygon class="cls-4" points="49.4975133068 73.8209892649 42.5169519761 76.8134217339 39.4511780325 68.5437974493 46.4310294856 65.5491979859 49.4975133068 73.8209892649"/><polygon class="cls-4" points="305.6010864162 13.2975541809 298.620526244 16.28979984 295.5547511419 8.0205491752 302.5346025951 5.0257629019 305.6010864162 13.2975541809"/><polygon class="cls-7" points="540.5634448345 35.408033794 539.033957802 42.8475871339 530.4946923772 40.6419978073 532.0220124153 33.2020708476 540.5634448345 35.408033794"/><polygon class="cls-3" points="9.4397265415 125.9767990387 14.3048157996 132.0123641735 4.8873196318 129.0139164269 .0251819695 122.9790985316 9.4397265415 125.9767990387"/><polygon class="cls-6" points="358.7012281593 9.626665652 362.6359294771 6.5942932343 368.104489178 8.8685165046 366.7840423768 10.4914085071 358.7012281593 9.626665652"/><polygon class="cls-6" points="392.8857882698 96.4888805247 396.8204932267 93.4565081071 402.2890492885 95.7306940154 400.9686024873 97.3536233799 392.8857882698 96.4888805247"/><polygon class="cls-7" points="491.5733067801 50.3703455868 488.8941171568 56.922888336 484.969989277 50.7621979551 487.6462646665 44.2092442242 491.5733067801 50.3703455868"/><polygon class="cls-7" points="479.8046219758 108.0916416105 477.1254323525 114.6442217217 473.2013418347 108.4835313408 475.8776172242 101.9305776099 479.8046219758 108.0916416105"/><polygon class="cls-8" points="444.3287397614 16.8593457498 441.6495501381 23.4112159835 437.7225453865 17.2494047435 440.4006188907 10.6964510126 444.3287397614 16.8593457498"/><polygon class="cls-3" points="246.8449402173 143.9273685442 251.7118600891 149.9600194451 242.2944015212 146.9635892451 237.4329364972 140.9287713498 246.8449402173 143.9273685442"/><polygon class="cls-7" points="107.3700489467 7.0770663075 104.7428671879 13.5017563866 100.8930149077 7.4614462813 103.518369054 1.0354858952 107.3700489467 7.0770663075"/><polygon class="cls-4" points="119.2494372729 22.6225984922 116.3922178548 26.9834505685 112.0988416094 22.8664974491 114.9560983895 18.5058321827 119.2494372729 22.6225984922"/><polygon class="cls-5" points="533.9630789271 89.5715733417 527.0941551677 90.8588053826 531.3411716355 87.3320593439 538.2122559601 86.0462844199 533.9630789271 89.5715733417"/><polygon class="cls-6" points="194.6644275509 109.0095690738 197.2845105351 106.9895193029 200.932047739 108.5057055118 200.0523656798 109.5867741881 194.6644275509 109.0095690738"/><polygon class="cls-4" points="140.7628715165 25.6358042179 143.8113095054 13.7824942485 139.8021831401 3.7777799578 136.7526616541 15.6310899273 140.7628715165 25.6358042179"/><polygon class="cls-4" points="142.4832035 14.5768097853 140.6978990479 18.9436771392 138.0807676594 14.8362513228 139.8652875102 10.4699070366 142.4832035 14.5768097853"/><polygon class="cls-5" points="401.7805902166 66.6095396498 392.1277885895 68.4177843982 398.0929262552 63.462951682 407.7457652444 61.6572475477 401.7805902166 66.6095396498"/><rect class="cls-7" x="145.229909021" y="34.4653461664" width="2.6076171367" height="6.1694107965" transform="translate(107.5305399335 183.7036998112) rotate(-89.4310836901)"/><polygon class="cls-7" points="143.4610410214 38.2582477547 146.0314699453 36.2761203859 149.6053293411 37.7629400843 148.7449578585 38.8237959334 143.4610410214 38.2582477547"/><polygon class="cls-7" points="103.7460018845 68.5168499963 98.2143378136 71.2469640559 100.0721992146 67.0683636818 105.6020699109 64.3381001743 103.7460018845 68.5168499963"/><polygon class="cls-8" points="50.9432371091 154.3216374671 57.083303526 156.6487279286 50.0766635392 157.0508174773 43.9383904969 154.7239138257 50.9432371091 154.3216374671"/><polygon class="cls-5" points="51.3610161788 46.4036434804 43.6423317368 46.7827180541 46.565646168 41.8361049718 54.2841421149 41.4593842024 51.3610161788 46.4036434804"/><polygon class="cls-5" points="161.1998144194 75.5445622454 153.4811299774 75.9236368191 156.4044427232 70.9770237368 164.1230898033 70.6003029674 161.1998144194 75.5445622454"/><polygon class="cls-3" points="7.9113229676 58.5424362822 10.1225539521 63.1231262052 2.2326020329 61.9995396041 .0251819695 57.4166453248 7.9113229676 58.5424362822"/><polygon class="cls-3" points="17.5803763436 34.3211925332 19.7916072722 38.9018824561 11.9016563619 37.7782584931 9.6942362986 33.1954015758 17.5803763436 34.3211925332"/><polygon class="cls-3" points="500.1910006256 82.7252907642 497.4589008082 87.0157155222 494.263443461 79.7148124624 496.9987936892 75.4265546988 500.1910006256 82.7252907642"/><polygon class="cls-3" points="385.2037932839 28.1569711013 387.4150242126 32.737847834 379.5250724926 31.6140744231 377.317652485 27.0313669537 385.2037932839 28.1569711013"/><polygon class="cls-3" points="358.864873595 109.4148900886 361.0761418856 113.9957668214 353.1861528037 112.8719560485 350.9787327961 108.289285941 358.864873595 109.4148900886"/><rect class="cls-7" x="1.7946917482" y="8.135663403" width="2.6065205437" height="6.1699341777" transform="translate(-8.1529409551 14.2068090894) rotate(-89.4300259556)"/><polygon class="cls-7" points="103.0962130125 27.9313611745 101.345617832 32.2128564211 98.779186639 28.1865808092 100.5290376287 23.9036284457 103.0962130125 27.9313611745"/><polygon class="cls-4" points="244.682057187 9.9288309498 250.1659352963 12.8345836424 243.1470779447 12.5374065126 237.6668239467 9.63165382 244.682057187 9.9288309498"/><polygon class="cls-4" points="421.4835754012 114.0920859867 426.9674535104 116.9978386793 419.9485961589 116.7008483593 414.4683421609 113.7950583048 421.4835754012 114.0920859867"/><polygon class="cls-8" points="161.6461587467 18.6804246805 159.8612652762 23.0460217273 157.2433492864 18.939866218 159.0289899963 14.5729988641 161.6461587467 18.6804246805"/><polygon class="cls-8" points="208.6770034277 25.3554026138 206.8921041766 29.7209996606 204.2741881868 25.6148441513 206.0598288967 21.2479767974 208.6770034277 25.3554026138"/><polygon class="cls-8" points="423.3107999855 58.4190853852 421.525906515 62.784682432 418.9079905252 58.6784895607 420.6936312351 54.3114727589 423.3107999855 58.4190853852"/><polygon class="cls-5" points="187.3668125291 4.0616562254 180.4957217754 5.3490750762 184.7448988083 1.8226652953 191.6159895621 .537263991 187.3668125291 4.0616562254"/><polygon class="cls-3" points="41.3017536623 5.8624285793 44.5461178304 9.8826889137 38.2693813213 7.8857662038 35.0290162781 3.8629652553 41.3017536623 5.8624285793"/><polygon class="cls-7" points="83.1531771602 91.2750362783 81.4032918572 95.5581754517 78.8370499747 91.5300691031 80.5869327772 87.2487606664 83.1531771602 91.2750362783"/><polygon class="cls-7" points="256.9403332675 92.8038134719 255.1904479644 97.0869526453 252.624397282 93.0588462967 254.3742756942 88.77753786 256.9403332675 92.8038134719"/><polygon class="cls-4" points="214.7757043614 63.9892888152 212.9911471487 68.3556331015 210.3728949011 64.2496270401 212.158535611 59.8827596862 214.7757043614 63.9892888152"/><polygon class="cls-8" points="378.6168307194 174.5292524385 376.8311933843 178.8955593628 374.2149553084 174.7895906634 375.999661969 170.4223496898 378.6168307194 174.5292524385"/><polygon class="cls-8" points="78.2415723704 13.6940210974 76.4559316605 18.0603653837 73.8396969594 13.9543593223 75.62440362 9.5871183487 78.2415723704 13.6940210974"/><polygon class="cls-5" points="418.8277370102 31.5199222522 411.9566462564 32.8071542932 416.2047397922 29.2818653714 423.0758305459 27.9953432079 418.8277370102 31.5199222522"/><polygon class="cls-5" points="199.6503079404 47.1217032312 193.4118674522 44.9011317535 200.396052894 44.3812025433 206.6341197625 46.6041278252 199.6503079404 47.1217032312"/><polygon class="cls-6" points="822.152699334 7.569963786 819.5311592329 9.5902003668 815.8865362628 8.0745745875 816.7662238848 6.9934685493 822.152699334 7.569963786"/><polygon class="cls-6" points="691.381614982 31.7414040256 688.7600748147 33.7616406064 685.1154517525 32.2460148271 685.9951393967 31.1649087889 691.381614982 31.7414040256"/><polygon class="cls-6" points="709.3144277659 77.6940523097 706.692886334 79.7143262524 703.048263364 78.1986631112 703.9279521806 77.1175944349 709.3144277659 77.6940523097"/><polygon class="cls-4" points="738.2925957996 83.7913020612 732.8098011875 80.8858856263 739.8279112996 81.1825396885 745.3096224145 84.0886660008 738.2925957996 83.7913020612"/><polygon class="cls-8" points="618.8198158542 115.0474880129 620.605450625 110.6815547083 623.2214985162 114.7875234077 621.4380621627 119.1534940743 618.8198158542 115.0474880129"/><polygon class="cls-3" points="739.8835806373 15.5662852412 736.6380956101 11.5458754589 742.9148694812 13.5423871871 746.1555744376 17.5657485652 739.8835806373 15.5662852412"/><polygon class="cls-8" points="693.7154305985 56.9921195668 697.4120604964 55.2786995048 693.3907176949 60.2506813664 689.6948340064 61.9589828382 693.7154305985 56.9921195668"/><polygon class="cls-8" points="751.2893686112 42.2713529266 754.9859620838 40.5579328646 750.9646557158 45.5299520882 747.2687721207 47.238216198 751.2893686112 42.2713529266"/><polygon class="cls-5" points="570.2020298792 56.386837174 577.0727470132 55.0985216359 572.8254007169 58.6252676746 565.9546462209 59.911789838 570.2020298792 56.386837174"/><polygon class="cls-5" points="720.4772495075 38.7774106999 718.0012716479 46.4595926897 709.2348827975 43.142634127 711.7088431107 35.4597048977 720.4772495075 38.7774106999"/><polygon class="cls-7" points="589.4759233581 90.6424232747 587.9460627059 98.0817898048 579.4064610233 95.876349926 580.9344909389 88.4366097762 589.4759233581 90.6424232747"/><polygon class="cls-7" points="654.8518447985 52.7746817669 647.3021111922 53.6036692142 646.7781535476 44.7995071881 654.3275442507 43.9685395562 654.8518447985 52.7746817669"/><polygon class="cls-4" points="765.2889741032 63.1302059543 757.5686457344 65.4846453797 755.2857196743 56.3941038339 763.0054851214 54.0374600521 765.2889741032 63.1302059543"/><polygon class="cls-5" points="650.6458568221 101.0106606313 646.3722076977 105.5736409792 640.5763571254 106.2446246446 642.1043870409 98.8046976849 650.6458568221 101.0106606313"/><polygon class="cls-5" points="832.0131214375 85.2387048785 827.7394723131 89.8016852264 821.9436217408 90.4726688918 823.4716932329 83.0327419321 832.0131214375 85.2387048785"/><polygon class="cls-4" points="574.4124459514 108.5659889957 567.4318846207 111.5583841027 564.3661106771 103.2887971801 571.3459247682 100.2941603548 574.4124459514 108.5659889957"/><polygon class="cls-4" points="635.4962138642 32.3514693394 628.5156525336 35.3439018083 625.4500715064 27.0742775238 632.4299168529 24.0796780604 635.4962138642 32.3514693394"/><polygon class="cls-4" points="709.4693291695 13.2975541809 702.4887689972 16.28979984 699.4229938952 8.0205491752 706.4028453483 5.0257629019 709.4693291695 13.2975541809"/><polygon class="cls-6" points="762.5694709125 9.626665652 766.5041722303 6.5942932343 771.9727319312 8.8685165046 770.65228513 10.4914085071 762.5694709125 9.626665652"/><polygon class="cls-6" points="796.754031023 96.4888805247 800.6887359799 93.4565081071 806.1572920417 95.7306940154 804.8368452405 97.3536233799 796.754031023 96.4888805247"/><polygon class="cls-8" points="848.1969825147 16.8593457498 845.5177928914 23.4112159835 841.5907881397 17.2494047435 844.2688616439 10.6964510126 848.1969825147 16.8593457498"/><polygon class="cls-6" points="598.5326703042 109.0095690738 601.1527532884 106.9895193029 604.8002904922 108.5057055118 603.9206084331 109.5867741881 598.5326703042 109.0095690738"/><polygon class="cls-5" points="805.6488329699 66.6095396498 795.9960313427 68.4177843982 801.9611690085 63.462951682 811.6140079976 61.6572475477 805.6488329699 66.6095396498"/><polygon class="cls-5" points="565.0680571727 75.5445622454 557.3493727306 75.9236368191 560.2726854765 70.9770237368 567.9913325566 70.6003029674 565.0680571727 75.5445622454"/><polygon class="cls-3" points="789.0720360371 28.1569711013 791.2832669658 32.737847834 783.3933152458 31.6140744231 781.1858952383 27.0313669537 789.0720360371 28.1569711013"/><polygon class="cls-3" points="762.7331163482 109.4148900886 764.9443846389 113.9957668214 757.054395557 112.8719560485 754.8469755494 108.289285941 762.7331163482 109.4148900886"/><polygon class="cls-4" points="648.5502999402 9.9288309498 654.0341780495 12.8345836424 647.015320698 12.5374065126 641.5350667 9.63165382 648.5502999402 9.9288309498"/><polygon class="cls-4" points="825.3518181544 114.0920859867 830.8356962637 116.9978386793 823.8168389122 116.7008483593 818.3365849142 113.7950583048 825.3518181544 114.0920859867"/><polygon class="cls-8" points="565.5144014999 18.6804246805 563.7295080295 23.0460217273 561.1115920397 18.939866218 562.8972327495 14.5729988641 565.5144014999 18.6804246805"/><polygon class="cls-8" points="612.545246181 25.3554026138 610.7603469299 29.7209996606 608.14243094 25.6148441513 609.9280716499 21.2479767974 612.545246181 25.3554026138"/><polygon class="cls-8" points="827.1790427387 58.4190853852 825.3941492683 62.784682432 822.7762332785 58.6784895607 824.5618739883 54.3114727589 827.1790427387 58.4190853852"/><polygon class="cls-5" points="591.2350552824 4.0616562254 584.3639645286 5.3490750762 588.6131415616 1.8226652953 595.4842323153 .537263991 591.2350552824 4.0616562254"/><polygon class="cls-7" points="660.8085760207 92.8038134719 659.0586907176 97.0869526453 656.4926400353 93.0588462967 658.2425184475 88.77753786 660.8085760207 92.8038134719"/><polygon class="cls-4" points="618.6439471147 63.9892888152 616.8593899019 68.3556331015 614.2411376544 64.2496270401 616.0267783643 59.8827596862 618.6439471147 63.9892888152"/><polygon class="cls-5" points="822.6959797634 31.5199222522 815.8248890097 32.8071542932 820.0729825454 29.2818653714 826.9440732992 27.9953432079 822.6959797634 31.5199222522"/><polygon class="cls-5" points="603.5185506937 47.1217032312 597.2801102054 44.9011317535 604.2642956473 44.3812025433 610.5023625158 46.6041278252 603.5185506937 47.1217032312"/><polygon class="cls-6" points="1234.9017918797 15.1548896732 1232.2802517786 17.1751262539 1228.6356288086 15.6595004747 1229.5153164305 14.5783944364 1234.9017918797 15.1548896732"/><rect class="cls-6" x="832.3568151338" y="85.0972794231" width="2.6568615915" height="6.2916224243" transform="translate(737.0882352645 921.001729051) rotate(-89.4255547935)"/><polygon class="cls-6" points="836.8190649337 87.5207529386 834.1975248327 89.5409895194 830.5529027236 88.0253637401 831.4325903678 86.9442577019 836.8190649337 87.5207529386"/><polygon class="cls-6" points="1104.1307075277 39.3263299128 1101.5091673604 41.3465664935 1097.8645442982 39.8309407143 1098.7442319424 38.749834676 1104.1307075277 39.3263299128"/><polygon class="cls-6" points="1122.0635203116 85.2789781968 1119.4419788798 87.2992521396 1115.7973559097 85.7835889984 1116.6770447263 84.7025203221 1122.0635203116 85.2789781968"/><polygon class="cls-4" points="924.0076344343 107.8410704937 918.5248398222 104.9356540588 925.5429872963 105.232308121 931.0246984112 108.1384344333 924.0076344343 107.8410704937"/><polygon class="cls-4" points="1151.0416883453 91.3762279483 1145.5588937332 88.4708115134 1152.5770038453 88.7674655756 1158.0587149602 91.673591888 1151.0416883453 91.3762279483"/><polygon class="cls-8" points="1031.5689084 122.6324139 1033.3545431707 118.2664805954 1035.9705910619 122.3724492949 1034.1871547084 126.7384199614 1031.5689084 122.6324139"/><polygon class="cls-3" points="1152.6326731831 23.1512111283 1149.3871881558 19.1308013461 1155.6639620269 21.1273130743 1158.9046669833 25.1506744524 1152.6326731831 23.1512111283"/><polygon class="cls-8" points="1106.4645231442 64.577045454 1110.1611530421 62.8636253919 1106.1398102406 67.8356072536 1102.4439265521 69.5439087253 1106.4645231442 64.577045454"/><polygon class="cls-8" points="1164.0384611569 49.8562788138 1167.7350546295 48.1428587518 1163.7137482615 53.1148779754 1160.0178646664 54.8231420852 1164.0384611569 49.8562788138"/><polygon class="cls-8" points="952.7668521066 58.8227976195 956.4632587694 57.1093775575 952.4421018493 62.0813967811 948.746405064 63.7896608909 952.7668521066 58.8227976195"/><polygon class="cls-4" points="951.2471904637 167.3293731636 953.0306268173 162.9616091224 955.6496321518 167.0685118712 953.8650690916 171.4364627223 951.2471904637 167.3293731636"/><polygon class="cls-5" points="982.9511224249 63.9717630611 989.8218395589 62.683447523 985.5744932626 66.2101935617 978.7037387666 67.4967157251 982.9511224249 63.9717630611"/><polygon class="cls-5" points="850.0289130695 118.0689104845 856.2681007972 120.2896314101 849.284251613 120.8094111724 843.0451012474 118.5868221482 850.0289130695 118.0689104845"/><polygon class="cls-5" points="1133.2263420532 46.362336587 1130.7503641936 54.0445185768 1121.9839753432 50.7275600141 1124.4579356564 43.0446307848 1133.2263420532 46.362336587"/><polygon class="cls-5" points="880.9010728616 35.0244540548 872.8297661314 35.0277419084 873.2938784837 25.6664381473 881.3651854178 25.6609459374 880.9010728616 35.0244540548"/><polygon class="cls-5" points="1147.3525378298 156.0377724317 1139.2812310996 156.0408734754 1139.7453415111 146.6795697144 1147.8168350512 146.6741148664 1147.3525378298 156.0377724317"/><polygon class="cls-7" points="886.782482349 60.8675063091 885.2526216968 68.3068728392 876.7129826523 66.1014703224 878.2408631199 58.6617301726 886.782482349 60.8675063091"/><polygon class="cls-7" points="885.1012216317 89.4479955304 883.5713609796 96.8873994225 875.031721935 94.6819595437 876.5596024027 87.2422193939 885.1012216317 89.4479955304"/><polygon class="cls-7" points="942.2620480785 77.1190303106 940.7321874264 84.5583968407 932.1925857438 82.3529943239 933.7206156593 74.9132541741 942.2620480785 77.1190303106"/><polygon class="cls-7" points="1002.2250159038 98.2273491619 1000.6951552516 105.666715692 992.155553569 103.4612758132 993.6835834846 96.0215356634 1002.2250159038 98.2273491619"/><polygon class="cls-8" points="905.8360043808 123.6323323719 904.3061437286 131.071698902 895.766504684 128.8662963852 897.2945719616 121.4265562353 905.8360043808 123.6323323719"/><polygon class="cls-3" points="1023.3291399566 156.1882756422 1015.7794063502 157.0172630896 1015.2554794221 148.2131010635 1022.8048394087 147.3821334316 1023.3291399566 156.1882756422"/><polygon class="cls-8" points="950.6681659749 36.2096879106 949.1383091796 43.6490918027 940.5987036402 41.4436519239 942.1267335557 34.0039117741 950.6681659749 36.2096879106"/><polygon class="cls-8" points="1338.446522338 109.9617175354 1336.9170291167 117.4013082374 1328.3770538144 115.1956815487 1329.90508373 107.755754589 1338.446522338 109.9617175354"/><polygon class="cls-7" points="1067.6009373443 60.359607654 1060.0512037379 61.1885951014 1059.5272460933 52.3844330753 1067.0766367964 51.5534654434 1067.6009373443 60.359607654"/><polygon class="cls-4" points="1178.0380666489 70.7151318415 1170.3177382801 73.0695712668 1168.03481222 63.979029721 1175.7545776671 61.6223859392 1178.0380666489 70.7151318415"/><polygon class="cls-5" points="1063.3949493678 108.5955865184 1059.1213002434 113.1585668663 1053.3254496711 113.8295505317 1054.8534795866 106.389623572 1063.3949493678 108.5955865184"/><polygon class="cls-5" points="1244.7622139832 92.8236307656 1240.4885648588 97.3866111136 1234.6927142865 98.0575947789 1236.2207857787 90.6176678192 1244.7622139832 92.8236307656"/><polygon class="cls-4" points="826.7024899166 103.4712889059 822.4288780462 108.0342692538 816.6330273274 108.7052529192 818.1610572816 101.2653259595 826.7024899166 103.4712889059"/><polygon class="cls-5" points="1303.0084618906 132.4434999275 1300.532521393 140.1256819174 1291.7663193525 136.8087233546 1294.2400928558 129.1257941254 1303.0084618906 132.4434999275"/><polygon class="cls-7" points="1114.1727079977 131.5430198889 1111.6967301381 139.2252392407 1102.9305662504 135.908243316 1105.4043024543 128.2253514487 1114.1727079977 131.5430198889"/><polygon class="cls-4" points="987.1615384971 116.1509148828 980.1809771664 119.1433099898 977.1152032228 110.8737230673 984.0950173139 107.8790862419 987.1615384971 116.1509148828"/><polygon class="cls-4" points="1048.2453064099 39.9363952265 1041.2647450793 42.9288276955 1038.1991640521 34.659203411 1045.1790093986 31.6646039476 1048.2453064099 39.9363952265"/><polygon class="cls-4" points="866.1148486057 81.405915152 859.1342872751 84.398347621 856.0685133314 76.1287233365 863.0483647846 73.1341238731 866.1148486057 81.405915152"/><polygon class="cls-4" points="1122.2184217152 20.882480068 1115.237861543 23.8747257271 1112.1720864409 15.6054750623 1119.151937894 12.6106887891 1122.2184217152 20.882480068"/><polygon class="cls-7" points="1357.1807801334 42.9929596811 1355.651293101 50.4325130211 1347.1120276761 48.2269236944 1348.6393477142 40.7869967347 1357.1807801334 42.9929596811"/><polygon class="cls-3" points="826.0570618404 133.5617249258 830.9221510985 139.5972900606 821.5046549308 136.598842314 816.6425172685 130.5640244187 826.0570618404 133.5617249258"/><polygon class="cls-6" points="1175.3185634582 17.2115915391 1179.253264776 14.1792191215 1184.7218244769 16.4534423918 1183.4013776757 18.0763343943 1175.3185634582 17.2115915391"/><polygon class="cls-6" points="1209.5031235687 104.0738064119 1213.4378285257 101.0414339942 1218.9063845874 103.3156199025 1217.5859377862 104.938549267 1209.5031235687 104.0738064119"/><polygon class="cls-7" points="1308.190642079 57.955271474 1305.5114524557 64.5078142232 1301.5873245759 58.3471238423 1304.2635999654 51.7941701114 1308.190642079 57.955271474"/><polygon class="cls-7" points="1296.4219572748 115.6765674976 1293.7427676515 122.2291476088 1289.8186771336 116.0684572279 1292.4949525231 109.515503497 1296.4219572748 115.6765674976"/><polygon class="cls-8" points="1260.9460750604 24.444271637 1258.2668854371 30.9961418707 1254.3398806854 24.8343306306 1257.0179541896 18.2813768997 1260.9460750604 24.444271637"/><polygon class="cls-3" points="1063.4622755162 151.5122944314 1068.329195388 157.5449453323 1058.9117368201 154.5485151322 1054.0502717962 148.5136972369 1063.4622755162 151.5122944314"/><polygon class="cls-7" points="923.9873842457 14.6619921947 921.3602024869 21.0866822737 917.5103502067 15.0463721685 920.135704353 8.6204117823 923.9873842457 14.6619921947"/><polygon class="cls-4" points="935.8667725719 30.2075243793 933.0095531538 34.5683764556 928.7161769084 30.4514233363 931.5734336884 26.0907580698 935.8667725719 30.2075243793"/><polygon class="cls-5" points="1350.5804142261 97.1564992289 1343.7114904667 98.4437312698 1347.9585069344 94.9169852311 1354.829591259 93.6312103071 1350.5804142261 97.1564992289"/><polygon class="cls-6" points="1011.2817628499 116.594494961 1013.9018458341 114.5744451901 1017.5493830379 116.0906313989 1016.6697009788 117.1717000752 1011.2817628499 116.594494961"/><polygon class="cls-4" points="957.3802068155 33.2207301051 960.4286448043 21.3674201356 956.4195184391 11.362705845 953.369996953 23.2160158144 957.3802068155 33.2207301051"/><polygon class="cls-4" points="959.100538799 22.1617356724 957.3152343468 26.5286030263 954.6981029584 22.42117721 956.4826228092 18.0548329237 959.100538799 22.1617356724"/><polygon class="cls-5" points="1218.3979255156 74.194465537 1208.7451238884 76.0027102854 1214.7102615542 71.0478775691 1224.3631005433 69.2421734349 1218.3979255156 74.194465537"/><rect class="cls-7" x="961.8472443199" y="42.0502720535" width="2.6076171367" height="6.1694107965" transform="translate(908.4548850659 1007.7903914473) rotate(-89.4310836901)"/><polygon class="cls-7" points="960.0783763203 45.8431736418 962.6488052442 43.8610462731 966.2226646401 45.3478659715 965.3622931575 46.4087218206 960.0783763203 45.8431736418"/><polygon class="cls-7" points="920.3633371835 76.1017758835 914.8316731125 78.8318899431 916.6895345136 74.6532895689 922.2194052099 71.9230260615 920.3633371835 76.1017758835"/><polygon class="cls-8" points="867.5605724081 161.9065633542 873.700638825 164.2336538157 866.6939988382 164.6357433645 860.5557257959 162.3088397129 867.5605724081 161.9065633542"/><polygon class="cls-5" points="867.9783514778 53.9885693675 860.2596670357 54.3676439412 863.182981467 49.421030859 870.9014774138 49.0443100896 867.9783514778 53.9885693675"/><polygon class="cls-5" points="977.8171497184 83.1294881326 970.0984652763 83.5085627062 973.0217780222 78.561949624 980.7404251023 78.1852288546 977.8171497184 83.1294881326"/><polygon class="cls-3" points="824.5286582666 66.1273621694 826.7398892511 70.7080520923 818.8499373318 69.5844654912 816.6425172685 65.0015712119 824.5286582666 66.1273621694"/><polygon class="cls-3" points="834.1977116425 41.9061184203 836.4089425712 46.4868083433 828.5189916609 45.3631843802 826.3115715976 40.7803274629 834.1977116425 41.9061184203"/><polygon class="cls-3" points="1316.8083359245 90.3102166513 1314.0762361072 94.6006414093 1310.88077876 87.2997383496 1313.6161289882 83.011480586 1316.8083359245 90.3102166513"/><polygon class="cls-3" points="1201.8211285828 35.7418969884 1204.0323595115 40.3227737212 1196.1424077915 39.1990003102 1193.934987784 34.6162928408 1201.8211285828 35.7418969884"/><polygon class="cls-3" points="1175.482208894 116.9998159758 1177.6934771846 121.5806927085 1169.8034881027 120.4568819356 1167.5960680951 115.8742118282 1175.482208894 116.9998159758"/><rect class="cls-7" x="818.4120270472" y="15.7205892901" width="2.6065205437" height="6.1699341777" transform="translate(792.7563307858 838.293210879) rotate(-89.4300259558)"/><polygon class="cls-7" points="919.7135483114 35.5162870617 917.9629531309 39.7977823083 915.396521938 35.7715066963 917.1463729277 31.4885543328 919.7135483114 35.5162870617"/><polygon class="cls-4" points="1061.299392486 17.5137568369 1066.7832705952 20.4195095296 1059.7644132437 20.1223323998 1054.2841592457 17.2165797071 1061.299392486 17.5137568369"/><polygon class="cls-4" points="1238.1009107001 121.6770118738 1243.5847888094 124.5827645664 1236.5659314579 124.2857742465 1231.0856774599 121.3799841919 1238.1009107001 121.6770118738"/><polygon class="cls-8" points="978.2634940456 26.2653505676 976.4786005752 30.6309476144 973.8606845854 26.5247921051 975.6463252953 22.1579247512 978.2634940456 26.2653505676"/><polygon class="cls-8" points="1025.2943387267 32.9403285009 1023.5094394756 37.3059255478 1020.8915234858 33.1997700384 1022.6771641956 28.8329026846 1025.2943387267 32.9403285009"/><polygon class="cls-8" points="1239.9281352845 66.0040112723 1238.143241814 70.3696083191 1235.5253258242 66.2634154478 1237.3109665341 61.8963986461 1239.9281352845 66.0040112723"/><polygon class="cls-5" points="1003.9841478281 11.6465821126 997.1130570743 12.9340009633 1001.3622341073 9.4075911824 1008.233324861 8.1221898781 1003.9841478281 11.6465821126"/><polygon class="cls-3" points="857.9190889613 13.4473544665 861.1634531294 17.4676148008 854.8867166202 15.4706920909 851.6463515771 11.4478911424 857.9190889613 13.4473544665"/><polygon class="cls-7" points="899.7705124592 98.8599621655 898.0206271562 103.1431013388 895.4543852737 99.1149949902 897.2042680761 94.8336865535 899.7705124592 98.8599621655"/><polygon class="cls-7" points="1073.5576685664 100.3887393591 1071.8077832634 104.6718785324 1069.241732581 100.6437721838 1070.9916109932 96.3624637471 1073.5576685664 100.3887393591"/><polygon class="cls-4" points="1031.3930396604 71.5742147024 1029.6084824476 75.9405589887 1026.9902302001 71.8345529272 1028.77587091 67.4676855733 1031.3930396604 71.5742147024"/><polygon class="cls-8" points="1195.2341660183 182.1141783257 1193.4485286833 186.48048525 1190.8322906073 182.3745165505 1192.6169972679 178.0072755769 1195.2341660183 182.1141783257"/><polygon class="cls-8" points="894.8589076693 21.2789469846 893.0732669594 25.6452912709 890.4570322583 21.5392852094 892.2417389189 17.1720442358 894.8589076693 21.2789469846"/><polygon class="cls-5" points="1235.4450723091 39.1048481394 1228.5739815554 40.3920801803 1232.8220750912 36.8667912585 1239.6931658449 35.5802690951 1235.4450723091 39.1048481394"/><polygon class="cls-5" points="1016.2676432394 54.7066291184 1010.0292027512 52.4860576407 1017.013388193 51.9661284304 1023.2514550615 54.1890537124 1016.2676432394 54.7066291184"/></g></g></svg>