<?xml version="1.0" encoding="UTF-8"?><svg id="Capa_2" xmlns="http://www.w3.org/2000/svg" viewBox="0 0 298.2190794695 109.1535474391"><defs><style>.cls-1{opacity:.5;}.cls-2{fill:#4d2d5d;}.cls-2,.cls-3{stroke-width:0px;}.cls-3{fill:#3f1651;}</style></defs><g id="Capa_1-2"><g class="cls-1"><path class="cls-2" d="m54.5767723408,109.1535474391h243.6423071286l-21.4416431866-18.3965751642v-36.1801985554c0-30.1418396257-24.4345688414-54.5767737196-54.5767723408-54.5767737196H54.5767723408C24.4349334766,0,0,24.4349340938,0,54.5767737196h0c0,30.1422042609,24.4349334766,54.5767737196,54.5767723408,54.5767737196Z"/><path class="cls-3" d="m186.5736178867,42.0351459789c1.0621823139-6.7836732806,6.5466602346-12.3439954617,13.3157479361-13.4962426971,7.7262550802-1.314874535,14.6040312689,2.8058678722,17.6191724704,9.1213495547,3.0155330366-6.3162109529,9.8936466606-10.4365887249,17.6206310112-9.1209849195,6.7690877016,1.1526118706,12.2532009871,6.713663322,13.3146540306,13.4977012379.8700195678,5.5595929107-1.0574420564,10.7024077865-4.5929448766,14.237910696l-23.3417571714,23.341757761c-1.657266947,1.6572669888-4.3438990406,1.6572669888-6.0008013523,0l-23.3421218066-23.341757761c-3.5354762989-3.5355029095-5.4636937147-8.679411691-4.5925802414-14.239733872Z"/><path class="cls-3" d="m106.9868823717,42.0351459789c1.0622068248-6.7836732806,6.5470248698-12.3439954617,13.3161125713-13.4962426971,7.7262550802-1.314874535,14.604004069,2.8058678722,17.6191724704,9.1213495547,3.0155330366-6.3162109529,9.8936466606-10.4365887249,17.6206567219-9.1209849195,6.7686973557,1.1526118706,12.2531752763,6.713663322,13.3146283198,13.4977012379.8700195678,5.5595929107-1.0578066916,10.7024077865-4.5929448766,14.237910696l-23.3417571714,23.341757761c-1.6572416474,1.6572669888-4.3442636758,1.6572669888-6.0008013524,0l-23.3421218066-23.341757761c-3.5355028202-3.5355029095-5.4640583499-8.679411691-4.5929448766-14.239733872Z"/><path class="cls-3" d="m27.4005114919,42.0351459789c1.0621823139-6.7836732806,6.5470248697-12.3439954617,13.3161125713-13.4962426971,7.7262550802-1.314874535,14.604004069,2.8058678722,17.6191724704,9.1213495547,3.0151684014-6.3162109529,9.8936466606-10.4365887249,17.620266376-9.1209849195,6.7691115728,1.1526118706,12.2535656223,6.713663322,13.3150186658,13.4977012379.8700195678,5.5595929107-1.0578066916,10.7024077865-4.5929448766,14.237910696l-23.3421218066,23.341757761c-1.6569023118,1.6572669888-4.3438990406,1.6572669888-6.0004367172,0l-23.3424864418-23.341757761c-3.5355028202-3.5355029095-5.4636937147-8.679411691-4.5925802414-14.239733872Z"/></g></g></svg>